<svg xmlns="http://www.w3.org/2000/svg" viewBox="0 0 200 45.27"><defs><style>.cls-1{fill:#8872a4;}</style></defs><g id="Layer_2" data-name="Layer 2"><g id="Layer_1-2" data-name="Layer 1"><path class="cls-1" d="M165,12.75c-.47,1.35-.89,2.72-1.4,4.06-.71,1.85-1.47,3.68-2.22,5.51a6.48,6.48,0,0,1-.63,1.08c-.43.62-.94.7-1.75.49-1.47-.39-2.95-.76-4.45-1.05a3,3,0,0,1-2.14-1.5c-.78-1.36-1.63-2.69-2.43-4.05-.38-.63-.69-1.29-1.1-2.08l-.32,2.22c-.46,3-.89,6.09-1.38,9.13-.34,2.05-.71,4.1-1.16,6.13a47.74,47.74,0,0,1-2.25,7.93,8.4,8.4,0,0,1-.5,1.05c-.2.38-.56.38-.92.3l-3.88-.86a.65.65,0,0,1-.53-.75,12,12,0,0,1,.23-1.8c.59-2.81,1.27-5.6,1.81-8.42.47-2.49.79-5,1.2-7.51.25-1.56.54-3.11.78-4.67.29-1.8.54-3.62.83-5.42s.59-3.44.92-5.15a5.22,5.22,0,0,1,.46-1.27c.26-.55.66-.65,1.27-.5,1.3.33,2.61.63,3.92.91a8.44,8.44,0,0,1,1.45.23A3,3,0,0,1,152,7.7a33.08,33.08,0,0,1,1.84,3c.77,1.34,1.48,2.71,2.21,4.07.28.52.53,1,.84,1.67.41-1.06.78-2,1.16-3,1.19-3,2.37-6,3.6-8.95a2.7,2.7,0,0,1,1.27-1.57,1.6,1.6,0,0,1,.69,0c.11,0,.21.11.32.14a19.61,19.61,0,0,0,4.25.67,1.88,1.88,0,0,1,1.64,1.18,22.32,22.32,0,0,1,1,2.38c.29.85.52,1.73.76,2.6a72.73,72.73,0,0,1,2,8.89c.23,1.69.57,3.38.79,5.08.3,2.35.54,4.7.77,7.06.15,1.67.29,3.35.34,5,0,1.25-.05,2.49-.07,3.74s0,2.34,0,3.52a7.77,7.77,0,0,1-.24,1.43c-.16.65-.42.78-1.07.61-1.15-.31-2.31-.62-3.46-.9a7.41,7.41,0,0,0-1.05-.17.79.79,0,0,1-.77-.78c-.25-2.06-.47-4.11-.74-6.16-.11-.85-.36-1.67-.46-2.52-.22-1.7-.39-3.41-.56-5.11s-.33-3.41-.5-5.11-.33-3.71-.55-5.56c-.24-2.05-.54-4.1-.82-6.14Z"/><path class="cls-1" d="M8,12.5c.31-.53.61-1.07,1-1.58.65-.95,1.28-1.93,2-2.82a9.7,9.7,0,0,1,1.73-1.59,1.93,1.93,0,0,1,1.6-.23c1,.25,2,.47,3,.69A5.51,5.51,0,0,0,18,7a3.76,3.76,0,0,1,3.12,1.86A13.29,13.29,0,0,1,22.79,13c.37,1.57.62,3.16.92,4.74.1.56.18,1.12.28,1.71a6.7,6.7,0,0,0,.79-.05c1.12-.18,2.09.42,3.14.55.59.07,1.17.14,1.75.16.77,0,.86.19.78.94a1,1,0,0,1-.93,1c-1.53.24-3.05.51-4.57.74-.4.06-.62.11-.59.62.12,1.82.15,3.65.26,5.47.09,1.51.28,3,.35,4.52.14,2.74.28,5.5.31,8.25a15.26,15.26,0,0,1-.41,3,.82.82,0,0,1-1.19.57A19.57,19.57,0,0,0,19,44.05c-.41-.07-.71-.25-.75-.67,0-.18.12-.38.12-.57,0-1,0-2.06,0-3.09,0-1.51-.13-3-.18-4.53-.09-2.71-.16-5.43-.27-8.15,0-1-.15-2-.24-3.12-.77.14-1.49.3-2.21.39-.93.13-1.87.2-2.81.31-1.09.14-2.18.3-3.26.46h-.1c-.48.16-1.12-.18-1.43.38a8,8,0,0,0-.51,1.47,19.49,19.49,0,0,0-.61,2c-.16.73-.18,1.49-.31,2.24-.35,2-.71,4-1.09,5.93-.12.63-.44.83-1,.58A14.45,14.45,0,0,0,.69,36.8C.11,36.69,0,36.58,0,36c.16-1.65.37-3.31.54-5,.07-.76.1-1.52.16-2.28.11-1.3.24-2.6.36-4-.18,0-.34-.1-.5-.12S0,24.51.05,24.17s0-.86.57-.87.59-.24.64-.68c.24-2.45.51-4.91.79-7.36.05-.49.17-1,.24-1.48.16-1.14.25-2.3.48-3.43A18.67,18.67,0,0,1,3.6,7.62c.2-.54.43-.58,1-.41.73.21,1.48.42,2.22.6a.91.91,0,0,0,.42-.07c.5-.11.73,0,.72.54s-.1,1.27-.12,1.91,0,1.52,0,2.28Zm7.77-2a7.68,7.68,0,0,0-.62.68c-.94,1.42-1.94,2.8-2.77,4.29-1,1.73-1.77,3.56-2.64,5.35-.13.26-.22.53-.38.92l8.05-1.23A56,56,0,0,0,15.73,10.5Z"/><path class="cls-1" d="M110.41,12.32c.09,1.52.2,3,.26,4.49,0,1,0,2,0,3,0,.82.14,1.64.15,2.46,0,1.67-.06,3.33,0,5,0,1.38.13,2.75.17,4.13,0,1.12,0,2.25,0,3.38,0,1.76,0,3.52,0,5.28a13,13,0,0,1-.41,2.38.86.86,0,0,1-1.08.69c-.65-.15-1.27-.41-1.91-.54-1.1-.23-2.21-.41-3.31-.6a.73.73,0,0,1-.65-.78c0-.52,0-1,0-1.56,0-2-.05-4.1-.07-6.14s0-4.1-.08-6.14c-.06-1.45-.27-2.9-.39-4.35-.08-.9-.11-1.8-.16-2.71-.07-1.37-.16-2.75-.2-4.12,0-1.18,0-2.35,0-3.57h-3a11.14,11.14,0,0,1-2.24,0c-1.26-.25-2.49-.66-3.76-1-.07-.11.34-.57-.3-.38,0-.48.17-.87.64-1a11.21,11.21,0,0,1,3.4-.56l4.89-.21c.33,0,.37-.17.38-.44.11-2.57.23-5.13.36-7.7a2.81,2.81,0,0,1,.09-.49c.18-.77.37-.85,1.1-.58a8.67,8.67,0,0,0,3.34.64c.95,0,1.34.19,1.52,1.12.3,1.54.49,3.11.71,4.67.11.8.2,1.59.29,2.38.74,0,1.46,0,2.17,0,2.89-.15,5.78-.32,8.66-.48.49,0,1-.1,1.46-.12a2,2,0,0,1,.58.1c.66.16,1.31.38,2,.49.94.16,1.89.24,2.83.37.51.06.6.23.43.74a1.3,1.3,0,0,0-.05.44.8.8,0,0,1-.77,1c-.84.12-1.67.25-2.51.29q-3.23.2-6.45.3c-2.55.09-5.1.15-7.66.22Z"/><path class="cls-1" d="M37.17,23.51c.52-.37,1-.72,1.46-1.05A8,8,0,0,1,45.53,21c1.24.33,2.54.43,3.81.67a6.8,6.8,0,0,1,3.73,1.95,6.17,6.17,0,0,1,1.65,4.51,10.28,10.28,0,0,1-1.53,5.46A11.23,11.23,0,0,1,49.82,37a10.68,10.68,0,0,1-5,1.79,11.19,11.19,0,0,1-2.7-.21c-1.12-.19-2.22-.51-3.33-.75a6.92,6.92,0,0,1-3.34-2,2.36,2.36,0,0,0-1.39-.73,16.32,16.32,0,0,1-1.83-.33.71.71,0,0,1-.4-.49,17.17,17.17,0,0,1-.13-1.75c-.15-2.47-.34-4.93-.45-7.4s-.13-4.8-.2-7.2c-.05-1.68-.14-3.36-.18-5-.05-2.29-.09-4.57-.09-6.86a7.76,7.76,0,0,1,.25-1.58c.08-.37.33-.42.7-.34,1,.22,2,.37,3,.6.25.06.62.28.66.49.27,1.42.47,2.86.69,4.3.11.81.23,1.63.3,2.44.11,1.33.18,2.65.28,4,.07,1.09.17,2.18.23,3.27C37,20.61,37.09,22,37.17,23.51Zm.37,8.8c.47.32.46.33.52.93a.63.63,0,0,0,.14.38c.62.69,1.27,1.36,1.89,2.06a1.35,1.35,0,0,0,1.67.33c.3-.12.61-.2.9-.32a11,11,0,0,0,4.06-2.91,11.63,11.63,0,0,0,1.41-2.07,6.29,6.29,0,0,0,.56-2.88,5.61,5.61,0,0,0-1.52-4,.78.78,0,0,0-.58-.28,9.39,9.39,0,0,0-1.73.54,11.41,11.41,0,0,0-4.7,3.6A17.56,17.56,0,0,0,37.54,32.31Z"/><path class="cls-1" d="M186.44,30.71c.14,2.57.19,5.09,1.67,7.42,1-.72,2.07-1.42,3.08-2.14.72-.52,1.4-1.08,2.11-1.62.47-.36.94-.74,1.44-1.06a1,1,0,0,1,.61-.06c1.11.21,2.22.45,3.33.66a4.67,4.67,0,0,0,.75,0c.31,0,.63.12.56.48a4.1,4.1,0,0,1-.49,1.44c-.79,1.17-1.63,2.3-2.48,3.42a13,13,0,0,1-1.7,2,6.25,6.25,0,0,1-6.59,1.19,20.55,20.55,0,0,0-4.16-.95A5.69,5.69,0,0,1,180,38.07a9.32,9.32,0,0,1-1.1-3.54c-.11-1.41-.25-2.83-.36-4.25a13.25,13.25,0,0,1-.07-1.78,9.41,9.41,0,0,1,.29-1.38c.3-1.38.59-2.76.91-4.13a6.61,6.61,0,0,1,1.56-2.84,5.8,5.8,0,0,1,3.24-1.85,8.3,8.3,0,0,1,4.08.24,18.24,18.24,0,0,0,3.21.54A5.91,5.91,0,0,1,196.52,22a4.44,4.44,0,0,1,.59,3.25,13.09,13.09,0,0,1-.31,1.38c-.64,2-2.18,2.93-4.1,3.46a20.42,20.42,0,0,1-5.45.53C187,30.64,186.75,30.68,186.44,30.71Zm.05-3.58,1.46-.46a4.39,4.39,0,0,0,2.56-2.4,1.25,1.25,0,0,0,.08-.55,4,4,0,0,0-.67-2c-.19-.27-.42-.4-.67-.19A10.27,10.27,0,0,0,187.59,23C186.67,24.16,186.64,25.61,186.49,27.13Z"/><path class="cls-1" d="M84.2,36c.49-.63,1-1.23,1.44-1.9a23.13,23.13,0,0,0,2.58-5.79c.44-1.45.73-3,1-4.45.27-1.26.5-2.54.7-3.81.24-1.48.42-3,.63-4.44,0-.21.08-.42.13-.63.1-.41.33-.4.69-.3.81.24,1.64.43,2.47.59a12.46,12.46,0,0,0,1.51.13,1.09,1.09,0,0,1,.92,1.29c-.18,1.74-.37,3.49-.64,5.23s-.67,3.63-1,5.44c-.25,1.31-.47,2.64-.81,3.94a20.74,20.74,0,0,1-2.57,6.35,7.13,7.13,0,0,1-3.09,2.66,5,5,0,0,1-3.58,0,25.76,25.76,0,0,0-3.68-.83,4.29,4.29,0,0,1-3-1.82,10.77,10.77,0,0,1-1.74-4.3,31.36,31.36,0,0,1-.68-4A21.13,21.13,0,0,1,76,22.45c.2-.71.4-1.42.63-2.12s.33-.67,1-.51a12.2,12.2,0,0,0,3.4.6c.9,0,1.15.28,1.17,1.19,0,1.41,0,2.82.11,4.23a37.08,37.08,0,0,0,.28,3.95c.24,1.59.64,3.15,1,4.73.1.46.27.92.41,1.38Z"/><path class="cls-1" d="M74.43,30.38c-.11.86-.18,1.78-.37,2.68a28.86,28.86,0,0,1-.91,3.43,8.09,8.09,0,0,1-2.85,4,4.23,4.23,0,0,1-3.89.55c-1.3-.37-2.62-.71-3.95-.95A5.2,5.2,0,0,1,59.22,38a11.53,11.53,0,0,1-2.29-4.92,13.07,13.07,0,0,1,0-5.5,17.9,17.9,0,0,1,1.53-4.47,9,9,0,0,1,2.92-3.4,4.2,4.2,0,0,1,3.86-.51c.9.3,1.92.25,2.86.47s1.83.4,2.21,1.5c.15.45.63.77.9,1.2,1.15,1.83,2.46,3.59,2.92,5.76C74.3,28.86,74.34,29.59,74.43,30.38ZM65,37.43a11.25,11.25,0,0,0,.72-14.83C62.74,26,61.75,33.53,65,37.43Z"/></g></g></svg>