<svg xmlns="http://www.w3.org/2000/svg" viewBox="0 0 200 46.73"><defs><style>.cls-1{fill:#8872a4;}</style></defs><g id="Layer_2" data-name="Layer 2"><g id="Layer_1-2" data-name="Layer 1"><path class="cls-1" d="M3.81,26.29c-.41,0-.77,0-1.14,0a20.54,20.54,0,0,1-2.2-.24C0,26-.06,25.67,0,25.21c.19-.88.36-1.76.47-2.65.08-.64.17-.83.81-.93l3-.52c0-1.14.09-2.31.15-3.48.08-1.69.14-3.37.26-5.06a17.16,17.16,0,0,1,.39-1.69c.12-.64.2-1.3.28-2,0-.29.06-.58.41-.61s1,.2,1,.56c.08.86.13,1.73.16,2.59s0,1.58.09,2.41c.17-.3.33-.61.5-.92.55-1,1.05-2,1.67-2.86a19.53,19.53,0,0,1,1.81-2.16c1-1.09,3.52-.26,3.9.94.31.95.82,1.84,1.09,2.81.37,1.27.64,2.59.89,3.9s.42,2.59.63,3.92c.55,0,1.09-.07,1.63-.14,1.2-.15,2.39-.35,3.59-.47a4,4,0,0,1,1.27.22c.1,0,.24.31.2.37-.48.75-.34,1.64-.6,2.44a6.87,6.87,0,0,0-.28,1.42.85.85,0,0,1-.7.81c-.94.21-1.88.39-2.83.57-.53.1-1.07.17-1.65.26.12,1.31.23,2.59.34,3.87.15,1.68.34,3.37.43,5a7.41,7.41,0,0,1-.28,1.79c-.21,1-.47,2.07-.67,3.11-.09.46-.41.52-.74.48a.87.87,0,0,1-.88-.84,11.13,11.13,0,0,0,0-2c-.47-3.55-1-7.1-1.5-10.65,0-.12-.07-.24-.11-.42L11,25.73c-1.15.11-2.3.24-3.45.34-.76.06-.76.08-.8.85-.07,1.28-.11,2.58-.28,3.85-.14,1-.48,2-.72,3-.1.41-.17.82-.27,1.23s-.22.75-.73.76a.91.91,0,0,1-1-.71,9.93,9.93,0,0,1-.34-2.47c.07-1.89.26-3.78.41-5.67C3.77,26.76,3.79,26.57,3.81,26.29Zm10.38-6.21c-.51-2-1-4-1.49-5.87A4.77,4.77,0,0,0,12.08,13a.34.34,0,0,0-.57-.1,9.62,9.62,0,0,0-1.1,1A20.76,20.76,0,0,0,7.3,19.42c-.19.44-.33.91-.49,1.36l.13.16Z"/><path class="cls-1" d="M114.69,8.56c-.25.33-.51.66-.74,1a.63.63,0,0,1-.83.25c-.37-.16-.26-.43-.19-.73.19-.84.38-1.69.51-2.54a3,3,0,0,1,.93-1.75,7.81,7.81,0,0,1,4.09-2.14,9.29,9.29,0,0,1,4.47.29,6.37,6.37,0,0,1,2,1,4,4,0,0,1,1.44,2.57,7.79,7.79,0,0,1-.44,3.21c-.21.91-.36,1.83-.63,2.72a10.68,10.68,0,0,1-.94,2.26,12.94,12.94,0,0,1-3.25,3.78c-.61.46-1.25.87-2,1.36a10.61,10.61,0,0,1,.75.83c.67,1,1.34,1.95,2,3,.34.55.56,1.17.86,1.75.45.87.93,1.72,1.38,2.58s.84,1.69,1.28,2.52c.55,1,1.13,2.05,1.69,3.08a9.34,9.34,0,0,1,.41.91c0,.07.06.18,0,.23-.25.34-.16.75-.23,1.13-.17.86-.39,1.71-.53,2.57,0,.28-.14.36-.4.32s-.73,0-1-.48c-.6-1.09-1.28-2.14-1.92-3.22-.4-.69-.8-1.39-1.17-2.09-.68-1.26-1.32-2.54-2-3.79s-1.54-2.78-2.36-4.15a13.51,13.51,0,0,0-1.15-1.39c-.08.59-.17,1-.2,1.49a39.78,39.78,0,0,1-1.11,7.53c-.26,1-.43,2-.69,3.05-.07.25-.36.63-.54.63a2.67,2.67,0,0,1-1-.4c-.06,0-.06-.27,0-.39.15-.59.35-1.16.47-1.76s.08-1,.14-1.43.19-1,.24-1.51c.12-1.17.25-2.34.3-3.51.09-2.53.14-5.07.2-7.61.06-2.72.11-5.44.18-8.16,0-.9.08-1.8.13-2.7V8.61Zm2.43,7.9a8.41,8.41,0,0,0,1.09-.57c1-.71,1.89-1.44,2.81-2.19a7.82,7.82,0,0,0,1.18-1.12c.63-.77,1.18-1.6,1.8-2.38a.65.65,0,0,0,0-.8,3.77,3.77,0,0,0-1.7-1.65,7.3,7.3,0,0,0-4.81-.45c-.36.09-.45.25-.44.6,0,1.53,0,3.06,0,4.59Z"/><path class="cls-1" d="M146.94,32.59c0,1,0,1.95,0,2.9,0,1.87,0,3.74,0,5.6a16.2,16.2,0,0,1-.72,3.73,10.54,10.54,0,0,0-.21,1.23c-.06.52-.21.72-.6.68-.85-.11-1-.25-.91-.85a4.21,4.21,0,0,0,0-.62c0-2.78,0-5.56,0-8.33,0-1.39-.1-2.77-.17-4.15a.74.74,0,0,0-.27-.45.67.67,0,0,1-.2-.78,5.7,5.7,0,0,0,.34-1.32c.07-1.55.09-3.12.13-4.68l.12-4.53c0-1.07,0-2.16.13-3.22s.38-2,.56-2.93c.08-.43.1-.87.16-1.3,0-.26,0-.59.37-.62.55,0,1,.23,1,.67s0,.92,0,1.42a15.78,15.78,0,0,1,1.62-.28,9.17,9.17,0,0,1,6,1.49,7.61,7.61,0,0,1,2,2.22,6.33,6.33,0,0,1,1,3.49,10,10,0,0,1-.26,1.71c-.18.87-.39,1.72-.58,2.59a7.27,7.27,0,0,1-4.23,5.14,15.33,15.33,0,0,1-2.8,1,10.19,10.19,0,0,1-2,.17A6.29,6.29,0,0,1,146.94,32.59Zm0-4.26a12.43,12.43,0,0,0,4.09-.79,9.6,9.6,0,0,0,3.88-2.61,1,1,0,0,0,.32-.95,7,7,0,0,0-2.54-3.64A6.69,6.69,0,0,0,147,19.21a.38.38,0,0,0-.25.27c0,.7,0,1.41,0,2.12C146.79,23.81,146.87,26,146.93,28.33Z"/><path class="cls-1" d="M189.92,12.27c-.8,0-1.56,0-2.33,0-1.12,0-2.24-.11-3.36-.18a1.06,1.06,0,0,1-.59-.18.67.67,0,0,1-.18-.51c.14-.84.35-1.66.48-2.5.1-.67.17-.77.8-.94a18.07,18.07,0,0,1,4.46-.34h1.69a.61.61,0,0,0,.68-.52c.49-2,1-4.08,1.51-6.13a2.8,2.8,0,0,1,.06-.28c.09-.27.06-.68.46-.69a.8.8,0,0,1,.83.89c-.09.91-.21,1.82-.37,2.72-.22,1.26-.49,2.52-.75,3.81h1.31c1.34,0,2.69-.08,4-.09a5.27,5.27,0,0,1,1.17.18c.08,0,.19.22.17.3-.29,1.2-.6,2.4-.88,3.6a.57.57,0,0,1-.54.49,43.88,43.88,0,0,1-6.06.33c-.29,0-.44.06-.54.38a43.05,43.05,0,0,0-1.91,9,19.36,19.36,0,0,0-.14,2.94,4.1,4.1,0,0,0,1.44,3.27,1.71,1.71,0,0,0,.73.18,3.22,3.22,0,0,0,.76,0,1.2,1.2,0,0,0,.47-.16c.87-.47,1.73-.93,2.59-1.42a1.44,1.44,0,0,0,.53-.48.57.57,0,0,1,.91-.15,1,1,0,0,1,.36.79,23,23,0,0,1-.81,3.27,4.23,4.23,0,0,1-2.07,2.08,11.84,11.84,0,0,1-1.78.78,15.14,15.14,0,0,1-1.79.71,3,3,0,0,1-3.93-2.55,17.76,17.76,0,0,1,.23-7.08q.59-3.33,1.24-6.63c.3-1.49.68-3,1-4.46C189.86,12.54,189.89,12.41,189.92,12.27Z"/><path class="cls-1" d="M79.62,29.71c-.33.89-.63,1.65-.9,2.41a8.63,8.63,0,0,1-1.88,3.16,1.74,1.74,0,0,1-2.68-.37,9.32,9.32,0,0,1-.59-2.07,26.57,26.57,0,0,1,0-4c.11-1.27.42-2.52.63-3.78.18-1,.28-2.08.52-3.09a8.11,8.11,0,0,1,1.86-3.81,3.6,3.6,0,0,1,4-1.05,2.35,2.35,0,0,1,1.55,2.4c-.05,1,0,2,0,2.95a21.45,21.45,0,0,0,.35,5.18,6.52,6.52,0,0,0,2,3.48l.41.32V31.3a5.53,5.53,0,0,1,1-.25c.47-.05.73.29.62.77-.28,1.12-.53,2.25-.85,3.36-.39,1.38-1.55,1.41-2.64.83-2.3-1.21-3.16-3.29-3.36-5.74C79.64,30.13,79.63,30,79.62,29.71Zm-3.4.7h.21a9.78,9.78,0,0,0,1.8-3c.57-1.64,1-3.32,1.52-5,.15-.5,0-.78-.55-.68a3.56,3.56,0,0,0-1.39.57A4,4,0,0,0,76,24.87a30.66,30.66,0,0,0-.08,4.07A8.49,8.49,0,0,0,76.22,30.41Z"/><path class="cls-1" d="M132.69,25.75a5.42,5.42,0,0,0,1.92,3,1.34,1.34,0,0,0,1,.21,13.77,13.77,0,0,0,2.27-.59,5.19,5.19,0,0,0,1.11-.73c.18-.12,1.07-.14,1.18.08a1.33,1.33,0,0,1,0,.74,18.19,18.19,0,0,0-.46,2c-.13,1.55-1.15,2.31-2.4,2.9l-2.14,1a3.54,3.54,0,0,1-3.47-.92,9.8,9.8,0,0,1-1.89-6,24.52,24.52,0,0,1,.73-6.5c.28-1.16.38-2.35.62-3.52a11.79,11.79,0,0,1,1.63-4.2,3,3,0,0,1,4-1.06,3.6,3.6,0,0,1,1.93,4.17c-.31,1.33-.56,2.68-.89,4a7.34,7.34,0,0,1-1.9,3.4A8.19,8.19,0,0,1,132.69,25.75Zm-.56-3.26.19,0c-.07-.83.4-1.2,1.07-1.57a10.35,10.35,0,0,0,2.27-1.66c.46-.47,1.1-1,.53-1.91a1.36,1.36,0,0,0-1.88-.69,3.65,3.65,0,0,0-1.76,2.58A21.62,21.62,0,0,0,132.13,22.49Z"/><path class="cls-1" d="M60.91,29.71a4.72,4.72,0,0,0,.37-.41A15.36,15.36,0,0,0,63.09,25c.42-1.47.79-2.95,1.15-4.43.3-1.29.57-2.58.82-3.87.15-.8.61-1,1.29-.6a.53.53,0,0,1,.2.36c0,.48,0,1,0,1.44,0,.91-.1,1.83-.15,2.74a19.15,19.15,0,0,0-.11,3,21.78,21.78,0,0,0,.81,4.09,34.67,34.67,0,0,0,1.69,4c.12.26.47.4.65.65a.89.89,0,0,1,.15.61c-.26,1.13-.55,2.26-.88,3.37a.72.72,0,0,1-.55.38,1.36,1.36,0,0,1-1.23-.56A13.86,13.86,0,0,1,66,34.56c-.49-1-.93-2-1.39-3a7.37,7.37,0,0,1-.65-2.85,2.27,2.27,0,0,0-.06-.3c-.42,1.24-.8,2.49-1.28,3.71a11.85,11.85,0,0,1-1,1.81,1.86,1.86,0,0,1-2.94-.12,6.94,6.94,0,0,1-.55-1.32A23.86,23.86,0,0,1,57.49,26c0-1.12,0-2.24.14-3.35s.34-2.19.51-3.28c.09-.62.17-1.24.26-1.86.05-.31,0-.71.48-.7.66,0,1,.31,1,.83,0,2,0,3.93,0,5.89.07,1.65.26,3.3.44,4.94a6.67,6.67,0,0,0,.4,1.27Z"/><path class="cls-1" d="M44.32,23.37c.63-1.15,1.2-2.28,1.86-3.36a7.13,7.13,0,0,1,2.14-2.2,2.35,2.35,0,0,1,3.51,1,14.84,14.84,0,0,1,.81,3.36c.27,2.31.41,4.64.61,7,.09,1.09.13,2.18.3,3.26.2,1.34-.36,2.53-.63,3.78a4.26,4.26,0,0,0-.08.8c0,.38-.12.69-.53.75s-1-.25-1.05-.57c-.12-.86-.24-1.72-.33-2.58-.2-2-.37-4.1-.56-6.15-.1-1.08-.16-2.18-.34-3.25a6.3,6.3,0,0,0-.73-2.53c-.28-.41-.45-.51-.84-.19a12.38,12.38,0,0,0-1.76,1.71,12.77,12.77,0,0,0-2,3.9,3.22,3.22,0,0,0-.12,1.38,10.22,10.22,0,0,1-.52,3.56c-.13.56-.26,1.13-.35,1.7-.06.34-.09.65-.54.65s-.89-.25-.9-.72c0-.68,0-1.36,0-2-.05-1.43-.12-2.86-.19-4.29-.09-1.94-.23-3.88-.26-5.82a13.13,13.13,0,0,1,.35-2.22c.08-.54.12-1.08.25-1.61,0-.23.28-.6.39-.59.32,0,.8-.08.9.43.07.32.14.63.18.95C44,20.79,44.17,22.08,44.32,23.37Z"/><path class="cls-1" d="M28,23.7c.4-.76.7-1.42,1.07-2s.79-1.09,1.19-1.62c.1-.13.23-.24.31-.37,1.09-1.77,3.55-1.14,4.31.3a9.63,9.63,0,0,1,1,3.05c.44,2.82.85,5.66,1.38,8.46a11.11,11.11,0,0,1-.45,4.63,1.6,1.6,0,0,0-.08.47c0,.34-.07.69-.43.7a1.37,1.37,0,0,1-.92-.35,2,2,0,0,1-.32-1c-.23-1.43-.41-2.87-.66-4.29S34,29,33.64,27.59c-.23-1-.55-2-.84-3a2.17,2.17,0,0,0-.15-.35c-.48-.87-.76-1.17-1.66-.22A8.68,8.68,0,0,0,28.26,31a1.79,1.79,0,0,1-.07.51c-.26,1.13-.55,2.25-.78,3.38-.13.63-.55.39-.9.4s-.48-.16-.46-.55S26,33.62,26,33.08c-.06-2.4-.11-4.79-.17-7.18,0-.89-.07-1.78-.09-2.67a3.51,3.51,0,0,1,.07-.72c.18-.93.37-1.86.56-2.78a4,4,0,0,1,.09-.52c.06-.23.18-.39.45-.25a.69.69,0,0,0,.28.05c.47,0,.58.26.6.63L28,23.21C28,23.32,28,23.43,28,23.7Z"/><path class="cls-1" d="M164.74,33.31a2.83,2.83,0,0,1-2.27-1.23A9,9,0,0,1,161,27.17a22.32,22.32,0,0,1,.7-5.39c.24-1.32.44-2.67.79-4a5.86,5.86,0,0,1,1.88-3.19c.2-.16.36-.48.57-.51a3.47,3.47,0,0,1,2.31.18,1.33,1.33,0,0,1,.56,1.26,1,1,0,0,1-.06.52c-.4.74.08,1.22.51,1.68a6,6,0,0,1,1.43,3.15,10.4,10.4,0,0,1-.41,5.13c-.25.8-.33,1.65-.56,2.45s-.57,1.84-.92,2.73a3.7,3.7,0,0,1-2.32,2.05A2.66,2.66,0,0,1,164.74,33.31Zm-.23-14.13a4.24,4.24,0,0,0-1.06,2.4,25.74,25.74,0,0,0,.12,2.78,6.43,6.43,0,0,0,1.39,3.3.82.82,0,0,0,.64.28,2.58,2.58,0,0,0,1.9-2.58,12.1,12.1,0,0,0-.23-1.34A12.21,12.21,0,0,0,164.51,19.18Z"/><path class="cls-1" d="M176.09,18.79c.34-.46.62-.82.88-1.2a7.87,7.87,0,0,1,3-2.75,26.66,26.66,0,0,1,2.53-1c.25-.1.52-.17.78-.25a2.57,2.57,0,0,1,1.6,0,.64.64,0,0,1,.52.87c-.23,1-.44,2-.69,3a.64.64,0,0,1-.38.42,14.61,14.61,0,0,0-3.69,1.72A24.08,24.08,0,0,0,178,21.45a3.63,3.63,0,0,0-1.37,3.33c.08.84.07,1.69.11,2.54s.11,2,.15,2.94a2.15,2.15,0,0,1-.09.61c-.23,1-.46,2-.7,3.05,0,.22,0,.57-.39.48s-.84.17-.93-.49a48.83,48.83,0,0,1-.56-6.29c0-1.21-.18-2.42-.27-3.64-.12-1.62-.27-3.24-.32-4.86a8.86,8.86,0,0,1,.32-1.74c.1-.57.16-1.14.27-1.71,0-.25,0-.59.39-.62a.83.83,0,0,1,.95.55C175.74,16.63,175.9,17.65,176.09,18.79Z"/><path class="cls-1" d="M89.84,31.11a33.19,33.19,0,0,1,1-7.69c.31-1.48.54-3,.85-4.46.61-2.84,1.26-5.67,1.88-8.51.23-1,.43-2.11.68-3.16.05-.19.31-.47.46-.47.74,0,1,.16,1,.59a19.8,19.8,0,0,1-.28,2.44c-.44,2.46-.89,4.91-1.38,7.36-.23,1.18-.6,2.33-.81,3.52a35.94,35.94,0,0,0-.67,5.19,15.07,15.07,0,0,0,.42,4.34A4.39,4.39,0,0,0,95.2,33a.75.75,0,0,0,1-.18c.23-.27.45-.5.78-.13l0,0c.66.23.63.22.45.89-.25.91-.47,1.82-.66,2.75A1.77,1.77,0,0,1,95,37.91a5,5,0,0,1-4.15-2.27A9.19,9.19,0,0,1,90,33,15.22,15.22,0,0,1,89.84,31.11Z"/></g></g></svg>