<svg xmlns="http://www.w3.org/2000/svg" viewBox="0 0 59.61 16"><defs><style>.cls-1{fill:#008589;}</style></defs><g id="Layer_2" data-name="Layer 2"><g id="Layer_3" data-name="Layer 3"><path class="cls-1" d="M49,4.63A4.87,4.87,0,0,1,53.5.3a5.55,5.55,0,0,1,5.7,4c2.48,8.21-7.32,2.36-5.82,6.36.31.83,1.45,2.72,2.7,2,1-.83,1.21-2.66,2.74-1.8,4.13,3.15-10.91,9.23-10-4.3Zm4.5-.93a3.2,3.2,0,0,0-1.14,2.14c0,.65,2,1.44,2.68,1.37,1.09-.12,1.42-1.42.91-2.84A1.42,1.42,0,0,0,53.52,3.7Z"/><path class="cls-1" d="M4.32,10.56a21.67,21.67,0,0,1,.5,4,.8.8,0,0,1-.49.63c-1.28.58-3.92,1.57-3.62-.77,0-4.47-1-8.94-.61-13.23A.88.88,0,0,1,.76.41C5.7-.9,3.4,3.14,4.29,5.83a.17.17,0,0,0,.32,0c.61-1.32.83-4.43,2-5.3l.08,0c6.42-1.17,1.12,4.83.14,7.68a.24.24,0,0,0,0,.12c.8,1.77,7.14,7.14,1.82,7.3a.23.23,0,0,1-.11,0c-1.7-1.06-2.25-4-4-5.19A.17.17,0,0,0,4.32,10.56Z"/><path class="cls-1" d="M15.39,4.31A2.66,2.66,0,0,1,12.34,6.6,1.55,1.55,0,0,1,11,4.53,12.23,12.23,0,0,1,13.39,1a2.81,2.81,0,0,1,1.73-.9c4.8-.62,4.19,4.76,4.48,8.44,0,.41.06.82.07,1.24.09,2.22,1.79,5.34,0,5.61-1.15.8-1.22-1.51-2-.72a4,4,0,0,1-.9.75c-4.78,2.75-5.73-4.26-4.52-7.11C14.38,5.64,17.32,9.26,15.39,4.31Zm.34,8.9a2.37,2.37,0,0,0,.68-3C15,7,13.51,13.21,15.73,13.21Z"/><path class="cls-1" d="M26,6.72c1.53-1.58.94-3.71,1.41-5.36a1,1,0,0,1,1-.76c3.35.07,2,1.12,1.94,6.21,0,4.27-1.06,10.52-6.56,8h0c-4.17-2.5-1.07-5.31,1.48-2.34.66.76,1.88.29,2.08-1.65.14-1.38.45-2.19-1.3-1.81-4.28.86-5.12-3.66-4.72-7A1.44,1.44,0,0,1,22.39.72c4.21-.85,2.12,3.15,3.23,5.94A.21.21,0,0,0,26,6.72Z"/><path class="cls-1" d="M35.77,13.3c9.46.41-.23,2.48-3.87,2-.91-1.12,0-3.12-.12-4.84,1-7-1.76-11.34,2.36-10C37.91,1.36,35.19,11.05,35.77,13.3Z"/><path class="cls-1" d="M48.16,6.13A3.73,3.73,0,0,1,45.59,9.4c-1.62.51-3.18.27-2.82,1.4,1.09,3.08,2.54.92,4.85,1.44A.85.85,0,0,1,48,13.66a5.14,5.14,0,0,1-4,1.57c-4,0-5.33-5.1-5.66-7.61-.15-1.14-.17-3.63.53-4.57C41.33-.2,48.38.29,48.2,5.59ZM42,7.16c.41,1.21,1.56,1,2.26.1a2.51,2.51,0,0,0,.44-2c-.49-2.85-2.06-1.86-2.72.63A2.16,2.16,0,0,0,42,7.16Z"/></g></g></svg>