<svg id="Layer_1" data-name="Layer 1" xmlns="http://www.w3.org/2000/svg" viewBox="0 0 1224.7 309.1"><defs><style>.cls-1{opacity:.43}.cls-2{fill:#dbeae7}</style></defs><g id="Layer_2" data-name="Layer 2"><g class="cls-1" id="Layer_1-2" data-name="Layer 1-2"><path class="cls-2" d="M0 193v-30h1l2-3v-1a8 8 0 011 0 9 9 0 004-1 32 32 0 014-2 1 1 0 000-1h2a2 2 0 001 0h2a3 3 0 001-1 2 2 0 001-1l1-1h3a2 2 0 000-1h3l1-1a7 7 0 011-1 2 2 0 012 1 1 1 0 001 0 4 4 0 012-1v-1l2-1 2-1a6 6 0 01-1 0 1 1 0 010-1 6 6 0 013 0h1a2 2 0 001 0 1 1 0 000-1h3a23 23 0 014-2 7 7 0 003-2l3-1h2l5-4a4 4 0 001 0c1-2 3-2 6-3a6 6 0 012-2h3l1-1a2 2 0 001-2l1-1a6 6 0 002 0 1 1 0 00-1 0 2 2 0 00-1 0l-1 1-2 1a3 3 0 01-2-1 3 3 0 01-1 0 4 4 0 002-1h1a4 4 0 00-2 0l-1 1h-3l-2 2v1a7 7 0 00-2 0 7 7 0 01-1 0l-2 1h-1 1v1a6 6 0 01-2 0 12 12 0 00-3 1l-1 1a1 1 0 00-1 0h-2l-1 3a9 9 0 00-4 1l-5 3a9 9 0 01-1 0 1 1 0 00-1 0 17 17 0 00-3 1l-2 1a3 3 0 01-1 0l1-1a7 7 0 013-2 3 3 0 001-1 2 2 0 00-1 0l-4 2a19 19 0 01-4 2 3 3 0 00-1 0v1l1 1-1 2a11 11 0 01-4 0 3 3 0 00-2 0 8 8 0 00-2 1 47 47 0 01-7 3l-1 1h-1l-5 3a21 21 0 01-3 1l-3 2v-9h3l1-2a15 15 0 012 0 4 4 0 002-2 5 5 0 013-1 1 1 0 001 0l1-1a2 2 0 011-1 7 7 0 002-1l1-1a8 8 0 001 0l-1-1a8 8 0 004-2l6-3a4 4 0 011-1h2l3-3 2-1a6 6 0 002-1h1v-1-1h0l1-1a1 1 0 011 0h2a7 7 0 001-1l2-1a12 12 0 001-1 11 11 0 002-1h2l2-1 1-1a3 3 0 001 0l-1-1 1-1h-1l3-2h1a8 8 0 011-1 2 2 0 011 0h3l-1-2a14 14 0 013-1h1c1 0 0 0 0 0h4a2 2 0 001 0h-1l1-1v-1a17 17 0 013-1 25 25 0 003 0 4 4 0 002-1h1l1-1a3 3 0 001 0 1 1 0 00-1 0l-1 1-3-1 2-1h2a3 3 0 010-1h3a5 5 0 000 1 2 2 0 002-1l-2-1 2-1 2-1 2-1 2-1 5-1a1 1 0 001 0l2-1 2-1c-1-1-1-1 1-1l3-2a4 4 0 011 0 6 6 0 003-1l3-1h1a1 1 0 001-1h-2a8 8 0 013-1h2v-1l1-1h3l1-1 2-1-1-1h2l-2-1 1-1h5c1 0 2 0 1-1h-1a1 1 0 010-1 2 2 0 011 0h1a2 2 0 001 0l2-1v-1c0-1 0 0 0 0a10 10 0 001 0 8 8 0 002 0s1 0 0 0v-2a10 10 0 011-1 4 4 0 013 0 9 9 0 001 0l1 1 2-1 3-1a4 4 0 001 0l-1-1h-1v-1h2a9 9 0 002-1 2 2 0 011 0v1h-2v1a3 3 0 001 0l1-1a11 11 0 002 0 2 2 0 001 0l-1-1a10 10 0 013 0h0v-1l5-2a2 2 0 011 1 1 1 0 001 0v-1a12 12 0 002 0l1-1h2a7 7 0 002-1 15 15 0 013-1l1-1-1-1h-2a3 3 0 01-1-1l1-1h1a6 6 0 001 0 8 8 0 005 1v-1h-2a2 2 0 01-1 0 3 3 0 012-1l1 1 2-1-1-3a4 4 0 011 0h3v1l-1 1c-1 1 0 0 0 0a1 1 0 001 0 2 2 0 001 0 3 3 0 00-1-1l2 1a2 2 0 002 0l1-1a27 27 0 014-1v-1h4a15 15 0 011-1 7 7 0 013-1 2 2 0 011 1 1 1 0 011 0h-1 1a5 5 0 002 0l2-1 1-1a9 9 0 004 0l7-3a18 18 0 013-1l3-1a8 8 0 014-2 33 33 0 006-2l2-1 3-1 1-1a56 56 0 007-2 3 3 0 011-1l6-1a10 10 0 002-1l6-2v-1h1c1 0 0 0 0 0h-2a31 31 0 01-6 1 12 12 0 00-1 0l-2-1 1-1h-1l1-1h2l1-1a4 4 0 013 0 2 2 0 001 0v-1l4-1h2a4 4 0 001-1l4-2h2l1-1 2-1a4 4 0 012 0 5 5 0 002 0 3 3 0 001-1l3-1h1a1 1 0 011-1h2a12 12 0 014-1 3 3 0 001 0 9 9 0 01-1-1l1-1a11 11 0 012 0 8 8 0 003 0 31 31 0 016-2h2l2-1a2 2 0 011-1 6 6 0 001 1 2 2 0 001 0l1-2h1l1 1a3 3 0 002 0 27 27 0 013-1h5l3-1 2 1h3a10 10 0 015-2l3 1h8a4 4 0 001 0 2 2 0 001 1v-1h4l-1 1v1l1 1h-4a7 7 0 00-1 0 47 47 0 005 1 10 10 0 013 1 2 2 0 01-1 0 18 18 0 01-5-1 1 1 0 00-1 0h-5a4 4 0 01-1 0h-1-1v1l-1 1h-1a1 1 0 001 0l-3 2a9 9 0 01-1-1 19 19 0 00-5 1l-7 1a9 9 0 01-1 0h-4v1a9 9 0 00-3 0 5 5 0 00-2 0 4 4 0 01-1 1 14 14 0 00-5 2h-4-2a5 5 0 00-3 0l-1 1a10 10 0 01-2 1l-2 1v1h-1a60 60 0 00-6 1v1a37 37 0 006-1l1-1 2-1a1 1 0 001 1l5-2a33 33 0 019-1 9 9 0 01-3 1 18 18 0 00-4 1 4 4 0 01-1 1l-7 1a19 19 0 00-4 2c-1 0-1 0 0 0a10 10 0 001 0l-1 1a70 70 0 01-7 2l-1 1h1l-1 1h-2l-2 1h2a5 5 0 002-1 4 4 0 003-1h1c4 0 4 0 5-2l1-1h1l-2-1a11 11 0 013 0h2a6 6 0 012 0l2-2a5 5 0 011 0 8 8 0 003 0l2 1h4l1-1 2-1 1-1h4l6-2a13 13 0 005 0 5 5 0 011-1 4 4 0 003 0 2 2 0 012 0 13 13 0 003 0l2 1a30 30 0 003 0h3l2-1a15 15 0 013 0 58 58 0 018-1h4a4 4 0 012 1h2l1 1-1 1h2l-1 1h1a4 4 0 000 1h1a22 22 0 014 0l2 1a14 14 0 003 0h3a3 3 0 011 0l2-1h1a8 8 0 012-1 2 2 0 011 1l-2 1a5 5 0 00-1 1l1-1 3 2a2 2 0 000 2 1 1 0 011 1v4c-2 1-1 2-2 4a3 3 0 000 2l2 1s1 0 0 0c0-1 1-2 4-2a3 3 0 002-2h-1v-1a2 2 0 011 0h1l-1-1v-1l1-1 1-1a4 4 0 013 2l-2 2 1 2h2-1l-1 1-1 1 2 1v1c-3 1-3 1-2 3l-2 1a11 11 0 011 1l-1 1a3 3 0 01-1-1l-1 1-1 1a4 4 0 01-1 0l-1 1h3a1 1 0 011 0l-1 1v1h0-2l1 2h-1-1 1l1 1-1 1h-2a8 8 0 00-1 2l-1 1h1l1 1a1 1 0 01-1 0 11 11 0 01-1 0 12 12 0 00-3 0s-1 0 0 0l1 1v1a4 4 0 01-1 1l-1 1a7 7 0 01-2 0 3 3 0 00-1 0s-1 0 0 0l-1 1-1 1-1 1v1h-1v1a2 2 0 00-1 2h-2a3 3 0 00-1 1l-2 1v1l-1 1-3 2-2 2-1 2v1a7 7 0 00-2 1 13 13 0 00-4 4l-2 1-1 3a1 1 0 00-1 0l-2 1-1 1-1 2v2h-1l-3 1-1 2a25 25 0 00-5 2v1a5 5 0 00-3 4l-3 3h-1l-2 2a2 2 0 00-1 1 4 4 0 01-1 1 14 14 0 01-2 2l-1 1-1 1-1 1-1 1 1 1h-2l-1 1-1 1a8 8 0 001 1l-1 1-2 1a1 1 0 000 1v1l-2 1-3 3 1 1a7 7 0 001 0 5 5 0 01-2 0 7 7 0 00-2 1v1l-3 2-1 2-2 1h1l1-1h1a9 9 0 013-1l3-2a6 6 0 011-1l1-1h1a26 26 0 005-2 7 7 0 011-1h1a1 1 0 00-1 0 6 6 0 012-1 5 5 0 002-1 13 13 0 002-1c4-1 4-1 5-3h1a9 9 0 004-2 3 3 0 00-1 0 5 5 0 00-2 0l-4 3a4 4 0 01-1 0h-2a8 8 0 01-2 2 12 12 0 00-3 1 11 11 0 01-2 1 4 4 0 01-3 0l2-1-1-1 1-1a3 3 0 002 1l7-3 3-1a5 5 0 002-1l4-2h1a4 4 0 010 1l3-1a2 2 0 011 0 3 3 0 002-1 7 7 0 011-1 2 2 0 001-2h3-1a2 2 0 010-1l1-1h1a11 11 0 004 0l1-1 2-1 1-1h2l2-1 3-1 4-3 3-1h2a11 11 0 010-1 5 5 0 013-1l6-2a4 4 0 002-1l4-1a6 6 0 013-2 33 33 0 004-2 27 27 0 002-1v-1h3l4-1a6 6 0 00-3-1l1-1 1-1a15 15 0 013 0h1c1 0 0 0 0 0h2a8 8 0 002-1 4 4 0 012-1l1 1-1-1h1v-1l-3 1a2 2 0 01-2 0 40 40 0 017-3 2 2 0 011 0 2 2 0 001 1v-1l3-1v1a1 1 0 001 0 2 2 0 00-1-1v-1l3-1a5 5 0 003-1l1-1 4-1h1v-1h1a2 2 0 00-1 0 8 8 0 003-1 2 2 0 011 0h2l1-1h7l1-2 3-1a22 22 0 014-1v-1a6 6 0 012 0 10 10 0 003-1h3a10 10 0 013-1l2 1a3 3 0 001-1 5 5 0 013 0 3 3 0 001-1 1 1 0 00-1 0h-2a4 4 0 01-1 0v-1a18 18 0 003 0h2a2 2 0 001 0l5-1a30 30 0 016-2l1-1a8 8 0 01-3-2 4 4 0 00-1 0l3-1a5 5 0 012 0l-1 1h4-2a32 32 0 016-2 3 3 0 001 0 5 5 0 011-1h3l2-1a4 4 0 001 0 5 5 0 002-1h3a7 7 0 001-1 7 7 0 013-1 6 6 0 003-1h2a13 13 0 005 0l10-4a4 4 0 011 0 29 29 0 004-2l4-1a58 58 0 017-2l9-3a14 14 0 014-2h2l3-1 9-3 1-1a2 2 0 011 0 8 8 0 011 0h1a12 12 0 001 0v-1l-1-1h1a6 6 0 011-1l4-1a2 2 0 001-1v-1a6 6 0 012 0 12 12 0 002 0c1-1 1-2 3-2h3a4 4 0 003-1 4 4 0 010-1 38 38 0 006 0l1-2 4-1 3-1a4 4 0 011 0l2-1a22 22 0 017-2l2-1a17 17 0 002 0 5 5 0 002-1 12 12 0 013 0 5 5 0 001-1l2-1 2-1a6 6 0 013 0 1 1 0 001 0l1-1c2 0 3 0 2-1h-1a2 2 0 012-1h2a17 17 0 013 0 3 3 0 002-1 1 1 0 00-1 0 6 6 0 00-1 0 8 8 0 012-2 1 1 0 011 0v1l1 1a2 2 0 002-1v-1-1a9 9 0 014 0v1a2 2 0 001 0l2-1h4a5 5 0 001 0V8a10 10 0 00-4 0h-1a2 2 0 011-1 21 21 0 005 0 2 2 0 011 1 1 1 0 001 1h1V7l-1-1h-1a1 1 0 011 0 17 17 0 002 0h1a2 2 0 011-1 1 1 0 010 1 8 8 0 000 1h1a2 2 0 001 0l1-1h5a21 21 0 014-1 24 24 0 004 0 2 2 0 001-1 4 4 0 011 0 1 1 0 011 0h2a2 2 0 011 0 6 6 0 003 0 33 33 0 014 0 28 28 0 003 0h1l2 1a8 8 0 011 0h0a3 3 0 00-2 0v1c1 1 1 1-1 1l-3 1a2 2 0 00-1 0 29 29 0 017 1 8 8 0 003 0 10 10 0 013 0 5 5 0 003-1 6 6 0 002 0 8 8 0 011 0h1l-1 1-4 1h-5a11 11 0 01-1 0h-2a18 18 0 01-3 0h-2a11 11 0 00-3 0l-1 1a3 3 0 01-1 0v-1l-1-1h-3l-2 1a1 1 0 010 1c-1 0-1 0 0 0 1 1 0 1-1 1h-1v1h-1l-2 1a4 4 0 00-1 1h2a2 2 0 000 1v-1a2 2 0 001-2l3 1 1 1a5 5 0 010 1 6 6 0 01-1 1l1 1a20 20 0 012 0 9 9 0 004 1l6-1 8-1a20 20 0 014 0h4l3 1v2l-1 2 1 1 3-1a7 7 0 001 0 10 10 0 004 0h-2a2 2 0 010-1c-1 0 0 0 0 0h2l3-1a1 1 0 011 0h3a13 13 0 015 1l1 4 1 1a1 1 0 010 2l-1 2a2 2 0 010 3 3 3 0 002 0l2-1a2 2 0 011 0v1l-1 1 1-1a11 11 0 004-3h-2l-1-1 1-2h-1v-1c0-1 0 0 0 0a1 1 0 011 0l1 1h1a3 3 0 012 1 2 2 0 011 1 12 12 0 000 1 1 1 0 001 0 3 3 0 001 1 4 4 0 001 0c-2-2-1-3 0-4a2 2 0 012 0h1c2 0 2-1 3-2a5 5 0 012 0 7 7 0 011 1 8 8 0 004 0 4 4 0 011 0l1 2-1 2a14 14 0 01-4-1h-1 1a6 6 0 01-3 1h1l1 1 2-1 2 1 1 1a12 12 0 01-1 1v2l-1 1h-1l1 1a15 15 0 004-2 18 18 0 011-2 2 2 0 011 0 1 1 0 011 1l-1 1-1 1h0-2v1a1 1 0 010 1v1c-3 0-3 0-2 1a1 1 0 011 0l-1 1-2-1a2 2 0 00-1 0l-1 1a2 2 0 001 0 4 4 0 011 1v1h-2-1a2 2 0 00-1 0c-1 0 0 0 0 0a4 4 0 013 2l-2 1a8 8 0 01-2 0h-2-1a1 1 0 001 0h2l-4 2a6 6 0 01-3 2 9 9 0 00-1 0v1l-1 1-3 1a3 3 0 00-1 0l-2 1v1c-2 1-5 2-6 4h1a5 5 0 011 1v1l-3-1a1 1 0 00-1 0l1 1v1a2 2 0 01-1 0 4 4 0 01-1 0h-1a3 3 0 00-1 0c-1 0-1 0 0 0a8 8 0 011 1v1h-3a2 2 0 001 0v1l-3 1-4 1 1 1-1 1-3 1c-1 1-2 1-1 2l-2 1a4 4 0 01-1 1 2 2 0 01-2 1 3 3 0 00-2-1l-3 1a18 18 0 012 1l1 1-1 1a4 4 0 01-2 1l-3 1-1-1h-2 2v1l-1 1a2 2 0 00-1 1 2 2 0 01-1 0 7 7 0 00-4 1 2 2 0 00-1 0h-3a1 1 0 001 0v1l-3 1a1 1 0 00-1 0l1 1h2l-2 1a5 5 0 01-1 1 2 2 0 000-1v1l-2 1-1 1-1-1a3 3 0 00-1 1 9 9 0 01-4 2 1 1 0 00-1 0 5 5 0 001 1 10 10 0 01-4 2h-4l2 1-5 2c1 1 1 1-1 1h-3a25 25 0 00-2 1h3c1 0 1 0 0 0a2 2 0 010 1h-2l-1 1a4 4 0 01-3 1 5 5 0 00-1 1 16 16 0 00-3 1 12 12 0 01-2 2 5 5 0 00-2 0l-2 2a4 4 0 01-2 2h-1l-1 1h1l-2 1a1 1 0 010 1 5 5 0 01-1 1 2 2 0 01-2-1h1a3 3 0 00-1 0l-2 1v1h6l1-1 1 1a10 10 0 005-1 1 1 0 001 0l-1-1c-1 0-1 0 0 0a7 7 0 012-1 2 2 0 002 0h1l1-1 2-1a25 25 0 003 0 19 19 0 014-2 41 41 0 004-1 5 5 0 002-1 8 8 0 005-2 6 6 0 011 0 15 15 0 002-1l4-1v-1l3-1a16 16 0 012 0l2-1v-1h1l3-1v0l1-1a7 7 0 01-2 0v-1h1l2-1a3 3 0 011 0 4 4 0 011 0 2 2 0 001 1 1 1 0 001 0 5 5 0 01-1-1 2 2 0 010-1h1a5 5 0 011 0l1 1 1-1 1-2 2-1 2 1v-1a3 3 0 011-1 10 10 0 002-1h2l3-1a10 10 0 011-1 3 3 0 011 1h1l1-2h2l1-1 3 1h1-1v-2h3a16 16 0 002-1 2 2 0 011-1 13 13 0 004-1 7 7 0 001 0l4-1a2 2 0 001 0l6-1a33 33 0 014 0v-1h-1a8 8 0 001-1 8 8 0 001-1h2v-1h1a3 3 0 011 0 3 3 0 010 1v1a2 2 0 001 0h-1a4 4 0 002-1 3 3 0 012 0 3 3 0 001 1 3 3 0 001 0 1 1 0 001 0 2 2 0 010-1 3 3 0 012 0h1l3-1a13 13 0 013-1 5 5 0 001 0l2-1h1a10 10 0 002-1 5 5 0 00-3 0l-5 2a3 3 0 01-1 0v-1a2 2 0 00-1-1 2 2 0 000 1c-1 0 0 0 0 0a1 1 0 010 1 2 2 0 01-2 0 1 1 0 00-1-1l-2 1v1c-1 0 0 0 0 0a6 6 0 01-2 0l-1-1 1-1h1a2 2 0 002-1 4 4 0 003-1h2l3-1h2-1 1a12 12 0 001 0 1 1 0 001 0l-1-1-1 1v-1h2v-1a19 19 0 014 0 26 26 0 005 0 4 4 0 001 0h1l1-1c1 0 2-1 1-2a1 1 0 011 0l1 2 1 1h1a3 3 0 002 0 9 9 0 013-1 2 2 0 001-1 4 4 0 011 0h1a29 29 0 006-2 14 14 0 012-1 1 1 0 001 0 4 4 0 002-1l2 1 3-1a4 4 0 001-1 9 9 0 004-1 12 12 0 015-1 4 4 0 001 0 40 40 0 014-2l7-2 7-2a2 2 0 011 0 33 33 0 003-1l5-1a14 14 0 002 0 16 16 0 014-2l3-1 4-1a23 23 0 003-1 25 25 0 015-1h1a19 19 0 008-2 3 3 0 011 0 3 3 0 001 0 6 6 0 012-1l3-1h1-1l2-1 1-1h2l2-1 2-1a14 14 0 005-1l3-1a27 27 0 004-1 42 42 0 016-2 13 13 0 002 0 15 15 0 012-1l5-1a18 18 0 014-1h2l3-1a18 18 0 003-1 49 49 0 017-1 16 16 0 002-1 11 11 0 014-1 13 13 0 003-1l11-2a6 6 0 011 0l3-1a2 2 0 00-1 0 31 31 0 01-4 0 3 3 0 01-1 0 10 10 0 002-2 3 3 0 011 0 15 15 0 015-1 5 5 0 013-1 15 15 0 002 0 4 4 0 011 0l2 1a3 3 0 001 0 5 5 0 00-1-1 6 6 0 014-1 8 8 0 003 0 61 61 0 006-2 6 6 0 011 0l2 1a4 4 0 001 0v-1h-1v-1a2 2 0 011 0 4 4 0 001 0h2a3 3 0 011 0h2a5 5 0 011-1 12 12 0 013-1 13 13 0 012 0h1a5 5 0 000 1h2a24 24 0 014 0h1l5-1h1l-2-1-1 1h-1l-2 1h-1V9h1l1-1a10 10 0 015 1l2 1a15 15 0 005 1 5 5 0 01-1-1h1a4 4 0 002 0V9a2 2 0 012 0l1 1a8 8 0 011 0 9 9 0 001 1 2 2 0 002 0 2 2 0 000-1h0l-1-1c0-1 0 0 0 0a10 10 0 015-1l4 1a15 15 0 012 1l-1 1h3l1-1-1-1h3l2-1a7 7 0 014 1l1 1h5a1 1 0 011-1l2 1 1 1v-1a14 14 0 014 3h-2l2 1a6 6 0 002 0 20 20 0 014 0v1c-1 0-1 0 0 0h-1l-3 1a5 5 0 01-3 0l-1-1a1 1 0 00-1 0l-2 1a5 5 0 01-2 1v-1-1a2 2 0 00-1 0 4 4 0 01-3 1l-2 1a9 9 0 00-1 0h-3-1 1l2-1h1l-2-1a13 13 0 01-1 0 1 1 0 00-1 0l-2-1h4a1 1 0 001-1 4 4 0 00-2-1h-1a12 12 0 00-2 0 30 30 0 01-3 2h-2a1 1 0 00-1 0 2 2 0 001 0 10 10 0 015 2 1 1 0 010 1l-3-1a13 13 0 00-5 0 16 16 0 01-2 0l-4 1h-3a19 19 0 01-2 1 8 8 0 01-4 0 1 1 0 01-1-1 51 51 0 016-1l3-1a4 4 0 001 0 28 28 0 006-1 17 17 0 01-3-1 4 4 0 00-1 0l-2 1h-2a50 50 0 00-6 1 42 42 0 01-4 1l-1-1a1 1 0 00-1 0l-1 1-3 1h-1a2 2 0 00-1 0v1l2 1h1l-1 1a2 2 0 00-2 0l2 2-1 1h7l8-1 2-1h5l7 1a7 7 0 001 0h1a5 5 0 00-1 1h2l1 1a1 1 0 000 1 2 2 0 001 0 8 8 0 001 0l5-1h1a5 5 0 001 0 8 8 0 013 0 20 20 0 016 1 10 10 0 001 0l2 1-1 2a1 1 0 000 1 3 3 0 002 1h3a14 14 0 013 1h3l1 2 1 1h1a4 4 0 000-1 5 5 0 012-3l3 1a3 3 0 002 0l2-1h7l1 1c1 0-1 1 1 1-1-1 0-1 1-2a2 2 0 011 0l1 1a5 5 0 01-3 3h3a5 5 0 011-2 2 2 0 011 0 3 3 0 011 0v1a1 1 0 001 0h2v1a7 7 0 01-2 0l3 1a10 10 0 011 1l-1 1h-2l1 1h-1a11 11 0 01-1 1l-2-1h-1l1 1h2v1h1l1 1a13 13 0 01-1 0l-1 1h-2a3 3 0 00-1 1 9 9 0 01-1 1l2 1v2a12 12 0 01-2 0l-1 1a5 5 0 011 1 5 5 0 010 2 10 10 0 01-4 0 2 2 0 00-1 1 5 5 0 00-2 0l-1 1a2 2 0 000 1 1 1 0 01-1 0 2 2 0 01-1 1h-1v1l-1 1h1v1a7 7 0 00-2 0h-1v1a1 1 0 001 0v-1a6 6 0 011 0v1a8 8 0 00-1 1l-1 1-3 2a2 2 0 01-1 0 1 1 0 010-1l-1-1a3 3 0 00-2 0l-2 2 1 1a3 3 0 001 0h1a3 3 0 011 0v1a3 3 0 00-1 1l-3 1a2 2 0 01-1 0v-1a2 2 0 000-1 2 2 0 00-2 1 2 2 0 01-1 1h-1l-1 1h1c2 1 2 1 1 2a12 12 0 00-4 2h-1a2 2 0 00-1 0l-1 1c-1 0-1 0 0 0l1-1 1 1a3 3 0 010 1l-2 1a3 3 0 00-1 0 2 2 0 000 1l-1 1c0-1 0-1 0 0l-1 1h-2v1l-2 1-2-1a4 4 0 002 1 1 1 0 01-1 0 4 4 0 00-3 2l-2 2-2 1-1-1-1 1h1a19 19 0 01-1 2l-3 2-3 2h-3a6 6 0 000 1 13 13 0 00-6 4l-1 1h-2a2 2 0 00-1 0l-2 3-4 2a1 1 0 000 1l-2 1-3 1a6 6 0 00-3 1 2 2 0 00-2 1l-3 1v1a6 6 0 01-1 1 5 5 0 00-3 2 9 9 0 01-2 2l-2 2-8 6a8 8 0 00-2 1l-4 4h-1l-4 3v1l-2 1-1 2-2 1a7 7 0 00-1 1l-1 1-2 2-3 3a18 18 0 00-3 2 3 3 0 01-1 1 16 16 0 00-4 3 5 5 0 01-2 2l-4 3v1a1 1 0 01-1 1 3 3 0 00-2 2 10 10 0 00-4 2v1l-2 1a6 6 0 00-2 3 15 15 0 01-3 2 3 3 0 01-1 1 9 9 0 01-1 0v2l-4 2a3 3 0 000 1h2l-1 2a5 5 0 00-2 0h1v2h-1a2 2 0 00-1 0 3 3 0 00-1 0l-4 2 2 2a3 3 0 01-2 2l-1 1h-2a3 3 0 00-1 0v1h1v1h-2l-1 1 2 1a2 2 0 01-1 1h-2v1a12 12 0 01-1 2 6 6 0 01-1 1v1a7 7 0 01-3 2 3 3 0 01-1 0l-1-1h1a6 6 0 000-1c1 0 0 0 0 0-2 1-2 2-1 2a11 11 0 001 1l-1 1-1 1-2 1c-1 0 0 0 0 0l1 1-2 1h-1l-1 2a7 7 0 01-3 1l1 1-1 1a9 9 0 01-1 0h-1a5 5 0 00-2-1 2 2 0 00-1 0l1 1h3a6 6 0 00-1 3l-2-1a2 2 0 00-1 0v1h1l-1 1v2h1a12 12 0 001 0 23 23 0 016-2 4 4 0 001 0 30 30 0 018-2 9 9 0 002-1l4-1a5 5 0 011 0 7 7 0 002-1l1-1a16 16 0 013 0 4 4 0 003 0 2 2 0 012-1h2a1 1 0 001 1l-1-1 2-1a2 2 0 011-1l2 1a3 3 0 002-1l2-1h4a1 1 0 00-1 0l2-1h7l1-1h2c1 0 1 0 0 0a5 5 0 010-1 5 5 0 004 0 4 4 0 011 0 11 11 0 004-1v-1a7 7 0 00-1 0 3 3 0 012-1 9 9 0 003 0l5-1a3 3 0 011-1 1 1 0 001 0h1a5 5 0 001-1 3 3 0 012 0l1-1 4-1h3l1-1a30 30 0 014-1l6-1 2-1a31 31 0 007-2h2a50 50 0 015-1 3 3 0 001-1 10 10 0 013-1 26 26 0 014-1 4 4 0 011 0v1l-3 1-2 1a9 9 0 00-2 1 5 5 0 00-2 0 1 1 0 001 0h1a21 21 0 006-1 13 13 0 013-1 58 58 0 008-2l6-1a54 54 0 015-2l6-1h2l3-1a16 16 0 015-1l3-1h1l4-2 6-1h2a11 11 0 004-1l2-1h-2v-1 1l-4 1a3 3 0 01-2 0 7 7 0 01-3 1h-3a19 19 0 00-2 1h-1l-4 1-5 1-1 1-12 2a4 4 0 01-3 0l2-1h4l2-1 1-1a29 29 0 003-1 27 27 0 015 0 9 9 0 001-1l4-1 4-1a11 11 0 013 0l1-1h2a7 7 0 001 0 30 30 0 017-3h2a2 2 0 011 0 3 3 0 011 1 5 5 0 00-1 0h-1l1 1h2a9 9 0 001 0 2 2 0 001 0 1 1 0 001 0 16 16 0 001 0 1 1 0 001-1 3 3 0 00-1 0 12 12 0 00-1 1h-3l-1-1h1l2-1a2 2 0 012-1l1 1a13 13 0 005-2h-1a9 9 0 014-1 4 4 0 000 1 1 1 0 001 0l-1-1 1-1 3-1a17 17 0 005-1l2-1a7 7 0 003 0 12 12 0 011 0 3 3 0 011 0h1a5 5 0 001 0 4 4 0 013-1l2-1a21 21 0 013 0l3-1a9 9 0 002-1l6-1a6 6 0 002 0 9 9 0 013-1 33 33 0 013-1h5c4-2 8-2 13-3l4-1a2 2 0 001 0 3 3 0 012-1 20 20 0 006-1l1-1 4 1v12l-6 1-6 1-2-1a7 7 0 011-1 4 4 0 002 0h1-1a4 4 0 00-2 0l-4 1-4 1h-3a14 14 0 00-4 1 5 5 0 01-2 1h-2a19 19 0 00-7 1 6 6 0 01-2 0l-2 1a27 27 0 00-6 1 12 12 0 00-1 0 16 16 0 01-2 1h-2a95 95 0 01-12 2 43 43 0 01-6 2l-8 2-5 1-5 1a38 38 0 01-5 1l-4 1a5 5 0 01-1 1h-1a1 1 0 001 0l-1 1a10 10 0 00-1 1c-1 0 0 0 0 0l6-1h1a7 7 0 003 0 2 2 0 011 0 7 7 0 003-1 7 7 0 012 0 11 11 0 002 0l4-1 3-1a12 12 0 002-1h4a14 14 0 013-1l3-1 12-3a23 23 0 016-1l7-2a5 5 0 001 0 20 20 0 006-1h2a15 15 0 012-1l2-1 7-1 5-1h1a3 3 0 012 0l4-1a6 6 0 011 0 36 36 0 006-1h1v38a4 4 0 00-2 1h-1 3v1h-2a8 8 0 00-1-1 2 2 0 00-1 0v1h2-3l-2 1a3 3 0 01-1-1 2 2 0 00-2 0 2 2 0 00-1 1l2 1-4-1-4 1-4 1a11 11 0 01-2 0 9 9 0 00-4 1l-6 1-3 2a7 7 0 01-1 0 7 7 0 00-3 0 4 4 0 01-2 0 8 8 0 01-3 1h-1l-2 1-1 1-2 1c-1 0-1 0 0 0a39 39 0 007-1l11-3h2c-1 1-2 2-5 2l-5 1h-2a2 2 0 01-1 1 16 16 0 01-7 1 5 5 0 00-1 0 6 6 0 00-1 0l-1 1-5 1-6 2h-1l-2 1-1 1-1-1a2 2 0 00-1 0l-1 1 1 1a6 6 0 01-3 1l-2 1h-5v1l-2 1-1-1h1a6 6 0 01-1 1h-2a40 40 0 01-8 2 5 5 0 01-1 0 17 17 0 01-3 1 14 14 0 01-2 1h-3a19 19 0 00-3 1h-1v1a1 1 0 001-1h3l1 1h-1a16 16 0 00-6 2h1a6 6 0 011 0v1h-1l-2 1-1-2a2 2 0 00-2 1h-1l-2 1-1 1a12 12 0 01-1 1 2 2 0 01-1 0l-1-1a2 2 0 00-2 0 9 9 0 000 1h-2c1 1 0 2-2 2l-4 1-1 1h-2a2 2 0 000-1v1l-1 1a8 8 0 00-2 0 25 25 0 00-3 1l-3 1-3 1-2 1h-2l-1 1a3 3 0 00-1 0 4 4 0 01-2 1 3 3 0 01-1 0h-2v1a2 2 0 01-1 0 5 5 0 00-2 0l-3 1h-1a3 3 0 01-1 0l-2 1h-1a5 5 0 00-2 0h-1v-1l-2 1h2a1 1 0 010 1h-2a11 11 0 00-3 1 4 4 0 01-1 0 3 3 0 01-2 0 2 2 0 00-1 0h-5a11 11 0 00-4 1 2 2 0 00-2 0l-1 1-6 1-2 1-1 1a1 1 0 000-1 1 1 0 00-1 1 8 8 0 00-1-1l-2 1-7 2a9 9 0 01-2 1h-1a1 1 0 001 0v1h-4 1a12 12 0 01-5 2l1-1a7 7 0 00-3 0 15 15 0 01-4 2l-3 1a1 1 0 00-1 0 5 5 0 00-1 0l-2 1a11 11 0 01-3 1 5 5 0 00-3 0 23 23 0 01-7 3 2 2 0 01-2 0l-1 1-2 1a3 3 0 01-2 0 1 1 0 00-1 0 1 1 0 01-1 1 14 14 0 00-2 0l-5 1-4 2-1 2a3 3 0 01-1 0l-2-1a6 6 0 01-3 1v1l-1 1 1 1 2-1a34 34 0 014 0 26 26 0 00-4 2l-3 1a19 19 0 01-3 1l-2 1a12 12 0 01-4 0v-1a4 4 0 002 0l1-1h4l1-1h-3-1a2 2 0 000-1 3 3 0 00-1 0v2l-1 1a4 4 0 00-2 0l-2 1-1 1h2l-1 1a3 3 0 00-1 0l-1 1a9 9 0 00-1 0 12 12 0 00-1 0 7 7 0 00-1 1h-1a16 16 0 01-4 1 11 11 0 011-1 2 2 0 001-1l-3 1-3 1h-2s-1 0 0 0a2 2 0 000 1v1l-1 1h-2l-3 1a25 25 0 01-3 1l-4 1h-3-2l-3 1a3 3 0 00-2 0l-1 1v1l1 1a9 9 0 01-1 0l-4 2a7 7 0 01-1 0h-2l1-1h1-1l-4 1a6 6 0 00-4 1l1 1v1a13 13 0 01-1 1 1 1 0 01-1 0 2 2 0 001-2l-3 2-2 1-4-1a8 8 0 00-2 1 1 1 0 00-1 0 11 11 0 00-1 0l-1 1a8 8 0 001 1 2 2 0 01-2 0 22 22 0 01-2 0 4 4 0 00-2 0v1h-1a4 4 0 00-1 0h-1 1l-8 2a22 22 0 01-3 0 5 5 0 00-2 1h-6a4 4 0 000-1h-1a7 7 0 00-4 1h-10v-1c1 0 1 0 0 0l-1 1h-8a2 2 0 00-1-1h-1l1 1h-2-2v-1l1-2h-5a10 10 0 00-3 0 5 5 0 01-2 0 12 12 0 00-6-2h-1l-2-1a15 15 0 011-1 1 1 0 00-1 0 5 5 0 00-1 0l-4 1-1-1-1-1h1a11 11 0 004 0l1-1a13 13 0 00-1-1 1 1 0 010-1l2-3h3l-1-1-2 1-4-1c-1-2-2-3-1-4v-2l2-1-1-1a9 9 0 003-3v-1a6 6 0 01-1 0 6 6 0 010 1l-4-1h-4a4 4 0 00-1 1l-3 3a1 1 0 000 1 6 6 0 01-1 2c0 1 0 2 2 3h2a1 1 0 011 1l-1 1a31 31 0 01-4 0v2l-1 1h1a13 13 0 012 1 2 2 0 01-1 1h-2a10 10 0 01-4-1l-1-1a6 6 0 01-2-4 8 8 0 010-1v-3a1 1 0 00-1 0l-1 1c1 1-1 2-2 2a3 3 0 01-1 0h-1l-2 1h-1a1 1 0 00-1 0v1a5 5 0 002-1 11 11 0 011 0l1 1a5 5 0 010 1l2 2 1 1v1l3 2a12 12 0 007 1h1v2a1 1 0 01-1 0l-4-1a7 7 0 00-2-1l-4-1a3 3 0 00-1 0l-1-1h-1l-3-1h-3s-1 0 0 0l1-1a3 3 0 00-2-2l-2 1v-1l-2-1-2-1v-1h2l-1-1a6 6 0 010-1v-2h2v-1h-2l-1-1 1-1-1-1 1-1 1-1 2 1v1-1c1 0 1 0 0 0v-1a1 1 0 00-1 0 2 2 0 00-1 0h-1l1-1-1-1h-1l1-1h1-1v-1l2-1v-1a7 7 0 003 1l1-1 1 1v-1h1c1 0 0 0 0 0h-2v-1h1a4 4 0 000-1h-1a6 6 0 000 1h-1a2 2 0 01-1 0l2-2a3 3 0 002-1 7 7 0 001-1l-1-1a2 2 0 00-2 0v1a2 2 0 01-2 0l-1-2a2 2 0 00-2 0 3 3 0 00-1 1v1a2 2 0 01-2 0 6 6 0 010-1h1-1a8 8 0 01-3-1 2 2 0 01-1-1c-1-1 0-2 1-2a5 5 0 003 0h-3l1-1a2 2 0 010-1h2v-2c-1 0 0 0 0 0h1a7 7 0 000 1h2l1-1h-3v-1-1l1-1c0-1 1 0 0 0l1-1 1-1 3-1a4 4 0 002 0c-2 0-2-1-2-2h1a1 1 0 000-1 1 1 0 011-1 2 2 0 010 1l1 1 2-1c1-1 2-2 1-3l2-1a3 3 0 002-1l1-3a7 7 0 011-1l-2-1h3l2-2-1-1h1-1v-1l1-2h1a3 3 0 001 0 4 4 0 001 0h-2l-1-1 1-1v-1a2 2 0 001-1h-1v-1h2a7 7 0 010-1c-1-1 0-1 2-2l1 1a2 2 0 002 0h2a6 6 0 003 0 6 6 0 01-1-1h2v-1a4 4 0 001 0v-1h-1l3-1a6 6 0 001-1v-3l3-1a3 3 0 001-1v-1h-1a3 3 0 010-1h2l1-1h-1l2-1a10 10 0 011-1l1-1h1a3 3 0 010-1h0l-1 1c0 1 0 0 0 0l-1 1v-1a4 4 0 000-2 1 1 0 011 0l2-2h2l-2-1 1-1v-1l3-2v-1l1-1v3l-1 1a2 2 0 00-1 1 1 1 0 001 0v-1c2 0 2 0 1-1a3 3 0 002 0 6 6 0 012-2l1-1-1-1 2-1a4 4 0 011-1c1-1 2-1 1-2l1-1 1-1v-1a7 7 0 002-1l2-1a2 2 0 010-1 5 5 0 002-1 29 29 0 012-3c1-1 4-2 3-4l2-1 3-3 2-2h-1l4-4a7 7 0 011 0l1-2a2 2 0 011-1 3 3 0 001-1 8 8 0 011-2 3 3 0 012-1h1v-1a1 1 0 011-1 7 7 0 002-2l3-2 1-2 3-2c1 0 2 0 1-1h1l1-1 1-1a9 9 0 001-1 1 1 0 001-1l1-1v-1 1l-1 1-2-1 1-1a1 1 0 010-1 6 6 0 001-1 36 36 0 014-4 1 1 0 011 0h2a7 7 0 001 0 4 4 0 002 0 10 10 0 002-1 15 15 0 013-1c-1-1 1-2 1-3v-1l2-1v-1-1 1h-1v-1l2-1 1-1h1v-1l2-1v-1a6 6 0 003-3h1a3 3 0 001-2l2-2h2c1-1 0-1-1-2 0 0-1 0 0 0a6 6 0 011 0h1a2 2 0 001 0v-1a12 12 0 00-2 0l3-1h1l1-1a5 5 0 002 1v-2h-2a8 8 0 012-2 7 7 0 011 0l1 1 1-1a4 4 0 00-1 0h-1l2-2a2 2 0 000 1h2l-1-1h-1l1-1h2v-2a3 3 0 012 0 1 1 0 001 0h-1l1-1v-1h1a10 10 0 013-3l2-1h1v1a1 1 0 001 0c2-1 2-1 0-2a11 11 0 01-1-1 8 8 0 003-1 2 2 0 011 0h1l-1 1 1-1a3 3 0 002 0v-1a4 4 0 00-1 0 3 3 0 01-2 0l1-1a8 8 0 013 0 5 5 0 001 0v-1a10 10 0 003 0 1 1 0 011 0 5 5 0 00-1 0v1h1a4 4 0 001 0l4-2a2 2 0 001-1 7 7 0 012-2l2-2a3 3 0 001-1 3 3 0 012-1 8 8 0 002-1 4 4 0 002-1 13 13 0 012-2l2-2 3-1-1-1-3 1a6 6 0 01-1 0l-5 1-2 2-2 1h-1l-1-1-4 1-8 2a14 14 0 00-4 1 3 3 0 01-1 1 7 7 0 00-3 1l1 1 4-1v1l1 1a2 2 0 01-1 1h-3a4 4 0 00-2-1v1h-2l-1-1h1l-2-1a3 3 0 001 1l1 1a2 2 0 002 0h2a5 5 0 01-2 1 3 3 0 00-2 1h-4-3a7 7 0 011 0c1 1 0 1-1 1l-3 1-2 1a6 6 0 01-1 0h-3l2-1h1l1-1h1a1 1 0 00-1 0l-1 1-2-1h-1l-5 1-4 1a13 13 0 00-2 0 1 1 0 00-1 0l-1 1h-3s-1 0 0 0l1 1h-4l-1 2-2-1-1 2a6 6 0 00-2 0l-2 2h-1l-3 1a4 4 0 00-1 1h1l-1 1-5-1a4 4 0 000 1 4 4 0 01-2 1 16 16 0 01-5 1 5 5 0 00-2 1 45 45 0 00-4 1 16 16 0 01-4 2l-1 1a4 4 0 01-2-1h-1l-2 1h-1 1l2 1a7 7 0 00-2 1 11 11 0 01-3 0 4 4 0 00-2 1h-1-1v1a2 2 0 001 0c1 0 1 0 0 0v-1h1l1 2a11 11 0 01-3 1 4 4 0 01-1 0l-2-1c1-1 0-1-1-1a1 1 0 00-1 0h1l-1 1c3 1 2 1-1 2l-2 1h-3-1v-1l-1 1a4 4 0 00-2 0h-2c-1 0 0 0 0 0a1 1 0 001 0h1a4 4 0 002 0h1a1 1 0 01-1 1h-3l1 1-1 1a7 7 0 01-3 0l-1-1-1 1a83 83 0 00-4 1v1a28 28 0 00-4 1 6 6 0 01-1 0v-1h1v-1 1h-1a4 4 0 00-2 1 4 4 0 00-2 1 6 6 0 00-1 0l-2 2h-5l-2 1-9 1v1a20 20 0 01-5 2l-3 1-3 1-2 1-2 1h-2a11 11 0 01-3 2l-5 2a26 26 0 01-6 2 3 3 0 00-1 0 4 4 0 01-2 1c-1 0-2 1-1 2a2 2 0 011 0l-2 1h-1-1-1l1 1h-1l-1-1a2 2 0 00-1 0 2 2 0 00-1 1v1h-2a17 17 0 00-3 1h-2a6 6 0 00-2 1 13 13 0 01-4 1v-1a1 1 0 00-1 0v1h1l-1 1-2 1a9 9 0 00-1 0l-3 1h-3-1v2a11 11 0 01-1 0 3 3 0 00-2 2 5 5 0 01-1 0 3 3 0 00-2 0 4 4 0 00-3 1 3 3 0 010 1 3 3 0 01-1 0 8 8 0 01-1 0 3 3 0 01-2 1l-1 1a1 1 0 010 1h-2l1 1a16 16 0 00-3 0 8 8 0 01-2 1 16 16 0 00-5 2 6 6 0 01-2 1 2 2 0 01-1-1 2 2 0 01-1 0h1v-1a2 2 0 00-1 1 5 5 0 00-2 0v1l-1 1h-1a14 14 0 01-3 1h-1a2 2 0 001 0 7 7 0 01-2 1c-1 0-1 0 0 0a2 2 0 01-2 1 35 35 0 00-3 0 5 5 0 01-1 0h-1a2 2 0 00-1 1 6 6 0 011 0l-2 1h-1l-5 2a9 9 0 01-3 1 3 3 0 00-1 1l-1 1a27 27 0 00-3 1 13 13 0 00-1 0h-2-1a7 7 0 000 1 7 7 0 00-3 1l-3 1-2 1a5 5 0 00-2 1 20 20 0 01-4 1 9 9 0 00-1 1v1l1-1h-1a8 8 0 003 0l1-1a1 1 0 011 0 22 22 0 01-4 2l-2 1a17 17 0 01-2 1l-6 3-3 2a28 28 0 01-3 1l-1 1-2-1a3 3 0 011 0l1-1v-1a12 12 0 00-3 1 1 1 0 00-1 1l-1 1 1-1h2l2 1a20 20 0 01-3 1 23 23 0 01-2 0 2 2 0 00-1 1l1 1a3 3 0 01-3 1v-1 1a3 3 0 01-3 1 7 7 0 00-1 0l1 1a78 78 0 01-8 3c0 1-1 2-3 2a2 2 0 00-1 1 3 3 0 01-2 1 5 5 0 00-2 1 2 2 0 00-1 1l-2 1-4 1-2 1v1a4 4 0 01-2 2 10 10 0 00-1 1l-3 1a4 4 0 01-2 1v0a7 7 0 010 1l-1 1a4 4 0 00-2 0l-2 2a20 20 0 00-4 2 12 12 0 01-4 2l-1 1-1 1a7 7 0 00-2 1h-3l-6 4a5 5 0 010 1l-9 4a17 17 0 01-3 2l-2 1a7 7 0 00-2 0c-1 1-3 2-3 4h-3a9 9 0 00-1 1l-1 1a7 7 0 00-4 2l-2 1-2 2a4 4 0 001 0l2 1h-1a32 32 0 00-6 1c0-1 0-1 0 0 2 0 2 1 2 2h-1a3 3 0 00-2 0l-1-1h1-1a21 21 0 01-4 1l-1 1 1 1a3 3 0 00-2 0l-4 2a6 6 0 00-3 1 27 27 0 01-2 1 22 22 0 01-3 2 2 2 0 00-1 1l-1 1-1 1a14 14 0 00-1 1h-2a2 2 0 01-1 1 1 1 0 010-1 2 2 0 01-1 0 2 2 0 001-1 1 1 0 00-1 0 2 2 0 000 1h-1l-2 1-2 1a1 1 0 011 0l-2 1-1 1h-3l-4 2a27 27 0 00-4 1 5 5 0 01-3 1 9 9 0 00-2 0 1 1 0 00-1 0h1a1 1 0 011 1h-1a10 10 0 00-3 0l-3 2h1a13 13 0 01-3 1l-2 1v1l-2 1a6 6 0 00-1 0l-2 1-1 1c1 0 1 1-1 1h-2l-4 1h-1v-1l-2-1a3 3 0 00-2 1h1a3 3 0 012 1v1a31 31 0 01-7-1h-1a11 11 0 01-1 1 3 3 0 01-1 0l-1-1a3 3 0 011 0 18 18 0 00-4 0 9 9 0 000-1 2 2 0 00-1 0 13 13 0 00-3-1h-1a5 5 0 01-4 0 6 6 0 00-2-1 20 20 0 01-2 0 4 4 0 01-1-1l-1-1a11 11 0 004 0l1 1a2 2 0 001 0 1 1 0 000-1h-2a6 6 0 011-2 1 1 0 000-1v-1a6 6 0 010-1c2 0 1-1 1-1h-4a5 5 0 00-3-1 7 7 0 00-1 0v1a9 9 0 003 0 2 2 0 01-1 1h-1a4 4 0 00-3 1v1a1 1 0 01-1 0 1 1 0 01-1 0 6 6 0 00-3-1 1 1 0 00-1 0l2 1c1 0 1 0 0 0a4 4 0 01-1 1 4 4 0 01-1 0l-4-1-2-1-3 1 1 1 1 1c0 1 1 2 3 2h4a23 23 0 013 0v1a5 5 0 01-2 0v1a3 3 0 00-1 1h-5-1l-1 1h-4l-1 1a2 2 0 01-1 0l-7-1-1-1a12 12 0 00-3 1l-3-1v-1a4 4 0 003 0 34 34 0 014-1 22 22 0 004 0l2-2a22 22 0 00-2-1 5 5 0 00-1-1 30 30 0 00-5 0 8 8 0 00-3 0h-1-1l3-1a7 7 0 00-2-1 7 7 0 00-2 0l-1 2v1a2 2 0 01-1 0l-2-1v-1l-2-1-2-1v-2l-2-1a5 5 0 00-1-2 1 1 0 010-1l-1-1a1 1 0 00-1 0v1a2 2 0 010 1v1l1 1a3 3 0 000 2l1 1a15 15 0 01-4-1h-1v-1a1 1 0 011 0h1l-1-1a2 2 0 01-1-2v-1l-2-1 1-1-1-2 3-3h1a3 3 0 01-1 1l1 4a3 3 0 002-1l1-4 2-1h2l1-1 1-1v-1h-2l2-2 2-1a3 3 0 001-1 14 14 0 00-1-1 1 1 0 00-1 0 3 3 0 00-2 0l-1 1a2 2 0 01-1 1 3 3 0 01-1 0v-1a1 1 0 00-1 0l-1 3a2 2 0 010 1 5 5 0 01-2 0l-2 1-1 1h1a2 2 0 001 0l1-1a3 3 0 010 1 2 2 0 01-1 0h-3a2 2 0 010-2 13 13 0 013-3h2v-1l-1-1h1a3 3 0 00-3-1l-3 1a5 5 0 01-3 0v-1-2l-1-2h-1v-1l2 1a4 4 0 002-3 2 2 0 011-2l3-2a5 5 0 012-2h1l-1-1h2l1-2a5 5 0 001-1l1-1 2-1h1v-1-1a5 5 0 012 0 6 6 0 001 0 3 3 0 001-3h1-1l-1 1v-1a16 16 0 012 0 1 1 0 00-1-1l1-1h0c-1-1-1-1 1-1a4 4 0 001-1v-3l2-1a6 6 0 001-1l-1 1-3-1a8 8 0 001 0c1 0 1 0 0 0h-1c0-1 1-2 4-2l2-1a6 6 0 002-1l2-2 1-2h1a7 7 0 00-1-1l3-1v-1a13 13 0 002-1 2 2 0 011 0 7 7 0 003-1 1 1 0 000 1 1 1 0 001-1 5 5 0 001 0c1-1 2-1 1-2l1-1a13 13 0 002 0v-1a1 1 0 00-1 0 3 3 0 00-1 1l-1 1a3 3 0 00-1 1l-1 1h-1a7 7 0 010-1l4-4h2a17 17 0 012-1 2 2 0 001-1c1 0 1 0 0 0h-1l1-1c2 0 2 0 1-1a7 7 0 002 0l2-2c2-1 2-1 1-2a3 3 0 002 0l-1-1h-1a3 3 0 010-1v-2a1 1 0 00-1 0 1 1 0 01-1 1 3 3 0 01-1-1l5-1-1-1v-2a4 4 0 002 0 14 14 0 003 0l2 1-1 2a9 9 0 01-3 0 8 8 0 00-1 1 3 3 0 011 1h1a3 3 0 002-2l1-1a7 7 0 003-3 5 5 0 001 0h-1a9 9 0 01-1 0v-1a15 15 0 003-2 5 5 0 011-1 1 1 0 011 0v1l-1 1a11 11 0 003-1c1 0 1 0 0 0v-1l2-1 2-1v-1l1-1 1-1h2v-1l2-2h1a11 11 0 001 0v-1a1 1 0 011-2l2-2 3-1 1-1 2-2h1l1-1 1-1 2-1h1l1-1v-1a40 40 0 016-4l1-1 1-1 3-2a3 3 0 001-1 27 27 0 013-2l3-2a1 1 0 001-1 19 19 0 004-1 12 12 0 004-4 5 5 0 014-1 5 5 0 001 0l1-1-1-2 3-1a9 9 0 001-1 6 6 0 001-1l4-2a6 6 0 012-2 11 11 0 001-1l6-4a4 4 0 001-1 16 16 0 013-1v-2h1a2 2 0 002 0v-1a1 1 0 010-1l1-1a5 5 0 01-3-1l1-1a2 2 0 001-2c-1 0 0 0 0 0h-2a2 2 0 00-2 0 1 1 0 000 1h-2a4 4 0 00-2 1s-1 0 0 0a4 4 0 002-1 4 4 0 002 0h1l-1 1-1 1-1 1h-2l-1 1h-3l1-1 1-1h0l-1 1a6 6 0 00-2 1l-2 1h-1l-2 1a17 17 0 00-5 2h-3l-2 1-4 2a17 17 0 01-5 2 11 11 0 00-3 0l-1 1a6 6 0 00-2 0l-1 1-3 1-3 1-1 1h-1 1l-2 1h-2l-5 3a1 1 0 00-1 0 7 7 0 00-3 2 18 18 0 00-5 1l-2 2h-2l1 1h1l-1 1-3 1a1 1 0 01-1 1 17 17 0 01-2 0l-1 1-2 1h-1v1l-2 2a4 4 0 00-1 0 27 27 0 01-4 2l-1 1v1l-2 1-2 1h-3l-3 2-1 1a16 16 0 01-6 2 4 4 0 000 1l1 1s1 0 0 0a3 3 0 010 1 2 2 0 01-2 0 8 8 0 00-3 0 12 12 0 00-3 1 8 8 0 01-2 1 3 3 0 01-1-1h1l1-1-1 1h-1a6 6 0 00-2 1 14 14 0 00-4 0v1a9 9 0 00-2 0l-1 1a34 34 0 00-5 3l-4 2-1 1-4 1c0 1-1 2-3 2l-2 1a5 5 0 00-3 1 4 4 0 00-2 1 8 8 0 01-2 1l-3 2-1 1v1a31 31 0 01-5 2l-1 2-3 1a4 4 0 00-1 1 5 5 0 01-2 1 2 2 0 00-1 1l-5 3-2 1v1a3 3 0 01-1 0 6 6 0 01-1 0c-1 0-2 0-1 1v1h-1a1 1 0 00-1 0 5 5 0 00-3 1 12 12 0 01-3 2 11 11 0 01-1 0 9 9 0 00-3 2 2 2 0 01-1 0 15 15 0 00-4 3 4 4 0 01-1 1l-8 4-4 2-10 6-2 2h-2a4 4 0 00-1 1l-2 1a9 9 0 01-2 1h-1l-2 1-2 1 1 1 1 1h-1a5 5 0 00-1 0l-4 3h-1l-1-1a2 2 0 00-1 0h1l1 1h1l-3 3a8 8 0 01-2 0 7 7 0 000-1 2 2 0 00-3 0l-3 2h-1l-3 1-1 2h-3l-1 2a9 9 0 00-1 1 5 5 0 01-3 2 1 1 0 000 1 1 1 0 01-1 0 5 5 0 00-2 1 5 5 0 01-2 1h-1 1l-7 4a6 6 0 01-2 0 24 24 0 00-4 1l1 1 1 1h1s1 0 0 0a6 6 0 01-2 1 4 4 0 01-2-1c1 0 1 0 0 0l-5 1v-1a1 1 0 000 1 2 2 0 01-2 1h-4a6 6 0 00-1 0l-1 1h-2l-1 1a2 2 0 01-1 0l-1-1a7 7 0 00-1 0 3 3 0 00-2 0 2 2 0 01-2 1h-2a5 5 0 00-2-1l-4 1-5-1a81 81 0 00-11 2 6 6 0 01-4 0h-2l-3 1a16 16 0 01-4-1v-1h-4l1-1a14 14 0 012-1h3v-1l-5-2h-7l-1-1h5v-1a17 17 0 003 0h5l-2-1-1-1h-1a3 3 0 01-3 0 9 9 0 01-2-1v-1a12 12 0 01-1-1l1-2a1 1 0 001 0 3 3 0 000-2 14 14 0 01-2 0l-5-1a4 4 0 01-3-1 1 1 0 010-1v-3a1 1 0 010-1v-4a13 13 0 01-1-1l-1-1 3-1v1h-1 1v-1l-1-1-4 1a9 9 0 000 1l-1 1a5 5 0 01-1 0l-3 1v1l-2 3a1 1 0 000 1 5 5 0 010 3 10 10 0 001 2l1 1-4 1a12 12 0 00-2 0 3 3 0 01-2 0v-1-3a2 2 0 011-2l1-1h1-1v-1a2 2 0 001-1 16 16 0 011-2l-2-1c-1-1-2-1-1-2a1 1 0 00-1 0l-2 2v2a2 2 0 000 1v3c-1 1 0 2 1 2l-1 1-2 1a3 3 0 01-1-1c-2-1-2-3 0-4a5 5 0 000-1c1-1 1-2-1-2l-4-1a7 7 0 00-1-1 4 4 0 00-1 0l-1 2a6 6 0 01-3-1 2 2 0 010-1 7 7 0 011 0v-1l2-1 1-1a3 3 0 00-1 0v1h-1l-4-2-1-1 1-1a9 9 0 013 0 5 5 0 001 0v-1h1a4 4 0 002-1h-1c-1-1-2-1 0-2a5 5 0 003-2 3 3 0 011-1l-3-1h3l-2-1a7 7 0 012-4l1-1v-2a3 3 0 000-1 3 3 0 01-1 1 2 2 0 01-1 0v-1a2 2 0 010-1 9 9 0 011-1h2l2-2v-2l2-1a5 5 0 011-2h3v-1a7 7 0 001-1v-1l1-1 1-1a1 1 0 010-1 11 11 0 000-1l2-1v-1-1a2 2 0 000-2h2l1-2 1-1a2 2 0 001-1c0-2 1-2 2-3h1v1l-1 1-1 2 1 1a5 5 0 00-1 0 2 2 0 001 0l1-1 2-1a7 7 0 010-1l1-1a9 9 0 012-2h0v-2l3-1-1-1a43 43 0 004-4 12 12 0 012-4 4 4 0 002-2 5 5 0 012-2 7 7 0 001-1 2 2 0 011-1 2 2 0 012 0 5 5 0 000 1 3 3 0 001-1 12 12 0 011-1 21 21 0 003-3v-1l-2-1 2-1 2-2 1-1h2l2-1 2-1 1-2v-2a3 3 0 01-1-1l5-2 2-3h1l1-1 2-2v-2l1-1 1 1 1-1 2-3 1-1h-1a4 4 0 00-1 0l-1 1a2 2 0 01-1 0 2 2 0 010-1l2-2v-1a54 54 0 004-4l2-3h1a4 4 0 002-2 23 23 0 014-4l1-2a2 2 0 011-1 12 12 0 004-4l-2 1a2 2 0 01-2-1l1-1a13 13 0 001-2l2-1c1 0 2 0 1-1h-1c-1-1 1-1 2-2a5 5 0 002 0 9 9 0 012-3l2-1 4-3 1-1 1-1a4 4 0 001 0l4-5a6 6 0 001-2 2 2 0 00-1 0h-1a7 7 0 01-1 0h-2a5 5 0 00-2 1s2 0 1 1a27 27 0 01-3 1 3 3 0 00-1 0 10 10 0 01-4 1l-2 2-1 1-2 1-7 4h-2a2 2 0 01-2 0 3 3 0 010-1h2a4 4 0 00-2 0h-1l-1 1-2 1s0-1 0 0a9 9 0 010 1 3 3 0 01-3 0 8 8 0 01-3 1 7 7 0 01-5 2v1h1s1 0 0 0a2 2 0 01-1 1 14 14 0 00-3 0l1 1h-4-1a2 2 0 000 1c-1 0-1 0 0 0l2 1a8 8 0 01-4 2 5 5 0 00-1 0l-5 2-1 1a4 4 0 01-2 1 26 26 0 00-4 0h-2l-2 1a4 4 0 001 1h-3v1a1 1 0 001 0l1-1h1l2-1v-1l2 1v1h-1 2c-1 1-1 2-3 2h-1v-1l-3 1-3 1a16 16 0 00-5 3 26 26 0 01-4 2l-4 1a3 3 0 00-3 1c0 1-1 2-3 2a6 6 0 00-1 0l1 1h-1l-3 1-1 1h1a6 6 0 00-2 1 7 7 0 01-3 0h-3v1a4 4 0 00-2 0 15 15 0 01-4 2 42 42 0 00-6 3l-2 2v-1l-2 1-1 1-3 1-2 2a38 38 0 00-4 2 21 21 0 01-4 2 23 23 0 00-4 2l-2 1a4 4 0 01-2 0l-2 1-1 2h-2a11 11 0 01-3 0v1l-2 1-2 1-5 3a21 21 0 01-6 1 3 3 0 00-1 1l-2 1a3 3 0 01-1 1 3 3 0 01-2 0l-2 1a1 1 0 01-1 0 27 27 0 00-3 2h-1a6 6 0 00-3 1 21 21 0 00-2 2 9 9 0 00-3 1 7 7 0 01-2 1h-1l-3 2-5 2a4 4 0 00-3 0 13 13 0 00-4 0l-1 1a14 14 0 00-3 2 9 9 0 01-2 1 20 20 0 01-2 1 4 4 0 01-2 0h-1l-1-1a3 3 0 013 0l1-1 2-2a19 19 0 002-1 1 1 0 00-1-1 5 5 0 00-1 1 6 6 0 01-3 1 9 9 0 00-3 1v1l-2 1v-1 1a4 4 0 01-2 0l-1 1h-1l-1-1 1-1h1s1 0 0 0h-1l-1 1h-1a2 2 0 01-2 0v-1a4 4 0 002-1c1 0 1 0 0 0l-2 1a6 6 0 00-3 1 7 7 0 01-2 1 9 9 0 00-1 1l-3 1-2 1-3-1zm5-39c-1 0-1 0 0 0zm20 30h-1a5 5 0 00-1 1l-2 1-2 1v1a2 2 0 002 0l1-1 1-1 1-2h2v-1 1zm6-3c-1 0-1 0 0 0zm4-1h-1 1zm1121-14h-1 1zm-6 50l-1 1-1-1-1 1a1 1 0 002 0zm-14-49h0-1zM64 113v1-1c1 0 1 0 0 0zm1061 65v0zM84 145a2 2 0 00-1 0h1zm2-26l-1 1h-2l-1 1-3 2-1 1h-2a1 1 0 001 0 2 2 0 001 0l1-1 2 1a1 1 0 001 0 7 7 0 002-1l4-1a7 7 0 001-1l-1-1a3 3 0 01-3 0l1-1h2-1zm4 0h3v-1c2 0 2 0 1-1h2l1-1s1 0 0 0l-1 1h-2l-3 2zm4-4h1zm7 9l-1 1h-1a3 3 0 001 0l1-1zm3-4h-1c-2 0-3 1-3 2a7 7 0 00-3 1l-1-1a18 18 0 014-2 7 7 0 002-1l2-1 1-1a2 2 0 012-2l4-2a1 1 0 00-1-1 8 8 0 00-3 2 9 9 0 01-3 1 7 7 0 00-3 3 4 4 0 01-2 1h-2c-1 1-2 3-5 3a2 2 0 00-1 1l-1 1-4 2-4 2a54 54 0 00-7 4 3 3 0 01-1 0l-6 3a6 6 0 00-3 2h1a4 4 0 001 0 22 22 0 005-2l2-1a8 8 0 002-1 4 4 0 012 0 1 1 0 000-1l2-1a7 7 0 002-1v-1a11 11 0 002-1 6 6 0 012-1 1 1 0 001 0 3 3 0 011-1 23 23 0 013-2 15 15 0 013-1 5 5 0 011 0h1a1 1 0 001 0l3-1 1-1 2-1h1l1-1zm1-10l-1 1a9 9 0 00-3 1 1 1 0 001 0l2-1 1-1zm8 1c1 0 1 0 0 0zm7-8l1-1a8 8 0 002 0 9 9 0 003-1v-1a1 1 0 00-1 0l-4 2zm13 15l1 1a1 1 0 00-1-1 1 1 0 00-1 0l-6 2a11 11 0 00-2 1l-3 2a6 6 0 01-3 1v-1s1 0 0 0a5 5 0 00-2 1 47 47 0 01-7 3 21 21 0 00-4 2 20 20 0 01-4 2l-7 4a1 1 0 00-1 1 10 10 0 00-5 2 6 6 0 003 0l2-2 4-1v3h-2l-1 1v1l-3 1-3 1v1a10 10 0 00-3 0l1 1 2-1a6 6 0 002-1 22 22 0 014-2 6 6 0 002 0 16 16 0 013-2l5-2a33 33 0 016-3 8 8 0 002-1 14 14 0 011-1 28 28 0 004-1 29 29 0 014-2l4-2a31 31 0 017-4h1v-1l2-1a1 1 0 00-1 0h-1a1 1 0 01-1 0v-2zm895 109zm-4-1c1 0 1 0 0 0l-1 1h-3v1-1a11 11 0 003 0zm-2-130c1 0 1 0 0 0zm-877 16h1zm874 128h1-1zm-8-147a1 1 0 00-1 0v0h1v1zm-3 135l-1 1c-1 0-1 0 0 0zm-6 21zm-835 11v0zm4-141v-1l2-1a6 6 0 002 0v-1a1 1 0 00-1 0l-1 1a4 4 0 00-2 1l-1 1a7 7 0 00-1-1 2 2 0 00-2 1l2 1a14 14 0 000 1 1 1 0 002 0v-1h-1l1-1zm821 2h1-1zm-1 112h0zM184 60c1 0 1 0 0 0zm794 197h-1a5 5 0 00-1 1h1v-1zM187 111h2a2 2 0 001 1l1-1a2 2 0 00-1-1l-2 1v-1h1l1-1h2a3 3 0 000 1h1l3-1h-3a4 4 0 00-2-1h3a1 1 0 001 0l3-1 1 1 2-1 3-2h-1v-1a8 8 0 012-1 2 2 0 011 1h1a2 2 0 002 0l3-1 2-1a5 5 0 003-1l1-1 5-2a8 8 0 012 0c-1 0-1 0 0 0h1a11 11 0 004-2h1l1-1h2a4 4 0 002-1 5 5 0 012 0l3-2 3-1 2-2c0 1 0 0 0 0h-1a5 5 0 013-1 8 8 0 001 0 1 1 0 001 0l-1-1a7 7 0 00-1 0h-1a2 2 0 011-1h2l1-1 1-1 3-1a2 2 0 000-1 4 4 0 012-1v-1a1 1 0 00-1 0l-3 1-8 3-4 2a11 11 0 01-3 0l-3 2-1 1-3 1-1 1-11 4a10 10 0 01-1 0 1 1 0 00-1 0 4 4 0 00-2 1 7 7 0 00-3 1c-2 1-5 1-6 3a9 9 0 01-2 0l-6 3a17 17 0 01-4 1h-2a20 20 0 00-4 2 4 4 0 01-1 1l-5 2-2 2a8 8 0 01-3 1v1h-1a5 5 0 01-1 0l-2 1c-1 0-1 0 0 0l1 1 2-1a4 4 0 012 0 4 4 0 002 1 1 1 0 001 0l3-1h2c2-1 1-1 0-2v-1zm788 13s1 0 0 0v1a1 1 0 000-1zm-2 83c1 0 1 0 0 0zm-2 32h1-1zm-6-168l-1 1a8 8 0 00-3 0l-9 3-8 1a1 1 0 010-1l3-1a13 13 0 001 0l2-1a5 5 0 002 0 1 1 0 000-1 3 3 0 00-2 1 11 11 0 00-2 1h-3a3 3 0 00-1 0 27 27 0 01-4 1l-2 1v1h2v1a7 7 0 01-4 0l-2-1a5 5 0 00-3 1 2 2 0 00-1 1 6 6 0 00-2 0l-5 1a7 7 0 00-3 1h-1v1a1 1 0 001 0 3 3 0 000-1 45 45 0 005 0 1 1 0 011 1h-1l-8 2a2 2 0 01-1 0l1-1-1-1a4 4 0 00-1 0l-2 1a2 2 0 00-2 0v1l-1 1a7 7 0 00-2 0l-5 1a16 16 0 00-3 1 5 5 0 01-1 1 19 19 0 00-6 1l-2 1a4 4 0 01-1 1 20 20 0 00-5 1l-4 1-5 1-2 1a10 10 0 00-4 1 19 19 0 01-4 1l-3 1-10 3a2 2 0 000 1v1l-2-1-1 1-1 1-3 2h-1a2 2 0 00-2 0 3 3 0 00-2 1 6 6 0 00-1 1 1 1 0 001 1l2-1a4 4 0 012 0h2l4-2a25 25 0 002-1l5-1a42 42 0 015-2h4l2-1a2 2 0 001 0h-1a3 3 0 012 0 8 8 0 003-1h1a5 5 0 013-1 2 2 0 001 0 12 12 0 011-1 2 2 0 011 0 8 8 0 011 0 16 16 0 011-1 10 10 0 016-1 3 3 0 000-1l3-1h1l2-1 1 1a8 8 0 002-1l2-1a18 18 0 002-1 6 6 0 004-1 9 9 0 002 0l4-1 1-1a2 2 0 012 0 2 2 0 001 0l1-1h2l1-1a15 15 0 005-1l4-1 7-2a4 4 0 002 0 5 5 0 003-1 16 16 0 003 0l1-1a13 13 0 002 0 4 4 0 002-1c1 0 0 0 0 0h-1a6 6 0 014-1l4-1 4-1 5-1h-1 1a22 22 0 014-2h2l3-1 1-1a3 3 0 001 0v-1a1 1 0 00-1 1 11 11 0 00-2 0 36 36 0 01-6 1 9 9 0 00-1 1 59 59 0 01-7 2 24 24 0 01-4 0l4-1 4-1 1-1zm-2 137l-1-1a1 1 0 001 1zm-2-63c-1 0-1 0 0 0zm-1 103l1-1a8 8 0 001 0 21 21 0 014-1 5 5 0 013-2h2a4 4 0 012 0l1-1a26 26 0 017-3 2 2 0 011 0l-1 1h3l2-1h1a4 4 0 002-1h1a6 6 0 001 0l7-2a9 9 0 003-2h2a7 7 0 001 0h1a3 3 0 00-3 0h-1l-2 1a11 11 0 01-3 0 2 2 0 00-1 1 11 11 0 01-2 0 10 10 0 00-3 2h-1a4 4 0 00-2 1h-4a11 11 0 013-2 26 26 0 005-2 7 7 0 004-1 17 17 0 014-1 28 28 0 009-2v-1a2 2 0 00-1 0 29 29 0 01-4 1 6 6 0 00-3 1l-1 1a17 17 0 00-2 0l-5 2a15 15 0 00-5 1 69 69 0 01-8 2l-2 1a11 11 0 01-2 0l-4 1a45 45 0 00-4 2 9 9 0 01-2 0c-1-1-1-1 1-1a19 19 0 004-1v-1a5 5 0 00-1 0l-2 1a11 11 0 01-2 0l-6 2a15 15 0 00-3 0l-1 1-3 2-4 1a3 3 0 002 0l4-1 3-1h1a3 3 0 013-1v1l-9 2a6 6 0 00-1 1 5 5 0 01-3 0l-1-1h-2l-5 2a10 10 0 00-4 1 5 5 0 01-2 1h-2a32 32 0 01-7 2l-2 1-5 2-5 1-7 2-5 2a5 5 0 01-4 2 13 13 0 01-3 2 2 2 0 00-1 0l-2 1-2 1-6 2a12 12 0 000 1h1l3-1a4 4 0 001-1h1a31 31 0 006-1l3-1a9 9 0 013-1 7 7 0 002 0 6 6 0 012-1 4 4 0 003-1 4 4 0 012-1h2a3 3 0 003 0 3 3 0 002 0 3 3 0 000-1h1a3 3 0 012-1h2l1-1h1c1 0 1 0 0 0h-1a28 28 0 014-1 1 1 0 001 0h-1l3-2 1 1 2-2 8-2a6 6 0 002 1l5-2a16 16 0 014-2l2-1h1a1 1 0 001 0 7 7 0 001 0v-1a6 6 0 014-1l-1 1c-1 0-1 0 0 0zm-2-177s-1 0 0 0zm-5-32h-1l1-1-2-1h1-1l-2 1 1 1a4 4 0 001-1l1 1a7 7 0 011 0zm-1 130s1 0 0 0zm-730-66c-1 0-1 0 0 0zm725 74v-1 1h0zm-3 3h-1l1 1-1-1zm-710-27l2-1 1-1 3-4a64 64 0 005-5h-1a10 10 0 01-4 3l-3 4a14 14 0 00-2 2 18 18 0 00-1 2zm11-60h-1 1zm10 48h1-1zm12 87c-1 0-1 0 0 0zm3 7h-1l-1-1a7 7 0 011 0 8 8 0 00-2 0l-2 2a6 6 0 00-1 0h3a3 3 0 010 1c-1 0-1 0 0 0l2-2h1v-1 1zm1-2c-1 0-1 0 0 0v-1a1 1 0 000 1zm1 0c-1 0-1 0 0 0zm652-17h0zm-3-5h-1 1c1 0 0 1 0 0a2 2 0 00-1 0zm-1-104h-1zM280 227h-1l-1 1a4 4 0 00-2 1h1l-2 2-1 1h1a3 3 0 001 0l3-2 3-2a10 10 0 012-1l1-1a8 8 0 003-2 84 84 0 018-4l4-2 4-2a26 26 0 006-4l-1-1 3-2h-2a15 15 0 01-6 4 3 3 0 00-1 0 22 22 0 01-4 2l-4 3-5 3a24 24 0 01-4 3l-1 1a4 4 0 00-1 0h-1 2v1a5 5 0 00-2 0l-3 2a4 4 0 01-2 1v-1l1-1h2a1 1 0 00-1 0zm6-7v0zm4-188s-1 0 0 0zm609 54h1-1zm-595 80c1 0 1 0 0 0zm6-21zm1 72h1a3 3 0 002-1h-1a1 1 0 00-1 1zm3-7s-1 0 0 0zm2-8h-1l-1 1 1-1h1zm1-171c-1 0-1 0 0 0zm533 84h0zm0 185h0zM323 156h0zm509 147zM334 83zm10 63h-1l-2 1-1 1a11 11 0 00-1 0h-1 2v1a1 1 0 01-1 0h-2a7 7 0 00-1 0 1 1 0 00-1 0 6 6 0 00-1 1l1-1a20 20 0 003 1 15 15 0 002 0l4-1 2-1 1-1a6 6 0 012-1 2 2 0 001-1 4 4 0 013-1 8 8 0 001 1h0l-1-1 2-1a7 7 0 014 0 5 5 0 001 0l2-1 2-1 5-3a13 13 0 003-2 4 4 0 012-1l2-1 2-1 1-1h1a2 2 0 001 0 2 2 0 001-1l2-1 2-1a1 1 0 001 0h-1a6 6 0 01-2-1 1 1 0 00-1 0l1 1-2 1a1 1 0 010 1 4 4 0 00-2 0l-1 1-1 1-2 1h-1l-2-1 1-1a6 6 0 001 0h-1l-1 1-1-1a3 3 0 01-1 1l-4 2a15 15 0 01-1 0 3 3 0 00-2 1v1l-6 1a16 16 0 01-5 3 43 43 0 00-5 3 10 10 0 01-3 2l-1-1v1zm463-75c1 0 1 0 0 0v0zM353 197v-1 1zm437 71v-2h3l-3-1s-1 0 0 0a5 5 0 000 1v1zm-3 3l1-1a7 7 0 003 0l2-1h-6l1 1-1 1h-1l-2-1-2 1a4 4 0 00-1 1l-2 5a1 1 0 000 1l2-2a2 2 0 011 0 12 12 0 011 1h2a2 2 0 011-1h1c1 0 0 0 0 0h-1l-1-1a3 3 0 01-1 0 1 1 0 011-1l3 1h1a8 8 0 012-3h-3a4 4 0 00-2 0 4 4 0 010 1l-2 1-1-1 3-2zM385 127s-1 0 0 0zm3-1c-1 0-1 0 0 0l1-1h1-1zm6-4l-1 1v1a4 4 0 00-1 0h1l1-1 1-1h-1zm2 151l1-1-1 1zm1-150h0zm2 50h1a1 1 0 00-1 0c0-1 0-1 0 0zm2-46h-1l-2 1c-3 1-4 1-4 3a3 3 0 00-3 0 9 9 0 000 1 6 6 0 00-4 1 5 5 0 01-2 1 1 1 0 00-1 1 9 9 0 000 1 9 9 0 002-1 20 20 0 013-1l2-2a13 13 0 001 0 15 15 0 002-1l3-2h2a1 1 0 00-1 0v-1l2-1h1l1-1h2a1 1 0 00-1 0 1 1 0 00-1 0zm3 0h1s1 0 0 0zm353 139c1 0 1 0 0 0zm-350-4v0h1c0 1 0 1 0 0a1 1 0 00-1 0zm1-2h-1l-1 1h1a4 4 0 000-1h2l1-1-1 1zm327-133c1 0 1 0 0 0zm-326-2s-1 0 0 0l1-1h1l2-1h1l1-1a7 7 0 001 0 19 19 0 004-1 12 12 0 012-1 3 3 0 00-1-1 16 16 0 00-6 3l-1 1h-1a5 5 0 00-2 1h-1zm1 16a1 1 0 001 0l1-1a4 4 0 002 0 9 9 0 002-1l3-2a8 8 0 003-2 75 75 0 0010-3 1 1 0 000-1 14 14 0 013-1 52 52 0 005-2 42 42 0 015-3 6 6 0 003-1 13 13 0 001 0 23 23 0 005-2l1-1h1-1l-1 1-1-1 2-2-1-1a4 4 0 00-3 0 8 8 0 00-1 1h-2l-1 1a8 8 0 00-3 1l-3 2a7 7 0 01-3 1 11 11 0 00-1 0l-4 2-4 2h-4l-2 1-1 1a8 8 0 01-1 1l-7 3a43 43 0 00-6 3h1l5-1a8 8 0 010-1l4-1a3 3 0 012 0v1l-3 1 2 1a7 7 0 00-3 0l-2 2-2 1-1 1h-1zm319-72h0v0zm0 49h-2l-1 1h-5a3 3 0 00-1 1 17 17 0 01-4 1 12 12 0 00-2 1l-2 1a8 8 0 01-2 1l-2 1a11 11 0 01-4 1 16 16 0 00-2 1v1a17 17 0 003-1l3-1a1 1 0 011 0l4-2a11 11 0 003-1 35 35 0 015-2 1 1 0 001 0l5-2h1zm-319-3l-1 1a8 8 0 00-1 0h1l1-1zm313 13h-1l-1 1c-1 0-1 0 0 0l1-1zm-312 1c-1 0-1 0 0 0zm0-7c-1 0-1 0 0 0zm3 6h-1 2a6 6 0 002-1 1 1 0 00-1 0l-1 1zm3 141l-1 1 1-1zm295-149s1 0 0 0v0zm0 12l1-1a4 4 0 002 0 3 3 0 00-2 0l-1 1zm-292-3h-1a5 5 0 00-2 1l2-1h2l2-1 1-1-1 1-2 1zm288 4h1-1v0zm-3-12h-1 1zm-2 3h-1l-1 1a21 21 0 00-5 1 27 27 0 01-5 2l-1-1a6 6 0 00-3 1 9 9 0 00-1 0v1h2v1l2-1h4l1 1 2-1a3 3 0 001-1 1 1 0 00-1 0 1 1 0 000 1c-2 0-2-1-2-2a11 11 0 015-1v-1h1l1-1zm-279-15h1l1-1c1 0 1 0 0 0l-1 1zm1 120c1 0 1 0 0 0zm272-105l-1 1h-1c-1 0-1 0 0 0h1zm-3 23zm-264-40zm256 26a3 3 0 003 0v-1 1h-2a5 5 0 01-1 0zm-249-29h-1l-1 1s-1 0 0 0a6 6 0 001-1h2l1-1h1-1l-1 1zm244 26h0l-1 1h-2l-1 1h1v-1h2zM445 268c1 0 1 0 0 0v-1 1zm7-170zm222-21c-1 0-1 0 0 0zm-6 3v0zm0 15h-1v0zm-209 20h-1 2l2-1 1-1-1 1a4 4 0 00-2 1zm201-18l1-1-1 1h-1zm0 20h1-1l-1 1zm-2-25v1h-2v1a2 2 0 002 0 3 3 0 000-1 11 11 0 003-1l2-2h-1a3 3 0 00-1 0l-2 1-1 1a4 4 0 00-1 0h1zm-1 85h-1 1zm-4-65h1a3 3 0 011 0 6 6 0 01-2 2l-1 1a3 3 0 00-2 1 16 16 0 01-6 4 11 11 0 00-1 2 5 5 0 00-2 1l-2 2v1h-1l-1 1h1a6 6 0 001-1 4 4 0 002 0l2-1a18 18 0 002-1l9-6 5-3 7-4 10-6a2 2 0 001-1l3-2h-3l-1 1h-2l-1 1h1l-4 1a7 7 0 01-1 0 2 2 0 00-1-2 2 2 0 00-1 0l-2 1 1 1h3a5 5 0 010 1l-1 1a3 3 0 01-2 0l-2-2a4 4 0 00-1 0l-2 1h-2l1 1-3 2a6 6 0 00-2 1l-2 2c-1 0-1 0 0 0zm-2-6v-1 1c-1 0-1 0 0 0zm-6 76h-1l-2 1-1 1h-1 1l1-1a4 4 0 002-1zm-1-38l-1 1a4 4 0 00-2 1h-1l-3 1-4 1a2 2 0 00-2 1 3 3 0 01-1 0l-2 1v1l-5 1a6 6 0 00-1 1c-1 0-1 0 0 0l-2 1-2 1h-2 1v1a4 4 0 00-2 1 5 5 0 001 1 4 4 0 002-1l4-1a10 10 0 013-1 11 11 0 001 0l2-2a11 11 0 012-1 2 2 0 011 1 1 1 0 001 0l2-2 2-1a11 11 0 001 0h5a6 6 0 001 0 34 34 0 014-1l3-2a22 22 0 013-1 32 32 0 004-1 38 38 0 004-2 34 34 0 015-2l4-2a34 34 0 004-1 7 7 0 011 0h2l3-1 2-2a5 5 0 002 0v-1a11 11 0 01-5 0h-4v-1a2 2 0 00-1 0l-2 1a15 15 0 00-3 1 13 13 0 01-3 1 4 4 0 01-2 0l-1 1-1 1-7 3a16 16 0 01-1 0h-1c-1 0 0 0 0 0l-1 1h-1a4 4 0 01-1 1 48 48 0 01-7 3v-1zm-9 52h0zm-1-9l1-1h1-1l-1 1h-1zm-2 1v0zm-3 12h-1 1a1 1 0 001 0l1-1-1 1zm-1-170h-1 1zM487 263h-1l-1 1h-2c-1 0 0 0 0 0a1 1 0 001 0h1l1-1h1zm137-106s-1 0 0 0zM489 260h-1 1l1-1a7 7 0 002-1 2 2 0 00-2 0v1zm133-67zm-126-75c1 0 1 0 0 0zm110 83l-1 1h-1 1zm0 3l1-1h1c1 0 0 0 0 0a1 1 0 00-1 0l-1 1h-2 1zm-8-36v-1 1zM335 92zm168 33zm89 84v-1h2c1 0 0 0 0 0v-1a1 1 0 00-1 0l-1 1-1 1h-1a5 5 0 00-2 1l-1 1a17 17 0 00-3 1v1a1 1 0 001 0l-1 1v1a17 17 0 01-3 0 3 3 0 00-3 0 4 4 0 000 1h-1c-1 0-1 0 0 0h3-1l-3 2a6 6 0 01-1 0h-1l1-1-1 1a16 16 0 00-3 1 4 4 0 00-2 1 16 16 0 01-4 2h-2l-2 1 1 1h-4l-1 2a5 5 0 00-1 0l-3 1-1 1a4 4 0 01-1 1 26 26 0 01-4 1 17 17 0 00-3 1v1h-2a2 2 0 00-1 1 1 1 0 00-1 1l-2 1h-1a7 7 0 01-1 1 20 20 0 01-1 1l-2 1h-3l-2 2c-1 0-1 0 0 0a1 1 0 000 1 1 1 0 001-1l1 1v1a2 2 0 001 0l1-2a10 10 0 012-1 23 23 0 004-2h3a5 5 0 001-2l2-1h2a7 7 0 001 0l2-1a51 51 0 016-3 3 3 0 001-1 4 4 0 003 0h1a7 7 0 003-1l7-4v-1l3-1 2-1a3 3 0 003-1l2-1 2-3h2l-1-1a5 5 0 002 0 18 18 0 012-1l1-1 1-1 1-1h2l1-1a12 12 0 003-1 1 1 0 001-1 3 3 0 002 0l-1-1a1 1 0 000 1 1 1 0 00-1 0l-4 2-1 1h-2l-1 1-1 1a7 7 0 01-4 0v-1a13 13 0 002 0l2-1a2 2 0 00-1 0l1-1a8 8 0 002 0s1 0 0 0a1 1 0 000-1h2zm-86 43l1-1h1l1-1 2-1h2v-1a2 2 0 00-1 1h-3a1 1 0 011-1l5-3v-1a3 3 0 00-1 0 33 33 0 00-4 2 32 32 0 01-8 4l-1 1-2 2-1 1-2 1 2 1h4l1-2a3 3 0 000-1h1l1-1zm79-33h1a4 4 0 002-1h-2a2 2 0 000 1h-1l-1 1-3 1-2 1-1 1-1 1h-2a22 22 0 00-2 2 4 4 0 00-1 0 16 16 0 003-1l2-1 1 1c-1 0-1 0 0 0l-1-1 1-1 1-1 2-1h2a1 1 0 001 0h1l1-1h1a1 1 0 00-1 0l-1 1h-2l1-1zm-72-84h-1a6 6 0 00-2 0 7 7 0 00-2 3h-1a5 5 0 00-2 1l-8 6-1 1-3 2-4 2-1 1h3a5 5 0 013-2l1-1a18 18 0 012-2l3-1a7 7 0 012-2 1 1 0 001-1l2-1a2 2 0 011-1l1 1a4 4 0 01-2 2 1 1 0 00-1 1h-1c-1 0 0 0 0 0h1a5 5 0 003-2 12 12 0 011-1l2-1a5 5 0 00-2 0l-1-1 1-1a12 12 0 001-1l2-1a1 1 0 001-1h1v-1 1zm4 111h-1 1l1-1-1 1zm33-98v-1 1zm-5 0c1 0 1 0 0 0zm-22-3s1 0 0 0l-1 1-1 1h-1v-1l-1 1a6 6 0 01-2 2 4 4 0 00-3 1h-1v-1l-1-1 1-2 1 1h2l-1-1a4 4 0 00-2 0 4 4 0 00-2 0l-5 4-1 1-2 1-1 1a6 6 0 001 1 6 6 0 01-1 0h-1c-1 0 0 0 0 0l-2 2-1 1-1 2-5 1-1 1-1 1a4 4 0 01-1 2 7 7 0 01-2 2l-2 1a25 25 0 01-4 3v2l-1 1-1 1v1h-3l1 1v1a1 1 0 001 0l1-2a7 7 0 011 0h1a14 14 0 00-2 2 8 8 0 01-3 2 5 5 0 00-1-1l1 1h-1-1c1 1 0 2-1 2l-6 5c-2 0-2 1-2 2a2 2 0 001 0l3-1a9 9 0 013-3 4 4 0 001-1 11 11 0 011-1l6-4a54 54 0 015-4l4-3 4-4a8 8 0 011-1 49 49 0 006-4l2-1 2-2a16 16 0 012-1l6-5a24 24 0 003-1 45 45 0 016-5 1 1 0 001-1l1-1zm412 138l1-1-1 1h-1a1 1 0 001 0zM561 140l-1 1a2 2 0 001-1h1l1-1 1-1h1-1l-1 1-1 1h-1zm-42-10c1 0 1 0 0 0l-1 1 1-1zm-6-3a5 5 0 00-1 0h1zm412 20c1 0 1 0 0 0zm247 59a2 2 0 00-2 0l-2 1v1a2 2 0 001 0 2 2 0 001-1 3 3 0 000-1h2zm-570 0v-1 1h-1 1zm-351-65a1 1 0 00-1 1 3 3 0 00-2 1 5 5 0 000 1l-1 1 1-1a3 3 0 001-1 4 4 0 001-1l1-1zm239 12a2 2 0 001 0h-2v-1a13 13 0 00-4 1h1l-1 1c1 1 0 1-1 2a3 3 0 00-2 1l-3 1a2 2 0 00-1 1v1l-1 1a1 1 0 010 1h-1a3 3 0 00-1 0v1h0l-1 1-2 1v2l-2 1-1 1-2 1-1 1-1 1h-1v1a1 1 0 001-1l1-1 1-1 2-1 1-1 2-1a4 4 0 001-1l5-3a9 9 0 012-2l3-1a8 8 0 002-2 4 4 0 011-1l3-2v-1a1 1 0 00-1 0v1l-1-1 3-1zm-244-7l-1 1c0 1 0 0 0 0l1-1zM623 31c1 0 0 0 0 0a1 1 0 00-1 0h1zm316 6c-1 0-1 0 0 0zM295 225a4 4 0 00-1 0h1zm337-95h1-2 1zm268-6h1a1 1 0 00-1 0zM296 227h-1 1l1-1c2 0 4-1 5-3h1a4 4 0 011 0 4 4 0 002-1 7 7 0 001-1 6 6 0 002-1 8 8 0 011-1c1 0 1 0 0 0a2 2 0 00-1-1 12 12 0 00-3 2l1 1h-2a4 4 0 01-2 1h-1a5 5 0 00-2 0 1 1 0 00-1 2c-1 1-3 1-2 2l-1 1zM670 25h-2a5 5 0 012-1 2 2 0 001-1l2-1 1-1v1h2a4 4 0 000-1l-1-1 1-1a4 4 0 002 1 1 1 0 001 1 5 5 0 001-1l1-1v-1a11 11 0 00-1 0 2 2 0 000-1l-1-1a3 3 0 00-1 1v1l-2-1a58 58 0 00-8 2 7 7 0 01-2 1l-2-1a2 2 0 00-1 0l-3 1a7 7 0 01-1 1 7 7 0 00-3 1l-1 1a68 68 0 00-9 2c-1 0 0 0 0 0l7-1a14 14 0 014-1 8 8 0 01-2 1 15 15 0 00-2 1 3 3 0 01-1 0l-3 1-6 2a53 53 0 01-9 2h-2l-2 2a16 16 0 00-4 0c0 1 2 1 1 2a19 19 0 01-5 1l-1 1a7 7 0 01-4 1 7 7 0 00-1 0 6 6 0 013 1 4 4 0 001 0 12 12 0 004-1 16 16 0 014-1 26 26 0 004 0l1-1h-1l5-1a11 11 0 002 0l5-2a6 6 0 013-1h2l1-1h1a4 4 0 003-1 2 2 0 011 0 4 4 0 011 0h-1a2 2 0 001 0l1-1a3 3 0 003 0l3-1a2 2 0 011 0l3-2h1a2 2 0 002 0zm10 75l-1 1 1-1h1v1l1-1a2 2 0 001 0h-1v-1h0a4 4 0 00-1 1h-1zm5 32v-1h1l-1-1v1zM323 93c1 0 0 0 0 0l1-1-1 1zm377 77a7 7 0 00-1 0 1 1 0 001 0l1-1h1l1-1a2 2 0 002 0 2 2 0 001-1l1-1a1 1 0 00-1 1 7 7 0 00-3 1l-1 1h-1l-1 1zm-277 60c1 0 1 0 0 0l-1 1-1 1 1-1 1-1zm0 36c1 0 1 0 0 0zM127 109a5 5 0 00-1 0 1 1 0 000 1l1-1zm701 15h1-1zm-620 13a5 5 0 001-1l-1 1zm619 68h1a10 10 0 01-4 5 2 2 0 001 1 4 4 0 001-1 17 17 0 013-2l3-3 3-3h-1a4 4 0 01-3 1l-1-1v-1l3-1 1-1 3-3a2 2 0 011 0 4 4 0 011 0l1-1a5 5 0 010-1h-1 1l2-1a6 6 0 012-2l1-2h1l1-1v-1a2 2 0 001-1h-1v-1a2 2 0 012 0l1-1h-1a2 2 0 010-1 6 6 0 012 0v-2a6 6 0 002 0l2-2 2-2h1l3-3v-1h1l1-2a69 69 0 008-7 3 3 0 011-1 11 11 0 003-2l3-4a9 9 0 012-3 2 2 0 001-1 3 3 0 011-2 4 4 0 001-1l-2-1v-1h3l-1-2h1a2 2 0 011 0 1 1 0 011 0l2-1-2-1a1 1 0 000-1l-2 1a2 2 0 00-1 0 15 15 0 00-1 2l-1 2-3 1-1 1v1l-2 1h-1l-1 1v1a11 11 0 00-1 1 6 6 0 00-2 1 4 4 0 01-1 1 20 20 0 01-3 1 2 2 0 010 2 2 2 0 01-2 0 8 8 0 00-1 1l-2 3-3 3-6 6-2 2-3 2-1 1-1 1a8 8 0 011 1l-2 1v1a1 1 0 000 1 2 2 0 011 1l-2 1h-1v2l-1 1h-1l-2 3a2 2 0 00-2 1l1 1h-3v3l-1 1-1 1-2 2v2h-1a3 3 0 00-1 2l-1 1zm-409-88a6 6 0 00-1 0h1zm0 119v-1c0-1 0 0 0 0v1h-1 1zm-83-121h-1l1-2h2v-1h-2l-2 1v-1l2-2h1a7 7 0 002-2 1 1 0 011-1c2 0 3-1 3-2l2-1-2-2-1 2a4 4 0 01-2 1 10 10 0 00-3 0 8 8 0 01-1 2 8 8 0 00-2 2 10 10 0 01-3 3l-2 1v1a3 3 0 00-1 0 4 4 0 01-1 1 20 20 0 00-4 4l-1 2-3 3-6 4-2 3-3 3a2 2 0 010 1 9 9 0 00-3 2 8 8 0 01-1 2c-2 1-2 2 0 3h-1-1a3 3 0 00-1 0 1 1 0 001 1v-1l1 1-2 2-2 1a11 11 0 00-1 0 1 1 0 001 0h1l-3 2-1 1v1l-2 1a9 9 0 00-1 0h-1a8 8 0 001 1v2h1l-2 1h-2a3 3 0 001 1 2 2 0 002 0 11 11 0 003-1l4-3a11 11 0 012-2 12 12 0 003-3l-1-1a1 1 0 011-1l1 1v-2h1l2-2h-1l1-1h1c1 0 0 0 0 0a7 7 0 003-2 11 11 0 012-2l5-5a35 35 0 014-5h1l5-5 1-1 3-4a5 5 0 001-1l1-1zm-131 25h1l1-1a5 5 0 001-1 2 2 0 00-1 1l-1 1h-1v0zm619 168h-1 1a4 4 0 001-1 12 12 0 014 1v-1h-2a5 5 0 00-2 0 4 4 0 00-1 1zm-684-93l1-1h-1v-1a4 4 0 001 0h-1l-1 1a3 3 0 011 0zm61 32a2 2 0 00-1-1l1 1zm529-118h2v2c1 1 0 1-2 2h-1a2 2 0 001 0 4 4 0 001 0 5 5 0 003-1v-1h3a5 5 0 002 0l3-1a2 2 0 011 1 2 2 0 011 0c-1 0-1 0 0 0l3-1 7-2a20 20 0 012-1 31 31 0 005-2l9-3 11-4a24 24 0 013-1l10-3 1-2a4 4 0 00-1 0l-1 1h-2a24 24 0 01-5 1l-5 2h-1l-3 1a71 71 0 01-7 3 1 1 0 01-1-1l2-1a16 16 0 002-1v-1a1 1 0 00-1 0l-5 2-3 1-2 1a59 59 0 01-8 3l-8 2a6 6 0 01-1 1 21 21 0 00-3 1l-5 2h-2a5 5 0 01-3 0 2 2 0 00-2 0zm1-4a4 4 0 001 0h-1zm296-32a6 6 0 00-1 0h1zm-58 46l1-1h1l1-1 1-1 1-1h1l1-1 1-1 2-1a13 13 0 005-3 11 11 0 012-2 6 6 0 002-2h-1a15 15 0 00-3 2l-4 4-1 1-2 1-1 1-1 1h-1l-1 1-1 1-1 1h-1l-1 1zm0-10v1-1h1-1zm56-46a4 4 0 001 0 1 1 0 000-1l-1 1zm-53-13h-1a11 11 0 00-2 1c-1 0-1 0 0 0a3 3 0 002-1h1a4 4 0 001 0 1 1 0 00-1 0zM146 206s-1 0 0 0zM971 39a3 3 0 001 0 1 1 0 00-1 0zm-568 80c-1 0 0 0 0 0l1 1h2a2 2 0 001 0h-1-2zm619 114v-1 1a4 4 0 00-2 0 4 4 0 002 0zm-5-5h0v1c0 1 0 0 0 0v-1zm-621-53h1a2 2 0 00-1 0zm-26 106v0a4 4 0 001 0h-1zm414-2a5 5 0 001 0v-1l-1 1zm210-170h1a6 6 0 003-1 1 1 0 000-1h-1l-2 2h-1a5 5 0 000 1v-1zm-1 9l1-1a3 3 0 002-1 8 8 0 013-2h0a1 1 0 011-1 40 40 0 005-4 17 17 0 015-3 10 10 0 001 0l1-1h-1l3-3h1a6 6 0 002-2 1 1 0 00-1 0l-1 2h-1a6 6 0 00-2 0l-3 3-3 2-1 1a12 12 0 01-3 2 9 9 0 00-3 3 4 4 0 01-2 1c-2 0-2 1-2 2l-1 1-1 1zm-3 4a8 8 0 00-3 0 1 1 0 000 2l3-2c1 0 1 0 0 0v-1a2 2 0 00-1 0l2 1zm-613 9l1-1a2 2 0 00-1 1zm626 99h-1s-1 0 0 0a7 7 0 001 0zm-226 50h1-1a5 5 0 000 1 2 2 0 000-1zm-498-56a4 4 0 00-2 0 11 11 0 00-1 1h2l-1-1a4 4 0 002 0h1v-1a1 1 0 00-1 0v1zm639-14a4 4 0 00-1 0h1l1-1-1 1zm0 9h-1 1zM766 32v1l-1 1 1-1v-1zM45 184v-1 1a4 4 0 00-2 0h2zm867 105c-1 0-1 0 0 0h1a1 1 0 00-1 0zm-112-50a4 4 0 001-1 2 2 0 00-1 1zM50 146s-1 0 0 0h1a1 1 0 00-1 0zm570-29h-1a1 1 0 001 0h1v-1l-1 1zm402 122h2a1 1 0 00-1-1 8 8 0 00-1 1zm-208-15v-1l-1 1a2 2 0 001 0v0zm-87-97h-1 1l1-1a1 1 0 00-1 0 3 3 0 000 1zm-390 75l-1 1a3 3 0 001-1zm-2-120h0zm381 35a10 10 0 00-1 0v1a1 1 0 001-1zm-74-91a3 3 0 001 0 1 1 0 00-1 0 4 4 0 00-2 1 4 4 0 00-3 1 20 20 0 00-6 1v1h-1 1l3-1a7 7 0 003-1 5 5 0 003-1l2-1zM473 137v1c0 1 0 0 0 0v-1a5 5 0 011 0 1 1 0 001 0 3 3 0 00-1 0 3 3 0 00-1 0zm362-25a4 4 0 00-1 0v1l1-1zM325 91h1v-1h1a5 5 0 001 0h-1l-1-1v1l-1 1zm372-74a1 1 0 001 0h-1v-1a2 2 0 000 1zm139 182a3 3 0 001 0h-1zm-504-48a4 4 0 000 1c-1 0 0 0 0 0v-1h1a3 3 0 00-1 0zm333-62h-1a1 1 0 000 1l1-1h0a1 1 0 000-1v1zm4 28a1 1 0 001 0h-1a5 5 0 00-1 0h1zm200 33h-1 1a4 4 0 000-1 3 3 0 000 1zM97 132l-2 1 2-1zm214 82h1v-1a1 1 0 00-1 0 3 3 0 000 1zm394-91h2v-1h0l-2 1zm-58-15l-2 1v0l2-1zm64 56v1h1a3 3 0 01-1-1h2a2 2 0 00-1 0 2 2 0 00-1 0zm337-151a7 7 0 001 0 1 1 0 00-1 0h-2l-1 1a1 1 0 001 0 5 5 0 002-1zm-84 130h-1 1l1-1a1 1 0 00-1 1zm-61-49c1 0 1 0 0 0a5 5 0 00-2 0 3 3 0 002 0zM59 140l-1 1a2 2 0 001-1l1-1 3-1a1 1 0 00-1 0l-2 1-1 1zm233 76l-1 1-2-1-3 1 1 1v0l3-1 1-1h1a6 6 0 002 0 1 1 0 00-1-1 3 3 0 00-1 1zm115-85v-1a3 3 0 00-2 0v1a1 1 0 001 0h1zm499 92a6 6 0 001 0v-1l-1 1-1 1a1 1 0 001 0 5 5 0 000-1zm-503-84s1 0 0 0l-1 1h1a3 3 0 000-1zm397 112h-1 1a3 3 0 001 0v-1a1 1 0 00-1 0 6 6 0 010 1zm-516-93h3s2 0 1-1a1 1 0 00-1 0 3 3 0 01-1 0l-1 1h-1l-1 1a1 1 0 001 1v-2zm516 96a1 1 0 00-1 1l-3-1-1 1h-1l-3 3v1a2 2 0 01-1 1 2 2 0 00-1 1 3 3 0 01-1 1l-1 3c-1 0 0 0 0 0l6-2a20 20 0 004-3 17 17 0 013-5v-1l1-1h-1a4 4 0 000 1zM500 117l2-1h-1l-1 1zM187 269v1a1 1 0 001-1h-1zm619-36l-1 1 1-1a2 2 0 001-2l-1 2zm109-18a3 3 0 001 0h-1a2 2 0 000-1h-1l1 1zm-626-88s-1 0 0 0h1s1 0 0 0a2 2 0 00-1-1v1zm101 167l1 1a3 3 0 001 0v-1a4 4 0 00-2 0h-1 1zm663-108h1a3 3 0 001-1 2 2 0 00-1 0 2 2 0 00-1 1 5 5 0 00-2 0c-1 0-1 0 0 0a4 4 0 002 0zm-181-40h1-1v1a1 1 0 001 0l-1-1zm-556 65l-2 1h1l1-1a6 6 0 002-1 1 1 0 00-1 0l-1 1zm721-188a2 2 0 00-2 0h-1l-1-1 4-1 1-1h3v-2a1 1 0 00-1 0l-2 2c-2-1-1-1 0-2a1 1 0 00-1 0 150 150 0 00-4 1 1 1 0 001 0h1v1a4 4 0 01-2 1 2 2 0 01-1 0l-1-1h-3l-6 1-4 1a10 10 0 01-1 0l-2-1-4 1a5 5 0 001 0l2 1h-2l-2 1a3 3 0 000-1h-1a6 6 0 01-3 0l-4 1-4 1a4 4 0 01-1 0l-3 1h-3l-7 2a23 23 0 01-7 1 2 2 0 01-1 1h-5a2 2 0 000 1l-4 1a1 1 0 00-1 1 15 15 0 00-5 1l-2 1a13 13 0 00-2 0 3 3 0 00-1 0 1 1 0 00-1 1h2a6 6 0 011 0v1h-2s-1 0 0 0a10 10 0 011 1l2 1h4a2 2 0 011 0 2 2 0 002 0l1-1a6 6 0 001 0 30 30 0 015-1 25 25 0 004-1l8-2h2a45 45 0 015-1 25 25 0 004-1 6 6 0 002-1h2a7 7 0 003-1 2 2 0 001-1 4 4 0 012-1h4l3-1h0l5-1h1a3 3 0 012 0h3l6-1 4-2a2 2 0 001 0h2zM326 155l2-1-1-1-1 2zm-171-29h-1a2 2 0 001 0 6 6 0 002-1 2 2 0 00-1-1 3 3 0 00-1 1v1zm269-11a7 7 0 001-1l-1 1h-1a3 3 0 00-1 0 2 2 0 001 1l1-1zm265 32s1 0 0 0v1a1 1 0 001 0s1 0 0 0l-1-1zm320 101a3 3 0 000-1 4 4 0 00-1 0l-1 1a6 6 0 00-2 1 1 1 0 001 0l1-1h2zm-5-145l-3 1h-3a3 3 0 002 1l3-1 1-1a3 3 0 003-1h-1l-2 1zm-366 49a9 9 0 002-1h-1a6 6 0 00-1 0c0-1 0-1 0 0zm281 136a9 9 0 00-2 0l-2 1h1a16 16 0 003-1h1a1 1 0 001 0 4 4 0 00-2-1zm62-52a5 5 0 00-3 1l-4 1v0h3l1-1h3zM576 131v-1 1h-3l1 1 2-1zm155-11l-1 1 1-1 1 1a3 3 0 001-1c1 0 1 0 0 0h-1a7 7 0 004-1l-1-1-3 2a4 4 0 00-2 0zm-4 2v-1 1l-4 1a7 7 0 00-2 0 24 24 0 00-5 2v1-1a11 11 0 002 0 24 24 0 005-2 11 11 0 004-1zM366 284l-1-1h-1a2 2 0 002 1l-1 1h1v-1zm474-173a16 16 0 00-2 0h-1a2 2 0 002 1 2 2 0 001-1zM419 268a5 5 0 000 1v-1h3v-1a3 3 0 00-2 1 1 1 0 00-1 0zm-264-45v-1a2 2 0 00-1 0v1a6 6 0 001 0l-2 1v1a2 2 0 001 0l1-2zM691 93l-3 2a10 10 0 00-1 0v1a1 1 0 001-1h2l1-1a2 2 0 010-1zm79 184h-1 3l-1-1a2 2 0 00-1 1zM625 114l2-1a7 7 0 002-1l3-2 6-4 5-3a11 11 0 014-2 4 4 0 001 0l3-2 1-1a7 7 0 003-3h0a7 7 0 00-4 1l-1 1-5 3a44 44 0 00-5 3 16 16 0 01-5 2v2h-3v1l-3 3a3 3 0 00-2 2l-2 1a4 4 0 00-3 1h1l2-1zm84 27a5 5 0 003-1l-3 1zm208-51l1-1a10 10 0 001 0l9-2h6a6 6 0 002 0 1 1 0 000-1l2-1a7 7 0 004-1 13 13 0 014-1l3-1a12 12 0 002-1h-1a7 7 0 00-1 0l-15 4-5 1-3 1-3 1a17 17 0 01-2 0 7 7 0 00-3 2h-3a1 1 0 00-1 0v1a2 2 0 001 0 2 2 0 001 0 4 4 0 001-1zm80 161a4 4 0 001 0h-1l-2 1h-1a1 1 0 001 0 2 2 0 001 0 13 13 0 001-1zm-211 5l-1 1a1 1 0 001 0 3 3 0 000-1 12 12 0 002 0l-1-1a1 1 0 00-1 0v2zM411 118v-1c0-1 0 0 0 0v1a6 6 0 00-3 0l-1 1h1zm618-39h-2l-1 1a4 4 0 001 0v1-1l2-1zm-497 60l-2 1h-1v1l-1 1c0 1 0 0 0 0l1-1 3-2zm481 93a16 16 0 001 0 1 1 0 001-1 3 3 0 00-1 0 12 12 0 00-1 1h-2l-2 1c-1 0-1 0 0 0a6 6 0 003-1h1zM45 174s1 0 0 0a10 10 0 00-3 1 2 2 0 001 0l2-1zm969-83l-2-1v2l2-1v0zm131 73a16 16 0 004-1 12 12 0 00-3 0 1 1 0 00-1 1zm-178-7a6 6 0 002-1l-2-1 5-1a24 24 0 013-2l5-4a6 6 0 010-1l5-3 13-11a14 14 0 012-1 20 20 0 003-2l7-6 2-2 4-3a2 2 0 011 0l3-3h-2a5 5 0 01-2-1l3-1v-2a1 1 0 000-1l2-1h-2l-4 2a28 28 0 00-2 2 6 6 0 00-1 1 10 10 0 00-3 2 15 15 0 01-3 2 34 34 0 00-5 4c1 2-1 2-4 3v1a3 3 0 00-2 0v2l-3 1a4 4 0 010 1 6 6 0 01-2 2l-1 1-2 2-2 2-1 1-2 1-1 2v1l-2 1-2 2a5 5 0 011 0l-1 1-2 1v1l-1 1-3 1a8 8 0 01-3 4v1h-2l1 1-2 1v1a2 2 0 001 0l1-2zm11-35a5 5 0 002-1l1-1-2 1-1 1zm-41 90l-1 1v1a3 3 0 002-1 10 10 0 00-1-1h-1 1zm-240-79a7 7 0 00-1 0h2l2-1h1l3-2a4 4 0 003 0 23 23 0 002-2 10 10 0 003-1 1 1 0 001 0 1 1 0 00-1 0 9 9 0 00-3 1l-3 1a7 7 0 00-2 1 13 13 0 00-4 1 7 7 0 00-3 2zm-69 68a20 20 0 00-3 0 2 2 0 00-1 1 3 3 0 001 0 8 8 0 003-1zm493-22a3 3 0 000-1 1 1 0 00-1 0h-1l1 1a12 12 0 001 0zm-59-167a2 2 0 000 1 2 2 0 002 0 11 11 0 012 0 2 2 0 001 0l3-1a1 1 0 00-1 0 6 6 0 00-1 0 17 17 0 00-2 1 6 6 0 00-3-1h-1a3 3 0 00-1 0h1zM937 189a7 7 0 000-1v1l-3 1h1a2 2 0 001 0l1-1zm-366 40a5 5 0 00-2 0v1a4 4 0 002-1 3 3 0 002-1v-1l-2 1-1-1v1a9 9 0 011 1zM340 78a2 2 0 00-2 0l-1 2 3-2zm482 139l-1-1a5 5 0 00-2 2l-3 2h-1l-1 2a1 1 0 001 0 3 3 0 001 0l3-3v-1a5 5 0 001 0l2-1v0zm-298 27h0l2-1 1-1h-2a7 7 0 00-1 0l-1 1zM377 31l1-1a1 1 0 00-1-1l-4 1h1l3 1h0zm576 10l-3 1a10 10 0 01-2 0h-2l-3 1a5 5 0 002 1l4-1h1v-1a6 6 0 004-1 4 4 0 001 0l1-1a2 2 0 00-1 0l-2 1zM329 96h3a2 2 0 001-2h-2 1l-1 1-1 1a1 1 0 00-1 0zm120 196h1v-1l-1 1a9 9 0 00-3 1 9 9 0 01-3 1h1a7 7 0 002 0h1l1-1a1 1 0 001-1zm514-168l-1 2h1l2-1 1-1 1-1a2 2 0 012-1 1 1 0 000-1 12 12 0 00-1-1 1 1 0 00-1 0 6 6 0 00-2 1 8 8 0 01-3 2l1 1zm63 120l1-1h3l7-2 10-3 8-3 12-3a8 8 0 001 0 35 35 0 016-2l20-6h2a22 22 0 015-2 6 6 0 002 0v-1h-5a2 2 0 00-1 1l-4 1h-4a2 2 0 00-1 0l-3 1h-1l-3 1c-1 0-1 0 0 0v1h-3a20 20 0 00-4 1 81 81 0 01-9 2l-4 1h-1a1 1 0 01-1 0l-4 1a13 13 0 00-2 0 62 62 0 01-6 2 62 62 0 00-7 2 11 11 0 01-5 1 13 13 0 00-3 1 4 4 0 00-3 1h-1l-7 2a46 46 0 01-6 2v1c-1 0 0 0 0 0l2 1h0l1-1a2 2 0 011 0h1l1-1a10 10 0 013-1 7 7 0 003-1 3 3 0 012 0 1 1 0 011 1v1l-3 1h-2a13 13 0 01-4 2 2 2 0 001 0 16 16 0 004-1zM567 136a8 8 0 003-1l1-1 1-1c1 0 0 0 0 0a2 2 0 00-1 0l-3 2a2 2 0 00-1 1zm158-1a5 5 0 003-1 1 1 0 00-1 0 12 12 0 00-1 1h-4a5 5 0 00-1 0l-1 2a20 20 0 015-2zm300-30a10 10 0 002 0v-1a2 2 0 00-1 0 3 3 0 00-1 1 5 5 0 00-3 1 7 7 0 01-1 1 3 3 0 00-1 1 3 3 0 001 0l4-2a2 2 0 000-1zm-44 139h3l4-1a16 16 0 004-2 9 9 0 013 0v-1a1 1 0 00-1 0h-1a3 3 0 00-1 1 14 14 0 00-6 1 14 14 0 01-1 1 1 1 0 00-1 1 4 4 0 00-3 0 12 12 0 00-3 1l-3 1-2 1a12 12 0 00-3 0l-2 1a1 1 0 00-1 0h2a37 37 0 004-1 19 19 0 005-1 8 8 0 003-2zM314 103a7 7 0 00-1 0 2 2 0 00-1 0h-1a5 5 0 01-2 3v1h0l2-1a17 17 0 011-2 3 3 0 012-1 5 5 0 001 0h-1zm-9 8h2a2 2 0 001-3 1 1 0 00-1 0 4 4 0 00-1 1 15 15 0 00-2 2h2a2 2 0 00-1 0zm53-56l-1 1h1v-1a3 3 0 001 0l3-4h-1a2 2 0 00-1 0l-1 1a4 4 0 01-1 2 3 3 0 000 1zm40 213a4 4 0 002-1l3-2a3 3 0 00-2-1l-2 1v1l-1 2zM337 26a18 18 0 00-3 0 57 57 0 00-7 2 2 2 0 001 1 56 56 0 009-3zm437 243a3 3 0 00-1 0 12 12 0 00-1 2l1 1 3-1-1-1-1-1 3-2v-1h1l-1-1a2 2 0 00-1 0 4 4 0 00-1 0v1l-1 2a3 3 0 000 1zm34 0c1 0 1 0 0 0a4 4 0 00-1 1 27 27 0 01-3 0l-4 1a5 5 0 00-1 0v1a16 16 0 006-1h2a3 3 0 001-2zm-16-20v0a23 23 0 002-1 16 16 0 013-1v-1h-1c-2-1-3 0-3 1a2 2 0 01-1 1 2 2 0 000 1zm116-28a4 4 0 00-1 0h1a16 16 0 014-3l1-2a5 5 0 000-1 2 2 0 00-1 0h-1a6 6 0 01-2 4 3 3 0 00-1 2zm58-144h1l1-1c0-1 0 0 0 0a2 2 0 00-2 0 6 6 0 000 1h-3a2 2 0 01-1 1 19 19 0 00-4 1 25 25 0 01-3 0l-2 1h-1a1 1 0 001 0l2 1 1-1 7-2 3-1zM432 223l1-1c1 0 0 0 0 0h-3a28 28 0 00-2 3 6 6 0 01-1 2 2 2 0 001 0l2-1 1-1 1-1v-1zM99 127h-3a16 16 0 01-2 1 15 15 0 00-1 1 5 5 0 01-3 1l-1 1h1a1 1 0 001 0l7-4h1zm222-17l-1 1h-1a3 3 0 011-3l1-1 4-4a11 11 0 011-1 22 22 0 012-3 2 2 0 001-2s1 0 0 0h-1a28 28 0 01-5 4 9 9 0 00-1 0l-1 1a4 4 0 011 1l-2 2a18 18 0 01-3 2 57 57 0 00-5 6 3 3 0 01-1 2l-2 2-1 1a5 5 0 00-1 2 3 3 0 01-2 1c-1 1-3 2-3 4l-2 1v1l-2 2a16 16 0 00-1 1 53 53 0 01-5 5 13 13 0 01-2 2 3 3 0 00-1 3s-1 0 0 0a3 3 0 000-1l3-2 3-3a31 31 0 004-4l4-4a4 4 0 011-1l2 1v1a2 2 0 001 0 4 4 0 001-1l1-1 1-2 1-1-2-1 1-1c1 0 2 0 1-1l2-1v1-1l-1-1 1-1 1-1h2l2-2 2-2 1-1h1l3-2c-1-1-1-1 1-2a5 5 0 001 0 2 2 0 000-1v-2l-2 1a10 10 0 00-1 1 15 15 0 01-3 3 2 2 0 000 2zm599 97c1 0 0 0 0 0l1-1 2-2a5 5 0 014-1l1 1v-1l-3-1a4 4 0 00-2 0l-1 1a5 5 0 00-1 2 10 10 0 00-1 2zm188-175a1 1 0 01-1 1 2 2 0 01-1 0v-1a6 6 0 001-1 9 9 0 00-3 0v2l-1 1h1a4 4 0 013 1 1 1 0 001 0l1-1h2v-1h-1l-2-1h-1 1zM554 145v-1l-1-1h3l3-1h-4 1a13 13 0 004-3 7 7 0 011-1h-1a4 4 0 00-2 1 50 50 0 01-5 3 26 26 0 00-3 2v1a3 3 0 00-2 1l2-1h3a5 5 0 011 0zm251 128c1 0 1 0 0 0h-7a2 2 0 000 1l-1 1v2l1 1a2 2 0 011 0 1 1 0 001 0 20 20 0 003-1v-1l-1 1a3 3 0 01-2 0l-1-1 3-1a22 22 0 002-1l1-1zM299 118h2a1 1 0 000-1 3 3 0 00-1 0 1 1 0 00-1 0 2 2 0 00-1 1 5 5 0 00-2 1l-6 6 1 1 4-3a1 1 0 000-1l1-1 1-1 2-1zm312-5a3 3 0 00-1 0 11 11 0 01-1 1l-3 1-2 1-3 3h2l1-1 6-3a4 4 0 002-2h2a1 1 0 000 1 2 2 0 001-1h2a5 5 0 001-1 3 3 0 012 0 4 4 0 001-1v-1h1v-2a5 5 0 00-2 1 34 34 0 00-4 0l-1 1a6 6 0 010 2h-2l-2 1zm416-86a36 36 0 005 0v-1c0-1 0 0 0 0a2 2 0 00-1 0 17 17 0 00-4 1 14 14 0 00-3 0l-20 5-8 1-3 1a23 23 0 00-3 1l-6 1a9 9 0 005-1h1a6 6 0 002 0l10-2 9-2 9-2 5-1a4 4 0 002-1zM185 252v0a16 16 0 002-1l4-1a22 22 0 003-2l-1-1a12 12 0 01-4-1 7 7 0 00-1 0l-2 1v1a3 3 0 010 2 4 4 0 00-1 2zm127-92h1a3 3 0 001-1 12 12 0 013-1l4-2a5 5 0 001 0 11 11 0 002-1 12 12 0 001-2 4 4 0 00-2 0 2 2 0 00-1 0v1l-4 1a3 3 0 01-1 1 3 3 0 00-1 1h-3a3 3 0 00-1 3zM197 264a12 12 0 012 0l4-1v-1a8 8 0 01-3 0h-2l-1 1a8 8 0 01-3-1 4 4 0 00-1 0l-1 1-3 1a6 6 0 00-1 0v0a5 5 0 011 1 8 8 0 012 2h2l4-1h1a9 9 0 00-1-1v-1zm403-51l1-1h1l3-2 2-1v-1l-2-1v1l-2 1h-1a1 1 0 001 0h-1l-4 3-3 1-3 2-3 2h1a4 4 0 001 0 18 18 0 003-1l4-2a5 5 0 012-1zM715 27l3-1h2a20 20 0 013-1l4-2 1-1-1-1a6 6 0 00-1 0 61 61 0 00-7 1 7 7 0 00-1 0l-1 3a7 7 0 00-1 1 5 5 0 00-1 1zM163 215l-2 1v1a1 1 0 001 0l1-2c1 0 0 0 0 0a1 1 0 001-1l-1-2 2-1a2 2 0 000-2l3-2v-1l-2-1a2 2 0 00-2 1l-3 3c1 2-1 3-1 4a3 3 0 00-2 3l-2 3-1 1v1h1-1a8 8 0 002-1l3-5a7 7 0 012-2zm104 15l1 1 2-2 1-1a1 1 0 000-1 1 1 0 00-1 0 3 3 0 00-1 2 2 2 0 01-2 0h-4l-2 1a9 9 0 00-4 2 8 8 0 01-2 0 17 17 0 00-2 2 25 25 0 01-5 2 8 8 0 00-1 1l-4 2a7 7 0 01-2 1h-3v1h-2a1 1 0 000 1 7 7 0 01-2 0v3a9 9 0 003-1l-1-1a11 11 0 003-1 12 12 0 012-1 2 2 0 012 1 2 2 0 001 0 32 32 0 016-3 22 22 0 014-2 5 5 0 001 0l3-2a12 12 0 003-1 3 3 0 001-1h2l3-3zm267-127h2l2-1a5 5 0 010 1 1 1 0 001 0 10 10 0 004-2 11 11 0 002 0 7 7 0 014-1 6 6 0 002-1l3-1-2-1 1-1h2l-1-1 1-1 2-1a3 3 0 011-1 5 5 0 012 0 1 1 0 010 1c0 1 0 0 0 0a1 1 0 001 0l3-1a4 4 0 001-1h1v-1-1l-3 1h-4l-3 2a42 42 0 00-4 1h-1l-2 1h-2s1 0 0 0a4 4 0 00-3 2l-3 1-2 1h-1a2 2 0 00-1 0l-1 1-2 1a9 9 0 00-3 0 4 4 0 00-1 2h-2a2 2 0 00-1 0l-6 2a14 14 0 00-2 1l-8 3-2 1v1l1 1a21 21 0 013 0l2-1a3 3 0 001 0h1l1-1 1-1h3a6 6 0 010 1 1 1 0 001 0 3 3 0 001 0l2-1v-2h1c2 0 3-1 3-2a5 5 0 011 0 3 3 0 012 0zm-316 37l-2 1-2 1a1 1 0 00-1 1q-1 0 0 0a1 1 0 01-1 1v1a5 5 0 01-2 0v1l-1 1a9 9 0 00-1 1 2 2 0 01-1 1l-4 4a8 8 0 01-1 1l-2 3-3 3a11 11 0 01-4 4v1l-3 3-4 5a3 3 0 00-1 1 3 3 0 01-1 2 14 14 0 00-3 3 4 4 0 01-1 0 3 3 0 00-1-1v1a4 4 0 00-1 1h1a7 7 0 01-1 0c-1 1-2 1-1 2l-1 1a4 4 0 00-2 2l1 1a2 2 0 010 1v1l-1 1v1a3 3 0 01-1 1l-1 4h-1l-2 4a2 2 0 00-1 2l-2 2v1a3 3 0 001 1 2 2 0 001 0l3-2v-1l2-2h-2l1-2v1a2 2 0 001 0 1 1 0 001 0 8 8 0 000-1 4 4 0 001-1 12 12 0 002-4 14 14 0 001 0v-1l-1 1-2-1 3-3a4 4 0 011 0 3 3 0 011 0l-1 1 1-1h1l-2-1 1-1 2-1 2-2-1-1 3-1v-1l3-2a3 3 0 000-1 9 9 0 013-3 3 3 0 001-1 3 3 0 000-1 28 28 0 005-5 1 1 0 001-1 3 3 0 011-1l4-5 1-1a11 11 0 002-2l2-2 5-5a24 24 0 012-3l2-1c-1-1 0-2 2-3a6 6 0 000-1l-1-1 2-1v-2h-1a20 20 0 00-2 0l-1 1h1zM355 28l1 2-1 2a1 1 0 000 1h1a5 5 0 001 0h2a9 9 0 012-1 9 9 0 005-1v-3c1 0 0 0 0 0a10 10 0 00-1-1 14 14 0 01-4-1 2 2 0 00-1 0v1a9 9 0 00-5 1zM164 251a12 12 0 003-2l2-1 1-2a2 2 0 00-1-1l-2 1h-3l-2 1a23 23 0 000 3l2 1zm900-225l-1 2-1 1a3 3 0 001 0 10 10 0 001 0 9 9 0 014-1h1a1 1 0 011-1h1l2-1 1-1a10 10 0 00-3 0l-7 1zM837 303l1-1v-1h8v-1l-2-1a2 2 0 00-1 0h-3-1l-3 1a2 2 0 01-1 0l-1 1a6 6 0 003 2zm-12-27a5 5 0 01-1 3 2 2 0 00-1 1h1a19 19 0 004-1l1-1 1-3a2 2 0 00-2 0 6 6 0 00-1 0l-2 1zm-434 11l1 1a1 1 0 001 0v-2a10 10 0 01-1-1h-4l-2 1 3 2a3 3 0 001 0zm598-173a5 5 0 00-1 0l-4 3a2 2 0 00-1 1 1 1 0 001 0 13 13 0 005-3v-1zM429 296l-1-1h-2l2 2a3 3 0 001 0l2-1h2l-1-1zM341 28h-2v1l2 1h2a1 1 0 000-1l-1-1zm711 0a3 3 0 002 2 2 2 0 001 0c1-1 2-1 1-2a5 5 0 00-3 0h-1zM773 274l-1-1v-1a1 1 0 00-1 1 10 10 0 00-1 1v1a3 3 0 001 0 5 5 0 012-1zm1 10a5 5 0 01-1 2v1a2 2 0 001 1v-1a5 5 0 011-2v-1zM349 29l-1 1a9 9 0 001 1 2 2 0 001 0 1 1 0 001 0v-2zm-39 132l-3 1h1l1 1 2-2h-1zm408-22v-1h-2a1 1 0 00-1 0v1a2 2 0 001 0zm117-30l1 1a11 11 0 003 0h1v-1zM207 253l2 1 2-1h-4zm14-5v-1a13 13 0 00-2 0 2 2 0 00-1 1zm1-112l-1 2a3 3 0 001 0 27 27 0 002-3h-1a1 1 0 00-1 0 5 5 0 000 1zm-36-18h-2a2 2 0 000 1 1 1 0 001 0 10 10 0 013-1v-1a1 1 0 00-1 0l-1 1zm116-2l-1-1a2 2 0 00-1 0 8 8 0 00-1 1h1a4 4 0 002 0zm278 15h-1a2 2 0 00-1 0l-2 1h1l3-1zM165 242a2 2 0 002 0 1 1 0 000-1 1 1 0 00-2 0 10 10 0 000 1zm472-113h1l-1-1h-2a9 9 0 001 1h1zm353-17v1a1 1 0 001 0 5 5 0 002-2 2 2 0 00-1 0 4 4 0 00-2 1zM388 296h-1-1l1 1a3 3 0 002 0l-1-1zm-60-92l2-1h1a1 1 0 00-1 0 2 2 0 00-1 0 7 7 0 00-2 1h1zm-111 49c3-1 3-1 1-2l-1 1a1 1 0 000 1zm-39 16a1 1 0 000 1 1 1 0 001 0 3 3 0 001 0v-1a3 3 0 00-1 0h-1zm-28-69l-2 1v1a1 1 0 001 0l2-2h-1zm834 4a1 1 0 001 0 19 19 0 004-1v-1a2 2 0 00-1 0 17 17 0 00-4 2zm-768 45a3 3 0 010 1 3 3 0 001 0l1-1a5 5 0 00-2 0zm-33 20c-1 1 0 1 1 2a1 1 0 001 0v-1zm323-158a3 3 0 00-1 1v1a3 3 0 002-1l-1-1zm104 94h-1l-1 1a3 3 0 003 0zm325-8a2 2 0 00-1 0 10 10 0 00-1 1h1l1-1zm-542 81v-1a2 2 0 00-1 0 2 2 0 00-1 1l1 1a10 10 0 001-1zm-236-51a3 3 0 00-1 1v1l1-2zM336 31a8 8 0 001 0 1 1 0 000-1 11 11 0 00-3 0 1 1 0 000 1zm-21 177a10 10 0 00-2 0v1h1a2 2 0 001 0v-1zm-148 36a2 2 0 000-1l-2 1a1 1 0 001 0 7 7 0 001 0c1 0 1 0 0 0zm85-99a1 1 0 001-1v-1a1 1 0 00-1 0v2zm703-14a3 3 0 002-1l-1-1a1 1 0 00-1 1 1 1 0 000 1zM402 263a4 4 0 001 0h1a2 2 0 00-1-1 1 1 0 00-1 0 5 5 0 000 1zm730-226l1-1a1 1 0 00-1 0v1zM581 214h2v-1a3 3 0 00-1 0 6 6 0 00-1 1zm336-1h3a1 1 0 00-1 0 3 3 0 00-1-1l-1 1zM709 24l1 1a2 2 0 001-1zm231 190a8 8 0 00-2 1c-1 0-1 0 0 0a3 3 0 002 0v-1zm52-13l-2 1a2 2 0 001 0l2-1h-1zM339 15h-1v1a4 4 0 002 0 4 4 0 001 0l-2-1zm379 103a2 2 0 001 1l1-1a2 2 0 00-1 0h-1zm69 115a5 5 0 000 1 2 2 0 001 0h1l-2-1zm211-33a3 3 0 00-2 0 1 1 0 000 1 5 5 0 002-1zm-1 32a3 3 0 002-1c1 0 0 0 0 0a2 2 0 00-1 0 12 12 0 00-1 0v1zm-622 39a2 2 0 00-2 1 1 1 0 001 0l1-1zM181 120l1 1a4 4 0 002-1h-1a3 3 0 00-2 0zm61-26a1 1 0 00-1 0h-2v1zm91 54l-2 1a1 1 0 000 1l2-2zM684 16l-1-1a2 2 0 00-1 0v1a2 2 0 001 0 1 1 0 001 0zM361 36a7 7 0 00-1 0h-1a2 2 0 002 1 2 2 0 001-1h-1zm791 126a3 3 0 002 0v-1a1 1 0 00-1 0 3 3 0 00-2 1zm-877 64a3 3 0 001 1l1-1a1 1 0 00-1 0 3 3 0 00-1 0zM811 70h-1a1 1 0 001 0 7 7 0 001 0h-1zm-14 223h-2 3a4 4 0 00-1 0zM459 79a2 2 0 001 0l1-1a1 1 0 001 0h-1-2v1zm646-42a7 7 0 00-2 0 7 7 0 003 0h-1zm-39 205a7 7 0 00-3 1 6 6 0 003 0 1 1 0 000-1zm-746-34a3 3 0 00-2 1 1 1 0 001 0c1 0 2 0 1-1zm403-74l2-1a1 1 0 00-1 0l-1 1zm42 148v-1 1zm194-92l-2 1a1 1 0 001 0 3 3 0 001-1zm-549-21l-1-1a1 1 0 00-1 0v1a9 9 0 001 0 2 2 0 001 0zm353 121a7 7 0 00-1 0v1h2v-1h-1zm1-32h-1a2 2 0 00-1 0l1 1a2 2 0 001-1zM323 29v1l1-1h1a4 4 0 00-1 0h-1zm1 178a6 6 0 00-1 0h-1 1a9 9 0 001 0zm627-37v1h1v-1a6 6 0 00-1 0zM414 95h-1l1 1a1 1 0 001 0v-1a1 1 0 00-1 0zm627-81h2a1 1 0 00-1 0 6 6 0 00-1 0zM229 266h-1a2 2 0 001 0h1a1 1 0 00-1 0zm188-2a2 2 0 002 0h-2zm594-17a5 5 0 001 0 1 1 0 001 0l-1-1a1 1 0 00-1 1zm47-63a7 7 0 00-1 0l1 1v-1c0-1 0 0 0 0zm1-171h-1a1 1 0 001 0 3 3 0 001 0 6 6 0 00-1 0zm2 230a3 3 0 00-1 1c-1 0-1 0 0 0h1a2 2 0 000-1zm-938-3h1l-1-1c-1 0 0 0 0 0a2 2 0 000 1zm888-10a1 1 0 000 1 4 4 0 002-1 1 1 0 00-1 0h-1zm70-40a3 3 0 002 0 1 1 0 00-1 0h-1zM686 98h-1-1 1a1 1 0 000 1 2 2 0 001-1zM443 84a1 1 0 001 0 2 2 0 001-1 2 2 0 00-1 0l-1 1zm223 98a2 2 0 00-1 0c-1 0 0 0 0 0h1zm123 95l-1 1 1-1zm318-207a3 3 0 00-1 0 1 1 0 001 0zM378 230v1a2 2 0 001 0v-1h-1a2 2 0 000 1zm589-99l-1-1v1a2 2 0 001 0zm-317-25a2 2 0 00-2 1h2v-1zm259-14a3 3 0 00-1 0 1 1 0 001 0h0zM83 141a1 1 0 001 0 2 2 0 001-1 2 2 0 00-1 0l-1 1zm897-23a4 4 0 00-1 0v1a1 1 0 001 0 4 4 0 000-1zM345 72a1 1 0 000-1 1 1 0 00-1 1 3 3 0 001 0zm-66-32v1a4 4 0 001 0v-1a1 1 0 00-1 0zm320 81a1 1 0 000-1 1 1 0 00-1 1 2 2 0 001 0s1 0 0 0zM39 178h-2a4 4 0 001 0h1zm135 92a1 1 0 001 0 2 2 0 00-1 0zm95-25h-1v1l1-1zm513-9a3 3 0 00-1 0 5 5 0 001 0zM515 133h-1a1 1 0 001 0zm654 23a1 1 0 00-1 0h1zM160 221a2 2 0 000 1 2 2 0 000-1zm-2 4v0zm123-5v1a4 4 0 001 0 4 4 0 00-1-1zM975 38a6 6 0 00-1 0 4 4 0 001 0 2 2 0 001 0zM153 226a1 1 0 00-1 1 1 1 0 001 0v-1zM617 39v-1a1 1 0 00-1 1h1zM193 58a3 3 0 000 1l1-1a1 1 0 00-1 0s-1 0 0 0zm213 230s-1 0 0 0a2 2 0 001 0h-1zm566-164v1h1l-1-1zm-566 14h-1a1 1 0 001 1v-1zm498 87a3 3 0 000 1l1-1h-1zm-612 4a1 1 0 001 0 1 1 0 00-1 0zm191 38a1 1 0 001 0h-1zm-71-25v-1a1 1 0 00-1 0v1h1zm618-229v1a1 1 0 001 0v-1a2 2 0 00-1 0zm14 4h-1 1a2 2 0 001 0zM80 142h1c1 0 0 0 0 0a3 3 0 00-1 0zm338 148v1h1l-1-1zM233 154v1a2 2 0 001-1 3 3 0 00-1 0zm876 65v1h1l-1-1zM663 94v1h1l-1-1zm-447 11l-1 1a1 1 0 001 0l1-1zm217 192h1a2 2 0 00-1 0zM103 123l1 1v-1a3 3 0 00-1 0zm120 46a1 1 0 001 0h-1c-1 0 0 0 0 0zm218 126h1a1 1 0 00-1 0zM320 30h1a2 2 0 00-1 0zm627 7a1 1 0 00-1 0 1 1 0 001 0zm9 129h1l-1-1v1zm-1-28h1a1 1 0 00-1 0zm152 82a2 2 0 00-1 0v1a1 1 0 001 0v-1zm-646-29h0zM90 101c1 0 1 0 0 0zm982-89zM463 174h-1a1 1 0 001 0zm195-55a2 2 0 00-1 0h1zm-353 9a1 1 0 00-1 0h1zm404-46a1 1 0 001 0 1 1 0 00-1 0zm177 54l1 1v-1zm-554 65v0zM942 36h0zm-639 78a1 1 0 000 1v-1zm740-92a3 3 0 00-1 0 1 1 0 001 0zM825 211l-1 1a2 2 0 001 0v-1c0-1 0 0 0 0zM714 9h1a2 2 0 00-1 0zM414 118v1a1 1 0 001 0 1 1 0 00-1-1zm-79 82h0zm-32 8h1-1zm824-173h-1 1zM301 168h1a2 2 0 00-1 0zm36-57zm1 90a1 1 0 001 0 1 1 0 00-1 0zm2-92v0zm391 8h1a1 1 0 00-1 0zM484 263h-1 1zm327-29v0zm214-6h0zM345 100v-1a2 2 0 000 1zm62 24h1l-1-1v1zm-119 20a1 1 0 001 0 1 1 0 00-1 0zm517 96v1l1-1h-1zm1 56h-1a1 1 0 001 0zm131-109h1zm-25-96zm-415 58zm-249-1v1a2 2 0 000-1zm668-53v-1l-1 1h1zM598 205h0zM772 81h-1 1zM594 36zm570 173h1v-1c0-1 0 0 0 0h-1v1zM159 223a2 2 0 000 1 2 2 0 000-1zm615-107a1 1 0 001 0 1 1 0 00-1 0zm-495 21h-1a2 2 0 000 1l1-1zm310 82h-1 1zm-426-90zm615 155c1 0 1 0 0 0zM517 121v1a5 5 0 001 0l-1-1zm413 97h-1 1zm-147 20v1a1 1 0 000-1zm-516-11s1 0 0 0zM372 33zm559 166l1 1v-1h-1zm-549 75v1l1-1h-1zm2 23a2 2 0 00-1 0h1zm549-82h-1a1 1 0 001 0zm0-114h0zm59 18zM789 254h-1zM171 115zm7 76zm607 45zm-603-70zm600 112zm0 1zm-1-38zm-620-21zm232-44zm404 47zM362 50zM158 239zm610 29h1-1zm-409 2l1-1h-1zM765 81v1-1zm254 18v-1 1zM358 57h1zM150 231zm651 67zm0-29v1zM401 125zm363 158h-1 1zm-616-80zm0 39zm254-70zm360 120zm41-42zm0-14zm-399-66h1zm618 59h1zm-217 7zm2-167zM348 28zm624 99zm-1-1zM808 303h1zm-52-35zm267-154zM810 232h-1 1zm-1-4h1zm-61-78zm-4-84h1-1zM145 208h-1zm667 94zm0-70zm-403 48zm403-53h-1 1zm-615 20h-1zm534-133zm-589 98zm269-45zm404-98zm0 189zm4-43zm146 34h-1zm-553 28zm0-158zm625 106v-1zm1-200h-1zm0-3zm2 1v-1zM331 206h1zM712 9zm0 130zM421 288v-1 1zm410-92zM126 82zm202 12zm633-61zM701 91zm-490 43zm115-39zm509 105l1 1v-1zm122-63h1-1zM689 68zm396 121h1-1zm-870 66h-1zm225-143zm-123 89h1zm775-188zm1 209v1-1zm-144-10zm-504-1zm232-33zM948 36zm-1 142zm-721-45zm721 144zm-1-98zm-282-61zm-432 38zm422-33zm289 59zM87 132zm0 7zm147 20zm882 59zM304 112zm0 2v-1zm589 147h1zm-593-40zm339-108zm302 71zm-702-31h1-1zm59-41zm597-12zm233-68zM628 190zm275 36zm-278-29zm-333-81zm647 89zm196-174zm-197 4h1zM244 148zm45-28h-1zm-43 19zm40-108h1zm207 226zM910 97h1zm-300 63h1zm0 42zm-8-170zm556 178h-1zm1-1zm-877 28h1v-1zm636-21zm242-56h-1zm-241 61h1zm248-12h-1l1 1zM934 38h1-1zm1 7h-1zM273 238zM924 95zM574 229h1-1zM27 145h-1zm488-22zm412 77zm-410 44h-1zm411-33zM517 61zm49 173h1zm-8-139h-1 1zm-23 42z"/><path class="cls-2" d="M1225 198l-3 1a4 4 0 00-2 1 8 8 0 00-3 0l-3 1h-2a18 18 0 00-3 1v-1a6 6 0 011-1h5a4 4 0 001-1 4 4 0 002-1 12 12 0 005 0h2zM810 308v1h-3l2-1h1zM803 309h1c1 0 0 0 0 0zM0 161q1 0 0 0zM748 12l3-1a1 1 0 000 1v-1h-1a3 3 0 00-3 0h-5a18 18 0 01-4-1 5 5 0 01-1 0V9a5 5 0 012 0 14 14 0 004 0V8a3 3 0 00-1 0 9 9 0 01-4-1 5 5 0 00-2-1 4 4 0 00-2 1 3 3 0 01-2 0 13 13 0 00-3-1h-3l-1-1c1 0 1 0 0 0l2-1-3-1a3 3 0 013 0 16 16 0 015 1 12 12 0 003 0h2a3 3 0 002 0 6 6 0 013 1s-1 0 0 0h3a9 9 0 001 0l-1-1a7 7 0 012 0 7 7 0 011 0v2h-1a1 1 0 00-1 0 3 3 0 001 0 2 2 0 001 0 10 10 0 013 0h1a2 2 0 011-1l1 1a1 1 0 000 1 4 4 0 001 0l8 2a2 2 0 011-1l2 1a12 12 0 016-1h-1l-3 1-1 1a2 2 0 001 0h2l-1 1-2 1c-1 1 0 0 0 0h2a5 5 0 010 1h-1l-3 1a3 3 0 01-3-1l-3-1a3 3 0 00-1 0 9 9 0 00-4 1 2 2 0 01-2 0 6 6 0 00-3 0 4 4 0 01-1-1zm-19-8l1 1c0 1 0 0 0 0a1 1 0 001 0c1-1 0-1-2-1zm31 5h-2v1a6 6 0 003 0c1 0 1 0 0 0a5 5 0 00-1-1zm-13-1h-1v1a3 3 0 001 0 2 2 0 001-1zm-3 1h-1v1zM1108 15v-1a7 7 0 01-1-1l1-1 2-1a4 4 0 012 0v1l-1 1h1l2 1 1 1 1-1 2 1h2a27 27 0 003 0c2 1 2 1 1 2a4 4 0 00-1 0l-1-1a5 5 0 00-1 0h-1v1h-3l-3-1-2 1h-1 1a5 5 0 01-3 1 3 3 0 010-1h-3l1-1a2 2 0 001 0v-1zm2 1h1a1 1 0 00-1 0zM734 10l4 2a1 1 0 01-1 0h-9a14 14 0 01-6 0 9 9 0 011-1h6l5-1zM237 40a13 13 0 013-3 10 10 0 012 0 5 5 0 012 0h3a7 7 0 01-3 2l-4 1a10 10 0 01-3 0zM974 24l2-2h2l4-1a11 11 0 012 0l-2 2-5 1a6 6 0 01-3 0zM767 24h-1a1 1 0 000-2 1 1 0 000-1l2-1 1 1h1l2 1-1 1a14 14 0 00-3 0 4 4 0 01-1 1zM775 15l-1-1-2-1-1-1h3l1-1c2 0 2 0 1 1v1l-1 1a5 5 0 000 1zM524 57a24 24 0 01-3 0 9 9 0 00-2 0 3 3 0 00-1 0h1v1a10 10 0 01-1 0 9 9 0 01-3 0v-1l4-1a4 4 0 011 0 9 9 0 014 1zM1112 26a7 7 0 004-2l1 1a6 6 0 01-1 0c-2 1-2 1-1 2a15 15 0 00-1 1l-1 1a2 2 0 01-1 0 5 5 0 000-3zM370 16l2 1a10 10 0 012 1l-1 1a3 3 0 01-1 0l-2-1a2 2 0 01-1-1v-1h1zM230 37v1a6 6 0 00-1 1h-1a4 4 0 01-1 0h-1c-1-1 0-1 1-2h3z"/><path class="cls-2" d="M776 12a7 7 0 004-1 1 1 0 011 1l2 1a2 2 0 01-1 0h-5v-1zM378 18l-2-1v-1a3 3 0 012 0l2 1-1 1zM370 86l3 1a2 2 0 011 0l-2 2a1 1 0 01-1 0v-1l-1-2zM230 37a23 23 0 004-2 3 3 0 011 0 1 1 0 010 1 2 2 0 01-1 1h-4zM379 13l-1 1a2 2 0 01-1 0 9 9 0 01-3-2l1-1 1 1h1l2 1zM506 60l-1 1-2 2-1-1a4 4 0 010-1v-1a2 2 0 011 1l3-1zM348 124a1 1 0 010-2 6 6 0 012-1 1 1 0 011 1l-1 1h1c1 0 0 0 0 0a9 9 0 01-3 1zM391 19a4 4 0 01-1 1 2 2 0 01-1 0l-1-2a1 1 0 011 0l2 1zM377 83h1l-4 3v-1l2-1a3 3 0 000-1h1zM53 119l-1 1a8 8 0 01-2 0l-1-1a6 6 0 013-1v1c-1 0-1 0 0 0v-1h1zM411 41h-2a4 4 0 01-2 0v-1a6 6 0 013 0 5 5 0 011 1zM823 64l1 1h-1v1a2 2 0 01-1 0l-1-1v-1h2zM1128 14l2 1a10 10 0 00-3 1 3 3 0 01-1-1l2-1zM184 57h-1a6 6 0 013-1l1-1 1 1h-1l-1 1zM361 96a6 6 0 013-1 1 1 0 010 1 3 3 0 00-1 1 2 2 0 01-1 0l-1-1zM984 21l2-1a2 2 0 011 1h-2-1zM166 64a7 7 0 011 0 2 2 0 011 0v1a1 1 0 01-1 0 20 20 0 01-4 1l1-1a4 4 0 002-1zM403 36l-2-1v-1l2-1h1a1 1 0 01-1 1h-1l1 2zM659 12a7 7 0 01-1 1 3 3 0 01-2-1l1-1a2 2 0 011 0 3 3 0 001 1zM1102 14v-1a11 11 0 012 0h1a3 3 0 01-1 1h-2zM1053 18a12 12 0 012 0 2 2 0 011 0 5 5 0 01-2 1l-1-1zM642 16a6 6 0 011-1l3-1v1c-1 0 0 0 0 0l-4 1zM808 67a4 4 0 012 0s1 0 0 0a3 3 0 01-2 1v-1zM196 53h2v1a3 3 0 01-2 0 11 11 0 01-1 0l-1-1h1zM482 68h-1a18 18 0 01-2 1 2 2 0 01-1 0v-1a11 11 0 014 0zM1140 25a4 4 0 011 0v1a6 6 0 01-1 0 2 2 0 01-1 0s-1 0 0 0a3 3 0 011-1zM370 12a4 4 0 01-1 0 2 2 0 01-1 0v-1a2 2 0 011 0 2 2 0 011 0 4 4 0 010 1zM725 7a6 6 0 01-3 0 2 2 0 01-1 0h4zM313 28l1-1a2 2 0 011 0 2 2 0 01-2 1zM775 15a5 5 0 012 0 2 2 0 01-1 1 2 2 0 01-1-1zM562 40a14 14 0 014-1h1l-2 1h-3zM839 62a4 4 0 00-2 1 9 9 0 01-1 0v-1a10 10 0 011 0h2zM387 14a16 16 0 01-2 1 2 2 0 01-1 0v-1a2 2 0 013 0zM1056 8a4 4 0 012 0v1a4 4 0 01-2-1zM191 56c-1-1 0-1 1-2a3 3 0 011 0v1l-2 1zM249 37v-2a6 6 0 012 0l-2 2zM1130 17a3 3 0 01-2 1 2 2 0 01-1-1 6 6 0 012 0 3 3 0 011 0zM478 71v-1a7 7 0 013-1l-1 1-2 1zM298 27l1-1a3 3 0 011 0v1a5 5 0 01-2 0zM395 18a4 4 0 01-2 0 2 2 0 01-1 0 1 1 0 011 0h2zM1079 178l1-1h1l-1 1a1 1 0 01-1 0zM325 134v1a2 2 0 01-1 0l1-1zM245 34h4a1 1 0 01-1 0 8 8 0 01-3 0zM191 56h1l-1 1a14 14 0 00-3-1h3zM367 15a2 2 0 01-1 0 2 2 0 01-1 0h-1 3zM189 59a4 4 0 01-2-1l-1-1h2l1 2zM642 16a4 4 0 01-2 1l-1-1a1 1 0 011 0 14 14 0 012 0zM473 72a2 2 0 01-1 0v-1a2 2 0 011 0 4 4 0 011 1h-1zM96 96a2 2 0 01-1 0h-1v-1a1 1 0 011 0l1 1zM418 94a3 3 0 01-1-1 7 7 0 01-1-1h1a3 3 0 011 1v1zM836 61l-2 1-1-1a3 3 0 013 0zM1022 192l-1 1h-1a4 4 0 010-1h1a2 2 0 011 0zM403 53l1 1a1 1 0 01-1 0 1 1 0 01-1 0l1-1zM843 59v1a1 1 0 01-1 0l-1-1a1 1 0 011 0 3 3 0 011 0zM401 34a4 4 0 01-1-1c-1 0-1 0 0 0a2 2 0 011 0 4 4 0 010 1zM720 0h1v1a2 2 0 01-1 0V0zM230 40v-1a2 2 0 011 0v1h-1zM108 91a1 1 0 010-1 2 2 0 011 0l1 1a2 2 0 01-2 0zM1082 18h-1 1zM104 92v-1a1 1 0 011 0v1a1 1 0 01-1 0zM304 14h1v1a1 1 0 01-1 0 4 4 0 01-1 0v-1a5 5 0 011 0zM1097 17a4 4 0 012 0h-1a3 3 0 01-1 0zM1219 142a8 8 0 010-1h1l-1 1zM784 74h1a10 10 0 01-1 1l-1-1h1zM241 33v1a4 4 0 01-1 0 1 1 0 011-1zM291 18a1 1 0 01-1 0h-1a1 1 0 011-1l1 1zM1122 19a1 1 0 01-1-1 1 1 0 011 0v1zM248 32h-1a3 3 0 01-1 0h2zM1217 143a3 3 0 01-1 0 2 2 0 011 0zM989 20h1l-1 1v-1zM786 30h1s1 0 0 0a4 4 0 01-1 0zM166 64h-1a1 1 0 011-1v1zM512 61h-2a1 1 0 010-1 1 1 0 011 0l1 1zM976 174h1s1 0 0 0a2 2 0 01-1 0zM507 60a4 4 0 011 0l-1 1a6 6 0 01-1-1h1zM367 17h-2 2z"/><path class="cls-2" d="M188 56l1 1h-1l-1-1zM771 20h-1 1zM251 35v-1a2 2 0 011 0l1 1h-2zM360 16a6 6 0 011 1h-2a2 2 0 011-1zM768 80h-1l1-1a1 1 0 010 1zM250 30h0zM974 177a1 1 0 01-1 0 12 12 0 011 0zM490 67v-1 1zM489 66a3 3 0 01-2 0 1 1 0 01-1 0h3zM348 124h-1a3 3 0 01-1 0 3 3 0 011 0h1zM408 32v1h-1l1-1zM738 7a1 1 0 01-1 0h1zM409 39a1 1 0 01-1 0h1zM728 93h-1 1zM1053 106l1 1c0 1 0 0 0 0a1 1 0 01-1 0 3 3 0 010-1zM235 38a1 1 0 01-1 0h1zM1071 179h0zM1075 178a3 3 0 010 1 1 1 0 01-1 0v-1h1zM1084 177a3 3 0 010-1 1 1 0 011 0l-1 1zM323 138h-1a1 1 0 011 0zM321 21h1a1 1 0 01-1 0zM321 137a3 3 0 010-1 1 1 0 011 0v1a12 12 0 01-1 0zM681 113h-3a3 3 0 013 0zM318 12a1 1 0 01-1 0 1 1 0 011 0zM457 76s1 0 0 0zM839 62a2 2 0 010-1 1 1 0 011 0l-1 1zM876 48v-1a1 1 0 011 0zM1084 177h-1a1 1 0 01-1 0h2zM1109 68a12 12 0 011 0 1 1 0 01-1 0zM833 63a5 5 0 011 0 5 5 0 01-1 0zM771 79l-1-1a1 1 0 011 0v1zM823 64a8 8 0 011-1v1h-1zM411 41a4 4 0 011 0l-1 1v-1zM202 51a2 2 0 01-1 0 1 1 0 01-1 0h2zM1128 57a1 1 0 01-1 0 1 1 0 011-1v1zM299 15h-1a1 1 0 011-1 1 1 0 010 1zM65 111h-1a6 6 0 011 0 1 1 0 010-1l1 1a4 4 0 01-1 0zM407 31c1 0 1 0 0 0zM405 43a10 10 0 011 0v1l-1-1zM353 121a6 6 0 010-1h1a5 5 0 010 1h-1zM492 65a1 1 0 01-1 0 7 7 0 011 0zM249 37a4 4 0 01-2 0h2zM613 27s-1 0 0 0zM360 98v0zM974 24a2 2 0 01-1 0 1 1 0 010-1zM770 51v-1h2a1 1 0 01-1 1zM1202 146a3 3 0 010-1 3 3 0 011 0v1h-1zM388 28a1 1 0 010-1h1a4 4 0 01-1 1zM387 17a2 2 0 01-1 0 4 4 0 011 0zM382 16h-1a1 1 0 011 0zM556 42h1l-1 1a1 1 0 010-1zM787 39s1 0 0 0zM377 83l1-1v1a7 7 0 01-1 0zM789 28zM381 80v1h-1l1-1zM373 13zM998 198zM370 16a1 1 0 011 0h-1zM388 28a1 1 0 01-1 0h1zM981 170h-1 1zM979 171h1-1zM360 98v-1 1zM360 100v-1 1zM1016 137l1-1v1h-1zM359 14zM1020 134zM763 31h1zM399 58h0zM355 11a1 1 0 011 0h-1zM747 12a1 1 0 01-1 0h1zM744 70h1-1zM144 72l-1 1a7 7 0 011-1zM734 75l1 1a2 2 0 01-1 0 2 2 0 010-1zM1027 130h-1 1zM965 186zM820 66zM1029 128h-1 1zM411 40zM335 127h-1 1zM716 13h1a7 7 0 01-1 0zM716 13l-1 1 1-1zM715 98v-1 1zM330 130v-1 1zM708 100h1-1zM706 10zM706 12zM706 13h1-1zM123 84h-1 1zM211 47zM1075 178a1 1 0 011 0h-1zM108 92h-1a1 1 0 011 0zM1089 6h1-1zM318 22zM1098 10h-1 1zM1100 15l-1 1 1-1zM1099 9h1-1zM669 9a1 1 0 011 0 4 4 0 00-1 0zM313 25a1 1 0 011 0h-1zM475 69a1 1 0 011 0h-1zM235 42v-1 1zM235 38a1 1 0 011 0h-1zM481 69h1a4 4 0 01-1 0zM70 109v1l-1-1a7 7 0 011 0zM1131 163h1-1zM1132 52h0zM1138 163zM244 33v-1 1zM499 63l-1 1 1-1zM1189 147v1-1zM33 130h-1a2 2 0 011 0zM1192 147zM258 28zM514 60v-1a3 3 0 010 1zM261 28h-1l1-1v1zM554 43zM264 27v-1 1zM1223 142zM562 40zM507 60a1 1 0 01-1 0h1zM592 33v1-1zM592 33h1-1zM499 63c1 0 0 0 0 0zM498 64h-1zM489 66a1 1 0 011 0zM490 67h-1 1zM483 71zM482 68v-1 1zM475 69l-1 1 1-1zM474 70zM469 74zM670 115zM670 112v-1 1zM695 108zM705 2zM705 15h1-1zM705 2h0zM707 15h-1a1 1 0 011 0zM707 15a2 2 0 011 0h-1zM715 86v-1 1zM729 8a2 2 0 01-1 0zM734 75zM737 4c1 0 0 0 0 0zM740 22zM748 12h-1a1 1 0 011 0zM759 12a2 2 0 01-1 0h1zM763 31zM397 54h1zM769 11zM785 76zM784 74c1 0 1 0 0 0zM376 83zM369 16h-1 1zM367 15v-1 1zM353 121zM351 15h1a1 1 0 01-1 0zM351 11zM347 17h-1zM346 17h1zM813 68zM327 131c1 0 1 0 0 0zM855 59zM256 29h0zM256 29zM244 33c-1 0-1 0 0 0zM237 40zM951 199c1 0 1 0 0 0zM963 186h1a1 1 0 01-1 0zM202 51zM979 171zM173 61zM163 64c1 0 1 0 0 0zM162 65l1-1-1 1zM162 65zM1015 194a2 2 0 01-1 0h1zM1016 137zM144 72zM1029 128zM1034 189a1 1 0 01-1 0h1zM1050 22a1 1 0 010 1v-1zM1051 19zM1068 15zM1077 10zM1083 89a1 1 0 010 1v-1zM1084 15h1a1 1 0 01-1 0zM1084 12zM1112 26a1 1 0 010-1v1zM1116 24zM1140 162zM53 117v1h-1zM1141 33h-1zM1145 160zM35 126zM35 126h-1 1zM1202 146c-1 0-1 0 0 0zM1219 142v0zM12 144h-1a1 1 0 011 0zM134 260c-2 0-3-1-3-2a3 3 0 011-2l1 2 1 1v-2a1 1 0 011-1 2 2 0 011 0l2 1-1 1 1 1a11 11 0 001 0l2 1a2 2 0 011-1 3 3 0 011 1l-2 1-1 2a1 1 0 01-1 0l-1-1h-1l-1-1-2 2-2-1 2-2h0zM145 266l-2-1a1 1 0 011 0 8 8 0 001 0h1l-2-2-1-1a1 1 0 010-1 2 2 0 011 0l2 1a6 6 0 011 0 2 2 0 011 0c0 1 1 2 3 2h2c0 1-1 2-3 2a16 16 0 00-2 0l-2 1h-2v-1h1zM783 231l-1-1v-1h2v-1-1-1a6 6 0 013-1v-1a2 2 0 011 0 2 2 0 011 0h1a15 15 0 01-1 2l-1 1a8 8 0 001 0 3 3 0 012 0l-1 1a1 1 0 001 0 6 6 0 001 0l-1 1h-4l-1 1h-1zM436 181l1-1 1-1 5-4v-1a29 29 0 014-2 6 6 0 001-1h1a3 3 0 01-1 2l-5 3a3 3 0 00-1 1 2 2 0 010 1l-4 3a2 2 0 01-2 0zM637 202v1a8 8 0 01-3 1 12 12 0 01-2 2 20 20 0 01-2 1h-2v-1a2 2 0 011 0c1-1 1-2 3-2a5 5 0 011-1 4 4 0 002-1 5 5 0 013-1l1 1a1 1 0 01-1 0 2 2 0 01-1 0zM932 91h2a8 8 0 011 0h0a5 5 0 012-1h3a2 2 0 011 1h-1l-4 1a20 20 0 00-2 1h-2v-1-1zM166 175l1 1a2 2 0 01-1 1l-3 3s-1 0 0 0l-1-1a2 2 0 01-2-1l1-1 1 1a1 1 0 001 0l1-2a5 5 0 002-1zM891 105h1l-2 2-4 1h-2a2 2 0 01-1 0 1 1 0 010-1l5-1a4 4 0 002-1 3 3 0 011 0zM166 175c0-2 0-3 2-4a13 13 0 012 0s1 0 0 0l-1 2v1l-3 1zM894 124a3 3 0 01-1 2 5 5 0 01-3 1l-1-1a3 3 0 012-1l1-1h2zM271 249a7 7 0 000-1l5-1 2-1a4 4 0 01-2 1l-1 1-3 1h-1zM486 283a8 8 0 01-1 1 7 7 0 00-1 1l-4 1h-1a11 11 0 013-2 6 6 0 014-1zM468 290l2-1a3 3 0 012 0l-1 2-3 1c-2-1-2-1-1-2a1 1 0 001 0zM459 295l2-1 3-2a1 1 0 011 0l-3 2a6 6 0 01-3 1zM362 288q1 0 0 0a2 2 0 010-1 2 2 0 011 0 2 2 0 011 1 3 3 0 002 1l-2 1h-2v-2zM499 130h1l-1 2a21 21 0 00-4 0v-1a15 15 0 004-1zM371 293l1 1-2 1a3 3 0 01-2 0v-1a1 1 0 011 0l1-1h1zM43 186a32 32 0 01-5 2 1 1 0 01-1 0l2-1a8 8 0 014-1zM278 246c0-2 2-3 4-3 1 1 1 1-1 1a3 3 0 00-1 1l-2 1zM486 283l-1-1a1 1 0 01-1 0 4 4 0 001 0 11 11 0 012-1 2 2 0 012 0 7 7 0 01-2 2 7 7 0 01-1 0zM362 290v1l-4-1a4 4 0 002 0 4 4 0 012 0zM811 204a3 3 0 011-2 3 3 0 011-1 3 3 0 011 0 2 2 0 00-1 2l-2 1zM171 263l-2 1-3-1a4 4 0 01-2 0h5a14 14 0 002 0zM398 178l3-2a1 1 0 011 1 3 3 0 01-2 1zM185 272h5a3 3 0 01-3 1 7 7 0 01-2-1zM949 89a6 6 0 00-3 1l-1-1h1a11 11 0 002 0 1 1 0 011 0zM645 192l2-1 1 1s1 0 0 0a13 13 0 01-3 1h-1a6 6 0 011-1zM370 235a3 3 0 012 0c0 1-1 2-3 2a2 2 0 001-2zM381 292h2l-1 1a10 10 0 01-1 0h-1v-1a3 3 0 011 0zM857 115h2a8 8 0 01-1 1 2 2 0 01-1 0v-1zM409 173h1l-3 2v-1l2-1zM641 201l-2-1h1a1 1 0 011 0v1zM167 273h-2a2 2 0 011-1h1l1 1h-1zM409 206l-1 2a6 6 0 01-1-1h-1a8 8 0 011-1h2zM509 131h-3 1l1-1a1 1 0 011 0 10 10 0 010 1zM842 122l-1-1h2v1zM878 141h1a19 19 0 01-4 0 2 2 0 011 0h2zM404 210l1-2a1 1 0 011 0v1l-2 1zM881 134a1 1 0 011-1 3 3 0 011 0l-1 1a2 2 0 01-1 1v-1zM264 252l1-1c0 1 0 1 0 0a3 3 0 012 0v1a4 4 0 01-1 0 9 9 0 01-2 0zM872 141l-1 2a1 1 0 01-1 0v-1l2-1zM887 129a6 6 0 01-1-1h3a6 6 0 01-2 1zM877 109h1l-3 2 2-2zM271 249l-1 1a1 1 0 01-1 0 2 2 0 012-1zM442 153l3-2 1 1a5 5 0 01-1 0 7 7 0 01-3 1zM381 298l1 1v1a2 2 0 01-1 0l-1-2a2 2 0 011 0zM22 193a3 3 0 011 0 5 5 0 01-3 1 7 7 0 012-1zM871 111a3 3 0 010 1c1 0 0 0 0 0a2 2 0 01-1 0v-1a2 2 0 011 0zM868 112l-1 1h-1a8 8 0 011-1 4 4 0 011 0zM32 191a5 5 0 012-1 1 1 0 011 0h-1l-2 1zM738 159a2 2 0 000-1 3 3 0 01-1-1h2v1l-1 1zM200 146l-2-1a1 1 0 011-1v1l1 1zM378 228l1-1a1 1 0 011 0l-1 2a1 1 0 01-1 0 2 2 0 010-1zM230 268h1l-2 1 1-1zM372 235a9 9 0 010-1 1 1 0 011 0 5 5 0 011 0l-2 1zM134 215l-1 1a3 3 0 01-1-1 5 5 0 011 0 2 2 0 011 0zM549 248v-1h1a2 2 0 011 0v1h-2zM161 181h1a1 1 0 011 0 5 5 0 01-1 1 1 1 0 01-1 0 1 1 0 010-1zM393 216a2 2 0 011 0 2 2 0 01-2 0 2 2 0 011 0zM370 296a4 4 0 012 0 2 2 0 01-1 0 11 11 0 01-1 0h-1 1zM545 250l1 1a2 2 0 01-2 0l1-1zM771 303a3 3 0 012 0 5 5 0 01-2 0zM887 129c1 1 0 1-1 2l-1-2h2zM766 251h-1v-1a10 10 0 011 0l1 1h-1zM369 237l-1 2-1-2h2zM147 139h1a8 8 0 011 0v1a7 7 0 01-2 0zM135 212h1l-1 1a2 2 0 01-1 0l1-1zM846 119h1l1 1a3 3 0 01-2 0h-1l1-1zM799 135h1l1-1a5 5 0 011 0v1a6 6 0 01-3 0zM789 223a2 2 0 011-1l1 1h-2zM470 140l1-1a6 6 0 011 0l1 1a1 1 0 01-2 0h-1zM940 94a2 2 0 010 1 3 3 0 01-1 0 1 1 0 01-1 0l2-1zM904 101v1h-3 2l1-1zM388 220v-1h2a3 3 0 01-1 0l-1 1zM450 148h1a1 1 0 011 0 2 2 0 010 1 2 2 0 01-2 0 1 1 0 010-1zM942 88v1h-1l1-1zM885 131v1a3 3 0 01-1 0c-1-1-1-1 1-1zM128 223h1c1 0 0 0 0 0h-1zM397 179a4 4 0 01-1 1 1 1 0 01-1 0 1 1 0 011-1 17 17 0 011 0zM130 218v-1a1 1 0 010-1 2 2 0 011 1l-1 1zM762 300a2 2 0 012 0l-1 1-1-1zM150 269a7 7 0 011 1 2 2 0 01-1 0 1 1 0 01-1-1h1zM402 297l2-1a1 1 0 011 0l-1 1a2 2 0 01-1 0 5 5 0 01-1 0zM12 194a4 4 0 011 0h-1a3 3 0 01-1 0 2 2 0 011 0zM143 258v1a3 3 0 01-1 0v-1a3 3 0 011 0zM770 245l-1-1h3a4 4 0 01-2 1zM414 170l1 1a2 2 0 01-2 0v-1a3 3 0 011 0zM876 138v1a1 1 0 01-1 0v-1a3 3 0 011 0zM392 181l-2-1a2 2 0 011 0l1 1zM119 244a2 2 0 01-1 0v-1l1 1zM799 307v1a2 2 0 01-1 0v-1a1 1 0 011 0zM460 291a3 3 0 011 0s1 0 0 0a13 13 0 01-1 1v-1z"/><path class="cls-2" d="M485 280h1a2 2 0 011 0 1 1 0 010 1 4 4 0 01-2-1zM797 215c1 0 1 0 0 0h-1a1 1 0 011 0zM803 133h2a2 2 0 01-1 0 1 1 0 01-1 0zM928 98l2 1h-2a4 4 0 010-1zM171 129a3 3 0 011 0h-1zM8 192h1v1a1 1 0 01-1 0 2 2 0 010-1zM383 294a2 2 0 01-1 0 3 3 0 011 0zM793 226a1 1 0 01-1 0h1zM796 307v1a1 1 0 01-1 0v-1a1 1 0 011 0zM934 94a3 3 0 010 1 1 1 0 01-1 0l1-1zM395 214l-1 1v-1a3 3 0 011 0zM394 292a3 3 0 011 0 1 1 0 011 0h-1zM504 133s0-1 0 0h0c-1 0 0 0 0 0zM281 239l1 1h-1v-1zM769 248h1a1 1 0 01-1 0zM799 212v1c0 1 0 0 0 0a1 1 0 010-1zM150 268a2 2 0 01-1 0 1 1 0 011 0zM402 212a1 1 0 01-1 0h1zM496 138h1a4 4 0 01-1 0zM759 277a3 3 0 011 0c1 0 1 0 0 0h-1zM806 205v1h-1v-1a3 3 0 011 0zM490 135v-1a1 1 0 011 1h-1zM805 133v-1h2l-2 1zM810 308a3 3 0 011-1v1a12 12 0 01-1 0zM487 150l-1 1h-1l-1-1h3zM145 200h-1s-1 0 0 0a3 3 0 011 0zM414 299a4 4 0 011 0 4 4 0 01-1 0zM943 93h-1a2 2 0 011 0zM88 169a1 1 0 011 0 1 1 0 01-1 0zM232 102h0c0 1 0 1 0 0zM227 102a1 1 0 011 0 1 1 0 01-1 0zM872 141l1-1a1 1 0 011 0l-2 1zM226 270a3 3 0 011 0 1 1 0 011 0h-1a3 3 0 01-1 0zM952 86c1 0 0 0 0 0a1 1 0 01-1 0h1zM447 149l2 1c1 0 0 0 0 0a1 1 0 01-1 0 3 3 0 01-1-1zM853 117a3 3 0 011 0 3 3 0 01-1 0zM862 115h0zM442 153a4 4 0 01-1 1l1-1zM436 182h0c-1 0 0 0 0 0zM214 125h-1a2 2 0 011-1v1zM878 141a4 4 0 011-1v1a12 12 0 01-1 0zM425 192c1 0 1 0 0 0zM210 110h-1zM712 169h1a1 1 0 01-1 0zM717 167h1c1 0 1 0 0 0a11 11 0 01-1 0zM411 172a2 2 0 011 0h-1zM894 124a1 1 0 010-1 4 4 0 010 1zM199 147h-1a1 1 0 01-1 0 2 2 0 012 0zM144 141l1 1h-1v-1zM737 159h-1v-1a1 1 0 011 0 3 3 0 010 1zM485 147l-1-1h1v1zM903 119l-1 1a3 3 0 010-1c-1 0 0 0 0 0a4 4 0 011 0zM626 207v1a1 1 0 010-1zM348 260zM758 296a1 1 0 010 1v-1zM491 281zM147 140a2 2 0 01-1 1v-1h1zM491 137a1 1 0 010-1 1 1 0 011 0zM147 196h-1a1 1 0 011 0zM493 132h2a6 6 0 010 1 1 1 0 01-1 0l-1-1zM156 188a1 1 0 011 0h-1zM158 187s-1 0 0 0zM36 187l1-1v1a4 4 0 01-1 0zM798 222h-2c-1 0 0 0 0 0a1 1 0 011 0h1zM392 181h1a1 1 0 01-1 0zM934 93h1a1 1 0 010 1l-1-1zM510 269h1a1 1 0 01-1 1v-1zM31 191a3 3 0 01-1 1c-1 0 0 0 0 0l1-1zM164 174a1 1 0 010-1h1a5 5 0 01-1 1zM183 163a2 2 0 011 0 1 1 0 011 0h-1-1zM783 296a12 12 0 012 0 1 1 0 01-1 0h-1zM374 187h1l-1 1v-1zM790 293a1 1 0 010 1 1 1 0 01-1 0v-1a1 1 0 011 0zM554 245h0zM264 253a3 3 0 01-1 0l1-1v1zM789 308a4 4 0 01-1 0 2 2 0 011 0zM374 296h0zM786 302h-1 1zM374 231v0zM179 273zM792 291h-1 1zM784 227v-1zM167 169zM183 163l-1 1 1-1zM388 184h-1 1zM793 223zM388 179zM793 220zM370 235h-1a1 1 0 011 0zM779 301zM794 225zM162 273zM161 183zM161 266v0zM797 306zM159 185h1a1 1 0 01-1 0zM770 245h-1 1zM769 249zM193 119h-1zM356 275l1-1-1 1zM147 195h1-1zM803 208zM759 298zM756 295zM809 202h-1 1zM407 201v-1h1l-1 1zM144 198h1l-1 1v-1zM342 205v1a2 2 0 010-1zM814 308h1-1zM410 198h-1a1 1 0 011 0zM730 161zM203 113a1 1 0 01-1 0h1zM140 211l-1-1 1 1zM337 208h1l-1-1zM412 287h0zM720 166h1-1zM717 167l-1 1v-1h1zM417 289l-1-1 1 1zM415 197zM824 191v1-1zM824 191h1-1zM130 219h-1a2 2 0 011 0zM129 255zM418 198zM127 225zM421 193h-1 1zM429 187zM429 163h-1 1zM430 186zM434 184h-1 1zM434 184v-1a7 7 0 010 1zM219 120zM846 121h1-1zM437 184v1-1zM436 158zM860 114h1-1zM226 104h-1 1zM460 292h-1 1zM944 88h1a2 2 0 01-1 0zM878 136v0zM880 139h-1 1zM944 92v-1 1zM882 106zM883 137h-1 1zM886 134h-1 1zM644 199h1v1l-1-1zM885 106h-1v-1l1 1zM476 286v-1a2 2 0 010 1zM889 103v1a2 2 0 010-1zM477 152a1 1 0 010 1l-1-1a4 4 0 011 0zM481 287l-1 1v-1h1zM75 173v-1s1 0 0 0v1zM898 121a1 1 0 01-1 0h1zM899 103zM492 133zM936 96zM501 132h-1 1zM506 132h-1l1-1a2 2 0 000 1zM278 246h-1 1zM257 257v-1 1zM31 191h0zM259 255v1-1zM23 191zM932 92v-1zM529 258v0zM530 257zM534 256a1 1 0 01-1 0zM534 256zM529 258h-1 1zM549 248zM524 260v0zM563 239h0zM573 233zM509 131v1a3 3 0 000-1zM506 132zM504 129a2 2 0 010 1v-1zM595 219zM488 144zM488 144h-1a1 1 0 010-1l1 1zM487 144h-1zM486 144h-1 1zM485 147c-1 0-1 0 0 0zM477 152zM476 286zM644 199zM472 289c1 0 1 0 0 0zM645 199zM467 141h0zM653 189zM467 290a1 1 0 011 0h-1zM459 295c-1 0-1 0 0 0zM457 295v-1 1zM457 295c-1 0 0 0 0 0zM454 171zM452 173zM680 179zM438 184h-1zM436 158v1-1zM432 160zM432 160c-1 0 0 0 0 0zM426 162zM426 193v0zM703 172zM422 164a1 1 0 011 0h-1zM421 166a2 2 0 011 0h-1zM712 166c0 1 0 0 0 0zM738 159a1 1 0 01-1 0h1zM757 260zM406 202c0-1 0-1 0 0zM398 178l-1 1v-1zM769 248a1 1 0 010-1v1zM397 178zM776 141h0zM778 233v0zM388 184v-1 1zM388 220c-1 0-1 0 0 0zM385 224zM375 234zM792 295a2 2 0 010-1v1zM792 295zM370 189h0zM370 189v0zM798 219h-1 1zM799 135h-1 1zM360 272zM359 275zM800 218zM356 288c1 0 0 0 0 0zM801 209zM356 275zM801 209h0zM356 288zM806 209zM815 203c-1 0 0 0 0 0zM823 185h-1 1zM823 185zM330 212h1a1 1 0 01-1 0zM323 216h0zM323 216zM849 167zM879 106zM893 128l-1-1 1 1zM901 102v0zM290 235zM906 101zM282 243c1 0 1 0 0 0zM920 105a2 2 0 01-1 0h1zM278 246q1 0 0 0zM928 98zM930 90zM264 253zM236 103zM943 88h-1zM218 119v-1zM203 113v-1 1zM194 119v-1 1zM193 117zM193 119h1zM193 117zM166 175q-1 0 0 0zM164 174zM164 176h-1 1zM162 132s1 0 0 0zM163 176zM145 202v1-1zM139 250zM136 143h0zM137 262v0zM130 257zM130 257l-1-1 1 1zM74 173h1-1zM74 173c-1 0 0 0 0 0zM62 177a2 2 0 011 0h-1zM1196 204h4a16 16 0 01-3 1 2 2 0 01-1 0v-1zM866 306l-2 1a2 2 0 01-1 0v-1h3zM1111 229h2l-1 2a1 1 0 01-1 0v-2zM905 293l-2 1s-1 0 0 0a3 3 0 012-1zM873 303a9 9 0 011 0h1a1 1 0 01-1 1 4 4 0 01-2 0l1-1zM1141 221a5 5 0 012-1 2 2 0 011 1 2 2 0 01-2 0 10 10 0 01-1 0zM1036 249h2v1zM1124 225a1 1 0 012 0 5 5 0 01-1 0h-1zM1134 223l2-1a7 7 0 01-2 1zM1204 202l-1 1h-1-1l1-1a5 5 0 012 0zM1004 259a3 3 0 01-1 1h-1a6 6 0 012-1zM927 286l-1 1a1 1 0 011-1zM1138 221a1 1 0 011 0s1 0 0 0a1 1 0 01-1 0zM940 282v-1h2l-2 1zM1128 224h-1 1zM1103 232h1a1 1 0 01-1 0zM1203 203h1a1 1 0 01-1 0zM933 285h1a3 3 0 011 0h-1a4 4 0 01-1 0zM975 267l1 1h-1a2 2 0 010-1zM1019 254v0zM1021 253l1 1a2 2 0 01-1 0 2 2 0 010-1zM1024 253h1-1zM860 308zM890 300zM905 293a1 1 0 011 0h-1zM1157 215h0zM1160 215zM1160 213h0zM1196 204h-1 1zM1204 202a2 2 0 012 0zM1206 202h0c-1 0 0 0 0 0zM1206 202h1a5 5 0 01-1 0zM882 302c0 1 0 1 0 0zM899 294h1a1 1 0 01-1 0zM900 294v-1 1zM929 286zM957 277v-1 1zM967 272zM967 272h0zM994 261h1zM995 261a1 1 0 011 0h-1zM1134 223h-1 1zM1136 222h0zM1158 215zM1159 213h1a1 1 0 010 1 1 1 0 01-1-1zM1173 209v0zM1220 200zM65 130h2a1 1 0 011 0 2 2 0 01-2 0 6 6 0 01-1 0zM16 153a3 3 0 01-1 0c0 1 0 0 0 0a2 2 0 011 0zM13 155h-2 2zM69 128l1 1a2 2 0 01-1 0s-1 0 0 0a5 5 0 010-1zM57 135h1a1 1 0 011 0 3 3 0 01-2 0zM22 147h2l-1 1-1-1zM41 144h-1a1 1 0 011 0zM53 134h1a1 1 0 01-1 0zM40 141l-1 1zM39 142zM28 147zM15 155h-1a1 1 0 011 0zM1209 158a5 5 0 011 0v1a2 2 0 01-1 0l-1-1a9 9 0 011 0zM1199 160v1a1 1 0 01-1 0v-1a1 1 0 011 0zM1192 162v-1a1 1 0 011 1 1 1 0 01-1 0zM1189 163v-1 1zM1196 161zM1186 164zM1192 163zM907 86l3-1 1 1a11 11 0 01-4 0zM930 79h3v1a3 3 0 01-2 0 1 1 0 01-1-1zM907 86v1a13 13 0 01-4 0 27 27 0 014-1zM945 76a1 1 0 01-1 0 3 3 0 01-2 0c-1 0-1 0 0 0h2zM946 77l-1 1a4 4 0 01-1 0 4 4 0 012-1zM914 85h-1 1zM940 79h-1 1zM946 77h1a4 4 0 01-1 0zM954 77h-1a1 1 0 011 0zM953 76h-1 1zM897 89a2 2 0 01-1 0h1zM911 84v-1h2a4 4 0 01-2 1zM933 78h-1 1zM845 106h-1 1zM902 91zM906 90q-1 0 0 0zM906 90zM910 84zM938 82v-1zM938 81zM941 80v1-1zM941 80zM945 80zM947 79zM948 79h-1l1-1zM950 76zM950 76c1 0 1 0 0 0zM174 198a9 9 0 01-1 0v-2 1a7 7 0 011 1zM216 144a2 2 0 011 0v1h-1-1l1-1zM178 184h-1 1zM171 202h-1v-1h1a1 1 0 010 1zM195 170h-1a1 1 0 010-1 1 1 0 011 1zM170 203h-1 1zM179 180l1-1-1 1zM214 143v1a2 2 0 010-1zM218 140zM213 143h1zM174 190v-1 1zM172 198zM834 196l1-1a1 1 0 011 0 8 8 0 01-1 1 1 1 0 01-1 0zM846 189h-2l1-1 1 1zM847 188h-2a2 2 0 011-1 6 6 0 011 1zM839 195c-1 0 0 0 0 0zM844 189l-1 1 1-1zM965 243l-1 1a5 5 0 01-1 0 2 2 0 010-1c-1 0 0 0 0 0h2zM960 243zM957 248v1h-2a4 4 0 012-1zM947 248zM915 262zM948 252zM955 244zM962 247h-1zM328 114h1a3 3 0 010 1 1 1 0 01-1 0v-1zM334 115v1-1zM331 113h-1 1zM306 144h-1l1-1v1zM309 141h-1a1 1 0 011 0zM305 144zM251 84l-1 1h-2l3-2v1zM187 111h-1a1 1 0 011-1 20 20 0 014-2v1h-1l-1 1h-1zM246 85a2 2 0 01-1 1 1 1 0 01-1 0l1-1a2 2 0 011 0zM230 96h-1l1-1h1zM237 89zM243 89h-1a1 1 0 011 0zM254 82zM243 89v0zM233 95h-1a1 1 0 011-1 1 1 0 010 1zM232 95h-1 1zM226 98h-1a1 1 0 011 0zM217 95h1a1 1 0 01-1 0zM215 96zM200 106v-1 1zM200 106h-1 1zM197 106zM197 106c-1 0-1 0 0 0zM195 108h-1a1 1 0 011-1 1 1 0 010 1zM186 111h-1zM185 111h-1 1zM184 111v0zM959 35a7 7 0 001 0 8 8 0 013 0 3 3 0 012-1 4 4 0 002-1 22 22 0 004-1l8-1 19-4 1-1 1 1-5 1h-1l-1 1-6 2h-5a3 3 0 01-2 1v-1l-1 1-4 1a29 29 0 01-4 1l-4 1-2-1-1 1a7 7 0 01-2 1 6 6 0 01-3 0v-1zM961 37a3 3 0 012 0 1 1 0 010 1 5 5 0 01-3-1h1zM1010 24a2 2 0 01-1 0c-1 0 0 0 0 0h1zM1003 25zM960 38z"/><path class="cls-2" d="M980 32a1 1 0 01-1 0h1zM1018 116v1a2 2 0 01-1 0l-4 3a3 3 0 01-1 0 4 4 0 012-2l3-2a4 4 0 011 0zM983 142l1-1a2 2 0 011 0 5 5 0 01-2 1zM1015 112a10 10 0 012 0v1a3 3 0 01-1 0l-1-1zM981 143h1v1a1 1 0 01-1 0v-1zM1019 111h-1a3 3 0 011 0zM1010 122a1 1 0 01-1 0zM1013 114h1a2 2 0 01-1 0zM983 142c-1 0-1 0 0 0zM1040 235h2c1 0 0 0 0 0a1 1 0 01-1 0 3 3 0 01-1 0zM1088 225a3 3 0 011-1 1 1 0 011 0v1h-2zM1088 225a1 1 0 01-1 0h1zM1099 222zM514 150a4 4 0 01-1 1 1 1 0 01-1 0v-1h1zM519 147h1zM657 23a6 6 0 013-1l4-1a2 2 0 011 0 3 3 0 01-1 1l-4 1h-2zM678 20a4 4 0 00-2-1l2-1 1 1q-1 0 0 0l-1 1zM633 31h1l-1 1v-1zM675 20l-1 1 1-1zM657 23h-1 1zM665 26zM665 26v-1 1zM639 149l4-1 2-1 1 1-3 1a31 31 0 01-3 0 2 2 0 01-1 0zM678 135h1v1h-2a2 2 0 01-1 0l2-1zM641 146h0zM671 136h-1 1zM622 153a8 8 0 011 0h-1zM678 135h-1a2 2 0 011 0zM672 134h1a6 6 0 01-1 0zM669 138h1-1zM648 147v-1 1zM640 146h1a1 1 0 01-1 0zM652 142h1a1 1 0 01-1 0zM653 142v-1h1zM536 99l1-1v1a1 1 0 01-1 0zM527 106h-1a8 8 0 01-1 0h2zM550 98zM534 102a1 1 0 011 0h-1zM534 102v1-1zM528 102c-1 0 0 0 0 0zM555 94a1 1 0 01-1 0h1zM95 139v-1h1l-1 1zM94 140v-1h1l-1 1zM118 124zM422 135h-1l1-1a6 6 0 010 1zM447 120a1 1 0 011 0h-1zM561 226h-1l1-1 1 1h-1zM571 219a14 14 0 003 0 2 2 0 01-2 1 3 3 0 01-1-1zM578 220a9 9 0 01-1-1c-1 0 0 0 0 0a6 6 0 011 1zM559 227a1 1 0 01-1 0 1 1 0 011 0zM554 229l-1 1 1-1zM529 240h-1 1zM541 233h1a1 1 0 01-1 0zM542 233c1 0 1 0 0 0zM554 229zM557 226zM567 222v0zM568 222h-1zM568 222c1 0 1 0 0 0zM570 223v0zM574 219l1-1zM580 216l1-1zM676 103l1 1-1-1zM319 111a12 12 0 01-4 3 3 3 0 01-1 0l2-3a3 3 0 013 0zM306 126l1-1zM305 124zM323 101a1 1 0 011 0h-1zM343 146h1l-1 1-1-1a3 3 0 011 0zM367 137s1 0 0 0a1 1 0 01-1 0 2 2 0 011 0zM365 138zM342 147h1-1zM267 230a11 11 0 01-2 0 1 1 0 01-1 0 1 1 0 011 0 3 3 0 011 0 10 10 0 011 0zM262 231a1 1 0 011 0h-1zM259 233l1-1-1 1zM262 231zM259 233zM259 233q-1 0 0 0zM104 118h-1 1zM309 211v0zM648 101zM795 258h1c1 0 0 0 0 0h-1zM796 256v1c0 1 0 0 0 0v-1zM795 255zM799 255h1a1 1 0 01-1 0zM479 158h1v1a2 2 0 01-1-1zM488 155h1zM486 153zM482 157zM476 163zM163 212l-1-1a3 3 0 012-1v1l-1 1zM166 207v1l-1-1h1zM166 207zM165 209zM504 253h-1l-2 1 2-2a26 26 0 003-2 5 5 0 013-1v1l-1 1h-1l-1 1h-1a1 1 0 00-1 1zM501 251s1 0 0 0zM501 254h-1 1zM500 254zM197 264a1 1 0 01-1 0h1zM720 120h2a4 4 0 01-2 0zM828 205v-1 1zM831 203zM617 113h-1l1-1v1zM612 113h-1zM616 113zM620 109v0zM85 121v1l-1-1h1zM83 123zM83 123h-1zM82 124h-1l1-1zM554 145h-1a1 1 0 011 0zM690 129h-1l-2-1h1l2 1zM286 35h3-2zM1104 33zM965 124h-2a2 2 0 012 0zM966 124h-1zM967 120h1a1 1 0 01-1 0zM432 223zM277 229h0zM679 19zM170 119h1zM1026 244zM963 124zM679 102h-1 1zM954 41h-1 1zM954 41zM192 109h1zM125 100h1v1zM701 132l-1-1zM689 129h-1zM686 133h1-1zM681 100h1-1z"/></g></g></svg>