<svg xmlns="http://www.w3.org/2000/svg" viewBox="0 0 16 19.59"><defs><style>.cls-1{fill:#008589;}.cls-2{fill:#f1f2f2;stroke:#fff;stroke-miterlimit:10;}</style></defs><g id="Layer_2" data-name="Layer 2"><g id="Layer_1-2" data-name="Layer 1"><path class="cls-1" d="M5.61,4.9c1.19-.09,2.18-1,4.94-.15.81-.4,4.21-8.61,4.59-2.49C15.09,7,18.88,14.3,11,18.52a8.79,8.79,0,0,1-6.45.77C-.8,17.82-1,12.16,1.65,3.9,2.33.56,2.71.13,5.61,4.9Z"/><path class="cls-2" d="M7.32,14s-4.62-1-3.69-1.32c1.6-.51,3.55,1.74,5.4.82,1.64-.82,6.62-2.12.4.34.51-.2,5.32,1.64,3.54,1.29a17.3,17.3,0,0,0-4.52-.8c-1.87.12-6.34,3-5.94,2.21C3.11,15.28,7.32,14,7.32,14Z"/></g></g></svg>