<svg xmlns="http://www.w3.org/2000/svg" viewBox="0 0 1000 202.41"><defs><style>.cls-1{fill:#8872a4;}</style></defs><g id="Image_15_Image" data-name="Image 15 Image"><path class="cls-1" d="M431,84.77c-.88,3.09-1.77,6.17-2.63,9.27-2.64,9.51-5.17,19.07-9.76,27.89a9.17,9.17,0,0,1-1.6,2.21c-1.48,1.51-3.08,1.26-3.72-.78a28.38,28.38,0,0,1-1.23-6.6c-.61-9.56-1.1-19.13-1.59-28.7-.12-2.32,0-4.65-.13-7q-.5-10.44-1.08-20.88c-.21-3.65-.73-7.29.22-10.92.19-.73.07-1.67,1.2-1.64s1.43.71,1.5,1.69c.26,3.72.58,7.44.83,11.17s.52,7.45.67,11.18.15,7.75.28,11.62c.28,8.66.51,17.33.95,26a35.09,35.09,0,0,0,1.72,8.22,21.48,21.48,0,0,0,1.19-2,142.89,142.89,0,0,0,8.64-24.94c1-4,2.18-8,3.31-12a6.29,6.29,0,0,1,.89-1.91,1.71,1.71,0,0,1,3,0,8,8,0,0,1,1.06,2.73c1.07,5,2,10.1,3.09,15.13a133.15,133.15,0,0,0,6.36,20.34q1.11,2.83,2.2,5.68h.45c.24-1.32.53-2.63.69-4,1.32-10.71,2.6-21.41,3.91-32.12q1.33-10.9,2.73-21.79,1.54-12.06,3.17-24.1c.3-2.24.78-4.44,1.19-6.66.15-.82.43-1.55,1.47-1.41s1.22.93,1.09,1.88c-1.15,8.24-2.32,16.48-3.4,24.73-.83,6.35-1.52,12.72-2.3,19.08q-1.25,10.19-2.53,20.35c-1,7.7-1.85,15.4-2.93,23.08a42.54,42.54,0,0,1-1.88,7.15c-.22.67-1.05,1.56-1.65,1.59a2.91,2.91,0,0,1-2.19-1.14,18.06,18.06,0,0,1-2-4,186.25,186.25,0,0,1-8.84-28.85c-.65-3.17-1.25-6.35-1.87-9.53Z"/><path class="cls-1" d="M527.07,128.78a1.75,1.75,0,0,1-1.11-1.15,10.12,10.12,0,0,1-.38-3.8c1.43-8.09,1-16.21.8-24.37q-.4-16-.09-31.95c.17-8.14.89-16.27,1.37-24.4,0-.3.21-.73.09-.88-1.56-1.86-.15-3.83-.21-5.73,0-1.52.7-2,2.09-2.16a16.17,16.17,0,0,1,10.49,2.8,48.47,48.47,0,0,1,15.66,16.19c4.66,8.06,6.48,16.81,7,26a83.16,83.16,0,0,1-3.52,30.18,25.36,25.36,0,0,1-12.78,15.54c-.69.36-1.36.79-2,1.22C540,129.17,527.45,128.85,527.07,128.78Zm4-87.58c-.15,1.11-.33,2.14-.41,3.17-.41,5.72-.86,11.44-1.17,17.18-.24,4.6-.47,9.21-.42,13.81.09,7.1.53,14.2.64,21.3s0,13.91,0,20.87c0,.74.08,4.81.5,5,3.11,1.21,6.54-.1,9.82-1.19,7.7-2.57,13.9-7.24,17.15-15.59a41.29,41.29,0,0,0,2.23-11.47,65,65,0,0,0-2.71-25.72,57.68,57.68,0,0,0-5.64-12.37c-2.71-4.46-6.75-7.69-10.84-10.69C537.56,43.48,534.77,41.54,531.12,41.2Z"/><path class="cls-1" d="M505,110.77c-.49,1.52-1.07,3-1.47,4.58a27.86,27.86,0,0,1-5.7,10.72,7,7,0,0,1-1.95,1.59c-2.29,1.29-4.19.79-5.67-1.38A14.73,14.73,0,0,1,488,118c-.13-7.25,0-14.5-.07-21.76,0-3-.23-6.06-.14-9.08a44.5,44.5,0,0,1,.78-6.71A2.21,2.21,0,0,1,490,79.09c1-.16,1.21.76,1.22,1.58,0,1,0,2,0,3-.14,7.05-.44,14.1-.36,21.15A94.83,94.83,0,0,0,492,117.59c.22,1.45,1.25,3.57,2.36,3.91,1.78.56,3-1.44,4-2.85,3.48-5,5-10.7,5.65-16.64.64-5.59,1.06-11.21,1.65-16.82.19-1.82.62-3.61.91-5.41.13-.81.29-1.76,1.31-1.44A2.24,2.24,0,0,1,509.07,80c.16,2.45.17,4.91.13,7.37-.12,6.34-.21,12.69-.49,19-.29,6.68-.75,13.36-1.19,20-.53,8.22-1,16.45-1.72,24.65-.42,4.91-1.1,9.84-3.4,14.31a23.81,23.81,0,0,1-3,4.3c-2.88,3.44-9.83,2.85-12.49-.5a33.77,33.77,0,0,1-6.33-13.7c-.48-2.15.51-4.68,1-7,.11-.46,1.17-.71,1.79-1.06a9.86,9.86,0,0,1,.61,1.78,14.78,14.78,0,0,0,.32,3.09,92.45,92.45,0,0,0,4.18,9.69c2.27,4.31,6.34,4.79,10.07,1.76,3.13-2.55,3.79-6,4.1-9.61.57-6.66.89-13.34,1.32-20s.89-13.49,1.31-20.24c.06-1,0-2,0-3Z"/><path class="cls-1" d="M473.89,107.62c-1.36,4.38-2.52,8.52-4,12.57a30.14,30.14,0,0,1-2.8,5.17,5,5,0,0,1-1.28,1.31c-2.36,1.84-5.1,1.35-6.25-1.4a28.68,28.68,0,0,1-1.92-7.08,52.23,52.23,0,0,1,1.76-21c1.11-4,2.78-7.88,6.7-10,5.17-2.79,9.2-1.08,12.05,3.52,1,1.65.22,3.53-.54,4.72a6.49,6.49,0,0,0-.84,4.14c.18,4.47.35,9,.94,13.4a22,22,0,0,0,4.42,10.24c.5.67.91,1.14,1.95.84,1.24-.36,1.66.2,1.42,1.52a24,24,0,0,1-.61,2.5c-.63,2-2.45,2.75-4,1.33a19.1,19.1,0,0,1-3.25-4.38C474.55,119.72,474,113.78,473.89,107.62Zm-3.05-16.1c-3.16.19-5.44,1.12-6.88,3.28a18.53,18.53,0,0,0-2.74,5.57,35.91,35.91,0,0,0-.27,15.34,25.59,25.59,0,0,0,1.45,4.93c.69,1.71,1.91,1.91,3.07.46a23.3,23.3,0,0,0,2.79-4.52,29.79,29.79,0,0,0,1.87-5.38c1.35-5.48,2.55-11,3.88-16.48a1.75,1.75,0,0,0-.85-2.18A19.36,19.36,0,0,0,470.84,91.52Z"/><path class="cls-1" d="M580.82,92.08c.81-2.16,1.5-4.37,2.45-6.46a28.9,28.9,0,0,1,7.62-10.28c4.43-3.74,9.38-2.79,12.1,2.35a29.5,29.5,0,0,1,3.09,11.79c.64,8.92.93,17.86,1.4,26.8.15,2.87.63,5.75.63,8.62a26.33,26.33,0,0,1-1,5.78,1.53,1.53,0,0,1-1.27.79c-.39,0-.86-.61-1.07-1.05a4,4,0,0,1-.3-1.66c-.2-6.82-.37-13.65-.58-20.48-.06-1.9-.29-3.79-.38-5.69-.29-5.91-.76-11.81-2.73-17.45a16,16,0,0,0-2.64-4.47c-1.16-1.47-2.82-1.42-4.43-.68A6.82,6.82,0,0,0,592,81.13c-7.54,6.77-11.19,15-9.46,25.27.66,3.94.58,8,1.23,11.94.45,2.72-.34,5.15-.86,7.66-.13.62-.59,1.64-1.3,1.68s-1.38-1-1.57-1.65a38.69,38.69,0,0,1-1.46-12.75c.28-6.32-.86-12.48-1.59-18.7s-1.23-12.74,0-19.1c.08-.42.09-.94.34-1.2s1-.92,1.41-.81a1.65,1.65,0,0,1,.9,1.36c-.66,3.73-.07,7.43.22,11.13.16,2,.37,4.05.56,6.08Z"/><path class="cls-1" d="M338.47,92.23c-.14,1.2-.37,2.31-.4,3.42-.08,3-.09,5.91-.1,8.86,0,5.07.15,10.14-.12,15.19a92,92,0,0,1-1.49,10.42c-.16.94-.44,2.1-1.89,1.67-1-.3-1.37-1.54-1.12-2.83a42.25,42.25,0,0,0,1.06-6.84c.22-9.3.27-18.6.37-27.9,0-1.25-.27-18.6-.42-22.54-.18-4.79-.42-9.57-.63-14.35-.18-4.23-.45-8.45-.48-12.67a18.78,18.78,0,0,1,.86-5c.13-.47,1.28-1.15,1.42-1a3.42,3.42,0,0,1,1.38,1.82A44.32,44.32,0,0,1,337,45.1c.27,7.25.61,14.5.8,21.75.1,3.72-.06,7.45-.07,11.18,0,1.4.16,2.81.17,4.21,0,3,1,3.83,4.09,3.54,3.49-.34,7-.48,10.49-.82,4.54-.45,9.06-1,13.6-1.52,1.25-.13,2.52-.13,3.79-.14,1,0,1.4.52,1.15,1.51L371,85c-.91,4.5-.91,4.44-5.61,4.82-2.38.19-4.74.69-7.12.9-3.56.33-7.14.52-10.72.79Z"/><path class="cls-1" d="M610,108.76c.48-8.29,1.88-17.46,5.79-26.06a24.41,24.41,0,0,1,3.52-5c1.66-2,4.07-2.27,6.4-1.87a5.35,5.35,0,0,1,3,2,8,8,0,0,1,1.51,6c-.9,6.33-2.76,12.22-7.55,16.84a19.65,19.65,0,0,1-7.61,4.81c-1.17.39-1.83,1-1.69,2.27.41,3.74,1,7.41,3.5,10.46,2.2,2.64,4.44,3,7.13.88a25,25,0,0,0,7.16-8.23c.4-.82.92-1.67,1.87-1.09a2.4,2.4,0,0,1,.6,2A16.37,16.37,0,0,1,628.15,122c-.83.76-1.58,1.61-2.4,2.38-4.32,4-9.71,3.14-12.94-2.17C610.49,118.39,610,114.17,610,108.76Zm4-9.45c6-1.23,11.33-7.33,12.57-12.23a5.44,5.44,0,0,0-.58-3.21c-.91-2.09-2.65-2.64-4.45-1.3a10.76,10.76,0,0,0-3.4,3.62,92.72,92.72,0,0,0-3.66,9.61A18.24,18.24,0,0,0,614,99.31Z"/><path class="cls-1" d="M643.22,92.39c1.9-3.45,3.63-7.14,5.86-10.51a29.36,29.36,0,0,1,13-10.74c.82-.36,1.49-1,2.29-1.43.57-.28,1.38-.65,1.82-.44s.59,1.15.53,1.73a13,13,0,0,1-.76,3.49,3.88,3.88,0,0,1-1.56,1.77c-2.32,1.33-4.87,2.3-7,3.82a29.64,29.64,0,0,0-11.73,16.08,37,37,0,0,0-1.24,8.33c-.22,3.72,0,7.46-.16,11.18a46.79,46.79,0,0,1-1.08,7c-.1.49-.87.83-1.33,1.25-.35-.55-1-1.07-1-1.64-.19-2.52-.22-5.06-.31-7.6-.29-8.52-.72-17-.8-25.55a109.77,109.77,0,0,1,1-11.54,3.16,3.16,0,0,1,.44-1.38,1.28,1.28,0,0,1,1-.53,1.19,1.19,0,0,1,.79.81,23.39,23.39,0,0,1,.25,3.35C643.23,84.13,643.22,88.39,643.22,92.39Z"/><path class="cls-1" d="M371.34,42.34c.35,10.22.74,20.43,1,30.65q.3,10.67.34,21.34c0,8.09.07,16.2-.19,24.29-.1,3.13-1,6.24-1.58,9.35a1.9,1.9,0,0,1-.67,1.26,2.71,2.71,0,0,1-1.75.25c-.28-.06-.54-.74-.61-1.17a3.65,3.65,0,0,1,.16-1.46c1.59-5.86,1.43-11.86,1.39-17.85-.09-10.65-.21-21.3-.43-31.94-.17-8.11-.51-16.21-.8-24.31-.11-2.89-.45-5.77-.42-8.65a68.76,68.76,0,0,1,.71-7.14c.12-1,.49-1.89,1.7-1.71s1,1.17,1.05,2c0,1.69,0,3.39,0,5.08Z"/><path class="cls-1" d="M378.8,119c0-10,0-19.63,0-29.21,0-1.27-.25-2.54-.21-3.8.06-2.44.18-4.89.44-7.32a1.94,1.94,0,0,1,1.33-1.28c1-.14,1.5.63,1.58,1.59.15,2,.38,3.94.37,5.91-.07,12.48-.15,25-.36,37.45a22.23,22.23,0,0,1-1.24,5.55,1.69,1.69,0,0,1-1.22.89c-.3,0-.89-.46-1-.83a6,6,0,0,1-.33-2.25C378.31,123.3,378.6,120.93,378.8,119Z"/><path class="cls-1" d="M394.72,93.89c-1.13,0-1.27-.19-1-1.24.16-.75.15-1.72.63-2.15s1.37,0,2.09,0c1.94-.06,3.89-.12,5.82-.26a8.16,8.16,0,0,0,1.74-.55c.27-.09.66-.27.8-.16a1.15,1.15,0,0,1,.43.86,10.58,10.58,0,0,1-.56,2.38,1.4,1.4,0,0,1-1,.68C401.68,93.67,395.69,93.91,394.72,93.89Z"/><path class="cls-1" d="M376.56,66.58c.61-2.47,1.05-4.6,1.7-6.67.14-.48,1-.74,1.52-1.11.24.57.75,1.17.69,1.7a56.45,56.45,0,0,1-1.09,6.19,7.18,7.18,0,0,1-1.22,1.93Z"/><path class="cls-1" d="M572.34,105.68c.23,5.06.23,10.14.12,15.21a18.27,18.27,0,0,1-1.16,4.91c-.15.48-.83,1.14-1.21,1.11s-1-.69-1.2-1.2a6.1,6.1,0,0,1-.31-2.26c0-5.06.24-10.12.19-15.17,0-3.37-.42-6.74-.6-10.11s-.44-6.61-.38-9.92c.05-3.07.47-6.14.76-9.2.09-.86.5-1.49,1.49-1.41s1.17.84,1.16,1.67V84.6C571.14,84.6,572,98.65,572.34,105.68Z"/><path class="cls-1" d="M570,61.31c-.69,2.12-1.25,4.07-2,5.94-.18.45-1.06.61-1.62.91-.15-.55-.52-1.15-.41-1.65a52.72,52.72,0,0,1,1.62-5.78c.12-.36,1-.65,1.52-.59C569.41,60.18,569.66,60.89,570,61.31Z"/></g></svg>