<svg xmlns="http://www.w3.org/2000/svg" viewBox="0 0 200 110.12"><defs><style>.cls-1{fill:#8872a4;}</style></defs><g id="Layer_2" data-name="Layer 2"><g id="Layer_1-2" data-name="Layer 1"><path class="cls-1" d="M32.86,55.37c-1.53.39-2.94.71-4.32,1.12-2.27.67-4.51,1.43-6.78,2.08-1.81.52-3.64.94-5.47,1.36-.38.09-.47.24-.46.58.12,2.66.26,5.31.35,8,.06,2,0,3.92.09,5.87.05,1.6.18,3.2.21,4.8.05,3.46.12,6.92.08,10.39,0,2.64-.14,5.29-.31,7.93a19.18,19.18,0,0,1-.64,3.26c-.29,1.11-.87,1.39-2,1S11.21,101,10,100.6c-.87-.25-1.76-.4-2.64-.58-.35-.07-.65-.08-.84-.53-.12-.29-.6-.43-.94-.65l0,.6c-.76-.06-1.47-.1-2.18-.19a.51.51,0,0,1-.33-.34,9,9,0,0,1-.31-1.77c0-2.5,0-5,0-7.48,0-2.81-.15-5.61-.18-8.41,0-1.06.13-2.13.12-3.19,0-1.34-.17-2.69-.19-4,0-1.74.07-3.48.06-5.21s0-3.28-.08-4.92c0-1.38,0-2.75-.07-4.12,0-.39-.1-.68-.58-.6a.38.38,0,0,1-.15,0c-.61-.14-1.4,0-1.62-.81a2.22,2.22,0,0,1,1.07-2.21c1.13-.58,1.19-.81,1.11-2.15q-.36-5.79-.62-11.58-.15-3.48-.12-7c0-3.21.12-6.42.22-9.63.06-2.13.08-4.26.31-6.37a11.52,11.52,0,0,1,1.33-5,1.31,1.31,0,0,1,1.82-.63c1,.33,2.06.71,3.11.94A12.52,12.52,0,0,0,10.8,15c1.17,0,1.51.14,1.76,1.27.39,1.7.71,3.41.93,5.14.26,2.06.39,4.14.57,6.21l.6,6.9c.29,3.23.63,6.46.84,9.69.15,2.24.12,4.49.17,6.74,0,.23,0,.46.06.84,1.8-.46,3.51-.87,5.2-1.32,2.85-.77,5.69-1.58,8.54-2.35,1-.28,2.07-.51,3.09-.81a.81.81,0,0,0,.46-.56c.1-2.18.14-4.36.23-6.54.13-3.24.29-6.48.42-9.72,0-1.33,0-2.66.08-4,.09-2.61.19-5.21.32-7.82.08-1.64.23-3.27.35-4.91a2.66,2.66,0,0,1,.16-.55c.41-1.24.51-1.19,1.78-.88a48,48,0,0,0,5.2.93,2,2,0,0,1,1.9,1.2,18.7,18.7,0,0,1,1.13,3.36c.48,2.49.85,5,1.18,7.51.41,3.23.84,6.47,1.08,9.73.29,4,.39,7.93.57,11.9,0,.14,0,.28,0,.27.85.19,1.62.34,2.38.55.18,0,.45.28.44.41a10.58,10.58,0,0,1-.38,2.18c-.09.28-.53.45-.81.66A.07.07,0,0,1,49,51c-1.48.2-1.67,1.14-1.65,2.44.05,3.05,0,6.09-.11,9.13-.17,4.79-.44,9.57-.62,14.36-.12,3.26-.15,6.52-.27,9.78-.06,1.78-.24,3.56-.34,5.34,0,.56,0,1.12,0,1.67-.17,2.09-.34,4.18-.55,6.27-.19,1.75-.35,3.51-.69,5.24a22.13,22.13,0,0,1-1.2,3.78,1.62,1.62,0,0,1-2.23.9,18.85,18.85,0,0,0-5-1.36c-1.65-.37-3.32-.63-5-.93-.83-.15-1.17-.66-1.06-1.6.2-1.61.44-3.21.58-4.82s.18-3.52.29-5.27.29-3.76.41-5.64c.11-1.64.17-3.27.27-4.9.16-2.39.39-4.78.49-7.17q.33-7.65.54-15.31C32.91,60.47,32.86,58,32.86,55.37Z"/><path class="cls-1" d="M53.42,85.46l-4.15-.77c-.48-.09-.84-.35-.79-.88s-.07-1.28.77-1.53c1.21-.36,2.38-.83,3.58-1.19.64-.19.75-.63.81-1.19.19-1.68.32-3.38.63-5A57.9,57.9,0,0,1,59,59.68a33.54,33.54,0,0,1,4.7-7.18,14.54,14.54,0,0,1,5-3.81,5.79,5.79,0,0,1,4.16-.13,26.82,26.82,0,0,0,5.39,1,4.85,4.85,0,0,1,4.41,2.88,12.56,12.56,0,0,1,.81,7,28.32,28.32,0,0,1-2.24,8.23,29.24,29.24,0,0,1-4.86,7.53,35.31,35.31,0,0,1-7,6.13C68,82.21,66.54,83,65.1,83.81c-.19.11-.45.37-.43.53.21,2.41.39,4.82.75,7.21a18.85,18.85,0,0,0,1.14,4.11,12.16,12.16,0,0,0,1.68,2.52.69.69,0,0,0,.63.08c1.51-.8,3-1.6,4.51-2.45a25.09,25.09,0,0,0,5.3-4.72,85.59,85.59,0,0,0,6.8-8.29,3.66,3.66,0,0,0,.42-.68,1,1,0,0,1,1.21-.53c.4.1.79.24,1.18.37a21.74,21.74,0,0,0,5.48.91,1.07,1.07,0,0,1,1.06,1.38,12.54,12.54,0,0,1-3.77,6.88c-1.38,1.45-2.63,3-4,4.48-1.81,1.88-3.61,3.79-5.59,5.49a13.32,13.32,0,0,1-6.59,2.84,12.94,12.94,0,0,1-5.85-.66c-2-.58-4-1-6-1.34a9.35,9.35,0,0,1-6.66-5.17,21.25,21.25,0,0,1-2.25-6.4C53.79,88.79,53.65,87.17,53.42,85.46ZM66,71.55l.21.16C67.51,70,68.91,68.39,70,66.6a23.67,23.67,0,0,0,3.44-8.09c.17-.89.18-1.81.26-2.71l-.25,0C69.43,60.29,67.53,65.83,66,71.55Z"/><path class="cls-1" d="M180.08,79.87a30.72,30.72,0,0,1-.79,7.33,19.8,19.8,0,0,1-2.3,6A15.28,15.28,0,0,1,170.58,99a13.33,13.33,0,0,1-10.17.48,34.69,34.69,0,0,0-5.52-1.24,11,11,0,0,1-7.21-4.19,24,24,0,0,1-4.82-11.58,45.23,45.23,0,0,1-.48-10.26,41.22,41.22,0,0,1,2.87-13.43c1.22-2.88,2.65-5.69,5.4-7.47a8.78,8.78,0,0,1,8-1.19,17.94,17.94,0,0,0,4.26.82,9,9,0,0,1,3.43,1,2.43,2.43,0,0,1,.73.58c.33.4.49.94,1.14,1,.11,0,.27.23.3.37.41,1.75,1.65,3,2.73,4.27.85,1,1.66,2.13,2.41,3.24a28.24,28.24,0,0,1,2.14,3.52,44.26,44.26,0,0,1,2.56,6c.71,2.27,1.1,4.65,1.59,7A14,14,0,0,1,180.08,79.87Zm-19.8-24.7c-.27.21-.5.38-.72.57-2.31,2-3.38,4.69-4.16,7.5a40.42,40.42,0,0,0-1.29,10,49.8,49.8,0,0,0,.1,6.23A72.87,72.87,0,0,0,155.44,87a15.38,15.38,0,0,0,3.05,6.42c1,1.22,1,1.2,2.39.47A14,14,0,0,0,165,90.49a14.39,14.39,0,0,0,3-6.88,27.94,27.94,0,0,0,.38-5.25,19.49,19.49,0,0,0-.47-3.87c-.32-1.61-.8-3.18-1.19-4.77a29.16,29.16,0,0,0-2.72-6.44c-.95-1.81-1.83-3.67-2.71-5.52C161,56.94,160.66,56.08,160.28,55.17Z"/><path class="cls-1" d="M133,25.45c.2,2.22.4,4.43.58,6.65.1,1.28.2,2.56.26,3.84.14,2.78.3,5.56.37,8.34.17,6,.34,12.1.4,18.16,0,2.92-.28,5.85-.25,8.78,0,4.75.23,9.49.34,14.24q.13,5.92.22,11.83c0,1.64,0,3.28-.05,4.91a14.83,14.83,0,0,1-.49,2.71.73.73,0,0,1-1.07.55c-1.69-.81-3.55-.91-5.33-1.36-1.14-.28-2.32-.44-3.47-.66a1.34,1.34,0,0,1-1.16-1.23c-.15-1.17-.35-2.34-.41-3.52q-.24-4.39-.35-8.81c0-1.53.1-3,.09-4.57,0-5.52,0-11-.15-16.56-.05-2.78-.33-5.55-.4-8.33-.1-3.49-.13-7-.13-10.47,0-4.86.06-9.73.08-14.6,0-4.3,0-8.61.06-12.91,0-3.27.15-6.53.25-9.79a4.2,4.2,0,0,1,.18-1c.3-1.06.41-1.09,1.47-.84s2.26.49,3.39.68a16.27,16.27,0,0,0,2.09.22,1.61,1.61,0,0,1,1.59,1.15,12.3,12.3,0,0,1,.67,2.37c.49,3.39.92,6.8,1.37,10.2Z"/><path class="cls-1" d="M98.22,98.77l0,.57-.2,0a10.59,10.59,0,0,1-.44-2.27c.06-3.72.21-7.44.33-11.16.06-1.93.1-3.86.2-5.78.17-3.11.41-6.21.55-9.32.15-3.6.26-7.21.34-10.81s.1-7.35.16-11c0-1.38.07-2.76.15-4.13.16-2.84.35-5.68.52-8.52s.24-5.5.5-8.24c.37-3.83.85-7.64,1.31-11.46a17.42,17.42,0,0,1,.51-2.25c.15-.57.46-.74,1.09-.53a16.06,16.06,0,0,0,5.45,1c1,0,1.61.34,1.78,1.34a54,54,0,0,1,.87,6.18c.18,3.17.17,6.36.19,9.55,0,2,0,3.92-.06,5.88,0,1.63-.11,3.27-.14,4.91,0,2.58,0,5.16-.12,7.73-.1,3-.26,5.94-.44,8.9-.16,2.67-.46,5.34-.55,8-.17,4.84-.22,9.68-.35,14.51,0,1.62-.2,3.23-.27,4.84-.1,2.24-.15,4.48-.28,6.72-.09,1.66-.24,3.33-.46,5a14.73,14.73,0,0,1-.66,2.51c-.21.65-.82.68-1.74.37-1.15-.38-2.35-.62-3.53-.91s-2.55-.59-3.8-.94C98.78,99.4,98.56,99.06,98.22,98.77Z"/><path class="cls-1" d="M197.62,4c.11,3.2.2,6.52.34,9.83.15,3.72.36,7.44.52,11.16.08,1.88.09,3.77.16,5.66.09,3,.24,6,.3,9,0,2.25,0,4.5,0,6.75,0,2.44,0,4.88-.09,7.32-.07,1.68-.31,3.36-.45,5,0,.55-.05,1.1,0,1.66.06,3.14.15,6.29.19,9.43.05,2.78.08,5.56.06,8.34a8.55,8.55,0,0,1-.36,1.92c-.16.61-.68.82-1.41.6s-1.4-.54-2.13-.71c-1.5-.35-3-.71-4.52-.91s-1.68-.57-1.94-1.89a26.64,26.64,0,0,1-.44-4.46c-.11-3.94-.08-7.89-.21-11.83-.07-1.95-.37-3.89-.53-5.84-.13-1.5-.21-3-.31-4.49s-.2-2.9-.25-4.35c-.11-3.55-.19-7.1-.31-10.65,0-1.06-.15-2.12-.17-3.19q-.08-6.27-.1-12.55c0-1.9,0-3.8.15-5.7a51.5,51.5,0,0,1,1.3-10.71,16.17,16.17,0,0,1,1.15-2.8c.36-.73.92-.8,1.6-.34a.78.78,0,0,0,.32.15c1.53.33,3.06.68,4.6,1,.6.11,1.24,0,1.85.1a.79.79,0,0,1,.77,1A14.52,14.52,0,0,0,197.62,4Z"/><path class="cls-1" d="M200,103.48a21.27,21.27,0,0,1-.55,2.14c-.21.61-1.68,1.2-2.56,1-1.15-.24-2.28-.62-3.43-.88-1.44-.32-2.89-.58-4.33-.85a1.74,1.74,0,0,1-1.46-1.42c-.15-1.07-.17-2.12,1-2.73.14-.07.18-.32.28-.49a1.48,1.48,0,0,1,1.95-.78,22.07,22.07,0,0,0,6.74,1.24A2.6,2.6,0,0,1,200,103.48Z"/></g></g></svg>