<svg xmlns="http://www.w3.org/2000/svg" viewBox="0 0 200 33.4"><defs><style>.cls-1{fill:#8872a4;}.cls-2{fill:none;}</style></defs><g id="Layer_2" data-name="Layer 2"><g id="Layer_1-2" data-name="Layer 1"><path class="cls-1" d="M61.56,18.36c.19-.76.39-1.46.56-2.17s.27-1.29.42-1.93S62.83,13,63,12.4a3.05,3.05,0,0,1,.28-.68c.13-.24.31-.25.58-.19a9,9,0,0,0,1.69.34,1.22,1.22,0,0,1,1,.58c.45.74.88,1.49,1.31,2.25.29.49.54,1,.83,1.48l1.93,3.3h.08c.06-.33.13-.67.19-1,.28-1.72.56-3.43.85-5.14.24-1.44.46-2.89.74-4.33.25-1.25.55-2.49.85-3.74a12.81,12.81,0,0,1,1-2.95c.26-.51.5-1,.79-1.51s.33-.35.75-.26,1,.19,1.52.26c.29,0,.41.24.22.59a14.32,14.32,0,0,0-1.18,3.85c-.2,1-.47,1.94-.67,2.92s-.44,2.19-.63,3.3c-.28,1.65-.52,3.31-.79,5-.24,1.44-.48,2.88-.74,4.32a13.92,13.92,0,0,1-.45,1.56,1.19,1.19,0,0,1-.19.35.61.61,0,0,1-.85.29A13,13,0,0,0,70,22.45a1,1,0,0,1-.56-.32,20.16,20.16,0,0,1-1.25-1.67c-.5-.73-1-1.49-1.4-2.25s-1-1.8-1.47-2.7c0-.06-.08-.11-.14-.2-.1.38-.19.73-.27,1.07-.21.85-.42,1.71-.64,2.55s-.44,1.64-.68,2.46a6.8,6.8,0,0,1-.37,1c-.24.53-.41.59-1,.45s-1.22-.33-1.84-.43a.91.91,0,0,1-.76-.6c-.21-.5-.43-1-.6-1.54s-.37-1.23-.57-1.85c-.38-1.21-.77-2.43-1.16-3.64-.19-.6-.41-1.19-.6-1.79s-.48-1.49-.68-2.24c-.45-1.65-.88-3.31-1.33-5A22.66,22.66,0,0,1,54,2.13c0-.53-.07-1.07-.08-1.6,0-.32.12-.39.43-.34.51.09,1,.16,1.52.22a.55.55,0,0,1,.46.38,17.49,17.49,0,0,1,.9,3c.19.71.41,1.41.62,2.12l.93,3.22c.24.81.48,1.61.73,2.42l1,3.33c.26.83.52,1.65.76,2.48.07.24.08.5.13.74A1.1,1.1,0,0,0,61.56,18.36Z"/><path class="cls-1" d="M100.88,17.64c0,.77,0,1.53,0,2.29a13.22,13.22,0,0,1-.24,2.94c-.1.31-.15.34-.5.36-.55,0-2,0-2.13,0s-.39-.3-.37-.57c0-.49,0-2.09,0-2.58,0-.87-.06-1.74-.06-2.6a33.44,33.44,0,0,0-.3-4.12c-.13-1-.18-2-.23-3.06C97,8.67,97,7,96.92,5.41c0-.74,0-1.47,0-2.2a17.25,17.25,0,0,1,.21-1.76c.06-.37.23-.42.57-.27a1.44,1.44,0,0,0,.36.07c.39.05.78.1,1.17.17a.35.35,0,0,1,.31.31c.07.53.15,1.06.21,1.59.13,1,.25,2.07.37,3.1,0,.35.06.7.1,1l.18,1.43c.07.65.14,1.3.22,2,0,.11,0,.23,0,.41.34-.5.64-.95,1-1.39.51-.73,1-1.45,1.56-2.17.25-.34.52-.66.78-1a.43.43,0,0,1,.5-.12,4.15,4.15,0,0,0,1.52.29.29.29,0,0,1,.32.41,9.15,9.15,0,0,1-.61,1.44c-.36.66-.77,1.3-1.18,1.93s-.8,1.13-1.2,1.71l-1,1.54c-.17.25-.36.49-.55.73s-.07.15,0,.26c.6.75,1.2,1.5,1.77,2.28.46.63.88,1.29,1.31,1.94l2,3.06a.82.82,0,0,1,.08.8c-.09.24-.21.27-.44.2a4.09,4.09,0,0,0-1.25-.34c-.84,0-1.17-.57-1.54-1.13-.52-.78-1-1.57-1.54-2.35-.35-.53-.72-1.06-1.09-1.58A.88.88,0,0,0,100.88,17.64Z"/><path class="cls-1" d="M75.74,17a9.55,9.55,0,0,1,.55-3.38,4.29,4.29,0,0,1,1.39-2,4.24,4.24,0,0,1,1.5-.59,2.6,2.6,0,0,1,1.65.27.7.7,0,0,0,.38,0,1.33,1.33,0,0,1,1.07.32c.45.32.87.69,1.31,1a3.08,3.08,0,0,1,1.19,2,10.4,10.4,0,0,1,.3,1.91A14.37,14.37,0,0,1,85,18.73a9.14,9.14,0,0,1-.29,1.38,4.82,4.82,0,0,1-1.15,2.13,2.4,2.4,0,0,1-1.69.87,2.74,2.74,0,0,1-.7-.09l-2.31-.51a2.52,2.52,0,0,1-1.32-.8,3.79,3.79,0,0,1-.84-1.11,8.8,8.8,0,0,1-.57-1.35A7,7,0,0,1,75.74,17Zm4.54,4.13a2.67,2.67,0,0,0,.83-.95,6.82,6.82,0,0,0,.85-3.5,8.77,8.77,0,0,0-.3-2.44,3.1,3.1,0,0,0-1-1.59.24.24,0,0,0-.24,0,3.45,3.45,0,0,0-.59.62,5,5,0,0,0-.69,2.13,10.58,10.58,0,0,0,.25,3.76,7.41,7.41,0,0,0,.44,1.19A8.19,8.19,0,0,0,80.28,21.11Z"/><path class="cls-1" d="M89.52,13.16a9.52,9.52,0,0,1,1-.16c.62,0,1.24,0,1.86,0a10.61,10.61,0,0,1,1.78.37l.86.09a.56.56,0,0,1,.23,0c.09.07.23.2.2.25s-.18.44-.33.48a3.76,3.76,0,0,1-1,.08,7.93,7.93,0,0,0-2.82.36,2.93,2.93,0,0,0-1.41,1.17.74.74,0,0,0-.06.4c0,.74.08,1.48.11,2.22s.07,1.77,0,2.65a9.88,9.88,0,0,1-.23,1.62c-.07.33-.26.55-.59.48H87.05c-.2-.05-.1-2.73-.08-3.55s-.12-1.58-.18-2.37c0-.35-.06-.7-.08-1a26.14,26.14,0,0,1,0-4.15,1.72,1.72,0,0,1,.24-.6.36.36,0,0,1,.3-.08,3.46,3.46,0,0,0,1.67.32.36.36,0,0,1,.4.33Z"/><path class="cls-1" d="M.27,9.64H.33c0,1,0,2,0,3,0,.67,0,1.33,0,2,0,1.27,0,2.54.09,3.81a15.72,15.72,0,0,0,.26,2.16,2.15,2.15,0,0,0,2.05,2.07,4.81,4.81,0,0,1,1.08.22,4.68,4.68,0,0,0,2,.26C6.9,23,8,23,9.06,22.83c1.74-.22,3.47-.5,5.2-.76.47-.07.85-.23,1-.78,0-.27,0-.36-.27-.39s-.72-.1-1.08-.15-.9-.29-1.43,0a4.69,4.69,0,0,1-1.38.24c-.8.12-1.59.23-2.39.33-1.48.19-3,.36-4.44.52a.38.38,0,0,1-.32-.15,3.26,3.26,0,0,1-.36-1c-.1-1.25-.18-2.5-.23-3.75,0-.67,0-1.35,0-2,0-1.21,0-2.42-.06-3.63,0-1.52-.11-3.05-.2-4.57C3,5.6,2.9,4.48,2.81,3.35c0-.27-.08-.55-.13-.83-.12-.61-.24-1.23-.37-1.85A.51.51,0,0,0,1.86.29C1.34.19.83.12.31,0,.13,0,0,0,0,.2a8.77,8.77,0,0,0,0,.89C.08,2.16.19,3.23.25,4.3c0,.73,0,1.45,0,2.18C.28,7.53.27,8.59.27,9.64Z"/><path class="cls-1" d="M32,20.6l-.08,0a8.92,8.92,0,0,1-.35-1.11,15.16,15.16,0,0,1-.23-1.9c-.05-1-.05-2.06-.06-3.1,0-.52,0-1.05,0-1.58s-.05-1.34-.08-2a.23.23,0,0,1,.11-.17c.38-.12.77-.24,1.16-.34.57-.17,1.14-.32,1.72-.48a.74.74,0,0,0,.28-.55c0-.21-.23-.14-.37-.17l-1.41-.28a.91.91,0,0,0-.33,0l-1.29.27,0-.7c-.05-.92-.11-1.84-.16-2.77,0-.26-.1-.34-.36-.38A11.64,11.64,0,0,1,29.21,5c-.29-.07-.43,0-.48.27a7.18,7.18,0,0,0-.1,1c0,1.08,0,2.16,0,3.24a.32.32,0,0,1-.16.24,13.09,13.09,0,0,1-1.38.31c-.61.1-1.23.16-1.85.22-.23,0-.26.17-.29.36s.12.26.26.3.32,0,.47.08a4.93,4.93,0,0,0,2,.32c.3-.06.61-.06.92-.09,0,.31.06.58.05.84,0,1-.06,1.93-.06,2.89s0,1.9.06,2.84a7.48,7.48,0,0,0,.59,2.84,1.84,1.84,0,0,0,1.39,1.19c.52.09,1,.2,1.54.33a1.9,1.9,0,0,0,1.51-.12,3,3,0,0,0,1.08-1.07,15.8,15.8,0,0,0,.86-1.63A9.65,9.65,0,0,0,36.24,18c.12-.37,0-.47-.39-.43a.55.55,0,0,1-.18,0,10.56,10.56,0,0,1-1.11-.27c-.32-.1-.35-.11-.51.2-.07.13-.14.26-.22.39-.31.54-.6,1.09-.94,1.61S32.31,20.22,32,20.6Z"/><path class="cls-1" d="M.27,9.64c0-1.05,0-2.11,0-3.16,0-.73,0-1.45,0-2.18C.19,3.23.08,2.16,0,1.09A8.77,8.77,0,0,1,0,.2C0,0,.13,0,.31,0c.52.11,1,.18,1.55.28a.51.51,0,0,1,.45.38c.13.62.25,1.24.37,1.85,0,.28.1.56.13.83.09,1.13.2,2.25.26,3.38.09,1.52.15,3,.2,4.57,0,1.21,0,2.42.06,3.63,0,.67-.05,1.35,0,2,0,1.25.13,2.5.23,3.75a3.26,3.26,0,0,0,.36,1,.38.38,0,0,0,.32.15c1.48-.16,3-.33,4.44-.52.8-.1,1.59-.21,2.39-.33a4.69,4.69,0,0,0,1.38-.24c.53-.27,1,0,1.43,0s.72.11,1.08.15.32.12.27.39c-.1.55-.48.71-1,.78-1.73.26-3.46.54-5.2.76C8,23,6.9,23,5.82,23.13a4.68,4.68,0,0,1-2-.26,4.81,4.81,0,0,0-1.08-.22,2.15,2.15,0,0,1-2-2.07,15.72,15.72,0,0,1-.26-2.16C.41,17.15.41,15.88.38,14.61c0-.67,0-1.33,0-2,0-1,0-2,0-3Z"/><path class="cls-1" d="M32,21.16A13.54,13.54,0,0,0,32.89,20c.34-.52.63-1.07.94-1.61.08-.13.15-.26.22-.39.16-.31.19-.3.51-.2s.74.19,1.11.27a.37.37,0,0,0,.18,0c.39,0,.51.06.39.44A9.65,9.65,0,0,1,35.66,20a15.64,15.64,0,0,1-.86,1.62,2.94,2.94,0,0,1-1.08,1.08,1.9,1.9,0,0,1-1.51.12c-.51-.13-1-.24-1.54-.33a1.84,1.84,0,0,1-1.39-1.19,7.48,7.48,0,0,1-.59-2.84c0-.95-.06-1.89-.06-2.84s.05-1.92.06-2.89a8.38,8.38,0,0,0-.05-.84c-.31,0-.62,0-.92.09a4.93,4.93,0,0,1-2-.32c-.15,0-.31-.05-.47-.09s-.28-.08-.26-.29.06-.34.29-.36c.62-.06,1.24-.12,1.85-.22a11,11,0,0,0,1.38-.32.3.3,0,0,0,.16-.23c0-1.08,0-2.16,0-3.24a7.18,7.18,0,0,1,.1-1c.05-.29.19-.34.48-.27s.87.18,1.31.25c.26,0,.35.12.36.38.05.92.11,1.85.16,2.77l0,.7,1.29-.27a.91.91,0,0,1,.33,0l1.41.28c.14,0,.32-.05.37.17a.74.74,0,0,1-.28.55l-1.72.47c-.39.11-.78.22-1.16.35a.23.23,0,0,0-.11.17c0,.67.07,1.35.08,2s0,1,0,1.58c0,1,0,2.07.06,3.1A15,15,0,0,0,31.58,20a9.06,9.06,0,0,0,.35,1.12Z"/><path class="cls-1" d="M18,18.17c0,.22,0,.41.08.6a5.8,5.8,0,0,0,1.06,2.65c.4.5.59.55,1.11.17a13.18,13.18,0,0,0,2.14-2c.35-.39.68-.8,1-1.19a.38.38,0,0,1,.26-.07c.47.08.92.21,1.39.26s.61.18.35.68a6.87,6.87,0,0,1-.87,1.21c-.55.62-1.12,1.21-1.71,1.8a3.15,3.15,0,0,1-1.37.8,3,3,0,0,1-1.48,0l-1.68-.4a3.11,3.11,0,0,1-2.15-1.72,7.25,7.25,0,0,1,.21-7,5.71,5.71,0,0,1,1.23-1.57,4.86,4.86,0,0,1,2-1.16,2.36,2.36,0,0,1,1.44,0,5.74,5.74,0,0,0,1.24.21,1.73,1.73,0,0,1,1.65,1.8,10,10,0,0,1-.18,1.22,4.57,4.57,0,0,1-1.1,2,4.36,4.36,0,0,1-1.43,1.09c-.68.26-1.35.52-2,.72a2.69,2.69,0,0,1-.89,0A1.73,1.73,0,0,1,18,18.17Zm0-1.26c.09,0,.11,0,.12,0a5,5,0,0,0,3.41-3.23,2.93,2.93,0,0,0,0-1.14c0-.16-.13-.21-.31-.14a4.39,4.39,0,0,0-1.77,1.29,10.1,10.1,0,0,0-1,1.72A10.12,10.12,0,0,0,18,16.91Z"/><path class="cls-1" d="M43.9,9.94c.39.09.77.21,1.16.28.55.1,1.11.14,1.66.26a2.54,2.54,0,0,1,1.54.87,5.35,5.35,0,0,1,.47.7.8.8,0,0,1,0,.75.29.29,0,0,1-.39.17c-.55-.17-1.1-.32-1.65-.51a1.51,1.51,0,0,1-.49-.36c-.17-.17-.31-.37-.47-.56s-.22-.1-.35,0a1.81,1.81,0,0,0-1,2.13A2.52,2.52,0,0,0,45,15c.4.42.84.82,1.25,1.23a7.39,7.39,0,0,1,1.85,2.89,3.46,3.46,0,0,1-.06,2.59,2,2,0,0,1-.32.44,2.3,2.3,0,0,1-1.53.74,4.92,4.92,0,0,1-1.62-.22c-.84-.21-1.69-.37-2.52-.61a3.22,3.22,0,0,1-1.9-1.38c-.26-.42-.55-.83-.82-1.25a.79.79,0,0,1-.11-.8.23.23,0,0,1,.33-.15,5.31,5.31,0,0,0,1.81.37.64.64,0,0,1,.44.23A12.21,12.21,0,0,0,44,21.19a.35.35,0,0,0,.3,0A1.17,1.17,0,0,0,45,19.77,7.06,7.06,0,0,0,43.57,17c-.34-.41-.75-.76-1.12-1.14-.14-.15-.27-.3-.4-.46a4.56,4.56,0,0,1-.58-.75,3.51,3.51,0,0,1-.19-2.49,3.39,3.39,0,0,1,.71-1.4A3.25,3.25,0,0,1,43.9,9.94Z"/><path class="cls-1" d="M38.71,7.88c0,.21,0,.42,0,.62s-.14.28-.35.23l-1.47-.36c-.16,0-.26-.11-.27-.27s0-.36,0-.54c0-.4-.07-.8-.08-1.21s0-.86,0-1.28a1.63,1.63,0,0,1,.13-.48.26.26,0,0,1,.21-.11c.51.07,1,.16,1.51.25a.37.37,0,0,1,.34.37"/><path class="cls-1" d="M171.9,13.13c-.12-.71-.14-4.52-.29-5.25-.12-.55-.29-1.08-.44-1.62a.4.4,0,0,0-.41-.29,12.25,12.25,0,0,1-1.37-.24c-.55-.15-.69-.07-.73.51v.18c.05.64.08,1.27.14,1.91s1.43,10.09,1.61,11,.33,1.72.46,2.58c0,.28.16.36.4.36a3.25,3.25,0,0,1,.7.05,6.61,6.61,0,0,1,.85.3c.21.07.47,0,.48-.17a14.14,14.14,0,0,0,.06-1.46c0-.46-.65-3.86-.41-4.67s.65-1.27,1.84-1.33c1.64-.09,1.87,8.09,1.93,8.79a.38.38,0,0,0,.33.37l1.31.26a5.1,5.1,0,0,1,.63.2c.18.06.35,0,.36-.18.07-.57.12-1.14.15-1.72,0-.34,0-.69,0-1,0-1,0-2-.12-3a15.28,15.28,0,0,0-1.85-4.79,4.93,4.93,0,0,0-4.38-1.41C172.73,12.68,172.33,12.9,171.9,13.13Z"/><path class="cls-1" d="M122.81,4.4s0,.08,0,.11c0,.41,0,.82,0,1.23,0,.89,0,1.78,0,2.67s0,1.9-.06,2.86c0,.66,0,1.33,0,2,0,1-.08,2-.13,3s-.11,2.16-.18,3.23c0,.7-.11,1.4-.18,2.09a1.19,1.19,0,0,1-.22.68c-.22.26-.22.54.31.62s1.18.2,1.76.34.76,0,.85-.36c.15-.71.27-1.43.35-2.16s.08-1.33.11-2c0-.85.06-1.7.08-2.55,0-.43,0-.85,0-1.27,0-1.39,0-2.78,0-4.17,0-.69,0-1.39-.07-2.09,0-.2,0-.39,0-.59s0-.36,0-.54c0-1.23-.1-2.45-.15-3.67,0-.12,0-.18.19-.22l1.24-.41c.77-.27,1.54-.55,2.32-.81L133.23,1c.27-.09.18-.3.19-.46s-.19-.19-.29-.18a8.47,8.47,0,0,1-1.6-.25,1.63,1.63,0,0,0-.76,0c-.75.21-1.49.47-2.23.72-.56.19-1.1.41-1.65.61s-.89.33-1.34.47-.89.23-1.33.38a.76.76,0,0,1-.59,0,.34.34,0,0,0-.47.17.57.57,0,0,1-.29.24c-.53.19-1.06.34-1.59.51l-3.11,1.06-1.11.39c-.46.19-.93.37-1.37.6-.11,0-.14.25-.16.38s.19.1.29.12.4,0,.59.09.6.16.91.21a.91.91,0,0,0,.43,0c.32-.09.63-.21,1-.31l2.7-.88Z"/><path class="cls-1" d="M193.21,12.46a1.69,1.69,0,0,1-.05-.24c0-.29-.1-.59-.14-.88s-.15-.33-.37-.37l-1.59-.33a.32.32,0,0,0-.41.18c0,.1-.08.2-.11.3a8.1,8.1,0,0,0-.31,2.81c0,1.28.08,2.56.19,3.83s.45,3.42.6,4.55a.38.38,0,0,0,.37.37,7.25,7.25,0,0,1,.93.17c.47.11.94.25,1.41.38.28.07.39,0,.47-.3a10.71,10.71,0,0,0-.11-2.65,5.81,5.81,0,0,1,.18-2.49,14.38,14.38,0,0,1,1-2.68,5.93,5.93,0,0,1,1.38-2c.75-.63,1.58-1.17,2.36-1.76.41-.31.88-.58,1-1.17.06-.39,0-.51-.4-.56a7.61,7.61,0,0,1-1-.09,8.23,8.23,0,0,1-.92-.27c-.07.08-.1.16-.16.19a16.08,16.08,0,0,1-1.54.8,5.09,5.09,0,0,0-1.93,1.26Z"/><path class="cls-2" d="M143.93,15.46c-.08-.43-.19-.85-.29-1.3l-.21.11a4.3,4.3,0,0,0-1.11,1.14,8.16,8.16,0,0,0-1.14,2.72,3.86,3.86,0,0,0,.64,3.14c.2.3.22.29.51.08a4.37,4.37,0,0,0,1.54-1.76,2.53,2.53,0,0,0,.43-1.83C144.11,17,144.06,16.22,143.93,15.46Z"/><path class="cls-1" d="M147.71,23.18c-.07-1.28-.22-2.55-.34-3.83a4.42,4.42,0,0,1-.06-.81,37.79,37.79,0,0,0-.71-4.19c-.17-.53-1.61-1.18-1.89-1.22-.54-.09-1.08-.15-1.6-.29a2.52,2.52,0,0,0-2.25.48,6.59,6.59,0,0,0-2.16,3,7.74,7.74,0,0,0-.39,1.35,6.19,6.19,0,0,0-.19,1.27,4.78,4.78,0,0,0,.76,2.37,2.47,2.47,0,0,0,1.68,1.25l1.41.31c.38.09.75.23,1.14.29a2.94,2.94,0,0,0,1.61-.32.37.37,0,0,1,0,.09c0,.69,0,1.38.07,2.07a8,8,0,0,1-.23,2.17,7.82,7.82,0,0,1-2.16,4.07,8.83,8.83,0,0,1-.91.66.22.22,0,0,1-.35-.08,4.29,4.29,0,0,1-.39-.59c-.46-1-.9-2.09-1.34-3.14a.37.37,0,0,0-.34-.28c-.54-.08-1.09-.18-1.62-.31-.26-.06-.36,0-.42.2a1.1,1.1,0,0,0,0,.44c.12.56.24,1.11.39,1.66a7.77,7.77,0,0,0,.46,1.36,2.76,2.76,0,0,0,1.9,1.6c.73.16,1.45.33,2.16.53a3,3,0,0,0,3-.82,7.52,7.52,0,0,0,1.54-2.17,11.27,11.27,0,0,0,1.2-4.19A23.71,23.71,0,0,0,147.71,23.18Zm-3.84-3.59a4.37,4.37,0,0,1-1.54,1.76c-.29.21-.31.22-.51-.08a3.86,3.86,0,0,1-.64-3.14,8.16,8.16,0,0,1,1.14-2.72,4.3,4.3,0,0,1,1.11-1.14l.21-.11c.1.45.21.87.29,1.3.13.76.18,1.55.37,2.3A2.53,2.53,0,0,1,143.87,19.59Z"/><path class="cls-1" d="M122.81,4.4l-1.41.43-2.7.88c-.32.1-.63.22-1,.31a.91.91,0,0,1-.43,0c-.31,0-.6-.15-.91-.21s-.39,0-.59-.09-.29-.09-.29-.12,0-.33.16-.38c.44-.23.91-.41,1.37-.6l1.11-.39,3.11-1.06c.53-.17,1.06-.32,1.59-.51a.57.57,0,0,0,.29-.24.34.34,0,0,1,.47-.17.76.76,0,0,0,.59,0c.44-.15.9-.24,1.33-.38s.89-.31,1.34-.47S128,1,128.54.79c.74-.25,1.48-.51,2.23-.72a1.63,1.63,0,0,1,.76,0,8.47,8.47,0,0,0,1.6.25c.1,0,.29.12.29.18s.08.37-.19.46L129,2.35c-.78.26-1.55.54-2.32.81l-1.24.41c-.14,0-.2.1-.19.22,0,1.22.11,2.44.15,3.67,0,.18,0,.36,0,.54s0,.39,0,.59c0,.7.07,1.4.07,2.09,0,1.39,0,2.78,0,4.17,0,.42,0,.84,0,1.27,0,.85,0,1.7-.08,2.55,0,.67,0,1.34-.11,2s-.2,1.45-.35,2.16c-.09.4-.38.48-.85.36s-1.17-.25-1.76-.34-.53-.36-.31-.62a1.19,1.19,0,0,0,.22-.68c.07-.69.13-1.39.18-2.09.07-1.07.12-2.15.18-3.23s.1-2,.13-3c0-.66,0-1.33,0-2,0-1,0-1.91.06-2.86s0-1.78,0-2.67c0-.41,0-.82,0-1.23C122.82,4.48,122.81,4.44,122.81,4.4Z"/><path class="cls-1" d="M162.89,10.27a8.73,8.73,0,0,1,1,0c.51.05,1,.08,1.51.15a.3.3,0,0,1,.2.22.69.69,0,0,1-.59.78c-.35.1-.72.16-1.08.23s-.64.09-1,.14c0,.29,0,.56,0,.82q.09,2.34.21,4.68a9.16,9.16,0,0,0,.56,3.19c.1.23.22.45.35.7a7.72,7.72,0,0,0,.9-.57c.49-.41.95-.86,1.43-1.28a.52.52,0,0,1,.35-.06c.53.09,1,.22,1.58.31.2,0,.28.1.28.29a1.55,1.55,0,0,1-.59,1.1c-.53.54-1.08,1.05-1.63,1.57a1.87,1.87,0,0,1-1.87.34,14.71,14.71,0,0,0-1.83-.43,2.48,2.48,0,0,1-1.85-1.21,6.46,6.46,0,0,1-1-3.37c0-1.89,0-3.78-.06-5.66,0-.2-.05-.26-.25-.29-.61-.09-1.2-.23-1.8-.35l-.93-.17c-.18,0-.33-.11-.29-.33s.08-.36.37-.36c.91,0,1.81-.1,2.71-.15.22,0,.23-.15.24-.32.07-.82.14-1.63.22-2.44a1.43,1.43,0,0,1,.07-.28c.06-.21.2-.26.41-.2s.74.18,1.11.27a4.53,4.53,0,0,1,.64.13.46.46,0,0,1,.27.26c.08.48.13,1,.18,1.46C162.85,9.71,162.86,10,162.89,10.27Z"/><path class="cls-1" d="M132.6,23.21l-1.32-.32c-.66-.16-1.32-.27-2-.45a2.54,2.54,0,0,1-1.72-1.68,4.26,4.26,0,0,1-.24-1.46,7.32,7.32,0,0,1,1.09-4,5.37,5.37,0,0,1,2.06-2.06,3.6,3.6,0,0,1,1.67-.49,1.35,1.35,0,0,1,.28,0l1.75.32a.69.69,0,0,1,.34.13.93.93,0,0,0,.66.27,2,2,0,0,1,1.3.81,3.82,3.82,0,0,1,.93,2.49,5.66,5.66,0,0,1-.45,2.33c-.28.61-.53,1.24-.86,1.82a4.57,4.57,0,0,1-1.59,1.65A4,4,0,0,1,132.6,23.21Zm1.7-6.58a3.59,3.59,0,0,0-1-2.42.22.22,0,0,0-.34,0c-.2.15-.42.28-.61.44a5.87,5.87,0,0,0-2.12,3.53,7.15,7.15,0,0,0,0,1.73,2.28,2.28,0,0,0,.66,1.59c.11.12.21.17.36.08a7.77,7.77,0,0,0,.78-.48,5.69,5.69,0,0,0,1.67-2.26A4.92,4.92,0,0,0,134.3,16.63Z"/><path class="cls-1" d="M193.21,12.46l.86-.94A5.09,5.09,0,0,1,196,10.26a16.08,16.08,0,0,0,1.54-.8c.06,0,.09-.11.16-.19a8.23,8.23,0,0,0,.92.27,7.61,7.61,0,0,0,1,.09c.4,0,.46.17.4.56-.1.59-.57.86-1,1.17-.78.59-1.61,1.13-2.36,1.76a5.93,5.93,0,0,0-1.38,2,14.38,14.38,0,0,0-1,2.68,5.81,5.81,0,0,0-.18,2.49,10.71,10.71,0,0,1,.11,2.65c-.08.28-.19.37-.47.3-.47-.13-.94-.27-1.41-.38a7.25,7.25,0,0,0-.93-.17.38.38,0,0,1-.37-.37c-.15-1.13-.5-3.41-.6-4.55s-.18-2.55-.19-3.83a8.1,8.1,0,0,1,.31-2.81c0-.1.07-.2.11-.3a.32.32,0,0,1,.41-.18l1.59.33c.22,0,.35.14.37.37s.09.59.14.88A1.69,1.69,0,0,0,193.21,12.46Z"/><path class="cls-2" d="M185.42,14.43c.25-2-1.73,1.26-1.57,1.92A4.09,4.09,0,0,0,185.42,14.43Z"/><path class="cls-1" d="M188.8,20.56c-.6.07-1.62-.55-2-.18a3.53,3.53,0,0,1-2.26,1.48c-.82-.71-.82-2-.88-3,.23-.46,1-.41,1.45-.64a4.59,4.59,0,0,0,3-3.44c.31-2.28-2.45-2.06-3.94-2.4-3,.18-3.51,4.35-3.34,6.74,0,3.18,2,4.12,4.83,4.18C186.72,23.2,189.77,21.85,188.8,20.56Zm-3.66-6.7c.23-.17.31-.13.32.15a3.37,3.37,0,0,1-1.61,2.34A3.75,3.75,0,0,1,185.14,13.86Z"/><path class="cls-2" d="M154,14.43c.26-2-1.73,1.26-1.57,1.92A4.09,4.09,0,0,0,154,14.43Z"/><path class="cls-1" d="M157.36,20.56c-.6.07-1.61-.55-2-.18a3.53,3.53,0,0,1-2.26,1.48c-.82-.71-.82-2-.88-3,.23-.46,1-.41,1.45-.64a4.59,4.59,0,0,0,3-3.44c.31-2.28-2.44-2.06-3.94-2.4-3,.18-3.51,4.35-3.33,6.74,0,3.18,2,4.12,4.82,4.18C155.28,23.2,158.33,21.85,157.36,20.56Zm-3.65-6.7c.22-.17.3-.13.31.15a3.34,3.34,0,0,1-1.61,2.34A3.77,3.77,0,0,1,153.71,13.86Z"/></g></g></svg>