<svg xmlns="http://www.w3.org/2000/svg" viewBox="0 0 200 49.66"><defs><style>.cls-1{fill:#8872a4;}</style></defs><g id="Layer_2" data-name="Layer 2"><g id="Layer_1-2" data-name="Layer 1"><path class="cls-1" d="M80.88,28.82c-.23.55-.44,1.13-.72,1.68A8.06,8.06,0,0,1,78,33.24a3.47,3.47,0,0,1-5.07-1.61,12.31,12.31,0,0,1-.81-4.11,15.29,15.29,0,0,1,.59-4.66c.2-.73.23-1.52.38-2.27a18.18,18.18,0,0,1,.59-2.31,10.14,10.14,0,0,1,1-2.2,8.73,8.73,0,0,1,4.07-3.59,5.81,5.81,0,0,1,4.3,0c.84.31,1.3,1,1.15,1.6-.25,1.1-.57,2.17-.82,3.26a5.14,5.14,0,0,0-.08,1.11c0,1.43.06,2.86,0,4.28s-.08,2.88-.24,4.31c-.27,2.37-.57,4.74-1,7.1-.26,1.54-.69,3.06-1.06,4.59-.31,1.31-.58,2.64-1,3.92A12.18,12.18,0,0,1,77,48.22a4.34,4.34,0,0,1-4.66,1.17A4.1,4.1,0,0,1,69.52,45a3.25,3.25,0,0,0,0-.54A13.18,13.18,0,0,1,70,40.31a12.74,12.74,0,0,0,.27-1.75,3.64,3.64,0,0,1,.11-.66c.08-.27.2-.57.57-.5.76.15.7.19.67.78-.07,1.08-.05,2.17,0,3.25a4.59,4.59,0,0,0,.48,2.11,2.1,2.1,0,0,0,2.85,1.14,5.67,5.67,0,0,0,3-2.79,16.54,16.54,0,0,0,2-5.31c.37-2,.65-3.94.93-5.91A12.69,12.69,0,0,0,80.88,28.82Zm1-12.21c-.31,0-.52,0-.74,0a5.64,5.64,0,0,0-4,1.86,16.4,16.4,0,0,0-2,2.69,2.71,2.71,0,0,0-.41,1.46,21.35,21.35,0,0,0,.43,3.48,5.16,5.16,0,0,0,.9,1.76c.46.64.82.67,1.49.24a6.88,6.88,0,0,0,2.72-3.68,17.83,17.83,0,0,0,.9-4.34,15.33,15.33,0,0,1,.33-1.61C81.6,17.85,81.72,17.26,81.84,16.61Z"/><path class="cls-1" d="M133.5,12.89c-.21,1.36-.36,2.62-.61,3.87s-.66,2.69-.92,4a13.3,13.3,0,0,1-1.48,4,13.93,13.93,0,0,1-3.1,4,17.18,17.18,0,0,1-6.89,3.74,8.31,8.31,0,0,1-5.08,0c-.57-.22-.61-.39-.46-1a25.76,25.76,0,0,0,.53-2.89c.2-1.69.32-3.39.48-5.09.09-.95.22-1.9.27-2.85.12-2.71.24-5.42.31-8.13.06-2.26,0-4.53.08-6.79a9.58,9.58,0,0,1,.49-3.22,5.07,5.07,0,0,0,.17-1.42,1,1,0,0,1,1-1c2.42-.37,4.55.6,6.67,1.49a20.13,20.13,0,0,1,3.17,1.7,11.51,11.51,0,0,1,3.34,3.18,10.5,10.5,0,0,1,1.36,2.87A32.42,32.42,0,0,1,133.5,12.89ZM118.78,4.53c.49,7.8-.4,15.37-1.08,23l.72-.1c.81-.15,1.63-.27,2.44-.46A14.9,14.9,0,0,0,124,25.6a11.42,11.42,0,0,0,3.4-2.35,25.31,25.31,0,0,0,2.57-3.49,4.58,4.58,0,0,0,.92-3.05c-.07-.58-.11-1.17-.21-1.75a8.42,8.42,0,0,0-1.55-3.81,15.4,15.4,0,0,0-3.57-3.36c-.7-.47-1.43-.88-2.17-1.29s-1.21-.64-1.84-.91C120.65,5.23,119.77,4.91,118.78,4.53Z"/><path class="cls-1" d="M1.69,7.65a6.9,6.9,0,0,0-.65.8c-.2.36-.45.26-.72.16S0,8.29,0,8c.19-.85.32-1.7.51-2.55A3.48,3.48,0,0,1,.94,4.17a8.5,8.5,0,0,1,3-2.73c.49-.27,1-.43,1.52-.68A6.76,6.76,0,0,1,8.92,0a8.63,8.63,0,0,1,3.84,1,6.23,6.23,0,0,1,2.39,2.31,5.68,5.68,0,0,1,.91,2.24,9.24,9.24,0,0,1-.26,3.51c-.29,1.1-.49,2.23-.74,3.35a10.32,10.32,0,0,1-2,4,11.45,11.45,0,0,1-2.73,2.78A9.43,9.43,0,0,1,5.55,21.1c-.11,0-.23.06-.35.07-.83.11-.84.14-.81,1,.09,2.29.16,4.57.22,6.86a4.34,4.34,0,0,1-.16,1c-.23,1-.5,2.07-.71,3.11-.07.35-.14.66-.58.63A.89.89,0,0,1,2.35,33c0-1.62-.09-3.24-.15-4.85S2.06,24.71,2,23c0-.42,0-.84,0-1.23-.45,0-.81,0-1.17,0S.41,21.6.5,21.25A17.57,17.57,0,0,0,1,18.77a1.13,1.13,0,0,1,.62-1.07.41.41,0,0,0,.2-.32c0-1.44,0-2.88,0-4.32s0-2.7-.05-4.05c0-.43,0-.85.06-1.28Zm2.68,9.14a12.23,12.23,0,0,0,1.27-.34c.47-.17.91-.41,1.37-.61a20,20,0,0,0,2.78-1.25,10.6,10.6,0,0,0,3.8-4.32,1.24,1.24,0,0,0,.1-.76A5.49,5.49,0,0,0,11,5.65,6.25,6.25,0,0,0,9.1,5a7.88,7.88,0,0,0-4.45.74c-.24.1-.67.09-.64.6,0,1,0,2.1.06,3.15,0,1.47.12,2.94.18,4.4C4.29,14.79,4.33,15.74,4.37,16.79Z"/><path class="cls-1" d="M179,26.71a10.18,10.18,0,0,1-2.29,3.66c-1.33,1.15-2.81,1.4-4.13.09a4.18,4.18,0,0,1-.88-1.62,8.13,8.13,0,0,1-.41-3.11,20.23,20.23,0,0,1,.58-3.86c.26-1.14.34-2.32.64-3.45a10.59,10.59,0,0,1,4.21-6.24,4.24,4.24,0,0,1,4.43-.35,1.31,1.31,0,0,1,.68,1.58l-.29.94c.65.1.57.54.53,1-.19,2.08-.34,4.17-.56,6.26-.27,2.65-.55,5.31-.92,8-.2,1.38-.61,2.72-.93,4.07s-.54,2.62-.94,3.89a14.44,14.44,0,0,1-2.09,4.5,8.13,8.13,0,0,1-1.37,1.38,3.59,3.59,0,0,1-4.07-.1,5.46,5.46,0,0,1-2.12-4c-.06-.44-.16-.87-.25-1.31a4.88,4.88,0,0,1,.3-2.07c.13-.59.15-1.21.26-1.8,0-.24.18-.56.36-.64a1.48,1.48,0,0,1,.8,0c.06,0,.11.16.12.25a8.71,8.71,0,0,0,1.52,4.16,6.11,6.11,0,0,0,1.09,1,.93.93,0,0,0,1.09,0,4.84,4.84,0,0,0,2.22-2.29,18.51,18.51,0,0,0,2.16-7.33c0-.68.18-1.35.26-2A5.5,5.5,0,0,0,179,26.71Zm.33-11.17A4.94,4.94,0,0,0,176.43,17a25.92,25.92,0,0,0-2.25,3,3.28,3.28,0,0,0-.58,1.6,7.87,7.87,0,0,0,.62,3.74c.61,1.33.69,1.3,2,.57.07,0,.11-.1.17-.15a8.53,8.53,0,0,0,2-3.11,40.06,40.06,0,0,0,1.84-6.07A.85.85,0,0,0,179.32,15.54Z"/><path class="cls-1" d="M90.22,25.68a4.14,4.14,0,0,0,1.94,2.4,4.36,4.36,0,0,0,3.41.29,8.34,8.34,0,0,0,3.84-2c.38-.32.61.3,1,.13a1.68,1.68,0,0,1,.11.56c-.11.52-.26,1-.41,1.55s-.38,1.19-.58,1.78a1.14,1.14,0,0,1-.26.44c-.67.63-1.33,1.28-2,1.86a6.11,6.11,0,0,1-6,1,5.24,5.24,0,0,1-2.4-1.38,5.56,5.56,0,0,1-1.43-3.65A14.18,14.18,0,0,1,88,24.06a15.28,15.28,0,0,0,.38-2.23,9.93,9.93,0,0,1,1.06-3.47,27.21,27.21,0,0,1,1.8-3.21,5.72,5.72,0,0,1,4.65-2.84,4,4,0,0,1,3.22,1.13,3.67,3.67,0,0,1,.79,3.42c-.24,1.13-.54,2.24-.81,3.37a6.61,6.61,0,0,1-3.67,4.44,8.66,8.66,0,0,1-4.41,1C90.74,25.63,90.51,25.67,90.22,25.68Zm.49-4.39.05.13c.7-.12,1.4-.22,2.09-.37a8.3,8.3,0,0,0,4.54-2.54c.35-.38.34-.51,0-.89-1-1.06-1.64-1-3.05-.41C92.51,18,91.57,19.62,90.71,21.29Z"/><path class="cls-1" d="M64.48,14.32a4.94,4.94,0,0,1,1,.23.65.65,0,0,1,.3.47c0,1.32,0,2.64.09,4,.08,2.23.12,4.46.32,6.67a7.68,7.68,0,0,0,.88,2.54,2.35,2.35,0,0,0,1.51,1.12.62.62,0,0,1,.8-.41c.47.13.61.25.51.73-.24,1.09-.48,2.17-.76,3.25a1.12,1.12,0,0,1-1.25.92A6.27,6.27,0,0,1,65.38,33c-1.2-.5-1.36-1.63-1.62-2.68a16.66,16.66,0,0,1-.28-1.8c-.2.5-.39.9-.53,1.31a6.67,6.67,0,0,1-2.6,3.42,2.06,2.06,0,0,1-1.84.17,3.79,3.79,0,0,1-2.17-1.74c-1.37-2-1.41-4.27-1.27-6.58A29,29,0,0,1,55.94,20c.19-.8.29-1.63.4-2.45a7.85,7.85,0,0,1,2.15-4.68,4.17,4.17,0,0,1,5.42-.5,1.32,1.32,0,0,1,.63,1.71C64.52,14.12,64.51,14.19,64.48,14.32Zm-.65,2.94c-.35-.14-.71-.17-.88-.37-.67-.76-1.51-.52-2.32-.49a1.06,1.06,0,0,0-.66.15,19.53,19.53,0,0,0-1.63,1.77,2.12,2.12,0,0,0-.47,1.09,37.92,37.92,0,0,0,0,4.13,7.28,7.28,0,0,0,1.68,4.1c.23.28.42.35.7.11a6.85,6.85,0,0,0,1.06-.94A8.43,8.43,0,0,0,63,22.91a36.62,36.62,0,0,1,.85-5.49A.38.38,0,0,0,63.83,17.26Z"/><path class="cls-1" d="M44.23,24.44c0,.69,0,1.38,0,2.08,0,1.14,0,2.28-.06,3.42a9.27,9.27,0,0,1-.38,1.51c-.14.59-.26,1.18-.38,1.77a.71.71,0,0,1-1,.26,1.11,1.11,0,0,1-.29-.63c0-.81,0-1.61,0-2.42,0-1.78,0-3.56,0-5.34,0-1.05-.06-2.11,0-3.16,0-1.95.08-3.91.1-5.86,0-1.54,0-3.09,0-4.63,0-1.83.05-3.65.05-5.48A1.88,1.88,0,0,0,42,5.42,1,1,0,0,1,42,5c.13-.72.24-1.46.42-2.17A5.39,5.39,0,0,1,43,1.52c.18-.32,1.15-.06,1.25.34A4.11,4.11,0,0,1,44.36,3c0,2.43,0,4.86,0,7.29,0,2,0,4-.06,6a.46.46,0,0,0,.15.32L47.37,13c.56-.71,1.1-1.44,1.67-2.14a1,1,0,0,1,1.24-.27.6.6,0,0,1,.24.48c-.19.94-.38,1.89-.65,2.82a4.81,4.81,0,0,1-.65,1.25c-.84,1.28-1.7,2.53-2.56,3.79,0,.05-.08.09-.11.14-.48.53-.45.51,0,1.12.88,1.26,1.78,2.51,2.58,3.82a20.32,20.32,0,0,1,1.41,2.89c.39.93.67,1.9,1,2.85a2,2,0,0,1-.12,1.42A11.77,11.77,0,0,0,51,32.85c-.07.3.06.73-.35.83a.83.83,0,0,1-.93-.53,3.65,3.65,0,0,0-1.11-1.42,2,2,0,0,1-.5-.67C47,29,45.85,27,44.73,24.94a4.7,4.7,0,0,0-.38-.53Z"/><path class="cls-1" d="M137.47,25.47a2.73,2.73,0,0,0,2.74,1.79,12,12,0,0,0,3.82-.58,3.43,3.43,0,0,1,1.41-.2c.28,0,.33.15.28.37a25.47,25.47,0,0,0-.67,2.81,1.81,1.81,0,0,1-1.27,1.45,17,17,0,0,1-4.62,1.26,3.63,3.63,0,0,1-4-2.24,8.53,8.53,0,0,1-.71-1.94,9.4,9.4,0,0,1,.08-3.66c.25-1.22.45-2.45.71-3.66A14.21,14.21,0,0,1,136.6,17c.35-.62.72-1.22,1.11-1.81a6.46,6.46,0,0,1,3.32-2.5,4.37,4.37,0,0,1,2.92.09,1.94,1.94,0,0,1,1.11,2.09c-.1.77-.32,1.53-.48,2.29s-.29,1.36-.4,2A5.92,5.92,0,0,1,143,21.68a7.41,7.41,0,0,1-1.24,1.57,19.59,19.59,0,0,1-2.47,1.64,4.11,4.11,0,0,1-1,.32Zm-.22-4.24h.2a10.66,10.66,0,0,0,5.27-3.75.36.36,0,0,0,0-.3c-.31-.39-.67-.27-1.08-.13A7.48,7.48,0,0,0,137.25,21.23Z"/><path class="cls-1" d="M155.93,27.84c-1-1-1.86-1.84-2.71-2.74a16.72,16.72,0,0,1-1.91-2.22,5.87,5.87,0,0,1-.61-4.44c.21-1,.43-2.09.58-3.14a4.34,4.34,0,0,1,2.49-3.36A5,5,0,0,1,159,12a1.2,1.2,0,0,1,.64,1.53c-.2.86-.39,1.73-.59,2.6-.09.4-.54.44-1,.16a7.58,7.58,0,0,0-1.35-.64,3.11,3.11,0,0,0-2.43.44,9.58,9.58,0,0,0-1.14.78.4.4,0,0,0-.16.53,4.88,4.88,0,0,0,1.69,2.4,18.13,18.13,0,0,1,2,1.7,12.51,12.51,0,0,1,1.66,2.12,4.28,4.28,0,0,1,.38,3.57A18.44,18.44,0,0,0,158,30a3.75,3.75,0,0,1-2.88,3.15A5,5,0,0,1,149.25,31c-.39-.61-.76-1.23-1.13-1.84A1.5,1.5,0,0,1,148,28q.3-1.38.51-2.79c.08-.53.3-.68.83-.52.32.1.59.1.55.58,0,.21.23.49.42.67.76.72,1.55,1.41,2.34,2.11s1.4.34,2.12.19A8.59,8.59,0,0,0,155.93,27.84Z"/><path class="cls-1" d="M26.24,28.94a1,1,0,0,1,1.26-.18.72.72,0,0,1,.1.55c-.19.87-.51,1.72-.61,2.59-.14,1.21-.86,1.53-2.07,1.19a4.57,4.57,0,0,1-3.26-3.69c-.11-.42-.21-.85-.31-1.24-.25.76-.47,1.56-.78,2.32a8.72,8.72,0,0,1-1,1.8,2.72,2.72,0,0,1-4.46,0,6.82,6.82,0,0,1-1.35-3.8,14,14,0,0,1,.42-4.23c.25-1.16.43-2.33.68-3.49a13.39,13.39,0,0,1,2.32-5,7.79,7.79,0,0,1,2.09-2.23A3.78,3.78,0,0,1,22.55,13a1.23,1.23,0,0,1,.83,1.48,2.27,2.27,0,0,0-.05,1.39,10.14,10.14,0,0,1,.2,2.34c0,1.56-.11,3.12,0,4.67a8.54,8.54,0,0,0,1.78,5.25A7.27,7.27,0,0,0,26.24,28.94ZM21.81,17a3.63,3.63,0,0,0-.75,0,4.18,4.18,0,0,0-2.15,1.33,20.47,20.47,0,0,0-1.78,2.38A7.69,7.69,0,0,0,16.08,23a6.86,6.86,0,0,0,.59,4.24,4.78,4.78,0,0,0,.75,1.19c.37.45.7.42,1.15.06a5.29,5.29,0,0,0,1.63-2.41A21,21,0,0,0,21,21.57c.16-1.08.34-2.16.52-3.24C21.62,17.91,21.71,17.49,21.81,17Z"/><path class="cls-1" d="M188.35,15.12c.62-.66,1.21-1.35,1.87-2a12.5,12.5,0,0,1,4.57-3.07,4.76,4.76,0,0,1,3.14,0,2.63,2.63,0,0,1,1.58,2,10,10,0,0,1,.39,4.44c-.18,1.26-.42,2.51-.65,3.76-.41,2.14-.81,4.29-1.25,6.42-.3,1.5-.66,3-1,4.47-.17.74-.29,1.48-.46,2.22a.72.72,0,0,1-1.26.43.66.66,0,0,1-.13-.51c.16-1.07.34-2.14.52-3.2.42-2.45.82-4.89,1.25-7.32.17-.92.47-1.82.57-2.74a10.37,10.37,0,0,0-.46-4.49,2.46,2.46,0,0,0-.33-.62,1,1,0,0,0-1.13-.53,6.67,6.67,0,0,0-3.38,1.48c-1.08,1-2.15,2-3.18,3.05a3.88,3.88,0,0,0-1.21,2.76,42.28,42.28,0,0,1-.47,5.27c-.22,1.51-.63,3-1,4.48-.12.55-.22,1.11-.36,1.66s-.31.67-1,.49c-.37-.09-.4-.29-.31-.82.14-.85.23-1.7.31-2.56.16-1.66.3-3.33.42-5,.07-.94.06-1.88.13-2.82.06-.77.19-1.53.29-2.29.13-1,.26-2.06.42-3.09.05-.33.2-.65.26-1,.13-.82.24-1.64.37-2.46a2,2,0,0,1,.05-.35c.06-.31.16-.59.56-.53.76.11.82.18.8.73S188.35,14.53,188.35,15.12Z"/><path class="cls-1" d="M34.86,11.6a6.06,6.06,0,0,1,3.51,1.3c.51.46.2.85.12,1.28-.15.73-.34,1.46-.48,2.19-.1.53-.17.6-.71.49a.93.93,0,0,1-.33-.12,5.05,5.05,0,0,0-2.15-.63c-1.23-.23-2,.47-2.78,1.2s-.71,1.77-.75,2.7a19.15,19.15,0,0,0,.14,3.3,9.41,9.41,0,0,0,2.08,4.87,6.14,6.14,0,0,0,.51.51c.69.61.92.69,1.69.23a21.15,21.15,0,0,0,1.94-1.48.6.6,0,0,0,.22-.28c.15-.57.52-.54,1-.43s.45.29.37.61a29.18,29.18,0,0,1-.87,3.49,5.48,5.48,0,0,1-1.29,1.73,7.3,7.3,0,0,1-1.53,1.24,2.37,2.37,0,0,1-1.26.29,4.45,4.45,0,0,1-2.86-1.52,6.91,6.91,0,0,1-1.94-3.63,22.21,22.21,0,0,1,.28-10.22c.26-1.06.36-2.17.63-3.23.47-1.78,1.34-3.27,3.31-3.77a3.56,3.56,0,0,1,.57-.08Z"/><path class="cls-1" d="M161.53,28.69c.22-1.45.43-2.9.64-4.35.13-.91.24-1.82.39-2.73.24-1.41.5-2.83.78-4.24.32-1.57.68-3.13,1-4.69.06-.26.1-.56.53-.48.71.14.76.13.7.69-.12,1.09-.29,2.17-.44,3.26-.31,2.3-.63,4.61-.93,6.92-.07.53-.07,1.06-.12,1.59a4.5,4.5,0,0,0,.47,2.11,1.34,1.34,0,0,0,1.59.88,4.71,4.71,0,0,0,2.05-.77c.17-.14.64,0,.94.12.08,0,.07.4,0,.6-.19.91-.37,1.82-.64,2.71a1.77,1.77,0,0,1-.65.91,7.9,7.9,0,0,1-3.33,1.22,2.35,2.35,0,0,1-2.42-1.24A8,8,0,0,1,161.53,28.69Z"/><path class="cls-1" d="M167,4.88c.18,0,.42.06.65.12a.51.51,0,0,1,.35.67c-.23,1-.46,2-.71,3a1.15,1.15,0,0,1-1.67.68.75.75,0,0,1-.2-.64c.1-.55.32-1.07.44-1.62a4.85,4.85,0,0,0,0-1A1.14,1.14,0,0,1,167,4.88Z"/></g></g></svg>