<svg xmlns="http://www.w3.org/2000/svg" viewBox="0 0 1000 202.41"><defs><style>.cls-1{fill:#8872a4;}</style></defs><g id="Layer_16_Image" data-name="Layer 16 Image"><path class="cls-1" d="M629.65,131.84a20.24,20.24,0,0,0,4.67,7.66,1.44,1.44,0,0,0,1.24.26c2.32-.73,4.59-1.6,6.91-2.31a3.53,3.53,0,0,1,1.77.27,16.83,16.83,0,0,0,2.19.7c2.05.24,4.11.39,6.17.52,1.61.1,1.86.57,1.53,2.12-.41,1.9-1.73,2.77-3.32,3.44-3.23,1.38-6.52,2.67-10.07,2.76a19.8,19.8,0,0,1-4.45-.78c-2.68-.58-5.33-1.32-8-1.8a16,16,0,0,1-12.32-9.15,29.77,29.77,0,0,1-3-14.25,36.84,36.84,0,0,1,1.65-9,31.53,31.53,0,0,1,5.72-10.8,20,20,0,0,1,9.11-6.34,7.29,7.29,0,0,1,4.94.07A28.18,28.18,0,0,0,643,96.77c2.44.06,4.83,3.08,5.25,4.8a22.19,22.19,0,0,1-1.22,14.18,27.2,27.2,0,0,1-7.78,10.59A64.53,64.53,0,0,1,632.7,131,10.83,10.83,0,0,1,629.65,131.84Zm-2-12.12c5.49-4.15,9.36-10.3,8.42-16.57C632.35,104.47,627.23,114.46,627.64,119.72Z"/><path class="cls-1" d="M390.94,74.08c.87-1.61,1.68-3.24,2.61-4.81,1.76-3,3.65-5.87,5.36-8.87,1.12-2,1.94-4.09,3-6.08s2.22-3.84,3.44-5.69c1.57-2.39,2.67-2.74,5.36-1.87A40.4,40.4,0,0,0,422,48.86c2.85.1,3.69,1.06,4.69,3.77,1.63,4.44,2.13,9.06,2.69,13.69.48,4,1.2,7.93,1.54,11.91.5,5.84.71,11.7,1.13,17.55.35,4.84.81,9.68,1.25,14.52.27,3,.51,6,.88,9,.44,3.56,1,7.1,1.51,10.64.45,3.06.94,6.12,1.44,9.17.12.71.19,1.31,1.22,1.61a1.76,1.76,0,0,1,1.23,2.45c-.28.69-.45,1.44-.67,2.16-.63,2.09-1.81,2.24-3.92,1.66-1.11-.31-2.19-.76-3.31-1-3.09-.68-6.17-1.45-9.3-1.87-2.61-.34-3.68-2.09-4.24-4.15a74.34,74.34,0,0,1-2-9.56c-.73-5.46-1.3-10.95-1.77-16.43-.51-5.93-.82-11.87-1.25-17.8-.52-7.29-1.07-14.58-1.64-22.32-.82,1.31-1.46,2.29-2.06,3.3-3,5.12-6,10.25-9.1,15.35a15.34,15.34,0,0,1-2,2.55c-1.71,1.83-3.76,1.89-6.06,1.25a58.82,58.82,0,0,0-8.92-2.07c-3.32-.38-5-2.21-5.93-5.1-.63-2-1-4.11-1.56-6.16a1,1,0,0,0-.53-.69c-.26,1-.51,2-.8,3-1.34,4.57-2.78,9.11-4,13.71-1.29,4.87-2.31,9.82-3.54,14.71q-2.25,8.93-4.64,17.79c-.64,2.36-1.45,4.68-2.23,7s-1.62,2.46-3.82,1.47a15.45,15.45,0,0,0-3.21-.73c-2.13-.44-4.27-.81-6.36-1.35-1.14-.3-1-1.45-.88-2.3.25-2,.57-4.11,1-6.13,1-4.47,2-8.92,3-13.37,1.6-6.83,3.15-13.69,4.9-20.48,1-3.87,2.41-7.63,3.55-11.47.82-2.75,1.36-5.58,2.27-8.3,1.69-5,3.53-10,5.37-15,.75-2,1.6-4,2.49-6,.78-1.73,1.86-1.9,3.67-1.46a78.65,78.65,0,0,0,10,1.86c2.39.26,3.64.75,4.32,3.07,1.12,3.8,2.13,7.63,3.14,11.46.36,1.4.61,2.83.91,4.25Z"/><path class="cls-1" d="M578.63,100.2c1.3-1,2.44-1.84,3.54-2.74a15.18,15.18,0,0,1,6.59-3.19,9.79,9.79,0,0,1,3.41.08c2.93.48,5.83,1.27,8.78,1.6,4.07.44,6.25,3,7.28,6.79,1.24,4.56.82,9.16.77,13.76,0,1.61-.37,3.21-.45,4.82,0,.77.28,1.57.27,2.35-.08,5.73-.15,11.47-.35,17.2a48,48,0,0,1-.78,5.56c-.12.8-.67.95-1.33.75-1.64-.48-3.25-1.07-4.91-1.49a30,30,0,0,0-3.4-.53c-1.87-.26-2.12-.63-2.09-2.48.06-3.55,0-7.1.07-10.65,0-1.39.16-2.78.13-4.17-.09-4.22-.15-8.44-.37-12.65-.19-3.49-.59-7-.92-10.45a14.28,14.28,0,0,0-.35-1.54L593,104.46a46,46,0,0,0-11.86,13.28,13.18,13.18,0,0,0-1.78,7.19c.23,5.62.24,11.26.27,16.88a6.81,6.81,0,0,1-.62,2.65,1.55,1.55,0,0,1-2,.83c-3.21-.8-6.43-1.54-9.65-2.27a1.62,1.62,0,0,1-1.42-1.76c0-1.47,0-2.93-.11-4.4-.26-6.33-.56-12.66-.79-19-.16-4.23-.31-8.46-.27-12.69a84.63,84.63,0,0,1,.62-9.41c.29-2.31,1.17-2.6,3.45-2,2.46.68,4.85,1.87,7.55,1.27.85-.18,1.35.35,1.52,1.16C578.13,97.5,578.36,98.79,578.63,100.2Z"/><path class="cls-1" d="M560.88,120.14a36,36,0,0,1-2.66,11,66.08,66.08,0,0,1-3.74,7.6c-2,3.68-5.41,6-9.05,7.76a9.63,9.63,0,0,1-7.13.19,55.13,55.13,0,0,0-8.23-2c-4.27-.56-7.37-2.77-10-6a21,21,0,0,1-3.65-7.32c-2.41-7.85-1.1-15.4,1.86-22.84a24.66,24.66,0,0,1,4.67-8c2.33-2.48,5-3.55,8.42-2.55a39.42,39.42,0,0,0,4.89,1.15A17.17,17.17,0,0,0,539,99a5.52,5.52,0,0,1,1.87.22,26.08,26.08,0,0,0,8.79,1.55,4.47,4.47,0,0,1,4.12,2.17,14.19,14.19,0,0,0,2.41,2.28,9.53,9.53,0,0,1,2.39,4.6c.3,1.14.83,2.23,1.08,3.38C560.1,115.53,560.46,117.84,560.88,120.14ZM535.2,138.78a18.9,18.9,0,0,0,7-7.08,22.56,22.56,0,0,0,3.64-10,33.58,33.58,0,0,0-.29-7,17.91,17.91,0,0,0-2.92-7.76,3.56,3.56,0,0,0-1.71-1.12,33.27,33.27,0,0,1-3.23-.87,2.41,2.41,0,0,0-3.08.73,15.09,15.09,0,0,0-3.69,7.29c-1.44,6.53-1.82,13.14.78,19.52A59.31,59.31,0,0,0,535.2,138.78Z"/><path class="cls-1" d="M478.54,112.29c1.16.09,2.21.2,3.27.24,1.85.08,2.27.44,2.27,2.28,0,5.54-.15,11.08.07,16.61a32.3,32.3,0,0,0,1.51,7.82c.75,2.49,2.85,3.62,5.38,3.91,1.93.22,1.93.2,1.47,2-.52,2-1,2.35-3.05,1.88-3.34-.78-6.71-1.46-10-2.42a60.63,60.63,0,0,1-6.15-2.54c-1.15.72-2.46,1.69-3.88,2.44a11.46,11.46,0,0,1-8.7.68c-2.75-.76-5.54-1.43-8.35-1.92-5.44-1-8.74-5.39-9.11-10.55a29.93,29.93,0,0,1,3.53-15.91,23.45,23.45,0,0,1,6.09-7.73c4.07-3.3,8.66-3.41,13.51-2.24,2.35.56,4.77.85,7.14,1.35a21.54,21.54,0,0,1,3.87,1.15C478.68,109.9,478.93,110.65,478.54,112.29Zm-8.24.08c-6.18,1.71-9.14,6.2-11.34,11.33-2,4.59-2.39,9.26,0,14.15a32.55,32.55,0,0,0,2.56-2.31,29.09,29.09,0,0,0,5.56-9.25C468.64,121.87,469.29,117.29,470.3,112.37Z"/><path class="cls-1" d="M496.6,135.4c.13-6.29.19-11.28.35-16.25.15-4.74.43-9.48.62-14.22.17-4.34.36-8.68.41-13,0-2.89-.22-5.79-.26-8.69,0-2.58.07-5.16.09-7.74s0-5,.08-7.48a22.3,22.3,0,0,1,.64-4.22c.3-1.21,1.16-1.34,2-.48a1.4,1.4,0,0,0,.63.45c2.55.23,5.11.45,7.67.64a2.11,2.11,0,0,1,2,2c.2,1.88.28,3.79.32,5.69.09,5.22.2,10.44.19,15.66,0,4.53-.2,9-.27,13.58,0,2.9,0,5.8,0,8.7,0,5.37-.16,10.74-.14,16.11,0,4.95.23,9.89.28,14.83a37.54,37.54,0,0,1-.38,4.73c-.16,1.31-.9,1.75-2.21,1.41-2.85-.76-5.69-1.54-8.54-2.32a1.07,1.07,0,0,0-.34-.09c-1.73.23-2.05-.88-2.21-2.23C497.2,139.71,496.8,136.91,496.6,135.4Z"/></g></svg>