<svg xmlns="http://www.w3.org/2000/svg" viewBox="0 0 1438.81 202.41"><defs><style>.cls-1{fill:#8872a4;}</style></defs><g id="Layer_16_Image" data-name="Layer 16 Image"><path class="cls-1" d="M582.55,74.61c1.31-1.87,2.46-3.56,3.65-5.23,2.18-3,4.49-6,6.53-9.07s4-6.67,6-10a8,8,0,0,1,2.23-2,1.45,1.45,0,0,1,1.22,0c3.27,1.5,6.81,1.75,10.29,2.07,3.1.28,3.58.66,3.08,3.72A37.44,37.44,0,0,1,610.18,68c-2,3.2-3.8,6.5-5.89,9.63-2.78,4.17-5.73,8.23-8.64,12.32a6.52,6.52,0,0,0-1.18,4.62c.36,3.84.39,7.71.6,11.56.16,3,.59,5.9.54,8.84-.06,3.17-.52,6.34-.85,9.51-.24,2.39-.5,4.79-.84,7.18-.37,2.62-.78,5.25-1.3,7.84a2.55,2.55,0,0,1-3.25,1.77c-3-.91-5.93-2-8.94-2.75a27.29,27.29,0,0,0-4.72-.55,2,2,0,0,1-2.05-1.85c-.78-7.11-1.9-14.21-2.17-21.34-.23-6,.53-12.08.89-18.11,0-.8,0-1.26-.89-1.65a4.55,4.55,0,0,1-1.92-1.87c-1.48-2.6-2.79-5.3-4.23-7.92-.56-1-1.37-1.88-1.9-2.9-1.77-3.43-3.57-6.84-5.15-10.36-2.14-4.78-4.12-9.64-6.11-14.49a64.53,64.53,0,0,1-2.8-7.62,10.94,10.94,0,0,1,.21-4.24c.1-.74.65-1,1.54-.72a52.38,52.38,0,0,0,11.92,2.17,5.13,5.13,0,0,1,3.21,1.64,117.07,117.07,0,0,1,15.5,24.46C581.93,73.56,582.17,73.92,582.55,74.61Z"/><path class="cls-1" d="M678.26,127.4c3.31-4.8,4.89-10.28,6-15.91.81-4.22,1.34-8.5,2-12.75.25-1.73.36-3.49.63-5.21.32-2,2.09-2.63,3.75-1.37a3.25,3.25,0,0,0,1.07.3c.42.1.84.2,1.27.27,1,.15,2,.27,2.94.44,1.33.22,2.66.46,4,.73a.75.75,0,0,1,.41.5,15,15,0,0,1,.42,2.47c.33,5.82.52,11.64,1,17.44A59.94,59.94,0,0,0,703,125a18.08,18.08,0,0,0,6.45,9.83c1.17.92,2.15,2.15,3.83,2.15a.54.54,0,0,1,.3.17c1.08.94.36,2.06.12,3-.12.5-1,1-1.57,1.15a4.69,4.69,0,0,1-2-.31c-2.74-.66-5.48-1.35-8.22-2-1.92-.47-3.81-.79-5.41-2.24a64.83,64.83,0,0,0-5.8-4.22,29.24,29.24,0,0,1-3.6,3.14,9.15,9.15,0,0,1-7.52,1.18c-3.38-.88-6.79-1.64-10.19-2.44a6.63,6.63,0,0,1-5-4.16,66.35,66.35,0,0,1-2.63-8.94,31.8,31.8,0,0,1-.52-6.76c0-3.42.18-6.85.5-10.25a76.43,76.43,0,0,1,1.33-8.49,72,72,0,0,1,2.09-7.43c.47-1.45,1.06-1.59,2.48-1.14a33.68,33.68,0,0,0,7.55,1.69c1.93.14,2.55,1,2.4,2.92-.39,5-.69,9.92-1,14.88a68.78,68.78,0,0,0,.08,12.51c.31,2.72.77,5.42,1.17,8.12Z"/><path class="cls-1" d="M786.59,124.58a13,13,0,0,0-3.25-8.78,62.41,62.41,0,0,0-6.52-6.59c-2.4-2.13-5.09-3.92-7.56-6-1.63-1.36-3.12-3-3.3-5.23a11.49,11.49,0,0,1,.41-4.68,14.14,14.14,0,0,1,7.18-7.78,7.7,7.7,0,0,1,5.1-.74c2.14.37,4.23,1,6.36,1.35,1.84.33,3.72.4,5.56.74,2.59.48,5.18,1,7.24,2.87a3.18,3.18,0,0,1,.35,4.09,1.58,1.58,0,0,1-1.28.25c-2.92-.64-5.82-1.35-8.72-2-.27-.06-.63-.1-.78-.28-.91-1.12-1.88-.64-2.91-.22a11.81,11.81,0,0,0-4.93,4.24c-1.23,1.65-.84,3.58,1,5.5a30.25,30.25,0,0,0,2.68,2.37c2.73,2.27,5.67,4.32,8.16,6.82,2.74,2.77,5.74,5.48,6.9,9.42.92,3.1,1.58,6.14.45,9.47a27.82,27.82,0,0,1-2.46,6,12.59,12.59,0,0,1-6.39,5,15.89,15.89,0,0,1-11,.09c-2.8-.89-5.73-1.35-8.6-2a11.16,11.16,0,0,1-7.48-6,44.79,44.79,0,0,0-2.35-3.87,1.85,1.85,0,0,1,.13-2.58,4.32,4.32,0,0,1,2.79-.24c1.85.25,3.65.87,5.5,1,3.08.26,3.1-.38,4.58,2.74a14.47,14.47,0,0,0,1.56,2.29c.31.41.71.76,1,1.16,1.78,2.25,2.94,2.4,5.35.67A11.48,11.48,0,0,0,786.59,124.58Z"/><path class="cls-1" d="M718.19,133.14c0-4.11,0-8.22,0-12.32-.05-4.61-.32-9.22-.2-13.82.15-5.41.6-10.81,1-16.22a29.75,29.75,0,0,1,.49-3.76c.24-1.22.87-1.51,2-1.09a28.54,28.54,0,0,0,8.28,1.56c1.61.1,2.1.38,2.33,2s.32,3.09.39,4.65c0,1,.23,1.32,1.45,1.25,2.5-.13,5,.12,7.53.23,1.24.06,2.47.26,3.7.25,3.17,0,6,1.42,9.12,1.75,1.18.13,2.37.22,3.56.31s1.66.63,1.38,1.88c-.47,2.15-.71,2.25-2.88,2.19-4.82-.14-9.64-.27-14.46-.2a6.4,6.4,0,0,0-4.53,1.75c-1.31,1.31-2.75,2.49-4.12,3.75a1.5,1.5,0,0,0-.51.77c-.17,1.42-.33,2.84-.4,4.27-.2,3.77-.35,7.54-.51,11.32-.11,2.61-.15,5.23-.3,7.85-.16,2.85-.33,5.71-.65,8.55-.15,1.34-.85,1.62-2.16,1.17-1.68-.57-3.33-1.28-5-1.71a26.17,26.17,0,0,0-4.06-.48c-1-.09-1.46-.64-1.44-1.66,0-1.4,0-2.79,0-4.19Z"/><path class="cls-1" d="M905.27,62.41a10.3,10.3,0,0,0-3.78,5.31c-1.9,6.06-1.9,12.25-1.82,18.48,0,1.83,0,3.66,0,5.71,3-.79,5.49.52,8.15,1.1,2,.45,4.17.56,6.26.84a6.4,6.4,0,0,1,1.63.35,1.36,1.36,0,0,1,.86,1.74,9.72,9.72,0,0,0-.27,1.16c-.14,1.21-.78,1.45-2,1.52-2.34.13-4.67.55-7,.87s-4.5.66-6.75.93c-.67.07-.89.29-.87,1q.33,10.7.64,21.41a62.23,62.23,0,0,1-1.86,16.48c-.49,2.08-1.14,2.39-3.16,1.91-3.1-.73-6.2-1.46-9.31-2.12a1.31,1.31,0,0,1-1.17-1.64c.89-5-.28-9.94-.37-14.91-.11-6.7-.17-13.41-.28-20.11,0-.67-.14-1.34-.19-1.85l-12.09-2.72c-.72-.16-1.57-.22-1.52-1.18s.06-2.27,1.31-2.58c3-.74,6-1.64,9.18-1.3,1,.11,2,.13,2.93.19.09-.14.16-.21.16-.28.09-3.5.16-7,.27-10.51.18-5.56.55-11.11,2.42-16.39a18.06,18.06,0,0,1,4.56-7.59,9.52,9.52,0,0,1,9-2.61c3.34.74,6.74,1.14,10.1,1.79a12.65,12.65,0,0,1,7.85,4.68,8.07,8.07,0,0,1,1.27,7.25c-.36,1.36-1,1.59-2.35,1.13a32.06,32.06,0,0,0-7.49-1.78c-1.67-.16-2.12-.72-2.58-2.29A33,33,0,0,0,905.27,62.41Z"/><path class="cls-1" d="M655.8,114.26a36,36,0,0,1-2.66,11,66.08,66.08,0,0,1-3.74,7.6c-2,3.68-5.41,6-9,7.76a9.63,9.63,0,0,1-7.13.19,55.13,55.13,0,0,0-8.23-2c-4.27-.56-7.37-2.77-10-6a21,21,0,0,1-3.65-7.32c-2.41-7.86-1.1-15.4,1.86-22.84a24.66,24.66,0,0,1,4.67-8c2.33-2.48,5-3.55,8.42-2.55a39.42,39.42,0,0,0,4.89,1.15,17.17,17.17,0,0,0,2.67-.1,5.28,5.28,0,0,1,1.87.22,26.08,26.08,0,0,0,8.79,1.55,4.45,4.45,0,0,1,4.12,2.17,14.19,14.19,0,0,0,2.41,2.28,9.45,9.45,0,0,1,2.39,4.6c.3,1.14.84,2.23,1.08,3.38C655,109.64,655.38,112,655.8,114.26ZM630.12,132.9a18.9,18.9,0,0,0,7-7.08,22.56,22.56,0,0,0,3.64-10,33.58,33.58,0,0,0-.29-7,17.91,17.91,0,0,0-2.92-7.76,3.49,3.49,0,0,0-1.71-1.12,33.27,33.27,0,0,1-3.23-.87,2.41,2.41,0,0,0-3.08.73,15.09,15.09,0,0,0-3.69,7.29c-1.44,6.53-1.82,13.14.78,19.52A59.31,59.31,0,0,0,630.12,132.9Z"/><path class="cls-1" d="M820.57,126a20.24,20.24,0,0,0,4.67,7.66,1.47,1.47,0,0,0,1.25.26c2.31-.73,4.58-1.6,6.91-2.31a3.49,3.49,0,0,1,1.76.27,18.66,18.66,0,0,0,2.2.7c2,.24,4.11.38,6.17.52,1.6.1,1.85.57,1.52,2.11-.4,1.91-1.73,2.78-3.31,3.45-3.24,1.38-6.52,2.67-10.07,2.76a19.7,19.7,0,0,1-4.45-.78c-2.68-.58-5.34-1.33-8-1.8a16,16,0,0,1-12.32-9.15,29.76,29.76,0,0,1-3-14.25,36.37,36.37,0,0,1,1.65-9,31.19,31.19,0,0,1,5.72-10.8,20,20,0,0,1,9.1-6.34,7.29,7.29,0,0,1,4.94.07A28.6,28.6,0,0,0,834,90.89c2.44.06,4.83,3.08,5.26,4.8A22.16,22.16,0,0,1,838,109.86a27.23,27.23,0,0,1-7.77,10.6,63.57,63.57,0,0,1-6.6,4.69A10.83,10.83,0,0,1,820.57,126Zm-2-12.12c5.49-4.16,9.37-10.3,8.43-16.58C823.27,98.59,818.16,108.58,818.56,113.84Z"/><path class="cls-1" d="M850.47,129.52c.13-6.29.19-11.28.35-16.25.15-4.75.43-9.48.62-14.22.17-4.34.36-8.68.4-13,0-2.9-.22-5.79-.25-8.69,0-2.58.06-5.16.09-7.74s0-5,.08-7.48a20.7,20.7,0,0,1,.64-4.22c.3-1.21,1.16-1.34,2-.48.19.18.41.42.64.44q3.83.36,7.67.65a2.1,2.1,0,0,1,2,2c.2,1.89.28,3.8.31,5.7.1,5.22.21,10.44.2,15.66,0,4.53-.21,9-.27,13.58,0,2.9,0,5.8,0,8.7,0,5.37-.16,10.74-.14,16.11,0,4.94.23,9.89.27,14.83a35.75,35.75,0,0,1-.37,4.73c-.16,1.31-.9,1.75-2.21,1.4-2.85-.75-5.7-1.54-8.54-2.31a1.23,1.23,0,0,0-.34-.09c-1.73.23-2-.88-2.21-2.23C851.07,133.82,850.67,131,850.47,129.52Z"/><path class="cls-1" d="M1003.5,141.38A53.39,53.39,0,0,1,990.17,139c-3.17-.92-6.45-1.42-9.7-2.06a23,23,0,0,1-12.9-6.74,17.29,17.29,0,0,1-2.39-3.89c-1.07-2.08-2-4.21-3-6.35-.63-1.39-1.23-2.8-1.74-4.24a5.4,5.4,0,0,1-.25-2c.13-2.45,1-3.07,3.32-2.3,1.43.49,2.82,1.11,4.25,1.57a8.35,8.35,0,0,0,2.23.33,12.64,12.64,0,0,0,2.38-.15c2-.34,2.83.86,3.75,2.39,3.28,5.42,6.34,11,11.47,15a5.39,5.39,0,0,0,5.13,1.24,24.12,24.12,0,0,0,9.94-5,8.49,8.49,0,0,0,1.38-2.13c4-6.9,2.58-13.26-2.06-19.2-1.89-2.43-4-4.71-6-7a38.08,38.08,0,0,0-3.91-4c-2.73-2.29-5.62-4.4-8.4-6.64-1.05-.84-2-1.86-3-2.77a34.11,34.11,0,0,1-3.36-3,19.45,19.45,0,0,1-4.44-17.61,33.85,33.85,0,0,1,5.31-12.26,18.39,18.39,0,0,1,6.52-5.71,11.72,11.72,0,0,1,7.39-1.61c1.64.24,3.22.9,4.86,1.19,2.4.43,4.86.58,7.24,1.09a27.24,27.24,0,0,1,6.3,1.94,58.44,58.44,0,0,1,7.24,4.33c1.77,1.18,2,4.48.57,6.06-.69.78-1.46.46-2.26.26-3-.74-5.94-1.4-8.88-2.19a7.38,7.38,0,0,1-1.84-1.12c-1.54-1-3-2.09-4.65-2.94-.38-.2-1.29.3-1.79.69a20.23,20.23,0,0,0-8.1,15.49c-.16,3.28,1.21,6.18,3,8.89,2.46,3.8,6.29,6.07,9.78,8.74,3.85,3,7.72,5.91,11.29,9.18a50.31,50.31,0,0,1,10.13,12.35,18.28,18.28,0,0,1,2.26,11,30.33,30.33,0,0,1-3,10.82,15.59,15.59,0,0,1-7.68,7.34,31.2,31.2,0,0,1-8.25,2.86C1006.51,141.16,1004.74,141.26,1003.5,141.38Z"/><path class="cls-1" d="M1139.48,138.3c-1.39,1.06-2.48,2-3.67,2.76-2.45,1.6-5.12,1.52-7.84.87-2.06-.5-4.11-1.08-6.2-1.49-5-1-8.17-4-10.28-8.52-2.21-4.71-2-9.72-1.91-14.68a120,120,0,0,1,1.08-12.69c.35-2.74,1.18-5.42,1.76-8.13.2-.93.23-1.9.49-2.81.5-1.72.77-1.72,2.47-1.41,2.43.44,4.89.72,7.34,1,.77.09,1.3.31,1.29,1.15s-.09,1.6-.18,2.4c-.47,4-1.15,8-1.37,12.07-.25,4.78-.29,9.59-.08,14.38a24.52,24.52,0,0,0,2.33,10.56c.4.77.91,1.48,1.54,2.49,1.39-1.24,2.71-2.26,3.83-3.46a35.73,35.73,0,0,0,7.86-14.34,63.72,63.72,0,0,0,2.64-14.9c.18-3,.19-6,.37-9a4.29,4.29,0,0,1,.72-2,1.35,1.35,0,0,1,1.3-.17c.9.78,2,.62,3,.77s1.77.38,2.65.56a5.61,5.61,0,0,0,1.5.22,1.71,1.71,0,0,1,2.12,1.7c0,1.71,0,3.43,0,5.14,0,2.58.19,5.17.21,7.75s0,5.12-.07,7.68c0,3.19-.05,6.38-.09,9.57,0,2.76-.12,5.52-.14,8.28q0,6.65,0,13.3c0,2.31.16,4.62.09,6.93a63.86,63.86,0,0,1-3.21,19.48c-1,2.89-2,5.83-4,8.21s-4.59,4.69-8.07,4.88a18.63,18.63,0,0,1-4.51-.7c-2.11-.43-4.19-1-6.31-1.39-3.95-.66-7.35-2.27-9.38-5.82a50.78,50.78,0,0,1-2.85-6.88c-.56-1.46-1-2.95-1.54-4.43a7.24,7.24,0,0,1,.08-5.28,1.17,1.17,0,0,1,1.73-.76,25.23,25.23,0,0,0,8.07,1.6c1.51,0,1.56.37,1.91,1.9a50.82,50.82,0,0,0,2.14,7.13c.94,2.41,2.19,4.71,3.32,7.05.36.77.82.77,1.47.24a16.19,16.19,0,0,0,4.57-6.64c2.33-5.79,3.14-11.88,3.46-18.06.2-4,.29-8.06.41-12.09C1139.52,141.32,1139.48,139.91,1139.48,138.3Z"/><path class="cls-1" d="M1063.82,129.52c.13-6.29.19-11.28.35-16.25.15-4.75.43-9.48.62-14.22.17-4.34.36-8.68.41-13,0-2.9-.22-5.79-.26-8.69,0-2.58.06-5.16.09-7.74s0-5,.08-7.48a22.18,22.18,0,0,1,.64-4.22c.3-1.21,1.16-1.34,2-.48.18.18.4.42.63.44q3.82.36,7.67.65a2.1,2.1,0,0,1,2,2c.2,1.89.28,3.8.32,5.7.09,5.22.2,10.44.19,15.66,0,4.53-.2,9-.27,13.58,0,2.9,0,5.8,0,8.7,0,5.37-.16,10.74-.14,16.11,0,4.94.23,9.89.28,14.83a37.54,37.54,0,0,1-.38,4.73c-.16,1.31-.9,1.75-2.21,1.4-2.85-.75-5.69-1.54-8.54-2.31a1.07,1.07,0,0,0-.34-.09c-1.73.23-2-.88-2.21-2.23C1064.42,133.82,1064,131,1063.82,129.52Z"/><path class="cls-1" d="M1085.74,129.52c.13-6.29.19-11.28.35-16.25.15-4.75.43-9.48.61-14.22.17-4.34.36-8.68.41-13,0-2.9-.22-5.79-.26-8.69,0-2.58.07-5.16.1-7.74s0-5,.08-7.48a21.4,21.4,0,0,1,.63-4.22c.31-1.21,1.17-1.34,2-.48.18.18.41.42.63.44q3.84.36,7.67.65a2.11,2.11,0,0,1,2,2c.2,1.89.28,3.8.31,5.7.1,5.22.21,10.44.2,15.66,0,4.53-.21,9-.27,13.58,0,2.9,0,5.8,0,8.7,0,5.37-.17,10.74-.14,16.11,0,4.94.23,9.89.27,14.83a35.75,35.75,0,0,1-.37,4.73c-.16,1.31-.9,1.75-2.22,1.4-2.85-.75-5.69-1.54-8.53-2.31a1.21,1.21,0,0,0-.35-.09c-1.72.23-2-.88-2.21-2.23C1086.33,133.82,1085.94,131,1085.74,129.52Z"/><path class="cls-1" d="M1032.88,128.79c.46-8,.77-15.07,2.39-22,.51-2.17,1.18-4.3,1.84-6.43.33-1,1.13-1.35,2.33-.94a28.91,28.91,0,0,0,8.64,1.62c1.45,0,2,.55,1.84,2-.2,2.3-.59,4.58-.86,6.87-.41,3.44-.93,6.88-1.14,10.34a98.39,98.39,0,0,0-.16,10.86c.16,3.42.34,3.43,3.71,4a22.72,22.72,0,0,0,2.61.17c1.29.05,1.64.53,1.31,1.73-.1.34,0,.74-.09,1.07s-.35,1.1-.72,1.26a38.45,38.45,0,0,1-4.86,1.94,4.58,4.58,0,0,1-2.22-.14c-3-.68-5.91-1.63-8.92-2.07a5.41,5.41,0,0,1-4.77-4.51A54,54,0,0,1,1032.88,128.79Z"/><path class="cls-1" d="M1035.5,82.79a12.32,12.32,0,0,1,.34-1.43c.39-1.13,1-1.34,2.27-1.07a14.55,14.55,0,0,0,2.39.14,2.93,2.93,0,0,1,1,.1,22.55,22.55,0,0,0,8,1.66c.79.06,2-.36,2.14.69a7.56,7.56,0,0,1-.87,3.08c-.2.52-.72.91-.93,1.42-.61,1.47-1.39,1.71-2.91,1.28-2.69-.77-5.42-1.45-8.17-2A3.74,3.74,0,0,1,1035.5,82.79Z"/><path class="cls-1" d="M286.59,127.29c0-9.06,0-18.46,0-27.85,0-4.81-.1-9.63-.21-14.44a71.39,71.39,0,0,1,2.44-21,33.45,33.45,0,0,1,3.61-8.32c1.21-2,3.27-3.47,4.84-5.28a19.37,19.37,0,0,1,8.38-5.61,12.6,12.6,0,0,1,8.29,0,41.71,41.71,0,0,0,12.48,2.34,9.58,9.58,0,0,1,6.65,2.42c1.39,1.29,3.32,2.09,4.43,3.55,4.23,5.55,6.65,11.68,5.2,18.88-1,4.82-2.64,9.29-6,13A21.91,21.91,0,0,1,334,87.33c-1.95,1.55-3.87,3.14-5.92,4.54a57.46,57.46,0,0,1-13,6.31c-3.44,1.27-6.84,2.66-10.24,4a1.29,1.29,0,0,0-.61,1c-.1,2.55-.17,5.09-.15,7.63,0,2.9.23,5.79.24,8.69q0,8.93-.16,17.84a12.93,12.93,0,0,1-.67,3.28c-.09.31-.63.76-.89.73-1.25-.18-2.48-.53-3.72-.79q-3.06-.63-6.13-1.23c-1.06-.21-2.11-.4-3.17-.58a1.73,1.73,0,0,1-1.56-1.6C287.52,134,287.09,130.83,286.59,127.29Zm17.79-41.06a6.93,6.93,0,0,0,1.1-.5c2.57-1.76,5.24-3.41,7.68-5.36a32.13,32.13,0,0,0,5.25-5.24,14.18,14.18,0,0,0,3.1-9,22.93,22.93,0,0,0-2.59-10c-.34-.7-.78-1.07-1.55-.43-1,.86-2.14,1.61-3.16,2.47A20.56,20.56,0,0,0,308.45,65C305.26,71.65,304.31,78.75,304.38,86.23Z"/><path class="cls-1" d="M476.87,99.53,462,96.44c-.9-.18-1.6-.44-1.51-1.59.13-1.54.56-2.23,1.76-2.24,3.91,0,7.83,0,11.74,0a24.75,24.75,0,0,0,3.34-.12c.32,0,.74-.61.83-1,.59-2.72,1-5.51,1.69-8.19,1.33-4.83,2.86-9.6,4.3-14.4.68-2.25,1.38-4.5,2-6.77.56-2,.9-2.1,2.85-1.57,2.41.65,4.8,1.46,7.37,1.35,1.76-.07,2.32.48,2.06,2.23-.67,4.5-1.39,9-2.28,13.44s-2,8.78-3,13.17a4,4,0,0,0,0,.72,11.65,11.65,0,0,0,1.87,0c1.82-.29,3.54.24,5.3.5,3.08.46,6.17.88,9.27,1.21,2,.21,2.22.4,1.92,2.3-.33,2.08-1,2.7-3.22,2.85-5.21.35-10.42.7-15.63,1-.83,0-1.1.34-1.19,1.09-.4,3.43-.86,6.86-1.25,10.3-.46,4-1,8.06-1.25,12.1a23.18,23.18,0,0,0,1.29,10.4c.13.31.93.66,1.15.53a7.37,7.37,0,0,0,2-1.62,2.15,2.15,0,0,1,2.75-.76,52.35,52.35,0,0,0,5.57,1.14c1.08.19,2.19.17,3.28.33s1.28.79,1.14,1.75c-.42,2.91-1.77,4.87-4.8,5.7-3.27.91-6.48,1.58-9.86.68-2.58-.68-5.18-1.29-7.77-1.94a25.22,25.22,0,0,1-4.45-1.24c-2.63-1.26-3.66-3.76-4.21-6.44-1-5.17-.65-10.39-.21-15.59.27-3.19.65-6.37,1-9.55C476.17,103.92,476.55,101.66,476.87,99.53Z"/><path class="cls-1" d="M426.51,94.32c1.29-1,2.44-1.84,3.54-2.74a15,15,0,0,1,6.58-3.19,9.55,9.55,0,0,1,3.41.08c2.94.48,5.83,1.27,8.78,1.6,4.08.44,6.25,3,7.28,6.79,1.25,4.56.82,9.16.77,13.76,0,1.61-.36,3.21-.45,4.82,0,.77.28,1.56.27,2.35-.08,5.73-.14,11.47-.34,17.2a50.23,50.23,0,0,1-.78,5.56c-.12.8-.67.95-1.33.75-1.65-.48-3.26-1.07-4.92-1.49a29.35,29.35,0,0,0-3.4-.53c-1.86-.27-2.12-.63-2.09-2.48.06-3.55,0-7.1.07-10.65,0-1.39.16-2.78.13-4.17-.08-4.22-.14-8.44-.37-12.66-.19-3.48-.59-7-.92-10.44a12.2,12.2,0,0,0-.35-1.54l-1.55,1.24A46.08,46.08,0,0,0,429,111.86a13.27,13.27,0,0,0-1.78,7.19c.24,5.62.24,11.25.27,16.88a6.81,6.81,0,0,1-.62,2.65,1.55,1.55,0,0,1-2,.83c-3.2-.8-6.42-1.54-9.65-2.27a1.61,1.61,0,0,1-1.41-1.77c0-1.46,0-2.93-.11-4.39-.26-6.33-.57-12.66-.8-19-.15-4.23-.31-8.46-.27-12.69a82.3,82.3,0,0,1,.63-9.41c.28-2.31,1.17-2.6,3.44-2,2.46.68,4.85,1.87,7.55,1.27.86-.19,1.36.35,1.52,1.16C426,91.62,426.24,92.91,426.51,94.32Z"/><path class="cls-1" d="M360.77,106.41c1.16.09,2.21.19,3.26.24,1.86.07,2.28.44,2.28,2.28,0,5.54-.15,11.08.07,16.61a32.37,32.37,0,0,0,1.5,7.82c.76,2.49,2.85,3.62,5.39,3.91,1.92.21,1.93.2,1.46,2-.51,2-1,2.35-3,1.88-3.34-.78-6.71-1.46-10-2.42a60.35,60.35,0,0,1-6.15-2.55c-1.14.73-2.45,1.7-3.88,2.45a11.48,11.48,0,0,1-8.69.67c-2.75-.75-5.55-1.42-8.36-1.91-5.43-1-8.74-5.4-9.1-10.55A29.81,29.81,0,0,1,329,111a23.43,23.43,0,0,1,6.08-7.73c4.08-3.3,8.67-3.41,13.51-2.24,2.36.56,4.78.85,7.15,1.35a21.43,21.43,0,0,1,3.86,1.15C360.9,104,361.15,104.77,360.77,106.41Zm-8.24.08c-6.19,1.71-9.14,6.19-11.34,11.33-2,4.59-2.4,9.26-.06,14.15a29.16,29.16,0,0,0,2.56-2.32,28.86,28.86,0,0,0,5.56-9.24C350.87,116,351.52,111.41,352.53,106.49Z"/><path class="cls-1" d="M383.47,128.79c.46-8,.77-15.07,2.39-22,.51-2.17,1.18-4.3,1.84-6.43.33-1,1.13-1.35,2.33-.94a28.91,28.91,0,0,0,8.64,1.62c1.45,0,2,.55,1.84,2-.2,2.3-.59,4.58-.86,6.87-.41,3.44-.93,6.88-1.14,10.34a98.39,98.39,0,0,0-.16,10.86c.16,3.42.34,3.43,3.71,4a22.72,22.72,0,0,0,2.61.17c1.29.05,1.64.53,1.31,1.73-.1.34,0,.74-.09,1.07s-.35,1.1-.72,1.26a38.45,38.45,0,0,1-4.86,1.94,4.58,4.58,0,0,1-2.22-.14c-3-.68-5.91-1.63-8.92-2.07a5.41,5.41,0,0,1-4.77-4.51A54,54,0,0,1,383.47,128.79Z"/><path class="cls-1" d="M386.09,82.79a12.32,12.32,0,0,1,.34-1.43c.39-1.13,1-1.34,2.27-1.07a14.55,14.55,0,0,0,2.39.14,2.93,2.93,0,0,1,1,.1,22.55,22.55,0,0,0,8,1.66c.79.06,2-.36,2.14.69a7.56,7.56,0,0,1-.87,3.08c-.2.52-.72.91-.93,1.42-.61,1.47-1.39,1.71-2.91,1.28-2.69-.77-5.42-1.45-8.17-2A3.74,3.74,0,0,1,386.09,82.79Z"/></g></svg>