<svg xmlns="http://www.w3.org/2000/svg" viewBox="0 0 1000 202.41"><defs><style>.cls-1{fill:#8872a4;}</style></defs><g id="Layer_16_Image" data-name="Layer 16 Image"><path class="cls-1" d="M587.54,91.77c.86-1.6,1.67-3.24,2.6-4.81,1.76-3,3.65-5.87,5.36-8.87,1.12-2,1.94-4.09,3-6.08s2.22-3.84,3.44-5.69c1.57-2.39,2.67-2.74,5.36-1.86a40.38,40.38,0,0,0,11.21,2.09c2.85.1,3.69,1.06,4.69,3.78,1.63,4.44,2.13,9,2.69,13.69.49,4,1.2,7.92,1.54,11.91.5,5.83.71,11.7,1.13,17.54.35,4.84.81,9.68,1.25,14.52.27,3,.52,6,.88,9,.44,3.55,1,7.09,1.51,10.63q.69,4.59,1.44,9.17c.12.71.19,1.32,1.22,1.61a1.75,1.75,0,0,1,1.23,2.45,22.47,22.47,0,0,0-.66,2.16c-.63,2.09-1.82,2.24-3.93,1.66-1.11-.31-2.19-.76-3.31-1-3.09-.68-6.17-1.45-9.3-1.87-2.61-.34-3.68-2.09-4.24-4.15a74.34,74.34,0,0,1-2-9.56c-.73-5.46-1.3-10.94-1.77-16.43-.51-5.92-.82-11.86-1.24-17.79-.53-7.3-1.08-14.59-1.65-22.33-.82,1.31-1.46,2.29-2.06,3.3-3,5.12-6,10.25-9.1,15.35a15.34,15.34,0,0,1-2,2.55c-1.71,1.83-3.76,1.89-6,1.25a59.38,59.38,0,0,0-8.92-2.07c-3.33-.38-5-2.21-5.94-5.09-.63-2-1-4.11-1.56-6.17a1.05,1.05,0,0,0-.52-.69c-.27,1-.52,2-.81,3-1.33,4.57-2.78,9.11-4,13.71-1.29,4.88-2.31,9.82-3.54,14.71q-2.24,8.93-4.64,17.8c-.64,2.36-1.45,4.67-2.23,7s-1.62,2.46-3.82,1.47a16.11,16.11,0,0,0-3.21-.73c-2.12-.44-4.27-.8-6.36-1.35-1.14-.3-1-1.44-.88-2.29.26-2.06.57-4.12,1-6.14,1-4.47,2-8.92,3-13.37,1.6-6.83,3.15-13.68,4.9-20.48,1-3.87,2.41-7.63,3.56-11.47.81-2.75,1.35-5.58,2.26-8.29,1.69-5,3.54-10,5.38-15,.74-2,1.6-4,2.48-6,.78-1.74,1.86-1.91,3.68-1.47a76.77,76.77,0,0,0,9.95,1.86c2.39.26,3.65.75,4.32,3.07,1.12,3.8,2.13,7.64,3.14,11.47.37,1.39.61,2.82.91,4.24Z"/><path class="cls-1" d="M799.49,148.15a13,13,0,0,0-3.25-8.78,62.41,62.41,0,0,0-6.52-6.59c-2.41-2.12-5.1-3.92-7.56-6-1.63-1.37-3.12-3-3.31-5.24a11.49,11.49,0,0,1,.42-4.68,14.19,14.19,0,0,1,7.17-7.78,7.67,7.67,0,0,1,5.11-.73c2.13.36,4.23,1,6.36,1.34,1.84.33,3.72.41,5.56.75,2.59.47,5.18,1,7.24,2.86a3.2,3.2,0,0,1,.35,4.09,1.62,1.62,0,0,1-1.28.26c-2.92-.65-5.82-1.35-8.73-2-.26-.06-.62-.1-.77-.28-.91-1.11-1.88-.64-2.91-.22a11.88,11.88,0,0,0-4.93,4.24c-1.23,1.65-.84,3.58,1,5.5a30.12,30.12,0,0,0,2.67,2.37c2.73,2.27,5.68,4.32,8.17,6.83,2.74,2.76,5.74,5.47,6.9,9.41.92,3.1,1.58,6.15.45,9.47a27.65,27.65,0,0,1-2.47,6,12.47,12.47,0,0,1-6.38,5,15.89,15.89,0,0,1-11,.09c-2.8-.88-5.74-1.35-8.6-2a11.13,11.13,0,0,1-7.48-6c-.71-1.33-1.51-2.61-2.35-3.87a1.85,1.85,0,0,1,.13-2.58,4.39,4.39,0,0,1,2.79-.24c1.84.26,3.65.87,5.49,1,3.09.25,3.11-.39,4.59,2.73a14,14,0,0,0,1.56,2.29c.31.41.7.76,1,1.17,1.78,2.24,2.94,2.39,5.34.66A11.43,11.43,0,0,0,799.49,148.15Z"/><path class="cls-1" d="M747,109.76c.18-2.21.41-4.12.48-6,.32-8.78.5-17.56.93-26.32.21-4.17.84-8.31,1.38-12.45a15.26,15.26,0,0,1,1-3.51,1.69,1.69,0,0,1,2.53-1.15c1.59.65,3.28,1,4.91,1.63a7.31,7.31,0,0,1,1.39.9,3.94,3.94,0,0,1,4-.65,2.51,2.51,0,0,1,1.75,2.62c0,4.27.24,8.55.11,12.81-.19,6-.67,12-.93,18-.29,6.68-.45,13.37-.73,20-.22,5.4-.52,10.79-.82,16.18a50.07,50.07,0,0,0-.39,6.45c.22,2.83.91,5.62,1.4,8.43a15.6,15.6,0,0,0,4.21,7.8,2.66,2.66,0,0,1,.62,3.17c-.9,2.19-.76,2-3.24,1.57-3.53-.66-6.85-2.31-10.53-2.22a.21.21,0,0,1-.14,0c-1.68-1.5-2.56.15-3.32,1.05-2.5,2.92-5.58,3.41-9.08,2.6-4.06-1-8.12-1.89-12.17-2.9a13.21,13.21,0,0,1-10-9.69,51.9,51.9,0,0,1-1.36-8.84c-.52-4.45.68-8.43,1.85-12.55s2.58-8,5.41-11.19c3.32-3.68,7-7.1,12.36-7.41a13.15,13.15,0,0,1,3.45.43C743.69,108.86,745.22,109.3,747,109.76Zm-8.8,40.63a22.05,22.05,0,0,0,5-8.88,102.63,102.63,0,0,0,2.7-13.76,17.34,17.34,0,0,0-1.68-10.09C735,124.43,733.07,140,738.19,150.39Z"/><path class="cls-1" d="M683.22,117.89c1.29-1,2.44-1.84,3.54-2.74a15.13,15.13,0,0,1,6.59-3.19,9.73,9.73,0,0,1,3.4.08c2.94.48,5.84,1.27,8.79,1.6,4.07.45,6.24,3,7.27,6.8,1.25,4.55.82,9.16.77,13.75,0,1.61-.36,3.21-.45,4.82,0,.77.29,1.57.27,2.35-.08,5.74-.14,11.47-.34,17.21a50.39,50.39,0,0,1-.78,5.55c-.12.8-.67.95-1.33.75-1.64-.48-3.26-1.07-4.91-1.49a32.25,32.25,0,0,0-3.41-.53c-1.86-.26-2.12-.63-2.08-2.48.06-3.55,0-7.1.06-10.64,0-1.39.16-2.79.13-4.18-.08-4.22-.14-8.44-.37-12.65-.19-3.49-.59-7-.91-10.45a14.28,14.28,0,0,0-.35-1.54l-1.56,1.24a46.12,46.12,0,0,0-11.87,13.29,13.24,13.24,0,0,0-1.78,7.19c.24,5.62.24,11.25.27,16.87a6.63,6.63,0,0,1-.62,2.65,1.54,1.54,0,0,1-2,.83c-3.2-.8-6.42-1.54-9.64-2.27a1.61,1.61,0,0,1-1.42-1.76c0-1.47,0-2.93-.11-4.4-.26-6.33-.57-12.66-.8-19-.15-4.23-.31-8.46-.27-12.69a82.3,82.3,0,0,1,.63-9.41c.28-2.31,1.17-2.6,3.45-2,2.46.68,4.85,1.87,7.54,1.28.86-.19,1.36.34,1.52,1.16C682.71,115.2,683,116.48,683.22,117.89Z"/><path class="cls-1" d="M642.33,152.36c.46-8,.76-15.06,2.38-22,.51-2.17,1.19-4.31,1.85-6.44.33-1,1.13-1.35,2.33-.94a28.23,28.23,0,0,0,8.63,1.62c1.45,0,2,.56,1.85,2-.2,2.3-.6,4.58-.87,6.88-.41,3.44-.92,6.87-1.14,10.33a103.56,103.56,0,0,0-.16,10.86c.16,3.43.34,3.43,3.71,3.95a22.9,22.9,0,0,0,2.62.17c1.28,0,1.64.53,1.3,1.74-.09.33,0,.74-.09,1.06s-.35,1.1-.71,1.27a40.61,40.61,0,0,1-4.86,1.93,4.62,4.62,0,0,1-2.23-.14c-3-.68-5.91-1.63-8.92-2.07a5.41,5.41,0,0,1-4.77-4.51A53.56,53.56,0,0,1,642.33,152.36Z"/><path class="cls-1" d="M644.94,106.36c.09-.35.17-.9.35-1.43.39-1.12,1-1.34,2.26-1.07a15.74,15.74,0,0,0,2.39.15,3,3,0,0,1,1,.09,22.54,22.54,0,0,0,8,1.66c.8.07,2-.36,2.14.69a7.22,7.22,0,0,1-.87,3.08c-.2.52-.71.91-.92,1.43-.62,1.46-1.39,1.7-2.91,1.27-2.7-.77-5.43-1.45-8.18-2A3.76,3.76,0,0,1,644.94,106.36Z"/><path class="cls-1" d="M261.78,115.25c1.28,5.8,2.52,11.6,3.84,17.39,1.38,6,2.9,12,4.25,18.07a54.89,54.89,0,0,1,1.27,8,17.11,17.11,0,0,1-.73,5.08c-.3,1.17-1.56,1.5-3.13.62-2.23-1.24-4.74-1-7.07-1.67-1.55-.43-3.17-.59-4.76-.89-.69-.12-1-.34-.95-1.26a19.19,19.19,0,0,0-.7-4.13c-1.1-5.36-2.19-10.71-3.34-16.06-.33-1.52-.9-3-1.27-4.51-1.24-5.07-2.4-10.15-3.67-15.2-.61-2.42-1.35-4.8-2.12-7.17a1.59,1.59,0,0,0-1.07-.89c-5.1-.53-10.22-.93-15.32-1.5-1.67-.18-2.3.62-2.74,2-3.2,9.64-6.38,19.29-9.63,28.91q-2.47,7.35-5.16,14.62a48.17,48.17,0,0,1-2.66,5.74c-.81,1.53-1.86,1.6-3.31.71a12,12,0,0,0-3.1-1.15c-1.45-.39-2.93-.68-4.4-1-1.14-.22-2.28-.41-3.43-.58s-2.41-1.12-3.82-.52c-.12.05-1-1-1-1.4a32,32,0,0,1,1.22-5.31c.8-2.38,1.83-4.68,2.69-7,1.11-3,2.11-6.15,3.23-9.19,1.7-4.57,3.52-9.1,5.19-13.68,3.45-9.44,6.82-18.91,10.25-28.35.93-2.54,2-5,3-7.55,1.63-4.34,3.17-8.71,4.82-13,1.1-2.85,2.28-5.66,3.52-8.45.66-1.46,1.54-2.82,2.31-4.23a1.89,1.89,0,0,0,.26-.65c.26-3.06,1.82-5.66,3-8.39a11.34,11.34,0,0,1,2.41-3.33,2.64,2.64,0,0,1,2.09-.59c3.09.59,6.14,1.41,9.22,2,1.48.3,3,.35,4.52.53A2,2,0,0,1,247.35,53c.37,1.51,1.17,2.91,1.63,4.41,1.13,3.6,2.35,7.19,3.19,10.86,1,4.24,1.44,8.59,2.36,12.84.79,3.68,2,7.27,2.85,10.93.4,1.66.4,3.41.76,5.08.59,2.78,1.32,5.53,2,8.29.06.24.11.48.15.73.44,2.58.43,2.6,3.11,3.07,1.51.27,3,.4,4.52.74,1.83.43,2.16,1.15,1.62,3a3.11,3.11,0,0,0-.07.44c-.41,2.67-1,3-3.61,2.33-1.17-.33-2.38-.54-3.57-.8Zm-25-34.58-.51,0-8.11,23.19,13.15,1.7C239.75,97,238.26,88.85,236.77,80.67Z"/><path class="cls-1" d="M336.87,123.1C331.78,122,326.88,121,322,120c-.9-.19-1.6-.44-1.5-1.6.12-1.53.55-2.23,1.75-2.24,3.92,0,7.83,0,11.74,0a26.66,26.66,0,0,0,3.35-.11c.32,0,.73-.62.82-1,.6-2.72,1-5.5,1.7-8.19,1.32-4.83,2.86-9.6,4.3-14.4.67-2.25,1.37-4.5,2-6.76.56-2,.9-2.11,2.85-1.58,2.41.65,4.8,1.46,7.38,1.35,1.75-.07,2.31.48,2.05,2.24-.67,4.49-1.39,9-2.28,13.43s-2,8.78-3,13.17a4.24,4.24,0,0,0,0,.72,11.53,11.53,0,0,0,1.86,0c1.83-.29,3.55.24,5.31.51,3.08.45,6.17.88,9.26,1.21,2,.21,2.22.39,1.92,2.3-.33,2.07-1,2.7-3.22,2.84-5.21.35-10.41.7-15.63,1-.83,0-1.09.34-1.18,1.09-.41,3.44-.87,6.86-1.26,10.3-.45,4-1,8.06-1.24,12.1a23.08,23.08,0,0,0,1.28,10.41,1.35,1.35,0,0,0,1.15.53,7.44,7.44,0,0,0,2-1.63,2.17,2.17,0,0,1,2.76-.76,52.72,52.72,0,0,0,5.56,1.15c1.08.18,2.2.17,3.28.33s1.28.79,1.14,1.75c-.42,2.9-1.77,4.86-4.8,5.69-3.27.91-6.48,1.59-9.86.69-2.58-.69-5.18-1.29-7.76-1.95a23.51,23.51,0,0,1-4.46-1.24c-2.63-1.25-3.66-3.75-4.2-6.43-1.05-5.18-.66-10.4-.22-15.6.27-3.19.65-6.37,1-9.54C336.17,127.49,336.55,125.23,336.87,123.1Z"/><path class="cls-1" d="M421.45,146.48c2.3-5.25,4.56-10.52,6.91-15.75,1.6-3.56,3.23-7.12,5-10.59s.91-3,5.31-2.26c2.47.4,4.94.76,7.41,1.14.82.13,1.39.48,1.09,1.43A31.52,31.52,0,0,1,446,123.8c-1.53,3.45-3.19,6.84-4.7,10.3-1.58,3.65-3,7.36-4.59,11-1.7,3.95-3.46,7.88-5.21,11.81-.75,1.7-1.46,3.44-2.37,5.06a7.89,7.89,0,0,1-2.21,2.58,3.56,3.56,0,0,1-2.47.31c-2.83-.57-5.61-1.41-8.46-1.9a3.38,3.38,0,0,1-2.7-1.87,45.55,45.55,0,0,1-2.2-5c-1.4-3.92-2.77-7.87-4-11.85-1.68-5.4-3.25-10.83-4.86-16.25a59.44,59.44,0,0,1-1.72-6.2,14,14,0,0,1,.12-4.23c.11-.81.81-1.14,1.67-.8a33.52,33.52,0,0,0,9,1.78,2.07,2.07,0,0,1,1.44,1.15c1.14,3.21,2.18,6.47,3.2,9.73.66,2.09,1.2,4.21,1.85,6.3,1.1,3.57,2.24,7.13,3.37,10.69Z"/><path class="cls-1" d="M463.14,149.53a20.61,20.61,0,0,0,4.67,7.67,1.53,1.53,0,0,0,1.25.26c2.31-.74,4.59-1.61,6.91-2.32a3.64,3.64,0,0,1,1.77.27,16.36,16.36,0,0,0,2.19.7c2.05.24,4.11.39,6.17.52,1.61.11,1.85.57,1.53,2.12-.41,1.9-1.74,2.77-3.32,3.44-3.23,1.38-6.52,2.67-10.07,2.76a19.14,19.14,0,0,1-4.45-.77c-2.68-.59-5.33-1.33-8-1.81a16,16,0,0,1-12.32-9.15,29.75,29.75,0,0,1-3-14.24,36.37,36.37,0,0,1,1.65-9,31.62,31.62,0,0,1,5.72-10.8,20.07,20.07,0,0,1,9.11-6.34,7.32,7.32,0,0,1,4.93.07,28.62,28.62,0,0,0,8.67,1.59c2.43,0,4.82,3.07,5.25,4.8a22.1,22.1,0,0,1-1.23,14.17,27.11,27.11,0,0,1-7.77,10.6,67.79,67.79,0,0,1-6.59,4.69A10.91,10.91,0,0,1,463.14,149.53Zm-2-12.12c5.49-4.15,9.36-10.3,8.42-16.57C465.84,122.16,460.73,132.15,461.14,137.41Z"/><path class="cls-1" d="M295.64,155.9c2.72-1.21,5-2.3,7.4-3.24a5.46,5.46,0,0,1,2.51-.27,7.32,7.32,0,0,1,3.12.76c2.12,1.32,4.42.68,6.63,1,1.39.21,1.38.35,1,1.72a6.07,6.07,0,0,1-3.79,4.36c-3.33,1.42-6.61,3-10,4.34-1.85.75-3.77.23-5.64-.22a71.85,71.85,0,0,0-8.25-1.9c-3.86-.47-6.31-2.58-8.14-5.76-2.27-3.92-3.06-8.25-3.52-12.68a41.38,41.38,0,0,1,.71-12.37c1.1-5.48,2.88-10.73,6.53-15.08a22,22,0,0,1,4.72-4.15,9.87,9.87,0,0,1,8.62-1,36,36,0,0,0,9,1.63c2.65.13,4.51,1.85,6.15,3.76,2.26,2.63,3.05,5.81,3.37,9.17a19.31,19.31,0,0,1-1.4,9.11,1.67,1.67,0,0,1-2.29,1.06c-2.89-.7-5.79-1.38-8.69-2-1.36-.29-1.75-.76-1.81-2.17-.14-3.19-.29-6.37-.59-9.54a12.72,12.72,0,0,0-1-2.9l-.43-.17a34.33,34.33,0,0,0-3.74,4.67,31.11,31.11,0,0,0-3.76,12.63,41,41,0,0,0,1.06,12.73C294.06,151.55,294.9,153.62,295.64,155.9Z"/><path class="cls-1" d="M375.57,152.36c.46-8,.76-15.06,2.38-22,.51-2.17,1.19-4.31,1.85-6.44.33-1,1.13-1.35,2.33-.94a28.24,28.24,0,0,0,8.64,1.62c1.44,0,2,.56,1.84,2-.2,2.3-.59,4.58-.87,6.88-.41,3.44-.92,6.87-1.14,10.33a100.91,100.91,0,0,0-.15,10.86c.15,3.43.34,3.43,3.71,3.95a22.72,22.72,0,0,0,2.61.17c1.28,0,1.64.53,1.31,1.74-.1.33,0,.74-.1,1.06s-.35,1.1-.71,1.27a40.61,40.61,0,0,1-4.86,1.93,4.57,4.57,0,0,1-2.22-.14c-3-.68-5.92-1.63-8.93-2.07a5.41,5.41,0,0,1-4.77-4.51A53.56,53.56,0,0,1,375.57,152.36Z"/><path class="cls-1" d="M378.19,106.36a12.82,12.82,0,0,1,.34-1.43c.39-1.12,1-1.34,2.27-1.07a15.69,15.69,0,0,0,2.38.15,3,3,0,0,1,1.05.09,22.54,22.54,0,0,0,8,1.66c.8.07,2-.36,2.14.69a7.22,7.22,0,0,1-.87,3.08c-.19.52-.71.91-.92,1.43-.62,1.46-1.39,1.7-2.91,1.27-2.7-.77-5.43-1.45-8.18-2A3.75,3.75,0,0,1,378.19,106.36Z"/></g></svg>