<svg xmlns="http://www.w3.org/2000/svg" viewBox="0 0 1000 202.41"><defs><style>.cls-1{fill:#8872a4;}</style></defs><g id="Layer_16_Image" data-name="Layer 16 Image"><path class="cls-1" d="M831.57,57.35c-.31-.13-.52-.23-.72-.3-1.2-.43-2.38-.77-1.93-2.56.53-2.1,1.17-2.77,3.09-2.84.52,0,1-.3,1.54-.34a9,9,0,0,1,2.14,0c3.4.57,6.78,1.18,10.17,1.78.54.1,1.27.08,1.56.42,1.51,1.74,3.68,1.5,5.59,1.94,6.16,1.41,12.24,3.08,17.64,6.46A33,33,0,0,1,879.3,69,38.55,38.55,0,0,1,885,77.74a35.74,35.74,0,0,1,3,11.24,55.22,55.22,0,0,1-1.36,18.15,53.24,53.24,0,0,1-10.47,20.25c-1.68,2.11-3.18,4.38-4.85,6.51a44.15,44.15,0,0,1-12.62,11c-3.43,2-6.86,4.13-10.93,4.78a6.47,6.47,0,0,1-4.28-.46,9.57,9.57,0,0,0-2.76-.7c-2.21-.45-4.42-.86-6.63-1.29a22.43,22.43,0,0,1-2.56-.55,13.76,13.76,0,0,1-1.81-1,4.39,4.39,0,0,0-1.34-.54,3.71,3.71,0,0,1-3.51-3.42c-.09-3.53,0-7.07.21-10.6.4-6.51.94-13,1.44-19.5.3-4,.66-8,.92-12.08s.31-7.89.68-11.82c.55-5.9,1.29-11.79,2-17.68C830.51,65.86,831,61.67,831.57,57.35Zm15.36,72.55c1.08-1.17,2-2.12,2.87-3.14,2.22-2.68,4.51-5.31,6.56-8.12a68.6,68.6,0,0,0,3.7-6.26,37.37,37.37,0,0,0,4.49-10.16,44.37,44.37,0,0,0-.63-21.39,20.72,20.72,0,0,0-1.6-3.33,28.92,28.92,0,0,0-11.24-12.83,7.76,7.76,0,0,0-.73-.36C849.21,86.12,848.08,107.86,846.93,129.9Z"/><path class="cls-1" d="M233.7,74.23a23.8,23.8,0,0,1-2.52-.19c-1.94-.38-3.87-.79-5.79-1.26-3.28-.81-3.25-.77-3.67-3.68-.38-2.67-.54-5.39-1.94-7.81l-.41-.72c-3.69,2.38-6.47,5.41-7.58,9.66a123.09,123.09,0,0,0-3.3,14.35,147.44,147.44,0,0,0-1.43,23.21,71.89,71.89,0,0,0,2.34,18.07,21.93,21.93,0,0,0,6.45,10.39,46.86,46.86,0,0,0,2.44-4.17c1.72-3.74,3.33-7.55,5-11.33.38-.89.84-1.08,1.83-.74a44.4,44.4,0,0,0,5,1.21c1.42.29,3,.22,4.24.85,1.43.73,2.69.41,4.08.33a2.77,2.77,0,0,1,2.85,2.15,6.82,6.82,0,0,1,.59,2c0,2.5,1,5,.15,7.49a27.2,27.2,0,0,0-.7,4.05,17.05,17.05,0,0,1-3.5,7.83,11,11,0,0,1-7.25,3.78c-3.39.52-6.54-.35-9.72-1.18-2.88-.76-5.73-1.66-8.64-2.29-2.6-.56-5.31-.64-7.88-1.29-4.79-1.21-9.46-2.89-13-6.57a30.23,30.23,0,0,1-6.78-10.06,42.44,42.44,0,0,1-2.5-13.88,124.76,124.76,0,0,1,2.18-28.1,172.18,172.18,0,0,1,4.63-17.4c1.59-5.16,4.75-9.51,8.39-13.43,1.26-1.36,3.11-2.18,4.69-3.24A13.53,13.53,0,0,1,204,50.89a14.28,14.28,0,0,1,10.31-.61,67.19,67.19,0,0,0,12.85,2.36c6.82.78,11.21,5.6,11.65,12.39a26.84,26.84,0,0,1-.78,6.38,6.56,6.56,0,0,1-1.1,2.35C235.86,75.43,234.78,75.47,233.7,74.23Z"/><path class="cls-1" d="M503.81,99.77c.52,13.23-.38,26.32-1.59,39.55,1.57,0,3.27.13,4.94,0,3-.29,6.08-1.06,9.13-1.06a63.45,63.45,0,0,1,9.78,1.06c3.44.55,6.83,1.38,10.26,2,1.26.23,2.56.2,3.83.38,1.72.24,2.27,1.21,1.7,2.83a5.45,5.45,0,0,0-.22.79c-.48,2.52-.49,2.45-2.95,2.91a87.53,87.53,0,0,1-17.68,1.6c-6.34-.09-12.7-.13-19-.75-3.75-.37-7.39-1.82-11.09-2.74a35.76,35.76,0,0,0-4.86-1c-4.92-.52-6.83-2.36-6.72-7.26.13-5.37.54-10.74.85-16.11.22-3.81.5-7.61.72-11.42.28-5,.62-10,.74-15,.1-4.82-.22-9.65,0-14.47.22-5.65.6-11.31,1.28-16.92.37-3,1.34-6.09,4-8.05a8.82,8.82,0,0,1,3.4-1.3c2.08-.44,4.23-.6,6.32-1a45.76,45.76,0,0,1,16.46,0c2.94.46,5.9.72,8.83,1.23,1.76.3,3.44,1,5.19,1.33,2.12.39,4.29.53,6.43.81a3.61,3.61,0,0,1,1.3.37c1.51.91,1.69,1.69,1,3.72-.45,1.36-1.57,1.25-2.62,1.17-4.87-.34-9.73-.76-14.59-1a21.39,21.39,0,0,0-4.37.32c-2.82.41-5.62.9-8.42,1.43s-2.79.77-3,3.81c-.24,4.12-.07,8.27,0,12.41.07,3.25.33,6.5.44,9.76,0,1.22.31,1.69,1.73,1.69a82.13,82.13,0,0,1,10.17.6c2.89.38,5.71,1.31,8.58,1.87a28.64,28.64,0,0,0,3.71.22c2.15.14,2.74,1,2.24,3a5.36,5.36,0,0,1-.38,1.6c-.31.5-.84,1.11-1.33,1.18-2.92.36-5.85.55-8.78.86-5,.53-9.92,0-14.88-.37A5.65,5.65,0,0,0,503.81,99.77Z"/><path class="cls-1" d="M722.08,60.83c2.28.6,1.66,2.66,1.87,4.07a60.77,60.77,0,0,1,.59,8.31c0,3.1-.18,6.21-.4,9.3-.25,3.57-.5,7.15-1,10.7-.82,6-1.81,12.06-2.77,18.09-.85,5.33-1.76,10.66-2.64,16q-1,6-2,12c0,.31-.08.62-.14,1.18a19.26,19.26,0,0,1,3.05,0c2.93.48,5.84,1.11,8.76,1.62,2,.34,4,.51,6,.88,1,.19,2.55.48,2.72,1.06.32,1.05-.16,2.37-.43,3.55,0,.19-.7.36-1.07.35a93.26,93.26,0,0,0-17,1.16c-6.91,1.07-13.86.82-20.77.36-2.83-.2-5.6-1.37-8.4-2.08a33.09,33.09,0,0,0-4-.86c-.93-.11-1.92,0-2.19-1.14s.58-3.06,1.62-3.31a17,17,0,0,1,3.4-.48c4-.15,8-.24,12-.34.89,0,1.32-.3,1.44-1.35,1.06-8.85,2.29-17.68,3.29-26.53.45-4,.4-8.09.75-12.11.56-6.31,1.28-12.61,1.93-18.91.28-2.74.5-5.49.82-8.22s.73-5.63,1.09-8.44a5.67,5.67,0,0,0,0-.78c-2.38.63-4.69,1.24-7,1.87s-4.49.89-6.44,1.9-3.17.63-4.87,0a58.34,58.34,0,0,0-5.92-1.33c-1-.22-2.25,0-2.61-1.35a4.11,4.11,0,0,1,1.57-3.88,15,15,0,0,1,2.56-1.37c7.15-2.74,14.25-5.69,21.86-7,2.7-.46,5.44-.67,8.16-1.07s5.51-1,8.27-1.37c3-.43,5.92-.79,8.89-1.11a5,5,0,0,1,1.59.4A26.8,26.8,0,0,0,743.1,52c1.63-.07,2.11.64,1.71,2.2a5.28,5.28,0,0,1-.6,1.92,2.24,2.24,0,0,1-1.63.82,18.19,18.19,0,0,0-8.39,1.18,25.8,25.8,0,0,1-3.19.68C728,59.44,725.05,60.14,722.08,60.83Z"/><path class="cls-1" d="M362.38,60.83c2.28.6,1.66,2.66,1.87,4.07a59.21,59.21,0,0,1,.58,8.31c0,3.1-.18,6.21-.39,9.3-.25,3.57-.5,7.15-1,10.7-.83,6-1.81,12.06-2.77,18.09-.86,5.33-1.76,10.66-2.64,16q-1,6-2,12c-.06.31-.08.62-.14,1.18a19.28,19.28,0,0,1,3.05,0c2.93.48,5.83,1.11,8.76,1.62,2,.34,4,.51,6,.88,1,.19,2.55.48,2.73,1.06.32,1.05-.16,2.37-.43,3.55,0,.19-.7.36-1.07.35a93.26,93.26,0,0,0-17,1.16c-6.91,1.07-13.86.82-20.77.36-2.84-.2-5.6-1.37-8.4-2.08a33.09,33.09,0,0,0-4-.86c-.94-.11-1.92,0-2.19-1.14s.57-3.06,1.62-3.31a16.89,16.89,0,0,1,3.4-.48c4-.15,8-.24,12-.34.89,0,1.32-.3,1.44-1.35,1.06-8.85,2.29-17.68,3.29-26.53.45-4,.39-8.09.75-12.11.56-6.31,1.28-12.61,1.93-18.91.28-2.74.5-5.49.81-8.22s.74-5.63,1.1-8.44a4.59,4.59,0,0,0,0-.78c-2.38.63-4.68,1.24-7,1.87s-4.5.89-6.45,1.9-3.16.63-4.86,0a59,59,0,0,0-5.92-1.33c-1-.22-2.25,0-2.61-1.35a4.11,4.11,0,0,1,1.57-3.88,15,15,0,0,1,2.56-1.37c7.15-2.74,14.25-5.69,21.86-7,2.7-.46,5.44-.67,8.15-1.07s5.51-1,8.28-1.37c2.95-.43,5.92-.79,8.89-1.11a5,5,0,0,1,1.59.4A26.71,26.71,0,0,0,383.4,52c1.63-.07,2.1.64,1.71,2.2a5.1,5.1,0,0,1-.61,1.92,2.22,2.22,0,0,1-1.62.82,18.19,18.19,0,0,0-8.39,1.18,25.8,25.8,0,0,1-3.19.68C368.32,59.44,365.35,60.14,362.38,60.83Z"/><path class="cls-1" d="M631.09,76.64c.86-1.6,1.67-3.24,2.6-4.8,1.76-3,3.65-5.87,5.36-8.88,1.12-2,1.94-4.09,3-6.08s2.22-3.83,3.44-5.69c1.57-2.39,2.67-2.74,5.36-1.86a40.76,40.76,0,0,0,11.21,2.1c2.85.09,3.69,1,4.69,3.77,1.63,4.44,2.13,9.06,2.69,13.69.48,4,1.2,7.92,1.54,11.91.5,5.84.71,11.7,1.13,17.54.35,4.85.81,9.68,1.25,14.52.27,3,.52,6,.88,9,.44,3.55,1,7.09,1.51,10.64q.69,4.59,1.44,9.16c.12.72.19,1.32,1.22,1.61a1.77,1.77,0,0,1,1.23,2.45c-.28.7-.45,1.44-.66,2.16-.63,2.09-1.82,2.24-3.93,1.66-1.11-.3-2.19-.76-3.31-1-3.09-.68-6.17-1.46-9.3-1.87-2.61-.35-3.68-2.09-4.24-4.16a74,74,0,0,1-2-9.56c-.73-5.46-1.3-10.94-1.77-16.43-.51-5.92-.82-11.86-1.24-17.79-.53-7.3-1.08-14.59-1.65-22.32-.82,1.3-1.46,2.29-2.06,3.29-3,5.12-6,10.25-9.1,15.35a15,15,0,0,1-2,2.56c-1.71,1.83-3.76,1.88-6.06,1.25a57.82,57.82,0,0,0-8.91-2.08c-3.33-.37-5-2.2-5.94-5.09-.63-2-1-4.11-1.56-6.17a1.05,1.05,0,0,0-.52-.69c-.27,1-.52,2-.81,3-1.33,4.57-2.78,9.11-4,13.71-1.29,4.88-2.31,9.82-3.54,14.72q-2.25,8.91-4.64,17.79c-.64,2.36-1.45,4.67-2.23,7s-1.62,2.46-3.82,1.47a15.44,15.44,0,0,0-3.21-.72c-2.12-.45-4.27-.81-6.36-1.36-1.14-.3-1-1.44-.88-2.29.26-2.06.57-4.11,1-6.14,1-4.46,2-8.92,3-13.36,1.6-6.84,3.15-13.69,4.9-20.49,1-3.87,2.41-7.63,3.55-11.47.82-2.74,1.36-5.58,2.27-8.29,1.69-5,3.54-10,5.37-15,.75-2,1.6-4,2.49-6,.78-1.73,1.86-1.9,3.67-1.46a78.62,78.62,0,0,0,10,1.85c2.39.26,3.64.75,4.32,3.07,1.12,3.81,2.13,7.64,3.14,11.47.36,1.4.61,2.83.91,4.24Z"/><path class="cls-1" d="M770.2,96.52c-.4,3.79-.78,7.58-1.21,11.37-.32,2.76-.71,5.51-1,8.27-.41,3.46-.68,6.94-1.23,10.37-1,6.1-2.1,12.18-3.23,18.26a16.19,16.19,0,0,1-1.2,3.62c-.58,1.29-1.78,1.83-2.9,1.05-2-1.39-4.35-1.07-6.5-1.62-1.09-.28-2.27-.25-3.34-.59a2.46,2.46,0,0,1-1.36-1.33,6.83,6.83,0,0,1-.22-2.52c.09-1.64.28-3.28.46-4.92.4-3.75.78-7.51,1.22-11.25.75-6.29,1.56-12.56,2.3-18.85.4-3.45.74-6.91,1.07-10.38s.55-7,.94-10.54c.48-4.44,1-8.88,1.65-13.3.48-3.4,1.11-6.78,1.72-10.17a20.87,20.87,0,0,1,.92-3.66c.8-2.14,1.52-2.23,3.71-1.71a76.7,76.7,0,0,0,10.79,2c2.3.22,3.9,1.13,4.7,3,1.7,4,3.15,8.07,4.65,12.13.89,2.39,1.69,4.81,2.49,7.22,1.19,3.58,2.32,7.18,3.53,10.76,1.11,3.29,2.29,6.57,3.67,9.88.08-.48.13-1,.23-1.43,1.5-6.67,2.82-13.39,4.56-20,2-7.48,4.34-14.84,6.45-22.27,1-3.39,1.64-6.85,2.57-10.25.64-2.36,1.46-4.66,2.27-7a1.36,1.36,0,0,1,1.91-.9c2.45.67,4.92,1.29,7.4,1.82a24.6,24.6,0,0,0,3.94.42c1.85.09,2.46.64,2.15,2.45-.56,3.34-1.15,6.68-1.87,10q-2.57,11.74-5.26,23.45c-1.18,5.15-2.55,10.25-3.64,15.41-1.18,5.52-2.21,11.07-3.14,16.64-1.25,7.49-2.32,15-3.51,22.5a46.33,46.33,0,0,1-1.15,5c-.41,1.48-1.47,1.91-3.07,1.52-2.9-.69-5.81-1.31-8.71-1.93a51.22,51.22,0,0,1-5.74-1.2,4.69,4.69,0,0,1-2.6-2.17c-1.54-3.62-2.8-7.35-4.18-11-.21-.56-.6-1-.8-1.62-1.13-3.1-2.23-6.21-3.33-9.32-1.26-3.59-2.55-7.17-3.76-10.79-.71-2.12-1.29-4.29-1.92-6.44Z"/><path class="cls-1" d="M436.4,112.42c1.6-4.06,3.27-8.21,4.89-12.39,2.06-5.32,4-10.67,6.13-16,1.1-2.8,2.41-5.52,3.53-8.32.9-2.23,1.52-4.57,2.49-6.76,1.81-4,3.77-8,5.7-12a41.22,41.22,0,0,1,2.14-4c1.05-1.68,1.82-1.7,3.72-1.27,3.76.86,7.55,1.63,11.36,2.16,2.47.34,3.27,1.4,2.31,3.7-.86,2-1.66,4.14-2.32,6.26s-1.07,4.4-1.77,6.54c-1.13,3.45-2.36,6.86-3.62,10.26-1.59,4.29-3.3,8.53-4.88,12.83C461.83,105,457.64,116.51,453.4,128q-3.3,9-6.67,17.92c-1.59,4.19-2.69,4.63-6.86,3-1-.4-2.11-.56-3.1-1-2.87-1.26-5.94-1.4-9-1.75s-3.42-.2-4.5-3.77c-1.58-5.29-2.78-10.7-4.23-16-1.57-5.73-3.05-11.5-4.93-17.12-2.31-6.88-5.07-13.6-7.5-20.43-1.27-3.58-2.34-7.24-3.35-10.91-1.23-4.52-2.53-9-3.38-13.66a85.43,85.43,0,0,1-.85-10.51,5.34,5.34,0,0,1,.42-2.06c.5-1.32,1.19-1.45,2.58-1.16q5,1.06,10.13,1.87c1.19.19,2.13.53,2.49,1.73,1,3.43,2,6.87,3,10.3.43,1.43.9,2.86,1.43,4.26,1.07,2.85,2.16,5.71,3.31,8.54,2.29,5.65,4.68,11.27,6.93,16.94C431.78,100.27,434.08,106.4,436.4,112.42Z"/><path class="cls-1" d="M931.62,149.82a55.89,55.89,0,0,1-13.89-2.45c-3.3-1-6.72-1.48-10.1-2.14a24,24,0,0,1-13.45-7,18.17,18.17,0,0,1-2.48-4c-1.12-2.17-2.14-4.39-3.16-6.62-.66-1.45-1.28-2.92-1.81-4.42a5.42,5.42,0,0,1-.26-2.08c.14-2.55,1.08-3.2,3.46-2.39,1.49.5,2.93,1.15,4.43,1.63a8.56,8.56,0,0,0,2.32.34,12.87,12.87,0,0,0,2.48-.15c2.09-.36,3,.9,3.91,2.49,3.41,5.64,6.6,11.48,11.94,15.66a5.65,5.65,0,0,0,5.35,1.29,25.18,25.18,0,0,0,10.36-5.26,8.75,8.75,0,0,0,1.43-2.21c4.15-7.19,2.69-13.81-2.14-20-2-2.52-4.15-4.9-6.28-7.29a40.29,40.29,0,0,0-4.08-4.18c-2.85-2.39-5.85-4.59-8.75-6.92-1.09-.88-2-1.94-3.09-2.89a35.89,35.89,0,0,1-3.51-3.09,20.29,20.29,0,0,1-4.62-18.35,35.21,35.21,0,0,1,5.53-12.77A19.17,19.17,0,0,1,912,51a12.15,12.15,0,0,1,7.7-1.68c1.71.25,3.35.94,5.06,1.24,2.5.45,5.06.6,7.55,1.13a29.77,29.77,0,0,1,6.57,2,63.33,63.33,0,0,1,7.53,4.52c1.85,1.23,2.07,4.67.6,6.32-.72.8-1.52.47-2.35.26-3.09-.77-6.19-1.46-9.26-2.28a7.39,7.39,0,0,1-1.91-1.17c-1.61-1-3.16-2.17-4.84-3.06-.4-.2-1.36.31-1.88.72a21.13,21.13,0,0,0-8.44,16.14c-.16,3.42,1.27,6.44,3.09,9.25,2.57,4,6.55,6.33,10.19,9.11,4,3.08,8,6.16,11.76,9.57a52.07,52.07,0,0,1,10.56,12.87,19.06,19.06,0,0,1,2.35,11.47,31.58,31.58,0,0,1-3.11,11.28,16.3,16.3,0,0,1-8,7.65,32.81,32.81,0,0,1-8.59,3C934.75,149.6,932.91,149.7,931.62,149.82Z"/><path class="cls-1" d="M269.37,64.29c-5.18.19-10.25.42-15.32.54a12,12,0,0,1-2.9-.59c-3.1-.75-6.07-2.06-9.35-2.12-.89,0-2-.07-2.18-1.35a2.93,2.93,0,0,1,1.73-3.25c2.18-.6,4.39-1.11,6.61-1.56,4.29-.85,8.58-1.64,12.88-2.44q7.16-1.34,14.32-2.65c1.62-.3,3.23-.62,4.86-.83,5.64-.75,11.19.05,16.75.86,3.39.49,6.89.53,10.18,1.4a90.16,90.16,0,0,0,13.89,2.52,8.15,8.15,0,0,1,2.4.79c.76.34.94.92.59,1.76a7.42,7.42,0,0,0-.34,1.89,1.58,1.58,0,0,1-2,1.5c-3.57-.33-7.15-.69-10.73-.88a64,64,0,0,0-7.33,0c-4.45.26-8.89.65-13.33,1-1.12.09-2.23.29-3.34.48a1.4,1.4,0,0,0-1.33,1.64c.13,2.9.26,5.81.23,8.72,0,4.7-.2,9.4-.31,14.1,0,1.37,0,2.74-.1,4.1-.49,5.12,0,10.26-.39,15.38-.53,7.15-.8,14.32-1.47,21.46-.35,3.74-1.31,7.43-2,11.14-.37,2.08-.68,4.18-1.08,6.25-.31,1.62-.72,3.21-1.11,5l-1-.45-.81,1.1-2-1.55-.4,1.12c-3-.64-6-1.24-8.92-2s-2.92-.77-2.67-3.84c.3-3.73.43-7.47.68-11.2.24-3.49.49-7,.83-10.48.68-6.9,1.51-13.79,2.1-20.69s.94-13.74,1.38-20.61c.34-5.27.65-10.54,1-15.81A2.18,2.18,0,0,0,269.37,64.29Z"/><path class="cls-1" d="M150.72,89a18.77,18.77,0,0,0,3.47.3,16.6,16.6,0,0,0,3-1c2.19-.66,4.38-1.36,6.59-1.93,1.6-.41,3.27-.54,4.86-1,3.25-.87,6,.92,9.06,1.37,3.54.53,7.07,1.18,10.62,1.6,2.9.34,4.06,2.78,2.7,5.35a4,4,0,0,1-3.08,2.14c-4.52,1-9.05,2-13.56,3-6.94,1.56-13.87,3.17-20.81,4.73-1.33.29-1.51.76-1.14,2.19a78.6,78.6,0,0,1,1.86,10c.62,5,1.16,10,1.43,15,.24,4.34.08,8.71.09,13.07,0,5,0,9.9,0,14.85a79.17,79.17,0,0,1-1.51,16.25c-.46,2.16-1.63,2.89-3.72,2.32-5.1-1.39-10.2-2.78-15.32-4.12-2.43-.64-2.5-.6-2.23-3.06,1-9,.54-18,.31-27-.14-5-1.15-10-1.64-15-.43-4.43-.65-8.88-1-13.32-.18-2.09-.52-4.17-.82-6.49-2.3.45-4.45.83-6.58,1.29-5.61,1.23-11.17,2.71-16.83,3.65-3,.5-4.27,1.74-4.81,4.71s-2,5.81-2.86,8.75c-1.65,5.59-3.31,11.18-4.71,16.83-.93,3.78-1.4,7.68-2.1,11.52-.27,1.46-.6,2.92-1,4.36a2.23,2.23,0,0,1-3.12,1.73c-2.7-.77-5.41-1.56-8.15-2.18-2.93-.67-5.92-1.07-8.83-1.81a3.23,3.23,0,0,1-1.73-1.85,5.77,5.77,0,0,1-.07-2.46q.6-8.75,1.24-17.5c.29-4.13.6-8.25.87-12.38a24.72,24.72,0,0,0,0-3.94A1.88,1.88,0,0,0,70,117.85c-2.3-.52-4.64-.94-7-1.32-1.09-.18-2.3-.11-2.66-1.49a3.47,3.47,0,0,1,1.83-3.76c1.76-.77,12.89-1.39,14.69-2.06.16-.06,20.36-41.49,20.4-41.23,1.19-1.75,2.32-3.45,3.5-5.12,2.82-4,6.34-7.25,11-8.9a14.94,14.94,0,0,1,10-.15,64.49,64.49,0,0,0,11.93,2.29c3,.38,6.24.28,8.33,2.88a31.38,31.38,0,0,1,3.47,5.91c2.21,4.48,2.57,9.44,3.45,14.26C149.57,82.51,150.16,85.87,150.72,89Zm-26-19.71A30.86,30.86,0,0,0,121.55,73a145.07,145.07,0,0,0-9,17.74c-.88,2-1.73,4.09-2.69,6.35.8-.09,1.29-.14,1.77-.21L126,94.59c1.63-.26,2.35-1.38,2.08-3.2-.58-3.87-1.13-7.74-1.72-11.61C125.89,76.42,125.35,73.06,124.76,69.29Z"/></g></svg>