<svg xmlns="http://www.w3.org/2000/svg" viewBox="0 0 1000 202.41"><defs><style>.cls-1{fill:#8872a4;}</style></defs><g id="Layer_16_Image" data-name="Layer 16 Image"><path class="cls-1" d="M106.75,118c-1.38,0-2.52-.1-3.65,0-3.33.33-6.38-.81-9.52-1.6-2.71-.69-5.47-1.14-8.2-1.74a19.1,19.1,0,0,1-2.67-.81.88.88,0,0,1-.47-.67,23.48,23.48,0,0,1,.78-3.44,1.63,1.63,0,0,1,1.19-.73c4.69-.57,9.39-1.16,14.1-1.6a25.81,25.81,0,0,1,10.81,1.08,57.31,57.31,0,0,0,13.94,2.58,22,22,0,0,1,4.39.91,2.79,2.79,0,0,1,1.93,2.15c1,3.15-.22,6-.81,8.89a89.26,89.26,0,0,1-2.18,8.85,50.77,50.77,0,0,1-3.37,8.61A40.91,40.91,0,0,1,116,150.7c-6.28,6.2-13.58,7.69-21.91,5.61-5.38-1.34-10.79-2.5-16.16-3.84-4.75-1.18-9.38-2.71-13.33-5.71a52.54,52.54,0,0,1-6.6-5.55,39,39,0,0,1-4.43-6.3A36.72,36.72,0,0,1,50.44,129a81.43,81.43,0,0,1-4.11-16.17c-1.34-8.2-.54-16.24,1.38-24.21A73.74,73.74,0,0,1,57,65.84c3.61-5.64,7.66-11,13.42-14.67A27.16,27.16,0,0,1,76.25,48c3.6-1.19,7.08-2.91,11.07-2.75a46.52,46.52,0,0,1,12.05,1.88,34.83,34.83,0,0,0,6.75,1.19,36.72,36.72,0,0,1,20.37,8.49,10.08,10.08,0,0,1,1.71,2.07c2.51,3.54,5.2,7,7.4,10.69a11,11,0,0,1,1,9.11c-.6,1.94-1.74,2.93-3.39,1.9-2.09-1.31-4.4-1-6.56-1.65-1.65-.49-3.42-.56-5.09-1a2.71,2.71,0,0,1-1.37-1.38c-1.5-3.07-2.84-6.22-4.38-9.26a20.59,20.59,0,0,0-2.94-4.51C110,59.54,107,56.42,103,54.65a3.86,3.86,0,0,0-2.2-.26A26.62,26.62,0,0,0,89.83,58.8C83.39,63.49,79.5,70,76.05,77a64.28,64.28,0,0,0-5.67,17.4,44.12,44.12,0,0,0-.12,14.5,86.19,86.19,0,0,0,2.79,13.29c2.33,7.26,5.43,14.22,11.41,19.4,1.32,1.14,2.7,2.22,4.11,3.24A1.56,1.56,0,0,0,90,145a42.41,42.41,0,0,0,5.5-3.82,34.3,34.3,0,0,0,8.33-11.75,47.13,47.13,0,0,0,2.13-7.3C106.26,120.82,106.45,119.51,106.75,118Z"/><path class="cls-1" d="M376.89,75.11a24.2,24.2,0,0,1-2.73-.21c-2.11-.41-4.21-.86-6.29-1.37-3.56-.87-3.52-.83-4-4-.42-2.9-.6-5.85-2.11-8.48l-.45-.78c-4,2.59-7,5.88-8.22,10.48a132.2,132.2,0,0,0-3.6,15.59,161.84,161.84,0,0,0-1.55,25.2,78.51,78.51,0,0,0,2.54,19.62,23.81,23.81,0,0,0,7,11.28,47.71,47.71,0,0,0,2.65-4.52c1.87-4.07,3.61-8.2,5.39-12.31.41-1,.9-1.16,2-.8a46.15,46.15,0,0,0,5.46,1.31c1.54.32,3.27.24,4.61.93,1.55.79,2.92.44,4.43.35a3,3,0,0,1,3.1,2.34,7.56,7.56,0,0,1,.63,2.14c0,2.71,1.06,5.37.16,8.13a30.53,30.53,0,0,0-.75,4.41,18.48,18.48,0,0,1-3.81,8.49,11.9,11.9,0,0,1-7.87,4.1c-3.68.57-7.1-.37-10.55-1.28-3.13-.82-6.22-1.8-9.38-2.48-2.82-.61-5.77-.7-8.56-1.4-5.2-1.31-10.28-3.14-14.08-7.13a33.06,33.06,0,0,1-7.37-10.93,46.11,46.11,0,0,1-2.71-15.07,135.69,135.69,0,0,1,2.37-30.52,187.5,187.5,0,0,1,5-18.88c1.74-5.6,5.16-10.33,9.11-14.58,1.37-1.48,3.38-2.38,5.1-3.53a14.59,14.59,0,0,1,2.25-1.45,15.41,15.41,0,0,1,11.2-.66,72.07,72.07,0,0,0,13.94,2.55c7.41.86,12.17,6.08,12.66,13.46a29.33,29.33,0,0,1-.86,6.92,7.18,7.18,0,0,1-1.18,2.56C379.24,76.42,378.06,76.46,376.89,75.11Z"/><path class="cls-1" d="M802.77,60.56c2.47.65,1.79,2.89,2,4.42a64.85,64.85,0,0,1,.64,9c0,3.36-.2,6.73-.43,10.09-.27,3.88-.54,7.77-1.06,11.62-.9,6.56-2,13.1-3,19.64-.92,5.8-1.9,11.58-2.86,17.37q-1.08,6.48-2.14,13c-.06.34-.08.68-.15,1.29a21.4,21.4,0,0,1,3.31,0c3.18.53,6.34,1.21,9.52,1.76,2.15.37,4.34.56,6.49,1,1.07.21,2.77.52,3,1.15.35,1.14-.17,2.57-.46,3.86-.05.2-.76.38-1.17.37a102.13,102.13,0,0,0-18.48,1.26c-7.5,1.17-15,.9-22.55.39-3.08-.21-6.08-1.49-9.13-2.25a36.41,36.41,0,0,0-4.36-.94c-1-.12-2.08,0-2.38-1.23s.63-3.32,1.76-3.6a19.18,19.18,0,0,1,3.7-.52c4.33-.17,8.67-.26,13-.37,1,0,1.43-.32,1.56-1.46,1.15-9.61,2.48-19.2,3.57-28.82.49-4.35.43-8.77.82-13.15.61-6.85,1.39-13.68,2.09-20.53.3-3,.54-6,.89-8.92s.79-6.11,1.19-9.17a5.49,5.49,0,0,0,0-.85c-2.59.7-5.09,1.35-7.58,2s-4.89,1-7,2.07c-2,1-3.43.68-5.28,0a65.14,65.14,0,0,0-6.43-1.45c-1.06-.24-2.44,0-2.83-1.46A4.46,4.46,0,0,1,760.65,62a15.7,15.7,0,0,1,2.77-1.48c7.77-3,15.47-6.18,23.74-7.59,2.93-.5,5.91-.73,8.86-1.17s6-1.05,9-1.49c3.21-.47,6.43-.86,9.65-1.2a5.19,5.19,0,0,1,1.73.44,29.27,29.27,0,0,0,9.21,1.44c1.77-.08,2.28.69,1.86,2.38a5.7,5.7,0,0,1-.66,2.09,2.36,2.36,0,0,1-1.77.89,19.94,19.94,0,0,0-9.11,1.28,28,28,0,0,1-3.46.75C809.22,59.05,806,59.81,802.77,60.56Z"/><path class="cls-1" d="M435,60.56c2.47.65,1.8,2.89,2,4.42a64.85,64.85,0,0,1,.64,9c0,3.36-.19,6.73-.43,10.09-.27,3.88-.54,7.77-1.06,11.62-.9,6.56-2,13.1-3,19.64-.93,5.8-1.91,11.58-2.87,17.37q-1.06,6.48-2.14,13c-.05.34-.08.68-.15,1.29a21.4,21.4,0,0,1,3.31,0c3.18.53,6.34,1.21,9.52,1.76,2.16.37,4.35.56,6.49,1,1.07.21,2.78.52,3,1.15.34,1.14-.18,2.57-.47,3.86-.05.2-.76.38-1.16.37a102.17,102.17,0,0,0-18.49,1.26c-7.5,1.17-15,.9-22.55.39-3.08-.21-6.08-1.49-9.12-2.25a37,37,0,0,0-4.37-.94c-1-.12-2.08,0-2.38-1.23s.63-3.32,1.76-3.6a19.29,19.29,0,0,1,3.7-.52c4.33-.17,8.67-.26,13-.37,1,0,1.43-.32,1.56-1.46,1.15-9.61,2.49-19.2,3.57-28.82.49-4.35.43-8.77.82-13.15.61-6.85,1.39-13.68,2.09-20.53.3-3,.54-6,.89-8.92s.8-6.11,1.19-9.17a5.49,5.49,0,0,0,0-.85c-2.59.7-5.09,1.35-7.58,2s-4.89,1-7,2.07c-2,1-3.44.68-5.29,0A65.14,65.14,0,0,0,394,67.66c-1.06-.24-2.44,0-2.83-1.46A4.46,4.46,0,0,1,392.87,62a15.7,15.7,0,0,1,2.77-1.48c7.77-3,15.47-6.18,23.74-7.59,2.93-.5,5.91-.73,8.86-1.17s6-1.05,9-1.49c3.21-.47,6.43-.86,9.65-1.2a5.13,5.13,0,0,1,1.73.44,29.31,29.31,0,0,0,9.21,1.44c1.77-.08,2.28.69,1.86,2.38A5.7,5.7,0,0,1,459,55.4a2.34,2.34,0,0,1-1.77.89,20,20,0,0,0-9.11,1.28,28,28,0,0,1-3.46.75C441.44,59.05,438.21,59.81,435,60.56Z"/><path class="cls-1" d="M699.88,64.32c-5.62.21-11.13.45-16.64.58a12.53,12.53,0,0,1-3.14-.64c-3.37-.82-6.6-2.23-10.16-2.3-1,0-2.17-.07-2.37-1.46A3.17,3.17,0,0,1,669.46,57c2.36-.66,4.77-1.21,7.18-1.69,4.65-.93,9.31-1.78,14-2.66l15.55-2.88c1.76-.32,3.52-.66,5.29-.9,6.11-.81,12.15.06,18.18.94,3.69.53,7.49.57,11.06,1.51A96.78,96.78,0,0,0,755.77,54a8.83,8.83,0,0,1,2.6.86c.83.37,1,1,.64,1.91a9.26,9.26,0,0,0-.37,2.06,1.71,1.71,0,0,1-2.14,1.63c-3.87-.36-7.75-.75-11.64-1a70.64,70.64,0,0,0-8,0c-4.83.29-9.65.71-14.47,1.11-1.21.1-2.42.31-3.62.52A1.51,1.51,0,0,0,717.36,63c.14,3.15.27,6.31.25,9.47-.05,5.1-.23,10.21-.34,15.31,0,1.48,0,3-.12,4.46-.53,5.55,0,11.13-.41,16.69-.58,7.76-.88,15.56-1.61,23.31-.38,4.06-1.42,8.06-2.15,12.09-.41,2.26-.75,4.53-1.18,6.79-.34,1.75-.78,3.49-1.21,5.39l-1-.48-.88,1.19-2.14-1.68-.42,1.22c-3.23-.71-6.47-1.35-9.69-2.13s-3.18-.85-2.91-4.18c.33-4,.47-8.11.75-12.16.26-3.79.53-7.59.9-11.37.73-7.5,1.64-15,2.27-22.48s1-14.91,1.51-22.37q.54-8.58,1-17.16A2.66,2.66,0,0,0,699.88,64.32Z"/><path class="cls-1" d="M915.26,148c2.17,0,4.32.12,6.44,0,4.14-.28,8.27-.69,12.4-1.09,1-.1,2-.49,3-.59a16.7,16.7,0,0,1,8.32,1c1.32.55,3-.26,4.11,1.4.21.32,1.8-.24,2.75-.43,1.58-.3,2.05.31,2,1.77,0,4.27-3.15,5.28-6.29,5.81a103.41,103.41,0,0,1-10.87.87c-3.13.21-6.26.42-9.39.5s-6.57,0-9.85.06c-5,.09-9.38-2.34-14.18-3.05-2.48-.36-4.92-1-7.36-1.53a2.62,2.62,0,0,1-2.34-3,60.86,60.86,0,0,1,.94-6.15c.8-4,1.78-7.89,2.55-11.86s1.47-8.17,2.08-12.27c.82-5.51,1.59-11,2.26-16.56,1.19-9.86,2.22-19.75,3.45-29.62.68-5.43,1.6-10.83,2.44-16.24a9.28,9.28,0,0,1,.56-1.91c.41-1.06,1.19-1.26,2.25-1,2.9.78,5.8,1.55,8.72,2.25a21.53,21.53,0,0,0,2.42.07c2,.21,3,1.13,2.92,3.18-.18,7.06-.36,14.13-.72,21.19-.31,6.09-.73,12.17-1.35,18.24-.83,8.2-1.7,16.41-3,24.55-1.22,7.94-3,15.8-4.46,23.7A4.17,4.17,0,0,0,915.26,148Z"/><path class="cls-1" d="M846,148c2.17,0,4.31.12,6.44,0,4.14-.28,8.27-.69,12.4-1.09,1-.1,2-.49,3-.59a16.71,16.71,0,0,1,8.32,1c1.32.55,3-.26,4.11,1.4.21.32,1.8-.24,2.74-.43,1.59-.3,2.06.31,2.05,1.77,0,4.27-3.15,5.28-6.3,5.81a103,103,0,0,1-10.86.87c-3.13.21-6.26.42-9.4.5s-6.56,0-9.84.06c-5,.09-9.38-2.34-14.18-3.05-2.48-.36-4.92-1-7.37-1.53a2.61,2.61,0,0,1-2.33-3c.21-2.06.52-4.12.93-6.15.81-4,1.79-7.89,2.56-11.86s1.46-8.17,2.07-12.27c.82-5.51,1.6-11,2.27-16.56,1.19-9.86,2.22-19.75,3.45-29.62.67-5.43,1.6-10.83,2.44-16.24a9.28,9.28,0,0,1,.56-1.91c.4-1.06,1.19-1.26,2.25-1,2.89.78,5.8,1.55,8.72,2.25a21.35,21.35,0,0,0,2.41.07c2,.21,3,1.13,2.93,3.18-.18,7.06-.36,14.13-.72,21.19-.31,6.09-.73,12.17-1.35,18.24-.84,8.2-1.7,16.41-3,24.55-1.23,7.94-3,15.8-4.46,23.7A3.2,3.2,0,0,0,846,148Z"/><path class="cls-1" d="M580.53,148c2.17,0,4.32.12,6.45,0,4.13-.28,8.26-.69,12.39-1.09,1-.1,2-.49,3-.59a16.67,16.67,0,0,1,8.31,1c1.32.55,3-.26,4.12,1.4.2.32,1.79-.24,2.74-.43,1.58-.3,2.06.31,2.05,1.77,0,4.27-3.16,5.28-6.3,5.81a103.41,103.41,0,0,1-10.87.87c-3.13.21-6.26.42-9.39.5s-6.56,0-9.84.06c-5,.09-9.39-2.34-14.19-3.05-2.47-.36-4.92-1-7.36-1.53a2.61,2.61,0,0,1-2.33-3c.21-2.06.52-4.12.93-6.15.8-4,1.78-7.89,2.55-11.86s1.47-8.17,2.08-12.27c.82-5.51,1.59-11,2.26-16.56,1.19-9.86,2.23-19.75,3.45-29.62.68-5.43,1.6-10.83,2.44-16.24a9.94,9.94,0,0,1,.56-1.91c.41-1.06,1.2-1.26,2.25-1,2.9.78,5.8,1.55,8.72,2.25a21.53,21.53,0,0,0,2.42.07c2,.21,3,1.13,2.92,3.18-.18,7.06-.36,14.13-.72,21.19-.31,6.09-.72,12.17-1.34,18.24-.84,8.2-1.7,16.41-3,24.55-1.22,7.94-2.95,15.8-4.46,23.7A4.17,4.17,0,0,0,580.53,148Z"/><path class="cls-1" d="M161.33,148c2.17,0,4.32.12,6.44,0,4.14-.28,8.27-.69,12.4-1.09,1-.1,2-.49,3-.59a16.7,16.7,0,0,1,8.32,1c1.32.55,3-.26,4.11,1.4.21.32,1.8-.24,2.75-.43,1.58-.3,2,.31,2,1.77,0,4.27-3.15,5.28-6.29,5.81a103.41,103.41,0,0,1-10.87.87c-3.13.21-6.26.42-9.39.5-3.28.09-6.57,0-9.85.06-5,.09-9.38-2.34-14.18-3.05-2.48-.36-4.92-1-7.36-1.53a2.62,2.62,0,0,1-2.34-3,60.86,60.86,0,0,1,.94-6.15c.8-4,1.78-7.89,2.55-11.86s1.47-8.17,2.08-12.27c.81-5.51,1.59-11,2.26-16.56,1.19-9.86,2.22-19.75,3.45-29.62.68-5.43,1.6-10.83,2.44-16.24a9.28,9.28,0,0,1,.56-1.91c.41-1.06,1.19-1.26,2.25-1,2.9.78,5.8,1.55,8.72,2.25a21.53,21.53,0,0,0,2.42.07c2,.21,3,1.13,2.92,3.18-.18,7.06-.36,14.13-.72,21.19-.31,6.09-.73,12.17-1.35,18.24-.84,8.2-1.7,16.41-2.95,24.55-1.23,7.94-3,15.8-4.46,23.7A4.17,4.17,0,0,0,161.33,148Z"/><path class="cls-1" d="M279.55,81.15a15.17,15.17,0,0,0,3,.26,14.57,14.57,0,0,0,2.58-.82c1.89-.57,3.76-1.17,5.67-1.66,1.37-.36,2.81-.47,4.18-.84,2.79-.76,5.19.78,7.78,1.17,3.05.46,6.08,1,9.14,1.38,2.5.29,3.49,2.39,2.32,4.6a3.45,3.45,0,0,1-2.65,1.84c-3.89.85-7.78,1.68-11.66,2.56C293.93,91,288,92.36,282,93.7c-1.15.26-1.3.66-1,1.88a67.81,67.81,0,0,1,1.6,8.6c.53,4.28,1,8.57,1.23,12.87.2,3.74.06,7.5.07,11.25,0,4.25,0,8.51,0,12.77a67.54,67.54,0,0,1-1.3,14c-.4,1.86-1.4,2.48-3.19,2-4.39-1.19-8.78-2.39-13.18-3.54-2.09-.55-2.15-.51-1.92-2.63.83-7.72.47-15.47.27-23.2-.12-4.29-1-8.56-1.41-12.85-.37-3.81-.56-7.64-.89-11.46-.16-1.8-.45-3.59-.71-5.58-2,.39-3.82.71-5.65,1.11-4.83,1.05-9.62,2.33-14.48,3.14-2.58.43-3.67,1.49-4.14,4s-1.71,5-2.46,7.54c-1.41,4.8-2.84,9.6-4,14.46-.81,3.25-1.21,6.6-1.81,9.91-.24,1.26-.52,2.51-.83,3.75a1.91,1.91,0,0,1-2.68,1.49c-2.33-.66-4.65-1.34-7-1.88-2.52-.58-5.09-.92-7.59-1.55a2.82,2.82,0,0,1-1.49-1.59,4.85,4.85,0,0,1-.06-2.12q.53-7.53,1.06-15c.26-3.55.52-7.1.75-10.65a20.12,20.12,0,0,0,.05-3.38,1.6,1.6,0,0,0-1.05-1c-2-.46-4-.81-6-1.14-.94-.16-2-.09-2.29-1.28a3,3,0,0,1,1.57-3.24c1.52-.66,11.08-1.19,12.64-1.77.13-.05,17.5-35.67,17.53-35.45,1-1.51,2-3,3-4.4A19.74,19.74,0,0,1,246.09,51a12.9,12.9,0,0,1,8.57-.13,56.19,56.19,0,0,0,10.26,2c2.61.33,5.36.24,7.16,2.47a27.47,27.47,0,0,1,3,5.09c1.9,3.86,2.21,8.12,3,12.26C278.56,75.58,279.07,78.47,279.55,81.15ZM257.23,64.21a27.22,27.22,0,0,0-2.76,3.21,126.42,126.42,0,0,0-7.78,15.25c-.76,1.76-1.49,3.52-2.31,5.47.68-.08,1.1-.12,1.51-.19l12.44-2c1.4-.22,2-1.18,1.79-2.75-.5-3.32-1-6.66-1.48-10C258.2,70.34,257.74,67.45,257.23,64.21Z"/><path class="cls-1" d="M524.16,81.15a15.11,15.11,0,0,0,3,.26,14.83,14.83,0,0,0,2.58-.82c1.88-.57,3.76-1.17,5.67-1.66,1.37-.36,2.81-.47,4.18-.84,2.78-.76,5.19.78,7.78,1.17,3,.46,6.08,1,9.14,1.38,2.49.29,3.49,2.39,2.32,4.6a3.47,3.47,0,0,1-2.65,1.84c-3.89.85-7.78,1.68-11.66,2.56-6,1.34-11.93,2.72-17.89,4.06-1.15.26-1.3.66-1,1.88a67.78,67.78,0,0,1,1.59,8.6c.54,4.28,1,8.57,1.23,12.87.21,3.74.07,7.5.08,11.25,0,4.25,0,8.51,0,12.77a68.23,68.23,0,0,1-1.3,14c-.4,1.86-1.4,2.48-3.19,2-4.39-1.19-8.78-2.39-13.18-3.54-2.09-.55-2.15-.51-1.92-2.63.83-7.72.47-15.47.27-23.2-.12-4.29-1-8.56-1.41-12.85-.37-3.81-.56-7.64-.89-11.46-.16-1.8-.45-3.59-.71-5.58-2,.39-3.82.71-5.66,1.11-4.82,1.05-9.61,2.33-14.47,3.14-2.58.43-3.67,1.49-4.14,4s-1.71,5-2.46,7.54c-1.42,4.8-2.84,9.6-4,14.46-.81,3.25-1.21,6.6-1.82,9.91-.23,1.26-.51,2.51-.82,3.75a1.92,1.92,0,0,1-2.68,1.49c-2.33-.66-4.65-1.34-7-1.88-2.52-.58-5.09-.92-7.59-1.55a2.83,2.83,0,0,1-1.5-1.59,5,5,0,0,1-.05-2.12c.34-5,.71-10,1.06-15,.25-3.55.52-7.1.75-10.65a21.23,21.23,0,0,0,.05-3.38,1.6,1.6,0,0,0-1.05-1c-2-.46-4-.81-6-1.14-.94-.16-2-.09-2.28-1.28a3,3,0,0,1,1.57-3.24c1.52-.66,11.08-1.19,12.63-1.77.14-.05,17.51-35.67,17.54-35.45,1-1.51,2-3,3-4.4A19.74,19.74,0,0,1,490.7,51a12.9,12.9,0,0,1,8.57-.13,56,56,0,0,0,10.26,2c2.61.33,5.36.24,7.16,2.47a27.47,27.47,0,0,1,3,5.09c1.9,3.86,2.21,8.12,3,12.26C523.17,75.58,523.68,78.47,524.16,81.15ZM501.84,64.21a26.3,26.3,0,0,0-2.76,3.21,126.42,126.42,0,0,0-7.78,15.25c-.76,1.76-1.49,3.52-2.31,5.47.68-.08,1.1-.12,1.51-.19l12.44-2c1.4-.22,2-1.18,1.79-2.75-.5-3.32-1-6.66-1.48-10C502.81,70.34,502.35,67.45,501.84,64.21Z"/></g></svg>