<svg xmlns="http://www.w3.org/2000/svg" viewBox="0 0 1000 202.41"><defs><style>.cls-1{fill:#8872a4;}</style></defs><g id="Layer_16_Image" data-name="Layer 16 Image"><path class="cls-1" d="M198.53,113.13c-.43,4.13-.85,8.26-1.32,12.38-.34,3-.77,6-1.13,9-.46,3.77-.75,7.56-1.35,11.3-1.07,6.65-2.29,13.27-3.52,19.9a17.34,17.34,0,0,1-1.3,3.94c-.63,1.4-1.94,2-3.17,1.15-2.19-1.52-4.73-1.18-7.08-1.77-1.19-.31-2.47-.27-3.63-.64a2.7,2.7,0,0,1-1.49-1.46,7.36,7.36,0,0,1-.24-2.74c.11-1.79.31-3.58.5-5.36.43-4.09.85-8.18,1.34-12.26.81-6.85,1.69-13.69,2.5-20.53.44-3.77.8-7.54,1.16-11.32s.61-7.66,1-11.48c.53-4.84,1.11-9.68,1.8-14.5.52-3.71,1.2-7.39,1.87-11.07a22.41,22.41,0,0,1,1-4c.87-2.34,1.66-2.44,4.05-1.87A84.2,84.2,0,0,0,201.31,74c2.5.24,4.24,1.23,5.12,3.29,1.85,4.34,3.43,8.79,5.07,13.22,1,2.6,1.84,5.24,2.71,7.87,1.3,3.9,2.52,7.82,3.84,11.72,1.21,3.59,2.49,7.16,4,10.76.08-.52.13-1,.24-1.56,1.63-7.27,3.07-14.59,5-21.79,2.14-8.14,4.74-16.17,7-24.27,1-3.69,1.78-7.46,2.79-11.16.71-2.57,1.6-5.08,2.48-7.6a1.49,1.49,0,0,1,2.09-1c2.66.74,5.35,1.41,8.06,2A26.69,26.69,0,0,0,254,56c2,.09,2.69.69,2.36,2.66-.62,3.64-1.26,7.28-2.05,10.89q-2.77,12.8-5.72,25.55c-1.29,5.61-2.79,11.17-4,16.79q-1.91,9-3.41,18.13c-1.37,8.16-2.53,16.36-3.83,24.53a52.83,52.83,0,0,1-1.26,5.4c-.44,1.61-1.59,2.07-3.34,1.66-3.15-.75-6.32-1.44-9.49-2.12a54.28,54.28,0,0,1-6.26-1.3,5.1,5.1,0,0,1-2.82-2.36c-1.69-3.94-3-8-4.56-12-.23-.61-.65-1.15-.87-1.76-1.23-3.38-2.43-6.77-3.63-10.16-1.38-3.91-2.78-7.82-4.09-11.76-.78-2.31-1.41-4.68-2.11-7Z"/><path class="cls-1" d="M287.72,116.64c-5.08-1-10-2.08-14.88-3.08-.9-.19-1.6-.44-1.5-1.6.12-1.53.55-2.22,1.75-2.23,3.92,0,7.83,0,11.74,0a24.9,24.9,0,0,0,3.35-.12c.32,0,.73-.61.82-1,.6-2.72,1-5.5,1.7-8.18C292,95.6,293.55,90.82,295,86c.67-2.26,1.37-4.51,2-6.77.56-2,.9-2.11,2.85-1.58,2.41.65,4.8,1.46,7.38,1.36,1.75-.08,2.31.47,2,2.23-.67,4.49-1.39,9-2.28,13.43s-2,8.78-3,13.17a4.25,4.25,0,0,0,0,.72,12.81,12.81,0,0,0,1.86,0c1.83-.3,3.55.24,5.31.5,3.08.45,6.16.88,9.26,1.21,2,.21,2.22.39,1.92,2.3-.33,2.07-1,2.7-3.22,2.85-5.21.34-10.41.69-15.63,1-.83,0-1.09.34-1.18,1.09-.41,3.44-.87,6.87-1.26,10.3-.46,4-1,8.06-1.24,12.11a23.05,23.05,0,0,0,1.28,10.4c.13.3.93.66,1.15.53a7.25,7.25,0,0,0,2-1.63,2.17,2.17,0,0,1,2.76-.75,55.34,55.34,0,0,0,5.56,1.14c1.08.18,2.2.17,3.28.33s1.28.79,1.14,1.75c-.42,2.9-1.77,4.86-4.8,5.7-3.27.9-6.48,1.58-9.86.68-2.58-.69-5.18-1.29-7.76-1.95a23.51,23.51,0,0,1-4.46-1.24c-2.63-1.25-3.66-3.75-4.2-6.43-1.05-5.18-.66-10.39-.22-15.6.27-3.18.65-6.36,1-9.54C287,121,287.41,118.78,287.72,116.64Z"/><path class="cls-1" d="M325.49,150.25c0-4.1,0-8.21,0-12.32,0-4.6-.32-9.21-.19-13.81.14-5.41.59-10.82.95-16.22a29.91,29.91,0,0,1,.49-3.77c.23-1.21.87-1.51,2-1.09a28.17,28.17,0,0,0,8.28,1.57c1.61.09,2.09.38,2.32,1.94a42.67,42.67,0,0,1,.39,4.65c0,1,.24,1.32,1.45,1.26a73.12,73.12,0,0,1,7.54.23c1.23.06,2.47.25,3.7.24,3.16,0,6,1.42,9.11,1.76,1.19.13,2.38.21,3.57.3s1.66.64,1.38,1.89c-.48,2.14-.72,2.24-2.88,2.18-4.82-.13-9.64-.26-14.46-.2a6.33,6.33,0,0,0-4.53,1.76c-1.32,1.3-2.75,2.48-4.12,3.74a1.5,1.5,0,0,0-.51.78c-.18,1.41-.33,2.84-.4,4.27-.2,3.77-.36,7.54-.51,11.31-.11,2.62-.15,5.24-.3,7.85-.16,2.86-.33,5.72-.65,8.56-.16,1.34-.85,1.61-2.17,1.16-1.68-.57-3.32-1.27-5-1.71a26,26,0,0,0-4.06-.47,1.4,1.4,0,0,1-1.43-1.67c0-1.39,0-2.79,0-4.19Z"/><path class="cls-1" d="M395.54,123.52c1.16.09,2.21.2,3.27.24,1.85.08,2.27.45,2.27,2.28,0,5.54-.15,11.09.07,16.62a32.31,32.31,0,0,0,1.51,7.81c.75,2.5,2.85,3.63,5.38,3.91,1.93.22,1.93.21,1.47,2.05-.52,2-1,2.34-3.05,1.87-3.34-.78-6.71-1.46-10-2.42a57.19,57.19,0,0,1-6.15-2.54c-1.15.73-2.46,1.69-3.88,2.44a11.46,11.46,0,0,1-8.7.68c-2.75-.76-5.54-1.42-8.35-1.92-5.44-1-8.74-5.39-9.11-10.54a29.94,29.94,0,0,1,3.53-15.92,23.66,23.66,0,0,1,6.09-7.73c4.07-3.3,8.66-3.41,13.51-2.24,2.35.57,4.77.85,7.14,1.35a22.38,22.38,0,0,1,3.87,1.15C395.68,121.14,395.93,121.89,395.54,123.52Zm-8.24.09c-6.18,1.7-9.14,6.19-11.34,11.32-2,4.6-2.39,9.27,0,14.16a32.53,32.53,0,0,0,2.56-2.32,29,29,0,0,0,5.56-9.25C385.64,133.11,386.29,128.53,387.3,123.61Z"/><path class="cls-1" d="M250.81,145.9c.46-8,.77-15.06,2.39-22,.51-2.17,1.18-4.3,1.84-6.44.33-1,1.13-1.35,2.33-.94a28.61,28.61,0,0,0,8.64,1.63c1.45,0,2,.55,1.84,2-.2,2.3-.59,4.58-.87,6.88-.41,3.44-.92,6.88-1.13,10.33a98.39,98.39,0,0,0-.16,10.86c.16,3.43.34,3.44,3.71,3.95a22.72,22.72,0,0,0,2.61.17c1.29,0,1.64.53,1.31,1.74-.1.34,0,.74-.09,1.06s-.36,1.1-.72,1.27a37,37,0,0,1-4.86,1.93,4.46,4.46,0,0,1-2.22-.14c-3-.67-5.91-1.63-8.92-2.07a5.39,5.39,0,0,1-4.77-4.5A51.67,51.67,0,0,1,250.81,145.9Z"/><path class="cls-1" d="M253.43,99.9a12.72,12.72,0,0,1,.34-1.42c.39-1.13,1-1.35,2.27-1.08a14.55,14.55,0,0,0,2.39.15,2.93,2.93,0,0,1,1,.09,22.33,22.33,0,0,0,8,1.66c.79.07,2-.35,2.14.69a7.51,7.51,0,0,1-.87,3.08c-.2.52-.72.91-.93,1.43-.61,1.46-1.39,1.7-2.91,1.27-2.7-.77-5.42-1.45-8.17-2A3.75,3.75,0,0,1,253.43,99.9Z"/><path class="cls-1" d="M620.71,140c2.3-5.25,4.56-10.52,6.91-15.75,1.6-3.56,3.23-7.11,5-10.59s.91-3,5.31-2.25c2.47.39,4.94.76,7.41,1.13.82.13,1.39.48,1.09,1.43a31.52,31.52,0,0,1-1.16,3.35c-1.53,3.45-3.19,6.85-4.7,10.31-1.59,3.64-3,7.35-4.59,11-1.7,3.95-3.46,7.88-5.21,11.81-.75,1.71-1.46,3.44-2.37,5.07a8,8,0,0,1-2.21,2.58,3.62,3.62,0,0,1-2.47.3c-2.83-.57-5.61-1.41-8.46-1.89a3.41,3.41,0,0,1-2.7-1.88,44.36,44.36,0,0,1-2.2-5c-1.4-3.93-2.77-7.88-4-11.86-1.68-5.39-3.25-10.83-4.86-16.25a58.77,58.77,0,0,1-1.72-6.2,13.62,13.62,0,0,1,.12-4.22c.11-.81.81-1.14,1.67-.81a33.52,33.52,0,0,0,9,1.78,2.09,2.09,0,0,1,1.44,1.15c1.14,3.22,2.18,6.47,3.2,9.73.66,2.09,1.2,4.21,1.85,6.31,1.1,3.56,2.24,7.12,3.36,10.68Z"/><path class="cls-1" d="M709.41,111.47a49.24,49.24,0,0,0,6.09-10.15,48.33,48.33,0,0,1,2.35-4.44c.44-.78,1.06-.83,1.94-.62,2.73.65,5.5,1.17,8.25,1.74.39.09.78.15,1.18.23.67.12.74.48.61,1.13-1,4.78-3.38,8.93-5.87,13-2,3.33-4.29,6.53-6.43,9.8-1,1.6-2,3.23-3.11,4.82-.42.63-.24,1,.2,1.57,1.4,1.74,2.69,3.55,4.07,5.31,1.22,1.56,2.57,3,3.73,4.63,2.23,3,4.43,6.13,6.54,9.27,1.26,1.89,2.29,3.93,3.51,5.85.82,1.3.21,2.47-.21,3.64-.1.28-.9.54-1.3.46-2.41-.53-4.81-1.16-7.21-1.76-.35-.08-.71-.31-1-.26-1.62.27-2.29-.73-3.06-1.91-1.51-2.34-3.21-4.56-4.83-6.82-1.07-1.5-2.14-3-3.22-4.47a4.28,4.28,0,0,0-1.33-1.27c-.09,3.09-.08,6.18-.3,9.25a64.19,64.19,0,0,1-1.06,7.43c0,.31-1.13.66-1.67.58-1.22-.18-2.39-.67-3.59-.95-1.79-.43-3.57-.88-5.38-1.16-1.35-.2-1.88-.52-2-1.92s-.16-2.62-.19-3.93c0-1.83,0-3.66-.05-5.49-.17-4.45-.46-8.9-.59-13.35-.11-3.9,0-7.81-.12-11.71-.2-7.38-.61-14.75-.69-22.13-.06-5.73.21-11.47.43-17.2a7,7,0,0,1,.84-2.83,1.69,1.69,0,0,1,1.44-.66c1.42.26,2.78.82,4.2,1.09a36,36,0,0,0,4.15.44c1.64.13,2.06.46,2.13,2.08.13,2.7.15,5.4.29,8.1.16,3.13.41,6.25.58,9.38.15,2.9.24,5.8.38,8.7C709.16,108.39,709.29,109.84,709.41,111.47Z"/><path class="cls-1" d="M599.26,131.38a35.9,35.9,0,0,1-2.65,11,66.29,66.29,0,0,1-3.75,7.61c-2,3.67-5.41,6-9.05,7.75a9.63,9.63,0,0,1-7.13.2,52.23,52.23,0,0,0-8.23-2c-4.27-.57-7.37-2.78-10-6a21.15,21.15,0,0,1-3.65-7.32c-2.41-7.85-1.09-15.4,1.87-22.83a24.42,24.42,0,0,1,4.67-8c2.32-2.48,5-3.54,8.42-2.54a41.1,41.1,0,0,0,4.88,1.14,17.3,17.3,0,0,0,2.68-.1,5.76,5.76,0,0,1,1.86.22,26.09,26.09,0,0,0,8.79,1.56,4.43,4.43,0,0,1,4.12,2.17,14.57,14.57,0,0,0,2.41,2.28,9.56,9.56,0,0,1,2.4,4.59c.29,1.15.83,2.23,1.07,3.38C598.48,126.76,598.84,129.07,599.26,131.38ZM573.58,150a19,19,0,0,0,7-7.08,22.8,22.8,0,0,0,3.64-10,35,35,0,0,0-.29-7,18.1,18.1,0,0,0-2.93-7.76A3.64,3.64,0,0,0,579.3,117c-1-.37-2.23-.4-3.22-.86a2.41,2.41,0,0,0-3.09.72,15.18,15.18,0,0,0-3.69,7.29c-1.44,6.53-1.81,13.14.78,19.52A60.11,60.11,0,0,0,573.58,150Z"/><path class="cls-1" d="M793.57,123.52c1.15.09,2.21.2,3.26.24,1.86.08,2.27.45,2.28,2.28,0,5.54-.16,11.09.07,16.62a31.82,31.82,0,0,0,1.5,7.81c.75,2.5,2.85,3.63,5.39,3.91,1.92.22,1.92.21,1.46,2.05-.51,2-1,2.34-3,1.87-3.34-.78-6.71-1.46-10-2.42a58,58,0,0,1-6.15-2.54c-1.14.73-2.45,1.69-3.88,2.44a11.43,11.43,0,0,1-8.69.68c-2.76-.76-5.55-1.42-8.36-1.92-5.43-1-8.74-5.39-9.11-10.54a29.94,29.94,0,0,1,3.53-15.92,23.79,23.79,0,0,1,6.09-7.73c4.08-3.3,8.66-3.41,13.51-2.24,2.35.57,4.78.85,7.15,1.35a22.27,22.27,0,0,1,3.86,1.15C793.7,121.14,794,121.89,793.57,123.52Zm-8.24.09c-6.19,1.7-9.14,6.19-11.35,11.32-2,4.6-2.39,9.27-.05,14.16a30.83,30.83,0,0,0,2.56-2.32,28.8,28.8,0,0,0,5.56-9.25C783.67,133.11,784.32,128.53,785.33,123.61Z"/><path class="cls-1" d="M678,123.52c1.16.09,2.22.2,3.27.24,1.86.08,2.27.45,2.28,2.28,0,5.54-.16,11.09.07,16.62a31.82,31.82,0,0,0,1.5,7.81c.75,2.5,2.85,3.63,5.38,3.91,1.93.22,1.93.21,1.47,2.05-.51,2-1,2.34-3,1.87-3.33-.78-6.7-1.46-10-2.42a58,58,0,0,1-6.15-2.54c-1.14.73-2.45,1.69-3.88,2.44a11.43,11.43,0,0,1-8.69.68c-2.76-.76-5.55-1.42-8.36-1.92-5.43-1-8.74-5.39-9.11-10.54a29.94,29.94,0,0,1,3.53-15.92,23.66,23.66,0,0,1,6.09-7.73c4.08-3.3,8.66-3.41,13.51-2.24,2.35.57,4.77.85,7.15,1.35a22.27,22.27,0,0,1,3.86,1.15C678.09,121.14,678.34,121.89,678,123.52Zm-8.23.09c-6.19,1.7-9.14,6.19-11.35,11.32-2,4.6-2.39,9.27,0,14.16a30.83,30.83,0,0,0,2.56-2.32,29,29,0,0,0,5.56-9.25C668.06,133.11,668.71,128.53,669.72,123.61Z"/><path class="cls-1" d="M533.81,146.63c.13-6.29.19-11.27.35-16.25.15-4.74.43-9.48.62-14.22.17-4.33.36-8.67.4-13,0-2.9-.22-5.8-.25-8.7,0-2.58.06-5.16.09-7.74s0-5,.08-7.48a20.91,20.91,0,0,1,.64-4.22c.3-1.2,1.16-1.34,2-.48.19.18.41.43.64.45q3.83.36,7.67.64a2.12,2.12,0,0,1,2,2c.2,1.89.28,3.79.31,5.69.1,5.22.21,10.44.2,15.67,0,4.52-.21,9-.27,13.57,0,2.9,0,5.81,0,8.71,0,5.37-.16,10.74-.14,16.11,0,4.94.23,9.88.27,14.82a35.9,35.9,0,0,1-.37,4.74c-.16,1.3-.9,1.75-2.21,1.4-2.85-.76-5.7-1.54-8.54-2.31A.79.79,0,0,0,537,156c-1.73.23-2.05-.88-2.21-2.23C534.41,150.94,534,148.14,533.81,146.63Z"/><path class="cls-1" d="M498.48,158.49A55.8,55.8,0,0,1,484.6,156c-3.3-1-6.73-1.48-10.1-2.15a23.84,23.84,0,0,1-13.45-7,17.46,17.46,0,0,1-2.48-4c-1.12-2.17-2.15-4.39-3.16-6.62-.66-1.45-1.28-2.92-1.82-4.42a5.44,5.44,0,0,1-.25-2.09c.13-2.55,1.07-3.19,3.45-2.38,1.49.5,2.94,1.15,4.43,1.63a8.62,8.62,0,0,0,2.32.34,12.22,12.22,0,0,0,2.49-.16c2.09-.35,2.94.91,3.9,2.5,3.42,5.64,6.6,11.48,11.95,15.66a5.64,5.64,0,0,0,5.34,1.29,25.06,25.06,0,0,0,10.36-5.26A8.24,8.24,0,0,0,499,141.1c4.16-7.19,2.7-13.81-2.14-20-2-2.52-4.14-4.9-6.28-7.29a39.23,39.23,0,0,0-4.07-4.18c-2.85-2.39-5.86-4.59-8.75-6.92-1.1-.88-2-1.94-3.1-2.89a37.1,37.1,0,0,1-3.51-3.09,20.29,20.29,0,0,1-4.62-18.35,35.23,35.23,0,0,1,5.54-12.77,19,19,0,0,1,6.78-5.95,12.16,12.16,0,0,1,7.7-1.68c1.71.25,3.36.93,5.07,1.24,2.5.45,5.06.6,7.54,1.13a29.44,29.44,0,0,1,6.57,2,63.45,63.45,0,0,1,7.54,4.52c1.84,1.23,2.07,4.67.6,6.32-.72.8-1.52.47-2.36.26-3.08-.77-6.19-1.46-9.25-2.28A7.28,7.28,0,0,1,500.35,70c-1.6-1-3.15-2.18-4.84-3.06-.4-.21-1.35.31-1.87.72a21.07,21.07,0,0,0-8.44,16.14c-.17,3.42,1.27,6.43,3.09,9.25,2.56,4,6.55,6.33,10.18,9.11,4,3.07,8,6.16,11.77,9.57a52.39,52.39,0,0,1,10.55,12.86,19.11,19.11,0,0,1,2.36,11.48A31.6,31.6,0,0,1,520,147.36a16.27,16.27,0,0,1-8,7.65,32.88,32.88,0,0,1-8.6,3C501.62,158.26,499.78,158.37,498.48,158.49Z"/><path class="cls-1" d="M732.87,145.9c.47-8,.77-15.06,2.39-22,.51-2.17,1.19-4.3,1.85-6.44.32-1,1.13-1.35,2.32-.94a28.67,28.67,0,0,0,8.64,1.63c1.45,0,2,.55,1.85,2-.21,2.3-.6,4.58-.87,6.88-.41,3.44-.92,6.88-1.14,10.33a98.39,98.39,0,0,0-.16,10.86c.16,3.43.34,3.44,3.71,3.95a22.75,22.75,0,0,0,2.62.17c1.28,0,1.64.53,1.3,1.74-.09.34,0,.74-.09,1.06s-.35,1.1-.71,1.27a37.51,37.51,0,0,1-4.86,1.93,4.49,4.49,0,0,1-2.23-.14c-3-.67-5.91-1.63-8.92-2.07a5.4,5.4,0,0,1-4.77-4.5A54.11,54.11,0,0,1,732.87,145.9Z"/><path class="cls-1" d="M735.49,99.9a13.07,13.07,0,0,1,.35-1.42c.39-1.13,1-1.35,2.26-1.08a14.55,14.55,0,0,0,2.39.15,3,3,0,0,1,1,.09,22.23,22.23,0,0,0,8,1.66c.79.07,2-.35,2.14.69a7.36,7.36,0,0,1-.87,3.08c-.2.52-.71.91-.93,1.43-.61,1.46-1.39,1.7-2.91,1.27-2.69-.77-5.42-1.45-8.17-2A3.75,3.75,0,0,1,735.49,99.9Z"/></g></svg>