<svg xmlns="http://www.w3.org/2000/svg" viewBox="0 0 1000 202.41"><defs><style>.cls-1{fill:#8872a4;}</style></defs><g id="Layer_16_Image" data-name="Layer 16 Image"><path class="cls-1" d="M654.66,62.85c-4.88.18-9.65.4-14.43.51a11.61,11.61,0,0,1-2.73-.55c-2.92-.71-5.72-1.94-8.8-2-.84,0-1.88-.06-2.06-1.27a2.77,2.77,0,0,1,1.64-3.06c2.05-.57,4.13-1,6.22-1.47,4-.8,8.08-1.54,12.12-2.3l13.49-2.5c1.52-.28,3-.57,4.58-.78,5.3-.7,10.53.06,15.76.81,3.2.47,6.49.51,9.59,1.32a84.45,84.45,0,0,0,13.08,2.37,7.75,7.75,0,0,1,2.25.75c.72.32.89.87.56,1.65a7.54,7.54,0,0,0-.32,1.79,1.49,1.49,0,0,1-1.86,1.41c-3.36-.31-6.72-.65-10.09-.83a59,59,0,0,0-6.91,0c-4.19.25-8.37.61-12.54,1-1.06.09-2.11.27-3.15.45a1.31,1.31,0,0,0-1.25,1.54c.12,2.74.24,5.48.22,8.21,0,4.43-.2,8.85-.3,13.28,0,1.29,0,2.58-.1,3.86-.45,4.82,0,9.65-.36,14.48-.5,6.73-.76,13.48-1.39,20.2-.33,3.53-1.23,7-1.86,10.49-.36,2-.65,3.93-1,5.89-.29,1.52-.67,3-1,4.67l-.91-.42-.76,1-1.85-1.46-.37,1.06c-2.8-.61-5.61-1.18-8.4-1.85s-2.76-.73-2.52-3.62c.28-3.51.4-7,.64-10.54.23-3.29.47-6.59.79-9.87.63-6.5,1.42-13,2-19.48s.88-12.93,1.3-19.4c.32-5,.61-9.92.91-14.88A3.79,3.79,0,0,0,654.66,62.85Z"/><path class="cls-1" d="M712,131.52c.13-6.29.19-11.27.35-16.25.15-4.74.43-9.48.62-14.22.17-4.34.36-8.68.41-13,0-2.89-.22-5.79-.26-8.69,0-2.58.06-5.16.09-7.74s0-5,.08-7.48A22.3,22.3,0,0,1,714,59.9c.3-1.21,1.16-1.34,2-.48.18.18.4.43.63.45,2.55.23,5.11.45,7.67.64a2.12,2.12,0,0,1,2,2.05c.2,1.88.28,3.79.32,5.69.09,5.22.2,10.44.19,15.66,0,4.53-.2,9-.27,13.58,0,2.9,0,5.8,0,8.7,0,5.38-.16,10.75-.14,16.12,0,4.94.23,9.88.28,14.82a37.84,37.84,0,0,1-.38,4.74c-.16,1.3-.9,1.74-2.21,1.4-2.85-.76-5.69-1.54-8.54-2.32a1.07,1.07,0,0,0-.34-.09c-1.73.23-2.05-.88-2.21-2.23C712.64,135.83,712.24,133,712,131.52Z"/><path class="cls-1" d="M731.08,131.52c.13-6.29.19-11.27.35-16.25.15-4.74.43-9.48.62-14.22.17-4.34.36-8.68.4-13,0-2.89-.22-5.79-.25-8.69,0-2.58.06-5.16.09-7.74s0-5,.08-7.48A20.8,20.8,0,0,1,733,59.9c.3-1.21,1.16-1.34,2-.48.19.18.41.43.63.45,2.56.23,5.12.45,7.68.64a2.13,2.13,0,0,1,2,2.05c.2,1.88.28,3.79.31,5.69.1,5.22.21,10.44.2,15.66,0,4.53-.21,9-.27,13.58,0,2.9,0,5.8,0,8.7,0,5.38-.16,10.75-.14,16.12,0,4.94.23,9.88.27,14.82a36,36,0,0,1-.37,4.74c-.16,1.3-.9,1.74-2.22,1.4-2.84-.76-5.69-1.54-8.53-2.32a1.21,1.21,0,0,0-.35-.09c-1.72.23-2-.88-2.21-2.23C731.67,135.83,731.28,133,731.08,131.52Z"/><path class="cls-1" d="M680.86,130.79c.46-8,.77-15.07,2.39-22,.51-2.17,1.19-4.31,1.85-6.44.32-1,1.12-1.35,2.32-.94a28.29,28.29,0,0,0,8.64,1.62c1.45,0,2,.56,1.84,2-.2,2.3-.59,4.58-.86,6.88-.41,3.44-.93,6.87-1.14,10.33a98.39,98.39,0,0,0-.16,10.86c.16,3.42.34,3.43,3.71,4a22.72,22.72,0,0,0,2.61.17c1.29.05,1.65.53,1.31,1.74-.09.33,0,.73-.09,1.06s-.35,1.1-.72,1.27a39.81,39.81,0,0,1-4.85,1.93,4.61,4.61,0,0,1-2.23-.14c-3-.68-5.91-1.63-8.92-2.07a5.4,5.4,0,0,1-4.77-4.51A54,54,0,0,1,680.86,130.79Z"/><path class="cls-1" d="M683.48,84.79a11.17,11.17,0,0,1,.35-1.43c.39-1.12,1-1.34,2.26-1.07a15.74,15.74,0,0,0,2.39.15,2.93,2.93,0,0,1,1,.09,22.55,22.55,0,0,0,8,1.66c.79.07,2-.36,2.14.69a7.51,7.51,0,0,1-.87,3.08c-.2.52-.71.91-.93,1.42-.61,1.47-1.39,1.71-2.91,1.28-2.69-.77-5.42-1.45-8.17-2A3.74,3.74,0,0,1,683.48,84.79Z"/><path class="cls-1" d="M307.86,109c-1.21,0-2.22-.08-3.21,0-2.93.28-5.61-.71-8.36-1.41-2.38-.61-4.81-1-7.21-1.53a15.82,15.82,0,0,1-2.34-.72.74.74,0,0,1-.42-.58,20.78,20.78,0,0,1,.69-3,1.44,1.44,0,0,1,1-.64c4.13-.5,8.25-1,12.39-1.4a22.77,22.77,0,0,1,9.5.94,49.84,49.84,0,0,0,12.26,2.27,19.52,19.52,0,0,1,3.85.8,2.46,2.46,0,0,1,1.7,1.9c.86,2.76-.2,5.24-.72,7.8a76.1,76.1,0,0,1-1.91,7.78,43.75,43.75,0,0,1-3,7.57,36.13,36.13,0,0,1-6.2,9c-5.52,5.45-11.93,6.75-19.26,4.92-4.71-1.18-9.48-2.2-14.2-3.37-4.16-1-8.23-2.38-11.71-5a46,46,0,0,1-5.79-4.88,32.85,32.85,0,0,1-3.9-5.54,32.11,32.11,0,0,1-2.71-5.2,71.57,71.57,0,0,1-3.62-14.21A53.35,53.35,0,0,1,256,83.1a64.86,64.86,0,0,1,8.13-20c3.18-5,6.73-9.64,11.8-12.89a23.65,23.65,0,0,1,5.15-2.8c3.16-1,6.22-2.56,9.72-2.42a40.89,40.89,0,0,1,10.59,1.65,29.69,29.69,0,0,0,5.94,1,32.21,32.21,0,0,1,17.9,7.46,9.15,9.15,0,0,1,1.5,1.82c2.2,3.11,4.57,6.12,6.5,9.39a9.71,9.71,0,0,1,.87,8c-.53,1.7-1.53,2.58-3,1.67-1.84-1.15-3.87-.89-5.76-1.45-1.45-.43-3-.5-4.48-.89a2.36,2.36,0,0,1-1.2-1.21c-1.31-2.7-2.49-5.47-3.85-8.14a18.66,18.66,0,0,0-2.58-4c-2.52-2.81-5.15-5.55-8.7-7.11a3.42,3.42,0,0,0-1.92-.23A23.52,23.52,0,0,0,293,56.91c-5.66,4.13-9.07,9.88-12.11,16a56.44,56.44,0,0,0-5,15.3,38.64,38.64,0,0,0-.11,12.74,75.52,75.52,0,0,0,2.46,11.68c2.05,6.38,4.76,12.49,10,17q1.74,1.5,3.62,2.85a1.38,1.38,0,0,0,1.22.16,37.83,37.83,0,0,0,4.83-3.36A30.14,30.14,0,0,0,305.26,119a41.81,41.81,0,0,0,1.87-6.41C307.43,111.42,307.6,110.27,307.86,109Z"/><path class="cls-1" d="M440.34,134.33c2.72-1.21,5-2.3,7.4-3.24a5.59,5.59,0,0,1,2.51-.28,7.52,7.52,0,0,1,3.12.77c2.11,1.32,4.42.68,6.62,1,1.4.2,1.39.35,1.05,1.72a6.09,6.09,0,0,1-3.79,4.36c-3.34,1.42-6.61,3-10,4.34-1.85.75-3.76.23-5.63-.22a72.83,72.83,0,0,0-8.25-1.9c-3.86-.47-6.31-2.58-8.15-5.76-2.26-3.93-3.05-8.25-3.51-12.68a41.38,41.38,0,0,1,.71-12.37c1.1-5.48,2.87-10.73,6.53-15.08a22,22,0,0,1,4.72-4.15,9.84,9.84,0,0,1,8.62-1,36.3,36.3,0,0,0,9,1.63c2.66.13,4.52,1.84,6.16,3.76,2.26,2.63,3.05,5.81,3.37,9.17a19.31,19.31,0,0,1-1.4,9.11,1.69,1.69,0,0,1-2.3,1.06c-2.88-.71-5.78-1.38-8.68-2-1.37-.29-1.75-.76-1.81-2.18-.14-3.18-.3-6.36-.59-9.53a12.72,12.72,0,0,0-1-2.9l-.43-.17a34.33,34.33,0,0,0-3.74,4.67,31,31,0,0,0-3.76,12.63,41,41,0,0,0,1.06,12.73C438.76,130,439.6,132.05,440.34,134.33Z"/><path class="cls-1" d="M538.8,101.48c1.39.1,2.65.23,3.91.28,2.23.09,2.73.53,2.73,2.73,0,6.64-.18,13.29.09,19.91a38.24,38.24,0,0,0,1.8,9.37c.9,3,3.41,4.34,6.45,4.68,2.31.26,2.31.25,1.75,2.45-.61,2.44-1.2,2.82-3.64,2.25-4-.93-8-1.75-12-2.9a68.51,68.51,0,0,1-7.37-3.05c-1.37.88-2.94,2-4.65,2.93a13.69,13.69,0,0,1-10.42.81c-3.3-.91-6.64-1.7-10-2.3C501,137.49,497,132.18,496.55,126a35.68,35.68,0,0,1,4.23-19.07,28.14,28.14,0,0,1,7.29-9.26c4.89-4,10.38-4.09,16.19-2.69,2.82.68,5.72,1,8.56,1.62A25.44,25.44,0,0,1,537.45,98C539,98.62,539.26,99.51,538.8,101.48Zm-9.87.1c-7.42,2-11,7.42-13.59,13.57-2.36,5.5-2.87,11.1-.07,17a36.85,36.85,0,0,0,3.07-2.78A34.57,34.57,0,0,0,525,118.25C526.94,113,527.72,107.47,528.93,101.58Z"/><path class="cls-1" d="M405.38,101.48c1.39.1,2.65.23,3.91.28,2.23.09,2.73.53,2.73,2.73,0,6.64-.18,13.29.08,19.91a38.26,38.26,0,0,0,1.81,9.37c.9,3,3.41,4.34,6.45,4.68,2.31.26,2.31.25,1.75,2.45-.61,2.44-1.2,2.82-3.65,2.25-4-.93-8-1.75-12-2.9a68.51,68.51,0,0,1-7.37-3.05c-1.37.88-2.94,2-4.65,2.93a13.69,13.69,0,0,1-10.42.81c-3.3-.91-6.64-1.7-10-2.3-6.51-1.15-10.47-6.46-10.92-12.63a35.78,35.78,0,0,1,4.24-19.07,28,28,0,0,1,7.29-9.26c4.88-4,10.38-4.09,16.19-2.69,2.82.68,5.72,1,8.56,1.62A25.68,25.68,0,0,1,404,98C405.54,98.62,405.84,99.51,405.38,101.48Zm-9.87.1c-7.42,2-11,7.42-13.6,13.57-2.36,5.5-2.86,11.1-.06,17a36.85,36.85,0,0,0,3.07-2.78,34.57,34.57,0,0,0,6.66-11.08C393.52,113,394.3,107.47,395.51,101.58Z"/><path class="cls-1" d="M343.35,131.52c.13-6.29.19-11.27.35-16.25.15-4.74.43-9.48.61-14.22.17-4.34.36-8.68.41-13,0-2.89-.22-5.79-.26-8.69,0-2.58.07-5.16.1-7.74s0-5,.08-7.48a21.51,21.51,0,0,1,.63-4.22c.31-1.21,1.17-1.34,2-.48.18.18.41.43.63.45,2.56.23,5.12.45,7.67.64a2.13,2.13,0,0,1,2,2.05c.2,1.88.28,3.79.31,5.69.1,5.22.21,10.44.2,15.66,0,4.53-.21,9-.27,13.58,0,2.9,0,5.8,0,8.7,0,5.38-.17,10.75-.14,16.12,0,4.94.23,9.88.27,14.82a36,36,0,0,1-.37,4.74c-.16,1.3-.9,1.74-2.22,1.4-2.85-.76-5.69-1.54-8.53-2.32a1.21,1.21,0,0,0-.35-.09c-1.72.23-2-.88-2.21-2.23C343.94,135.83,343.55,133,343.35,131.52Z"/><path class="cls-1" d="M559.39,131.52c.13-6.29.19-11.27.35-16.25.15-4.74.43-9.48.62-14.22.17-4.34.36-8.68.4-13,0-2.89-.22-5.79-.25-8.69,0-2.58.06-5.16.09-7.74s0-5,.08-7.48a20.8,20.8,0,0,1,.64-4.22c.3-1.21,1.16-1.34,2-.48.19.18.41.43.63.45,2.56.23,5.12.45,7.68.64a2.13,2.13,0,0,1,2,2.05c.2,1.88.28,3.79.31,5.69.1,5.22.21,10.44.2,15.66,0,4.53-.21,9-.27,13.58,0,2.9,0,5.8,0,8.7,0,5.38-.16,10.75-.14,16.12,0,4.94.23,9.88.27,14.82a36,36,0,0,1-.37,4.74c-.16,1.3-.9,1.74-2.22,1.4-2.85-.76-5.69-1.54-8.53-2.32a1.21,1.21,0,0,0-.35-.09c-1.72.23-2-.88-2.21-2.23C560,135.83,559.59,133,559.39,131.52Z"/><path class="cls-1" d="M468.55,130.79c.46-8,.77-15.07,2.39-22,.51-2.17,1.19-4.31,1.85-6.44.32-1,1.12-1.35,2.32-.94a28.35,28.35,0,0,0,8.64,1.62c1.45,0,2,.56,1.85,2-.21,2.3-.6,4.58-.87,6.88-.41,3.44-.93,6.87-1.14,10.33a98.39,98.39,0,0,0-.16,10.86c.16,3.42.34,3.43,3.71,4a22.75,22.75,0,0,0,2.62.17c1.28.05,1.64.53,1.3,1.74-.09.33,0,.73-.09,1.06s-.35,1.1-.71,1.27a40.61,40.61,0,0,1-4.86,1.93,4.61,4.61,0,0,1-2.23-.14c-3-.68-5.91-1.63-8.92-2.07a5.4,5.4,0,0,1-4.77-4.51A54,54,0,0,1,468.55,130.79Z"/><path class="cls-1" d="M471.17,84.79a13.17,13.17,0,0,1,.35-1.43c.39-1.12,1-1.34,2.26-1.07a15.74,15.74,0,0,0,2.39.15,3,3,0,0,1,1.05.09,22.45,22.45,0,0,0,8,1.66c.79.07,2-.36,2.14.69a7.36,7.36,0,0,1-.87,3.08c-.2.52-.71.91-.93,1.42-.61,1.47-1.39,1.71-2.91,1.28-2.69-.77-5.42-1.45-8.17-2A3.74,3.74,0,0,1,471.17,84.79Z"/></g></svg>