<svg xmlns="http://www.w3.org/2000/svg" viewBox="0 0 1444.8 202.41"><defs><style>.cls-1{fill:#8872a4;}</style></defs><g id="Layer_16_Image" data-name="Layer 16 Image"><path class="cls-1" d="M604.59,95.67c-1.45.25-2.82.43-4.17.73-2.53.56-5,1.21-7.58,1.81-1.76.41-3.52.82-5.29,1.17-.67.13-.81.44-.83,1.05-.13,4.41-.26,8.82-.48,13.22q-.29,5.77-.8,11.53a20.27,20.27,0,0,1-1,4c-.29,1-.94,1.19-1.9.9-1.29-.39-2.58-.77-3.86-1.19-.27-.1-.47-.46-.74-.52-.56-.13-1.16-.1-1.73-.22-1.18-.25-2.37-.51-3.52-.87-.15,0-.17-.7-.15-1.06.1-1.64.25-3.27.36-4.91.28-4.35.57-8.7.81-13.06.13-2.28.18-4.57.26-6.85,0-.76.08-1.51,0-2.26a1.19,1.19,0,0,0-.72-1.21c-.76-.38-.58-2.17.1-2.7a1.32,1.32,0,0,0,.51-.86c0-3.15-.1-6.29-.12-9.43,0-2.53,0-5.07.06-7.61s0-4.93.05-7.39q.19-4.81.61-9.62c.1-1.06.5-1.11,1.55-.8,1.3.39,2.64.69,4,1a1.93,1.93,0,0,1,.5.13,2.83,2.83,0,0,0,2.78.25c.71-.28,1.38.33,1.58,1a26.49,26.49,0,0,1,.86,3.93c.39,3.2.76,6.41,1,9.63a80.54,80.54,0,0,1,.36,10.17c-.12,2,.18,3.87,0,5.74L604.51,88c0-1.75,0-3.78,0-5.81.07-3,.23-6,.3-9.06.07-3.32.06-6.65.15-10,0-1.77.17-3.53.33-5.29.09-1,.61-1.35,1.71-1.13,2.35.47,4.73.79,7.1,1.11a2.17,2.17,0,0,1,2,2,76.81,76.81,0,0,1,1.29,9.27c.29,7,.34,14.1.4,21.15,0,4.55-.12,9.1-.15,13.65,0,3.81.1,7.62,0,11.43s-.34,7.48-.66,11.21a18.65,18.65,0,0,1-1,3.82c-.32,1-1.13,1.23-2.1,1-2.47-.67-4.93-1.36-7.41-2a14,14,0,0,0-1.84-.19c-.89-.1-1.25-.59-1.18-1.5.19-2.8.36-5.61.49-8.41.17-3.67.3-7.34.41-11,.12-4,.19-8,.27-12A5.38,5.38,0,0,0,604.59,95.67Z"/><path class="cls-1" d="M649.93,117.45c3.31-4.8,4.89-10.28,6-15.9.81-4.23,1.34-8.5,2-12.76.26-1.73.36-3.48.63-5.21.32-2,2.09-2.63,3.76-1.37a3,3,0,0,0,1.07.3c.42.1.84.2,1.26.27,1,.16,2,.28,2.94.44,1.34.22,2.67.46,4,.73a.75.75,0,0,1,.41.5,17.6,17.6,0,0,1,.42,2.48c.32,5.81.52,11.63.95,17.44a60.17,60.17,0,0,0,1.41,10.73,18.26,18.26,0,0,0,6.45,9.83c1.18.92,2.15,2.14,3.83,2.14a.6.6,0,0,1,.31.17c1.07.94.36,2.06.12,3-.13.5-1,1-1.57,1.15a4.84,4.84,0,0,1-2-.32c-2.75-.66-5.49-1.35-8.23-2-1.91-.47-3.81-.79-5.41-2.24a61.35,61.35,0,0,0-5.79-4.21,30.07,30.07,0,0,1-3.6,3.13,9.16,9.16,0,0,1-7.52,1.18c-3.38-.88-6.8-1.64-10.2-2.44a6.62,6.62,0,0,1-5-4.16,66.31,66.31,0,0,1-2.62-8.94,31.11,31.11,0,0,1-.52-6.76c0-3.42.18-6.84.5-10.25a69.71,69.71,0,0,1,3.41-15.92c.47-1.45,1.06-1.59,2.49-1.14A33,33,0,0,0,646.88,79c1.93.14,2.55,1.05,2.4,2.92-.39,5-.7,9.92-1,14.88a68.9,68.9,0,0,0,.07,12.52c.31,2.71.78,5.41,1.18,8.12Z"/><path class="cls-1" d="M699.61,128.89v1a6.39,6.39,0,0,1-.76,0c-.92-.12-1.82-.33-2.74-.38-1.12-.07-1.84-.5-1.9-1.69-.08-1.43-.09-2.87-.15-4.3-.14-3.5-.31-7-.44-10.51-.18-4.53-.38-9.07-.48-13.61,0-2.17.16-4.36.17-6.53s-.23-4.29-.13-6.42a66.57,66.57,0,0,1,.71-6.75c.13-.91.74-1.16,1.7-.84,2.1.72,4.23,1.34,6.37,1.94a4.22,4.22,0,0,0,1.66,0,1.57,1.57,0,0,1,2,1.3c.18.56.38,1.12.6,1.77,1.16-.74,2.19-1.48,3.31-2.08a8.26,8.26,0,0,1,6.83-.43,21,21,0,0,0,5.59,1.11c3,.13,5.52.87,6.8,3.9a2.48,2.48,0,0,0,.27.39l.34.42c1.34-1,2.62-2.1,4-3.05,2.73-1.91,5.53-3,9-1.56a19.74,19.74,0,0,0,5.86,1.08c4,.34,6.23,2.77,7.51,6.16a55.54,55.54,0,0,1,3.16,12.6q1,8.07,2.1,16.13c.19,1.41.61,2.8.69,4.21a29,29,0,0,1-.15,4.75c-.11,1.15-.94,1.59-2.07,1.32-3.14-.75-6.29-1.47-9.4-2.33a2.07,2.07,0,0,1-1.07-1.46c-.44-2.63-.74-5.29-1.08-7.93-.6-4.66-1.14-9.33-1.81-14-.52-3.55-1.16-7.08-1.81-10.62-.18-1-.57-2-.95-3.26a39.84,39.84,0,0,0-3.33,2.87A56,56,0,0,0,736,96.6a18.15,18.15,0,0,0-3.75,8.8c-.35,2.7-1.1,3.09-3.6,2.13a18.68,18.68,0,0,0-3-.62c-1.39-.28-2.77-.64-4.18-.8-1.14-.12-1.41-.74-1.57-1.72-.76-4.8-1.58-9.59-2.39-14.38,0-.27-.15-.53-.33-1.16-1.67,1.72-3.23,3.24-4.68,4.84a22.32,22.32,0,0,0-4.75,8.09,14.66,14.66,0,0,0-.4,4.2c0,2.7.14,5.4.08,8.09s-.25,5.65-.45,8.48q-.25,3.75-.68,7.5c-.14,1.3-1.38,1.73-2.71,1.08-.87-.43-1.81-.69-2.67-1.12A7.39,7.39,0,0,1,699.61,128.89Z"/><path class="cls-1" d="M834.22,84.37c1.29-1,2.44-1.84,3.54-2.74a15.13,15.13,0,0,1,6.59-3.19,9.73,9.73,0,0,1,3.4.08c2.94.48,5.83,1.27,8.78,1.6,4.08.45,6.25,3,7.28,6.8,1.25,4.55.82,9.16.77,13.75,0,1.61-.36,3.21-.45,4.82,0,.77.28,1.57.27,2.35-.08,5.73-.14,11.47-.34,17.21a50.39,50.39,0,0,1-.78,5.55c-.12.8-.67,1-1.33.75-1.64-.48-3.26-1.07-4.92-1.49a31.67,31.67,0,0,0-3.4-.53c-1.86-.26-2.12-.63-2.08-2.48.05-3.55,0-7.1.06-10.64,0-1.4.16-2.79.13-4.18-.08-4.22-.14-8.44-.37-12.65-.19-3.49-.59-7-.92-10.45a12.2,12.2,0,0,0-.35-1.54l-1.55,1.24a46.12,46.12,0,0,0-11.87,13.29,13.23,13.23,0,0,0-1.78,7.18c.24,5.63.24,11.26.27,16.88a6.81,6.81,0,0,1-.62,2.65,1.54,1.54,0,0,1-2,.83c-3.2-.8-6.42-1.54-9.64-2.27a1.61,1.61,0,0,1-1.42-1.76c0-1.47,0-2.93-.11-4.4-.26-6.33-.57-12.66-.8-19-.15-4.23-.31-8.46-.27-12.69a82.3,82.3,0,0,1,.63-9.41c.28-2.31,1.17-2.6,3.44-2,2.46.68,4.85,1.87,7.55,1.27.86-.18,1.36.35,1.52,1.17C833.71,81.68,834,83,834.22,84.37Z"/><path class="cls-1" d="M888.35,116a20.07,20.07,0,0,0,4.94,7.66,1.63,1.63,0,0,0,1.31.27c2.45-.74,4.85-1.61,7.3-2.32a4,4,0,0,1,1.87.27,18.61,18.61,0,0,0,2.32.7c2.17.24,4.34.39,6.52.52,1.7.11,2,.57,1.61,2.12-.43,1.9-1.83,2.77-3.5,3.44-3.42,1.38-6.89,2.67-10.65,2.76a21.89,21.89,0,0,1-4.69-.78c-2.84-.58-5.64-1.32-8.49-1.8-6-1-10.3-3.93-13-9.15a28.35,28.35,0,0,1-3.14-14.25,34.37,34.37,0,0,1,1.74-9,30.81,30.81,0,0,1,6-10.8,21.28,21.28,0,0,1,9.62-6.34,8.18,8.18,0,0,1,5.22.07A31.74,31.74,0,0,0,902.5,81c2.58,0,5.1,3.07,5.56,4.8a21.1,21.1,0,0,1-1.3,14.17,27.43,27.43,0,0,1-8.22,10.6,70.58,70.58,0,0,1-7,4.69A12,12,0,0,1,888.35,116Zm-2.12-12.12c5.8-4.15,9.89-10.3,8.9-16.57C891.21,88.64,885.8,98.63,886.23,103.89Z"/><path class="cls-1" d="M803.36,96.46c1.16.09,2.21.2,3.27.24,1.85.08,2.27.44,2.27,2.28,0,5.54-.15,11.09.07,16.62a32.31,32.31,0,0,0,1.51,7.81c.75,2.5,2.85,3.63,5.38,3.91,1.93.22,1.93.2,1.47,2-.52,2-1,2.35-3.05,1.88-3.34-.78-6.71-1.46-10-2.42a60.63,60.63,0,0,1-6.15-2.54c-1.15.72-2.46,1.69-3.88,2.44a11.46,11.46,0,0,1-8.7.68c-2.75-.76-5.54-1.42-8.35-1.92-5.44-1-8.74-5.39-9.11-10.55A29.93,29.93,0,0,1,771.63,101a23.45,23.45,0,0,1,6.09-7.73c4.07-3.3,8.66-3.41,13.51-2.24,2.35.57,4.77.85,7.14,1.35a22.38,22.38,0,0,1,3.87,1.15C803.5,94.08,803.75,94.82,803.36,96.46Zm-8.24.08c-6.18,1.71-9.14,6.2-11.34,11.33-2,4.59-2.39,9.27,0,14.16a32.53,32.53,0,0,0,2.56-2.32,29,29,0,0,0,5.56-9.25C793.46,106,794.11,101.47,795.12,96.54Z"/><path class="cls-1" d="M1004.61,131.43a42.48,42.48,0,0,1-10.49-1.85c-2.49-.73-5.08-1.12-7.63-1.62a18.06,18.06,0,0,1-10.16-5.32,13.52,13.52,0,0,1-1.88-3c-.84-1.64-1.62-3.32-2.39-5-.49-1.1-1-2.21-1.37-3.34a4.21,4.21,0,0,1-.19-1.58c.1-1.92.81-2.41,2.61-1.8,1.13.38,2.22.87,3.35,1.23a6.39,6.39,0,0,0,1.75.26,9.9,9.9,0,0,0,1.88-.12c1.58-.26,2.22.68,2.95,1.88,2.58,4.27,5,8.68,9,11.84a4.24,4.24,0,0,0,4,1,19,19,0,0,0,7.83-4,6.39,6.39,0,0,0,1.08-1.67c3.14-5.43,2-10.44-1.62-15.12-1.49-1.91-3.13-3.7-4.74-5.51a30.67,30.67,0,0,0-3.08-3.16c-2.15-1.8-4.43-3.46-6.61-5.22-.83-.67-1.55-1.47-2.34-2.19A29.62,29.62,0,0,1,984,84.76a15.32,15.32,0,0,1-3.49-13.87,26.43,26.43,0,0,1,4.18-9.65,14.3,14.3,0,0,1,5.13-4.49,9.14,9.14,0,0,1,5.81-1.27c1.3.19,2.54.71,3.83.94,1.89.34,3.83.45,5.7.85a22.12,22.12,0,0,1,5,1.53,46.41,46.41,0,0,1,5.7,3.41c1.39.93,1.56,3.53.45,4.77-.54.61-1.15.36-1.78.2-2.33-.58-4.67-1.1-7-1.72a5.8,5.8,0,0,1-1.45-.88,42.42,42.42,0,0,0-3.66-2.31c-.3-.16-1,.23-1.41.54A15.94,15.94,0,0,0,994.57,75a11.86,11.86,0,0,0,2.34,7c1.93,3,5,4.78,7.69,6.89,3,2.32,6.08,4.65,8.89,7.22a39.86,39.86,0,0,1,8,9.73,14.39,14.39,0,0,1,1.77,8.67,23.55,23.55,0,0,1-2.35,8.52,12.29,12.29,0,0,1-6,5.78,24.39,24.39,0,0,1-6.49,2.25C1007,131.26,1005.59,131.33,1004.61,131.43Z"/><path class="cls-1" d="M1273.43,130.66c-1.52,1.15-2.7,2.16-4,3-2.67,1.74-5.57,1.66-8.53.94-2.24-.54-4.47-1.17-6.73-1.61-5.44-1.06-8.89-4.38-11.18-9.26-2.4-5.12-2.19-10.57-2.08-16A130.2,130.2,0,0,1,1242.1,94c.38-3,1.28-5.89,1.92-8.84.21-1,.24-2.07.53-3,.54-1.87.83-1.87,2.68-1.53,2.64.48,5.31.78,8,1.08.84.1,1.42.34,1.4,1.25a25.47,25.47,0,0,1-.2,2.61c-.5,4.37-1.24,8.73-1.48,13.12-.28,5.2-.32,10.43-.09,15.63.17,3.92.65,7.89,2.53,11.48.43.83,1,1.61,1.67,2.7,1.52-1.35,3-2.45,4.17-3.75a39,39,0,0,0,8.54-15.59,70.06,70.06,0,0,0,2.87-16.2c.19-3.24.21-6.49.4-9.74a4.72,4.72,0,0,1,.79-2.2,1.43,1.43,0,0,1,1.41-.19c1,.85,2.13.67,3.24.83s1.92.42,2.88.62a5.73,5.73,0,0,0,1.63.23,1.86,1.86,0,0,1,2.3,1.85c.06,1.86,0,3.73,0,5.59.06,2.81.21,5.62.24,8.43s-.06,5.56-.09,8.34c0,3.46,0,6.93-.09,10.4,0,3-.13,6-.15,9q0,7.23,0,14.46c0,2.51.17,5,.1,7.53a69.21,69.21,0,0,1-3.5,21.17c-1.1,3.14-2.18,6.34-4.38,8.93s-5,5.09-8.78,5.3a20.46,20.46,0,0,1-4.9-.76c-2.29-.47-4.55-1.13-6.86-1.51-4.29-.72-8-2.47-10.19-6.33a54.59,54.59,0,0,1-3.1-7.47c-.61-1.59-1.12-3.21-1.67-4.82a7.9,7.9,0,0,1,.08-5.74,1.28,1.28,0,0,1,1.88-.83,27.37,27.37,0,0,0,8.77,1.75c1.64,0,1.7.39,2.08,2.06a54,54,0,0,0,2.33,7.75c1,2.62,2.38,5.12,3.6,7.67.4.83.9.83,1.6.25a17.51,17.51,0,0,0,5-7.21c2.54-6.3,3.42-12.92,3.77-19.63.22-4.38.32-8.76.44-13.14C1273.47,134,1273.43,132.41,1273.43,130.66Z"/><path class="cls-1" d="M1202.44,89.58c-5.08-1.06-10-2.08-14.88-3.08-.9-.19-1.6-.44-1.51-1.6.13-1.53.56-2.23,1.76-2.24,3.91,0,7.83,0,11.74,0a26.51,26.51,0,0,0,3.34-.11c.32,0,.74-.62.83-1,.59-2.72,1-5.5,1.69-8.19,1.33-4.83,2.86-9.6,4.3-14.4.68-2.25,1.37-4.5,2-6.76.56-2,.89-2.11,2.85-1.58,2.41.65,4.8,1.46,7.37,1.35,1.76-.07,2.32.48,2.06,2.24-.67,4.49-1.39,9-2.28,13.43s-2,8.78-3,13.17a4,4,0,0,0,0,.72,11.65,11.65,0,0,0,1.87,0c1.82-.29,3.54.24,5.3.51,3.08.45,6.17.88,9.27,1.21,2,.21,2.22.39,1.92,2.3-.33,2.07-1,2.7-3.22,2.84-5.21.35-10.42.7-15.63,1-.83,0-1.1.34-1.19,1.09-.4,3.44-.86,6.86-1.25,10.3-.46,4-1,8.06-1.25,12.1a23.22,23.22,0,0,0,1.29,10.41,1.35,1.35,0,0,0,1.15.53,7.6,7.6,0,0,0,2-1.63,2.16,2.16,0,0,1,2.75-.76,52.39,52.39,0,0,0,5.57,1.15c1.08.18,2.19.17,3.28.33s1.27.79,1.14,1.75c-.42,2.9-1.77,4.86-4.8,5.69-3.27.91-6.48,1.59-9.86.69-2.58-.69-5.18-1.3-7.77-1.95a23.61,23.61,0,0,1-4.45-1.24c-2.63-1.25-3.66-3.75-4.21-6.43-1-5.18-.65-10.4-.21-15.6.27-3.19.65-6.37,1-9.54C1201.74,94,1202.12,91.71,1202.44,89.58Z"/><path class="cls-1" d="M1074.17,104.31a35.89,35.89,0,0,1-2.65,11,65.35,65.35,0,0,1-3.75,7.6c-2,3.68-5.41,6-9,7.76a9.58,9.58,0,0,1-7.13.19,54.54,54.54,0,0,0-8.23-2c-4.27-.56-7.37-2.77-10-6a21,21,0,0,1-3.65-7.32c-2.41-7.85-1.09-15.4,1.87-22.84a24.48,24.48,0,0,1,4.67-8c2.32-2.48,5-3.54,8.42-2.54a41.1,41.1,0,0,0,4.88,1.14,17.3,17.3,0,0,0,2.68-.1,5.49,5.49,0,0,1,1.86.22A26.34,26.34,0,0,0,1062.9,85a4.45,4.45,0,0,1,4.12,2.16,14.57,14.57,0,0,0,2.41,2.28,9.55,9.55,0,0,1,2.4,4.6c.29,1.14.83,2.23,1.07,3.38C1073.39,99.7,1073.75,102,1074.17,104.31ZM1048.49,123a19,19,0,0,0,7-7.08,22.8,22.8,0,0,0,3.64-10,34.28,34.28,0,0,0-.3-7,17.91,17.91,0,0,0-2.92-7.76,3.56,3.56,0,0,0-1.71-1.12c-1-.37-2.23-.4-3.23-.87a2.41,2.41,0,0,0-3.08.73,15.09,15.09,0,0,0-3.69,7.29c-1.44,6.53-1.81,13.14.78,19.52A60.11,60.11,0,0,0,1048.49,123Z"/><path class="cls-1" d="M1163.3,116a20.24,20.24,0,0,0,4.67,7.66,1.5,1.5,0,0,0,1.25.27c2.31-.74,4.58-1.61,6.91-2.32a3.6,3.6,0,0,1,1.76.27,17,17,0,0,0,2.2.7c2.05.24,4.11.39,6.17.52,1.6.11,1.85.57,1.52,2.12-.4,1.9-1.73,2.77-3.31,3.44-3.24,1.38-6.52,2.67-10.07,2.76a19.7,19.7,0,0,1-4.45-.78c-2.68-.58-5.34-1.32-8-1.8a16,16,0,0,1-12.32-9.15,29.76,29.76,0,0,1-3-14.25,36.37,36.37,0,0,1,1.65-9,31.19,31.19,0,0,1,5.72-10.8,20,20,0,0,1,9.1-6.34,7.35,7.35,0,0,1,4.94.07,28.61,28.61,0,0,0,8.66,1.59c2.44,0,4.83,3.07,5.26,4.8a22.1,22.1,0,0,1-1.23,14.17,27.28,27.28,0,0,1-7.77,10.6,66.73,66.73,0,0,1-6.6,4.69A10.84,10.84,0,0,1,1163.3,116Zm-2-12.12c5.49-4.15,9.37-10.3,8.43-16.57C1166,88.64,1160.89,98.63,1161.29,103.89Z"/><path class="cls-1" d="M1096.56,122.38c2.72-1.21,5-2.3,7.4-3.24a5.46,5.46,0,0,1,2.51-.27,7.36,7.36,0,0,1,3.12.76c2.11,1.32,4.42.68,6.63,1,1.39.21,1.38.35,1,1.72a6.09,6.09,0,0,1-3.79,4.36c-3.34,1.42-6.61,3-10,4.34-1.85.75-3.76.23-5.63-.22a72.83,72.83,0,0,0-8.25-1.9c-3.86-.47-6.31-2.58-8.15-5.76-2.26-3.93-3-8.25-3.51-12.68a41.38,41.38,0,0,1,.71-12.37c1.1-5.48,2.87-10.73,6.53-15.08a22,22,0,0,1,4.72-4.15,9.87,9.87,0,0,1,8.62-1,36.3,36.3,0,0,0,9,1.63c2.66.13,4.52,1.85,6.16,3.76,2.26,2.63,3,5.81,3.37,9.17a19.31,19.31,0,0,1-1.4,9.11,1.68,1.68,0,0,1-2.3,1.06c-2.88-.7-5.78-1.38-8.68-2-1.36-.29-1.75-.76-1.81-2.17-.14-3.19-.3-6.37-.59-9.54a12.72,12.72,0,0,0-1-2.9l-.43-.17a34.33,34.33,0,0,0-3.74,4.67,31,31,0,0,0-3.76,12.63,41,41,0,0,0,1.06,12.73C1095,118,1095.82,120.1,1096.56,122.38Z"/><path class="cls-1" d="M1122.46,118.84c.47-8,.77-15.06,2.39-22,.51-2.17,1.19-4.31,1.85-6.44.32-1.05,1.13-1.35,2.32-.94a28.35,28.35,0,0,0,8.64,1.62c1.45,0,2,.56,1.85,2-.2,2.3-.6,4.58-.87,6.88-.41,3.44-.92,6.87-1.14,10.33a98.39,98.39,0,0,0-.16,10.86c.16,3.43.34,3.43,3.71,4a22.75,22.75,0,0,0,2.62.17c1.28,0,1.64.53,1.3,1.74-.09.33,0,.74-.09,1.06s-.35,1.1-.71,1.27a40.61,40.61,0,0,1-4.86,1.93,4.61,4.61,0,0,1-2.23-.14c-3-.68-5.91-1.63-8.92-2.07a5.41,5.41,0,0,1-4.77-4.51A54,54,0,0,1,1122.46,118.84Z"/><path class="cls-1" d="M1125.08,72.84a13.17,13.17,0,0,1,.35-1.43c.39-1.12,1-1.34,2.26-1.07a15.74,15.74,0,0,0,2.39.15,3,3,0,0,1,1.05.09,22.45,22.45,0,0,0,8,1.66c.79.07,2-.36,2.14.69a7.36,7.36,0,0,1-.87,3.08c-.2.52-.71.91-.93,1.43-.61,1.46-1.39,1.7-2.91,1.27-2.69-.77-5.42-1.45-8.17-2A3.75,3.75,0,0,1,1125.08,72.84Z"/><path class="cls-1" d="M186.82,91.9c1.7.3,3.21.48,4.67.85a63.17,63.17,0,0,1,8.67,2.43,22.65,22.65,0,0,1,6.4,4c4.3,3.87,5.64,8.76,4,14.39a25,25,0,0,1-3.83,7.32,19.77,19.77,0,0,1-6.26,5.63A33.9,33.9,0,0,1,193,130c-3.46,1.06-7.06,1.88-10.77,1.22-.78-.14-1.57-.3-2.34-.49-3.43-.82-6.87-1.61-10.28-2.51a5.72,5.72,0,0,1-2.19-1.19,21.76,21.76,0,0,1-2.86-2.9,3.39,3.39,0,0,1-.84-3.62c.46-1.13.48-1.27,1.67-.88.23.08.45.14.83.25-.13-.84-.29-1.58-.34-2.33-.1-1.47-.19-2.94-.21-4.41s0-2.73.1-4.09c.15-2.83.36-5.66.5-8.49.1-2,.12-3.91.15-5.87s.06-4,.08-6c0-1.53,0-3.06,0-4.59.06-3.6.11-7.2.2-10.8s.23-7.06.34-10.41a8,8,0,0,1-2.14.16,33,33,0,0,1-5-1.3c-.72-.26-1.23-1.09-1.83-1.66-.22-.22-.42-.46-.81-.87a1.74,1.74,0,0,1,.22-.79,16.09,16.09,0,0,1,2.64-3.29,22.86,22.86,0,0,1,7.15-4,28.27,28.27,0,0,1,9.43-1.47,46.68,46.68,0,0,1,11.44,1.58c1.83.49,3.76.59,5.64,1,4.88.92,9.32,2.68,12.48,6.79a11.22,11.22,0,0,1,2.26,9.69,19.87,19.87,0,0,1-2.46,6.9,24.49,24.49,0,0,1-5.6,6.11c-4.23,3.18-8.5,6.31-12.75,9.47C187.46,91.33,187.22,91.56,186.82,91.9ZM180.24,95c-.82,9.76.29,19.55-1.59,29.33,2.93-.79,5.74-1.22,8.09-3,1.85-1.36,4-2.44,5.5-4.09a18.12,18.12,0,0,0,4.55-8,4.07,4.07,0,0,0,.07-1.35,11.88,11.88,0,0,0-3.63-7.63,16,16,0,0,0-7.73-4.43c-1.65-.34-3.31-.62-5-.92A1.59,1.59,0,0,0,180.24,95Zm.18-12.57a6.16,6.16,0,0,0,3.1-1.9c.83-.73,1.86-1.22,2.69-2,2.1-1.87,4.11-3.83,6.2-5.73a11.18,11.18,0,0,0,3.47-7.63c.24-2.48-.94-4.42-2.45-6.21-2.27-2.68-5-4.45-8.7-3.72-.51.1-1,.06-1.56.11-1.28.13-2.55.28-3.82.43,1.46,4.55,1,9,1.06,13.38S180.42,78.06,180.42,82.43Z"/><path class="cls-1" d="M317.85,89.58c-5.09-1.06-10-2.08-14.89-3.08-.9-.19-1.6-.44-1.5-1.6.12-1.53.56-2.23,1.76-2.24,3.91,0,7.82,0,11.73,0a26.66,26.66,0,0,0,3.35-.11c.32,0,.74-.62.82-1,.6-2.72,1-5.5,1.7-8.19,1.32-4.83,2.86-9.6,4.3-14.4.68-2.25,1.37-4.5,2-6.76.55-2,.89-2.11,2.85-1.58,2.41.65,4.79,1.46,7.37,1.35,1.75-.07,2.32.48,2.06,2.24-.67,4.49-1.4,9-2.28,13.43s-2,8.78-3,13.17a4.24,4.24,0,0,0,0,.72,11.66,11.66,0,0,0,1.87,0c1.82-.29,3.54.24,5.3.51,3.08.45,6.17.88,9.26,1.21,2,.21,2.23.39,1.92,2.3-.32,2.07-1,2.7-3.22,2.84-5.2.35-10.41.7-15.62,1-.83,0-1.1.34-1.19,1.09-.4,3.44-.86,6.86-1.25,10.3-.46,4-1,8.06-1.25,12.1a23.08,23.08,0,0,0,1.29,10.41,1.33,1.33,0,0,0,1.15.53,7.77,7.77,0,0,0,2-1.63,2.16,2.16,0,0,1,2.75-.76,52.39,52.39,0,0,0,5.57,1.15c1.08.18,2.19.17,3.28.33s1.27.79,1.13,1.75c-.41,2.9-1.77,4.86-4.79,5.69-3.28.91-6.49,1.59-9.86.69-2.58-.69-5.18-1.3-7.77-1.95a23.51,23.51,0,0,1-4.46-1.24c-2.63-1.25-3.66-3.75-4.2-6.43-1.05-5.18-.66-10.4-.22-15.6.27-3.19.66-6.37,1.05-9.54C317.15,94,317.53,91.71,317.85,89.58Z"/><path class="cls-1" d="M360.71,123.19c0-4.11,0-8.21,0-12.32,0-4.61-.32-9.21-.2-13.81.15-5.41.6-10.82.95-16.22a29.67,29.67,0,0,1,.49-3.77c.24-1.21.87-1.51,2-1.09a28.54,28.54,0,0,0,8.28,1.56c1.61.1,2.1.39,2.33,1.95s.32,3.1.39,4.65c0,1,.23,1.32,1.45,1.25,2.5-.13,5,.12,7.53.24,1.24.05,2.47.25,3.7.24,3.17,0,6,1.42,9.12,1.76,1.18.13,2.37.21,3.56.3s1.66.63,1.39,1.88c-.48,2.15-.72,2.25-2.89,2.19-4.82-.14-9.64-.27-14.46-.2a6.37,6.37,0,0,0-4.53,1.76c-1.31,1.3-2.75,2.48-4.12,3.74a1.54,1.54,0,0,0-.51.77c-.17,1.42-.33,2.85-.4,4.27-.19,3.77-.35,7.55-.51,11.32-.11,2.62-.15,5.24-.3,7.85-.16,2.86-.33,5.71-.65,8.55-.15,1.35-.85,1.62-2.16,1.17-1.68-.57-3.33-1.27-5-1.71a27.28,27.28,0,0,0-4.06-.48c-1.05-.09-1.46-.64-1.44-1.66,0-1.39,0-2.79,0-4.19Z"/><path class="cls-1" d="M492.3,116a20.37,20.37,0,0,0,4.67,7.66,1.5,1.5,0,0,0,1.25.27c2.31-.74,4.59-1.61,6.91-2.32a3.66,3.66,0,0,1,1.77.27,16.36,16.36,0,0,0,2.19.7c2.05.24,4.11.39,6.17.52,1.61.11,1.85.57,1.53,2.12-.41,1.9-1.74,2.77-3.32,3.44-3.23,1.38-6.52,2.67-10.07,2.76a19.7,19.7,0,0,1-4.45-.78c-2.68-.58-5.33-1.32-8-1.8a16,16,0,0,1-12.33-9.15,29.76,29.76,0,0,1-3-14.25,36.37,36.37,0,0,1,1.65-9A31.53,31.53,0,0,1,483,85.63a20,20,0,0,1,9.11-6.34,7.32,7.32,0,0,1,4.93.07A28.62,28.62,0,0,0,505.7,81c2.43,0,4.82,3.07,5.25,4.8a22.1,22.1,0,0,1-1.23,14.17,27.28,27.28,0,0,1-7.77,10.6,66.73,66.73,0,0,1-6.6,4.69A10.84,10.84,0,0,1,492.3,116Zm-2-12.12c5.48-4.15,9.36-10.3,8.42-16.57C495,88.64,489.89,98.63,490.3,103.89Z"/><path class="cls-1" d="M238.42,116a20.24,20.24,0,0,0,4.67,7.66,1.48,1.48,0,0,0,1.24.27c2.32-.74,4.59-1.61,6.91-2.32a3.64,3.64,0,0,1,1.77.27,16.49,16.49,0,0,0,2.2.7c2,.24,4.11.39,6.17.52,1.6.11,1.85.57,1.52,2.12-.41,1.9-1.73,2.77-3.32,3.44-3.23,1.38-6.51,2.67-10.07,2.76a19.9,19.9,0,0,1-4.45-.78c-2.68-.58-5.33-1.32-8-1.8a16,16,0,0,1-12.32-9.15,29.76,29.76,0,0,1-3-14.25,36.37,36.37,0,0,1,1.65-9,31.34,31.34,0,0,1,5.71-10.8,20.12,20.12,0,0,1,9.11-6.34,7.35,7.35,0,0,1,4.94.07A28.55,28.55,0,0,0,251.81,81c2.44,0,4.83,3.07,5.26,4.8a22.23,22.23,0,0,1-1.23,14.17,27.3,27.3,0,0,1-7.78,10.6,66.59,66.59,0,0,1-6.59,4.69A10.84,10.84,0,0,1,238.42,116Zm-2-12.12c5.49-4.15,9.36-10.3,8.42-16.57C241.12,88.64,236,98.63,236.41,103.89Z"/><path class="cls-1" d="M451.59,122.38c2.72-1.21,5-2.3,7.4-3.24a5.45,5.45,0,0,1,2.51-.27,7.36,7.36,0,0,1,3.12.76c2.11,1.32,4.42.68,6.62,1,1.4.21,1.39.35,1.05,1.72a6.09,6.09,0,0,1-3.79,4.36c-3.34,1.42-6.61,3-10,4.34-1.85.75-3.76.23-5.63-.22a72.83,72.83,0,0,0-8.25-1.9c-3.86-.47-6.31-2.58-8.15-5.76-2.26-3.93-3.05-8.25-3.51-12.68a41.38,41.38,0,0,1,.71-12.37c1.1-5.48,2.87-10.73,6.53-15.08A22,22,0,0,1,445,78.89a9.87,9.87,0,0,1,8.62-1,36.3,36.3,0,0,0,9,1.63c2.66.13,4.52,1.85,6.16,3.76,2.26,2.63,3.05,5.81,3.37,9.17a19.31,19.31,0,0,1-1.4,9.11,1.68,1.68,0,0,1-2.3,1.06c-2.88-.7-5.78-1.38-8.68-2-1.37-.29-1.75-.76-1.81-2.17-.14-3.19-.3-6.37-.59-9.54a12.72,12.72,0,0,0-1-2.9l-.43-.17a34.33,34.33,0,0,0-3.74,4.67,31,31,0,0,0-3.76,12.63,41,41,0,0,0,1.06,12.73C450,118,450.85,120.1,451.59,122.38Z"/><path class="cls-1" d="M300.23,96.46c1.16.09,2.21.2,3.27.24,1.85.08,2.27.44,2.27,2.28,0,5.54-.15,11.09.07,16.62a32.31,32.31,0,0,0,1.51,7.81c.75,2.5,2.85,3.63,5.38,3.91,1.93.22,1.93.2,1.46,2-.51,2-1,2.35-3,1.88-3.34-.78-6.71-1.46-10-2.42a61.74,61.74,0,0,1-6.16-2.54c-1.14.72-2.45,1.69-3.87,2.44a11.46,11.46,0,0,1-8.7.68c-2.75-.76-5.54-1.42-8.35-1.92-5.44-1-8.74-5.39-9.11-10.55A29.83,29.83,0,0,1,268.5,101a23.43,23.43,0,0,1,6.08-7.73c4.08-3.3,8.67-3.41,13.51-2.24,2.36.57,4.78.85,7.15,1.35a22.64,22.64,0,0,1,3.87,1.15C300.37,94.08,300.61,94.82,300.23,96.46Zm-8.24.08c-6.19,1.71-9.14,6.2-11.34,11.33-2,4.59-2.4,9.27,0,14.16a32.26,32.26,0,0,0,2.55-2.32,28.62,28.62,0,0,0,5.56-9.25C290.33,106,291,101.47,292,96.54Z"/><path class="cls-1" d="M407.49,118.84c.46-8,.76-15.06,2.38-22,.51-2.17,1.19-4.31,1.85-6.44.33-1.05,1.13-1.35,2.33-.94a28.24,28.24,0,0,0,8.64,1.62c1.44,0,2,.56,1.84,2-.2,2.3-.59,4.58-.87,6.88-.41,3.44-.92,6.87-1.14,10.33a103.56,103.56,0,0,0-.16,10.86c.16,3.43.35,3.43,3.72,4a22.72,22.72,0,0,0,2.61.17c1.28,0,1.64.53,1.31,1.74-.1.33,0,.74-.1,1.06s-.35,1.1-.71,1.27a40.61,40.61,0,0,1-4.86,1.93,4.57,4.57,0,0,1-2.22-.14c-3-.68-5.92-1.63-8.93-2.07a5.41,5.41,0,0,1-4.77-4.51A53.56,53.56,0,0,1,407.49,118.84Z"/><path class="cls-1" d="M410.11,72.84a12.82,12.82,0,0,1,.34-1.43c.39-1.12,1-1.34,2.27-1.07a15.69,15.69,0,0,0,2.38.15,3,3,0,0,1,1,.09,22.54,22.54,0,0,0,8,1.66c.8.07,2-.36,2.14.69a7.22,7.22,0,0,1-.87,3.08c-.19.52-.71.91-.92,1.43-.62,1.46-1.39,1.7-2.91,1.27-2.7-.77-5.43-1.45-8.18-2A3.75,3.75,0,0,1,410.11,72.84Z"/></g></svg>