<svg xmlns="http://www.w3.org/2000/svg" viewBox="0 0 1000 202.41"><defs><style>.cls-1{fill:#8872a4;}</style></defs><g id="Layer_16_Image" data-name="Layer 16 Image"><path class="cls-1" d="M882.91,86.39c.34-.4.67-.82,1-1.2,2.63-2.81,5.31-5.58,7.89-8.45,1.95-2.16,3.77-4.44,5.62-6.69s3.69-4.51,5.52-6.78c.9-1.13,1.74-1.85,3.43-1.2a39.49,39.49,0,0,0,6,1.42,8.24,8.24,0,0,0,1.65,0c1.33,0,1.8.44,1.46,1.71A10.49,10.49,0,0,1,914,68.85c-3.35,4.48-6.69,9-10.35,13.21S896.06,90,892.26,94c-1.53,1.6-1.6,2.14-.21,3.9,2.44,3.11,5,6.11,7.43,9.26,1.68,2.2,3.14,4.58,4.69,6.88,2.41,3.61,4.83,7.22,7.22,10.84.88,1.34,1.69,2.72,2.52,4.08.31.52.19,3-.26,3.36a1.69,1.69,0,0,1-1.33.26,55.43,55.43,0,0,0-9.51-2.23,4,4,0,0,1-2.06-1.46q-3.19-4.12-6.2-8.39c-3.79-5.41-7.51-10.86-11.26-16.3a1.63,1.63,0,0,0-.76-.6c0,1.6.06,3.2,0,4.8-.12,2.63-.38,5.25-.48,7.88s0,5.35-.08,8c-.09,3.4-.23,6.79-.4,10.18a12.34,12.34,0,0,1-.4,2.25c-.37,1.58-1,1.92-2.65,1.43-1.09-.34-2.2-.67-3.31-.92-1.59-.36-3.2-.65-4.8-.95a1.54,1.54,0,0,1-1.29-1.82c.07-2.25.1-4.5.17-6.74,0-1,.13-2.08.13-3.12,0-3.85,0-7.69-.07-11.54,0-2.73,0-5.46-.05-8.19,0-3-.14-6-.08-9,.07-3.54.2-7.08.48-10.61.32-4.11.2-8.25.68-12.35.32-2.79.73-5.56,1.28-8.31.31-1.54,1.05-1.72,2.57-1.36,2.27.54,4.58,1,6.88,1.35a1.18,1.18,0,0,1,1.14,1.24c.14,3.19.24,6.38.34,9.57,0,1.45,0,2.91,0,4.36,0,2.19,0,4.37,0,6.56Z"/><path class="cls-1" d="M603,86.39c.34-.4.67-.82,1-1.2,2.63-2.81,5.32-5.58,7.89-8.45,2-2.16,3.77-4.44,5.63-6.69s3.69-4.51,5.51-6.78c.91-1.13,1.75-1.85,3.43-1.2a39.49,39.49,0,0,0,6,1.42,8.32,8.32,0,0,0,1.66,0c1.32,0,1.8.44,1.45,1.71a10.67,10.67,0,0,1-1.48,3.61c-3.36,4.48-6.69,9-10.35,13.21S616.13,90,612.34,94c-1.54,1.6-1.61,2.14-.22,3.9,2.45,3.11,5,6.11,7.44,9.26,1.68,2.2,3.14,4.58,4.68,6.88q3.63,5.42,7.22,10.84c.88,1.34,1.69,2.72,2.52,4.08.31.52.19,3-.26,3.36a1.69,1.69,0,0,1-1.33.26,55.54,55.54,0,0,0-9.5-2.23,4,4,0,0,1-2.07-1.46q-3.2-4.12-6.19-8.39c-3.79-5.41-7.52-10.86-11.27-16.3a1.59,1.59,0,0,0-.75-.6c0,1.6.06,3.2,0,4.8-.12,2.63-.38,5.25-.47,7.88s0,5.35-.08,8c-.09,3.4-.24,6.79-.4,10.18a12.36,12.36,0,0,1-.41,2.25c-.36,1.58-1.05,1.92-2.65,1.43-1.09-.34-2.19-.67-3.31-.92-1.59-.36-3.19-.65-4.79-.95a1.54,1.54,0,0,1-1.3-1.82c.08-2.25.11-4.5.17-6.74,0-1,.13-2.08.13-3.12,0-3.85,0-7.69-.07-11.54,0-2.73,0-5.46,0-8.19,0-3-.14-6-.08-9,.08-3.54.2-7.08.48-10.61.33-4.11.2-8.25.68-12.35.33-2.79.74-5.56,1.28-8.31.31-1.54,1.06-1.72,2.57-1.36,2.27.54,4.58,1,6.89,1.35a1.17,1.17,0,0,1,1.13,1.24q.21,4.79.34,9.57c0,1.45,0,2.91.05,4.36v6.56Z"/><path class="cls-1" d="M385.58,100.5a229.72,229.72,0,0,1-1.2,29.88c1.19,0,2.47.1,3.73,0,2.31-.22,4.6-.8,6.9-.8a47.31,47.31,0,0,1,7.39.8c2.6.41,5.16,1,7.75,1.51,1,.18,1.94.16,2.9.29,1.3.19,1.71.92,1.29,2.14a4.56,4.56,0,0,0-.18.6c-.36,1.9-.37,1.85-2.22,2.2a66.62,66.62,0,0,1-13.36,1.21c-4.79-.07-9.59-.1-14.35-.57-2.83-.28-5.58-1.38-8.38-2.07a27.42,27.42,0,0,0-3.67-.74c-3.72-.39-5.16-1.79-5.08-5.48.1-4.07.41-8.12.65-12.18.16-2.88.38-5.75.54-8.63.21-3.77.47-7.55.56-11.33s-.17-7.3,0-10.94c.16-4.27.45-8.54,1-12.78.28-2.29,1-4.6,3-6.09a6.68,6.68,0,0,1,2.57-1c1.57-.34,3.19-.45,4.77-.77a34.67,34.67,0,0,1,12.44,0c2.22.35,4.46.54,6.67.92,1.33.23,2.6.77,3.93,1,1.6.29,3.23.4,4.85.61a2.65,2.65,0,0,1,1,.28c1.14.69,1.28,1.28.78,2.81-.34,1-1.18,1-2,.89-3.67-.26-7.35-.57-11-.79a16.62,16.62,0,0,0-3.3.24c-2.13.32-4.25.69-6.37,1.08s-2.1.59-2.23,2.88c-.18,3.12-.05,6.25,0,9.38,0,2.46.25,4.91.33,7.37,0,.93.24,1.28,1.31,1.28a61.37,61.37,0,0,1,7.68.46c2.19.28,4.32,1,6.49,1.41a23.65,23.65,0,0,0,2.8.16c1.62.11,2.07.72,1.69,2.29a4.65,4.65,0,0,1-.28,1.21c-.23.37-.64.84-1,.88-2.2.28-4.42.42-6.63.65a61.17,61.17,0,0,1-11.24-.28C385.92,100.49,385.79,100.5,385.58,100.5Z"/><path class="cls-1" d="M225.84,100.5a229.72,229.72,0,0,1-1.2,29.88c1.19,0,2.47.1,3.73,0,2.31-.22,4.6-.8,6.9-.8a47.44,47.44,0,0,1,7.39.8c2.6.41,5.16,1,7.75,1.51,1,.18,1.94.16,2.9.29,1.3.19,1.71.92,1.28,2.14-.06.2-.13.4-.17.6-.36,1.9-.37,1.85-2.22,2.2a66.62,66.62,0,0,1-13.36,1.21c-4.79-.07-9.59-.1-14.35-.57-2.83-.28-5.58-1.38-8.38-2.07a27.42,27.42,0,0,0-3.67-.74c-3.72-.39-5.16-1.79-5.08-5.48.1-4.07.41-8.12.65-12.18.16-2.88.38-5.75.54-8.63.21-3.77.47-7.55.55-11.33s-.16-7.3,0-10.94c.16-4.27.45-8.54,1-12.78.28-2.29,1-4.6,3-6.09a6.63,6.63,0,0,1,2.56-1c1.58-.34,3.2-.45,4.78-.77a34.67,34.67,0,0,1,12.44,0c2.22.35,4.46.54,6.67.92,1.33.23,2.6.77,3.93,1,1.6.29,3.23.4,4.85.61a2.65,2.65,0,0,1,1,.28c1.14.69,1.28,1.28.78,2.81-.34,1-1.18,1-2,.89-3.68-.26-7.35-.57-11-.79a16.57,16.57,0,0,0-3.29.24c-2.13.32-4.25.69-6.37,1.08s-2.1.59-2.23,2.88c-.18,3.12-.05,6.25,0,9.38.05,2.46.25,4.91.33,7.37,0,.93.24,1.28,1.31,1.28a61.37,61.37,0,0,1,7.68.46c2.19.28,4.32,1,6.49,1.41a23.65,23.65,0,0,0,2.8.16c1.62.11,2.07.72,1.69,2.29a4.65,4.65,0,0,1-.28,1.21c-.23.37-.64.84-1,.88-2.2.28-4.42.42-6.63.65a61.17,61.17,0,0,1-11.24-.28C226.18,100.49,226.05,100.5,225.84,100.5Z"/><path class="cls-1" d="M847.31,71.08c1.72.45,1.25,2,1.41,3.07a45.62,45.62,0,0,1,.45,6.28c0,2.34-.14,4.69-.3,7-.19,2.7-.38,5.4-.74,8.08-.63,4.57-1.37,9.12-2.1,13.67-.64,4-1.33,8.06-2,12.08q-.75,4.51-1.49,9c0,.23-.06.47-.11.89a14.74,14.74,0,0,1,2.31,0c2.21.37,4.41.84,6.62,1.23,1.5.26,3,.38,4.52.67.74.14,1.93.35,2.06.79a5.81,5.81,0,0,1-.32,2.69c0,.14-.53.27-.81.26a71.11,71.11,0,0,0-12.87.87,70.37,70.37,0,0,1-15.69.28c-2.14-.15-4.23-1-6.35-1.57a24.4,24.4,0,0,0-3-.65c-.71-.09-1.45,0-1.66-.86a2.31,2.31,0,0,1,1.23-2.5,13,13,0,0,1,2.57-.37c3-.11,6-.18,9.05-.26.67,0,1-.22,1.09-1,.8-6.69,1.73-13.36,2.48-20.05.34-3,.3-6.11.57-9.15.43-4.77,1-9.53,1.46-14.29.21-2.07.37-4.14.61-6.21s.56-4.25.83-6.38a3.29,3.29,0,0,0,0-.59c-1.79.48-3.54.94-5.27,1.42A24.28,24.28,0,0,0,826.94,77a4.14,4.14,0,0,1-3.68,0c-1.44-.48-3-.66-4.47-1-.74-.17-1.7,0-2-1A3.11,3.11,0,0,1,818,72.06a11.57,11.57,0,0,1,1.93-1c5.41-2.07,10.77-4.3,16.52-5.28,2-.35,4.12-.51,6.16-.81s4.17-.73,6.26-1,4.47-.59,6.71-.83a3.59,3.59,0,0,1,1.2.3,20.51,20.51,0,0,0,6.41,1c1.23-.06,1.59.48,1.3,1.65a4.17,4.17,0,0,1-.46,1.46,1.67,1.67,0,0,1-1.23.61,13.86,13.86,0,0,0-6.34.9,19.08,19.08,0,0,1-2.41.51Z"/><path class="cls-1" d="M288.74,71.08c1.72.45,1.25,2,1.41,3.07a45.61,45.61,0,0,1,.44,6.28c0,2.34-.13,4.69-.3,7-.19,2.7-.37,5.4-.74,8.08-.62,4.57-1.36,9.12-2.09,13.67-.64,4-1.33,8.06-2,12.08q-.75,4.51-1.49,9c0,.23-.06.47-.11.89a14.74,14.74,0,0,1,2.31,0c2.21.37,4.41.84,6.62,1.23,1.5.26,3,.38,4.52.67.74.14,1.93.35,2.06.79a5.81,5.81,0,0,1-.32,2.69c0,.14-.54.27-.82.26a71,71,0,0,0-12.86.87,70.37,70.37,0,0,1-15.69.28c-2.14-.15-4.23-1-6.35-1.57a24.4,24.4,0,0,0-3-.65c-.71-.09-1.46,0-1.66-.86a2.32,2.32,0,0,1,1.22-2.5,13.17,13.17,0,0,1,2.57-.37c3-.11,6-.18,9.06-.26.67,0,1-.22,1.09-1,.8-6.69,1.72-13.36,2.48-20.05.34-3,.3-6.11.57-9.15.42-4.77,1-9.53,1.45-14.29.22-2.07.38-4.14.62-6.21s.56-4.25.83-6.38a3.29,3.29,0,0,0,0-.59c-1.8.48-3.54.94-5.27,1.42A24.28,24.28,0,0,0,268.37,77a4.14,4.14,0,0,1-3.68,0c-1.44-.48-3-.66-4.47-1-.74-.17-1.7,0-2-1a3.11,3.11,0,0,1,1.18-2.94,11.57,11.57,0,0,1,1.93-1c5.41-2.07,10.77-4.3,16.52-5.28,2-.35,4.11-.51,6.16-.81s4.17-.73,6.26-1,4.47-.59,6.71-.83a3.59,3.59,0,0,1,1.2.3,20.46,20.46,0,0,0,6.41,1c1.23-.06,1.59.48,1.3,1.65a4.17,4.17,0,0,1-.46,1.46,1.69,1.69,0,0,1-1.23.61,13.84,13.84,0,0,0-6.34.9,19.08,19.08,0,0,1-2.41.51Z"/><path class="cls-1" d="M431.78,106.71A85.66,85.66,0,0,0,434.4,125c.58,2.19,1.29,4.35,2,6.52a8.39,8.39,0,0,1-.41,5.82c-.41,1-1,1.13-2.08.82-2.16-.59-4.32-1.21-6.52-1.58a3.23,3.23,0,0,1-2.68-1.79c-1.23-2.69-2.51-5.36-3.56-8.12a74.89,74.89,0,0,1-4.32-19.43c-.36-3.64-.23-7.33-.44-11a42.37,42.37,0,0,1,1.24-11.67,33.39,33.39,0,0,1,3.33-9.65c.92-1.6,1.75-3.25,2.75-4.8a17.53,17.53,0,0,1,2.17-2.48c1.44-1.5,2.81-3.08,4.38-4.42a21.47,21.47,0,0,1,10.2-5.19,12.11,12.11,0,0,1,5.8.57,36.71,36.71,0,0,0,9.23,1.73,10.73,10.73,0,0,1,6,2,7.18,7.18,0,0,1,2.87,4.26,16.09,16.09,0,0,1-.09,8.35,55.78,55.78,0,0,1-1.8,6.23A32.32,32.32,0,0,1,458.81,88a52.32,52.32,0,0,1-9.68,9.59c-2.25,1.74-4.45,3.53-6.76,5.37a4,4,0,0,0,.62.64c5.34,3.71,9.39,8.66,13,13.92,2.71,3.92,5,8.16,7.45,12.23.68,1.11,1,2.58,2.64,2.86a.92.92,0,0,1,.49.73,11.14,11.14,0,0,1-.65,2.89,1.38,1.38,0,0,1-1.93.64c-3.06-1.36-6.37-1.59-9.59-2.24-1.79-.37-2.85-1.69-3.85-3q-4-5.39-7.88-10.82c-1.47-2-2.84-4.16-4.35-6.18s-3-3.77-4.55-5.63C433.17,108.18,432.46,107.46,431.78,106.71Zm-.22-12.1a3.68,3.68,0,0,0,.46-.3c3-2.68,6.13-5.25,9-8.07A26.52,26.52,0,0,0,448.66,72c.31-1.64.71-3.35-.14-5C438.26,71.83,431.61,83.64,431.56,94.61Z"/><path class="cls-1" d="M327,98c-.3,2.87-.59,5.73-.91,8.59-.24,2.09-.54,4.17-.79,6.25-.32,2.62-.52,5.24-.94,7.84-.74,4.61-1.58,9.2-2.44,13.79a12.05,12.05,0,0,1-.9,2.74,1.43,1.43,0,0,1-2.2.79c-1.52-1-3.28-.81-4.9-1.22-.83-.21-1.72-.19-2.52-.45a1.81,1.81,0,0,1-1-1,5.08,5.08,0,0,1-.17-1.91c.07-1.24.21-2.48.34-3.72.31-2.83.59-5.67.93-8.5.56-4.74,1.18-9.48,1.73-14.23.31-2.61.56-5.23.81-7.85s.42-5.31.71-8c.37-3.36.78-6.71,1.25-10,.36-2.57.84-5.13,1.3-7.68a16.26,16.26,0,0,1,.69-2.77c.61-1.62,1.15-1.69,2.81-1.29a59.9,59.9,0,0,0,8.15,1.51,3.86,3.86,0,0,1,3.56,2.28c1.28,3,2.38,6.1,3.51,9.17.67,1.8,1.27,3.63,1.88,5.45.9,2.71,1.75,5.43,2.66,8.13.84,2.49,1.73,5,2.78,7.46.06-.36.09-.72.17-1.08,1.13-5,2.13-10.12,3.44-15.11,1.49-5.65,3.29-11.21,4.88-16.83.72-2.56,1.24-5.17,1.94-7.74.49-1.78,1.11-3.52,1.72-5.27a1,1,0,0,1,1.44-.68q2.77.78,5.59,1.38a18.48,18.48,0,0,0,3,.32c1.4.06,1.86.48,1.63,1.85-.42,2.52-.87,5-1.41,7.55q-1.94,8.86-4,17.72c-.89,3.88-1.93,7.74-2.76,11.64-.88,4.17-1.67,8.37-2.37,12.57-.94,5.66-1.75,11.34-2.65,17a34,34,0,0,1-.87,3.75c-.31,1.12-1.11,1.44-2.32,1.15-2.19-.52-4.38-1-6.58-1.46a38.84,38.84,0,0,1-4.34-.91,3.55,3.55,0,0,1-2-1.64c-1.17-2.73-2.11-5.55-3.16-8.34-.16-.42-.45-.79-.6-1.22-.86-2.34-1.69-4.69-2.52-7-.95-2.72-1.92-5.43-2.84-8.15-.53-1.61-1-3.25-1.45-4.87Z"/><path class="cls-1" d="M678.86,73.3c1.13,1,2.1,1.93,3.11,2.8.71.62,1.49,1.17,2.18,1.8a19.13,19.13,0,0,1,6.08,12.9c.17,1.79.51,3.57.68,5.37a40.8,40.8,0,0,1-.65,10.52,59.52,59.52,0,0,1-5.62,17.39c-1.46,2.89-3.66,5.22-5.57,7.79a18,18,0,0,1-6.9,5.38c-3.31,1.6-6.7,1.17-10.14.2-3.21-.91-6.5-1.59-9.76-2.3s-6.22-1.82-8.33-4.56a29.39,29.39,0,0,1-2.9-4,31.27,31.27,0,0,1-3-7,26.45,26.45,0,0,1-.7-9.48c.31-2.46.15-5,.55-7.42,1.19-7.32,3.47-14.28,7.75-20.44,3.52-5.06,7.84-9.28,13.73-11.51a16.9,16.9,0,0,1,12.22.18,21.18,21.18,0,0,0,4.75.68c.42,0,.86,0,1.28,0C678.75,71.84,679.08,72.36,678.86,73.3Zm-9.25,3.86c-2.73,2-5.61,3.79-7.75,6.66A41.46,41.46,0,0,0,654.38,99a72.29,72.29,0,0,0-1.36,9.18,28.71,28.71,0,0,0,1.1,11.85,34.25,34.25,0,0,0,4,7.51c1.29,2.05,1.44,1.95,3.53.78a5.09,5.09,0,0,0,.56-.32,35.4,35.4,0,0,0,7.05-8,45.63,45.63,0,0,0,3.74-7.66,39.87,39.87,0,0,0,3.1-13,41.09,41.09,0,0,0-1-12.75,19.62,19.62,0,0,0-1.89-4.86A39.65,39.65,0,0,0,669.61,77.16Z"/><path class="cls-1" d="M719.53,110.06c1.22-3.07,2.48-6.21,3.7-9.36,1.56-4,3-8.07,4.63-12.08.83-2.12,1.82-4.17,2.67-6.28.68-1.69,1.15-3.46,1.88-5.11,1.37-3.06,2.85-6.06,4.31-9.08.5-1,1-2.05,1.61-3,.8-1.26,1.38-1.28,2.81-.95,2.84.65,5.71,1.23,8.59,1.63,1.87.26,2.47,1.06,1.74,2.8-.64,1.55-1.25,3.12-1.75,4.72s-.81,3.33-1.34,5c-.85,2.6-1.78,5.18-2.73,7.75-1.2,3.24-2.5,6.45-3.69,9.69-3.21,8.7-6.38,17.42-9.58,26.13q-2.49,6.78-5,13.54c-1.2,3.16-2,3.5-5.18,2.26-.76-.3-1.6-.42-2.34-.75a22.91,22.91,0,0,0-6.79-1.32c-2.21-.26-2.59-.16-3.4-2.85-1.2-4-2.1-8.08-3.2-12.11-1.18-4.33-2.3-8.69-3.72-12.94-1.75-5.19-3.83-10.27-5.67-15.43-1-2.71-1.77-5.47-2.52-8.24-.94-3.42-1.92-6.85-2.56-10.33a65.22,65.22,0,0,1-.65-7.93,3.87,3.87,0,0,1,.33-1.56c.37-1,.89-1.1,1.94-.88q3.81.81,7.65,1.41c.9.15,1.61.4,1.89,1.31.77,2.59,1.51,5.19,2.28,7.78.33,1.08.69,2.16,1.09,3.22.81,2.16,1.63,4.31,2.5,6.45,1.73,4.27,3.53,8.52,5.23,12.8C716.05,100.88,717.78,105.51,719.53,110.06Z"/><path class="cls-1" d="M118.54,138.32a42,42,0,0,1-10.49-1.86c-2.49-.72-5.08-1.12-7.63-1.62a18,18,0,0,1-10.16-5.31,13.52,13.52,0,0,1-1.88-3c-.84-1.65-1.62-3.32-2.38-5-.5-1.1-1-2.21-1.38-3.35a4.14,4.14,0,0,1-.19-1.57c.1-1.93.81-2.42,2.61-1.81,1.13.39,2.22.88,3.35,1.24a6.38,6.38,0,0,0,1.75.25,9.89,9.89,0,0,0,1.88-.11c1.58-.27,2.23.68,3,1.88,2.58,4.26,5,8.68,9,11.83a4.27,4.27,0,0,0,4,1,19,19,0,0,0,7.83-4,6.29,6.29,0,0,0,1.08-1.68c3.14-5.43,2-10.43-1.62-15.11-1.49-1.91-3.13-3.7-4.74-5.51a30.67,30.67,0,0,0-3.08-3.16c-2.15-1.81-4.42-3.47-6.61-5.23-.83-.66-1.55-1.47-2.34-2.18a28.22,28.22,0,0,1-2.65-2.34,15.33,15.33,0,0,1-3.49-13.86,26.43,26.43,0,0,1,4.18-9.65,14.51,14.51,0,0,1,5.13-4.5,9.2,9.2,0,0,1,5.81-1.26c1.3.18,2.54.7,3.83.93,1.89.34,3.83.46,5.7.86a22.34,22.34,0,0,1,5,1.52,48.46,48.46,0,0,1,5.69,3.42,3.5,3.5,0,0,1,.45,4.77c-.54.61-1.15.36-1.78.2-2.33-.58-4.67-1.1-7-1.72a5.85,5.85,0,0,1-1.45-.89c-1.21-.78-2.38-1.64-3.65-2.31-.31-.15-1,.24-1.42.54a16,16,0,0,0-6.38,12.2,11.86,11.86,0,0,0,2.34,7c1.94,3,5,4.78,7.69,6.88,3,2.32,6.08,4.66,8.89,7.23a39.62,39.62,0,0,1,8,9.72,14.51,14.51,0,0,1,1.78,8.68,23.82,23.82,0,0,1-2.36,8.52,12.23,12.23,0,0,1-6,5.77,24,24,0,0,1-6.49,2.25C120.91,138.14,119.52,138.22,118.54,138.32Z"/><path class="cls-1" d="M162.82,73.69c-3.91.15-7.74.32-11.58.41a9.08,9.08,0,0,1-2.19-.45c-2.34-.57-4.59-1.55-7.06-1.6-.67,0-1.51,0-1.65-1a2.21,2.21,0,0,1,1.31-2.45q2.47-.69,5-1.18c3.23-.65,6.48-1.24,9.72-1.85l10.82-2c1.23-.23,2.45-.47,3.68-.63,4.26-.56,8.45,0,12.65.65a69.9,69.9,0,0,1,7.7,1.06,66.91,66.91,0,0,0,10.49,1.9,6,6,0,0,1,1.81.6.9.9,0,0,1,.45,1.33,5.65,5.65,0,0,0-.26,1.43A1.2,1.2,0,0,1,202.22,71c-2.7-.25-5.4-.53-8.1-.67a48.94,48.94,0,0,0-5.55,0c-3.35.2-6.71.49-10.06.77-.85.07-1.69.22-2.53.36a1.06,1.06,0,0,0-1,1.24c.1,2.2.19,4.4.17,6.59,0,3.55-.15,7.1-.23,10.65,0,1,0,2.08-.08,3.11-.37,3.86,0,7.74-.29,11.61-.4,5.41-.61,10.83-1.11,16.22-.27,2.83-1,5.61-1.5,8.42-.29,1.57-.52,3.15-.83,4.72-.23,1.22-.54,2.43-.84,3.75l-.72-.33-.61.83-1.49-1.18-.3.85c-2.24-.49-4.5-.94-6.74-1.48s-2.21-.59-2-2.91c.23-2.81.32-5.64.52-8.45.18-2.65.37-5.29.63-7.92.5-5.22,1.14-10.42,1.58-15.64s.71-10.38,1-15.57c.26-4,.49-8,.73-11.94A1.46,1.46,0,0,0,162.82,73.69Z"/><path class="cls-1" d="M806,86.41a5.7,5.7,0,0,0,4.35-.44c1.47-.45,2.94-.92,4.43-1.3,1.07-.28,2.19-.36,3.26-.65,2.18-.59,4.05.61,6.08.91,2.38.36,4.75.79,7.13,1.08a2.27,2.27,0,0,1,1.81,3.59A2.69,2.69,0,0,1,831,91c-3,.66-6.08,1.31-9.11,2-4.66,1-9.31,2.13-14,3.17-.89.2-1,.52-.77,1.48a52.5,52.5,0,0,1,1.25,6.71c.42,3.34.78,6.69,1,10,.16,2.92.06,5.85.06,8.78,0,3.32,0,6.65,0,10a53.2,53.2,0,0,1-1,10.91c-.31,1.46-1.09,1.94-2.49,1.56q-5.14-1.41-10.29-2.77c-1.63-.43-1.68-.4-1.5-2a136.83,136.83,0,0,0,.2-18.11c-.08-3.36-.76-6.69-1.09-10-.29-3-.44-6-.7-9-.12-1.4-.35-2.8-.55-4.36-1.54.3-3,.56-4.42.87-3.77.82-7.5,1.82-11.3,2.45a3.35,3.35,0,0,0-3.23,3.16c-.38,2-1.34,3.9-1.92,5.88-1.11,3.75-2.23,7.5-3.16,11.3-.63,2.54-.94,5.15-1.42,7.73-.18,1-.4,2-.64,2.93a1.49,1.49,0,0,1-2.09,1.16c-1.82-.51-3.64-1-5.48-1.46s-4-.72-5.92-1.21a2.19,2.19,0,0,1-1.17-1.25,3.79,3.79,0,0,1,0-1.65c.26-3.92.55-7.83.83-11.75.19-2.77.4-5.54.58-8.32a15.54,15.54,0,0,0,0-2.64,1.28,1.28,0,0,0-.83-.8c-1.54-.35-3.11-.63-4.67-.89-.74-.12-1.55-.07-1.79-1a2.34,2.34,0,0,1,1.23-2.53c1.18-.52,8.65-.93,9.87-1.39.1,0,13.67-27.85,13.69-27.67.8-1.18,1.56-2.32,2.35-3.44a15.39,15.39,0,0,1,7.38-6,10,10,0,0,1,6.69-.1,44,44,0,0,0,8,1.53c2,.26,4.18.19,5.59,1.94a21.2,21.2,0,0,1,2.33,4c1.48,3,1.72,6.34,2.32,9.57C805.22,82.05,805.62,84.31,806,86.41ZM788.56,73.18a21.57,21.57,0,0,0-2.16,2.5,99.63,99.63,0,0,0-6.07,11.92c-.59,1.36-1.16,2.74-1.8,4.26.53-.06.86-.09,1.18-.14l9.71-1.55c1.1-.18,1.58-.93,1.4-2.15-.39-2.6-.76-5.2-1.16-7.8C789.32,78,789,75.71,788.56,73.18Z"/><path class="cls-1" d="M549.5,128c1.54,1,3,1.87,4.39,2.79.58.38,1.38.74,1.58,1.28a3.89,3.89,0,0,1-.21,2.24c-.06.2-.86.33-1.26.24-2.65-.6-5.27-1.28-7.91-1.89a1.18,1.18,0,0,0-.92.2c-4.19,3.82-9.3,5.1-14.77,5.62-3.76.36-7.22-.73-10.76-1.64-2.25-.58-4.56-.92-6.84-1.43-6.63-1.5-11.48-5.26-14.15-11.56a13.06,13.06,0,0,1-.12-8.83,38.86,38.86,0,0,1,8-14.06,1.49,1.49,0,0,0,.16-2.17,63,63,0,0,1-4.39-6.44,15.35,15.35,0,0,1-2.12-7.71,20.8,20.8,0,0,1,3.22-11.27,20.74,20.74,0,0,1,5.15-6.07,66.55,66.55,0,0,1,7-4.61,9.52,9.52,0,0,1,7.88-.51,36.82,36.82,0,0,0,7.89,1.44A7.17,7.17,0,0,1,537.22,68c1.61,4.54.95,9-.53,13.29a37,37,0,0,1-6.86,11.72c-2.52,3-5,6.09-7.44,9.14a5.7,5.7,0,0,0-.36.56l6,6.92c.13-.19.27-.3.27-.4-.1-1.69.47-1.77,2.17-2.26,2.19-.63,4.41-1.17,6.65-1.58a16.06,16.06,0,0,1,7.13.26,44.26,44.26,0,0,0,9.9,1.72,2.18,2.18,0,0,1,2.19,2.59,33,33,0,0,1-2.23,9.29A32.56,32.56,0,0,1,549.5,128Zm-16.24-2.32c-1.89-1.5-3.77-2.91-5.55-4.43-1.59-1.34-3.08-2.78-4.59-4.2-.4-.37-.66-.88-1-1.24-1.45-1.33-2.94-2.61-4.39-3.94-.53-.48-1-1-1.46-1.56l-1.6,1.27a3.32,3.32,0,0,1-.43,1.32c-.11.21-.31.38-.4.6-.51,1.31-1,2.63-1.51,3.94a7.93,7.93,0,0,0,.29,7,22,22,0,0,0,4.51,5.72,5.12,5.12,0,0,0,5.4,1.39c2.25-.74,4.55-1.24,6.6-2.52C530.62,128.08,532.47,127.52,533.26,125.69Zm-9.41-55.57a24.63,24.63,0,0,0-8.36,7.49c-1.85,2.7-3.21,5.52-2.82,8.9a15.64,15.64,0,0,0,.4,2.45,20.82,20.82,0,0,0,.89,2.21l.45.06c1.43-1.88,3-3.68,4.26-5.65a36.59,36.59,0,0,0,4.56-8.91A13.39,13.39,0,0,0,523.85,70.12Zm14.23,49.33c1.32-1.37,3.3-6,3.12-6.88a10.34,10.34,0,0,1-2.31.23,25.51,25.51,0,0,1-2.65-.74c-1.25-.29-2.52-.5-3.78-.75l-3-.61-.14.22Z"/></g></svg>