<svg xmlns="http://www.w3.org/2000/svg" viewBox="0 0 1000 202.41"><defs><style>.cls-1{fill:#8872a4;}</style></defs><g id="Layer_16_Image" data-name="Layer 16 Image"><path class="cls-1" d="M623.27,105.27c-1.73.3-3.38.51-5,.87-3,.68-6.08,1.46-9.12,2.17-2.11.5-4.22,1-6.34,1.41-.8.15-1,.53-1,1.27-.17,5.29-.32,10.58-.58,15.87-.24,4.61-.54,9.23-1,13.83a24.74,24.74,0,0,1-1.14,4.83c-.36,1.15-1.14,1.43-2.29,1.08-1.54-.47-3.1-.92-4.63-1.43-.33-.11-.56-.55-.88-.63-.68-.15-1.4-.12-2.09-.26-1.42-.3-2.84-.61-4.22-1-.18-.06-.21-.84-.18-1.27.12-2,.3-3.93.43-5.89.34-5.23.68-10.46,1-15.69.16-2.74.22-5.48.31-8.23,0-.9.1-1.81.07-2.71a1.45,1.45,0,0,0-.87-1.45c-.91-.45-.7-2.6.12-3.24a1.6,1.6,0,0,0,.61-1c0-3.77-.12-7.54-.14-11.31,0-3,.06-6.09.08-9.14s-.07-5.92.05-8.87c.15-3.85.39-7.71.74-11.55.11-1.27.59-1.34,1.85-1,1.57.47,3.18.82,4.77,1.23a2.3,2.3,0,0,1,.6.15,3.4,3.4,0,0,0,3.33.3c.86-.34,1.66.4,1.91,1.25a31.75,31.75,0,0,1,1,4.72c.48,3.84.92,7.69,1.2,11.56a95.92,95.92,0,0,1,.44,12.21c-.14,2.35.22,4.64,0,6.89l20.8-4.11c0-2.11,0-4.55,0-7,.08-3.62.27-7.24.35-10.87.09-4,.08-8,.18-12,0-2.12.2-4.24.4-6.36.11-1.19.72-1.61,2-1.35,2.82.57,5.67,1,8.52,1.33a2.64,2.64,0,0,1,2.4,2.37,93.47,93.47,0,0,1,1.54,11.12c.35,8.46.41,16.93.48,25.4,0,5.46-.14,10.92-.18,16.38,0,4.58.13,9.16,0,13.73s-.41,9-.79,13.46a22,22,0,0,1-1.18,4.58c-.38,1.24-1.35,1.48-2.51,1.16-3-.8-5.93-1.63-8.9-2.39a18,18,0,0,0-2.22-.23,1.46,1.46,0,0,1-1.42-1.8c.24-3.37.45-6.73.6-10.1q.3-6.62.49-13.22c.14-4.8.22-9.59.33-14.39C623.33,105.78,623.3,105.62,623.27,105.27Z"/><path class="cls-1" d="M888.79,102.8a274.2,274.2,0,0,1-1.44,35.87c1.43,0,3,.12,4.48,0,2.77-.27,5.52-1,8.28-1a58,58,0,0,1,8.88,1c3.12.5,6.19,1.25,9.3,1.82,1.14.21,2.33.19,3.48.35,1.56.22,2.05,1.1,1.54,2.57a4.25,4.25,0,0,0-.2.72c-.44,2.28-.45,2.22-2.67,2.63a80.13,80.13,0,0,1-16,1.46c-5.75-.09-11.52-.12-17.23-.68-3.4-.34-6.7-1.66-10.06-2.49a30.49,30.49,0,0,0-4.41-.89c-4.46-.47-6.19-2.14-6.09-6.58.11-4.88.49-9.75.77-14.62.2-3.45.46-6.9.65-10.36.25-4.53.57-9.07.67-13.61.1-4.37-.2-8.76,0-13.13.2-5.12.54-10.26,1.16-15.34.33-2.74,1.21-5.53,3.62-7.31A8.1,8.1,0,0,1,876.53,62c1.89-.4,3.84-.54,5.73-.93a41.67,41.67,0,0,1,14.94,0c2.66.42,5.35.65,8,1.11,1.59.27,3.11.92,4.71,1.21,1.92.35,3.88.48,5.83.73a3.3,3.3,0,0,1,1.17.34c1.37.82,1.54,1.53.93,3.37-.4,1.24-1.41,1.14-2.37,1.07-4.41-.31-8.82-.69-13.24-1a20.16,20.16,0,0,0-4,.29c-2.56.38-5.11.82-7.65,1.3s-2.52.7-2.68,3.45c-.21,3.74-.06,7.51,0,11.26.07,3,.31,5.9.4,8.85,0,1.11.29,1.54,1.58,1.54a74.69,74.69,0,0,1,9.22.55c2.62.34,5.18,1.18,7.79,1.69a26.71,26.71,0,0,0,3.36.2c1.95.13,2.48.86,2,2.74a5,5,0,0,1-.34,1.45c-.28.45-.76,1-1.21,1.07-2.65.33-5.31.5-8,.78-4.52.48-9,0-13.5-.34Z"/><path class="cls-1" d="M762.9,136.38c-1.88,2.05-3.67,4.18-5.66,6.1a20,20,0,0,1-7.56,4.53,9.26,9.26,0,0,1-6.44-.22c-3.63-1.46-7.45-1.92-11.24-2.58-4.77-.83-7.84-3.76-8.92-8.7a53.78,53.78,0,0,1-1.23-15.7c.42-5.55.51-11.13,1-16.67a214.65,214.65,0,0,1,4-26.93c.51-2.38,1.17-4.73,1.9-7,.49-1.57.85-1.55,2.48-1.21,2.75.58,5.43,1.57,8.32,1.44,1.45-.07,2,.6,2.33,2a45.66,45.66,0,0,1,.35,12.41c-.29,4.09-.5,8.19-.78,12.28-.32,4.91-.78,9.81-1,14.72-.18,4.6-.16,9.22-.07,13.83.05,2.81.41,5.6.64,8.4a8.67,8.67,0,0,0,.33,1.23,17,17,0,0,0,1.8-1.83,43.54,43.54,0,0,0,6.23-12.29,123.49,123.49,0,0,0,3.82-16.84q1.13-6.78,1.91-13.6c.48-4.17.71-8.37,1.16-12.54.38-3.56.83-7.11,1.42-10.64.35-2.07.78-2.16,2.82-1.67,2.33.57,4.7,1,7,1.57,1.29.33,2.47,1,3.92.39.28-.11,1.29.82,1.52,1.44a23.68,23.68,0,0,1,1.89,9.58c-.13,2.72.35,5.45.43,8.18s-.05,5.27,0,7.9c.06,2.82.25,5.63.39,8.45.15,3.07.12,6.17.5,9.22.56,4.54,1.4,9,2.17,13.55.32,1.89.86,3.75,1.14,5.64q1,6.42,1.74,12.87a12,12,0,0,1-.17,3c-.18,1.25-1.24,1.71-2.47,1.37a97.07,97.07,0,0,0-10.75-2.8c-1.9-.3-2.2-1.55-2.71-2.69C764.26,140.55,763.62,138.37,762.9,136.38Z"/><path class="cls-1" d="M693.52,70.15c1.35,1.21,2.52,2.31,3.73,3.36.85.74,1.78,1.39,2.62,2.16,4.55,4.15,6.73,9.43,7.3,15.48.2,2.15.61,4.29.82,6.45a49.47,49.47,0,0,1-.78,12.62,71.57,71.57,0,0,1-6.75,20.89c-1.76,3.47-4.4,6.26-6.69,9.34a21.55,21.55,0,0,1-8.29,6.47c-4,1.92-8,1.41-12.17.24-3.85-1.1-7.8-1.91-11.72-2.76s-7.47-2.19-10-5.47a34,34,0,0,1-3.48-4.8,37.59,37.59,0,0,1-3.59-8.35,31.77,31.77,0,0,1-.83-11.39c.36-3,.17-6,.65-8.9,1.43-8.79,4.17-17.15,9.3-24.54,4.24-6.08,9.42-11.15,16.49-13.82a20.22,20.22,0,0,1,14.68.22c1.75.65,3.78.57,5.69.81.51.06,1,0,1.54.06C693.38,68.39,693.79,69,693.52,70.15Zm-11.11,4.63c-3.28,2.45-6.74,4.54-9.31,8a49.56,49.56,0,0,0-9,18.17,86.61,86.61,0,0,0-1.63,11,34.5,34.5,0,0,0,1.31,14.23,41.44,41.44,0,0,0,4.77,9c1.55,2.46,1.73,2.35,4.24.93a4.44,4.44,0,0,0,.67-.38,42.45,42.45,0,0,0,8.47-9.63,54.63,54.63,0,0,0,4.48-9.19,47.71,47.71,0,0,0,3.72-15.63A48.93,48.93,0,0,0,689,86a23.31,23.31,0,0,0-2.27-5.83A46.87,46.87,0,0,0,682.41,74.78Z"/><path class="cls-1" d="M826.81,148.2a50.61,50.61,0,0,1-12.6-2.23c-3-.87-6.1-1.34-9.16-1.94a21.7,21.7,0,0,1-12.2-6.38A16.27,16.27,0,0,1,790.6,134c-1-2-2-4-2.87-6-.6-1.32-1.16-2.65-1.64-4a5,5,0,0,1-.24-1.89c.13-2.32,1-2.9,3.14-2.17,1.35.46,2.66,1,4,1.48a7.79,7.79,0,0,0,2.1.31,12.2,12.2,0,0,0,2.26-.14c1.89-.32,2.67.82,3.54,2.26,3.09,5.12,6,10.41,10.84,14.21a5.14,5.14,0,0,0,4.84,1.17,22.93,22.93,0,0,0,9.4-4.77,8,8,0,0,0,1.3-2c3.77-6.52,2.44-12.53-1.95-18.15-1.79-2.29-3.75-4.44-5.69-6.62a37.85,37.85,0,0,0-3.7-3.79c-2.58-2.16-5.31-4.15-7.94-6.27-1-.8-1.85-1.76-2.8-2.62A32.9,32.9,0,0,1,802,92.16a18.36,18.36,0,0,1-4.19-16.64,31.79,31.79,0,0,1,5-11.58,17.4,17.4,0,0,1,6.16-5.4A11,11,0,0,1,816,57c1.56.22,3,.84,4.6,1.12,2.27.41,4.59.55,6.84,1a26.55,26.55,0,0,1,6,1.83,55.14,55.14,0,0,1,6.83,4.1c1.68,1.11,1.89,4.23.55,5.73-.65.73-1.38.42-2.14.24-2.79-.7-5.61-1.33-8.39-2.07a6.88,6.88,0,0,1-1.74-1.06c-1.45-.94-2.86-2-4.39-2.78-.36-.19-1.23.28-1.7.65a19.17,19.17,0,0,0-7.66,14.65c-.15,3.09,1.16,5.83,2.81,8.39,2.32,3.6,5.94,5.74,9.24,8.26,3.64,2.79,7.29,5.59,10.67,8.68A47.3,47.3,0,0,1,847,117.46a17.28,17.28,0,0,1,2.14,10.41,28.61,28.61,0,0,1-2.83,10.23,14.73,14.73,0,0,1-7.26,6.94,29.65,29.65,0,0,1-7.79,2.7C829.65,148,828,148.08,826.81,148.2Z"/><path class="cls-1" d="M445.35,81.39a13.49,13.49,0,0,0,2.63.22,12.87,12.87,0,0,0,2.26-.72c1.66-.5,3.31-1,5-1.46,1.21-.31,2.47-.41,3.67-.74,2.45-.66,4.57.69,6.85,1,2.67.4,5.34.89,8,1.2,2.2.26,3.07,2.1,2,4a3,3,0,0,1-2.32,1.63c-3.42.74-6.84,1.47-10.25,2.24C458,90,452.75,91.23,447.51,92.41c-1,.22-1.14.58-.86,1.65a60.58,60.58,0,0,1,1.4,7.56c.47,3.76.87,7.53,1.08,11.31.18,3.28.06,6.58.06,9.88,0,3.74,0,7.48,0,11.22a59.61,59.61,0,0,1-1.14,12.28c-.35,1.63-1.23,2.18-2.81,1.75-3.85-1.05-7.71-2.1-11.57-3.12-1.84-.48-1.89-.45-1.69-2.3.73-6.79.41-13.6.23-20.39-.1-3.77-.87-7.52-1.23-11.29-.33-3.35-.5-6.72-.79-10.07-.14-1.58-.39-3.15-.62-4.9-1.74.34-3.36.62-5,1-4.24.93-8.44,2-12.72,2.76-2.27.38-3.22,1.31-3.64,3.55s-1.5,4.39-2.15,6.62c-1.25,4.22-2.51,8.44-3.56,12.71-.71,2.86-1.06,5.8-1.59,8.7-.21,1.11-.46,2.21-.72,3.3a1.69,1.69,0,0,1-2.36,1.31c-2.05-.58-4.09-1.18-6.16-1.65s-4.47-.81-6.67-1.36a2.48,2.48,0,0,1-1.31-1.4,4.29,4.29,0,0,1-.05-1.86c.3-4.41.62-8.82.93-13.22.22-3.12.46-6.24.66-9.36a17.46,17.46,0,0,0,0-3,1.39,1.39,0,0,0-.92-.89c-1.74-.4-3.51-.71-5.27-1-.82-.14-1.74-.08-2-1.13a2.61,2.61,0,0,1,1.38-2.84c1.33-.58,9.73-1,11.1-1.56.11,0,15.38-31.34,15.41-31.14.9-1.33,1.75-2.61,2.64-3.87A17.29,17.29,0,0,1,416,54.92a11.29,11.29,0,0,1,7.53-.11,48.77,48.77,0,0,0,9,1.72c2.3.29,4.71.22,6.3,2.18a24.25,24.25,0,0,1,2.62,4.47c1.66,3.39,1.94,7.13,2.61,10.77C444.48,76.49,444.93,79,445.35,81.39ZM425.74,66.5a23.8,23.8,0,0,0-2.43,2.82,109.6,109.6,0,0,0-6.83,13.4c-.67,1.54-1.31,3.09-2,4.8.6-.07,1-.1,1.33-.16l10.92-1.75c1.24-.19,1.78-1,1.57-2.41-.43-2.93-.85-5.86-1.29-8.78C426.59,71.88,426.18,69.34,425.74,66.5Z"/><path class="cls-1" d="M369.69,79.63a19.72,19.72,0,0,1-2.28-.18c-1.76-.34-3.51-.71-5.25-1.14-3-.73-3-.7-3.33-3.34-.35-2.42-.5-4.89-1.76-7.08l-.38-.65c-3.34,2.16-5.87,4.91-6.87,8.75a111.61,111.61,0,0,0-3,13,135.64,135.64,0,0,0-1.3,21,65.57,65.57,0,0,0,2.13,16.39,19.85,19.85,0,0,0,5.85,9.42,43,43,0,0,0,2.22-3.77c1.56-3.4,3-6.85,4.49-10.29.35-.8.76-1,1.66-.67a39.32,39.32,0,0,0,4.56,1.1c1.29.27,2.73.2,3.85.77,1.3.66,2.44.38,3.7.3a2.54,2.54,0,0,1,2.59,2,6.18,6.18,0,0,1,.53,1.79c0,2.26.89,4.49.13,6.79a26.18,26.18,0,0,0-.63,3.68,15.43,15.43,0,0,1-3.17,7.1,10,10,0,0,1-6.58,3.43c-3.07.47-5.93-.32-8.81-1.08-2.62-.68-5.2-1.5-7.84-2.07-2.36-.51-4.82-.58-7.15-1.17-4.34-1.1-8.58-2.62-11.76-6a27.48,27.48,0,0,1-6.16-9.12,39,39,0,0,1-2.27-12.59,113.5,113.5,0,0,1,2-25.5A156.49,156.49,0,0,1,329,74.8a32.24,32.24,0,0,1,7.61-12.19,23.15,23.15,0,0,1,4.26-2.94,11.78,11.78,0,0,1,1.88-1.21,12.9,12.9,0,0,1,9.35-.55A61.14,61.14,0,0,0,363.79,60c6.19.71,10.17,5.08,10.58,11.24a24.48,24.48,0,0,1-.72,5.79,5.91,5.91,0,0,1-1,2.13C371.65,80.72,370.67,80.76,369.69,79.63Z"/><path class="cls-1" d="M497.09,70.61c-4.7.18-9.3.38-13.91.49a10.61,10.61,0,0,1-2.62-.53c-2.82-.69-5.51-1.87-8.48-1.92-.81,0-1.82-.07-2-1.23a2.66,2.66,0,0,1,1.58-3c2-.55,4-1,6-1.41,3.88-.78,7.78-1.49,11.67-2.22l13-2.41c1.47-.26,2.94-.55,4.42-.75,5.11-.68,10.15.06,15.19.78,3.08.45,6.25.49,9.23,1.27A82.06,82.06,0,0,0,543.77,62a7.2,7.2,0,0,1,2.17.72,1.06,1.06,0,0,1,.54,1.59,7.47,7.47,0,0,0-.31,1.72,1.42,1.42,0,0,1-1.78,1.36c-3.24-.3-6.48-.63-9.73-.8a59.2,59.2,0,0,0-6.66,0c-4,.24-8.06.59-12.08.92-1,.09-2,.27-3,.44a1.26,1.26,0,0,0-1.21,1.48c.12,2.64.23,5.28.21,7.92,0,4.26-.18,8.52-.28,12.78,0,1.25,0,2.5-.1,3.73-.44,4.64,0,9.3-.35,13.94-.48,6.49-.73,13-1.33,19.47-.32,3.4-1.19,6.74-1.8,10.11-.34,1.89-.63,3.78-1,5.67-.28,1.46-.65,2.91-1,4.5l-.87-.4-.73,1-1.79-1.41-.36,1c-2.69-.59-5.4-1.13-8.09-1.78s-2.65-.71-2.43-3.49c.28-3.38.39-6.77.63-10.16.21-3.17.44-6.34.75-9.5.61-6.26,1.37-12.51,1.9-18.77s.86-12.46,1.26-18.69c.3-4.78.58-9.56.87-14.34A2.27,2.27,0,0,0,497.09,70.61Z"/><path class="cls-1" d="M198.1,105.27c-1.73.3-3.38.51-5,.87-3,.68-6.07,1.46-9.11,2.17-2.11.5-4.22,1-6.34,1.41-.8.15-1,.53-1,1.27-.17,5.29-.32,10.58-.58,15.87-.24,4.61-.54,9.23-1,13.83a24.74,24.74,0,0,1-1.14,4.83c-.36,1.15-1.14,1.43-2.29,1.08-1.54-.47-3.1-.92-4.63-1.43-.33-.11-.56-.55-.88-.63-.68-.15-1.4-.12-2.09-.26-1.42-.3-2.84-.61-4.22-1-.18-.06-.21-.84-.18-1.27.12-2,.3-3.93.43-5.89.33-5.23.68-10.46,1-15.69.16-2.74.21-5.48.31-8.23,0-.9.1-1.81.07-2.71a1.45,1.45,0,0,0-.87-1.45c-.92-.45-.7-2.6.12-3.24a1.6,1.6,0,0,0,.61-1c0-3.77-.12-7.54-.14-11.31,0-3,.06-6.09.07-9.14s-.06-5.92.06-8.87c.15-3.85.39-7.71.74-11.55.11-1.27.59-1.34,1.85-1,1.57.47,3.17.82,4.77,1.23a2.3,2.3,0,0,1,.6.15,3.4,3.4,0,0,0,3.33.3c.86-.34,1.66.4,1.91,1.25a31.75,31.75,0,0,1,1,4.72c.47,3.84.92,7.69,1.2,11.56a95.92,95.92,0,0,1,.44,12.21c-.14,2.35.22,4.64,0,6.89L198,96.09c0-2.11,0-4.55,0-7,.08-3.62.26-7.24.35-10.87.09-4,.08-8,.18-12,0-2.12.2-4.24.4-6.36.11-1.19.72-1.61,2.05-1.35,2.82.57,5.67,1,8.52,1.33a2.64,2.64,0,0,1,2.4,2.37,93.47,93.47,0,0,1,1.54,11.12c.35,8.46.41,16.93.48,25.4,0,5.46-.14,10.92-.18,16.38,0,4.58.12,9.16,0,13.73s-.41,9-.79,13.46a22.69,22.69,0,0,1-1.18,4.58c-.38,1.24-1.35,1.48-2.51,1.16-3-.8-5.93-1.63-8.9-2.39a18,18,0,0,0-2.22-.23,1.46,1.46,0,0,1-1.42-1.8c.23-3.37.45-6.73.6-10.1q.3-6.62.49-13.22c.14-4.8.22-9.59.33-14.39C198.16,105.78,198.13,105.62,198.1,105.27Z"/><path class="cls-1" d="M243.42,102.8c.48,12-.34,23.87-1.43,35.87,1.42,0,3,.12,4.47,0,2.77-.27,5.53-1,8.28-1a58,58,0,0,1,8.88,1c3.12.5,6.2,1.25,9.3,1.82,1.15.21,2.33.19,3.49.35,1.55.22,2,1.1,1.53,2.57a5.44,5.44,0,0,0-.2.72c-.43,2.28-.44,2.22-2.67,2.63a80,80,0,0,1-16,1.46c-5.75-.09-11.52-.12-17.23-.68-3.4-.34-6.7-1.66-10.06-2.49a30.22,30.22,0,0,0-4.41-.89c-4.46-.47-6.19-2.14-6.09-6.58.12-4.88.49-9.75.77-14.62.2-3.45.46-6.9.65-10.36.25-4.53.57-9.07.67-13.61.1-4.37-.2-8.76,0-13.13.2-5.12.54-10.26,1.16-15.34.33-2.74,1.21-5.53,3.62-7.31A8.1,8.1,0,0,1,231.16,62c1.89-.4,3.84-.54,5.73-.93a41.67,41.67,0,0,1,14.94,0c2.66.42,5.35.65,8,1.11,1.59.27,3.12.92,4.71,1.21,1.92.35,3.88.48,5.83.73a3.3,3.3,0,0,1,1.17.34c1.37.82,1.54,1.53.94,3.37-.41,1.24-1.42,1.14-2.38,1.07-4.41-.31-8.82-.69-13.23-1a20.26,20.26,0,0,0-4,.29c-2.56.38-5.1.82-7.65,1.3-2.39.44-2.52.7-2.68,3.45-.21,3.74-.06,7.51,0,11.26.06,3,.3,5.9.4,8.85,0,1.11.28,1.54,1.57,1.54a74.57,74.57,0,0,1,9.22.55c2.63.34,5.18,1.18,7.79,1.69a26.76,26.76,0,0,0,3.37.2c1.94.13,2.48.86,2,2.74a5,5,0,0,1-.34,1.45c-.28.45-.76,1-1.21,1.07-2.64.33-5.31.5-8,.78-4.51.48-9,0-13.49-.34Z"/><path class="cls-1" d="M103.51,70.61c-4.69.18-9.29.38-13.9.49A10.61,10.61,0,0,1,87,70.57c-2.82-.69-5.51-1.87-8.48-1.92-.81,0-1.82-.07-2-1.23a2.66,2.66,0,0,1,1.58-3c2-.55,4-1,6-1.41,3.88-.78,7.78-1.49,11.67-2.22l13-2.41c1.47-.26,2.94-.55,4.42-.75,5.11-.68,10.15.06,15.19.78,3.08.45,6.25.49,9.23,1.27A82.06,82.06,0,0,0,150.2,62a7.2,7.2,0,0,1,2.17.72,1.06,1.06,0,0,1,.54,1.59,7.47,7.47,0,0,0-.31,1.72,1.42,1.42,0,0,1-1.78,1.36c-3.24-.3-6.48-.63-9.73-.8a59.19,59.19,0,0,0-6.66,0c-4,.24-8.06.59-12.08.92-1,.09-2,.27-3,.44a1.26,1.26,0,0,0-1.2,1.48c.12,2.64.23,5.28.21,7.92,0,4.26-.18,8.52-.28,12.78,0,1.25,0,2.5-.1,3.73-.44,4.64,0,9.3-.35,13.94-.48,6.49-.73,13-1.33,19.47-.32,3.4-1.19,6.74-1.8,10.11-.34,1.89-.63,3.78-1,5.67-.28,1.46-.65,2.91-1,4.5l-.87-.4-.73,1-1.79-1.41-.36,1c-2.69-.59-5.4-1.13-8.09-1.78s-2.65-.71-2.43-3.49c.28-3.38.39-6.77.63-10.16.21-3.17.44-6.34.75-9.5.61-6.26,1.37-12.51,1.9-18.77s.86-12.46,1.26-18.69c.3-4.78.58-9.56.87-14.34A1.85,1.85,0,0,0,103.51,70.61Z"/></g></svg>