<svg xmlns="http://www.w3.org/2000/svg" viewBox="0 0 1000 202.41"><defs><style>.cls-1{fill:#8872a4;}</style></defs><g id="Layer_16_Image" data-name="Layer 16 Image"><path class="cls-1" d="M565.33,59.67c-.33-.14-.54-.24-.76-.32-1.25-.45-2.49-.8-2-2.67.56-2.2,1.22-2.89,3.23-3,.54,0,1.07-.31,1.62-.36a9.23,9.23,0,0,1,2.23,0c3.55.59,7.08,1.22,10.62,1.86.56.1,1.33.08,1.64.43,1.58,1.82,3.84,1.58,5.83,2,6.44,1.48,12.8,3.22,18.43,6.75a34.42,34.42,0,0,1,9,7.4A40.61,40.61,0,0,1,621.1,81a37.14,37.14,0,0,1,3.09,11.74,57.49,57.49,0,0,1-1.43,19,55.51,55.51,0,0,1-10.93,21.15c-1.76,2.21-3.33,4.57-5.07,6.8a46,46,0,0,1-13.18,11.49c-3.59,2.08-7.17,4.32-11.42,5a6.71,6.71,0,0,1-4.47-.47,10.49,10.49,0,0,0-2.89-.74c-2.3-.46-4.61-.89-6.92-1.34a19.48,19.48,0,0,1-2.67-.58,14.43,14.43,0,0,1-1.9-1,4.77,4.77,0,0,0-1.4-.56,3.89,3.89,0,0,1-3.67-3.57c-.09-3.69,0-7.4.23-11.08.41-6.8,1-13.59,1.49-20.38.32-4.2.69-8.4,1-12.61s.32-8.25.71-12.35c.58-6.17,1.35-12.32,2.07-18.47C564.22,68.56,564.78,64.18,565.33,59.67Zm16,75.8c1.13-1.23,2.12-2.22,3-3.29,2.32-2.79,4.71-5.54,6.85-8.48a68.94,68.94,0,0,0,3.87-6.54,39.23,39.23,0,0,0,4.69-10.62,46.32,46.32,0,0,0-.65-22.35,21.69,21.69,0,0,0-1.68-3.47,30.12,30.12,0,0,0-11.74-13.4c-.3-.18-.62-.31-.77-.39C583.76,89.72,582.57,112.44,581.37,135.47Z"/><path class="cls-1" d="M122,106.83c-2,.35-3.9.59-5.76,1-3.51.78-7,1.68-10.5,2.5-2.43.57-4.86,1.14-7.31,1.62-.92.17-1.11.61-1.14,1.46-.18,6.09-.36,12.19-.67,18.28q-.39,8-1.1,15.93a28.57,28.57,0,0,1-1.33,5.57c-.4,1.31-1.3,1.64-2.63,1.24-1.78-.54-3.57-1.06-5.33-1.65-.38-.13-.65-.63-1-.72-.78-.18-1.61-.14-2.4-.3A50,50,0,0,1,78,150.56c-.21-.06-.24-.95-.21-1.45.14-2.27.34-4.53.49-6.79.39-6,.79-12,1.13-18.07.17-3.15.24-6.32.35-9.47,0-1,.11-2.09.08-3.13a1.67,1.67,0,0,0-1-1.67c-1-.52-.8-3,.15-3.74a1.79,1.79,0,0,0,.7-1.19c0-4.34-.14-8.68-.16-13,0-3.51.06-7,.08-10.53s-.07-6.82.07-10.22q.25-6.66.84-13.31c.14-1.46.68-1.53,2.14-1.1,1.81.54,3.66,1,5.49,1.41a2.51,2.51,0,0,1,.69.19,4,4,0,0,0,3.84.34c1-.39,1.92.46,2.19,1.43A35.22,35.22,0,0,1,96,65.68c.54,4.43,1.06,8.86,1.38,13.31a108.69,108.69,0,0,1,.5,14.07c-.16,2.71.26,5.34,0,7.93l24-4.73c0-2.42,0-5.24,0-8,.1-4.18.31-8.35.41-12.53.1-4.6.09-9.2.21-13.8.06-2.44.23-4.89.46-7.32.13-1.38.83-1.86,2.36-1.56,3.24.65,6.53,1.09,9.82,1.54A3,3,0,0,1,138,57.27a107.46,107.46,0,0,1,1.77,12.81c.4,9.75.48,19.5.55,29.25,0,6.29-.16,12.59-.2,18.88,0,5.27.14,10.54,0,15.81s-.48,10.34-.92,15.5a25.19,25.19,0,0,1-1.35,5.27c-.44,1.44-1.56,1.71-2.9,1.34-3.41-.92-6.82-1.87-10.24-2.75a21.55,21.55,0,0,0-2.56-.27c-1.22-.14-1.72-.82-1.63-2.07.26-3.88.51-7.76.68-11.63q.34-7.62.57-15.23c.16-5.52.26-11,.38-16.57C122.1,107.43,122.07,107.24,122,106.83Z"/><path class="cls-1" d="M812.7,104c.55,13.81-.39,27.49-1.65,41.32,1.64,0,3.41.14,5.16,0,3.18-.31,6.35-1.11,9.53-1.11A65.33,65.33,0,0,1,836,145.28c3.6.57,7.14,1.43,10.72,2.09,1.32.24,2.68.21,4,.4,1.79.25,2.36,1.26,1.77,3a6,6,0,0,0-.23.83c-.5,2.63-.51,2.55-3.08,3a91.74,91.74,0,0,1-18.47,1.68c-6.62-.1-13.27-.14-19.85-.79-3.91-.38-7.72-1.91-11.58-2.87a38.72,38.72,0,0,0-5.08-1c-5.14-.54-7.13-2.46-7-7.58.14-5.61.57-11.22.89-16.83.23-4,.53-8,.75-11.93.29-5.23.65-10.45.77-15.68.12-5-.23-10.09,0-15.12.22-5.9.62-11.82,1.33-17.68.38-3.16,1.4-6.36,4.17-8.41A9.22,9.22,0,0,1,798.58,57c2.18-.46,4.42-.63,6.6-1.07a48,48,0,0,1,17.2,0c3.07.48,6.17.75,9.23,1.28,1.83.31,3.59,1.06,5.42,1.39,2.22.4,4.48.56,6.72.85a3.62,3.62,0,0,1,1.35.38c1.58.95,1.77,1.77,1.08,3.89-.47,1.43-1.63,1.3-2.74,1.23-5.08-.36-10.16-.8-15.24-1.09a21.84,21.84,0,0,0-4.56.33c-2.95.43-5.88,1-8.8,1.49-2.76.52-2.91.81-3.09,4-.25,4.31-.07,8.65,0,13,.08,3.4.35,6.79.46,10.19,0,1.28.33,1.77,1.82,1.78a83.73,83.73,0,0,1,10.62.62c3,.4,6,1.37,9,2a31.05,31.05,0,0,0,3.87.24c2.25.14,2.86,1,2.34,3.15a6.19,6.19,0,0,1-.39,1.67c-.32.52-.88,1.16-1.4,1.23-3,.38-6.11.58-9.16.9-5.21.55-10.37,0-15.55-.39Z"/><path class="cls-1" d="M666.8,63.3c2.38.62,1.73,2.78,2,4.26a62.89,62.89,0,0,1,.62,8.68c0,3.24-.19,6.48-.42,9.71-.26,3.73-.52,7.48-1,11.18-.86,6.31-1.9,12.6-2.9,18.9-.89,5.57-1.84,11.14-2.76,16.71q-1,6.24-2.06,12.48c-.05.32-.07.65-.14,1.24a21.12,21.12,0,0,1,3.19,0c3.06.51,6.1,1.17,9.15,1.7,2.08.35,4.19.53,6.25.92,1,.2,2.67.5,2.85,1.1.34,1.1-.17,2.48-.44,3.72-.05.2-.74.37-1.12.36a97.18,97.18,0,0,0-17.79,1.21c-7.21,1.12-14.47.86-21.7.37-3-.2-5.85-1.43-8.78-2.16a33.81,33.81,0,0,0-4.2-.91c-1-.11-2,0-2.29-1.18s.61-3.2,1.7-3.46a17.67,17.67,0,0,1,3.55-.51c4.17-.16,8.35-.24,12.52-.35.93,0,1.38-.31,1.51-1.41,1.1-9.24,2.38-18.47,3.43-27.72.47-4.19.41-8.45.79-12.65.58-6.6,1.34-13.17,2-19.76.29-2.86.52-5.73.85-8.59s.77-5.88,1.15-8.82a5,5,0,0,0,0-.81l-7.3,2c-2.26.62-4.69.93-6.73,2s-3.31.65-5.09,0a63,63,0,0,0-6.18-1.4c-1-.23-2.35,0-2.72-1.4a4.26,4.26,0,0,1,1.64-4.06A15.24,15.24,0,0,1,629,63.24c7.47-2.86,14.88-6,22.83-7.3,2.83-.48,5.69-.7,8.53-1.13s5.75-1,8.65-1.43c3.08-.45,6.18-.82,9.28-1.15a5,5,0,0,1,1.66.42A28.59,28.59,0,0,0,688.76,54c1.7-.08,2.2.66,1.79,2.29a5.52,5.52,0,0,1-.63,2,2.29,2.29,0,0,1-1.7.85,19.16,19.16,0,0,0-8.77,1.23,24.32,24.32,0,0,1-3.33.72C673,61.85,669.91,62.58,666.8,63.3Z"/><path class="cls-1" d="M193.22,63.3c2.37.62,1.72,2.78,1.94,4.26a62.89,62.89,0,0,1,.62,8.68c0,3.24-.19,6.48-.42,9.71-.26,3.73-.51,7.48-1,11.18-.86,6.31-1.89,12.6-2.9,18.9-.89,5.57-1.83,11.14-2.75,16.71q-1,6.24-2.06,12.48c-.06.32-.08.65-.15,1.24a21.12,21.12,0,0,1,3.19,0c3.06.51,6.1,1.17,9.16,1.7,2.07.35,4.18.53,6.24.92,1,.2,2.67.5,2.86,1.1.33,1.1-.17,2.48-.45,3.72,0,.2-.74.37-1.12.36a97.18,97.18,0,0,0-17.79,1.21c-7.21,1.12-14.47.86-21.7.37-3-.2-5.85-1.43-8.78-2.16a34.05,34.05,0,0,0-4.19-.91c-1-.11-2,0-2.29-1.18s.6-3.2,1.69-3.46a17.78,17.78,0,0,1,3.55-.51c4.17-.16,8.35-.24,12.52-.35.93,0,1.38-.31,1.51-1.41,1.1-9.24,2.39-18.47,3.43-27.72.47-4.19.42-8.45.79-12.65.59-6.6,1.34-13.17,2-19.76.29-2.86.52-5.73.85-8.59s.77-5.88,1.15-8.82a5,5,0,0,0,0-.81l-7.29,2c-2.27.62-4.7.93-6.74,2-1.88,1-3.31.65-5.08,0-2-.68-4.13-.92-6.19-1.4-1-.23-2.35,0-2.72-1.4a4.26,4.26,0,0,1,1.64-4.06,15.24,15.24,0,0,1,2.67-1.43c7.47-2.86,14.88-6,22.84-7.3,2.82-.48,5.69-.7,8.52-1.13s5.76-1,8.65-1.43c3.08-.45,6.18-.82,9.28-1.15a5,5,0,0,1,1.66.42A28.59,28.59,0,0,0,215.17,54c1.71-.08,2.2.66,1.79,2.29a5.52,5.52,0,0,1-.63,2,2.29,2.29,0,0,1-1.7.85,19.16,19.16,0,0,0-8.77,1.23,24.32,24.32,0,0,1-3.33.72C199.42,61.85,196.32,62.58,193.22,63.3Z"/><path class="cls-1" d="M874.06,112.58a118.15,118.15,0,0,0,3.64,25.28c.79,3,1.78,6,2.73,9a11.6,11.6,0,0,1-.57,8.06c-.57,1.42-1.33,1.55-2.87,1.13a91.11,91.11,0,0,0-9-2.19,4.47,4.47,0,0,1-3.7-2.48c-1.71-3.71-3.47-7.41-4.93-11.22a104.11,104.11,0,0,1-6-26.88c-.5-5-.32-10.12-.61-15.18A59.07,59.07,0,0,1,854.47,82a46.51,46.51,0,0,1,4.62-13.35c1.26-2.21,2.41-4.49,3.79-6.63a24.33,24.33,0,0,1,3-3.43A81.41,81.41,0,0,1,872,52.46c4.1-3.49,8.64-6.22,14.09-7.17a16.74,16.74,0,0,1,8,.79,51,51,0,0,0,12.77,2.39,14.71,14.71,0,0,1,8.29,2.74,10,10,0,0,1,4,5.88A22.29,22.29,0,0,1,919,68.64c-.87,2.87-1.3,5.91-2.49,8.61a44.42,44.42,0,0,1-5,9.46A71.68,71.68,0,0,1,898.07,100c-3.11,2.41-6.16,4.89-9.35,7.43a5.28,5.28,0,0,0,.85.88c7.38,5.14,13,12,18,19.25,3.75,5.42,6.86,11.28,10.3,16.91.94,1.54,1.4,3.57,3.65,4a1.26,1.26,0,0,1,.68,1,16.06,16.06,0,0,1-.89,4,1.92,1.92,0,0,1-2.68.89c-4.22-1.88-8.81-2.21-13.26-3.11-2.47-.49-3.94-2.32-5.32-4.19q-5.49-7.46-10.89-15c-2-2.83-3.93-5.76-6-8.54s-4.17-5.22-6.29-7.79C876,114.61,875,113.61,874.06,112.58Zm-.29-16.74a6.39,6.39,0,0,0,.63-.41c4.17-3.71,8.48-7.26,12.47-11.16a36.71,36.71,0,0,0,10.54-19.66c.43-2.26,1-4.62-.19-6.89C883,64.35,873.84,80.68,873.77,95.84Z"/><path class="cls-1" d="M719.07,100.59c-.42,4-.82,7.92-1.27,11.88-.33,2.88-.74,5.76-1.09,8.64-.43,3.61-.71,7.25-1.29,10.84-1,6.37-2.19,12.72-3.37,19.07a16.77,16.77,0,0,1-1.25,3.78c-.61,1.35-1.86,1.92-3,1.1-2.1-1.45-4.53-1.12-6.79-1.7-1.14-.29-2.37-.25-3.48-.61a2.52,2.52,0,0,1-1.42-1.39,6.8,6.8,0,0,1-.23-2.63c.09-1.72.29-3.43.47-5.14.42-3.92.82-7.84,1.28-11.76.78-6.56,1.63-13.12,2.4-19.68.42-3.61.77-7.23,1.12-10.85s.58-7.35,1-11c.51-4.64,1.07-9.28,1.73-13.9.5-3.56,1.15-7.09,1.79-10.62a22.6,22.6,0,0,1,1-3.83c.84-2.24,1.59-2.33,3.88-1.78a82,82,0,0,0,11.28,2.09c2.39.22,4.06,1.17,4.91,3.15,1.78,4.16,3.29,8.43,4.86,12.67.92,2.5,1.76,5,2.6,7.55,1.24,3.74,2.42,7.5,3.68,11.23,1.16,3.45,2.39,6.87,3.84,10.32.08-.49.13-1,.24-1.49,1.56-7,2.94-14,4.76-20.9,2-7.8,4.53-15.5,6.74-23.26,1-3.54,1.71-7.16,2.68-10.71.67-2.46,1.53-4.87,2.37-7.28a1.44,1.44,0,0,1,2-.95c2.56.71,5.14,1.36,7.73,1.91a25.83,25.83,0,0,0,4.12.44c1.93.09,2.57.67,2.25,2.55-.59,3.5-1.21,7-2,10.45q-2.67,12.27-5.49,24.5c-1.23,5.37-2.67,10.7-3.81,16.1Q761.42,108,760,116.75c-1.3,7.82-2.42,15.68-3.67,23.51a48,48,0,0,1-1.2,5.18c-.42,1.55-1.53,2-3.21,1.59-3-.72-6.06-1.37-9.1-2a53.91,53.91,0,0,1-6-1.25,4.86,4.86,0,0,1-2.71-2.27c-1.62-3.78-2.93-7.68-4.37-11.53-.22-.59-.63-1.1-.84-1.69-1.18-3.24-2.33-6.49-3.48-9.74-1.32-3.75-2.66-7.5-3.92-11.27-.75-2.22-1.35-4.49-2-6.74Z"/><path class="cls-1" d="M317.27,125.86c1-4.32,1.73-8.25,2.75-12.11,2.07-7.88,4.25-15.73,6.42-23.59.78-2.8,1.67-5.58,2.49-8.37a43,43,0,0,1,4.71-10.33c1-1.64,1.52-3.58,2.48-5.25a28.9,28.9,0,0,1,3.27-4.58c.7-.8,1.41-.61,2.55.2l-.69.43c.06.05.13.13.19.13a26.57,26.57,0,0,1,3.8.2A14.31,14.31,0,0,1,348,63.8a2.33,2.33,0,0,0,.88.22c1,0,2.08-.17,3.1-.09,2.24.16,3.11,1.61,2.49,3.78-1.26,4.39-2.4,8.82-3.67,13.21-1.09,3.75-2.35,7.45-3.43,11.2-.83,2.87-1.5,5.78-2.23,8.68-1.44,5.67-2.95,11.33-4.29,17-1.06,4.49-1.88,9-2.88,13.56-1.44,6.47-2.9,12.92-4.46,19.36a18.58,18.58,0,0,1-1.74,4.18c-.7,1.31-2.49,1.71-4.36,1a67.87,67.87,0,0,0-14.86-3.41,6.14,6.14,0,0,1-4.34-3c-2.11-3.22-4.08-6.56-5.9-9.95s-3.5-7.11-5.38-11c-1.07,2.82-2,5.4-3,7.93s-2.2,5.18-3.4,7.73c-1.37,2.93-2.79,5.84-4.32,8.69a6.49,6.49,0,0,1-2.11,2.25,2.5,2.5,0,0,1-2.14.26c-3.13-1.81-6.73-1.66-10.08-2.55-1.74-.46-3.55-.7-5.34-1a3.77,3.77,0,0,1-3.16-2.39c-1-2.53-2-5.06-2.7-7.67q-2-7.29-3.73-14.68c-1.4-6.14-2.57-12.32-3.92-18.47s-2.87-12.55-4.24-18.84c-1.65-7.6-3.29-15.21-4.78-22.85a9,9,0,0,1,.49-4.11c.3-1,1.11-1.24,2.38-.83a37.67,37.67,0,0,0,6.37,1.19c1.27.18,2.64-.09,3.83.28a4.15,4.15,0,0,1,2.33,1.9c1.3,2.63,2.43,5.37,3.47,8.13,1.22,3.24,2.37,6.52,3.39,9.84q2.05,6.68,3.86,13.43c1.41,5.25,2.71,10.53,4.05,15.79,1,3.78,1.93,7.55,3,11.69,1.4-3.1,2.56-5.92,3.93-8.63s2.93-5.46,4.53-8.11a3.29,3.29,0,0,1,4.26-1.39A46,46,0,0,0,304,108.9c2.36,0,3.92,1.56,5.19,3.2a50.38,50.38,0,0,1,3.5,5.73C314.16,120.38,315.6,123,317.27,125.86Z"/><path class="cls-1" d="M476.16,90.41c1.29-1.85,2.43-3.52,3.61-5.16,2.14-3,4.42-5.88,6.44-9s3.91-6.58,6-9.82a7.82,7.82,0,0,1,2.19-2,1.47,1.47,0,0,1,1.21,0c3.22,1.47,6.71,1.72,10.15,2,3.06.28,3.53.66,3,3.68a36.84,36.84,0,0,1-5.34,13.61c-2,3.16-3.75,6.42-5.81,9.51-2.74,4.11-5.66,8.12-8.52,12.15a6.36,6.36,0,0,0-1.17,4.56c.35,3.79.38,7.6.59,11.4.16,2.91.59,5.82.53,8.72-.05,3.13-.51,6.26-.83,9.38-.24,2.37-.5,4.74-.83,7.09-.37,2.59-.77,5.18-1.29,7.74a2.5,2.5,0,0,1-3.2,1.74c-2.94-.9-5.85-1.92-8.82-2.71a27.71,27.71,0,0,0-4.66-.54,1.93,1.93,0,0,1-2-1.83c-.77-7-1.88-14-2.14-21.05-.23-5.94.52-11.92.88-17.87,0-.79,0-1.25-.88-1.63a4.41,4.41,0,0,1-1.89-1.84c-1.46-2.57-2.76-5.23-4.18-7.82-.55-1-1.35-1.86-1.87-2.86-1.75-3.38-3.53-6.75-5.08-10.22-2.12-4.72-4.07-9.51-6-14.3A63.79,63.79,0,0,1,443.43,66a10.68,10.68,0,0,1,.21-4.19c.1-.72.64-1,1.52-.7a52,52,0,0,0,11.77,2.13,5,5,0,0,1,3.16,1.63A116,116,0,0,1,475.38,89C475.55,89.37,475.78,89.73,476.16,90.41Z"/><path class="cls-1" d="M219.13,106.13c1.52-.41,3-.87,4.57-1.21a8.2,8.2,0,0,1,5.43,1.08,47.56,47.56,0,0,0,5.33,2c.19.07.38.05.57.13,1.17.5,1.26.79,1,3.13s-.59,2.83-2.28,3c-1.09.09-2.19.27-3.28.36-1.49.11-3,.13-4.45.28s-2.86.48-4.29.58a6.5,6.5,0,0,1-2.65-.3,21.76,21.76,0,0,1-2.43-1.49,5.1,5.1,0,0,0-1.74-.51c-1.06-.13-1.28-.34-1.37-1.63-.11-1.84.34-3.54,1.1-4a13.1,13.1,0,0,1,2.22-1.16,14.06,14.06,0,0,1,2.28-.49Z"/><path class="cls-1" d="M416.81,89.44a14,14,0,0,0,2.74.24,13,13,0,0,0,2.36-.76c1.73-.52,3.45-1.07,5.19-1.52,1.26-.32,2.58-.43,3.83-.77,2.56-.69,4.76.72,7.13,1.08,2.79.42,5.57.93,8.37,1.26,2.29.27,3.2,2.19,2.12,4.21a3.13,3.13,0,0,1-2.42,1.69c-3.56.78-7.12,1.54-10.68,2.34-5.47,1.23-10.92,2.49-16.39,3.72-1.05.24-1.19.61-.9,1.73a61.78,61.78,0,0,1,1.47,7.88c.49,3.91.91,7.85,1.12,11.78.19,3.43.07,6.87.07,10.3,0,3.9,0,7.8,0,11.7a62.5,62.5,0,0,1-1.18,12.8c-.37,1.7-1.29,2.27-2.93,1.82-4-1.09-8-2.19-12.07-3.24-1.91-.5-2-.47-1.76-2.41.76-7.07.43-14.17.25-21.25-.11-3.93-.91-7.84-1.29-11.77-.34-3.49-.52-7-.82-10.49-.14-1.65-.41-3.29-.65-5.12-1.81.35-3.5.65-5.18,1-4.42,1-8.8,2.13-13.26,2.87-2.36.4-3.36,1.37-3.79,3.71s-1.56,4.57-2.25,6.9c-1.3,4.39-2.61,8.8-3.71,13.25-.73,3-1.1,6-1.65,9.07-.22,1.15-.48,2.3-.76,3.44a1.75,1.75,0,0,1-2.46,1.36c-2.13-.61-4.26-1.23-6.41-1.72-2.31-.53-4.67-.84-7-1.42a2.6,2.6,0,0,1-1.37-1.46,4.66,4.66,0,0,1-.05-1.94q.48-6.88,1-13.78c.23-3.25.47-6.5.68-9.76a17.85,17.85,0,0,0,0-3.1,1.44,1.44,0,0,0-1-.93c-1.81-.42-3.65-.74-5.49-1-.86-.15-1.81-.09-2.09-1.18a2.73,2.73,0,0,1,1.44-3c1.39-.61,10.15-1.09,11.57-1.62.12-.05,16-32.68,16.07-32.47.94-1.38,1.83-2.72,2.75-4a18.06,18.06,0,0,1,8.66-7,11.79,11.79,0,0,1,7.85-.12,50.36,50.36,0,0,0,9.4,1.8c2.39.31,4.91.23,6.56,2.27a25.18,25.18,0,0,1,2.73,4.66c1.74,3.53,2,7.44,2.72,11.23C415.91,84.33,416.37,87,416.81,89.44ZM396.37,73.92a24.7,24.7,0,0,0-2.53,2.94,116.18,116.18,0,0,0-7.13,14c-.7,1.61-1.36,3.23-2.11,5,.62-.08,1-.11,1.38-.17l11.39-1.82c1.29-.21,1.86-1.09,1.64-2.52-.45-3-.89-6.1-1.35-9.15C397.26,79.53,396.83,76.89,396.37,73.92Z"/></g></svg>