<svg xmlns="http://www.w3.org/2000/svg" viewBox="0 0 1426.57 202.41"><defs><style>.cls-1{fill:#8872a4;}</style></defs><g id="Layer_16_Image" data-name="Layer 16 Image"><path class="cls-1" d="M578.86,94.61c2,.35,3.74.56,5.45,1a73.85,73.85,0,0,1,10.14,2.84,26.06,26.06,0,0,1,7.47,4.64c5,4.51,6.59,10.23,4.7,16.81a29.11,29.11,0,0,1-4.47,8.55,23.23,23.23,0,0,1-7.32,6.59,40.33,40.33,0,0,1-8.74,4.06c-4.05,1.24-8.25,2.2-12.58,1.43-.92-.17-1.84-.36-2.74-.57-4-1-8-1.89-12-2.94a6.8,6.8,0,0,1-2.57-1.4,24.73,24.73,0,0,1-3.33-3.38c-1-1.2-1.67-2.5-1-4.23.53-1.32.56-1.49,2-1l1,.3c-.15-1-.34-1.85-.4-2.73-.12-1.71-.22-3.44-.24-5.16s0-3.18.11-4.77c.17-3.31.42-6.61.59-9.92.11-2.28.13-4.57.17-6.86s.07-4.71.09-7.06c0-1.79,0-3.57,0-5.36.06-4.21.12-8.42.23-12.62s.27-8.25.39-12.17a9.41,9.41,0,0,1-2.49.19,39.22,39.22,0,0,1-5.87-1.52c-.84-.31-1.43-1.27-2.13-1.95-.26-.25-.5-.53-.95-1a2,2,0,0,1,.25-.92,19.44,19.44,0,0,1,3.08-3.84A27,27,0,0,1,556,46.94a33.33,33.33,0,0,1,11-1.72,55,55,0,0,1,13.37,1.84c2.14.58,4.4.7,6.59,1.11,5.7,1.08,10.89,3.13,14.58,7.95a13.08,13.08,0,0,1,2.65,11.31c-.62,2.82-1.26,5.63-2.87,8.06a28.41,28.41,0,0,1-6.56,7.14c-4.94,3.73-9.93,7.38-14.89,11.07C579.6,93.93,579.32,94.21,578.86,94.61Zm-7.69,3.62c-.95,11.4.34,22.84-1.86,34.27,3.42-.92,6.7-1.43,9.46-3.45,2.15-1.59,4.65-2.85,6.42-4.78a21.22,21.22,0,0,0,5.32-9.31,4.88,4.88,0,0,0,.08-1.57,13.91,13.91,0,0,0-4.24-8.93,18.65,18.65,0,0,0-9-5.17c-1.93-.4-3.87-.72-5.81-1.08A2.61,2.61,0,0,0,571.17,98.23Zm.21-14.69c1.46-.19,2.5-1.24,3.62-2.23s2.18-1.42,3.14-2.28c2.46-2.19,4.81-4.48,7.24-6.69a13.07,13.07,0,0,0,4.06-8.92c.28-2.91-1.09-5.17-2.86-7.26-2.65-3.14-5.79-5.2-10.17-4.35-.59.11-1.22.07-1.82.13l-4.46.5c1.7,5.32,1.18,10.5,1.23,15.63S571.38,78.43,571.38,83.54Z"/><path class="cls-1" d="M82,68.71a22,22,0,0,1-2.4-.18c-1.84-.37-3.69-.76-5.52-1.21-3.12-.76-3.09-.73-3.5-3.5-.36-2.55-.52-5.14-1.85-7.45l-.39-.69c-3.52,2.28-6.17,5.17-7.23,9.21A118.38,118.38,0,0,0,58,78.58a140.93,140.93,0,0,0-1.36,22.13,68.9,68.9,0,0,0,2.23,17.23A20.93,20.93,0,0,0,65,127.85a42.58,42.58,0,0,0,2.33-4c1.64-3.58,3.17-7.2,4.73-10.81.36-.84.8-1,1.74-.71a39,39,0,0,0,4.8,1.15c1.35.29,2.87.22,4,.82,1.36.69,2.56.39,3.88.31a2.66,2.66,0,0,1,2.72,2,6.5,6.5,0,0,1,.56,1.88c0,2.38.94,4.72.14,7.15a27.29,27.29,0,0,0-.66,3.86A16.18,16.18,0,0,1,85.94,137,10.45,10.45,0,0,1,79,140.65c-3.23.49-6.23-.34-9.27-1.13-2.75-.72-5.46-1.58-8.24-2.18-2.47-.54-5.06-.61-7.51-1.23-4.57-1.15-9-2.76-12.37-6.27a28.91,28.91,0,0,1-6.47-9.59A40.41,40.41,0,0,1,32.79,107a118.53,118.53,0,0,1,2.08-26.8,164.08,164.08,0,0,1,4.41-16.59c1.53-4.92,4.53-9.07,8-12.8,1.21-1.3,3-2.09,4.48-3.1a12.22,12.22,0,0,1,2-1.27,13.59,13.59,0,0,1,9.84-.59,63.3,63.3,0,0,0,12.24,2.25c6.51.75,10.69,5.34,11.12,11.82A25.94,25.94,0,0,1,86.18,66a6.44,6.44,0,0,1-1,2.24C84.08,69.86,83,69.9,82,68.71Z"/><path class="cls-1" d="M1104.05,97.11c-.92-.09-1.72-.19-2.52-.24-4-.28-8-.64-12-.8-2.71-.1-5.43.07-8.15.15-2.06.06-4.11.17-6.17.25a3,3,0,0,1-.78-.12c-2.38-.56-4.77-1.12-7.15-1.73-.28-.07-.67-.42-.69-.68-.08-.81-.08-1.74,1-2a18.91,18.91,0,0,1,3-.38c1.89-.11,3.79-.16,5.69-.24,1.63-.06,3.27-.24,4.9-.17,3.24.15,6.47.42,9.69.68,1.71.14,3.41.48,5.13.54,1.94.06,3.89-.1,5.84-.15a27.73,27.73,0,0,1,4.27-.06c1.61.2,3.17.78,4.77,1.11,1,.21,2,.28,3,.4a7.24,7.24,0,0,1,1,.14c2.08.61,2.07.87,1.53,2.91-.69,2.57-2.54,4.23-4.24,6s-3.53,3.67-5.31,5.49c-.93,1-1.9,1.88-3,3a11.58,11.58,0,0,0,1.48.38c2,.26,3.9.51,5.86.71.7.07.84.35.6,1a1.7,1.7,0,0,0-.16.76c.12,1.19,0,1.49-1.19,1.67-1.35.21-2.73.25-4.1.39s-3,.34-4.48.51a3.28,3.28,0,0,1-1,.06c-2.08-.37-3.41.8-4.77,2.11-2.56,2.48-5.22,4.84-7.79,7.31-3,2.86-6,5.79-8.91,8.69l.14.28,3.6-.49q8.55-1.26,17.1-2.52c1.82-.26,3.63-.54,5.46-.7a8.73,8.73,0,0,1,2.31.24c2.24.4,4.48.84,6.73,1.26a6.26,6.26,0,0,1,1.07.1c.56.19.78.52.71,1.26-.17,1.73-1.22,2-2.67,2.24-2.62.35-5.23.86-7.84,1.3-4.21.71-8.41,1.49-12.63,2.09a58.1,58.1,0,0,1-12.9.85,35.93,35.93,0,0,1-4.39-1l-6-1.3c-3.37-.73-3.69-2.9-2-5.49a26.09,26.09,0,0,1,3.77-4.25c2.75-2.71,5.56-5.35,8.37-8,1.07-1,2.2-2,3.52-3.16a10.12,10.12,0,0,0-1.24-.48c-1.89-.42-3.78-.8-5.66-1.23-.91-.21-1.05-.82-.56-1.59a3,3,0,0,1,2.46-1.2,78,78,0,0,1,8.06-.71c2,0,3.18-1,4.42-2.24s2.47-2.13,3.71-3.21c.26-.23.43-.56.67-.81,1.86-1.88,3.73-3.74,5.58-5.63C1102,99.37,1103,98.28,1104.05,97.11Z"/><path class="cls-1" d="M260,94.23c-5.66-1.17-11.11-2.31-16.56-3.42-1-.21-1.78-.49-1.68-1.78.14-1.71.62-2.48,2-2.49,4.35,0,8.7,0,13.06,0a27.16,27.16,0,0,0,3.72-.13c.35,0,.82-.68.91-1.11.67-3,1.07-6.13,1.89-9.11,1.47-5.38,3.18-10.69,4.79-16,.75-2.5,1.52-5,2.23-7.52.62-2.21,1-2.34,3.17-1.76,2.68.73,5.34,1.63,8.2,1.51,2-.08,2.58.53,2.29,2.48-.75,5-1.55,10-2.54,14.95s-2.2,9.77-3.3,14.65a4,4,0,0,0,0,.8,13.11,13.11,0,0,0,2.08,0c2-.33,3.94.27,5.9.56,3.43.51,6.86,1,10.3,1.35,2.21.23,2.48.44,2.14,2.56-.36,2.3-1.13,3-3.58,3.16-5.8.39-11.59.78-17.39,1.1-.92.05-1.22.38-1.32,1.22-.45,3.82-1,7.63-1.39,11.45-.51,4.49-1.13,9-1.39,13.47-.23,3.91-.11,7.86,1.43,11.57a1.46,1.46,0,0,0,1.28.59,8.19,8.19,0,0,0,2.2-1.81c.95-1.13,1.65-1.24,3.07-.84a58.53,58.53,0,0,0,6.19,1.27c1.2.21,2.44.19,3.65.37s1.42.88,1.26,1.95c-.46,3.23-2,5.4-5.33,6.33-3.65,1-7.22,1.76-11,.76-2.87-.76-5.76-1.43-8.64-2.17a26.32,26.32,0,0,1-5-1.37c-2.92-1.4-4.07-4.18-4.68-7.16-1.16-5.76-.73-11.56-.24-17.35.31-3.54.73-7.08,1.16-10.62C259.18,99.12,259.6,96.61,260,94.23Z"/><path class="cls-1" d="M1335.37,124a13,13,0,0,0-3.24-8.78,62.49,62.49,0,0,0-6.53-6.59c-2.4-2.12-5.09-3.92-7.55-6-1.63-1.37-3.12-3-3.31-5.24a11.68,11.68,0,0,1,.41-4.68,14.19,14.19,0,0,1,7.18-7.77,7.74,7.74,0,0,1,5.11-.74c2.13.37,4.22,1,6.36,1.35,1.83.32,3.72.4,5.55.74,2.59.48,5.18,1,7.24,2.87a3.18,3.18,0,0,1,.36,4.08,1.56,1.56,0,0,1-1.28.26c-2.92-.64-5.82-1.35-8.73-2-.27-.07-.62-.1-.77-.29-.92-1.11-1.88-.63-2.92-.22a12,12,0,0,0-4.93,4.25c-1.23,1.65-.83,3.58,1,5.49a28.73,28.73,0,0,0,2.68,2.37c2.73,2.27,5.67,4.33,8.16,6.83,2.75,2.76,5.74,5.48,6.91,9.42.92,3.1,1.57,6.14.44,9.47a27.25,27.25,0,0,1-2.46,6,12.45,12.45,0,0,1-6.39,5,15.89,15.89,0,0,1-11,.1c-2.8-.89-5.73-1.36-8.6-2a11.12,11.12,0,0,1-7.48-6,44.79,44.79,0,0,0-2.35-3.87,1.89,1.89,0,0,1,.13-2.59,4.4,4.4,0,0,1,2.79-.23c1.85.25,3.65.87,5.5,1,3.08.26,3.1-.39,4.58,2.74a14.39,14.39,0,0,0,1.56,2.28c.31.42.71.77,1,1.17,1.79,2.24,2.94,2.39,5.35.67A11.48,11.48,0,0,0,1335.37,124Z"/><path class="cls-1" d="M1289.35,124a12.93,12.93,0,0,0-3.24-8.78,62.49,62.49,0,0,0-6.53-6.59c-2.4-2.12-5.09-3.92-7.55-6-1.63-1.37-3.12-3-3.31-5.24a11.68,11.68,0,0,1,.41-4.68,14.19,14.19,0,0,1,7.18-7.77,7.74,7.74,0,0,1,5.11-.74c2.13.37,4.22,1,6.36,1.35,1.83.32,3.72.4,5.55.74,2.59.48,5.19,1,7.24,2.87a3.18,3.18,0,0,1,.36,4.08,1.55,1.55,0,0,1-1.28.26c-2.92-.64-5.82-1.35-8.73-2-.27-.07-.62-.1-.77-.29-.92-1.11-1.88-.63-2.91-.22a12,12,0,0,0-4.94,4.25c-1.23,1.65-.83,3.58,1,5.49a28.73,28.73,0,0,0,2.68,2.37c2.73,2.27,5.67,4.33,8.16,6.83,2.75,2.76,5.74,5.48,6.91,9.42.92,3.1,1.57,6.14.45,9.47a27.78,27.78,0,0,1-2.47,6,12.45,12.45,0,0,1-6.39,5,15.89,15.89,0,0,1-11,.1c-2.8-.89-5.73-1.36-8.6-2a11.14,11.14,0,0,1-7.48-6,42.42,42.42,0,0,0-2.35-3.87,1.89,1.89,0,0,1,.13-2.59,4.43,4.43,0,0,1,2.8-.23c1.84.25,3.64.87,5.49,1,3.08.26,3.11-.39,4.59,2.74a15,15,0,0,0,1.55,2.28c.31.42.71.77,1,1.17,1.79,2.24,2.94,2.39,5.35.67A11.48,11.48,0,0,0,1289.35,124Z"/><path class="cls-1" d="M474,124a13,13,0,0,0-3.25-8.78,63.37,63.37,0,0,0-6.52-6.59c-2.41-2.12-5.1-3.92-7.56-6-1.63-1.37-3.12-3-3.31-5.24a11.51,11.51,0,0,1,.42-4.68A14.17,14.17,0,0,1,461,85a7.74,7.74,0,0,1,5.11-.74c2.13.37,4.23,1,6.36,1.35,1.84.32,3.72.4,5.56.74,2.58.48,5.18,1,7.23,2.87a3.18,3.18,0,0,1,.36,4.08,1.55,1.55,0,0,1-1.28.26c-2.92-.64-5.82-1.35-8.73-2-.27-.07-.62-.1-.77-.29-.91-1.11-1.88-.63-2.91-.22A11.9,11.9,0,0,0,467,95.21c-1.24,1.65-.84,3.58,1,5.49a30.07,30.07,0,0,0,2.68,2.37c2.73,2.27,5.67,4.33,8.16,6.83,2.75,2.76,5.74,5.48,6.91,9.42.92,3.1,1.58,6.14.45,9.47a27.78,27.78,0,0,1-2.47,6,12.45,12.45,0,0,1-6.39,5,15.86,15.86,0,0,1-10.95.1c-2.81-.89-5.74-1.36-8.61-2a11.1,11.1,0,0,1-7.47-6,44.79,44.79,0,0,0-2.35-3.87,1.88,1.88,0,0,1,.12-2.59,4.43,4.43,0,0,1,2.8-.23c1.84.25,3.65.87,5.49,1,3.08.26,3.11-.39,4.59,2.74a14.39,14.39,0,0,0,1.56,2.28c.3.42.7.77,1,1.17,1.79,2.24,2.94,2.39,5.35.67A11.52,11.52,0,0,0,474,124Z"/><path class="cls-1" d="M100.47,130.15c0-4.11,0-8.22,0-12.32,0-4.61-.32-9.22-.19-13.81.14-5.42.59-10.82,1-16.22A29.66,29.66,0,0,1,101.7,84c.24-1.22.88-1.51,2-1.09A28.54,28.54,0,0,0,112,84.5c1.62.1,2.1.38,2.33,2a44.85,44.85,0,0,1,.39,4.65c0,1,.24,1.32,1.45,1.25,2.5-.13,5,.12,7.54.23,1.23.06,2.46.26,3.7.25,3.16,0,6,1.42,9.11,1.75,1.19.13,2.38.22,3.57.31s1.66.63,1.38,1.88c-.48,2.15-.72,2.25-2.88,2.19-4.82-.14-9.65-.27-14.47-.2a6.36,6.36,0,0,0-4.52,1.75c-1.32,1.31-2.76,2.49-4.12,3.75a1.39,1.39,0,0,0-.51.77c-.18,1.42-.33,2.85-.41,4.27-.19,3.77-.35,7.55-.5,11.32-.11,2.61-.16,5.24-.3,7.85-.16,2.86-.33,5.71-.66,8.55-.15,1.35-.84,1.62-2.16,1.17-1.68-.57-3.32-1.28-5-1.71a27.28,27.28,0,0,0-4.06-.48,1.39,1.39,0,0,1-1.43-1.66c0-1.4,0-2.79,0-4.19Z"/><path class="cls-1" d="M941,68.71a22,22,0,0,1-2.4-.18c-1.84-.37-3.69-.76-5.51-1.21-3.13-.76-3.1-.73-3.5-3.5-.37-2.55-.53-5.14-1.85-7.45l-.4-.69c-3.51,2.28-6.17,5.17-7.22,9.21A116.38,116.38,0,0,0,917,78.58a140.93,140.93,0,0,0-1.36,22.13,68.9,68.9,0,0,0,2.23,17.23,20.93,20.93,0,0,0,6.15,9.91,42.58,42.58,0,0,0,2.33-4c1.64-3.58,3.18-7.2,4.73-10.81.37-.84.8-1,1.74-.71a39.43,39.43,0,0,0,4.8,1.15c1.35.29,2.87.22,4,.82,1.36.69,2.56.39,3.89.31a2.67,2.67,0,0,1,2.72,2,6.79,6.79,0,0,1,.55,1.88c0,2.38.94,4.72.15,7.15a26,26,0,0,0-.67,3.86A16.18,16.18,0,0,1,945,137a10.45,10.45,0,0,1-6.91,3.61c-3.23.49-6.23-.34-9.27-1.13-2.74-.72-5.46-1.58-8.23-2.18-2.48-.54-5.07-.61-7.52-1.23-4.57-1.15-9-2.76-12.37-6.27a28.91,28.91,0,0,1-6.47-9.59A40.68,40.68,0,0,1,891.8,107a119.69,119.69,0,0,1,2.08-26.8,164.08,164.08,0,0,1,4.41-16.59c1.53-4.92,4.54-9.07,8-12.8,1.21-1.3,3-2.09,4.48-3.1a12.22,12.22,0,0,1,2-1.27,13.59,13.59,0,0,1,9.84-.59,63.26,63.26,0,0,0,12.25,2.25c6.5.75,10.68,5.34,11.11,11.82a25.94,25.94,0,0,1-.75,6.08,6.27,6.27,0,0,1-1,2.24C943.09,69.86,942.05,69.9,941,68.71Z"/><path class="cls-1" d="M957.38,132.56c0-4.11,0-8.22,0-12.33,0-4.6-.32-9.21-.2-13.81.15-5.41.6-10.81,1-16.22a31.86,31.86,0,0,1,.49-3.77c.24-1.21.87-1.5,2-1.08a28.54,28.54,0,0,0,8.28,1.56c1.61.09,2.1.38,2.33,1.94a45.32,45.32,0,0,1,.39,4.65c0,1,.23,1.32,1.45,1.26a73.21,73.21,0,0,1,7.54.23c1.23.06,2.46.25,3.7.24,3.16,0,6,1.42,9.11,1.76,1.19.13,2.38.21,3.57.3s1.66.64,1.38,1.89c-.48,2.14-.72,2.24-2.88,2.18-4.82-.13-9.65-.26-14.47-.2a6.33,6.33,0,0,0-4.52,1.76c-1.32,1.31-2.76,2.49-4.12,3.74a1.44,1.44,0,0,0-.51.78c-.18,1.42-.33,2.84-.41,4.27-.19,3.77-.35,7.54-.51,11.31-.1,2.62-.15,5.24-.29,7.86-.16,2.85-.34,5.71-.66,8.55-.15,1.34-.85,1.61-2.16,1.17-1.68-.58-3.33-1.28-5-1.72a26,26,0,0,0-4.06-.47,1.4,1.4,0,0,1-1.43-1.66c0-1.4,0-2.8,0-4.19Z"/><path class="cls-1" d="M755.75,132.56c0-4.11,0-8.22,0-12.33,0-4.6-.32-9.21-.19-13.81.14-5.41.59-10.81,1-16.22a28.18,28.18,0,0,1,.49-3.77c.23-1.21.87-1.5,2-1.08a28.61,28.61,0,0,0,8.28,1.56c1.62.09,2.1.38,2.33,1.94A45.32,45.32,0,0,1,770,93.5c0,1,.24,1.32,1.45,1.26A73.12,73.12,0,0,1,779,95c1.23.06,2.47.25,3.7.24,3.16,0,6,1.42,9.11,1.76,1.19.13,2.38.21,3.57.3s1.66.64,1.38,1.89c-.48,2.14-.72,2.24-2.88,2.18-4.82-.13-9.65-.26-14.46-.2a6.33,6.33,0,0,0-4.53,1.76c-1.32,1.31-2.76,2.49-4.12,3.74a1.44,1.44,0,0,0-.51.78c-.18,1.42-.33,2.84-.41,4.27-.19,3.77-.35,7.54-.5,11.31-.11,2.62-.15,5.24-.3,7.86-.16,2.85-.33,5.71-.65,8.55-.16,1.34-.85,1.61-2.17,1.17-1.68-.58-3.32-1.28-5-1.72a26,26,0,0,0-4.06-.47,1.4,1.4,0,0,1-1.43-1.66c0-1.4,0-2.8,0-4.19Z"/><path class="cls-1" d="M689.8,53.09a11.4,11.4,0,0,0-4.2,5.9c-2.1,6.73-2.1,13.61-2,20.52,0,2,0,4.06,0,6.35,3.3-.88,6.1.57,9,1.22,2.28.5,4.64.62,7,.93a7.69,7.69,0,0,1,1.8.38,1.5,1.5,0,0,1,1,1.94,11.48,11.48,0,0,0-.3,1.29c-.15,1.34-.87,1.61-2.17,1.68-2.6.15-5.19.61-7.78,1s-5,.73-7.5,1c-.74.09-1,.33-1,1.07q.38,11.88.72,23.78a69.19,69.19,0,0,1-2.06,18.3c-.56,2.31-1.27,2.66-3.52,2.13-3.44-.81-6.88-1.63-10.34-2.36a1.45,1.45,0,0,1-1.29-1.82c1-5.56-.32-11-.42-16.56-.12-7.45-.19-14.89-.3-22.34,0-.75-.16-1.49-.22-2.06-4.58-1-9-2-13.43-3-.8-.18-1.74-.25-1.69-1.31s.07-2.52,1.46-2.87c3.34-.82,6.67-1.82,10.2-1.44,1.09.12,2.19.14,3.25.2.09-.15.17-.22.18-.3.1-3.89.17-7.79.3-11.68.2-6.17.6-12.33,2.68-18.2a20.08,20.08,0,0,1,5.07-8.43,10.58,10.58,0,0,1,10-2.9c3.71.82,7.49,1.27,11.22,2a14,14,0,0,1,8.72,5.2,9,9,0,0,1,1.41,8.06c-.4,1.5-1.16,1.76-2.61,1.25a35.52,35.52,0,0,0-8.32-2c-1.85-.18-2.35-.8-2.87-2.55A35.28,35.28,0,0,0,689.8,53.09Z"/><path class="cls-1" d="M1179.69,93.73c1.3-1,2.44-1.84,3.54-2.73a15.09,15.09,0,0,1,6.59-3.2,10,10,0,0,1,3.41.08c2.93.49,5.83,1.28,8.78,1.6,4.07.45,6.25,3,7.28,6.8,1.24,4.55.82,9.16.77,13.76,0,1.6-.37,3.2-.45,4.81,0,.78.28,1.57.27,2.35-.08,5.74-.15,11.48-.35,17.21a48.27,48.27,0,0,1-.78,5.56c-.12.8-.67.94-1.33.75-1.64-.49-3.25-1.07-4.91-1.5a32.47,32.47,0,0,0-3.4-.53c-1.87-.26-2.12-.63-2.09-2.48.06-3.54,0-7.09.07-10.64,0-1.39.16-2.78.13-4.17-.09-4.22-.15-8.45-.37-12.66-.19-3.49-.6-7-.92-10.45a14.2,14.2,0,0,0-.35-1.53L1194,98a46.08,46.08,0,0,0-11.86,13.29,13.16,13.16,0,0,0-1.78,7.19c.23,5.62.24,11.25.26,16.88A6.66,6.66,0,0,1,1180,138a1.55,1.55,0,0,1-2,.82c-3.21-.8-6.43-1.54-9.65-2.26a1.62,1.62,0,0,1-1.42-1.77c0-1.46,0-2.93-.11-4.39-.26-6.34-.57-12.67-.8-19-.15-4.23-.31-8.47-.26-12.7a84.29,84.29,0,0,1,.62-9.4c.29-2.31,1.17-2.6,3.45-2,2.46.68,4.85,1.86,7.55,1.27.85-.19,1.35.34,1.52,1.16C1179.19,91,1179.42,92.32,1179.69,93.73Z"/><path class="cls-1" d="M407.06,93.73c1.3-1,2.44-1.84,3.54-2.73a15.09,15.09,0,0,1,6.59-3.2,10,10,0,0,1,3.41.08c2.93.49,5.83,1.28,8.78,1.6,4.07.45,6.25,3,7.28,6.8,1.24,4.55.82,9.16.77,13.76,0,1.6-.37,3.2-.45,4.81,0,.78.28,1.57.27,2.35-.08,5.74-.15,11.48-.35,17.21a48.27,48.27,0,0,1-.78,5.56c-.12.8-.67.94-1.33.75-1.64-.49-3.25-1.07-4.91-1.5a32.47,32.47,0,0,0-3.4-.53c-1.87-.26-2.12-.63-2.09-2.48.06-3.54,0-7.09.07-10.64,0-1.39.16-2.78.13-4.17-.09-4.22-.15-8.45-.37-12.66-.19-3.49-.6-7-.92-10.45a14.2,14.2,0,0,0-.35-1.53L421.39,98a46.08,46.08,0,0,0-11.86,13.29,13.16,13.16,0,0,0-1.78,7.19c.23,5.62.24,11.25.26,16.88a6.66,6.66,0,0,1-.61,2.65,1.55,1.55,0,0,1-2,.82c-3.21-.8-6.43-1.54-9.65-2.26a1.62,1.62,0,0,1-1.42-1.77c0-1.46-.05-2.93-.11-4.39-.26-6.34-.57-12.67-.8-19-.15-4.23-.31-8.47-.26-12.7a84.29,84.29,0,0,1,.62-9.4c.29-2.31,1.17-2.6,3.45-2,2.46.68,4.85,1.86,7.55,1.27.85-.19,1.35.34,1.52,1.16C406.56,91,406.79,92.32,407.06,93.73Z"/><path class="cls-1" d="M382.47,113.68a35.9,35.9,0,0,1-2.65,11,66.21,66.21,0,0,1-3.74,7.61c-2.05,3.67-5.42,6-9.06,7.75a9.56,9.56,0,0,1-7.12.2,53.93,53.93,0,0,0-8.23-2c-4.28-.57-7.38-2.78-10-6A21.19,21.19,0,0,1,338,124.9c-2.4-7.86-1.09-15.4,1.87-22.84a24.52,24.52,0,0,1,4.67-8c2.32-2.48,5-3.54,8.42-2.54a40.81,40.81,0,0,0,4.89,1.14,17.17,17.17,0,0,0,2.67-.1,5.85,5.85,0,0,1,1.87.22,25.84,25.84,0,0,0,8.79,1.56,4.45,4.45,0,0,1,4.12,2.17,14.19,14.19,0,0,0,2.41,2.28,9.63,9.63,0,0,1,2.39,4.59c.29,1.15.83,2.23,1.08,3.38C381.69,109.06,382.06,111.37,382.47,113.68ZM356.8,132.31a19,19,0,0,0,7-7.08,22.68,22.68,0,0,0,3.64-10,34.3,34.3,0,0,0-.29-7,18,18,0,0,0-2.93-7.75,3.53,3.53,0,0,0-1.71-1.13c-1-.37-2.23-.4-3.22-.86a2.42,2.42,0,0,0-3.09.72,15.27,15.27,0,0,0-3.69,7.29c-1.44,6.54-1.81,13.15.79,19.52A58.35,58.35,0,0,0,356.8,132.31Z"/><path class="cls-1" d="M747.7,113.68a35.61,35.61,0,0,1-2.65,11,66.21,66.21,0,0,1-3.74,7.61c-2,3.67-5.42,6-9,7.75a9.59,9.59,0,0,1-7.13.2,53.93,53.93,0,0,0-8.23-2c-4.28-.57-7.37-2.78-10-6a21.19,21.19,0,0,1-3.65-7.31c-2.4-7.86-1.09-15.4,1.87-22.84a24.52,24.52,0,0,1,4.67-8c2.33-2.48,5-3.54,8.42-2.54a40.81,40.81,0,0,0,4.89,1.14,17.17,17.17,0,0,0,2.67-.1,5.78,5.78,0,0,1,1.87.22,25.84,25.84,0,0,0,8.79,1.56,4.44,4.44,0,0,1,4.12,2.17A14.19,14.19,0,0,0,743,98.8a9.55,9.55,0,0,1,2.39,4.59c.3,1.15.83,2.23,1.08,3.38C746.93,109.06,747.29,111.37,747.7,113.68ZM722,132.31a19,19,0,0,0,7-7.08,22.68,22.68,0,0,0,3.64-10,34.3,34.3,0,0,0-.29-7,17.89,17.89,0,0,0-2.93-7.75,3.5,3.5,0,0,0-1.7-1.13c-1-.37-2.24-.4-3.23-.86a2.42,2.42,0,0,0-3.09.72,15.16,15.16,0,0,0-3.68,7.29c-1.45,6.54-1.82,13.15.78,19.52A58.35,58.35,0,0,0,722,132.31Z"/><path class="cls-1" d="M1231.49,125.37a20.2,20.2,0,0,0,4.67,7.67,1.51,1.51,0,0,0,1.24.26c2.32-.74,4.59-1.61,6.91-2.31a3.63,3.63,0,0,1,1.77.26,16.49,16.49,0,0,0,2.2.7c2,.24,4.11.39,6.16.53,1.61.1,1.86.57,1.53,2.11-.41,1.91-1.73,2.77-3.32,3.45-3.23,1.37-6.51,2.67-10.07,2.75a19.32,19.32,0,0,1-4.45-.77c-2.68-.58-5.33-1.33-8-1.81a16,16,0,0,1-12.32-9.14,29.67,29.67,0,0,1-3-14.25,35.76,35.76,0,0,1,1.65-9A31.38,31.38,0,0,1,1222.17,95a20.12,20.12,0,0,1,9.11-6.34,7.35,7.35,0,0,1,4.94.07,28.55,28.55,0,0,0,8.66,1.59c2.44,0,4.83,3.07,5.26,4.8a22.23,22.23,0,0,1-1.23,14.17,27.23,27.23,0,0,1-7.78,10.6,67.79,67.79,0,0,1-6.59,4.69A10.84,10.84,0,0,1,1231.49,125.37Zm-2-12.11c5.49-4.16,9.36-10.3,8.42-16.58C1234.19,98,1229.07,108,1229.48,113.26Z"/><path class="cls-1" d="M158.23,125.37A20.2,20.2,0,0,0,162.9,133a1.51,1.51,0,0,0,1.24.26c2.32-.74,4.59-1.61,6.91-2.31a3.63,3.63,0,0,1,1.77.26,16.49,16.49,0,0,0,2.2.7c2,.24,4.11.39,6.17.53,1.6.1,1.85.57,1.52,2.11-.41,1.91-1.73,2.77-3.32,3.45-3.23,1.37-6.51,2.67-10.07,2.75a19.32,19.32,0,0,1-4.45-.77c-2.68-.58-5.33-1.33-8-1.81a16,16,0,0,1-12.32-9.14,29.78,29.78,0,0,1-3-14.25,36.21,36.21,0,0,1,1.65-9A31.38,31.38,0,0,1,148.91,95,20.12,20.12,0,0,1,158,88.65a7.35,7.35,0,0,1,4.94.07,28.55,28.55,0,0,0,8.66,1.59c2.44,0,4.83,3.07,5.26,4.8a22.23,22.23,0,0,1-1.23,14.17,27.23,27.23,0,0,1-7.78,10.6,66.59,66.59,0,0,1-6.59,4.69A10.84,10.84,0,0,1,158.23,125.37Zm-2-12.11c5.49-4.16,9.36-10.3,8.42-16.58C160.93,98,155.81,108,156.22,113.26Z"/><path class="cls-1" d="M815.77,125.37a20.2,20.2,0,0,0,4.67,7.67,1.53,1.53,0,0,0,1.25.26c2.31-.74,4.58-1.61,6.91-2.31a3.61,3.61,0,0,1,1.76.26,17,17,0,0,0,2.2.7c2.05.24,4.11.39,6.17.53,1.6.1,1.85.57,1.52,2.11-.4,1.91-1.73,2.77-3.31,3.45-3.24,1.37-6.52,2.67-10.08,2.75a19.15,19.15,0,0,1-4.44-.77c-2.69-.58-5.34-1.33-8-1.81a16,16,0,0,1-12.32-9.14,29.78,29.78,0,0,1-3-14.25,36.21,36.21,0,0,1,1.65-9A31.38,31.38,0,0,1,806.45,95a20.12,20.12,0,0,1,9.11-6.34,7.35,7.35,0,0,1,4.94.07,28.61,28.61,0,0,0,8.66,1.59c2.44,0,4.83,3.07,5.26,4.8a22.16,22.16,0,0,1-1.23,14.17,27.3,27.3,0,0,1-7.77,10.6,66.73,66.73,0,0,1-6.6,4.69A10.84,10.84,0,0,1,815.77,125.37Zm-2-12.11c5.49-4.16,9.37-10.3,8.43-16.58C818.47,98,813.35,108,813.76,113.26Z"/><path class="cls-1" d="M628,125.37a20.2,20.2,0,0,0,4.67,7.67,1.51,1.51,0,0,0,1.24.26c2.32-.74,4.59-1.61,6.91-2.31a3.63,3.63,0,0,1,1.77.26,16.83,16.83,0,0,0,2.19.7c2.05.24,4.11.39,6.17.53,1.61.1,1.86.57,1.53,2.11-.41,1.91-1.73,2.77-3.32,3.45-3.23,1.37-6.52,2.67-10.07,2.75a19.23,19.23,0,0,1-4.45-.77c-2.68-.58-5.33-1.33-8-1.81a16,16,0,0,1-12.32-9.14,29.79,29.79,0,0,1-3-14.25,36.67,36.67,0,0,1,1.65-9A31.58,31.58,0,0,1,618.69,95a20.12,20.12,0,0,1,9.11-6.34,7.35,7.35,0,0,1,4.94.07,28.5,28.5,0,0,0,8.66,1.59c2.44,0,4.83,3.07,5.25,4.8a22.1,22.1,0,0,1-1.23,14.17,27.11,27.11,0,0,1-7.77,10.6,67.79,67.79,0,0,1-6.59,4.69A10.84,10.84,0,0,1,628,125.37Zm-2-12.11c5.49-4.16,9.36-10.3,8.42-16.58C630.71,98,625.59,108,626,113.26Z"/><path class="cls-1" d="M229.14,97.75c1.4.11,2.68.24,4,.29,2.24.09,2.75.54,2.75,2.76,0,6.71-.18,13.43.09,20.12a39,39,0,0,0,1.82,9.47c.91,3,3.45,4.39,6.52,4.74,2.33.26,2.34.24,1.77,2.47-.62,2.46-1.21,2.85-3.68,2.27-4.05-.94-8.13-1.76-12.11-2.93a70.84,70.84,0,0,1-7.45-3.08c-1.38.88-3,2.06-4.69,3a13.86,13.86,0,0,1-10.54.82c-3.33-.92-6.71-1.72-10.12-2.32-6.58-1.17-10.58-6.53-11-12.77a36.18,36.18,0,0,1,4.28-19.28,28.38,28.38,0,0,1,7.37-9.36c4.94-4,10.49-4.13,16.36-2.71,2.85.68,5.79,1,8.66,1.63a26.25,26.25,0,0,1,4.68,1.4C229.31,94.86,229.61,95.77,229.14,97.75Zm-10,.1c-7.49,2.07-11.07,7.5-13.74,13.72-2.38,5.56-2.9,11.22-.06,17.14a36,36,0,0,0,3.1-2.81,35.08,35.08,0,0,0,6.73-11.19C217.15,109.36,217.94,103.81,219.16,97.85Z"/><path class="cls-1" d="M1042.86,98.52c1.4.1,2.68.23,4,.28,2.25.1,2.75.54,2.75,2.76,0,6.7-.18,13.4.09,20.09a39,39,0,0,0,1.82,9.45c.91,3,3.44,4.38,6.5,4.72,2.34.27,2.34.25,1.78,2.48-.63,2.45-1.21,2.83-3.69,2.26-4-.94-8.1-1.76-12.08-2.92a70.7,70.7,0,0,1-7.44-3.08c-1.38.88-3,2.05-4.68,3a13.88,13.88,0,0,1-10.51.82c-3.33-.92-6.71-1.72-10.11-2.33-6.57-1.16-10.56-6.51-11-12.74A36.11,36.11,0,0,1,1004.5,104a28.55,28.55,0,0,1,7.36-9.35c4.93-4,10.47-4.12,16.33-2.71,2.85.69,5.77,1,8.64,1.64A25.1,25.1,0,0,1,1041.5,95C1043,95.63,1043.33,96.54,1042.86,98.52Zm-10,.1c-7.48,2.06-11.05,7.48-13.71,13.69-2.38,5.55-2.9,11.2-.07,17.11a36,36,0,0,0,3.1-2.8,34.9,34.9,0,0,0,6.72-11.18C1030.89,110.1,1031.68,104.57,1032.9,98.62Z"/><path class="cls-1" d="M304.75,125.64c.56-9.64.93-18.14,2.88-26.46.61-2.61,1.43-5.17,2.22-7.74.39-1.27,1.36-1.63,2.8-1.13a34.49,34.49,0,0,0,10.4,2c1.74,0,2.38.67,2.22,2.45-.24,2.77-.71,5.52-1,8.28-.5,4.14-1.11,8.28-1.37,12.44a118.72,118.72,0,0,0-.2,13.07c.2,4.13.41,4.14,4.47,4.76a27.61,27.61,0,0,0,3.15.2c1.54.06,2,.64,1.57,2.09-.11.41,0,.89-.11,1.28-.2.55-.42,1.33-.86,1.53a47.45,47.45,0,0,1-5.85,2.32,5.48,5.48,0,0,1-2.68-.16c-3.58-.82-7.11-2-10.74-2.5-3.38-.5-5-2.53-5.74-5.42A68.26,68.26,0,0,1,304.75,125.64Z"/><path class="cls-1" d="M307.91,70.26a15.18,15.18,0,0,1,.41-1.72c.47-1.35,1.23-1.61,2.73-1.29a17,17,0,0,0,2.87.18,3.43,3.43,0,0,1,1.26.11c3.05,1.44,6.32,1.73,9.6,2,1,.08,2.45-.43,2.58.83s-.58,2.5-1.05,3.71c-.24.62-.86,1.09-1.12,1.71-.73,1.77-1.67,2.06-3.5,1.54-3.24-.93-6.53-1.75-9.84-2.38A4.5,4.5,0,0,1,307.91,70.26Z"/><path class="cls-1" d="M1126.83,125.64c.55-9.64.92-18.14,2.87-26.46.61-2.61,1.43-5.17,2.22-7.74.4-1.27,1.36-1.63,2.81-1.13a34.37,34.37,0,0,0,10.39,2c1.75,0,2.38.67,2.22,2.45-.24,2.77-.71,5.52-1,8.28-.49,4.14-1.11,8.28-1.37,12.44a121.24,121.24,0,0,0-.19,13.07c.19,4.13.41,4.14,4.46,4.76a27.61,27.61,0,0,0,3.15.2c1.55.06,2,.64,1.57,2.09-.11.41,0,.89-.11,1.28-.2.55-.42,1.33-.86,1.53a46.83,46.83,0,0,1-5.85,2.32,5.48,5.48,0,0,1-2.68-.16c-3.58-.82-7.11-2-10.74-2.5-3.38-.5-5-2.53-5.74-5.42A65.13,65.13,0,0,1,1126.83,125.64Z"/><path class="cls-1" d="M1130,70.26a15.51,15.51,0,0,1,.42-1.72c.46-1.35,1.23-1.61,2.72-1.29a17.16,17.16,0,0,0,2.87.18,3.51,3.51,0,0,1,1.27.11c3,1.44,6.31,1.73,9.59,2,1,.08,2.45-.43,2.58.83s-.58,2.5-1,3.71c-.24.62-.85,1.09-1.11,1.71-.74,1.77-1.67,2.06-3.51,1.54-3.24-.93-6.52-1.75-9.84-2.38A4.51,4.51,0,0,1,1130,70.26Z"/></g></svg>