<svg xmlns="http://www.w3.org/2000/svg" viewBox="0 0 1000 202.41"><defs><style>.cls-1{fill:#8872a4;}</style></defs><g id="Layer_16_Image" data-name="Layer 16 Image"><path class="cls-1" d="M266.84,150.85c2.18,0,4.33.12,6.47,0,4.15-.28,8.3-.69,12.44-1.09,1-.1,2-.49,3-.6a16.73,16.73,0,0,1,8.35,1c1.32.55,3.05-.27,4.13,1.4.2.32,1.8-.25,2.75-.43,1.59-.31,2.06.3,2.05,1.77,0,4.28-3.16,5.3-6.32,5.83a106.76,106.76,0,0,1-10.9.88c-3.14.2-6.28.41-9.43.5s-6.58,0-9.88.06c-5,.09-9.41-2.36-14.23-3.06-2.48-.37-4.93-1-7.39-1.54a2.62,2.62,0,0,1-2.34-3,61.44,61.44,0,0,1,.94-6.18c.8-4,1.79-7.91,2.56-11.89s1.47-8.2,2.08-12.31c.83-5.53,1.6-11.07,2.27-16.62,1.2-9.9,2.24-19.83,3.47-29.73.68-5.45,1.6-10.86,2.45-16.29a9.18,9.18,0,0,1,.56-1.92c.41-1.07,1.19-1.26,2.25-1,2.91.79,5.82,1.57,8.76,2.26a19.4,19.4,0,0,0,2.42.07c2,.21,3,1.14,2.93,3.19-.17,7.09-.36,14.19-.72,21.27-.31,6.11-.73,12.22-1.35,18.3-.84,8.23-1.7,16.47-3,24.64-1.23,8-3,15.86-4.48,23.78A4.35,4.35,0,0,0,266.84,150.85Z"/><path class="cls-1" d="M354.78,141.64c2.3-5.25,4.56-10.52,6.91-15.75,1.61-3.56,3.24-7.12,5-10.59s.9-3,5.31-2.26c2.46.4,4.94.76,7.4,1.14.83.13,1.39.48,1.09,1.43a29.38,29.38,0,0,1-1.15,3.35c-1.53,3.45-3.19,6.84-4.7,10.3-1.59,3.65-3,7.35-4.59,11-1.7,3.95-3.46,7.88-5.21,11.81-.76,1.7-1.46,3.44-2.37,5.06a7.8,7.8,0,0,1-2.22,2.58,3.48,3.48,0,0,1-2.46.3c-2.84-.56-5.62-1.4-8.46-1.89a3.36,3.36,0,0,1-2.7-1.87,43.73,43.73,0,0,1-2.2-5c-1.41-3.93-2.77-7.87-4-11.85-1.69-5.4-3.25-10.83-4.86-16.25a59.44,59.44,0,0,1-1.72-6.2,13.69,13.69,0,0,1,.12-4.23c.11-.81.81-1.14,1.67-.8a33.52,33.52,0,0,0,9,1.78,2.08,2.08,0,0,1,1.45,1.15c1.14,3.21,2.18,6.47,3.2,9.73.65,2.09,1.2,4.21,1.85,6.3,1.1,3.57,2.24,7.13,3.36,10.69Z"/><path class="cls-1" d="M398.75,144.69a20.24,20.24,0,0,0,4.67,7.66,1.48,1.48,0,0,0,1.24.27c2.32-.74,4.59-1.61,6.91-2.32a3.64,3.64,0,0,1,1.77.27,16.83,16.83,0,0,0,2.19.7c2.05.24,4.11.39,6.17.52,1.61.11,1.86.57,1.53,2.12-.41,1.9-1.73,2.77-3.32,3.44-3.23,1.38-6.52,2.67-10.07,2.76a19.8,19.8,0,0,1-4.45-.78c-2.68-.58-5.33-1.32-8-1.8A16,16,0,0,1,385,148.38a29.77,29.77,0,0,1-3-14.25,36.37,36.37,0,0,1,1.65-9,31.53,31.53,0,0,1,5.72-10.8,20,20,0,0,1,9.11-6.34,7.29,7.29,0,0,1,4.94.07,28.5,28.5,0,0,0,8.66,1.59c2.44.05,4.83,3.07,5.25,4.79a22.12,22.12,0,0,1-1.23,14.18,27.18,27.18,0,0,1-7.77,10.6,66,66,0,0,1-6.59,4.68A10.59,10.59,0,0,1,398.75,144.69Zm-2-12.12c5.49-4.15,9.36-10.3,8.42-16.57C401.45,117.32,396.33,127.31,396.74,132.57Z"/><path class="cls-1" d="M310.85,147.52c.46-8,.77-15.07,2.39-22,.51-2.17,1.18-4.31,1.84-6.44.33-1,1.13-1.35,2.33-.94a28.29,28.29,0,0,0,8.64,1.62c1.45,0,2,.56,1.84,2-.2,2.3-.59,4.58-.86,6.88-.41,3.44-.93,6.87-1.14,10.33a98.39,98.39,0,0,0-.16,10.86c.16,3.43.34,3.43,3.71,3.95a22.72,22.72,0,0,0,2.61.17c1.29,0,1.64.53,1.31,1.74-.1.33,0,.73-.09,1.06s-.35,1.1-.72,1.27a40,40,0,0,1-4.86,1.93,4.58,4.58,0,0,1-2.22-.14c-3-.68-5.91-1.63-8.92-2.07a5.4,5.4,0,0,1-4.77-4.51A54,54,0,0,1,310.85,147.52Z"/><path class="cls-1" d="M313.47,101.52a12.82,12.82,0,0,1,.34-1.43c.39-1.12,1-1.34,2.27-1.07a15.74,15.74,0,0,0,2.39.15,2.93,2.93,0,0,1,1,.09,22.55,22.55,0,0,0,8,1.66c.79.07,2-.36,2.14.69a7.51,7.51,0,0,1-.87,3.08c-.2.52-.72.91-.93,1.42-.61,1.47-1.39,1.71-2.91,1.28-2.69-.77-5.42-1.45-8.17-2A3.74,3.74,0,0,1,313.47,101.52Z"/><path class="cls-1" d="M493.52,110.28c-.43,4.13-.85,8.26-1.31,12.39-.35,3-.78,6-1.14,9-.46,3.77-.74,7.56-1.35,11.3-1.07,6.65-2.29,13.28-3.52,19.9a17.34,17.34,0,0,1-1.3,3.94c-.63,1.41-1.94,2-3.17,1.15-2.19-1.52-4.73-1.17-7.08-1.77-1.19-.3-2.47-.27-3.63-.64a2.61,2.61,0,0,1-1.48-1.45,7,7,0,0,1-.24-2.75c.1-1.79.3-3.57.49-5.36.44-4.09.85-8.18,1.34-12.26.81-6.84,1.69-13.68,2.5-20.53.44-3.77.8-7.54,1.16-11.31s.61-7.67,1-11.49c.53-4.84,1.12-9.67,1.8-14.5.52-3.7,1.21-7.39,1.87-11.07a23.53,23.53,0,0,1,1-4c.87-2.34,1.66-2.44,4.05-1.86a86,86,0,0,0,11.76,2.18c2.5.23,4.24,1.22,5.12,3.29,1.85,4.33,3.43,8.79,5.07,13.21,1,2.61,1.84,5.24,2.71,7.87,1.3,3.9,2.53,7.83,3.84,11.72,1.21,3.59,2.49,7.16,4,10.76.08-.52.13-1,.24-1.55,1.63-7.27,3.07-14.6,5-21.8,2.13-8.14,4.73-16.16,7-24.26,1-3.69,1.78-7.47,2.8-11.17.7-2.56,1.59-5.08,2.47-7.59a1.5,1.5,0,0,1,2.09-1c2.66.74,5.35,1.41,8.06,2a27.87,27.87,0,0,0,4.29.46c2,.09,2.68.69,2.35,2.66-.62,3.64-1.26,7.29-2.05,10.89q-2.77,12.8-5.72,25.56c-1.29,5.6-2.78,11.16-4,16.79q-1.9,9-3.41,18.13c-1.36,8.16-2.53,16.35-3.83,24.52a52.79,52.79,0,0,1-1.25,5.4c-.45,1.61-1.6,2.08-3.35,1.66-3.15-.75-6.32-1.44-9.49-2.11A55.85,55.85,0,0,1,512,155.3a5,5,0,0,1-2.83-2.36c-1.69-3.94-3.05-8-4.56-12-.23-.61-.65-1.15-.87-1.76-1.23-3.38-2.43-6.77-3.63-10.16-1.38-3.91-2.78-7.82-4.09-11.75-.78-2.32-1.41-4.68-2.1-7Z"/><path class="cls-1" d="M599.41,118.26c-5.08-1.06-10-2.08-14.88-3.08-.9-.19-1.6-.44-1.51-1.6.13-1.53.56-2.23,1.76-2.24,3.91,0,7.83,0,11.74,0a26.51,26.51,0,0,0,3.34-.11c.33,0,.74-.62.83-1,.59-2.72,1-5.5,1.69-8.19,1.33-4.83,2.86-9.6,4.31-14.4.67-2.25,1.37-4.5,2-6.76.56-2,.9-2.11,2.85-1.58,2.41.65,4.8,1.46,7.37,1.35,1.76-.07,2.32.48,2.06,2.24-.67,4.49-1.39,9-2.28,13.43s-2,8.78-3,13.17a4,4,0,0,0,0,.72,11.64,11.64,0,0,0,1.87,0c1.82-.29,3.54.24,5.31.5,3.08.46,6.16.88,9.26,1.21,2,.22,2.22.4,1.92,2.31-.33,2.07-1,2.7-3.22,2.84-5.21.35-10.42.7-15.63,1-.83,0-1.1.34-1.18,1.09-.41,3.44-.87,6.86-1.26,10.3-.46,4-1,8.06-1.25,12.1a23.16,23.16,0,0,0,1.29,10.4,1.33,1.33,0,0,0,1.15.54,7.6,7.6,0,0,0,2-1.63,2.17,2.17,0,0,1,2.76-.76,51.7,51.7,0,0,0,5.56,1.15c1.08.18,2.2.17,3.28.33s1.28.79,1.14,1.75c-.42,2.9-1.77,4.86-4.8,5.69-3.27.91-6.48,1.59-9.86.69-2.58-.69-5.18-1.3-7.76-1.95a23.51,23.51,0,0,1-4.46-1.24c-2.63-1.25-3.66-3.75-4.2-6.44-1.05-5.17-.66-10.39-.22-15.59.27-3.19.65-6.37,1-9.54C598.71,122.65,599.1,120.39,599.41,118.26Z"/><path class="cls-1" d="M724,113.05c1.3-1,2.44-1.84,3.54-2.74a15.18,15.18,0,0,1,6.59-3.19,9.79,9.79,0,0,1,3.41.08c2.93.48,5.83,1.27,8.78,1.6,4.07.45,6.25,3,7.28,6.8,1.24,4.55.82,9.16.77,13.75,0,1.61-.37,3.21-.45,4.82,0,.77.28,1.57.27,2.35-.08,5.73-.15,11.47-.35,17.2a48,48,0,0,1-.78,5.56c-.12.8-.67.95-1.33.75-1.64-.48-3.25-1.07-4.91-1.49a32.47,32.47,0,0,0-3.4-.53c-1.87-.26-2.12-.63-2.09-2.48.06-3.55,0-7.1.07-10.64,0-1.4.16-2.79.13-4.18-.09-4.22-.15-8.44-.37-12.65-.19-3.49-.6-7-.92-10.45a14.28,14.28,0,0,0-.35-1.54l-1.56,1.24a46,46,0,0,0-11.86,13.29,13.14,13.14,0,0,0-1.78,7.18c.23,5.62.24,11.26.27,16.88a6.81,6.81,0,0,1-.62,2.65,1.55,1.55,0,0,1-2,.83c-3.21-.8-6.43-1.54-9.65-2.27a1.62,1.62,0,0,1-1.42-1.76c0-1.47,0-2.93-.11-4.4-.26-6.33-.56-12.66-.79-19-.16-4.23-.31-8.46-.27-12.69a84.63,84.63,0,0,1,.62-9.41c.29-2.31,1.17-2.6,3.45-2,2.46.68,4.85,1.87,7.55,1.27.85-.18,1.35.35,1.52,1.16C723.48,110.36,723.71,111.64,724,113.05Z"/><path class="cls-1" d="M707.54,133a35.67,35.67,0,0,1-2.65,11,65.28,65.28,0,0,1-3.74,7.6c-2,3.68-5.42,6-9,7.76a9.59,9.59,0,0,1-7.13.19,55.13,55.13,0,0,0-8.23-2c-4.28-.56-7.37-2.77-10-6a21.15,21.15,0,0,1-3.65-7.32c-2.4-7.85-1.09-15.4,1.87-22.84a24.66,24.66,0,0,1,4.67-8c2.33-2.48,5-3.55,8.42-2.54A41.26,41.26,0,0,0,683,112a17.17,17.17,0,0,0,2.67-.1,5.52,5.52,0,0,1,1.87.22,26.34,26.34,0,0,0,8.79,1.56,4.45,4.45,0,0,1,4.12,2.16,14.19,14.19,0,0,0,2.41,2.28,9.53,9.53,0,0,1,2.39,4.6c.3,1.14.83,2.23,1.08,3.38C706.77,128.38,707.13,130.69,707.54,133Zm-25.67,18.64a19,19,0,0,0,7-7.08,22.56,22.56,0,0,0,3.64-10,34.27,34.27,0,0,0-.29-7,17.93,17.93,0,0,0-2.93-7.76,3.49,3.49,0,0,0-1.7-1.12,33.27,33.27,0,0,1-3.23-.87,2.43,2.43,0,0,0-3.09.73,15.08,15.08,0,0,0-3.68,7.29c-1.45,6.53-1.82,13.14.78,19.52A58.35,58.35,0,0,0,681.87,151.63Z"/><path class="cls-1" d="M577,125.14c1.16.09,2.21.2,3.26.24,1.86.08,2.27.44,2.28,2.28,0,5.54-.16,11.08.07,16.61a31.81,31.81,0,0,0,1.5,7.82c.75,2.49,2.85,3.63,5.39,3.91,1.92.22,1.92.2,1.46,2-.51,2-1,2.35-3,1.88-3.34-.78-6.71-1.46-10-2.42a62.59,62.59,0,0,1-6.15-2.54c-1.14.72-2.45,1.69-3.88,2.44a11.43,11.43,0,0,1-8.69.68c-2.75-.76-5.55-1.43-8.36-1.92-5.43-1-8.74-5.39-9.11-10.55a29.93,29.93,0,0,1,3.54-15.91,23.43,23.43,0,0,1,6.08-7.73c4.08-3.3,8.66-3.41,13.51-2.24,2.35.57,4.78.85,7.15,1.35a22.27,22.27,0,0,1,3.86,1.15C577.15,122.76,577.4,123.5,577,125.14Zm-8.24.08c-6.19,1.71-9.14,6.2-11.35,11.33-2,4.59-2.39,9.26,0,14.16a30.83,30.83,0,0,0,2.56-2.32,28.8,28.8,0,0,0,5.56-9.25C567.12,134.72,567.77,130.15,568.78,125.22Z"/><path class="cls-1" d="M636.7,147.52c.47-8,.77-15.07,2.39-22,.51-2.17,1.19-4.31,1.85-6.44.32-1,1.13-1.35,2.32-.94a28.35,28.35,0,0,0,8.64,1.62c1.45,0,2,.56,1.85,2-.21,2.3-.6,4.58-.87,6.88-.41,3.44-.92,6.87-1.14,10.33a98.39,98.39,0,0,0-.16,10.86c.16,3.43.34,3.43,3.71,3.95a22.75,22.75,0,0,0,2.62.17c1.28,0,1.64.53,1.3,1.74-.09.33,0,.73-.09,1.06s-.35,1.1-.71,1.27a40.61,40.61,0,0,1-4.86,1.93,4.61,4.61,0,0,1-2.23-.14c-3-.68-5.91-1.63-8.92-2.07a5.41,5.41,0,0,1-4.77-4.51A54,54,0,0,1,636.7,147.52Z"/><path class="cls-1" d="M639.32,101.52a13.17,13.17,0,0,1,.35-1.43c.39-1.12,1-1.34,2.26-1.07a15.74,15.74,0,0,0,2.39.15,3,3,0,0,1,1,.09,22.45,22.45,0,0,0,8,1.66c.79.07,2-.36,2.14.69a7.36,7.36,0,0,1-.87,3.08c-.2.52-.71.91-.93,1.42-.61,1.47-1.39,1.71-2.91,1.28-2.69-.77-5.42-1.45-8.17-2A3.74,3.74,0,0,1,639.32,101.52Z"/></g></svg>