<svg xmlns="http://www.w3.org/2000/svg" viewBox="0 0 1000 202.41"><defs><style>.cls-1{fill:#8872a4;}</style></defs><g id="Layer_16_Image" data-name="Layer 16 Image"><path class="cls-1" d="M515.86,128c1.53,1,3,1.87,4.38,2.79.58.38,1.39.74,1.58,1.28a3.8,3.8,0,0,1-.2,2.24c-.07.2-.87.33-1.27.24-2.64-.6-5.27-1.28-7.91-1.89a1.19,1.19,0,0,0-.92.2c-4.19,3.82-9.29,5.1-14.76,5.62-3.77.36-7.23-.73-10.77-1.64-2.25-.58-4.56-.92-6.83-1.43-6.64-1.5-11.48-5.26-14.15-11.56a12.94,12.94,0,0,1-.12-8.83A38.57,38.57,0,0,1,472.84,101,1.49,1.49,0,0,0,473,98.8a61.37,61.37,0,0,1-4.38-6.44,15.46,15.46,0,0,1-2.13-7.71,21,21,0,0,1,3.22-11.27,20.89,20.89,0,0,1,5.15-6.07,67.72,67.72,0,0,1,7-4.61,9.52,9.52,0,0,1,7.88-.51,36.71,36.71,0,0,0,7.89,1.44,7.15,7.15,0,0,1,5.9,4.41c1.62,4.54,1,9-.52,13.29a37,37,0,0,1-6.86,11.72c-2.52,3-5,6.09-7.45,9.14a4.14,4.14,0,0,0-.35.56l6,6.92c.14-.19.28-.3.27-.4-.1-1.69.48-1.77,2.17-2.26,2.19-.63,4.41-1.17,6.65-1.58a16.06,16.06,0,0,1,7.13.26,44.35,44.35,0,0,0,9.91,1.72,2.18,2.18,0,0,1,2.19,2.59,33.36,33.36,0,0,1-2.23,9.29A33.14,33.14,0,0,1,515.86,128Zm-16.25-2.32c-1.89-1.5-3.76-2.91-5.55-4.43-1.58-1.34-3.08-2.78-4.59-4.2-.39-.37-.65-.88-1.05-1.24-1.44-1.33-2.94-2.61-4.39-3.94-.52-.48-1-1-1.45-1.56l-1.6,1.27a3.49,3.49,0,0,1-.44,1.32,5.58,5.58,0,0,0-.39.6c-.52,1.31-1,2.63-1.52,3.94a7.93,7.93,0,0,0,.3,7,21.6,21.6,0,0,0,4.51,5.72,5.12,5.12,0,0,0,5.4,1.39c2.24-.74,4.55-1.24,6.59-2.52C497,128.08,498.82,127.52,499.61,125.69Zm-9.4-55.57a24.53,24.53,0,0,0-8.36,7.49c-1.85,2.7-3.22,5.52-2.83,8.9a15.66,15.66,0,0,0,.41,2.45,18.9,18.9,0,0,0,.89,2.21l.45.06c1.43-1.88,3-3.68,4.26-5.65a36.56,36.56,0,0,0,4.55-8.91A13.39,13.39,0,0,0,490.21,70.12Zm14.23,49.33c1.31-1.37,3.3-6,3.12-6.88a10.34,10.34,0,0,1-2.31.23,26.39,26.39,0,0,1-2.66-.74c-1.25-.29-2.52-.5-3.78-.75l-3-.61-.13.22Z"/><path class="cls-1" d="M586.67,86.63c.34-.4.67-.81,1-1.2,2.63-2.81,5.31-5.58,7.89-8.44,1.95-2.17,3.77-4.45,5.62-6.69s3.69-4.52,5.52-6.79c.9-1.12,1.74-1.84,3.43-1.2a39.49,39.49,0,0,0,6,1.42,8.24,8.24,0,0,0,1.65,0c1.33,0,1.8.44,1.46,1.72a10.57,10.57,0,0,1-1.49,3.61c-3.36,4.47-6.69,9-10.35,13.21S599.82,90.24,596,94.2c-1.53,1.6-1.6,2.14-.21,3.9,2.44,3.11,5,6.11,7.43,9.25,1.68,2.21,3.14,4.58,4.69,6.89,2.41,3.61,4.83,7.22,7.22,10.84.88,1.33,1.69,2.71,2.52,4.08.31.51.19,3-.26,3.36a1.7,1.7,0,0,1-1.33.25c-3.07-1.19-6.31-1.59-9.51-2.23a3.91,3.91,0,0,1-2.06-1.46q-3.19-4.11-6.2-8.38c-3.79-5.41-7.51-10.87-11.26-16.3a1.69,1.69,0,0,0-.76-.61c0,1.6.06,3.2,0,4.8-.12,2.63-.39,5.26-.48,7.89s0,5.34-.08,8c-.09,3.39-.23,6.78-.4,10.18a12.5,12.5,0,0,1-.4,2.25c-.37,1.58-1,1.92-2.65,1.42-1.09-.34-2.2-.66-3.31-.91-1.59-.36-3.2-.65-4.8-1a1.54,1.54,0,0,1-1.3-1.81c.08-2.25.11-4.5.17-6.75,0-1,.14-2.07.14-3.11,0-3.85,0-7.7-.07-11.55,0-2.73,0-5.45-.06-8.18,0-3-.14-6-.07-9,.07-3.54.2-7.08.48-10.61.32-4.12.2-8.26.68-12.36.32-2.78.73-5.56,1.28-8.3.31-1.54,1.05-1.72,2.57-1.36,2.27.54,4.58.95,6.88,1.34A1.19,1.19,0,0,1,586,66q.19,4.78.34,9.57c0,1.46,0,2.91,0,4.36,0,2.19,0,4.38,0,6.57Z"/><path class="cls-1" d="M689.73,120.09c2.3-5.25,4.56-10.52,6.91-15.75,1.6-3.56,3.24-7.11,5-10.59s.91-3,5.31-2.25c2.47.39,4.94.76,7.41,1.13.82.13,1.39.48,1.09,1.43a33.88,33.88,0,0,1-1.15,3.35c-1.54,3.45-3.2,6.85-4.7,10.31-1.59,3.64-3,7.35-4.6,11-1.7,4-3.46,7.88-5.2,11.81-.76,1.71-1.47,3.44-2.38,5.07a7.87,7.87,0,0,1-2.21,2.58,3.62,3.62,0,0,1-2.47.3c-2.83-.57-5.61-1.41-8.46-1.9a3.38,3.38,0,0,1-2.7-1.87,46.24,46.24,0,0,1-2.2-5c-1.4-3.93-2.77-7.88-4-11.86-1.69-5.39-3.26-10.83-4.87-16.25a59.44,59.44,0,0,1-1.72-6.2,13.93,13.93,0,0,1,.13-4.22c.11-.81.81-1.14,1.66-.81a33.52,33.52,0,0,0,9,1.78A2.07,2.07,0,0,1,681,93.3c1.14,3.22,2.18,6.47,3.2,9.73.66,2.09,1.2,4.21,1.85,6.31,1.1,3.56,2.24,7.12,3.37,10.68Z"/><path class="cls-1" d="M770.75,130.32c0-4.1,0-8.21,0-12.32,0-4.6-.32-9.21-.2-13.81.15-5.41.6-10.82,1-16.22A31.86,31.86,0,0,1,772,84.2c.24-1.21.87-1.51,2-1.09a28.23,28.23,0,0,0,8.28,1.57c1.61.09,2.1.38,2.33,1.94a45.32,45.32,0,0,1,.39,4.65c0,1,.23,1.32,1.45,1.26a72.93,72.93,0,0,1,7.53.23c1.24,0,2.47.25,3.7.24,3.17,0,6,1.42,9.12,1.76,1.18.13,2.38.21,3.56.3s1.66.64,1.39,1.89c-.48,2.14-.72,2.24-2.89,2.18-4.81-.13-9.64-.26-14.46-.2a6.37,6.37,0,0,0-4.53,1.76c-1.31,1.3-2.75,2.48-4.11,3.74a1.54,1.54,0,0,0-.52.77c-.17,1.42-.32,2.85-.4,4.28-.19,3.77-.35,7.54-.51,11.31-.11,2.62-.15,5.24-.3,7.85-.16,2.86-.33,5.72-.65,8.55-.15,1.35-.85,1.62-2.16,1.17-1.68-.57-3.33-1.27-5-1.71a26,26,0,0,0-4.06-.47,1.41,1.41,0,0,1-1.44-1.67c0-1.39,0-2.79,0-4.19Z"/><path class="cls-1" d="M858.75,91.54a49.19,49.19,0,0,0,6.08-10.15A48.43,48.43,0,0,1,867.19,77c.43-.78,1-.83,1.93-.62,2.73.65,5.5,1.17,8.25,1.74l1.18.22c.67.13.75.49.61,1.14-1,4.78-3.37,8.93-5.87,13-2,3.33-4.29,6.53-6.43,9.8-1.05,1.6-2.05,3.23-3.11,4.82-.41.63-.24,1,.2,1.57,1.4,1.74,2.7,3.55,4.07,5.31,1.22,1.56,2.57,3,3.74,4.63,2.23,3,4.42,6.13,6.53,9.27,1.27,1.89,2.3,3.93,3.51,5.85.82,1.3.21,2.47-.21,3.64-.1.28-.89.54-1.29.46-2.42-.53-4.82-1.16-7.22-1.76-.35-.08-.71-.31-1-.26-1.62.27-2.29-.73-3-1.91-1.52-2.34-3.22-4.56-4.84-6.82-1.07-1.5-2.14-3-3.22-4.47a4.28,4.28,0,0,0-1.33-1.27c-.09,3.09-.08,6.18-.3,9.25a66.41,66.41,0,0,1-1,7.43c-.06.31-1.14.66-1.68.58-1.22-.18-2.39-.67-3.59-1-1.78-.43-3.57-.88-5.38-1.16-1.35-.2-1.87-.52-2-1.92s-.16-2.62-.18-3.93c0-1.83,0-3.66-.06-5.49-.17-4.45-.46-8.9-.59-13.35-.11-3.9,0-7.81-.12-11.71-.2-7.38-.61-14.75-.69-22.13-.06-5.73.21-11.47.43-17.2a7,7,0,0,1,.85-2.83,1.69,1.69,0,0,1,1.43-.67c1.42.27,2.78.83,4.2,1.1a36.21,36.21,0,0,0,4.16.44c1.63.13,2.05.46,2.13,2.08.12,2.7.15,5.4.28,8.1.16,3.13.41,6.25.58,9.38.15,2.9.24,5.8.38,8.7C858.49,88.46,858.63,89.91,858.75,91.54Z"/><path class="cls-1" d="M664.42,111.45a35.91,35.91,0,0,1-2.66,11A66.21,66.21,0,0,1,658,130c-2,3.67-5.41,6-9,7.75a9.63,9.63,0,0,1-7.13.2,52.77,52.77,0,0,0-8.23-2c-4.27-.57-7.37-2.78-10-6a21.18,21.18,0,0,1-3.66-7.32c-2.4-7.85-1.09-15.4,1.87-22.83a24.6,24.6,0,0,1,4.67-8c2.33-2.48,5-3.54,8.42-2.54a41.26,41.26,0,0,0,4.89,1.14,17.17,17.17,0,0,0,2.67-.1,5.52,5.52,0,0,1,1.87.22,26.09,26.09,0,0,0,8.79,1.56,4.44,4.44,0,0,1,4.12,2.17,14.19,14.19,0,0,0,2.41,2.28,9.55,9.55,0,0,1,2.39,4.59c.3,1.15.83,2.23,1.08,3.38C663.64,106.83,664,109.14,664.42,111.45Zm-25.68,18.63a18.9,18.9,0,0,0,7-7.08,22.56,22.56,0,0,0,3.64-10,33.58,33.58,0,0,0-.29-7,17.85,17.85,0,0,0-2.93-7.76,3.56,3.56,0,0,0-1.7-1.12c-1.05-.37-2.24-.4-3.23-.86a2.4,2.4,0,0,0-3.08.72,15,15,0,0,0-3.69,7.29c-1.44,6.53-1.82,13.14.78,19.52A58.35,58.35,0,0,0,638.74,130.08Z"/><path class="cls-1" d="M749,103.59c1.15.09,2.21.2,3.26.24,1.86.08,2.27.45,2.28,2.28,0,5.54-.16,11.09.07,16.62a31.82,31.82,0,0,0,1.5,7.81c.75,2.5,2.85,3.63,5.38,3.91,1.93.22,1.93.21,1.47,2.05-.51,2-1,2.34-3.05,1.87-3.33-.78-6.7-1.46-10-2.42a58,58,0,0,1-6.15-2.54c-1.14.73-2.45,1.69-3.88,2.44a11.43,11.43,0,0,1-8.69.68c-2.76-.76-5.55-1.42-8.36-1.92-5.43-1-8.74-5.39-9.11-10.54a29.94,29.94,0,0,1,3.53-15.92,23.66,23.66,0,0,1,6.09-7.73c4.08-3.3,8.66-3.41,13.51-2.24,2.35.57,4.77.85,7.15,1.35a22.27,22.27,0,0,1,3.86,1.15C749.13,101.21,749.38,102,749,103.59Zm-8.24.09c-6.19,1.7-9.14,6.19-11.35,11.32-2,4.6-2.39,9.27,0,14.16a30.83,30.83,0,0,0,2.56-2.32,29,29,0,0,0,5.56-9.25C739.1,113.18,739.75,108.6,740.76,103.68Z"/><path class="cls-1" d="M815.32,126c.46-8,.77-15.06,2.39-22,.51-2.17,1.19-4.3,1.85-6.44.32-1,1.12-1.35,2.32-.94a28.67,28.67,0,0,0,8.64,1.63c1.45,0,2,.55,1.84,2-.2,2.3-.59,4.58-.86,6.88-.41,3.44-.93,6.88-1.14,10.33a98.39,98.39,0,0,0-.16,10.86c.16,3.43.34,3.44,3.71,4a22.75,22.75,0,0,0,2.62.17c1.28.05,1.64.53,1.3,1.74-.09.34,0,.74-.09,1.06s-.35,1.1-.71,1.27a40.61,40.61,0,0,1-4.86,1.93,4.49,4.49,0,0,1-2.23-.14c-3-.67-5.91-1.63-8.92-2.07a5.39,5.39,0,0,1-4.77-4.5A54.5,54.5,0,0,1,815.32,126Z"/><path class="cls-1" d="M817.94,80a12.53,12.53,0,0,1,.35-1.42c.39-1.13,1-1.35,2.26-1.08a14.55,14.55,0,0,0,2.39.15,2.93,2.93,0,0,1,1,.09,22.33,22.33,0,0,0,8,1.66c.79.07,2-.36,2.14.69a7.36,7.36,0,0,1-.87,3.08c-.2.52-.71.91-.93,1.43-.61,1.46-1.39,1.7-2.91,1.27-2.69-.77-5.42-1.45-8.17-2A3.75,3.75,0,0,1,817.94,80Z"/><path class="cls-1" d="M151.91,138.56a42.48,42.48,0,0,1-10.49-1.85c-2.49-.73-5.08-1.12-7.63-1.62a18.14,18.14,0,0,1-10.16-5.31,13.42,13.42,0,0,1-1.87-3.06c-.85-1.64-1.63-3.32-2.39-5-.5-1.09-1-2.21-1.37-3.34a4,4,0,0,1-.2-1.58c.1-1.92.81-2.41,2.61-1.8,1.13.38,2.22.87,3.35,1.24a6.91,6.91,0,0,0,1.75.25,9.05,9.05,0,0,0,1.88-.12c1.58-.26,2.23.68,3,1.89,2.58,4.26,5,8.67,9,11.83a4.25,4.25,0,0,0,4,1,18.81,18.81,0,0,0,7.82-4,6.23,6.23,0,0,0,1.08-1.67c3.14-5.43,2-10.44-1.61-15.12-1.49-1.9-3.13-3.7-4.75-5.51a29.67,29.67,0,0,0-3.08-3.16c-2.15-1.8-4.42-3.46-6.61-5.22-.83-.67-1.54-1.47-2.34-2.19a28.12,28.12,0,0,1-2.65-2.33A15.33,15.33,0,0,1,127.78,78,26.69,26.69,0,0,1,132,68.38a14.5,14.5,0,0,1,5.13-4.5,9.22,9.22,0,0,1,5.82-1.27c1.29.19,2.53.71,3.82.94,1.89.34,3.83.45,5.71.85a22.28,22.28,0,0,1,5,1.53,47.57,47.57,0,0,1,5.69,3.41c1.4.93,1.57,3.53.46,4.77-.55.61-1.15.36-1.78.2-2.33-.57-4.68-1.1-7-1.72a5.58,5.58,0,0,1-1.44-.88c-1.22-.78-2.39-1.65-3.66-2.31-.3-.16-1,.23-1.42.54a15.93,15.93,0,0,0-6.37,12.2,11.85,11.85,0,0,0,2.33,7c1.94,3,4.95,4.78,7.7,6.88,3,2.32,6.07,4.65,8.88,7.23a39.18,39.18,0,0,1,8,9.72,14.41,14.41,0,0,1,1.78,8.67,24,24,0,0,1-2.35,8.52,12.29,12.29,0,0,1-6,5.78,24.58,24.58,0,0,1-6.5,2.25C154.28,138.39,152.89,138.47,151.91,138.56Z"/><path class="cls-1" d="M183.88,96.71c-5.08-1-10-2.08-14.88-3.08-.9-.19-1.6-.44-1.51-1.6.13-1.53.56-2.22,1.76-2.23,3.91,0,7.83,0,11.74,0a24.75,24.75,0,0,0,3.34-.12c.32,0,.74-.61.83-1,.59-2.72,1-5.5,1.69-8.18,1.33-4.83,2.86-9.61,4.3-14.41.68-2.25,1.38-4.5,2-6.76.56-2,.9-2.11,2.85-1.58,2.41.65,4.8,1.46,7.37,1.36,1.76-.08,2.32.47,2.06,2.23-.67,4.49-1.39,9-2.28,13.43s-2,8.78-3,13.17a4.07,4.07,0,0,0,0,.72,13,13,0,0,0,1.87,0c1.82-.3,3.54.24,5.3.5,3.08.45,6.17.88,9.27,1.21,2,.21,2.22.39,1.92,2.3-.33,2.07-1,2.7-3.22,2.84-5.21.35-10.42.7-15.63,1-.83.05-1.1.34-1.19,1.09-.4,3.44-.86,6.87-1.25,10.3-.46,4-1,8.06-1.25,12.1a23.22,23.22,0,0,0,1.29,10.41c.13.3.93.66,1.15.53a7.41,7.41,0,0,0,2-1.63,2.16,2.16,0,0,1,2.75-.76,52.39,52.39,0,0,0,5.57,1.15c1.08.18,2.19.17,3.28.33s1.28.79,1.14,1.75c-.42,2.9-1.77,4.86-4.8,5.7-3.27.9-6.48,1.58-9.86.68-2.58-.69-5.18-1.29-7.77-1.95a23.61,23.61,0,0,1-4.45-1.24c-2.63-1.25-3.66-3.75-4.21-6.43-1-5.18-.65-10.39-.21-15.6.27-3.18.65-6.36,1-9.54C183.18,101.11,183.56,98.85,183.88,96.71Z"/><path class="cls-1" d="M390.84,130.32c0-4.1,0-8.21,0-12.32,0-4.6-.32-9.21-.19-13.81.14-5.41.59-10.82.95-16.22a29.89,29.89,0,0,1,.48-3.77c.24-1.21.88-1.51,2-1.09a28.23,28.23,0,0,0,8.28,1.57c1.62.09,2.1.38,2.33,1.94a45.32,45.32,0,0,1,.39,4.65c.05,1,.24,1.32,1.45,1.26a73.12,73.12,0,0,1,7.54.23c1.23,0,2.46.25,3.7.24,3.16,0,6,1.42,9.11,1.76,1.19.13,2.38.21,3.57.3s1.66.64,1.38,1.89c-.48,2.14-.72,2.24-2.88,2.18-4.82-.13-9.65-.26-14.47-.2a6.33,6.33,0,0,0-4.52,1.76c-1.32,1.3-2.76,2.48-4.12,3.74a1.46,1.46,0,0,0-.51.77c-.18,1.42-.33,2.85-.41,4.28-.19,3.77-.35,7.54-.5,11.31-.11,2.62-.16,5.24-.3,7.85-.16,2.86-.33,5.72-.66,8.55-.15,1.35-.84,1.62-2.16,1.17-1.68-.57-3.32-1.27-5-1.71a26,26,0,0,0-4.06-.47,1.4,1.4,0,0,1-1.43-1.67c0-1.39,0-2.79,0-4.19Z"/><path class="cls-1" d="M308.87,91.5c1.29-1,2.43-1.84,3.54-2.74A15.09,15.09,0,0,1,319,85.57a10,10,0,0,1,3.41.08c2.94.49,5.83,1.28,8.78,1.6,4.08.45,6.25,3,7.28,6.8,1.25,4.55.82,9.16.77,13.76,0,1.6-.36,3.2-.45,4.81,0,.78.28,1.57.27,2.35-.08,5.74-.15,11.47-.34,17.21a50.05,50.05,0,0,1-.78,5.55c-.12.81-.67,1-1.34.75-1.64-.48-3.25-1.06-4.91-1.49a31.67,31.67,0,0,0-3.4-.53c-1.86-.26-2.12-.63-2.09-2.48.06-3.55,0-7.1.07-10.64,0-1.39.16-2.78.13-4.17-.08-4.22-.14-8.45-.37-12.66-.19-3.49-.59-7-.92-10.45a14.2,14.2,0,0,0-.35-1.53l-1.56,1.23a46.23,46.23,0,0,0-11.86,13.29,13.24,13.24,0,0,0-1.78,7.19c.24,5.62.24,11.25.27,16.88a6.76,6.76,0,0,1-.62,2.64,1.55,1.55,0,0,1-2,.83c-3.2-.8-6.42-1.54-9.65-2.26a1.62,1.62,0,0,1-1.41-1.77c0-1.47-.05-2.93-.11-4.39-.27-6.34-.57-12.67-.8-19-.16-4.23-.31-8.46-.27-12.69a84.29,84.29,0,0,1,.62-9.4c.29-2.31,1.17-2.61,3.45-2,2.46.68,4.85,1.87,7.55,1.28.85-.19,1.36.34,1.52,1.16C308.36,88.81,308.6,90.09,308.87,91.5Z"/><path class="cls-1" d="M360.19,123.14a20.28,20.28,0,0,0,4.67,7.67,1.53,1.53,0,0,0,1.25.26c2.31-.74,4.58-1.61,6.91-2.32a3.72,3.72,0,0,1,1.76.27,17,17,0,0,0,2.2.7c2,.24,4.11.39,6.17.52,1.6.11,1.85.58,1.52,2.12-.4,1.91-1.73,2.77-3.31,3.44-3.24,1.38-6.52,2.68-10.07,2.76a19.14,19.14,0,0,1-4.45-.77c-2.68-.59-5.34-1.33-8-1.81a16,16,0,0,1-12.32-9.15,29.74,29.74,0,0,1-3-14.24,36.21,36.21,0,0,1,1.65-9,31.24,31.24,0,0,1,5.72-10.81,20,20,0,0,1,9.1-6.34,7.35,7.35,0,0,1,4.94.07,28.61,28.61,0,0,0,8.66,1.59c2.44,0,4.83,3.07,5.26,4.8a22.16,22.16,0,0,1-1.23,14.17,27.2,27.2,0,0,1-7.77,10.6,66.73,66.73,0,0,1-6.6,4.69A10.84,10.84,0,0,1,360.19,123.14Zm-2-12.12c5.49-4.15,9.37-10.29,8.43-16.57C362.89,95.78,357.78,105.76,358.18,111Z"/><path class="cls-1" d="M235.34,123.14a20.28,20.28,0,0,0,4.67,7.67,1.53,1.53,0,0,0,1.25.26c2.31-.74,4.58-1.61,6.91-2.32a3.74,3.74,0,0,1,1.76.27,17,17,0,0,0,2.2.7c2.05.24,4.11.39,6.17.52,1.6.11,1.85.58,1.52,2.12-.4,1.91-1.73,2.77-3.31,3.44-3.24,1.38-6.52,2.68-10.08,2.76a19.15,19.15,0,0,1-4.44-.77c-2.69-.59-5.34-1.33-8-1.81a16,16,0,0,1-12.32-9.15,29.74,29.74,0,0,1-3-14.24,36.21,36.21,0,0,1,1.65-9A31.38,31.38,0,0,1,226,92.76a20.12,20.12,0,0,1,9.11-6.34,7.35,7.35,0,0,1,4.94.07,28.55,28.55,0,0,0,8.66,1.59c2.44,0,4.83,3.07,5.26,4.8a22.16,22.16,0,0,1-1.23,14.17,27.3,27.3,0,0,1-7.77,10.6,66.73,66.73,0,0,1-6.6,4.69A10.84,10.84,0,0,1,235.34,123.14Zm-2-12.12c5.49-4.15,9.37-10.29,8.42-16.57C238,95.78,232.92,105.76,233.33,111Z"/><path class="cls-1" d="M267,126c.46-8,.76-15.06,2.38-22,.51-2.17,1.19-4.3,1.85-6.44.33-1,1.13-1.35,2.33-.94a28.55,28.55,0,0,0,8.64,1.63c1.44,0,2,.55,1.84,2-.2,2.3-.59,4.58-.87,6.88-.41,3.44-.92,6.88-1.14,10.33a103.56,103.56,0,0,0-.16,10.86c.16,3.43.35,3.44,3.72,4a22.72,22.72,0,0,0,2.61.17c1.28.05,1.64.53,1.31,1.74-.1.34,0,.74-.1,1.06s-.35,1.1-.71,1.27a40.61,40.61,0,0,1-4.86,1.93,4.45,4.45,0,0,1-2.22-.14c-3-.67-5.92-1.63-8.93-2.07a5.4,5.4,0,0,1-4.77-4.5A54.07,54.07,0,0,1,267,126Z"/><path class="cls-1" d="M269.65,80c.09-.35.17-.9.35-1.42.39-1.13,1-1.35,2.27-1.08a14.49,14.49,0,0,0,2.38.15,3,3,0,0,1,1.05.09,22.32,22.32,0,0,0,8,1.66c.8.07,2-.36,2.14.69a7.22,7.22,0,0,1-.87,3.08c-.19.52-.71.91-.92,1.43-.62,1.46-1.39,1.7-2.91,1.27-2.7-.77-5.43-1.45-8.18-2A3.76,3.76,0,0,1,269.65,80Z"/></g></svg>