<svg xmlns="http://www.w3.org/2000/svg" viewBox="0 0 1000 202.41"><defs><style>.cls-1{fill:#8872a4;}</style></defs><g id="Layer_16_Image" data-name="Layer 16 Image"><path class="cls-1" d="M599.53,53.69c-.27-.14-.44-.24-.62-.32-1-.45-2-.8-1.63-2.67.45-2.19,1-2.89,2.62-3,.43,0,.86-.32,1.3-.36a6.1,6.1,0,0,1,1.81,0c2.87.59,5.73,1.23,8.59,1.86.45.1,1.07.08,1.32.44,1.28,1.81,3.11,1.57,4.72,2,5.2,1.47,10.34,3.21,14.9,6.75a30.26,30.26,0,0,1,7.31,7.4A42.4,42.4,0,0,1,644.62,75a44.61,44.61,0,0,1,2.51,11.74,71.36,71.36,0,0,1-1.16,19,61,61,0,0,1-8.84,21.15c-1.42,2.21-2.69,4.58-4.1,6.81a40.88,40.88,0,0,1-10.66,11.49c-2.9,2.07-5.8,4.31-9.23,5a4.47,4.47,0,0,1-3.62-.48,7.12,7.12,0,0,0-2.33-.73c-1.86-.47-3.73-.89-5.6-1.34a14.64,14.64,0,0,1-2.16-.58,12,12,0,0,1-1.54-1,3.22,3.22,0,0,0-1.12-.57,3.55,3.55,0,0,1-3-3.57c-.07-3.69,0-7.39.19-11.08.34-6.79.79-13.58,1.21-20.37.26-4.21.56-8.41.78-12.62s.26-8.25.57-12.35c.47-6.16,1.1-12.31,1.68-18.47C598.63,62.59,599.08,58.2,599.53,53.69Zm13,75.8c.92-1.23,1.71-2.21,2.43-3.28,1.87-2.8,3.81-5.55,5.54-8.48,1.2-2,2.11-4.35,3.13-6.55a44.63,44.63,0,0,0,3.79-10.61,57.18,57.18,0,0,0-.53-22.35,23.33,23.33,0,0,0-1.36-3.47A29.07,29.07,0,0,0,616,61.34a5.52,5.52,0,0,0-.62-.38C614.43,83.75,613.47,106.46,612.5,129.49Z"/><path class="cls-1" d="M774.13,142.07c0-4.11,0-8.22,0-12.33,0-4.6-.32-9.21-.19-13.81.14-5.41.59-10.81,1-16.22a30.15,30.15,0,0,1,.49-3.77c.23-1.21.87-1.5,2-1.08a28.48,28.48,0,0,0,8.28,1.56c1.61.1,2.09.38,2.32,1.94a42.67,42.67,0,0,1,.39,4.65c0,1,.24,1.33,1.46,1.26a72.93,72.93,0,0,1,7.53.23c1.23.06,2.47.25,3.7.24,3.16,0,6,1.42,9.11,1.76,1.19.13,2.38.21,3.57.31s1.66.63,1.38,1.88c-.47,2.15-.72,2.24-2.88,2.18-4.82-.13-9.64-.26-14.46-.2a6.39,6.39,0,0,0-4.53,1.76c-1.32,1.31-2.75,2.49-4.12,3.74a1.5,1.5,0,0,0-.51.78c-.17,1.42-.33,2.84-.4,4.27-.2,3.77-.36,7.54-.51,11.31-.11,2.62-.15,5.24-.3,7.86-.16,2.85-.33,5.71-.65,8.55-.16,1.34-.85,1.61-2.17,1.17-1.68-.58-3.32-1.28-5-1.71a24.87,24.87,0,0,0-4.06-.48,1.39,1.39,0,0,1-1.43-1.66c0-1.4,0-2.8,0-4.19Z"/><path class="cls-1" d="M695.3,103.25c1.3-1,2.44-1.85,3.54-2.74a15,15,0,0,1,6.59-3.19,9.49,9.49,0,0,1,3.4.08c2.94.48,5.84,1.27,8.79,1.59,4.07.45,6.25,3,7.28,6.8,1.24,4.55.82,9.16.77,13.76,0,1.6-.37,3.2-.45,4.81,0,.78.28,1.57.27,2.35-.08,5.74-.15,11.48-.35,17.21a48,48,0,0,1-.78,5.56c-.12.8-.67.94-1.33.75-1.64-.49-3.25-1.07-4.91-1.5a32.47,32.47,0,0,0-3.4-.53c-1.87-.26-2.12-.63-2.09-2.48.06-3.54,0-7.09.07-10.64,0-1.39.16-2.78.13-4.17-.09-4.22-.15-8.44-.37-12.66-.19-3.49-.6-7-.92-10.44a13.76,13.76,0,0,0-.35-1.54l-1.56,1.23a46.08,46.08,0,0,0-11.86,13.29A13.16,13.16,0,0,0,696,128c.23,5.62.24,11.25.26,16.88a6.62,6.62,0,0,1-.61,2.65,1.57,1.57,0,0,1-2,.83c-3.21-.81-6.43-1.55-9.65-2.27a1.62,1.62,0,0,1-1.42-1.77c0-1.46-.05-2.93-.11-4.39-.26-6.34-.57-12.67-.8-19-.15-4.23-.31-8.47-.26-12.7a84.45,84.45,0,0,1,.62-9.4c.29-2.31,1.17-2.6,3.45-2,2.46.68,4.85,1.86,7.55,1.27.85-.19,1.35.34,1.52,1.16C694.8,100.55,695,101.84,695.3,103.25Z"/><path class="cls-1" d="M745.88,134.88a20.2,20.2,0,0,0,4.67,7.67,1.5,1.5,0,0,0,1.25.26c2.31-.74,4.58-1.6,6.91-2.31a3.61,3.61,0,0,1,1.76.26,17,17,0,0,0,2.2.7c2.05.24,4.11.39,6.17.53,1.6.1,1.85.57,1.52,2.11-.4,1.91-1.73,2.77-3.31,3.45-3.24,1.37-6.52,2.67-10.08,2.75a19.15,19.15,0,0,1-4.44-.77c-2.69-.58-5.34-1.33-8-1.81a16,16,0,0,1-12.32-9.14,29.78,29.78,0,0,1-3-14.25,36.29,36.29,0,0,1,1.65-9,31.38,31.38,0,0,1,5.71-10.81,20.12,20.12,0,0,1,9.11-6.34,7.41,7.41,0,0,1,4.94.07,28.55,28.55,0,0,0,8.66,1.59c2.44.05,4.83,3.08,5.26,4.8a22.16,22.16,0,0,1-1.23,14.17,27.3,27.3,0,0,1-7.77,10.6,66.73,66.73,0,0,1-6.6,4.69A10.51,10.51,0,0,1,745.88,134.88Zm-2-12.11c5.49-4.16,9.37-10.3,8.42-16.58C748.58,107.52,743.46,117.5,743.87,122.77Z"/><path class="cls-1" d="M653,137.72c.46-8,.77-15.07,2.39-22,.51-2.17,1.18-4.3,1.84-6.43.33-1.06,1.13-1.35,2.33-.94A28.91,28.91,0,0,0,668.2,110c1.45,0,2,.55,1.84,2-.2,2.3-.59,4.59-.87,6.88-.4,3.44-.92,6.88-1.13,10.33a98.39,98.39,0,0,0-.16,10.86c.16,3.43.34,3.44,3.71,3.95a22.73,22.73,0,0,0,2.61.18c1.29,0,1.64.53,1.31,1.73-.1.34,0,.74-.09,1.06s-.35,1.1-.72,1.27a37,37,0,0,1-4.86,1.93,4.57,4.57,0,0,1-2.22-.13c-3-.68-5.91-1.64-8.92-2.08a5.39,5.39,0,0,1-4.77-4.5A54,54,0,0,1,653,137.72Z"/><path class="cls-1" d="M655.62,91.72a12.32,12.32,0,0,1,.34-1.43c.39-1.13,1-1.35,2.27-1.07a14.55,14.55,0,0,0,2.39.14,2.93,2.93,0,0,1,1,.09,22.56,22.56,0,0,0,8,1.67c.79.06,2-.36,2.14.68a7.6,7.6,0,0,1-.87,3.09c-.2.51-.72.91-.93,1.42-.61,1.47-1.39,1.71-2.91,1.27-2.69-.77-5.42-1.45-8.17-2A3.75,3.75,0,0,1,655.62,91.72Z"/><path class="cls-1" d="M229.07,100.86c-2,.34-3.9.59-5.76,1-3.51.79-7,1.68-10.49,2.5-2.43.57-4.86,1.15-7.31,1.62-.92.18-1.11.61-1.14,1.46-.19,6.1-.36,12.19-.67,18.28-.27,5.32-.62,10.64-1.11,15.94a27.75,27.75,0,0,1-1.32,5.56c-.41,1.32-1.31,1.65-2.63,1.25-1.78-.55-3.57-1.07-5.34-1.66-.38-.12-.64-.63-1-.71-.78-.19-1.61-.14-2.4-.31-1.63-.34-3.27-.7-4.86-1.2-.2-.06-.24-1-.21-1.46.14-2.26.35-4.52.5-6.79.39-6,.78-12,1.12-18.06.18-3.16.24-6.32.36-9.48,0-1,.11-2.08.07-3.12a1.64,1.64,0,0,0-1-1.67c-1.05-.52-.8-3,.14-3.74a1.81,1.81,0,0,0,.71-1.19c0-4.34-.14-8.69-.17-13,0-3.51.07-7,.09-10.52s-.07-6.82.06-10.22c.18-4.44.45-8.88.85-13.31.13-1.46.68-1.54,2.13-1.1,1.81.54,3.66,1,5.49,1.41a2.48,2.48,0,0,1,.7.18,3.94,3.94,0,0,0,3.84.35c1-.4,1.91.46,2.19,1.43a36.26,36.26,0,0,1,1.18,5.43c.55,4.43,1.06,8.87,1.38,13.32a108.56,108.56,0,0,1,.5,14.07c-.15,2.71.26,5.34.06,7.93l24-4.74c0-2.42-.05-5.23,0-8,.09-4.17.31-8.35.4-12.52.11-4.6.1-9.2.21-13.8.06-2.45.24-4.89.46-7.32.13-1.38.84-1.86,2.36-1.56,3.25.65,6.54,1.09,9.82,1.53A3,3,0,0,1,245,51.3a109.28,109.28,0,0,1,1.78,12.81c.4,9.74.47,19.5.55,29.25.05,6.29-.17,12.58-.2,18.87,0,5.27.14,10.55,0,15.82s-.47,10.34-.91,15.5a26.16,26.16,0,0,1-1.35,5.27c-.45,1.43-1.56,1.7-2.9,1.34-3.42-.92-6.82-1.87-10.25-2.75a19.5,19.5,0,0,0-2.55-.27c-1.23-.15-1.72-.82-1.63-2.08.26-3.87.5-7.75.68-11.63q.34-7.6.57-15.22c.16-5.53.25-11,.37-16.57C229.14,101.45,229.1,101.26,229.07,100.86Z"/><path class="cls-1" d="M406.8,119.89c1-4.32,1.73-8.25,2.75-12.12C411.62,99.89,413.8,92,416,84.19c.77-2.81,1.66-5.58,2.48-8.37a43.48,43.48,0,0,1,4.71-10.34c1-1.64,1.52-3.57,2.48-5.24a28.53,28.53,0,0,1,3.27-4.59c.7-.8,1.41-.6,2.55.2l-.69.44c.07,0,.13.13.2.13a26.51,26.51,0,0,1,3.79.2,13.42,13.42,0,0,1,2.73,1.2,2.33,2.33,0,0,0,.88.22c1,0,2.08-.16,3.1-.09,2.24.16,3.11,1.62,2.49,3.78-1.26,4.4-2.39,8.83-3.67,13.22-1.08,3.75-2.34,7.44-3.42,11.19-.83,2.87-1.51,5.79-2.24,8.69-1.44,5.67-2.95,11.33-4.29,17-1.06,4.5-1.88,9.05-2.88,13.57-1.44,6.46-2.9,12.92-4.46,19.36a18.05,18.05,0,0,1-1.74,4.17c-.7,1.32-2.49,1.71-4.36,1a67.87,67.87,0,0,0-14.86-3.41,6.15,6.15,0,0,1-4.34-3c-2.11-3.22-4.07-6.56-5.89-10s-3.51-7.1-5.39-11c-1.06,2.82-2,5.4-3,7.93s-2.2,5.18-3.39,7.72c-1.38,2.93-2.79,5.85-4.32,8.7a6.68,6.68,0,0,1-2.12,2.24,2.45,2.45,0,0,1-2.13.27c-3.14-1.81-6.74-1.67-10.09-2.55-1.74-.46-3.55-.71-5.33-1a3.76,3.76,0,0,1-3.17-2.38c-1-2.54-2-5.07-2.7-7.68-1.35-4.86-2.61-9.75-3.73-14.67-1.39-6.14-2.57-12.33-3.91-18.48s-2.88-12.54-4.25-18.83C336.62,76.28,335,68.67,333.5,61a8.8,8.8,0,0,1,.48-4.1c.31-1,1.12-1.25,2.38-.84a36.72,36.72,0,0,0,6.37,1.2c1.27.17,2.64-.09,3.84.27a4.17,4.17,0,0,1,2.32,1.9c1.3,2.64,2.44,5.38,3.47,8.13,1.23,3.25,2.37,6.53,3.39,9.84,1.37,4.45,2.65,8.94,3.86,13.43,1.41,5.25,2.71,10.53,4.05,15.8,1,3.77,1.93,7.55,3,11.68,1.39-3.09,2.55-5.91,3.92-8.62s2.93-5.46,4.54-8.11a3.27,3.27,0,0,1,4.26-1.39,45.85,45.85,0,0,0,14.15,2.7c2.36,0,3.92,1.57,5.19,3.21a48.85,48.85,0,0,1,3.5,5.72C403.7,114.4,405.14,117,406.8,119.89Z"/><path class="cls-1" d="M308.66,106c1.52-.41,3-.88,4.57-1.21a8.24,8.24,0,0,1,5.43,1.07,45.67,45.67,0,0,0,5.33,2c.19.07.39,0,.57.13,1.17.5,1.26.8,1,3.14s-.59,2.82-2.28,3c-1.09.08-2.19.27-3.28.35-1.48.12-3,.13-4.45.28s-2.86.48-4.29.58a6.33,6.33,0,0,1-2.65-.3,23.11,23.11,0,0,1-2.42-1.48,4.93,4.93,0,0,0-1.75-.51c-1.06-.13-1.28-.35-1.36-1.64-.12-1.83.33-3.54,1.09-4a13.87,13.87,0,0,1,2.22-1.16,16.55,16.55,0,0,1,2.28-.49Z"/><path class="cls-1" d="M519.46,151.38c-1.29,1-2.29,1.82-3.38,2.53-2.25,1.47-4.71,1.4-7.21.79-1.89-.45-3.78-1-5.69-1.36-4.6-.89-7.52-3.7-9.45-7.83-2-4.33-1.86-8.94-1.76-13.49a108.68,108.68,0,0,1,1-11.67c.33-2.52,1.09-5,1.62-7.47.19-.86.21-1.75.45-2.58.46-1.59.71-1.59,2.28-1.3,2.22.41,4.48.67,6.74.92.71.08,1.2.28,1.19,1s-.09,1.48-.17,2.21c-.43,3.7-1.06,7.39-1.26,11.1-.23,4.39-.27,8.81-.08,13.21a22.89,22.89,0,0,0,2.14,9.71c.37.71.84,1.36,1.42,2.29,1.28-1.15,2.49-2.08,3.52-3.18A32.92,32.92,0,0,0,518,133.13a58.88,58.88,0,0,0,2.44-13.7c.16-2.74.17-5.49.33-8.23a4,4,0,0,1,.67-1.87,1.24,1.24,0,0,1,1.19-.16c.83.72,1.8.57,2.74.71s1.62.35,2.44.52a5,5,0,0,0,1.37.2,1.57,1.57,0,0,1,1.95,1.56c.05,1.58,0,3.15,0,4.73.05,2.37.17,4.75.2,7.12s0,4.7-.07,7c0,2.94,0,5.87-.08,8.81,0,2.53-.11,5.07-.13,7.61q0,6.11,0,12.22c0,2.12.15,4.25.08,6.37a58.53,58.53,0,0,1-2.95,17.9c-.94,2.66-1.84,5.36-3.71,7.55s-4.22,4.31-7.42,4.48a16.51,16.51,0,0,1-4.14-.64c-1.94-.39-3.85-1-5.8-1.28-3.64-.6-6.76-2.08-8.62-5.35a45.65,45.65,0,0,1-2.62-6.32c-.52-1.34-1-2.71-1.42-4.07a6.66,6.66,0,0,1,.07-4.85,1.08,1.08,0,0,1,1.6-.7,23.36,23.36,0,0,0,7.41,1.47c1.39,0,1.44.33,1.76,1.74a45.8,45.8,0,0,0,2,6.56c.86,2.22,2,4.33,3,6.48.34.7.76.71,1.35.22a14.76,14.76,0,0,0,4.2-6.1,50.72,50.72,0,0,0,3.18-16.6c.19-3.7.27-7.41.38-11.11C519.49,154.15,519.46,152.85,519.46,151.38Z"/><path class="cls-1" d="M471.51,115.34c1.16.08,2.21.19,3.26.24,1.86.07,2.28.44,2.28,2.28,0,5.53-.15,11.08.07,16.61a31.75,31.75,0,0,0,1.51,7.81c.75,2.5,2.84,3.63,5.38,3.92,1.92.21,1.93.2,1.46,2-.51,2-1,2.35-3,1.87-3.34-.77-6.71-1.46-10-2.42a58,58,0,0,1-6.15-2.54c-1.14.73-2.45,1.7-3.88,2.44a11.43,11.43,0,0,1-8.69.68c-2.75-.76-5.54-1.42-8.36-1.92-5.43-1-8.73-5.39-9.1-10.54a29.79,29.79,0,0,1,3.53-15.91,23.56,23.56,0,0,1,6.08-7.74c4.08-3.29,8.67-3.4,13.51-2.24,2.36.57,4.78.85,7.15,1.36a20.65,20.65,0,0,1,3.86,1.15C471.64,113,471.89,113.7,471.51,115.34Zm-8.24.08c-6.19,1.71-9.14,6.19-11.34,11.33-2,4.59-2.4,9.26-.06,14.15a30.83,30.83,0,0,0,2.56-2.32,28.86,28.86,0,0,0,5.56-9.24C461.61,124.92,462.26,120.34,463.27,115.42Z"/><path class="cls-1" d="M266.85,137.72c.47-8,.77-15.07,2.39-22,.51-2.17,1.19-4.3,1.85-6.43.33-1.06,1.13-1.35,2.33-.94a28.84,28.84,0,0,0,8.63,1.62c1.45,0,2,.55,1.85,2-.2,2.3-.6,4.59-.87,6.88-.41,3.44-.92,6.88-1.14,10.33a98.39,98.39,0,0,0-.16,10.86c.16,3.43.34,3.44,3.71,3.95a22.75,22.75,0,0,0,2.62.18c1.28,0,1.64.53,1.3,1.73-.09.34,0,.74-.09,1.06s-.35,1.1-.71,1.27a37.51,37.51,0,0,1-4.86,1.93,4.61,4.61,0,0,1-2.23-.13c-3-.68-5.91-1.64-8.92-2.08a5.4,5.4,0,0,1-4.77-4.5A56.66,56.66,0,0,1,266.85,137.72Z"/><path class="cls-1" d="M269.47,91.72a12.63,12.63,0,0,1,.35-1.43c.39-1.13,1-1.35,2.26-1.07a14.55,14.55,0,0,0,2.39.14,3,3,0,0,1,1,.09,22.5,22.5,0,0,0,8,1.67c.8.06,2-.36,2.14.68a7.45,7.45,0,0,1-.87,3.09c-.2.51-.71.91-.93,1.42-.61,1.47-1.38,1.71-2.91,1.27-2.69-.77-5.42-1.45-8.17-2A3.75,3.75,0,0,1,269.47,91.72Z"/></g></svg>