<svg xmlns="http://www.w3.org/2000/svg" viewBox="0 0 1000 288"><defs><style>.cls-1{fill:#8872a4;}</style></defs><g id="Layer_16_Image" data-name="Layer 16 Image"><path class="cls-1" d="M579.26,120.9c.53-.61,1-1.25,1.59-1.84,4-4.33,8.17-8.58,12.13-13,3-3.33,5.8-6.83,8.65-10.29s5.67-6.93,8.48-10.43c1.39-1.72,2.68-2.83,5.27-1.84a59.6,59.6,0,0,0,9.16,2.18,12.63,12.63,0,0,0,2.54.07c2,0,2.77.67,2.25,2.63A16.33,16.33,0,0,1,627,93.94c-5.16,6.88-10.28,13.82-15.91,20.31s-11.64,12.2-17.48,18.28c-2.36,2.46-2.47,3.29-.33,6,3.76,4.79,7.75,9.39,11.43,14.23,2.58,3.4,4.83,7,7.2,10.59,3.71,5.55,7.43,11.09,11.1,16.67,1.35,2.05,2.6,4.17,3.88,6.27.47.78.28,4.66-.41,5.16a2.56,2.56,0,0,1-2,.39c-4.72-1.83-9.7-2.45-14.61-3.43a6,6,0,0,1-3.18-2.24q-4.91-6.33-9.52-12.89c-5.83-8.32-11.55-16.71-17.32-25.06a2.48,2.48,0,0,0-1.16-.93c0,2.46.09,4.92,0,7.38-.18,4-.59,8.07-.73,12.12s0,8.22-.13,12.33c-.13,5.22-.35,10.43-.61,15.65a19.63,19.63,0,0,1-.62,3.46c-.57,2.43-1.61,2.95-4.07,2.19-1.68-.53-3.38-1-5.1-1.41-2.44-.55-4.91-1-7.37-1.47-1.42-.27-2-1.21-2-2.79.12-3.45.16-6.91.26-10.37,0-1.59.21-3.19.2-4.78,0-5.92-.07-11.84-.1-17.75,0-4.2,0-8.39-.09-12.59,0-4.63-.21-9.27-.11-13.91.11-5.44.3-10.89.73-16.31.5-6.33.31-12.69,1-19,.5-4.28,1.13-8.55,2-12.77.47-2.37,1.62-2.64,3.95-2.09,3.49.83,7,1.47,10.58,2.07a1.82,1.82,0,0,1,1.75,1.9c.21,4.91.37,9.81.52,14.72.06,2.23.06,4.47.07,6.7,0,3.36,0,6.73,0,10.09Z"/><path class="cls-1" d="M670.75,141.78c0,2.41,0,4.75,0,7.08,0,2.83-.18,5.66-.23,8.48,0,1.92.1,3.84,0,5.76-.13,3.57-.49,7.14-.48,10.71,0,3.82.49,7.64.47,11.46a37.94,37.94,0,0,1-2.8,14.94l-2.06-1.57c-1.42.88-2.54-.24-3.78-1.19-1.15,1.27-2.17.24-3.26-.17-.59-.22-1.22-.33-1.83-.49a22.43,22.43,0,0,0-2.62-.68c-1.16-.14-2.35-.09-3.52-.18-2.1-.16-3-1-3.25-3.12-.06-.51-.06-1-.09-1.64-.21-.09-.75-.15-.88-.42-1.64-3.46-3.26-6.92-2.46-10.95a11.4,11.4,0,0,0,.1-2.55c-.17-5.74-.62-11.49-.49-17.22.18-7.6.76-15.2,1.24-22.8.34-5.46.77-10.91,1.21-16.37.32-3.87.77-7.74,1.1-11.61.52-6.15.91-12.31,1.54-18.45a36.59,36.59,0,0,1,1.56-6.16c.26-.9.91-1.18,1.89-.84a26.26,26.26,0,0,0,4.16,1.09,9.22,9.22,0,0,0,3-.07,78.81,78.81,0,0,1,25.23-.29c2.53.38,5.1.56,7.62,1,3.24.62,6.42,1.54,9.66,2.17,2.14.41,4.34.54,6.51.83a8.88,8.88,0,0,1,2.19.45c1,.41,1.83,1.21,1.25,2.36-.69,1.4.3,3.94-2.5,4-3.23,0-6.47,0-9.7,0-5,0-9.92-.12-14.87,0-4.68.08-9.36.35-14.31.55.11,1.86.27,3.43.29,5,.05,6.61.05,13.22.09,19.82,0,3.68.13,7.36.11,11a1.27,1.27,0,0,0,1.28,1.47c3.44.46,6.88.9,10.32,1.34,1.31.16,2.75.09,3.21,1.79a4,4,0,0,1-3.45,5c-1.86.14-3.72.38-5.59.46S672.91,141.78,670.75,141.78Z"/><path class="cls-1" d="M738.94,155.16a131.47,131.47,0,0,0,4,28.1c.89,3.38,2,6.7,3,10a12.88,12.88,0,0,1-.64,9c-.63,1.58-1.48,1.73-3.19,1.26a99.47,99.47,0,0,0-10-2.44c-1.94-.33-3.34-1.08-4.12-2.76-1.9-4.12-3.85-8.23-5.48-12.47A115.62,115.62,0,0,1,715.94,156c-.57-5.59-.36-11.26-.69-16.88-.36-6.1.63-12.05,1.91-17.93,1.12-5.11,2.48-10.22,5.13-14.84,1.41-2.46,2.68-5,4.22-7.38a27.3,27.3,0,0,1,3.34-3.81,92,92,0,0,1,6.74-6.8c4.56-3.88,9.61-6.92,15.66-8a18.56,18.56,0,0,1,8.92.87,56.89,56.89,0,0,0,14.19,2.66,16.38,16.38,0,0,1,9.23,3.05A11,11,0,0,1,789,93.47a24.85,24.85,0,0,1-.14,12.84c-1,3.18-1.45,6.56-2.78,9.57-1.59,3.61-3.1,7.26-5.59,10.51a80.12,80.12,0,0,1-14.87,14.74c-3.46,2.67-6.85,5.43-10.4,8.25a6.12,6.12,0,0,0,.95,1c8.2,5.7,14.44,13.32,20,21.4,4.18,6,7.63,12.54,11.46,18.8,1.05,1.71,1.55,4,4.06,4.4a1.39,1.39,0,0,1,.75,1.12,17.79,17.79,0,0,1-1,4.44,2.14,2.14,0,0,1-3,1c-4.7-2.09-9.79-2.46-14.74-3.46-2.74-.55-4.38-2.58-5.92-4.66q-6.09-8.29-12.11-16.63c-2.26-3.14-4.36-6.4-6.69-9.5s-4.63-5.8-7-8.66C741.08,157.42,740,156.31,738.94,155.16Zm-.33-18.61c.36-.24.56-.33.71-.46,4.63-4.12,9.43-8.08,13.86-12.41a40.82,40.82,0,0,0,11.72-21.85c.48-2.52,1.09-5.14-.22-7.66C748.91,101.53,738.69,119.69,738.61,136.55Z"/><path class="cls-1" d="M844.36,108.26c2.15-3.38,4.1-6.79,6.39-10,2.57-3.57,5.41-7,8.19-10.37a21.44,21.44,0,0,1,3.34-3.52,6.28,6.28,0,0,1,6.16-1,45,45,0,0,0,5.93,1.14c1.81.33,3.64.57,5.41,1,.79.21,1.5.43,1.25,2-.33,2-1.49,3.18-2.39,4.7-1.93,3.21-3.76,6.47-5.56,9.75-2.5,4.55-4.92,9.13-7.41,13.68-2.34,4.28-4.66,8.57-7.12,12.78a3.29,3.29,0,0,0-.14,3.82c3.35,6,6.55,12,9.67,18.11,2.3,4.47,4.62,9,6.51,13.6,2.3,5.64,4.61,11.3,5.92,17.31.49,2.24,1.69,4.32,2.36,6.54,1,3.32,2.38,6.59,1.2,10.22-.53,1.63-1.16,2.28-2.83,1.83-3.23-.87-6.42-1.86-9.66-2.7-1.26-.33-2.6-.36-3.9-.59-2.63-.47-3.17-1.14-3.49-3.82a7.85,7.85,0,0,0-.74-2.08A130.4,130.4,0,0,0,855.06,175c-3.71-6.3-6.95-12.89-10.41-19.35-.28-.54-.63-1-1-1.7-3.4,5.77-6.64,11.35-10,16.89-1.58,2.62-3.38,5.1-4.93,7.73-2.2,3.72-4.17,7.56-6.39,11.26-2.61,4.36-5.46,8.57-8.05,12.94-1.35,2.28-3.11,1.73-5,1.29-2.88-.65-5.76-1.35-8.68-1.77-3.62-.52-3.58-1.46-3.06-4.39,1-5.94,3.59-11.39,6.46-16.68,3.08-5.7,6-11.48,9.11-17.15,3.32-6.05,6.82-12,10.2-18,2.72-4.84,5.42-9.69,8.05-14.58a2.79,2.79,0,0,0,0-2.16q-3.11-6.56-6.42-13c-1.11-2.17-2.47-4.21-3.61-6.37-2.82-5.33-5.65-10.66-8.34-16.07a65.22,65.22,0,0,1-3.84-9c-.47-1.43,0-3.19.2-4.79,0-.26.89-.69,1.28-.61,2.85.57,5.66,1.31,8.51,1.87,1.76.34,3.59.36,5.35.7s2.1,2.17,2.87,3.49c.12.2,0,.6.18.7,3.24,2.13,5.15,5.42,7.31,8.46,2.48,3.5,4.7,7.18,7.1,10.74A33.2,33.2,0,0,0,844.36,108.26Z"/><path class="cls-1" d="M292.43,151.12c2.42-2.1,4.65-4.19,7-6.08a19.05,19.05,0,0,1,13.44-4,65.84,65.84,0,0,1,14.23,2.63c2.56.73,5.4.4,8,.9,6.31,1.21,11.47,4.18,13.93,10.45A15.59,15.59,0,0,1,350,161a46.87,46.87,0,0,1-2.33,12.09,33.52,33.52,0,0,1-4.7,10,47.76,47.76,0,0,1-8.17,8.34c-5.19,4.47-11.35,6.5-17.86,7.66-3.47.61-7-.06-10.38-.93-4.42-1.12-8.84-2.29-13.32-3-5.95-1-11.24-3.24-15.36-7.66a31.69,31.69,0,0,1-7.12-13.52,44.72,44.72,0,0,1-1.5-17.15c.61-5.29.6-10.69,1.55-15.91a146,146,0,0,1,4.56-18.18,151.08,151.08,0,0,1,6.29-15.75c1.52-3.41,3.54-6.6,5.35-9.88,1.38-2.49,2.71-5,4.21-7.45,1.27-2.06,2.53-4.28,5.21-4.83a6,6,0,0,1,2.88,0,36.54,36.54,0,0,0,10.42,1.81c.77,0,2.14.67,2.17,1.11a7.12,7.12,0,0,1-.74,3.46c-.84,1.79-2.09,3.38-2.9,5.17-1.36,3-2.56,6.16-3.73,9.27-2.63,7-5.49,13.93-7.69,21.07-1.6,5.19-2.36,10.65-3.34,16C293,145.41,292.77,148.24,292.43,151.12Zm33,.4c-4.34.52-6.87,3.78-9.72,6.41a63,63,0,0,0-5.42,6.39c-4.2,5.13-8.37,10.28-12.58,15.4a1.58,1.58,0,0,0-.17,2.25c1.21,1.6,2.39,3.24,3.6,4.84a1.87,1.87,0,0,0,2.39.58c5.8-1.92,11-4.68,15.21-9.29,3.47-3.8,6.51-7.72,8-12.73C328.2,160.56,329.3,155.86,325.44,151.52Z"/><path class="cls-1" d="M397.67,180.69c2.32,0,4.71-.07,7.1,0,.53,0,1.41.61,1.48,1,.29,1.76,1.68,2.45,2.92,3.12,6.21,3.35,12.49,6.57,18.72,9.89,1.75.94,3.52.64,5.27.3a33.73,33.73,0,0,0,13.19-5.27,20.54,20.54,0,0,0,4.76-4.86,44.1,44.1,0,0,0,4.69-7.9c1.2-2.76.87-5.78.19-8.73-1.23-5.28-5-8.63-9-11.71-1-.74-2.58-.78-3.91-.83-2.54-.09-5.09.14-7.62,0a18.31,18.31,0,0,1-3-.92c-3.88-.87-7.75-1.8-11.65-2.49-4.51-.79-5-2-2.9-6,1.06-2.1,3.22-3.77,5.14-5.31a52.54,52.54,0,0,0,12.91-14.72c2.61-4.54,3.3-9.26,1-14.16-1.14-2.43-2.83-4.54-5.37-5.36-1.55-.49-3.46-.14-5.15.14a38.18,38.18,0,0,0-15.08,5.74,66.82,66.82,0,0,0-5.36,4.63,1.81,1.81,0,0,1-1.5.38,45,45,0,0,0-10.81-2.44c-1.78-.23-2.35-1.31-1.83-3.28a12,12,0,0,1,5.22-7.15,38.65,38.65,0,0,1,18.22-6.9,42.17,42.17,0,0,1,12,1.07c4.31.87,8.72,1.28,13,2.35A34.41,34.41,0,0,1,450,105c6.54,4,9.62,9,8.3,17.88a31.41,31.41,0,0,1-7.12,16.24c-2.28,2.64-4.79,5.08-7.22,7.59a11.38,11.38,0,0,1-1.39,1.07l.17.54c1.57.37,3.12.84,4.7,1.09,3.83.61,7.72.86,11.48,1.73a27.39,27.39,0,0,1,13.53,7.1c5.94,6,8.18,13.05,6,21.37a33.33,33.33,0,0,1-3,8,36.57,36.57,0,0,1-5.56,8,28,28,0,0,1-10.13,6.71,58.8,58.8,0,0,1-8.26,2.1c-7.73,1.74-15,.35-22.29-1.9a67.27,67.27,0,0,0-7.6-1.68,45.84,45.84,0,0,1-15.46-5.65c-4.68-2.81-9.5-5.38-14.17-8.19a14.55,14.55,0,0,1-3.29-3.13c-.76-.88-.08-4.9.89-5.35a3.68,3.68,0,0,1,2.16-.06,40.7,40.7,0,0,1,4.61,1.24C396.92,179.86,397.31,180.39,397.67,180.69Z"/><path class="cls-1" d="M160,186.71c.69,0,1.17,0,1.64,0,5.16-.34,10.1,1,15.08,2,2.23.45,4.52.59,6.78.87.26,0,.53,0,.79,0,3,.34,4.26,2.5,2.94,5.26a1.78,1.78,0,0,1-1.35.73c-4.18,0-8.36,0-12.54,0a78.19,78.19,0,0,0-11.37.44c-2.49.39-16.27,3.08-17.55,3.2-4.06.38-8.09,1.06-12.15,1.38a25.91,25.91,0,0,1-9.75-1.11,95.07,95.07,0,0,0-9.93-2.23c-1.3-.26-2.25-.64-2.14-2.19.13-2,.71-2.55,2.48-2.64a40.34,40.34,0,0,0,6.73-.77c2.37-.54,4.83-.67,7.23-1.09s4.84-1,7.27-1.47c1.55-.28,3.14-.42,5.11-.67,1.78-25.77,6.39-51.27,9.69-77.18a11.86,11.86,0,0,1-2.44,1.52c-1,.31-2.31.71-3.18.34-3.4-1.44-7-1.68-10.58-2.35-2.2-.41-3-1.24-2.18-3.32a16.78,16.78,0,0,1,3-4.61c1.88-2.18,4-4.18,6-6.25,2.81-2.88,5.62-5.76,8.46-8.61a3,3,0,0,1,3.4-.64,48.77,48.77,0,0,0,14.79,2.88c2.71.07,4.46,1.3,4.88,4a85.39,85.39,0,0,1,1,11.64,98.3,98.3,0,0,1-.52,10.57c-.34,3.78-.89,7.53-1.33,11.3-.62,5.26-1.16,10.53-1.86,15.78-.63,4.72-1.44,9.42-2.15,14.13-.61,4.08-1,8.21-1.84,12.24-1.07,5.06-2.53,10-3.83,15C160.36,185.45,160.2,186,160,186.71Z"/><path class="cls-1" d="M265,120.38c-.56,4.71-1.08,10.46-2,16.15-.62,4-1.66,8-2.65,11.94a62.16,62.16,0,0,1-2,6.19c-1.38,3.77-2.66,7.59-4.31,11.24a84.12,84.12,0,0,1-9.92,17.2c-2.3,3-4.63,5.92-7.2,8.63A22.83,22.83,0,0,1,226,198a17.15,17.15,0,0,1-8.56-.26c-6.18-1.51-12.42-2.81-18.55-4.5-6.7-1.86-11.52-5.93-13.37-12.91a72.68,72.68,0,0,1-2.15-9.12,74.55,74.55,0,0,1-.55-10.88,85.62,85.62,0,0,1,.88-11.87A71.43,71.43,0,0,1,189,129.87c1.78-3.89,3.17-8,5-11.82a63.4,63.4,0,0,1,4.32-7.42,63.88,63.88,0,0,1,5.66-8.11,47.85,47.85,0,0,1,8-7.3A36.48,36.48,0,0,1,220.54,91a24.8,24.8,0,0,1,16.34-.28,40.79,40.79,0,0,0,8.65,1.56c3.54.29,6.7,1.14,9.4,3.57a4.33,4.33,0,0,0,2.47.54c2.07.08,2.83.63,3.38,2.56,1.08,3.87,2.39,7.69,3.23,11.61C264.62,113.39,264.62,116.37,265,120.38ZM240.21,99.46a28.62,28.62,0,0,0-14.39,9.67c-3.31,4.17-6.5,8.45-8.62,13.38s-4.35,9.63-6.1,14.59c-3.56,10.05-5.33,20.37-4.13,31.1a53.23,53.23,0,0,0,3.58,14.88,1.87,1.87,0,0,0,3.31.54c.44-.48.85-1,1.26-1.48,2.56-3,5.39-5.88,7.59-9.15,3.62-5.37,7.12-10.86,9.49-16.93,2-5.21,4-10.46,5.54-15.83A60.65,60.65,0,0,0,239.61,129c.41-4.43.48-8.9.58-13.35.09-3.76,0-7.52,0-11.28Z"/><path class="cls-1" d="M378.48,187.32a6.14,6.14,0,0,0,.31.9c.58,1.36.91,2.7,0,4a1.2,1.2,0,0,0-.16.46c-.7,3.78-2.43,4.66-6.17,3.58-4.47-1.3-9-2.35-13.54-3.47a17.86,17.86,0,0,0-2.08-.16c-2.34-.28-3.43-2.23-4.11-3.95-.58-1.49-.27-3.46,0-5.15a6,6,0,0,1,1.72-3.24c1.57-1.36,3.4-2.46,5.72-1.61a42.91,42.91,0,0,0,12.89,2.5A5.8,5.8,0,0,1,378.48,187.32Z"/></g></svg>