<svg xmlns="http://www.w3.org/2000/svg" viewBox="0 0 1000 202.41"><defs><style>.cls-1{fill:#8872a4;}</style></defs><g id="Layer_16_Image" data-name="Layer 16 Image"><path class="cls-1" d="M595.65,103.56a228,228,0,0,1-1.19,29.88c1.18,0,2.47.1,3.73,0,2.3-.22,4.6-.8,6.89-.8a47.44,47.44,0,0,1,7.4.8c2.59.41,5.16,1,7.75,1.52.95.17,1.93.15,2.9.28,1.29.19,1.71.92,1.28,2.15a4,4,0,0,0-.17.59c-.36,1.9-.37,1.85-2.23,2.2a66.56,66.56,0,0,1-13.36,1.21c-4.78-.07-9.59-.1-14.35-.57-2.83-.28-5.58-1.38-8.38-2.07a27.11,27.11,0,0,0-3.67-.74c-3.71-.39-5.16-1.79-5.07-5.48.09-4.06.4-8.12.64-12.18.17-2.87.38-5.75.54-8.63.21-3.77.47-7.55.56-11.33s-.17-7.3,0-10.94c.17-4.27.45-8.54,1-12.78.28-2.29,1-4.6,3-6.09a6.68,6.68,0,0,1,2.57-1c1.57-.33,3.2-.45,4.77-.77a34.67,34.67,0,0,1,12.44,0c2.22.35,4.47.54,6.68.92,1.32.23,2.59.77,3.92,1,1.6.29,3.24.41,4.86.61a2.86,2.86,0,0,1,1,.28c1.15.69,1.28,1.28.78,2.81-.34,1-1.18,1-2,.89-3.67-.26-7.34-.57-11-.79a16.67,16.67,0,0,0-3.3.24c-2.13.32-4.25.69-6.36,1.08s-2.11.59-2.24,2.88c-.18,3.12-.05,6.25,0,9.38.06,2.46.26,4.91.33,7.37,0,.93.24,1.28,1.32,1.29a61.59,61.59,0,0,1,7.68.45c2.18.29,4.31,1,6.48,1.41a21.75,21.75,0,0,0,2.81.17c1.62.1,2.06.72,1.68,2.28a3.9,3.9,0,0,1-.28,1.21c-.23.37-.63.84-1,.88-2.2.28-4.42.42-6.62.66a62.16,62.16,0,0,1-11.25-.29C596,103.55,595.86,103.56,595.65,103.56Z"/><path class="cls-1" d="M695.52,104.71c0,1.57,0,3.09,0,4.61,0,1.84-.12,3.68-.15,5.52,0,1.25.06,2.5,0,3.74-.09,2.32-.32,4.65-.31,7,0,2.48.32,5,.3,7.46a24.55,24.55,0,0,1-1.82,9.71l-1.34-1c-.92.57-1.65-.16-2.46-.77-.75.83-1.41.15-2.12-.11a138.2,138.2,0,0,0-2.9-.76c-.75-.1-1.52-.06-2.28-.12a2,2,0,0,1-2.12-2c0-.33,0-.67-.06-1.07-.13-.06-.49-.1-.57-.27-1.07-2.25-2.12-4.5-1.6-7.12a7.08,7.08,0,0,0,.06-1.66c-.11-3.74-.4-7.47-.31-11.2.11-5,.49-9.89.8-14.83.23-3.56.5-7.11.79-10.65.21-2.52.5-5,.72-7.56.34-4,.59-8,1-12a23.68,23.68,0,0,1,1-4c.17-.59.59-.77,1.23-.55a18.32,18.32,0,0,0,2.71.71,6.15,6.15,0,0,0,2,0,51.33,51.33,0,0,1,16.41-.18c1.65.24,3.32.36,5,.67,2.11.4,4.18,1,6.29,1.41,1.39.27,2.82.35,4.23.54a6.15,6.15,0,0,1,1.43.29c.67.27,1.19.79.81,1.54-.45.91.2,2.56-1.63,2.58-2.1,0-4.2,0-6.31,0-3.22,0-6.45-.08-9.67,0-3.05.05-6.09.22-9.3.35.07,1.21.17,2.23.18,3.25,0,4.3,0,8.6.06,12.9,0,2.39.08,4.78.07,7.17a.83.83,0,0,0,.83,1l6.71.87c.86.11,1.8.06,2.1,1.17A2.59,2.59,0,0,1,703,104.4c-1.21.1-2.42.25-3.64.3S696.93,104.71,695.52,104.71Z"/><path class="cls-1" d="M825.94,74.14c1.72.45,1.25,2,1.41,3.08a45.36,45.36,0,0,1,.44,6.27c0,2.34-.13,4.69-.3,7-.19,2.7-.37,5.4-.74,8.08-.62,4.57-1.36,9.12-2.09,13.67-.64,4-1.33,8.06-2,12.09q-.75,4.5-1.49,9c0,.23-.06.47-.11.9a16.12,16.12,0,0,1,2.31,0c2.21.37,4.41.84,6.62,1.23,1.5.26,3,.38,4.52.67.74.14,1.93.36,2.06.79a5.81,5.81,0,0,1-.32,2.69c0,.14-.54.27-.81.26a70.16,70.16,0,0,0-12.87.88,71,71,0,0,1-15.69.27c-2.14-.15-4.23-1-6.35-1.57a24.4,24.4,0,0,0-3-.65c-.71-.09-1.46,0-1.66-.86a2.32,2.32,0,0,1,1.22-2.5,13.17,13.17,0,0,1,2.57-.37c3-.11,6-.18,9.06-.25.67,0,1-.23,1.09-1,.8-6.69,1.72-13.36,2.48-20.05.34-3,.3-6.11.57-9.15.42-4.77,1-9.52,1.45-14.29.22-2.07.38-4.14.62-6.21s.56-4.25.83-6.38a3.29,3.29,0,0,0,0-.59c-1.8.49-3.54.94-5.27,1.42a24.28,24.28,0,0,0-4.87,1.44,4.18,4.18,0,0,1-3.68,0,44.52,44.52,0,0,0-4.47-1c-.74-.17-1.7,0-2-1a3.11,3.11,0,0,1,1.18-2.94,11.51,11.51,0,0,1,1.93-1c5.41-2.08,10.77-4.31,16.52-5.29,2-.35,4.11-.51,6.16-.81s4.17-.73,6.26-1,4.47-.6,6.71-.84a3.85,3.85,0,0,1,1.2.3,20.46,20.46,0,0,0,6.41,1c1.23-.06,1.59.48,1.3,1.66a4.18,4.18,0,0,1-.46,1.45,1.68,1.68,0,0,1-1.23.62,13.7,13.7,0,0,0-6.34.89,21,21,0,0,1-2.41.52C830.43,73.09,828.19,73.62,825.94,74.14Z"/><path class="cls-1" d="M152.9,74.14c1.72.45,1.25,2,1.41,3.08a45.36,45.36,0,0,1,.44,6.27c0,2.34-.13,4.69-.3,7-.19,2.7-.37,5.4-.74,8.08-.62,4.57-1.37,9.12-2.09,13.67-.65,4-1.33,8.06-2,12.09q-.74,4.5-1.49,9c0,.23,0,.47-.1.9a16,16,0,0,1,2.3,0c2.22.37,4.41.84,6.63,1.23,1.5.26,3,.38,4.52.67.74.14,1.92.36,2.06.79a5.82,5.82,0,0,1-.33,2.69c0,.14-.53.27-.81.26a70.12,70.12,0,0,0-12.86.88,71,71,0,0,1-15.69.27c-2.14-.15-4.23-1-6.35-1.57a24.17,24.17,0,0,0-3-.65c-.7-.09-1.45,0-1.65-.86a2.32,2.32,0,0,1,1.22-2.5,13.17,13.17,0,0,1,2.57-.37c3-.11,6-.18,9.06-.25.67,0,1-.23,1.08-1,.8-6.69,1.73-13.36,2.49-20.05.34-3,.3-6.11.57-9.15.42-4.77,1-9.52,1.45-14.29.21-2.07.38-4.14.62-6.21s.55-4.25.83-6.38a4.6,4.6,0,0,0,0-.59c-1.8.49-3.54.94-5.28,1.42a24.67,24.67,0,0,0-4.87,1.44,4.15,4.15,0,0,1-3.67,0,44.72,44.72,0,0,0-4.48-1c-.73-.17-1.69,0-2-1a3.12,3.12,0,0,1,1.19-2.94,11.14,11.14,0,0,1,1.93-1c5.41-2.08,10.77-4.31,16.52-5.29,2-.35,4.11-.51,6.16-.81s4.16-.73,6.25-1c2.24-.33,4.48-.6,6.72-.84a3.91,3.91,0,0,1,1.2.3,20.46,20.46,0,0,0,6.41,1c1.23-.06,1.59.48,1.29,1.66a4,4,0,0,1-.46,1.45,1.66,1.66,0,0,1-1.22.62,13.7,13.7,0,0,0-6.34.89,21.2,21.2,0,0,1-2.42.52Z"/><path class="cls-1" d="M481.73,113.41a67.12,67.12,0,0,0,2.63,16.18c.57,1.94,1.28,3.86,2,5.77a6.67,6.67,0,0,1-.41,5.16c-.41.91-1,1-2.08.72-2.15-.52-4.32-1.07-6.52-1.4a3.23,3.23,0,0,1-2.67-1.59c-1.24-2.37-2.51-4.74-3.57-7.18a60.13,60.13,0,0,1-4.32-17.19c-.36-3.22-.23-6.48-.44-9.72a33.35,33.35,0,0,1,1.24-10.32,27.32,27.32,0,0,1,3.34-8.54c.91-1.42,1.74-2.88,2.74-4.25a16.1,16.1,0,0,1,2.18-2.19,56.4,56.4,0,0,1,4.38-3.92,22.38,22.38,0,0,1,10.19-4.58,13.62,13.62,0,0,1,5.8.5,41.12,41.12,0,0,0,9.23,1.53,11.6,11.6,0,0,1,6,1.75,6.39,6.39,0,0,1,2.87,3.77,12.58,12.58,0,0,1-.09,7.39,41.73,41.73,0,0,1-1.8,5.51,27.56,27.56,0,0,1-3.64,6,49.46,49.46,0,0,1-9.67,8.48c-2.25,1.54-4.46,3.13-6.76,4.75a3.85,3.85,0,0,0,.61.57c5.34,3.28,9.4,7.67,13,12.32,2.71,3.46,5,7.21,7.45,10.82.68,1,1,2.28,2.64,2.53a.81.81,0,0,1,.49.65,8.94,8.94,0,0,1-.65,2.55,1.46,1.46,0,0,1-1.93.57c-3.06-1.2-6.37-1.41-9.59-2a6.54,6.54,0,0,1-3.85-2.68q-4-4.77-7.88-9.58c-1.47-1.81-2.84-3.68-4.35-5.46s-3-3.34-4.55-5C483.12,114.72,482.41,114.08,481.73,113.41Zm-.22-10.71a3.52,3.52,0,0,0,.46-.26c3-2.37,6.14-4.65,9-7.14a22.79,22.79,0,0,0,7.62-12.58c.32-1.45.71-3-.14-4.41C488.21,82.55,481.57,93,481.51,102.7Z"/><path class="cls-1" d="M190.21,101.1c-.3,2.87-.59,5.73-.91,8.59-.24,2.09-.54,4.17-.79,6.25-.32,2.62-.52,5.25-.93,7.84-.75,4.61-1.59,9.2-2.45,13.8a12.14,12.14,0,0,1-.9,2.73,1.44,1.44,0,0,1-2.2.8c-1.52-1.06-3.28-.82-4.9-1.23-.83-.21-1.72-.19-2.52-.44a1.86,1.86,0,0,1-1-1,5.08,5.08,0,0,1-.17-1.91c.07-1.24.21-2.48.34-3.71.31-2.84.59-5.67.93-8.5.56-4.75,1.18-9.49,1.73-14.24.31-2.61.56-5.23.81-7.85s.42-5.31.71-8c.37-3.36.78-6.71,1.25-10.05.37-2.57.84-5.13,1.3-7.68a16.26,16.26,0,0,1,.69-2.77c.61-1.62,1.15-1.69,2.81-1.29A59.9,59.9,0,0,0,192.13,74a3.87,3.87,0,0,1,3.56,2.28c1.28,3,2.38,6.1,3.51,9.17.67,1.8,1.28,3.63,1.88,5.45.9,2.71,1.75,5.43,2.66,8.13.84,2.49,1.73,5,2.78,7.46.06-.36.09-.72.17-1.08,1.13-5,2.13-10.11,3.44-15.11,1.49-5.65,3.29-11.21,4.88-16.83.72-2.55,1.24-5.17,1.94-7.74.49-1.78,1.11-3.52,1.72-5.26a1,1,0,0,1,1.44-.69c1.85.52,3.72,1,5.59,1.38a17.42,17.42,0,0,0,3,.32c1.4.06,1.86.48,1.63,1.85-.43,2.52-.88,5-1.42,7.55q-1.94,8.86-4,17.72c-.89,3.88-1.93,7.74-2.76,11.64-.88,4.17-1.66,8.37-2.37,12.57-.94,5.66-1.75,11.34-2.65,17a34.36,34.36,0,0,1-.87,3.74c-.31,1.12-1.11,1.44-2.32,1.15-2.19-.52-4.38-1-6.58-1.46a38.84,38.84,0,0,1-4.34-.91,3.55,3.55,0,0,1-2-1.64c-1.16-2.73-2.11-5.55-3.16-8.34-.16-.42-.45-.79-.6-1.22-.86-2.34-1.69-4.69-2.52-7-.95-2.72-1.92-5.42-2.84-8.15-.53-1.61-1-3.25-1.45-4.87Z"/><path class="cls-1" d="M450.92,131.54c-1.58,1.71-3.07,3.48-4.72,5.08a16.68,16.68,0,0,1-6.3,3.77,7.69,7.69,0,0,1-5.37-.19,45.68,45.68,0,0,0-9.36-2.14,8.68,8.68,0,0,1-7.43-7.25,44.93,44.93,0,0,1-1-13.08c.35-4.62.43-9.27.82-13.88a180.75,180.75,0,0,1,3.36-22.44c.42-2,1-3.93,1.58-5.87.41-1.3.71-1.29,2.07-1,2.29.48,4.52,1.3,6.93,1.19,1.21,0,1.7.5,1.94,1.7a38.11,38.11,0,0,1,.29,10.34c-.24,3.41-.42,6.82-.64,10.23-.27,4.09-.66,8.17-.82,12.26-.15,3.84-.14,7.68-.06,11.52,0,2.34.34,4.67.53,7a7.2,7.2,0,0,0,.28,1,14,14,0,0,0,1.49-1.52A36.08,36.08,0,0,0,439.68,118a103.91,103.91,0,0,0,3.19-14q.93-5.64,1.58-11.32c.41-3.48.6-7,1-10.45.32-3,.69-5.93,1.19-8.86.29-1.73.64-1.8,2.35-1.39,1.94.47,3.91.81,5.84,1.3,1.08.28,2.06.83,3.27.33.23-.09,1.07.68,1.26,1.2a19.54,19.54,0,0,1,1.58,8c-.11,2.26.29,4.54.36,6.81s0,4.39,0,6.58c.06,2.35.21,4.69.32,7,.13,2.56.1,5.14.42,7.68.47,3.78,1.17,7.53,1.81,11.28.27,1.58.72,3.13.95,4.71.54,3.56,1,7.14,1.45,10.71a9.89,9.89,0,0,1-.15,2.54c-.14,1-1,1.43-2.05,1.14a78.5,78.5,0,0,0-8.95-2.33c-1.59-.26-1.83-1.3-2.26-2.25C452.05,135,451.51,133.19,450.92,131.54Z"/><path class="cls-1" d="M401.64,76.36c1.12,1,2.1,1.93,3.1,2.81.71.61,1.49,1.16,2.18,1.79A19.16,19.16,0,0,1,413,93.86c.17,1.79.51,3.58.68,5.37a41.25,41.25,0,0,1-.65,10.52,59.68,59.68,0,0,1-5.62,17.4c-1.47,2.88-3.67,5.21-5.57,7.78a18.11,18.11,0,0,1-6.91,5.39c-3.3,1.59-6.7,1.16-10.13.19-3.22-.91-6.5-1.59-9.77-2.29s-6.22-1.83-8.32-4.56a28.42,28.42,0,0,1-2.9-4,31.31,31.31,0,0,1-3-7,26.45,26.45,0,0,1-.69-9.48c.3-2.46.14-5,.54-7.42,1.19-7.32,3.47-14.28,7.75-20.44,3.52-5.06,7.85-9.28,13.74-11.51a16.9,16.9,0,0,1,12.22.18,21,21,0,0,0,4.74.68c.43.05.86,0,1.29.05C401.52,74.9,401.86,75.42,401.64,76.36Zm-9.25,3.86c-2.74,2-5.62,3.79-7.76,6.66A41.46,41.46,0,0,0,377.15,102a74.41,74.41,0,0,0-1.36,9.18,28.71,28.71,0,0,0,1.1,11.85,34.45,34.45,0,0,0,4,7.51c1.29,2.05,1.44,1.95,3.53.78A4.3,4.3,0,0,0,385,131a35,35,0,0,0,7.05-8,45.53,45.53,0,0,0,3.74-7.65,40,40,0,0,0,3.1-13,40.79,40.79,0,0,0-1-12.75,19.8,19.8,0,0,0-1.9-4.86A39.52,39.52,0,0,0,392.39,80.22Z"/><path class="cls-1" d="M26.37,130.16c0-7.23,0-14.71,0-22.2,0-3.84-.08-7.67-.16-11.51a56.46,56.46,0,0,1,1.94-16.73A26.57,26.57,0,0,1,31,73.09c1-1.6,2.61-2.77,3.86-4.2a15.45,15.45,0,0,1,6.68-4.48,10,10,0,0,1,6.61,0,33.24,33.24,0,0,0,9.94,1.86,7.62,7.62,0,0,1,5.3,1.93c1.1,1,2.64,1.66,3.53,2.82,3.37,4.43,5.29,9.31,4.14,15A21,21,0,0,1,66.3,96.42a17.62,17.62,0,0,1-2.15,1.89c-1.56,1.23-3.09,2.5-4.72,3.62a45.88,45.88,0,0,1-10.38,5c-2.75,1-5.46,2.12-8.17,3.22a1.06,1.06,0,0,0-.48.79c-.08,2-.14,4-.12,6.08,0,2.3.19,4.61.19,6.92q0,7.11-.12,14.22a10.46,10.46,0,0,1-.54,2.61c-.07.25-.5.61-.71.58-1-.15-2-.42-3-.63l-4.89-1c-.84-.16-1.68-.32-2.53-.46A1.39,1.39,0,0,1,27.48,138C27.11,135.51,26.77,133,26.37,130.16ZM40.55,97.44a7.5,7.5,0,0,0,.87-.4c2-1.41,4.18-2.72,6.12-4.27a25.89,25.89,0,0,0,4.19-4.18,11.31,11.31,0,0,0,2.46-7.14,18.29,18.29,0,0,0-2.06-8c-.27-.55-.62-.85-1.24-.34-.82.68-1.7,1.29-2.51,2a16.27,16.27,0,0,0-4.59,5.37C41.25,85.82,40.48,91.48,40.55,97.44Z"/><path class="cls-1" d="M776.67,141.38a42,42,0,0,1-10.49-1.86c-2.49-.72-5.08-1.12-7.63-1.62a18,18,0,0,1-10.16-5.31,13.49,13.49,0,0,1-1.87-3.05c-.85-1.64-1.62-3.32-2.39-5-.5-1.1-1-2.21-1.37-3.35a4.35,4.35,0,0,1-.2-1.57c.11-1.93.82-2.42,2.62-1.8,1.12.38,2.21.87,3.34,1.23a6.49,6.49,0,0,0,1.75.25,9.05,9.05,0,0,0,1.88-.11c1.58-.27,2.23.68,3,1.88,2.57,4.26,5,8.68,9,11.84a4.28,4.28,0,0,0,4,1,19,19,0,0,0,7.82-4,6.57,6.57,0,0,0,1.09-1.68c3.14-5.43,2-10.43-1.62-15.11-1.49-1.91-3.13-3.7-4.75-5.51a30.57,30.57,0,0,0-3.07-3.16c-2.16-1.8-4.43-3.46-6.62-5.23-.83-.66-1.54-1.47-2.33-2.18A27.14,27.14,0,0,1,756,94.7a15.33,15.33,0,0,1-3.49-13.86,26.62,26.62,0,0,1,4.19-9.65,14.36,14.36,0,0,1,5.12-4.49,9.15,9.15,0,0,1,5.82-1.27c1.29.18,2.53.7,3.82.93,1.9.34,3.83.46,5.71.86a21.77,21.77,0,0,1,5,1.53,46.29,46.29,0,0,1,5.69,3.41c1.4.93,1.57,3.53.46,4.77-.55.61-1.15.36-1.78.2-2.33-.58-4.68-1.1-7-1.72a5.87,5.87,0,0,1-1.44-.88c-1.21-.79-2.39-1.65-3.66-2.32-.3-.15-1,.24-1.41.55A15.9,15.9,0,0,0,766.64,85a11.85,11.85,0,0,0,2.33,7c1.94,3,4.95,4.78,7.7,6.88,3,2.33,6.08,4.66,8.89,7.23a39.36,39.36,0,0,1,8,9.72,14.44,14.44,0,0,1,1.78,8.68A24,24,0,0,1,793,133a12.37,12.37,0,0,1-6.05,5.78,24.82,24.82,0,0,1-6.5,2.25C779,141.21,777.65,141.28,776.67,141.38Z"/><path class="cls-1" d="M551.19,141.38a42,42,0,0,1-10.49-1.86c-2.49-.72-5.08-1.12-7.64-1.62a18,18,0,0,1-10.15-5.31,13.52,13.52,0,0,1-1.88-3.05c-.85-1.64-1.62-3.32-2.39-5-.5-1.1-1-2.21-1.37-3.35a4.14,4.14,0,0,1-.19-1.57c.1-1.93.81-2.42,2.61-1.8,1.12.38,2.22.87,3.35,1.23a6.38,6.38,0,0,0,1.75.25,9.13,9.13,0,0,0,1.88-.11c1.57-.27,2.22.68,3,1.88,2.58,4.26,5,8.68,9,11.84a4.28,4.28,0,0,0,4,1,19.15,19.15,0,0,0,7.83-4,6.54,6.54,0,0,0,1.08-1.68c3.14-5.43,2-10.43-1.62-15.11-1.49-1.91-3.13-3.7-4.74-5.51a30.67,30.67,0,0,0-3.08-3.16c-2.15-1.8-4.43-3.46-6.61-5.23-.83-.66-1.55-1.47-2.34-2.18a27,27,0,0,1-2.65-2.34,15.3,15.3,0,0,1-3.49-13.86,26.43,26.43,0,0,1,4.18-9.65,14.3,14.3,0,0,1,5.13-4.49,9.11,9.11,0,0,1,5.81-1.27c1.3.18,2.54.7,3.83.93,1.89.34,3.82.46,5.7.86a21.62,21.62,0,0,1,5,1.53,47.17,47.17,0,0,1,5.7,3.41c1.39.93,1.56,3.53.45,4.77-.55.61-1.15.36-1.78.2-2.33-.58-4.67-1.1-7-1.72a5.92,5.92,0,0,1-1.45-.88c-1.21-.79-2.38-1.65-3.66-2.32-.3-.15-1,.24-1.41.55A15.94,15.94,0,0,0,541.15,85a11.8,11.8,0,0,0,2.34,7c1.93,3,5,4.78,7.69,6.88,3,2.33,6.08,4.66,8.89,7.23a39.62,39.62,0,0,1,8,9.72,14.43,14.43,0,0,1,1.77,8.68,23.81,23.81,0,0,1-2.35,8.52,12.33,12.33,0,0,1-6.05,5.78,24.87,24.87,0,0,1-6.49,2.25C553.56,141.21,552.17,141.28,551.19,141.38Z"/><path class="cls-1" d="M255.9,76.75c-3.91.15-7.74.32-11.58.41a8.91,8.91,0,0,1-2.18-.45c-2.35-.57-4.59-1.55-7.07-1.6-.67,0-1.51,0-1.65-1a2.23,2.23,0,0,1,1.31-2.46c1.65-.46,3.32-.84,5-1.18,3.23-.64,6.48-1.24,9.72-1.84q5.42-1,10.83-2c1.22-.23,2.44-.46,3.67-.63,4.26-.56,8.45,0,12.66.65a70.06,70.06,0,0,1,7.69,1.06,66.91,66.91,0,0,0,10.49,1.9,6.64,6.64,0,0,1,1.81.6c.58.26.71.7.45,1.33a6.11,6.11,0,0,0-.26,1.44,1.19,1.19,0,0,1-1.49,1.13c-2.69-.25-5.39-.53-8.1-.67a51.19,51.19,0,0,0-5.54,0c-3.36.2-6.72.49-10.07.77-.85.07-1.69.22-2.53.36a1.07,1.07,0,0,0-1,1.24c.1,2.2.2,4.4.18,6.59,0,3.55-.16,7.11-.24,10.66,0,1,0,2.07-.08,3.1-.37,3.86,0,7.74-.29,11.61-.4,5.41-.61,10.83-1.11,16.22-.27,2.83-1,5.61-1.5,8.42-.29,1.57-.52,3.15-.82,4.72-.24,1.22-.54,2.43-.84,3.75l-.73-.33-.61.83-1.49-1.18-.3.85c-2.24-.49-4.5-.94-6.73-1.48s-2.22-.59-2-2.91c.23-2.81.33-5.64.52-8.45.18-2.64.37-5.29.63-7.92.51-5.21,1.14-10.42,1.58-15.64s.71-10.38,1.05-15.57c.25-4,.48-8,.72-11.94A1.46,1.46,0,0,0,255.9,76.75Z"/><path class="cls-1" d="M910.07,134.65c1.51,0,3,.09,4.49,0,2.88-.2,5.75-.5,8.62-.8.71-.07,1.39-.35,2.1-.43a11.34,11.34,0,0,1,5.79.7c.92.4,2.11-.19,2.86,1,.14.23,1.25-.17,1.91-.31,1.1-.22,1.43.22,1.42,1.29,0,3.11-2.19,3.85-4.38,4.23a68,68,0,0,1-7.56.64c-2.18.15-4.36.3-6.54.36s-4.56,0-6.85,0c-3.46.06-6.53-1.71-9.87-2.23-1.72-.26-3.42-.71-5.12-1.12a1.87,1.87,0,0,1-1.62-2.14,44.94,44.94,0,0,1,.65-4.49c.56-2.89,1.24-5.75,1.77-8.64s1-6,1.45-9c.57-4,1.11-8,1.57-12.06.83-7.2,1.55-14.41,2.4-21.6.47-4,1.12-7.89,1.7-11.84a7.56,7.56,0,0,1,.39-1.39,1.1,1.1,0,0,1,1.56-.71c2,.57,4,1.14,6.07,1.64a13.52,13.52,0,0,0,1.69.05,2,2,0,0,1,2,2.32c-.12,5.15-.25,10.3-.5,15.45-.22,4.44-.51,8.87-.94,13.29-.58,6-1.18,12-2,17.9s-2.06,11.52-3.11,17.28A3.8,3.8,0,0,0,910.07,134.65Z"/><path class="cls-1" d="M864.16,134.65c1.51,0,3,.09,4.49,0,2.88-.2,5.75-.5,8.62-.8.71-.07,1.39-.35,2.1-.43a11.34,11.34,0,0,1,5.79.7c.92.4,2.11-.19,2.86,1,.14.23,1.25-.17,1.91-.31,1.1-.22,1.43.22,1.42,1.29,0,3.11-2.19,3.85-4.38,4.23a68,68,0,0,1-7.56.64c-2.18.15-4.36.3-6.54.36s-4.56,0-6.85,0c-3.46.06-6.53-1.71-9.87-2.23-1.72-.26-3.42-.71-5.12-1.12a1.87,1.87,0,0,1-1.62-2.14,44.94,44.94,0,0,1,.65-4.49c.56-2.89,1.24-5.75,1.77-8.64s1-6,1.45-9c.57-4,1.11-8,1.57-12.06.83-7.2,1.55-14.41,2.4-21.6.47-4,1.12-7.89,1.7-11.84a7.56,7.56,0,0,1,.39-1.39,1.1,1.1,0,0,1,1.56-.71c2,.57,4,1.14,6.07,1.64a13.52,13.52,0,0,0,1.69.05,2,2,0,0,1,2,2.32c-.12,5.15-.25,10.3-.5,15.45-.22,4.44-.51,8.87-.94,13.29-.58,6-1.18,12-2,17.9s-2.06,11.52-3.11,17.28A3.8,3.8,0,0,0,864.16,134.65Z"/><path class="cls-1" d="M647.35,135c1.51,0,3,.08,4.48,0,2.88-.2,5.75-.48,8.63-.76.7-.07,1.39-.34,2.09-.41a11.64,11.64,0,0,1,5.79.66c.92.39,2.12-.18,2.86,1,.15.22,1.25-.17,1.91-.3,1.1-.22,1.43.21,1.43,1.23,0,3-2.2,3.67-4.39,4a75.77,75.77,0,0,1-7.56.61c-2.17.14-4.35.29-6.53.35s-4.57,0-6.85,0c-3.46.06-6.53-1.64-9.87-2.13-1.72-.25-3.42-.67-5.13-1.06a1.82,1.82,0,0,1-1.62-2.05c.15-1.44.36-2.87.65-4.29.56-2.75,1.24-5.48,1.78-8.24s1-5.69,1.44-8.54c.57-3.84,1.11-7.68,1.58-11.52.83-6.87,1.54-13.75,2.4-20.62.47-3.78,1.11-7.53,1.7-11.3a7,7,0,0,1,.38-1.33c.29-.74.84-.87,1.57-.67,2,.54,4,1.08,6.07,1.56a13.3,13.3,0,0,0,1.68,0c1.41.15,2.07.79,2,2.22-.12,4.91-.25,9.83-.5,14.74-.21,4.24-.5,8.47-.93,12.69-.59,5.71-1.19,11.42-2.06,17.08s-2.06,11-3.1,16.5A3.56,3.56,0,0,0,647.35,135Z"/><path class="cls-1" d="M950.13,89.36c.93-1.46,1.75-2.78,2.6-4.07,1.55-2.36,3.2-4.65,4.66-7.07s2.83-5.2,4.31-7.75a5.73,5.73,0,0,1,1.59-1.55,1,1,0,0,1,.87,0,20.19,20.19,0,0,0,7.34,1.61c2.22.22,2.56.52,2.2,2.91a30.92,30.92,0,0,1-3.86,10.75c-1.41,2.49-2.71,5.06-4.2,7.5-2,3.25-4.09,6.41-6.16,9.6a5.32,5.32,0,0,0-.85,3.6c.25,3,.28,6,.43,9,.11,2.29.42,4.59.38,6.88,0,2.47-.37,4.94-.6,7.41-.18,1.87-.36,3.74-.6,5.6-.27,2-.56,4.08-.93,6.11a1.8,1.8,0,0,1-2.32,1.37c-2.13-.71-4.23-1.52-6.37-2.14a18.17,18.17,0,0,0-3.37-.42,1.47,1.47,0,0,1-1.47-1.45c-.55-5.54-1.36-11.07-1.55-16.62-.16-4.69.38-9.41.64-14.12,0-.62,0-1-.63-1.28a3.35,3.35,0,0,1-1.37-1.46c-1.06-2-2-4.13-3-6.17-.39-.79-1-1.47-1.35-2.26-1.26-2.67-2.55-5.33-3.67-8.07-1.53-3.72-3-7.51-4.36-11.29a52.31,52.31,0,0,1-2-5.93,9.31,9.31,0,0,1,.15-3.31c.07-.57.46-.78,1.1-.56a34.35,34.35,0,0,0,8.51,1.69,3.46,3.46,0,0,1,2.28,1.28,93.15,93.15,0,0,1,11.06,19C949.69,88.54,949.85,88.82,950.13,89.36Z"/><path class="cls-1" d="M336.27,93.74c.93-1.33,1.76-2.54,2.61-3.73,1.55-2.16,3.2-4.25,4.66-6.47s2.83-4.76,4.31-7.1A5.73,5.73,0,0,1,349.44,75a1.06,1.06,0,0,1,.87,0,22,22,0,0,0,7.34,1.48c2.21.2,2.56.47,2.2,2.66A26.82,26.82,0,0,1,356,89c-1.42,2.28-2.72,4.64-4.2,6.87-2,3-4.09,5.88-6.17,8.8a4.58,4.58,0,0,0-.84,3.29c.25,2.74.27,5.5.42,8.25.12,2.1.43,4.2.39,6.3,0,2.27-.37,4.53-.6,6.79-.18,1.71-.36,3.42-.61,5.12-.26,1.88-.55,3.75-.92,5.6a1.82,1.82,0,0,1-2.32,1.26c-2.13-.65-4.23-1.39-6.38-2a18.8,18.8,0,0,0-3.37-.39,1.4,1.4,0,0,1-1.46-1.32c-.56-5.08-1.36-10.14-1.55-15.23-.16-4.29.38-8.62.64-12.92,0-.57,0-.9-.64-1.18A3.19,3.19,0,0,1,327,107c-1.05-1.86-2-3.78-3-5.66-.39-.72-1-1.34-1.35-2.07-1.26-2.44-2.55-4.88-3.68-7.38C317.43,88.44,316,85,314.6,81.51a45.89,45.89,0,0,1-2-5.43,7.83,7.83,0,0,1,.15-3c.08-.52.47-.71,1.1-.51a37.31,37.31,0,0,0,8.51,1.55,3.64,3.64,0,0,1,2.29,1.17,83.58,83.58,0,0,1,11.06,17.45C335.83,93,336,93.25,336.27,93.74Z"/><path class="cls-1" d="M113.93,92.37a9.8,9.8,0,0,0,1.92.17,9.51,9.51,0,0,0,1.67-.53c1.21-.37,2.42-.76,3.65-1.07.88-.23,1.81-.31,2.69-.54,1.8-.49,3.35.5,5,.75,2,.3,3.92.66,5.89.89a1.87,1.87,0,0,1,1.49,3,2.2,2.2,0,0,1-1.7,1.19c-2.51.55-5,1.09-7.52,1.65-3.85.86-7.68,1.75-11.53,2.62-.74.16-.84.42-.63,1.21a43.55,43.55,0,0,1,1,5.54c.34,2.76.64,5.53.79,8.3.13,2.41,0,4.83,0,7.24,0,2.75,0,5.49,0,8.24a43.21,43.21,0,0,1-.83,9c-.26,1.2-.91,1.6-2.06,1.29q-4.25-1.17-8.49-2.29c-1.35-.35-1.39-.33-1.24-1.69a113,113,0,0,0,.17-15c-.07-2.77-.64-5.52-.91-8.29-.24-2.46-.36-4.92-.57-7.38-.1-1.16-.29-2.32-.46-3.6-1.27.25-2.46.46-3.64.72-3.11.67-6.2,1.49-9.33,2a2.76,2.76,0,0,0-2.67,2.61c-.31,1.65-1.1,3.22-1.58,4.85-.92,3.09-1.84,6.19-2.61,9.32-.52,2.1-.78,4.26-1.17,6.39-.15.81-.33,1.62-.53,2.42a1.24,1.24,0,0,1-1.73,1c-1.5-.43-3-.87-4.52-1.22s-3.28-.59-4.89-1a1.84,1.84,0,0,1-1-1,3.09,3.09,0,0,1,0-1.36c.22-3.24.46-6.47.69-9.7.16-2.29.33-4.58.48-6.87a13.23,13.23,0,0,0,0-2.18,1.06,1.06,0,0,0-.68-.66c-1.27-.29-2.57-.52-3.86-.73-.61-.1-1.27-.06-1.47-.83a1.91,1.91,0,0,1,1-2.08c1-.43,7.14-.77,8.14-1.14.09,0,11.29-23,11.31-22.85.66-1,1.28-1.91,1.94-2.84A12.64,12.64,0,0,1,92.36,73a8.22,8.22,0,0,1,5.52-.09,35,35,0,0,0,6.62,1.27c1.68.21,3.45.16,4.61,1.6A17,17,0,0,1,111,79c1.23,2.48,1.43,5.23,1.92,7.9C113.29,88.78,113.62,90.64,113.93,92.37ZM99.54,81.45a17.32,17.32,0,0,0-1.78,2.07,81.82,81.82,0,0,0-5,9.83c-.49,1.13-1,2.27-1.49,3.52.44-.05.71-.07,1-.12l8-1.28c.9-.14,1.3-.76,1.15-1.77-.32-2.15-.63-4.29-1-6.44C100.17,85.4,99.87,83.54,99.54,81.45Z"/></g></svg>