<svg xmlns="http://www.w3.org/2000/svg" viewBox="0 0 1000 202.41"><defs><style>.cls-1{fill:#8872a4;}</style></defs><g id="Layer_16_Image" data-name="Layer 16 Image"><path class="cls-1" d="M267.34,61.13c2.27.6,1.65,2.66,1.86,4.07a59.22,59.22,0,0,1,.59,8.31c0,3.1-.18,6.21-.4,9.3-.25,3.57-.49,7.15-1,10.7-.83,6-1.82,12.06-2.78,18.09-.85,5.34-1.76,10.66-2.64,16q-1,6-2,11.95c0,.31-.07.62-.13,1.18a19.14,19.14,0,0,1,3,0c2.93.48,5.84,1.11,8.77,1.62,2,.34,4,.51,6,.88,1,.19,2.55.48,2.73,1.06.32,1.05-.16,2.37-.43,3.55,0,.19-.7.36-1.07.35a93.31,93.31,0,0,0-17,1.16c-6.9,1.07-13.85.82-20.76.36-2.84-.2-5.6-1.37-8.41-2.08a32.69,32.69,0,0,0-4-.86c-.93-.11-1.92,0-2.19-1.14s.58-3.06,1.62-3.31a17,17,0,0,1,3.4-.48c4-.15,8-.24,12-.34.89,0,1.31-.29,1.44-1.35,1.06-8.85,2.28-17.68,3.28-26.53.46-4,.4-8.09.76-12.11.56-6.31,1.28-12.61,1.92-18.91.28-2.74.51-5.49.82-8.22s.74-5.63,1.1-8.44a4.59,4.59,0,0,0,0-.78c-2.38.63-4.68,1.24-7,1.87s-4.5.89-6.45,1.9-3.17.63-4.87,0a60.51,60.51,0,0,0-5.92-1.33c-1-.22-2.24,0-2.6-1.35a4.09,4.09,0,0,1,1.57-3.88,14.92,14.92,0,0,1,2.55-1.37c7.16-2.74,14.25-5.69,21.86-7,2.7-.46,5.45-.67,8.16-1.07s5.51-1,8.28-1.37c3-.43,5.92-.79,8.88-1.11a4.79,4.79,0,0,1,1.59.41,27.08,27.08,0,0,0,8.48,1.32c1.64-.07,2.11.64,1.72,2.2a5.28,5.28,0,0,1-.61,1.92,2.22,2.22,0,0,1-1.62.82,18.25,18.25,0,0,0-8.4,1.18,25.42,25.42,0,0,1-3.19.68C273.28,59.74,270.31,60.44,267.34,61.13Z"/><path class="cls-1" d="M349.16,136.14c3.31-4.79,4.89-10.27,6-15.9.81-4.22,1.34-8.5,2-12.76.25-1.73.35-3.48.62-5.21.32-2,2.09-2.63,3.76-1.37a2.83,2.83,0,0,0,1.07.3c.42.1.84.2,1.26.27,1,.16,2,.28,2.94.44,1.34.23,2.67.46,4,.74a.71.71,0,0,1,.41.5,17.22,17.22,0,0,1,.42,2.47c.32,5.81.52,11.63.95,17.44a60,60,0,0,0,1.41,10.73,18.23,18.23,0,0,0,6.45,9.83c1.18.92,2.15,2.14,3.83,2.14a.55.55,0,0,1,.31.18c1.07.94.36,2.05.12,3-.13.5-1,1-1.57,1.15a4.66,4.66,0,0,1-2-.31l-8.23-2c-1.91-.48-3.81-.79-5.41-2.25a61.35,61.35,0,0,0-5.79-4.21,30.11,30.11,0,0,1-3.6,3.14,9.15,9.15,0,0,1-7.52,1.17c-3.38-.87-6.8-1.63-10.2-2.43a6.65,6.65,0,0,1-5-4.17,66.18,66.18,0,0,1-2.62-8.93,31.25,31.25,0,0,1-.52-6.77c0-3.41.18-6.84.5-10.24a73.82,73.82,0,0,1,1.33-8.49,74.68,74.68,0,0,1,2.08-7.44c.47-1.45,1.06-1.58,2.49-1.14a33,33,0,0,0,7.55,1.69c1.93.14,2.55,1,2.4,2.92-.39,5-.7,9.92-1,14.88a68.89,68.89,0,0,0,.07,12.52c.31,2.72.78,5.41,1.18,8.12Z"/><path class="cls-1" d="M442.63,108.27l-14.88-3.08c-.9-.18-1.6-.44-1.51-1.6.13-1.53.56-2.22,1.76-2.23,3.91,0,7.83,0,11.74,0a24.75,24.75,0,0,0,3.34-.12c.32,0,.74-.61.83-1,.59-2.73,1-5.51,1.69-8.19,1.33-4.83,2.86-9.61,4.3-14.4.68-2.26,1.38-4.5,2-6.77.56-2,.89-2.1,2.85-1.58,2.41.66,4.8,1.47,7.37,1.36,1.76-.08,2.32.47,2.06,2.23-.67,4.49-1.39,9-2.28,13.44s-2,8.78-3,13.16a4.07,4.07,0,0,0,0,.72,11.66,11.66,0,0,0,1.87,0c1.82-.3,3.54.24,5.3.5,3.08.46,6.17.88,9.27,1.21,2,.21,2.22.4,1.92,2.3-.33,2.07-1,2.7-3.22,2.85-5.21.34-10.42.7-15.63,1-.83,0-1.1.35-1.19,1.1-.4,3.43-.86,6.86-1.25,10.29-.46,4-1,8.06-1.25,12.11A23.2,23.2,0,0,0,456,142c.13.3.93.66,1.15.53a7.41,7.41,0,0,0,2-1.63,2.16,2.16,0,0,1,2.75-.75,55,55,0,0,0,5.57,1.14c1.08.18,2.19.17,3.28.33s1.28.79,1.14,1.75c-.42,2.91-1.77,4.86-4.8,5.7-3.27.9-6.48,1.58-9.86.68-2.58-.69-5.18-1.29-7.77-1.95a24.37,24.37,0,0,1-4.45-1.23c-2.63-1.26-3.66-3.76-4.21-6.44-1-5.18-.65-10.39-.21-15.59.27-3.19.65-6.37,1-9.55C441.93,112.67,442.31,110.41,442.63,108.27Z"/><path class="cls-1" d="M573,108.27l-14.89-3.08c-.89-.18-1.59-.44-1.5-1.6.13-1.53.56-2.22,1.76-2.23,3.91,0,7.82,0,11.74,0a24.81,24.81,0,0,0,3.34-.12c.32,0,.74-.61.82-1,.6-2.73,1-5.51,1.7-8.19,1.33-4.83,2.86-9.61,4.3-14.4.68-2.26,1.37-4.5,2-6.77.55-2,.89-2.1,2.85-1.58,2.41.66,4.8,1.47,7.37,1.36,1.75-.08,2.32.47,2.06,2.23-.67,4.49-1.4,9-2.28,13.44s-2,8.78-3,13.16a3.29,3.29,0,0,0,0,.72,11.66,11.66,0,0,0,1.87,0c1.82-.3,3.54.24,5.3.5,3.08.46,6.17.88,9.26,1.21,2,.21,2.23.4,1.93,2.3-.33,2.07-1,2.7-3.23,2.85-5.2.34-10.41.7-15.62,1-.83,0-1.1.35-1.19,1.1-.4,3.43-.86,6.86-1.25,10.29-.46,4-1,8.06-1.25,12.11a23.2,23.2,0,0,0,1.29,10.4c.13.3.92.66,1.15.53a7.56,7.56,0,0,0,2-1.63,2.16,2.16,0,0,1,2.75-.75,55,55,0,0,0,5.57,1.14c1.08.18,2.19.17,3.28.33s1.27.79,1.13,1.75c-.41,2.91-1.77,4.86-4.79,5.7-3.28.9-6.49,1.58-9.86.68-2.58-.69-5.18-1.29-7.77-1.95a24.37,24.37,0,0,1-4.45-1.23c-2.63-1.26-3.67-3.76-4.21-6.44-1-5.18-.66-10.39-.21-15.59.27-3.19.65-6.37,1-9.55C572.32,112.67,572.7,110.41,573,108.27Z"/><path class="cls-1" d="M411.1,133.32a13,13,0,0,0-3.25-8.78,63.37,63.37,0,0,0-6.52-6.59c-2.41-2.12-5.1-3.92-7.56-6-1.63-1.37-3.12-3-3.31-5.24a11.51,11.51,0,0,1,.42-4.68,14.17,14.17,0,0,1,7.17-7.77,7.74,7.74,0,0,1,5.11-.74c2.13.37,4.23,1,6.36,1.35,1.84.32,3.72.4,5.55.74,2.59.48,5.19,1,7.24,2.87a3.18,3.18,0,0,1,.36,4.08,1.55,1.55,0,0,1-1.28.26c-2.92-.65-5.82-1.35-8.73-2-.27-.07-.62-.1-.77-.29-.92-1.11-1.88-.63-2.91-.22a12,12,0,0,0-4.94,4.25c-1.23,1.65-.83,3.58,1,5.49a30.07,30.07,0,0,0,2.68,2.37c2.73,2.27,5.67,4.33,8.16,6.83,2.75,2.76,5.74,5.48,6.91,9.42.92,3.1,1.58,6.14.45,9.47a27.78,27.78,0,0,1-2.47,6,12.45,12.45,0,0,1-6.39,5,15.8,15.8,0,0,1-10.95.09c-2.81-.88-5.74-1.35-8.61-2a11.1,11.1,0,0,1-7.47-6,44.79,44.79,0,0,0-2.35-3.87,1.88,1.88,0,0,1,.12-2.59,4.43,4.43,0,0,1,2.8-.23c1.84.25,3.65.87,5.49,1,3.08.26,3.11-.39,4.59,2.74a14.39,14.39,0,0,0,1.56,2.28c.3.42.7.76,1,1.17,1.79,2.24,2.94,2.39,5.35.67A11.52,11.52,0,0,0,411.1,133.32Z"/><path class="cls-1" d="M481.21,141.89c0-4.11,0-8.22,0-12.33,0-4.6-.32-9.21-.19-13.81.14-5.41.59-10.82.95-16.22a29.89,29.89,0,0,1,.48-3.77c.24-1.21.88-1.5,2-1.09a28.23,28.23,0,0,0,8.28,1.57c1.62.09,2.1.38,2.33,1.94a45.32,45.32,0,0,1,.39,4.65c.05,1,.24,1.32,1.45,1.26a73.12,73.12,0,0,1,7.54.23c1.23.06,2.46.25,3.7.24,3.16,0,6,1.42,9.11,1.76,1.19.13,2.38.21,3.57.3s1.66.64,1.38,1.89c-.48,2.14-.72,2.24-2.88,2.18-4.82-.13-9.65-.26-14.47-.2a6.33,6.33,0,0,0-4.52,1.76c-1.32,1.3-2.76,2.49-4.12,3.74a1.44,1.44,0,0,0-.51.78c-.18,1.42-.33,2.84-.41,4.27-.19,3.77-.35,7.54-.5,11.31-.11,2.62-.16,5.24-.3,7.86-.16,2.85-.33,5.71-.66,8.55-.15,1.34-.84,1.61-2.16,1.17-1.68-.58-3.32-1.28-5-1.72a26,26,0,0,0-4.06-.47,1.4,1.4,0,0,1-1.43-1.66c0-1.4,0-2.8,0-4.19Z"/><path class="cls-1" d="M553.82,115.16c1.16.08,2.22.19,3.27.23,1.86.08,2.27.45,2.28,2.28,0,5.54-.16,11.09.07,16.62a31.82,31.82,0,0,0,1.5,7.81c.75,2.5,2.85,3.63,5.38,3.91,1.93.22,1.93.21,1.47,2.05-.52,2-1,2.35-3,1.87-3.33-.78-6.7-1.46-10-2.42A58,58,0,0,1,548.6,145c-1.14.73-2.45,1.7-3.88,2.44a11.44,11.44,0,0,1-8.69.68c-2.76-.76-5.55-1.42-8.36-1.92-5.43-1-8.74-5.39-9.11-10.54a29.88,29.88,0,0,1,3.53-15.91,23.59,23.59,0,0,1,6.09-7.74c4.08-3.3,8.66-3.4,13.51-2.24,2.35.57,4.77.85,7.15,1.35a22.27,22.27,0,0,1,3.86,1.15C554,112.77,554.21,113.52,553.82,115.16Zm-8.23.08c-6.19,1.71-9.15,6.19-11.35,11.33-2,4.59-2.39,9.26,0,14.15a30.83,30.83,0,0,0,2.56-2.32,29,29,0,0,0,5.56-9.24C543.92,124.74,544.58,120.16,545.59,115.24Z"/><path class="cls-1" d="M699.61,103.06c1.29-1,2.43-1.84,3.54-2.73a15,15,0,0,1,6.58-3.2,10,10,0,0,1,3.41.08c2.94.49,5.83,1.28,8.78,1.6,4.08.45,6.25,3,7.28,6.8,1.25,4.55.82,9.16.77,13.76,0,1.6-.37,3.2-.45,4.81,0,.78.28,1.57.27,2.35-.08,5.74-.15,11.48-.34,17.21a53.09,53.09,0,0,1-.78,5.56c-.12.8-.67.94-1.34.75-1.64-.49-3.25-1.07-4.91-1.5A31.67,31.67,0,0,0,719,148c-1.86-.26-2.12-.63-2.09-2.48.06-3.55,0-7.09.07-10.64,0-1.39.16-2.78.13-4.17-.08-4.22-.14-8.45-.37-12.66-.19-3.49-.59-7-.92-10.45a14.2,14.2,0,0,0-.35-1.53l-1.56,1.23a46.23,46.23,0,0,0-11.86,13.29,13.24,13.24,0,0,0-1.78,7.19c.24,5.62.24,11.25.27,16.88a6.85,6.85,0,0,1-.62,2.65,1.55,1.55,0,0,1-2,.82c-3.2-.8-6.42-1.54-9.65-2.26a1.61,1.61,0,0,1-1.41-1.77c0-1.46,0-2.93-.11-4.39-.27-6.34-.57-12.67-.8-19-.16-4.23-.31-8.47-.27-12.7a84.29,84.29,0,0,1,.62-9.4c.29-2.31,1.17-2.6,3.45-2,2.46.68,4.85,1.86,7.55,1.27.85-.19,1.36.34,1.52,1.16C699.1,100.37,699.34,101.65,699.61,103.06Z"/><path class="cls-1" d="M681.59,123a35.9,35.9,0,0,1-2.65,11,64.69,64.69,0,0,1-3.75,7.61c-2,3.67-5.41,6-9.05,7.75a9.58,9.58,0,0,1-7.13.2,52.23,52.23,0,0,0-8.23-2c-4.27-.57-7.37-2.78-10-6a21.19,21.19,0,0,1-3.65-7.31c-2.4-7.86-1.09-15.4,1.87-22.84a24.52,24.52,0,0,1,4.67-8c2.32-2.48,5-3.54,8.42-2.54A40.81,40.81,0,0,0,657,102a17.17,17.17,0,0,0,2.67-.1,5.76,5.76,0,0,1,1.86.22,25.9,25.9,0,0,0,8.8,1.56,4.45,4.45,0,0,1,4.12,2.17,14.12,14.12,0,0,0,2.4,2.28,9.56,9.56,0,0,1,2.4,4.59c.29,1.15.83,2.23,1.08,3.38C680.81,118.39,681.18,120.7,681.59,123Zm-25.68,18.63a18.93,18.93,0,0,0,7-7.08,22.8,22.8,0,0,0,3.64-10,34.3,34.3,0,0,0-.29-7,18,18,0,0,0-2.93-7.75,3.58,3.58,0,0,0-1.71-1.13c-1-.37-2.23-.4-3.22-.86a2.42,2.42,0,0,0-3.09.72,15.23,15.23,0,0,0-3.69,7.29c-1.44,6.54-1.81,13.15.79,19.52A58.24,58.24,0,0,0,655.91,141.64Z"/><path class="cls-1" d="M612.61,137.53c.46-8,.77-15.06,2.39-22,.5-2.17,1.18-4.3,1.84-6.43.33-1.06,1.13-1.36,2.33-.95a28.55,28.55,0,0,0,8.64,1.63c1.44,0,2,.55,1.84,2-.2,2.3-.59,4.59-.87,6.88-.41,3.44-.92,6.88-1.14,10.33a100.91,100.91,0,0,0-.15,10.86c.16,3.43.34,3.44,3.71,4a22.72,22.72,0,0,0,2.61.17c1.29.05,1.64.53,1.31,1.74-.1.34,0,.74-.09,1.06s-.36,1.1-.72,1.27a37,37,0,0,1-4.86,1.93,4.57,4.57,0,0,1-2.22-.13c-3-.68-5.91-1.64-8.93-2.08a5.4,5.4,0,0,1-4.77-4.5A53.69,53.69,0,0,1,612.61,137.53Z"/><path class="cls-1" d="M615.23,91.54a12.32,12.32,0,0,1,.34-1.43c.39-1.13,1-1.35,2.27-1.07a15.69,15.69,0,0,0,2.38.14,3,3,0,0,1,1,.09,22.55,22.55,0,0,0,8,1.67c.8.06,2-.36,2.14.68a7.34,7.34,0,0,1-.86,3.08c-.2.52-.72.91-.93,1.43-.62,1.47-1.39,1.71-2.91,1.27-2.7-.77-5.42-1.45-8.18-2A3.75,3.75,0,0,1,615.23,91.54Z"/><path class="cls-1" d="M760.38,133.32a13,13,0,0,0-3.25-8.78,63.37,63.37,0,0,0-6.52-6.59c-2.41-2.12-5.1-3.92-7.56-6-1.63-1.37-3.12-3-3.31-5.24a11.51,11.51,0,0,1,.42-4.68,14.15,14.15,0,0,1,7.18-7.77,7.7,7.7,0,0,1,5.1-.74c2.13.37,4.23,1,6.36,1.35,1.84.32,3.72.4,5.56.74,2.59.48,5.18,1,7.24,2.87a3.17,3.17,0,0,1,.35,4.08,1.55,1.55,0,0,1-1.28.26c-2.92-.65-5.82-1.35-8.72-2-.27-.07-.63-.1-.78-.29-.91-1.11-1.88-.63-2.91-.22a11.9,11.9,0,0,0-4.93,4.25c-1.23,1.65-.84,3.58,1,5.49A27.51,27.51,0,0,0,757,112.4c2.73,2.27,5.67,4.33,8.16,6.83,2.74,2.76,5.74,5.48,6.9,9.42.92,3.1,1.58,6.14.45,9.47a27.78,27.78,0,0,1-2.47,6,12.47,12.47,0,0,1-6.38,5,15.83,15.83,0,0,1-11,.09c-2.8-.88-5.74-1.35-8.6-2a11.12,11.12,0,0,1-7.48-6,44.79,44.79,0,0,0-2.35-3.87,1.87,1.87,0,0,1,.13-2.59,4.39,4.39,0,0,1,2.79-.23c1.84.25,3.65.87,5.5,1,3.08.26,3.1-.39,4.58,2.74a14.39,14.39,0,0,0,1.56,2.28c.31.42.7.76,1,1.17,1.78,2.24,2.94,2.39,5.35.67A11.48,11.48,0,0,0,760.38,133.32Z"/><path class="cls-1" d="M311.26,138.26c.13-6.29.19-11.27.35-16.25.15-4.74.43-9.48.61-14.21.18-4.34.37-8.68.41-13,0-2.9-.22-5.8-.25-8.7,0-2.58.06-5.16.09-7.74s0-5,.08-7.48a20.7,20.7,0,0,1,.64-4.21c.3-1.21,1.16-1.35,2-.49.19.19.41.43.63.45,2.56.24,5.12.45,7.68.65a2.11,2.11,0,0,1,2,2c.2,1.89.28,3.79.31,5.69.1,5.22.21,10.45.2,15.67,0,4.52-.21,9-.27,13.57,0,2.9,0,5.81,0,8.71,0,5.37-.16,10.74-.14,16.11,0,4.94.23,9.88.27,14.82a35.9,35.9,0,0,1-.37,4.74c-.16,1.31-.9,1.75-2.22,1.4-2.85-.75-5.69-1.54-8.53-2.31-.12,0-.24-.11-.35-.09-1.72.23-2-.88-2.21-2.23C311.85,142.57,311.46,139.77,311.26,138.26Z"/><path class="cls-1" d="M292.11,138.26c.12-6.29.18-11.27.34-16.25.16-4.74.43-9.48.62-14.21.17-4.34.36-8.68.41-13,0-2.9-.22-5.8-.26-8.7,0-2.58.07-5.16.09-7.74s0-5,.08-7.48a22.2,22.2,0,0,1,.64-4.21c.3-1.21,1.16-1.35,2-.49.18.19.41.43.63.45,2.55.24,5.11.45,7.67.65a2.1,2.1,0,0,1,2,2c.2,1.89.28,3.79.32,5.69.1,5.22.21,10.45.19,15.67,0,4.52-.2,9-.27,13.57,0,2.9,0,5.81,0,8.71,0,5.37-.16,10.74-.14,16.11,0,4.94.23,9.88.28,14.82a35.91,35.91,0,0,1-.38,4.74c-.16,1.31-.9,1.75-2.21,1.4-2.85-.75-5.69-1.54-8.54-2.31-.11,0-.23-.11-.34-.09-1.73.23-2.05-.88-2.21-2.23C292.7,142.57,292.31,139.77,292.11,138.26Z"/></g></svg>