<svg xmlns="http://www.w3.org/2000/svg" viewBox="0 0 1000 202.41"><defs><style>.cls-1{fill:#8872a4;}</style></defs><g id="Layer_16_Image" data-name="Layer 16 Image"><path class="cls-1" d="M335.43,105.57c.57,14.41-.41,28.68-1.73,43.1,1.71,0,3.56.14,5.38,0,3.33-.32,6.64-1.16,9.95-1.16a68.53,68.53,0,0,1,10.66,1.15c3.75.6,7.44,1.5,11.18,2.19,1.37.25,2.79.22,4.18.42,1.87.26,2.47,1.31,1.85,3.08a6.5,6.5,0,0,0-.25.86c-.52,2.75-.53,2.67-3.21,3.17a95.87,95.87,0,0,1-19.26,1.75c-6.91-.11-13.84-.15-20.7-.82-4.08-.4-8.05-2-12.08-3a38.57,38.57,0,0,0-5.3-1.07c-5.36-.56-7.44-2.57-7.31-7.9.13-5.86.58-11.71.92-17.56.24-4.15.55-8.3.78-12.44.3-5.45.68-10.9.81-16.36.11-5.25-.24-10.52,0-15.77.24-6.15.65-12.32,1.39-18.43.4-3.29,1.46-6.63,4.35-8.78a9.77,9.77,0,0,1,3.7-1.42c2.27-.48,4.61-.65,6.89-1.11a50.07,50.07,0,0,1,17.94,0c3.2.5,6.43.78,9.62,1.33,1.91.33,3.75,1.11,5.66,1.46,2.31.42,4.67.58,7,.88a3.71,3.71,0,0,1,1.41.4c1.65,1,1.85,1.84,1.12,4.05-.48,1.49-1.7,1.37-2.85,1.28-5.3-.37-10.59-.82-15.9-1.13a23.74,23.74,0,0,0-4.75.34c-3.07.46-6.13,1-9.18,1.56-2.88.54-3,.84-3.23,4.15-.25,4.5-.07,9,0,13.53.08,3.54.37,7.08.48,10.63,0,1.33.34,1.84,1.9,1.85a89,89,0,0,1,11.07.65c3.15.42,6.22,1.42,9.36,2a33.71,33.71,0,0,0,4,.24c2.34.15,3,1,2.43,3.29a5.92,5.92,0,0,1-.41,1.74c-.33.54-.91,1.21-1.45,1.28-3.18.4-6.38.61-9.56.94-5.42.58-10.82,0-16.21-.4C335.92,105.56,335.73,105.57,335.43,105.57Z"/><path class="cls-1" d="M760.07,63.14c2.48.65,1.8,2.9,2,4.44a65.13,65.13,0,0,1,.64,9c0,3.38-.2,6.76-.43,10.13-.28,3.89-.54,7.8-1.07,11.66-.9,6.58-2,13.15-3,19.71-.93,5.82-1.92,11.62-2.88,17.43q-1.08,6.51-2.15,13c-.05.33-.08.67-.14,1.29a21.54,21.54,0,0,1,3.32,0c3.19.53,6.36,1.22,9.55,1.77,2.16.37,4.36.56,6.51,1,1.08.2,2.79.51,3,1.14.34,1.15-.18,2.59-.47,3.87-.05.21-.77.39-1.17.38a102.9,102.9,0,0,0-18.55,1.26c-7.52,1.18-15.09.9-22.63.4-3.09-.21-6.1-1.5-9.15-2.26a35.25,35.25,0,0,0-4.38-.94c-1-.13-2.1,0-2.39-1.25s.63-3.33,1.76-3.6a18.65,18.65,0,0,1,3.71-.53c4.35-.16,8.71-.25,13.06-.37,1,0,1.43-.32,1.57-1.46,1.15-9.65,2.49-19.27,3.58-28.92.49-4.37.43-8.8.82-13.19.61-6.88,1.4-13.74,2.1-20.61.3-3,.55-6,.89-9s.8-6.14,1.2-9.2a4.57,4.57,0,0,0-.05-.85c-2.59.69-5.1,1.35-7.6,2s-4.9,1-7,2.07c-2,1-3.45.69-5.3.06-2.08-.71-4.3-1-6.45-1.46-1.07-.24-2.45,0-2.84-1.46a4.46,4.46,0,0,1,1.71-4.24,16.14,16.14,0,0,1,2.78-1.48c7.8-3,15.53-6.21,23.82-7.62,3-.5,5.93-.73,8.89-1.17s6-1,9-1.49c3.22-.48,6.45-.87,9.68-1.21a5.08,5.08,0,0,1,1.73.44A29.86,29.86,0,0,0,783,53.48c1.77-.09,2.29.69,1.86,2.39a5.76,5.76,0,0,1-.66,2.09,2.36,2.36,0,0,1-1.77.89,19.92,19.92,0,0,0-9.14,1.29,28.28,28.28,0,0,1-3.48.75C766.54,61.63,763.3,62.39,760.07,63.14Z"/><path class="cls-1" d="M185.93,63.14c2.48.65,1.81,2.9,2,4.44a65.13,65.13,0,0,1,.64,9c0,3.38-.2,6.76-.44,10.13-.27,3.89-.53,7.8-1.06,11.66-.9,6.58-2,13.15-3,19.71-.93,5.82-1.92,11.62-2.88,17.43q-1.08,6.51-2.15,13c-.05.33-.08.67-.15,1.29a21.52,21.52,0,0,1,3.32,0c3.2.53,6.37,1.22,9.56,1.77,2.16.37,4.36.56,6.51,1,1.08.2,2.78.51,3,1.14.34,1.15-.18,2.59-.47,3.87-.05.21-.77.39-1.17.38a102.9,102.9,0,0,0-18.55,1.26c-7.52,1.18-15.09.9-22.63.4-3.09-.21-6.1-1.5-9.15-2.26a35.25,35.25,0,0,0-4.38-.94c-1-.13-2.1,0-2.39-1.25s.63-3.33,1.76-3.6a18.65,18.65,0,0,1,3.71-.53c4.35-.16,8.71-.25,13.06-.37,1,0,1.43-.32,1.57-1.46,1.15-9.65,2.49-19.27,3.58-28.92.49-4.37.43-8.8.82-13.19.61-6.88,1.4-13.74,2.1-20.61.3-3,.54-6,.89-9s.8-6.14,1.2-9.2a5.65,5.65,0,0,0,0-.85c-2.59.69-5.1,1.35-7.6,2s-4.9,1-7,2.07c-2,1-3.45.69-5.3.06-2.08-.71-4.3-1-6.45-1.46-1.07-.24-2.45,0-2.84-1.46a4.46,4.46,0,0,1,1.71-4.24,16.14,16.14,0,0,1,2.78-1.48c7.8-3,15.53-6.21,23.82-7.62,2.95-.5,5.93-.73,8.89-1.17s6-1,9-1.49c3.22-.48,6.45-.87,9.68-1.21a5.08,5.08,0,0,1,1.73.44,29.86,29.86,0,0,0,9.25,1.45c1.77-.09,2.29.69,1.86,2.39A5.76,5.76,0,0,1,210,58a2.36,2.36,0,0,1-1.77.89,19.92,19.92,0,0,0-9.14,1.29,28.28,28.28,0,0,1-3.48.75Z"/><path class="cls-1" d="M880.9,102c-.43,4.13-.85,8.26-1.32,12.38-.34,3-.77,6-1.13,9-.46,3.77-.75,7.56-1.35,11.3-1.07,6.65-2.29,13.27-3.52,19.9a17.34,17.34,0,0,1-1.3,3.94c-.63,1.4-1.94,2-3.17,1.15-2.19-1.52-4.73-1.18-7.08-1.77-1.19-.31-2.47-.27-3.63-.64a2.7,2.7,0,0,1-1.49-1.46,7.36,7.36,0,0,1-.24-2.74c.1-1.79.31-3.58.5-5.36.43-4.09.85-8.18,1.34-12.26.81-6.85,1.69-13.69,2.5-20.53.44-3.77.8-7.54,1.16-11.32s.61-7.66,1-11.48c.53-4.84,1.11-9.68,1.8-14.5.52-3.71,1.2-7.39,1.87-11.07a22.41,22.41,0,0,1,1-4c.87-2.34,1.66-2.44,4-1.87a84.2,84.2,0,0,0,11.76,2.18c2.5.24,4.24,1.23,5.12,3.29,1.85,4.34,3.43,8.79,5.07,13.22,1,2.6,1.84,5.24,2.71,7.87,1.3,3.9,2.52,7.82,3.84,11.72,1.21,3.59,2.49,7.16,4,10.76.08-.52.13-1,.24-1.56,1.63-7.27,3.07-14.59,5-21.79,2.14-8.14,4.74-16.17,7-24.27,1-3.69,1.78-7.46,2.79-11.16.71-2.57,1.6-5.08,2.48-7.6a1.5,1.5,0,0,1,2.09-1c2.66.74,5.35,1.41,8.06,2a26.69,26.69,0,0,0,4.28.47c2,.09,2.69.69,2.36,2.66-.62,3.64-1.26,7.28-2.05,10.89Q933.91,71.21,931,84c-1.29,5.61-2.79,11.17-4,16.79q-1.9,9-3.41,18.13c-1.37,8.16-2.53,16.36-3.83,24.53a52.83,52.83,0,0,1-1.26,5.4c-.44,1.61-1.59,2.07-3.34,1.66-3.15-.75-6.32-1.44-9.49-2.11a56.5,56.5,0,0,1-6.26-1.31,5.1,5.1,0,0,1-2.82-2.36c-1.69-3.94-3.05-8-4.56-12-.23-.61-.65-1.15-.87-1.76-1.23-3.38-2.43-6.77-3.63-10.16-1.38-3.91-2.78-7.82-4.09-11.76-.78-2.31-1.41-4.68-2.11-7Z"/><path class="cls-1" d="M476.91,102c-.43,4.13-.85,8.26-1.31,12.38-.35,3-.78,6-1.14,9-.46,3.77-.75,7.56-1.35,11.3-1.07,6.65-2.29,13.27-3.52,19.9a17.34,17.34,0,0,1-1.3,3.94c-.63,1.4-1.94,2-3.17,1.15-2.19-1.52-4.73-1.18-7.08-1.77-1.19-.31-2.47-.27-3.63-.64a2.65,2.65,0,0,1-1.48-1.46,7,7,0,0,1-.24-2.74c.1-1.79.3-3.58.49-5.36.44-4.09.85-8.18,1.34-12.26.81-6.85,1.69-13.69,2.5-20.53.44-3.77.8-7.54,1.16-11.32s.61-7.66,1-11.48c.53-4.84,1.12-9.68,1.8-14.5.52-3.71,1.21-7.39,1.87-11.07a23.3,23.3,0,0,1,1-4c.87-2.34,1.66-2.44,4.05-1.87a84.47,84.47,0,0,0,11.76,2.18c2.5.24,4.24,1.23,5.12,3.29,1.85,4.34,3.43,8.79,5.07,13.22,1,2.6,1.84,5.24,2.71,7.87,1.3,3.9,2.53,7.82,3.84,11.72,1.21,3.59,2.49,7.16,4,10.76.08-.52.13-1,.24-1.56,1.63-7.27,3.07-14.59,5-21.79,2.13-8.14,4.73-16.17,7-24.27,1-3.69,1.78-7.46,2.8-11.16.7-2.57,1.59-5.08,2.47-7.6a1.5,1.5,0,0,1,2.09-1c2.66.74,5.35,1.41,8.06,2a26.69,26.69,0,0,0,4.29.47c2,.09,2.68.69,2.35,2.66-.62,3.64-1.26,7.28-2,10.89Q529.92,71.21,527,84c-1.29,5.61-2.78,11.17-4,16.79q-1.9,9-3.41,18.13c-1.36,8.16-2.53,16.36-3.83,24.53a52.79,52.79,0,0,1-1.25,5.4c-.45,1.61-1.6,2.07-3.35,1.66-3.15-.75-6.32-1.44-9.49-2.11a56.5,56.5,0,0,1-6.26-1.31,5.1,5.1,0,0,1-2.82-2.36c-1.69-3.94-3.05-8-4.56-12-.23-.61-.65-1.15-.87-1.76-1.23-3.38-2.43-6.77-3.63-10.16-1.38-3.91-2.78-7.82-4.09-11.76-.78-2.31-1.41-4.68-2.1-7Z"/><path class="cls-1" d="M834.76,66.35c1.62,1.46,3,2.77,4.48,4,1,.89,2.14,1.68,3.14,2.59,5.47,5,8.1,11.33,8.78,18.6.24,2.59.74,5.16,1,7.75a59.29,59.29,0,0,1-.94,15.16,86,86,0,0,1-8.1,25.09c-2.12,4.17-5.29,7.53-8,11.23a26,26,0,0,1-10,7.77c-4.76,2.3-9.66,1.68-14.61.28-4.64-1.31-9.37-2.29-14.09-3.31s-9-2.64-12-6.58a41.37,41.37,0,0,1-4.18-5.76,45.12,45.12,0,0,1-4.31-10,38.28,38.28,0,0,1-1-13.68c.44-3.54.21-7.18.78-10.69,1.72-10.56,5-20.61,11.18-29.48C792,72,798.19,65.93,806.68,62.72a24.33,24.33,0,0,1,17.63.27c2.11.78,4.54.69,6.84,1,.61.08,1.24,0,1.85.08C834.59,64.24,835.08,65,834.76,66.35Zm-13.34,5.56c-3.94,3-8.1,5.46-11.19,9.61-5,6.67-8.86,13.77-10.78,21.83a106.42,106.42,0,0,0-2,13.24,41.4,41.4,0,0,0,1.58,17.09c1.23,3.83,3.55,7.37,5.73,10.83,1.86,3,2.07,2.82,5.09,1.12a5.21,5.21,0,0,0,.8-.46,50.3,50.3,0,0,0,10.18-11.57,65.86,65.86,0,0,0,5.39-11,57.83,57.83,0,0,0,4.47-18.78c.29-6.2.22-12.37-1.41-18.4a28.43,28.43,0,0,0-2.73-7C825.23,76.1,823.26,74.17,821.42,71.91Z"/><path class="cls-1" d="M259,119.36c1.75-4.43,3.57-9,5.33-13.51,2.25-5.79,4.4-11.63,6.68-17.41,1.2-3.06,2.63-6,3.85-9.06,1-2.43,1.65-5,2.71-7.37,2-4.41,4.11-8.74,6.21-13.09a46.49,46.49,0,0,1,2.33-4.35c1.15-1.83,2-1.85,4.05-1.38,4.1.93,8.23,1.77,12.39,2.35,2.69.38,3.55,1.53,2.51,4-.93,2.23-1.8,4.5-2.53,6.81s-1.17,4.8-1.93,7.14c-1.22,3.75-2.56,7.47-3.94,11.18-1.73,4.67-3.6,9.29-5.32,14-4.63,12.55-9.2,25.13-13.81,37.69q-3.6,9.78-7.28,19.52c-1.72,4.56-2.93,5-7.47,3.26-1.09-.43-2.3-.61-3.37-1.08-3.13-1.38-6.48-1.53-9.79-1.91s-3.73-.22-4.9-4.11c-1.73-5.76-3-11.65-4.62-17.46-1.7-6.24-3.31-12.53-5.37-18.66-2.51-7.49-5.52-14.81-8.17-22.26-1.38-3.9-2.55-7.89-3.64-11.89-1.35-4.93-2.76-9.86-3.69-14.88a94.86,94.86,0,0,1-.93-11.45,5.75,5.75,0,0,1,.47-2.25c.54-1.43,1.29-1.58,2.8-1.26,3.66.77,7.35,1.45,11,2,1.29.2,2.32.57,2.71,1.88,1.12,3.73,2.18,7.49,3.3,11.22q.71,2.34,1.56,4.64c1.17,3.11,2.36,6.23,3.61,9.31,2.49,6.16,5.1,12.28,7.55,18.46C254,106.12,256.51,112.8,259,119.36Z"/><path class="cls-1" d="M655.25,66.91c-5.64.21-11.17.45-16.7.58a12.09,12.09,0,0,1-3.15-.64c-3.39-.82-6.62-2.24-10.19-2.3-1,0-2.18-.08-2.38-1.47a3.21,3.21,0,0,1,1.89-3.55c2.37-.66,4.78-1.21,7.2-1.69,4.67-.93,9.35-1.79,14-2.67l15.61-2.89c1.76-.32,3.52-.67,5.3-.9,6.13-.82,12.19.06,18.25.94,3.69.53,7.51.58,11.09,1.52a98.62,98.62,0,0,0,15.13,2.75,8.89,8.89,0,0,1,2.61.86c.83.37,1,1,.65,1.92a8.24,8.24,0,0,0-.37,2.06,1.73,1.73,0,0,1-2.15,1.64c-3.89-.36-7.78-.76-11.68-1a71.17,71.17,0,0,0-8,0c-4.84.28-9.68.71-14.52,1.11-1.22.1-2.43.31-3.64.52a1.51,1.51,0,0,0-1.44,1.78c.14,3.17.27,6.34.25,9.51,0,5.12-.23,10.24-.35,15.36,0,1.49,0,3-.11,4.47-.53,5.58,0,11.18-.42,16.76-.58,7.79-.88,15.61-1.6,23.39-.38,4.07-1.43,8.09-2.17,12.13-.4,2.27-.74,4.55-1.18,6.81-.34,1.76-.78,3.5-1.21,5.42l-1-.49-.88,1.2-2.15-1.69-.42,1.22c-3.24-.7-6.5-1.35-9.72-2.14s-3.19-.84-2.92-4.19c.33-4.06.47-8.13.75-12.2.26-3.8.53-7.61.9-11.41.74-7.52,1.65-15,2.28-22.55s1-15,1.51-22.46q.56-8.61,1.05-17.22A2.66,2.66,0,0,0,655.25,66.91Z"/><path class="cls-1" d="M99.2,150.85c2.17,0,4.33.12,6.46,0,4.15-.28,8.3-.69,12.44-1.09,1-.1,2-.49,3-.6a16.71,16.71,0,0,1,8.35,1c1.33.55,3.05-.27,4.13,1.4.2.32,1.8-.25,2.75-.43,1.59-.31,2.06.3,2.05,1.77,0,4.28-3.16,5.3-6.31,5.83a107.18,107.18,0,0,1-10.91.88c-3.14.2-6.28.41-9.43.5s-6.58,0-9.87.06c-5,.09-9.42-2.36-14.24-3.06-2.48-.37-4.93-1-7.39-1.54a2.62,2.62,0,0,1-2.34-3c.21-2.07.53-4.14.94-6.18.81-4,1.79-7.91,2.56-11.89s1.47-8.2,2.09-12.31c.82-5.53,1.6-11.07,2.27-16.62C87,95.65,88,85.72,89.23,75.82c.68-5.45,1.61-10.86,2.45-16.29a9.18,9.18,0,0,1,.56-1.92c.41-1.07,1.2-1.26,2.25-1,2.91.79,5.83,1.57,8.76,2.26a19.4,19.4,0,0,0,2.42.07c2,.21,3,1.14,2.93,3.19-.17,7.09-.36,14.19-.72,21.27-.31,6.11-.72,12.22-1.35,18.3-.84,8.23-1.7,16.47-3,24.64-1.23,8-3,15.86-4.48,23.78A5.33,5.33,0,0,0,99.2,150.85Z"/><path class="cls-1" d="M610.59,84.47a14.92,14.92,0,0,0,3,.26,14.47,14.47,0,0,0,2.57-.82c1.87-.57,3.74-1.16,5.64-1.65,1.36-.35,2.79-.47,4.15-.84,2.78-.75,5.17.79,7.75,1.17,3,.46,6.05,1,9.09,1.37,2.48.29,3.47,2.38,2.3,4.57a3.44,3.44,0,0,1-2.63,1.84c-3.87.85-7.74,1.67-11.6,2.54C624.9,94.25,619,95.62,613,97c-1.14.26-1.3.66-1,1.88a67,67,0,0,1,1.59,8.55c.53,4.25,1,8.53,1.22,12.8.21,3.72.07,7.46.07,11.19,0,4.23,0,8.47,0,12.7a67.54,67.54,0,0,1-1.28,13.9c-.4,1.85-1.4,2.47-3.18,2-4.37-1.19-8.73-2.38-13.11-3.52-2.08-.55-2.14-.51-1.91-2.62.83-7.68.47-15.39.27-23.07-.12-4.27-1-8.52-1.4-12.79-.37-3.79-.56-7.6-.89-11.39-.16-1.8-.45-3.58-.7-5.56-2,.39-3.81.71-5.63,1.1-4.8,1.05-9.56,2.32-14.4,3.13-2.57.43-3.65,1.48-4.12,4s-1.69,5-2.44,7.49c-1.41,4.78-2.83,9.56-4,14.39-.79,3.24-1.19,6.57-1.8,9.85-.23,1.26-.51,2.5-.82,3.74a1.91,1.91,0,0,1-2.67,1.48c-2.31-.66-4.62-1.33-7-1.87s-5.06-.91-7.55-1.54a2.8,2.8,0,0,1-1.48-1.59,4.75,4.75,0,0,1-.06-2.1q.51-7.48,1.06-15c.25-3.53.51-7.06.74-10.59a20,20,0,0,0,.05-3.37,1.58,1.58,0,0,0-1.05-1c-2-.46-4-.81-6-1.14-.93-.15-2-.09-2.27-1.27a3,3,0,0,1,1.56-3.22c1.51-.66,11-1.19,12.57-1.76.13,0,17.42-35.49,17.45-35.26,1-1.5,2-3,3-4.38a19.61,19.61,0,0,1,9.4-7.62,12.78,12.78,0,0,1,8.53-.13,55.49,55.49,0,0,0,10.21,2c2.59.33,5.33.24,7.12,2.46a27.75,27.75,0,0,1,3,5.06c1.88,3.84,2.19,8.08,3,12.2C609.61,78.93,610.11,81.8,610.59,84.47Zm-22.2-16.85a27,27,0,0,0-2.75,3.19A125.1,125.1,0,0,0,577.9,86c-.76,1.75-1.48,3.51-2.3,5.44.68-.08,1.1-.12,1.51-.18l12.37-2c1.4-.23,2-1.18,1.78-2.74-.5-3.31-1-6.62-1.47-9.93C589.35,73.71,588.89,70.84,588.39,67.62Z"/></g></svg>