<svg xmlns="http://www.w3.org/2000/svg" viewBox="0 0 200 43.84"><defs><style>.cls-1{fill:#8872a4;}</style></defs><g id="Layer_2" data-name="Layer 2"><g id="Layer_1-2" data-name="Layer 1"><path class="cls-1" d="M8.57,14.29a7.34,7.34,0,0,1,.74.7c.55.7,1.13,1.38,1.61,2.13C12,18.8,13,20.52,14.07,22.21c.07.12.21.27.32.27.41,0,.38.29.33.54-.17.75-.36,1.48-.54,2.22a.61.61,0,0,1-1,.38,1.54,1.54,0,0,1-.5-.45c-.69-1-1.35-2.1-2.05-3.14a22.24,22.24,0,0,0-3.22-4.42c-.57-.51-1.18-1-1.77-1.45A1,1,0,0,0,5.4,16c0,.53,0,1,0,1.53,0,.78.1,1.55.13,2.33s.06,1.39,0,2.09a8.35,8.35,0,0,1-.24,1.29c-.14.72-.3,1.44-.44,2.17-.08.45-.21.56-.63.47s-.61-.31-.51-.72a9.69,9.69,0,0,0,0-2.69c0-1.85-.17-3.71-.26-5.56-.07-1.5-.14-3-.2-4.49s-.11-2.82-.12-4.23c0-.82.1-1.65.16-2.47a4.7,4.7,0,0,0-.62.46A9.91,9.91,0,0,0,1.37,7.63,3.77,3.77,0,0,0,1,8.87c0,.21,0,.45-.32.47A.54.54,0,0,1,0,8.86,5.12,5.12,0,0,1,.08,8a17,17,0,0,1,.3-1.76A5.09,5.09,0,0,1,1,4.87a9.63,9.63,0,0,1,2.49-2.6A12.15,12.15,0,0,1,7.32.39,10.66,10.66,0,0,1,11.16,0a6.53,6.53,0,0,1,4.37,1.84,4.1,4.1,0,0,1,1.13,4c-.19.89-.4,1.78-.62,2.67A4.88,4.88,0,0,1,14.47,11c-.64.55-1.38,1-2.07,1.49A18.55,18.55,0,0,1,9.33,14C9.11,14.11,8.88,14.18,8.57,14.29Zm-3.4-3v.39c0,.24,0,.37.33.26l.72-.24c1.17-.4,2.37-.74,3.51-1.22a16.12,16.12,0,0,0,4.71-2.89c.59-.54.71-.89.38-1.55a3.44,3.44,0,0,0-.53-.83,5.28,5.28,0,0,0-3.4-1.68A11,11,0,0,0,5.05,4.67a.44.44,0,0,0-.3.54,7.14,7.14,0,0,1,.14,1C5,7.87,5.07,9.52,5.17,11.28Z"/><path class="cls-1" d="M124.4,11.16a7.23,7.23,0,0,1,1,0,9.37,9.37,0,0,1,1.75.36,4.35,4.35,0,0,1,3.07,3.33,4.92,4.92,0,0,1-.15,2.44c-.22.8-.37,1.63-.56,2.44a6.18,6.18,0,0,1-1.8,3.21,8.71,8.71,0,0,1-1.46,1.2,5.65,5.65,0,0,1-3.08.92,6.69,6.69,0,0,1-3-.7,1.71,1.71,0,0,0-.41-.11c-.1.47-.18.91-.28,1.35s-.19.45-.64.36a.52.52,0,0,1-.49-.63,15.46,15.46,0,0,0,0-1.67c0-.12-.17-.26-.28-.36s-.37-.24-.51-.39a.93.93,0,0,1-.28-1c.18-.7.28-1.41.42-2.12,0-.19.06-.45.19-.55a.65.65,0,0,0,.22-.67c-.06-.8-.12-1.61-.17-2.42-.15-2.46-.3-4.92-.43-7.38,0-.58,0-1.17,0-1.8a1.06,1.06,0,0,0-.65,1c0,.25,0,.45-.35.41S116,8.26,116,7.9a2.43,2.43,0,0,1,.08-.53c.12-.66.22-1.32.37-2a2.13,2.13,0,0,1,.3-.77c.31-.41.69-.78,1-1.16l.35-.4c0-.06.09-.13.16-.16.62-.29,1.25-.59,1.89-.85a6.13,6.13,0,0,1,4.34-.26,3,3,0,0,1,2.13,2.36,2.51,2.51,0,0,1,0,1,29.21,29.21,0,0,1-.78,3.26,18.36,18.36,0,0,1-1.17,2.35C124.6,10.88,124.52,11,124.4,11.16Zm-.33,3.59a7.93,7.93,0,0,0-1.29,0c-.83.15-1.65.37-2.49.55a.43.43,0,0,0-.39.53c0,.59.09,1.17.13,1.75,0,.94.09,1.88.16,2.82a.41.41,0,0,0,.16.33,5.71,5.71,0,0,0,4.41.54,6.94,6.94,0,0,0,3.75-3.13.47.47,0,0,0,.05-.33,3.63,3.63,0,0,0-1.83-2.54A5.07,5.07,0,0,0,124.07,14.75Zm-4.34-2.61c.67-.6,1.27-1.11,1.83-1.65s1.14-1.14,1.66-1.75,1-1.24,1.42-1.88a.71.71,0,0,0,0-.52,1.76,1.76,0,0,0-1.3-1.08,5.53,5.53,0,0,0-3.75.38.42.42,0,0,0-.31.51c.11,1.49.19,3,.29,4.46C119.63,11.09,119.68,11.56,119.73,12.14Z"/><path class="cls-1" d="M196.13,24.77c-.08.13-.16.25-.23.39a2.77,2.77,0,0,1-1.83,1.44,2,2,0,0,1-1.87-.85,6.55,6.55,0,0,1-.75-4.31c.15-1.11.41-2.2.63-3.29s.41-2.15.72-3.19a9.3,9.3,0,0,1,1.89-3.58,4.35,4.35,0,0,1,2-1.33A2.49,2.49,0,0,1,200,12.18a9.35,9.35,0,0,1-.32,2.2c0,.28-.11.55-.17.83a1.15,1.15,0,0,1-.29.61c-.18.18-.15.56-.21.86-.17,1-.35,1.91-.51,2.87-.08.5-.12,1-.2,1.51-.16,1.08-.32,2.16-.49,3.23s-.4,2.22-.59,3.33c-.25,1.44-.45,2.89-.76,4.31-.35,1.6-.77,3.18-1.2,4.76a15.4,15.4,0,0,1-1.91,4.47A6,6,0,0,1,191,43.42a4,4,0,0,1-3.53,0A3.54,3.54,0,0,1,185.51,41c-.28-1-.55-2.05-.79-3.09a5.27,5.27,0,0,1,.06-3,9.59,9.59,0,0,0,.27-1.53,2.53,2.53,0,0,1,.12-.56.58.58,0,0,1,1-.34.32.32,0,0,1,.13.27,9.55,9.55,0,0,0,.46,3.83,6.85,6.85,0,0,0,.55,1.73c.42.85.91,1.69,2,1.88a2.4,2.4,0,0,0,1.52-.44A5.91,5.91,0,0,0,193,37.6a21,21,0,0,0,2.31-6.5c.21-.93.26-1.89.4-2.83s.29-1.7.43-2.55c.05-.31.07-.63.1-.94Zm1.09-11.27a4,4,0,0,0-.7.3,6.56,6.56,0,0,0-2.1,2.31,5.79,5.79,0,0,0-1,3.93,5.7,5.7,0,0,0,.68,2.21c.18.28.42.39.66.19a3.77,3.77,0,0,0,.84-.9A11.85,11.85,0,0,0,197,18.21c.34-1.31.66-2.63,1-4C198.08,13.72,197.92,13.51,197.22,13.5Z"/><path class="cls-1" d="M168.33,10.33a2.61,2.61,0,0,0,.06-.33c0-1-.13-2.09-.14-3.13a9.81,9.81,0,0,1,.32-2.58,12.08,12.08,0,0,0,.2-1.47c0-.21,0-.49.32-.41s.68-.05.71.45c0,.73.12,1.47.19,2.2.14,1.57.26,3.14.43,4.7.24,2.17.43,4.35.8,6.5a25.17,25.17,0,0,0,1.13,3.87,24,24,0,0,0,1,2.32.72.72,0,0,0,.38.27c.38.11.44.19.34.58l-.51,2a1,1,0,0,0-.05.22c0,.32,0,.68-.4.78a1.08,1.08,0,0,1-1.19-.28,6.38,6.38,0,0,1-.74-1.19c-.29-.66-.51-1.36-.76-2-.13-.34-.26-.68-.44-1.12a9.72,9.72,0,0,1-.38.91c-.51,1-1,2-1.58,2.91a1.81,1.81,0,0,1-3.13-.06,8.9,8.9,0,0,1-1.07-2,9.75,9.75,0,0,1-.48-2.33,12.17,12.17,0,0,1,.42-3.89c.22-.89.31-1.8.5-2.7a8,8,0,0,1,1.4-3.18A2.39,2.39,0,0,1,168.33,10.33Zm1,9a.77.77,0,0,0,0-.18c-.15-1.15-.29-2.31-.48-3.46a3.78,3.78,0,0,0-.43-1.22,1,1,0,0,0-1.58-.25,4.6,4.6,0,0,0-1.23,1.67,2.08,2.08,0,0,0-.29.81,13.75,13.75,0,0,0,.09,2.13A5.71,5.71,0,0,0,166.75,22c.37.42.51.45.86,0,.58-.77,1.09-1.59,1.62-2.39A.72.72,0,0,0,169.31,19.35Z"/><path class="cls-1" d="M17.56,17.05c.11-.57.22-1.11.31-1.66A9.18,9.18,0,0,1,19,11.74c1.12-1.72,2.75-2,4.6-1.22A2.46,2.46,0,0,1,25,13.63c-.19.7-.36,1.4-.51,2.11a4.27,4.27,0,0,1-1.66,2.52,7.83,7.83,0,0,1-2.7,1.55c-.09,0-.17.1-.26.14.63,1.19,1.49,1.75,2.67,1.34a8.11,8.11,0,0,0,2.21-1c.7-.49,1.42-1,2.13-1.45a1.31,1.31,0,0,0,.24-.23.78.78,0,0,1,1-.1.51.51,0,0,1,.05.39c-.17.65-.36,1.29-.53,1.94-.07.26,0,.57-.16.76a6.67,6.67,0,0,1-1.13,1.24,14.43,14.43,0,0,1-3.7,2.25,3.62,3.62,0,0,1-3.2-.22,3.73,3.73,0,0,1-1.15-1.19,5.37,5.37,0,0,1-.87-2c-.1-.43-.15-.87-.21-1.28-.34-.11-.68-.19-1-.32s-.43-.38-.32-.78a5.43,5.43,0,0,0,.39-2c0-.38.1-.48.48-.44C17,16.93,17.26,17,17.56,17.05Zm5.74-2.68a1.91,1.91,0,0,0-1.81-.92,2.86,2.86,0,0,0-2.42,3.41A9.62,9.62,0,0,0,23.3,14.37Z"/><path class="cls-1" d="M182,12.89a10.59,10.59,0,0,1,2.84-3.74A4.75,4.75,0,0,1,186,8.51a2.51,2.51,0,0,1,2.59,1,9.27,9.27,0,0,1,1.11,4.34c.06,1.54.08,3.08.08,4.61,0,1.23-.07,2.46-.09,3.69,0,.25.11.49.09.74a4.64,4.64,0,0,1-.16.81c-.19.84-.37,1.68-.57,2.52-.13.6-.35.75-.86.62a.46.46,0,0,1-.4-.51c0-1.18,0-2.36,0-3.54,0-1.54-.06-3.08-.12-4.61,0-.84-.1-1.68-.19-2.51a6,6,0,0,0-.83-2.74c-.46-.71-.9-.75-1.52-.33A7.31,7.31,0,0,0,182.39,16a2.39,2.39,0,0,0-.06.93c0,1.27.13,2.54.19,3.81,0,.8,0,1.6.08,2.4a1.32,1.32,0,0,1,0,.34c-.2.87-.4,1.75-.62,2.63,0,.11-.22.29-.28.27-.23-.08-.6,0-.63-.37-.07-.64-.11-1.28-.17-1.92-.11-1.16-.23-2.32-.34-3.48s-.21-2.2-.29-3.3-.14-2.49-.27-3.72a12.29,12.29,0,0,1,.35-4.23c.06-.22,0-.47.07-.68s.24-.39.33-.37c.25.05.65-.09.71.34.17,1.31.32,2.62.49,3.93A3.34,3.34,0,0,0,182,12.89Z"/><path class="cls-1" d="M145.4,21.21c-.09.3-.14.54-.23.78-.38,1-.74,2-1.15,3a4.48,4.48,0,0,1-.6.91,1.17,1.17,0,0,1-1.67.07,4.62,4.62,0,0,1-1.2-2.58,10.2,10.2,0,0,1,.21-3.89c.18-.81.25-1.65.43-2.47a8,8,0,0,1,2-4.29,3.82,3.82,0,0,1,2-1.09,2.25,2.25,0,0,1,2.06,1.1.45.45,0,0,1,0,.36,4.6,4.6,0,0,0-.31,2.23c.07.81,0,1.63.15,2.42a8.26,8.26,0,0,0,1,3.11,4.18,4.18,0,0,0,2.37,1.63c.31.1.52-.12.66-.4.21-.44.21-.32.81-.18.32.08.24.33.18.56-.2.83-.38,1.66-.59,2.48a2.24,2.24,0,0,1-.37.74c-.17.21-.39.42-.72.24a.57.57,0,0,0-.19,0,4.42,4.42,0,0,1-4.42-3C145.67,22.39,145.56,21.84,145.4,21.21Zm-2.31,1.38c.08-.08.13-.11.15-.15A17.38,17.38,0,0,0,144.43,20c.49-1.52.83-3.09,1.23-4.63.09-.36,0-.48-.36-.47a1.07,1.07,0,0,0-.4.1,4.43,4.43,0,0,0-2.23,2.24,3.75,3.75,0,0,0-.44,1.28,6.8,6.8,0,0,0,.43,3.22C142.78,22,142.94,22.28,143.09,22.59Z"/><path class="cls-1" d="M35.92,21.74a23.6,23.6,0,0,0-1.29-2.08,32.46,32.46,0,0,0-2.25-2.58,5.51,5.51,0,0,1-1.56-3.2A6,6,0,0,1,31,12.37c.1-.67.25-1.32.36-2A3,3,0,0,1,32.78,8a2.37,2.37,0,0,1,2.53.19,2,2,0,0,1,.91,1.94,16.08,16.08,0,0,1-.41,1.66c-.05.22-.09.45-.13.67s0,.4-.31.39-.46,0-.58-.32a3.54,3.54,0,0,0-.61-1.11,1.07,1.07,0,0,0-1.44.07.5.5,0,0,0-.06.4A4,4,0,0,0,34,13.81a16.65,16.65,0,0,1,2.55,2.88,6.41,6.41,0,0,1,1.3,3.36,5.12,5.12,0,0,1-.17,1.28c-.2.94-.41,1.88-.65,2.81A3,3,0,0,1,33.48,26,4.72,4.72,0,0,1,31.15,24a3.38,3.38,0,0,1-.76-1.79,2.09,2.09,0,0,1,0-.56c.12-.73.26-1.45.39-2.17.05-.28.13-.53.49-.51s.52.1.6.53a2.87,2.87,0,0,0,.45,1,4.14,4.14,0,0,0,1.47,1.5A1.84,1.84,0,0,0,35.92,21.74Z"/><path class="cls-1" d="M40.63,14.74c-.6.08-1.16.18-1.73.23a6.92,6.92,0,0,1-1.44,0c-.46-.05-.51-.24-.39-.71a15.42,15.42,0,0,0,.33-1.8.52.52,0,0,1,.52-.53c1-.14,1.93-.31,2.89-.44.26,0,.3-.14.32-.37.09-.94.2-1.88.29-2.82,0-.3,0-.61,0-.9.15-.94.34-1.88.49-2.82.07-.4.38-.24.6-.28s.36.11.37.34c0,.42,0,.84,0,1.26,0,.74-.14,1.48-.2,2.23-.09,1-.17,2-.26,3.08l1.17-.14c.74-.09,1.48-.21,2.23-.27.47-.05.55.11.43.56-.19.73-.36,1.45-.51,2.19-.07.33-.31.38-.55.42l-3,.49c-.19,0-.3.09-.29.34,0,.74-.11,1.49,0,2.23a12.16,12.16,0,0,0,.86,4.3,3.19,3.19,0,0,0,.87,1,1.23,1.23,0,0,0,1.34,0,8,8,0,0,0,1.47-1,2.93,2.93,0,0,0,.75-.78,1.8,1.8,0,0,0,.13-.71c0-.1,0-.21,0-.3s.07-.34.16-.39a.57.57,0,0,1,.41.12.82.82,0,0,1,.41,1c-.23.73-.27,1.53-.5,2.26A3.59,3.59,0,0,1,47,24a12.4,12.4,0,0,1-1.68,1.39,2.66,2.66,0,0,1-3.29.13,2.86,2.86,0,0,1-1.17-1.7,17.18,17.18,0,0,1-.5-2.76,24.34,24.34,0,0,1,0-3c.05-1,.2-2,.3-3.06A2,2,0,0,0,40.63,14.74Z"/><path class="cls-1" d="M98,14.74c-.6.08-1.16.18-1.73.23a6.93,6.93,0,0,1-1.44,0c-.47-.05-.51-.24-.39-.71a17.84,17.84,0,0,0,.33-1.8.52.52,0,0,1,.52-.53c1-.14,1.92-.31,2.89-.44.25,0,.3-.14.32-.37.08-.94.2-1.88.29-2.82,0-.3,0-.61.05-.9.15-.94.33-1.88.49-2.82.07-.4.38-.24.6-.28s.36.11.36.34c0,.42,0,.84,0,1.26-.06.74-.14,1.48-.21,2.23-.08,1-.16,2-.25,3.08l1.17-.14c.74-.09,1.48-.21,2.23-.27.47-.05.55.11.43.56-.19.73-.36,1.45-.51,2.19-.07.33-.31.38-.55.42l-3,.49c-.19,0-.3.09-.3.34,0,.74-.1,1.49,0,2.23a11.94,11.94,0,0,0,.86,4.3,3.16,3.16,0,0,0,.86,1,1.25,1.25,0,0,0,1.35,0,8,8,0,0,0,1.47-1,2.93,2.93,0,0,0,.75-.78,1.8,1.8,0,0,0,.13-.71c0-.1,0-.21,0-.3s.07-.34.16-.39a.54.54,0,0,1,.4.12.8.8,0,0,1,.41,1c-.23.73-.26,1.53-.5,2.26a3.56,3.56,0,0,1-.8,1.35,11.9,11.9,0,0,1-1.69,1.39,2.66,2.66,0,0,1-3.29.13,2.85,2.85,0,0,1-1.16-1.7,16.14,16.14,0,0,1-.5-2.76,22.48,22.48,0,0,1,0-3c0-1,.2-2,.3-3.06Z"/><path class="cls-1" d="M154,15.6a12.2,12.2,0,0,1,.72-1.57A23.59,23.59,0,0,1,156.29,12a2.11,2.11,0,0,1,3.58.52A15.27,15.27,0,0,1,161,15.72c.28,1.36.49,2.73.76,4.09a19.83,19.83,0,0,0,.7,2.88,2,2,0,0,1,0,1.37,14.09,14.09,0,0,0-.38,1.71c0,.26-.09.5-.36.56a.64.64,0,0,1-.74-.34,4,4,0,0,1-.3-.9c-.44-1.93-.84-3.88-1.32-5.8-.33-1.29-.76-2.55-1.18-3.81a1.53,1.53,0,0,0-.5-.66c-.27-.22-.59,0-.8.12a6.16,6.16,0,0,0-2.15,3,4,4,0,0,0,0,1.5c0,.46.18.92.19,1.39a5.37,5.37,0,0,1-.14,1.19c-.14.7-.31,1.39-.46,2.08,0,.2,0,.49-.32.46s-.65-.05-.73-.42c-.13-.59-.21-1.19-.32-1.79-.2-1.17-.42-2.33-.6-3.5-.23-1.55-.48-3.11-.64-4.67a6.13,6.13,0,0,1,.26-1.56c.06-.4.12-.81.17-1.21,0-.21,0-.47.34-.44s.59,0,.67.41c.25,1.3.52,2.59.79,3.88A2.18,2.18,0,0,0,154,15.6Z"/><path class="cls-1" d="M59.51,26.14a.3.3,0,0,0,.3-.27c0-1.2,0-3.49-.07-4.48s-.12-2.2-.15-3.31,0-2.11,0-3.16c0-1.22-.07-2.44-.08-3.66,0-.66,0-.63-.54-.91-.34-.17-.45,0-.52.25-.14.63-.3,1.25-.41,1.88-.25,1.37-.49,2.75-.71,4.12A13.17,13.17,0,0,1,56,20.71a8.14,8.14,0,0,1-.93,1.38.62.62,0,0,1-1.06,0,4.89,4.89,0,0,1-.66-1.31,21.11,21.11,0,0,1-.83-7.39,4.11,4.11,0,0,0-.07-.78c0-.31.06-.72-.41-.81s-.61-.09-.67.52c0,.21,0,.43-.09.64A14.05,14.05,0,0,0,51,14.51c-.08,1.11-.07,2.23-.13,3.34a22.89,22.89,0,0,0,.44,4.75,5.21,5.21,0,0,0,1.06,2.58c.88,1.05,2,1.33,3.05.27a5.38,5.38,0,0,0,1.13-1.7c.54-1.28,1-2.62,1.42-4,0,.33,0,.65,0,1,.07,1.16.14,3.59.21,5a.4.4,0,0,0,.38.38Z"/><path class="cls-1" d="M86.7,15.36a13.48,13.48,0,0,1,2.16-4.52,5.14,5.14,0,0,1,.7-.7,2.16,2.16,0,0,1,3.44,1,10.48,10.48,0,0,1,.44,3.52A49.57,49.57,0,0,1,93,20.56c-.12.89-.15,1.8-.28,2.69-.08.57-.28,1.13-.41,1.69s-.18.85-.26,1.27-.24.44-.57.38-.49-.12-.45-.53c.23-2.44.46-4.89.62-7.34a13.11,13.11,0,0,0-.24-3.9,5,5,0,0,0-.5-1.23c-.31-.53-.82-.52-1.26-.09a7.85,7.85,0,0,0-1.81,2.74,7.36,7.36,0,0,0-.54,2.55,30.07,30.07,0,0,1-.16,3.15c-.12.91-.45,1.79-.66,2.69-.11.46-.33.62-.78.48a.55.55,0,0,1-.32-.35c-.1-1.34-.17-2.67-.27-4-.06-.78-.15-1.56-.22-2.34-.11-1.18-.14-2.37-.34-3.53a9.64,9.64,0,0,1,.38-3.3A5,5,0,0,0,85,11c0-.27-.06-.6.35-.65s.7.11.77.56c.12.81.23,1.61.34,2.42S86.62,14.7,86.7,15.36Z"/><path class="cls-1" d="M63.21,15.5c.2-.4.38-.76.58-1.11a11.2,11.2,0,0,1,3.72-3.81c.94-.63,1.88-1.26,2.81-1.9a1.16,1.16,0,0,1,1.13,0c.07,0,.12.29.1.42-.18.85-.37,1.69-.57,2.53a.6.6,0,0,1-.22.32c-1.46,1.13-3,2.21-4.38,3.4a8.61,8.61,0,0,0-2.51,3.28c-.15.37-.51,6.18-.68,7-.06.3-.11.59-.51.6s-.79-.13-.88-.57c-.21-1.05-.78-8.33-1.11-10.28a6.83,6.83,0,0,1,.21-3c.13-.45.13-.94.23-1.4,0-.19.15-.46.3-.52a.77.77,0,0,1,.85.42C62.59,12.41,62.89,13.92,63.21,15.5Z"/><path class="cls-1" d="M132.26,13.43a1.7,1.7,0,0,1,.58.16.86.86,0,0,1,.32.45c.16.88.3,1.76.45,2.63,0,0,0,.07,0,.12.33-.42.62-.85,1-1.23a16,16,0,0,1,3.78-3,11.33,11.33,0,0,0,1.21-.84.57.57,0,0,1,.74,0,.63.63,0,0,1,.13.52c-.12.67-.3,1.33-.41,2-.07.44-.45.48-.7.68-.41.34-.86.61-1.27.94-.64.52-1.29,1-1.88,1.61s-1.34,1.37-2,2.09a.94.94,0,0,0-.13.61c0,.67.12,1.34.17,2a1.63,1.63,0,0,1,0,.49c-.2.85-.4,1.7-.63,2.54-.06.19-.22.47-.37.5a.62.62,0,0,1-.79-.37,8.17,8.17,0,0,1-.29-1.39,43.2,43.2,0,0,0-.34-4.81,12.31,12.31,0,0,1-.19-2.65A9.34,9.34,0,0,1,132,15c.08-.36.08-.73.14-1.09A3.8,3.8,0,0,1,132.26,13.43Z"/><path class="cls-1" d="M178.37,15.4c.08,1.16.14,2.31.22,3.47s.22,2.37.27,3.56a6.41,6.41,0,0,1-.21,1.36c-.12.67-.26,1.34-.37,2,0,.24-.12.38-.4.34s-.61-.26-.63-.53c0-.66-.08-1.33-.15-2-.1-.81-.26-1.6-.34-2.41-.11-1.06-.19-2.12-.25-3.17s-.14-2.36-.15-3.54a8.31,8.31,0,0,1,.24-1.38q.15-.9.27-1.8c0-.22,0-.46.31-.5s.72.13.75.41c.17,1.39.32,2.78.47,4.17Z"/><path class="cls-1" d="M177.51,2.33c-.17.7-.34,1.37-.51,2.05-.05.22-.08.45-.12.67a.69.69,0,0,1-.94.56c-.37-.11-.46-.45-.35-.9.16-.68.26-1.37.39-2a2.81,2.81,0,0,1,.13-.59c.16-.36.42-.41,1-.25A.43.43,0,0,1,177.51,2.33Z"/><path class="cls-1" d="M77.89,20.66a5.08,5.08,0,0,1-.17.59c-.44,1-.85,2-1.36,2.94a3,3,0,0,1-1.68,1.6,1.74,1.74,0,0,1-1.75-.33,4.23,4.23,0,0,1-1.27-2.71A12,12,0,0,1,72,18c.2-.8.27-1.63.43-2.44a9.41,9.41,0,0,1,1-2.91,3.59,3.59,0,0,1,2.93-2.06,4.13,4.13,0,0,1,3,.94,1.78,1.78,0,0,1,.61,2.09,7,7,0,0,0-.16,3.19,14.15,14.15,0,0,0,.49,2.58,2.44,2.44,0,0,0,1.39,1.51c.25.12.49.27.75.39a.73.73,0,0,0,.81,0c.15-.11.51,0,.73.1s.15.35.11.51c-.19.89-.42,1.77-.64,2.66a1,1,0,0,1-1,.71,4.85,4.85,0,0,1-2.41-.63l-.75-.4a2.15,2.15,0,0,1-1.06-1.55c-.17-.63-.26-1.29-.39-1.93Zm-4.28-2.73a5.8,5.8,0,0,0,.12,1c.2.75.43,1.5.69,2.24.12.34.38.4.67.18a3,3,0,0,0,.62-.62,25.52,25.52,0,0,0,2.57-5.53.31.31,0,0,0-.18-.46A2.74,2.74,0,0,0,76,14.57,3.79,3.79,0,0,0,73.61,17.93Z"/></g></g></svg>