<svg xmlns="http://www.w3.org/2000/svg" viewBox="0 0 200 37.09"><defs><style>.cls-1{fill:#8872a4;}</style></defs><g id="Layer_2" data-name="Layer 2"><g id="Layer_1-2" data-name="Layer 1"><path class="cls-1" d="M10.94,0a7.41,7.41,0,0,1,3.57.89A7.64,7.64,0,0,1,17,3.07a1.85,1.85,0,0,1,.24,1.54c-.2.82-.36,1.65-.56,2.48a2.31,2.31,0,0,1-.25.61.56.56,0,0,1-.88.15.46.46,0,0,1,0-.4.82.82,0,0,0-.14-.92A5.64,5.64,0,0,0,9.61,4.11,7.91,7.91,0,0,0,5,6.45c-.93,1-1,.94-.28,2.24a7.52,7.52,0,0,0,2.5,2.67c1.54,1.07,3.1,2.11,4.62,3.2a11.68,11.68,0,0,1,4,4.77,7.05,7.05,0,0,1,.58,3.54c-.08.73-.26,1.45-.41,2.17s-.31,1.48-.49,2.22a6,6,0,0,1-3.3,4.14,10.12,10.12,0,0,1-5,1.14,7.13,7.13,0,0,1-6-3.12A7.5,7.5,0,0,1,.16,23.67c.3-1.67.61-3.33,1-5a3.82,3.82,0,0,1,.68-1.29,1.14,1.14,0,0,1,1.34,0,.56.56,0,0,1,.09.44c-.2.92-.42,1.83-.65,2.74,0,.12-.18.21-.26.31s-.41.36-.43.56a6.35,6.35,0,0,0,1.7,5.17,7.91,7.91,0,0,0,1.64,1.29,5.87,5.87,0,0,0,4.08.41,7.88,7.88,0,0,0,3.53-1.38,3.47,3.47,0,0,0,.72-.66c.3-.39.77-.84.76-1.26a8.07,8.07,0,0,0-.54-2.23,3.2,3.2,0,0,0-.55-1,15.36,15.36,0,0,0-2.19-2.48c-1.9-1.5-4-2.81-5.87-4.3A11,11,0,0,1,3,12.57a4.35,4.35,0,0,1-.65-3.65c.25-1,.36-2,.53-3A6,6,0,0,1,4.53,2.79,8.4,8.4,0,0,1,9.22.23C9.79.12,10.37.07,10.94,0Z"/><path class="cls-1" d="M113.93,14.37a10.38,10.38,0,0,1,1.73-.24,22.47,22.47,0,0,1,2.72.2c.51.07.55.4.37.89a5.24,5.24,0,0,0-.61,2.15,5.1,5.1,0,0,1-.27,1.62.83.83,0,0,1-.6.42,16.6,16.6,0,0,1-1.86.24c-.66.05-.69.08-.61.74L115.91,29c.06.46.08.93.15,1.39a6.34,6.34,0,0,1-.26,2.7c-.29,1.07-.51,2.16-.72,3.25-.16.79-.43.9-1.14.51a1.19,1.19,0,0,1-.63-1.15c-.07-1.22-.25-2.43-.39-3.64-.19-1.57-.38-3.15-.6-4.73s-.55-3.43-.82-5.15c-.09-.58-.18-1.16-.27-1.77-1.08.18-2.09.34-3.08.53s-2.06.45-3.1.67c-.71.16-1.44.29-2.15.47a.57.57,0,0,0-.28.42c-.1,1.55-.16,3.1-.25,4.65a7.55,7.55,0,0,1-.17,1.06c-.3,1.35-.61,2.69-.91,4l-.06.27c-.09.4-.17.83-.73.83a1.2,1.2,0,0,1-1.13-1c0-1.48-.06-3,0-4.45s.39-3.23.6-4.85a4.16,4.16,0,0,0,0-.5c-1,.05-2,.12-2.93.13a4.58,4.58,0,0,1-1.27-.18c-.35-.1-.55-.27-.41-.78A25.28,25.28,0,0,0,96,18.67c.06-.42.21-.58.62-.64,1.22-.19,2.44-.42,3.7-.65.08-.83.14-1.67.26-2.5.16-1.16.36-2.32.55-3.48.15-.94.29-1.87.44-2.81a4.62,4.62,0,0,1,.15-.74c.09-.28.27-.47.61-.3a.65.65,0,0,0,.31,0c.41,0,.62.18.59.57-.06.73-.16,1.45-.23,2.18a3.2,3.2,0,0,0,.09,1c.44-.95.82-1.93,1.33-2.83S105.44,7,106,6.19a3.57,3.57,0,0,1,1.86-1.46,2.09,2.09,0,0,1,1.08-.09,5.53,5.53,0,0,1,1.59.59,4.28,4.28,0,0,1,1.65,2.39c.54,1.56,1,3.15,1.43,4.74C113.75,13,113.81,13.69,113.93,14.37Zm-10.59,2.37.63-.13,5.54-1.31c.71-.16.71-.15.55-.85a1.84,1.84,0,0,0-.09-.25c-.37-1-.74-2-1.09-3.08a1.05,1.05,0,0,0-1.69-.58,5.45,5.45,0,0,0-1.77,2.05C104.7,13.89,104.08,15.26,103.34,16.74Z"/><path class="cls-1" d="M184.05,17.64c.62-.63,1.21-1.28,1.85-1.88a8.67,8.67,0,0,1,1.33-1A2.23,2.23,0,0,1,190.59,16a9.38,9.38,0,0,1,.52,2.83c0,.11,0,.21,0,.32s0,0,0,0c.29-.42.54-.87.87-1.26a11.88,11.88,0,0,1,2-2,5.3,5.3,0,0,1,2.2-1.06,3.32,3.32,0,0,1,2.32.46A3.1,3.1,0,0,1,200,18a20.24,20.24,0,0,1-.19,3.3c-.35,2.63-.75,5.24-1.12,7.86a3.1,3.1,0,0,0,0,.6,1,1,0,0,1,0,.39c-.13.56-.29,1.12-.42,1.68a6.51,6.51,0,0,0-.13.77c0,.22-.13.29-.33.29-.56,0-.89-.28-.86-.84.05-.8.18-1.6.28-2.39s.18-1.36.27-2c.12-.92.27-1.83.36-2.75.13-1.22.25-2.44.32-3.67a3.23,3.23,0,0,0-.76-2.24,1.75,1.75,0,0,0-2.37-.37,8,8,0,0,0-2.92,2.65,25.16,25.16,0,0,0-1.48,2.64,8.67,8.67,0,0,0-.37,1.05c-.1.24-.21.47-.55.4-.57-.12-.65-.22-.64-.68,0-1.17.12-2.35.08-3.53a5.57,5.57,0,0,0-.68-2.6c-.36-.63-.66-.73-1.28-.36A9.74,9.74,0,0,0,185,20.1a7.1,7.1,0,0,0-.73.93,1.33,1.33,0,0,0-.22.67c0,.78,0,1.57,0,2.35,0,1.4,0,2.79,0,4.19a10.18,10.18,0,0,1-.24,1.63c-.12.66-.28,1.31-.4,2,0,.26-.12.44-.43.42s-.6-.17-.6-.48c0-1.73,0-3.46,0-5.19,0-1.09,0-2.18,0-3.27,0-.74,0-1.47,0-2.2,0-1.08,0-2.16.08-3.24a9.4,9.4,0,0,1,.19-1.06c.11-.63.21-1.26.31-1.89,0-.24,0-.55.33-.6a.65.65,0,0,1,.76.63c0,.78.06,1.57.09,2.35Q184,17.49,184.05,17.64Z"/><path class="cls-1" d="M61.68,27.43a3.81,3.81,0,0,1-.2.68c-.51,1.15-1,2.32-1.58,3.44a3.43,3.43,0,0,1-2,1.85,2,2,0,0,1-2-.37,5,5,0,0,1-1.49-3.17,13.91,13.91,0,0,1,.45-5.59c.23-.94.32-1.9.5-2.85A10.83,10.83,0,0,1,56.54,18,4.17,4.17,0,0,1,60,15.62a4.82,4.82,0,0,1,3.55,1.1,2.08,2.08,0,0,1,.7,2.44A8.17,8.17,0,0,0,64,22.87a16.26,16.26,0,0,0,.57,3,2.83,2.83,0,0,0,1.62,1.75c.29.14.57.33.87.46a.85.85,0,0,0,1,0c.18-.12.6,0,.85.12s.18.41.13.6c-.22,1-.49,2.07-.74,3.1a1.2,1.2,0,0,1-1.15.83A5.58,5.58,0,0,1,64.31,32c-.29-.14-.57-.31-.86-.46a2.51,2.51,0,0,1-1.25-1.81c-.19-.74-.3-1.5-.44-2.26Zm-5-3.2a8,8,0,0,0,.15,1.2c.23.88.5,1.75.8,2.62.14.39.45.46.78.2a3.51,3.51,0,0,0,.72-.72,29.38,29.38,0,0,0,3-6.45.37.37,0,0,0-.21-.54,3.17,3.17,0,0,0-2.43-.21A4.42,4.42,0,0,0,56.68,24.23Z"/><path class="cls-1" d="M25.32,33.56a5.55,5.55,0,0,1-4-1.22,5.25,5.25,0,0,1-1.93-3.79,14.1,14.1,0,0,1,.51-4.23c.2-.82.27-1.67.43-2.51A10.8,10.8,0,0,1,22,17.92a6.75,6.75,0,0,1,1.57-1.79,5,5,0,0,1,4.8-1,3.37,3.37,0,0,1,1.88,1.17c.59.88,1.51,1.52,1.78,2.66a11.44,11.44,0,0,1-.12,5.81c-.29,1.06-.5,2.14-.78,3.21a8.41,8.41,0,0,1-1.74,3.48A5,5,0,0,1,25.32,33.56Zm-3.76-9.21a4.17,4.17,0,0,0,.19,1.3,10.25,10.25,0,0,0,1.32,2,3.4,3.4,0,0,0,4.14.7,5.63,5.63,0,0,0,2.4-2.31,2.38,2.38,0,0,0,.47-1.81c-.18-.76-.34-1.53-.47-2.31-.2-1.24-1.16-2-1.92-2.83a.5.5,0,0,0-.36-.14,10.25,10.25,0,0,0-1.92.31,5.9,5.9,0,0,0-2.74,2.27A4.12,4.12,0,0,0,21.56,24.35Z"/><path class="cls-1" d="M176.3,28.81a15.19,15.19,0,0,0-1-1.48c-.79-1-1.65-1.87-2.46-2.82a7.65,7.65,0,0,1-1.75-2.66,4.56,4.56,0,0,1,.08-2.56,23.33,23.33,0,0,0,.43-2.36,5.1,5.1,0,0,1,1.59-3.07,4.66,4.66,0,0,1,1.7-1A3.19,3.19,0,0,1,178.44,14a2.32,2.32,0,0,1,.05,2q-.21.86-.36,1.71c-.09.57-.37.79-.81.55a.46.46,0,0,1-.22-.34,1.45,1.45,0,0,0-2-1.27,19.33,19.33,0,0,0-1.78,1.22c-.21.15-.2.32-.09.53a6,6,0,0,0,1.43,1.91,14.26,14.26,0,0,1,3.61,4.16,4.76,4.76,0,0,1,.68,2.65,9.53,9.53,0,0,1-.2,1c-.24,1.06-.48,2.11-.71,3.17a2.7,2.7,0,0,1-1.4,1.81c-1.34.75-2.54.33-3.73-.39-.45-.27-.91-.53-1.36-.82a3.2,3.2,0,0,1-.51-.4,1,1,0,0,1-.31-1.15,13.89,13.89,0,0,0,.4-2.23c.06-.49.47-.6,1-.3s1.43.71,2.16,1.06A2.59,2.59,0,0,0,176.3,28.81Z"/><path class="cls-1" d="M132.19,19.36c-.45.1-.86.23-1.28.28a12.41,12.41,0,0,1-1.82.15c-.5,0-.55-.23-.43-.72.22-.87.39-1.76.53-2.65.05-.33.15-.59.47-.67.67-.19,1.35-.33,2-.48l.53-.1c.84-.14.82-.15,1-1,.39-1.6.82-3.19,1.22-4.79.06-.25,0-.53.1-.79s.21-.46.58-.3c.72.32.79.42.64,1.21-.27,1.4-.52,2.81-.78,4.21-.06.32-.15.63-.26,1,.61-.07,1.15-.13,1.68-.21.68-.09,1.36-.21,2-.27a2.21,2.21,0,0,1,.82.16.36.36,0,0,1,.16.32,6.09,6.09,0,0,1-.26,1,6.69,6.69,0,0,0-.39,2c0,.44-.37.53-.72.59l-3.56.62c-.24,0-.38.09-.4.37-.09,1.33-.25,2.67-.27,4a11.79,11.79,0,0,0,.31,2.5,6.88,6.88,0,0,0,.5,1.35c.6,1.34,1.91,1.48,3.16,1.34a1,1,0,0,0,.81-.63c.18-.38.49-.43,1.07-.19.35.15.25.41.18.68-.24,1-.47,1.94-.67,2.91a2.21,2.21,0,0,1-2,1.9,5,5,0,0,1-2.38-.07A5.87,5.87,0,0,0,134,33a2.43,2.43,0,0,1-2.1-1.87,11.07,11.07,0,0,1-.5-2.6,28.63,28.63,0,0,1,.16-3.7C131.7,23,132,21.22,132.19,19.36Z"/><path class="cls-1" d="M70.6,27.63c.18-1.62.32-3.25.56-4.87.31-2.06.63-4.12,1.07-6.15s1-3.86,1.5-5.78c.47-1.72,1-3.43,1.46-5.15.29-1,.63-2,1-3.06a2.41,2.41,0,0,1,.21-.5.82.82,0,0,1,1.29-.34.47.47,0,0,1,.17.41c-.21,1-.41,1.92-.68,2.87s-.65,1.81-.91,2.73c-.83,2.93-1.7,5.86-2.41,8.82a42.67,42.67,0,0,0-.69,4.8,24,24,0,0,0-.19,2.67,5.78,5.78,0,0,0,1.15,3.72,1.88,1.88,0,0,0,1.89.83,12.9,12.9,0,0,0,4.66-1.71c.2-.13.36-.32.56-.44a.72.72,0,0,1,.47-.12c.76.15.81.3.57,1a12.79,12.79,0,0,0-.48,1.94A2.79,2.79,0,0,1,80,31.55a24.38,24.38,0,0,1-3.33,1.34,5.06,5.06,0,0,1-2.84.33,3.87,3.87,0,0,1-2.52-2.28,6.68,6.68,0,0,1-.63-3.3Z"/><path class="cls-1" d="M33.66,27.23a19.83,19.83,0,0,1,.58-4.79c.19-.79.27-1.61.41-2.41a11.5,11.5,0,0,1,1.11-3.32,6.3,6.3,0,0,1,1.32-1.77,3.19,3.19,0,0,1,2.5-.89,8.85,8.85,0,0,1,2.14.49,1.24,1.24,0,0,1,.72,1.81A17.72,17.72,0,0,0,42,18.16c-.06.21-.11.6-.19.61a2.08,2.08,0,0,1-.8-.16c-.24-.1-.45-.28-.7-.38a2.07,2.07,0,0,0-1.49.05,4.34,4.34,0,0,0-2.6,2.91,3.68,3.68,0,0,0-.15,1.37A9.68,9.68,0,0,0,36.51,26a9,9,0,0,0,1.06,2c.48.64.86.68,1.52.21a26.75,26.75,0,0,0,2.36-1.89,1,1,0,0,1,1.28-.11.57.57,0,0,1,.07.45,29.17,29.17,0,0,1-.75,3.1,3.29,3.29,0,0,1-1,1.42,28.77,28.77,0,0,1-2.86,2.18,2,2,0,0,1-1.82,0,3.63,3.63,0,0,1-2.1-2.45A9.9,9.9,0,0,1,33.66,27.23Z"/><path class="cls-1" d="M156.05,26.79c.24-.8.5-1.6.72-2.41.59-2.14,1.2-4.28,1.73-6.44.3-1.24.48-2.51.69-3.77.08-.47.25-.59.67-.41l.76.32c-.05.43-.06.85-.14,1.25-.52,2.46-1,4.92-1.6,7.37-.44,1.92-.9,3.84-1.42,5.75-.36,1.36-.82,2.7-1.24,4a.76.76,0,0,1-.08.21c-.22.36-.35.83-.89.85a1.36,1.36,0,0,1-1.41-.95c-.42-1.56-.83-3.13-1.16-4.71-.28-1.34-.49-2.69-.67-4.05-.13-1-.16-2-.23-2.95a14.48,14.48,0,0,1-.09-1.86c0-.62.22-1.22.32-1.83.13-.79.25-1.58.36-2.38s.51-1,1.16-.55a.72.72,0,0,1,.21.49c.15,1.22.22,2.44.41,3.64.24,1.46.57,2.91.87,4.37.19,1,.38,1.95.6,2.92.08.37.22.73.33,1.09Z"/><path class="cls-1" d="M119.64,27.09a17.78,17.78,0,0,1,.71-5.43c.18-.71.2-1.46.34-2.18A9.51,9.51,0,0,1,122.85,15,3.64,3.64,0,0,1,127,14a1.48,1.48,0,0,1,.84,1.84c-.22.82-.4,1.65-.59,2.48-.13.51-.61.79-1,.44-.82-.74-1.49-.24-2.11.2a5.33,5.33,0,0,0-2,2.65,4,4,0,0,0-.08,1.7,7.62,7.62,0,0,0,1,3.61,1.69,1.69,0,0,0,2,.9c.71-.29,1.46-.49,2.14-.83a1.6,1.6,0,0,0,.65-.81c.23-.58.66-.29,1-.29a.42.42,0,0,1,.41.59c-.24.95-.46,1.9-.73,2.84a9.88,9.88,0,0,1-.59,1.6,1.83,1.83,0,0,1-.6.72,11.07,11.07,0,0,1-1.64.85,12.2,12.2,0,0,1-1.85.54,3.07,3.07,0,0,1-3.4-1.81A9.63,9.63,0,0,1,119.64,27.09Z"/><path class="cls-1" d="M49.91,28.39a8.09,8.09,0,0,0,1-.14,1.13,1.13,0,0,0,.89-.84c.14-.51.34-.57,1-.42.48.12.4.42.32.76l-.78,3.39A2.39,2.39,0,0,1,50.43,33a8.35,8.35,0,0,1-2.1.32,2.69,2.69,0,0,1-2.65-2.62,18.18,18.18,0,0,1,.19-5.46q.74-4.41,1.52-8.82a8.61,8.61,0,0,1,.33-1.06c.18-.61.64-.27,1-.23.13,0,.32.36.3.53-.09.95-.26,1.89-.37,2.83-.18,1.57-.33,3.13-.5,4.7a10,10,0,0,0,.17,3.5,4.53,4.53,0,0,0,.6,1.28A1,1,0,0,0,49.91,28.39Z"/><path class="cls-1" d="M142.65,28.53c.16-1.21.35-2.79.6-4.36s.56-3.28.9-4.91a19.61,19.61,0,0,1,1.33-4.61c.18-.37.36-.72.93-.59s.71.27.58.85c-.19.76-.37,1.53-.58,2.29s-.51,1.54-.69,2.34a15.85,15.85,0,0,0-.28,2.07,29.51,29.51,0,0,0-.28,3.24,11.17,11.17,0,0,0,.36,2.49,1.75,1.75,0,0,0,.56.78.53.53,0,0,0,.48,0,2.28,2.28,0,0,0,1.33-1.52c.17-.65.55-.84,1.11-.52a.7.7,0,0,1,.18.61c-.16.77-.37,1.53-.58,2.29a10.59,10.59,0,0,1-.61,2,4.72,4.72,0,0,1-1.12,1.21,6.71,6.71,0,0,1-1,.71,1.74,1.74,0,0,1-2.23-.44C142.74,31.47,142.78,30.18,142.65,28.53Z"/><path class="cls-1" d="M146.36,11.73c-.68-.05-.83-.25-.69-.89s.34-1.35.48-2a4.65,4.65,0,0,0,.06-.75c0-.36,0-.8.44-.88a2.53,2.53,0,0,1,1.17.17c.1,0,.18.37.15.55-.08.45-.23.89-.33,1.34s-.26,1.15-.36,1.73A.88.88,0,0,1,146.36,11.73Z"/><path class="cls-1" d="M162.11,29.77c.15-1.5.27-3,.46-4.51.22-1.72.48-3.44.77-5.16.27-1.53.6-3.05.92-4.58a1.39,1.39,0,0,1,.19-.49.68.68,0,0,1,.33-.28c.41-.1,1,.46.95.9s-.19,1.09-.25,1.64c-.24,2.16-.5,4.31-.69,6.48a13.21,13.21,0,0,0,0,2.88,5.47,5.47,0,0,0,.72,1.7.48.48,0,0,0,.46.09,2.54,2.54,0,0,0,1.66-2.19c0-.26,0-.59.36-.61.58,0,.93.24.89.69a8.63,8.63,0,0,1-.25,1.31c-.22.94-.41,1.89-.68,2.82A4.4,4.4,0,0,1,165,33.4a2.06,2.06,0,0,1-2.1-.85A6.43,6.43,0,0,1,162.11,29.77Z"/><path class="cls-1" d="M165.52,8.1a3.74,3.74,0,0,1,.76.13c.3.11.48.25.34.67a15.28,15.28,0,0,0-.38,1.81c-.08.43-.18.87-.28,1.3a.43.43,0,0,1-.05.12c-.2.23-1.25.37-1.45.14a.75.75,0,0,1-.17-.58A8.23,8.23,0,0,0,164.8,9C164.8,8.55,165.18,8,165.52,8.1Z"/><path class="cls-1" d="M50.15,8.42c-.56,0-.69-.25-.6-.72.17-.86.28-1.73.46-2.58,0-.22.26-.56.42-.58a2.18,2.18,0,0,1,.89.27s0,.24,0,.36c-.22.91-.46,1.81-.67,2.72C50.57,8.2,50.41,8.39,50.15,8.42Z"/></g></g></svg>