<svg xmlns="http://www.w3.org/2000/svg" viewBox="0 0 200 71.46"><defs><style>.cls-1{fill:#8872a4;}</style></defs><g id="Layer_2" data-name="Layer 2"><g id="Layer_1-2" data-name="Layer 1"><path class="cls-1" d="M169.75,44.08c-.74,1.05-1.31,2-2.06,2.9a7.42,7.42,0,0,1-6,2.73,5.74,5.74,0,0,1-4.25-2,11.56,11.56,0,0,1-2-3,9.12,9.12,0,0,1-.7-5.52c.54-3.38,1.18-6.76,2-10.1a20.73,20.73,0,0,1,4.68-8.73,13,13,0,0,1,3.07-2.74,8.62,8.62,0,0,1,4.85-1.1,14.58,14.58,0,0,1,3.21.55,2.78,2.78,0,0,1,2.1,2.73,2.44,2.44,0,0,0,.39.07c.81.07,1.08.29,1,1a24.53,24.53,0,0,1-.23,2.83c-.34,2.26-.77,4.5-1.1,6.76-.39,2.64-.75,5.27-1.05,7.92-.34,3-.54,6-.9,8.94a74.87,74.87,0,0,1-2.25,11.44c-.6,2.09-1.14,4.19-1.76,6.27a17.08,17.08,0,0,1-1.11,3.07,4.68,4.68,0,0,1-3.31,2.6,30.67,30.67,0,0,1-4.65.68A5.68,5.68,0,0,1,155,69.6a5.19,5.19,0,0,1-1.49-4.19c.13-.83.33-1.65.49-2.47.24-1.19.46-2.38.69-3.56a4.8,4.8,0,0,1,.12-.64c.38-1.11,1-1.37,2.18-1,.58.21.38.63.27,1a4.42,4.42,0,0,0,.13,3.16c.86,2,2,2.63,4.44,2.44,1.4-.12,2.88-.18,3.8-1.31a9.09,9.09,0,0,0,1.42-2.22,35.57,35.57,0,0,0,2-9.69c.21-2,.47-4,.69-6C169.78,44.87,169.75,44.53,169.75,44.08Zm3-19.35c-.63-.05-1.22-.13-1.22-.83,0-.09-.25-.18-.39-.27a3.63,3.63,0,0,0-2.53-.33,7.37,7.37,0,0,0-4.92,2.12,47.2,47.2,0,0,0-3.33,4.31,8.13,8.13,0,0,0-1.61,5.9,8.56,8.56,0,0,0,2.51,5.46c.67.63,1.31,1.44,2.51,1.09a7.12,7.12,0,0,0,1.58-.66,9.4,9.4,0,0,0,3.87-5c.83-2.07,1.46-4.19,2.1-6.31C171.89,28.45,172.3,26.62,172.78,24.73Z"/><path class="cls-1" d="M63.05,22.68c.61-1.13,1.13-2.08,1.63-3a8,8,0,0,1,3.2-3.49,4,4,0,0,1,4.27.72,7.85,7.85,0,0,1,1.76,3.29c.29,1.22.73,2.4,1,3.36a29.84,29.84,0,0,1,1.83-3.35,8.5,8.5,0,0,1,5.72-3.7,4.62,4.62,0,0,1,4.7,2.43,11,11,0,0,1,1.36,4.28c.27,2.6.52,5.21.7,7.83.07,1.13,0,2.28-.08,3.42-.08,2.94-.19,5.88-.22,8.82a25.37,25.37,0,0,1-1,5.14c-.18.86-.34,1.72-.51,2.58-.13.7-.43.9-1.13.78s-1.17-.61-1.12-1.26c.1-1.46.16-2.93.21-4.4.06-2,0-4,.16-5.91a53.47,53.47,0,0,0-.26-8.58,25.27,25.27,0,0,0-.38-3.25A13.77,13.77,0,0,0,83.79,25c-.69-1.28-2-1.47-3.44-.74a7.81,7.81,0,0,0-3.81,3.58A8.16,8.16,0,0,0,75.81,31a25.79,25.79,0,0,1-1,6c-.22.84-.39,1.69-.57,2.54-.09.4-.15.79-.71.72s-1-.13-1.06-.77c-.13-1.3-.18-2.6-.37-3.89-.46-3-1-6-1.47-9a8.19,8.19,0,0,0-1.37-3.41.72.72,0,0,0-.83-.36,3.67,3.67,0,0,0-2.31,1.75,20,20,0,0,0-2.7,5.21,2.92,2.92,0,0,0-.09,1.15c.05,4,.16,8.11.16,12.16a19.29,19.29,0,0,1-.5,3.44c-.24,1.31-.57,2.61-.83,3.92-.23,1.14-.78,1.46-1.79.9-.25-.15-.56-.64-.49-.86.51-1.71.16-3.44.14-5.15,0-3-.15-6-.23-9-.07-3.19-.19-6.38-.19-9.57a59.25,59.25,0,0,1,.29-6,44.93,44.93,0,0,1,.77-4.57c.06-.3.46-.79.58-.76a2.77,2.77,0,0,1,1.32.7c.21.23.14.74.17,1.13C62.84,19,62.93,20.72,63.05,22.68Z"/><path class="cls-1" d="M3.53,20.55a30.2,30.2,0,0,0,.32,7.63c.22,1.48.55,2.94.85,4.4A21.55,21.55,0,0,0,5.29,35a14.32,14.32,0,0,0,6.26,8.21A3.94,3.94,0,0,0,16.27,43a30.45,30.45,0,0,0,3.49-3.6c.75-.86,1.37-1.83,2-2.75.26-.34,1.76-.65,2-.34a1.2,1.2,0,0,1,.17,1,24.73,24.73,0,0,0-1.13,4c-.19,2.23-1.77,3.64-2.75,5.4a23,23,0,0,1-1.87,2.57,6,6,0,0,1-3.56,2.26c-3,.61-5.51-.55-7.88-2.34A11.9,11.9,0,0,1,3,44.59a38.38,38.38,0,0,1-2-5.85,23.54,23.54,0,0,1-.71-4.26c-.19-2.34-.32-4.69-.32-7C0,23.67,1,20,1.73,16.36A37.83,37.83,0,0,1,3.54,10,19.22,19.22,0,0,1,8.32,2.67,8.18,8.18,0,0,1,12.61.13a8,8,0,0,1,7.31,2.29A19.83,19.83,0,0,1,21.62,4c1.64,2.06,2.47,4.32,1.57,7-.33,1-.43,2-.7,3.05-.07.26-.36.67-.54.66-.45,0-1.05,0-1.17-.62a7,7,0,0,0-2-3.94,17.48,17.48,0,0,0-4.13-3c-1.78-.88-3.44,0-4.89,1.16a19,19,0,0,0-4.7,6.49A13,13,0,0,0,3.53,20.55Z"/><path class="cls-1" d="M53.78,44c.63-.64,1-.67,1.9-.09.55.34.19.82.08,1.24-.32,1.37-.7,2.73-1,4.11-.35,1.68-1.07,1.93-2.38,1.65A9.12,9.12,0,0,1,49,49.53a8.16,8.16,0,0,1-3.51-5.72c-.15-.94-.27-1.87-.43-3a8.19,8.19,0,0,0-.34.84,21.5,21.5,0,0,1-3.08,7,7.32,7.32,0,0,1-4,3.23,4.86,4.86,0,0,1-5-1.43,11.84,11.84,0,0,1-3.23-7,23.52,23.52,0,0,1,.25-8c.65-3.36,1.12-6.77,2-10.08a14,14,0,0,1,7.05-9.17c2.24-1.21,4.58-.93,6.87-.18a2.2,2.2,0,0,1,1.34,2.82c-.15.43,0,.61.4.61.64,0,.84.38.87.94.12,3,.21,5.92.37,8.88s.07,6,.78,8.92A9,9,0,0,0,53.78,44ZM45.58,23a4.12,4.12,0,0,1-1.1-.44,3.36,3.36,0,0,0-2.6-.63,7.63,7.63,0,0,0-5.41,2.8c-1.79,2-3.46,4-3.61,6.87-.07,1.36-.07,2.72-.1,4.07a11.86,11.86,0,0,0,2.58,7.56c1.17,1.52,1.68,1.83,3.6.66a7.42,7.42,0,0,0,2.75-3,24.92,24.92,0,0,0,3-10.57c.06-1.93.33-3.86.53-5.78A14.09,14.09,0,0,1,45.58,23Z"/><path class="cls-1" d="M93.45,33.19c0-2.84,0-5.67-.09-8.51,0-.45,0-.91-.54-1.14-.15-.06-.22-.55-.17-.82.23-1.33.58-2.64.76-4a2.83,2.83,0,0,1,1.43-2.15,6.33,6.33,0,0,1,5.37-.37A12.73,12.73,0,0,1,104,18a9.92,9.92,0,0,1,3.5,5.48,27.42,27.42,0,0,1,1.32,10,34.48,34.48,0,0,1-.77,4.13c-.35,1.66-.7,3.32-1.12,5-.83,3.22-3,6-6.71,6.58l-3.54.57c0,1.86,0,3.67,0,5.49,0,.85-.08,1.7-.09,2.55,0,.31.13.63.13.94,0,1.56.09,3.11,0,4.66A19.42,19.42,0,0,1,96,66.12c-.24,1.07-.45,2.13-.68,3.2-.1.47-.09,1-.74,1.1s-1.46-.32-1.54-.86a6.86,6.86,0,0,1,.21-1.31c.09-1.21.22-2.43.19-3.63-.09-3.06-.29-6.12-.39-9.18C93,53.54,93.46,35.34,93.45,33.19Zm3.41,9.45c1.3-.34,2.6-.71,3.92-1a6,6,0,0,0,3.49-2.22,3.25,3.25,0,0,0,.85-2.47,29.11,29.11,0,0,0-1.65-7.58,10.34,10.34,0,0,0-4.36-5.51,20.28,20.28,0,0,0-2.25-.93Z"/><path class="cls-1" d="M124.29,42.35a30.58,30.58,0,0,1-1.61,3.5,7.74,7.74,0,0,1-2,2.14c-1.63,1.19-3.83.2-4.76-.86A7.68,7.68,0,0,1,113.73,43c-.21-1.89-.27-3.8-.42-5.69-.27-3.14.91-6.07,1.27-9.11a27,27,0,0,1,2.22-7.59,9.65,9.65,0,0,1,3.6-4.3,6.75,6.75,0,0,1,6.13-.7,3,3,0,0,1,2.21,2.11,1.44,1.44,0,0,1,0,.77,13.36,13.36,0,0,0-.71,4.79c0,2.55-.23,5.1-.26,7.66,0,3,.15,5.88,1.94,8.43a1.84,1.84,0,0,0,2,.75,11.1,11.1,0,0,1,1.42-.53,3.57,3.57,0,0,1,1.51.2c.11,0,.1.64,0,1-.31,1.39-.75,2.76-1,4.17a2.42,2.42,0,0,1-1.61,1.89,7.74,7.74,0,0,1-4.29.42,2.92,2.92,0,0,1-2.12-1.79c-.45-.82-.77-1.71-1.14-2.57C124.47,42.68,124.39,42.54,124.29,42.35Zm-7.5-11.61a27.42,27.42,0,0,0,.65,6.54,5.61,5.61,0,0,0,1.84,3,1,1,0,0,0,1,.09A5.54,5.54,0,0,0,121.84,39a19,19,0,0,0,2.49-9c.08-1,.14-2,.3-3,.24-1.43.57-2.85.86-4.27.11-.5-.11-.75-.59-.78a5,5,0,0,0-3.1.56A9.59,9.59,0,0,0,116.79,30.74Z"/><path class="cls-1" d="M184.68,22.39c1.21-1.28,2.23-2.53,3.43-3.59a33.61,33.61,0,0,1,4.08-3,4.55,4.55,0,0,1,3.8-.49,6,6,0,0,0,.64.14,3.46,3.46,0,0,1,2.81,2.36,10.54,10.54,0,0,1,.4,5.33c-.54,3.93-1.18,7.85-2,11.72S196,42.57,195,46.42c-.25,1-.54,2-.83,2.95a1.32,1.32,0,0,1-2.11.67.94.94,0,0,1-.21-.72c.12-.84.3-1.67.46-2.5.48-2.53,1-5,1.45-7.58.58-3.08,1.2-6.15,1.67-9.25a10.23,10.23,0,0,0-.33-5.11c-.51-1.42-1.47-2-2.87-1.42a12.46,12.46,0,0,0-4,2.91c-1,1-2,2.11-3,3.23a9.38,9.38,0,0,0-2.18,4.52c-.6,3.47-1.35,6.91-2.06,10.36-.2,1-.45,2-.7,3.05-.15.58-.43,1-1.17.92s-1.08-.39-1.05-1.11a8.33,8.33,0,0,1,0-.87c.24-1.35.52-2.7.73-4.06.27-1.78.49-3.56.73-5.33q.45-3.22.88-6.43c.33-2.33.63-4.67,1-7s.77-4.59,1.16-6.88c.12-.67.39-.85,1.06-.68,1.36.35,1.4.35,1.34,1.77-.05,1.26-.21,2.52-.31,3.78C184.67,21.85,184.68,22.06,184.68,22.39Z"/><path class="cls-1" d="M143.11,21c-.24,2.78-.52,5.56-.72,8.35s-.55,5.8.07,8.66a15.05,15.05,0,0,0,1.34,3,.49.49,0,0,0,.84.18,21.2,21.2,0,0,0,1.76-1.51,1.5,1.5,0,0,1,1.79-.17c.51.3.27.76.17,1.17-.34,1.44-.76,2.86-1,4.31a6.06,6.06,0,0,1-2.22,3.57c-.11.09-.25.14-.37.24-2.1,1.73-4.69,1.06-5.83-1.49a13.77,13.77,0,0,1-1-6.71c.13-2.16.31-4.32.52-6.47.17-1.69.42-3.37.6-5.06s.26-3.49.51-5.22c.19-1.37.59-2.7.85-4.06.16-.81.21-1.64.35-2.45.08-.46.28-.85.87-.75,1.3.22,1.36.27,1.35,1.08v3.28Z"/><path class="cls-1" d="M141.81,9.08c-1.19-.06-1.49-.46-1-1.52A12.74,12.74,0,0,0,141.46,4c0-.39.3-1,.5-1.06a4.13,4.13,0,0,1,1.59.34c.06,0,0,.39,0,.59-.33,1.4-.66,2.81-1,4.21C142.4,8.42,142.53,9.07,141.81,9.08Z"/></g></g></svg>