<svg xmlns="http://www.w3.org/2000/svg" viewBox="0 0 1869.11 202.41"><defs><style>.cls-1{fill:#8872a4;}</style></defs><g id="Layer_16_Image" data-name="Layer 16 Image"><path class="cls-1" d="M1238.28,102.92c2.11.37,4,.6,5.82,1.06a79,79,0,0,1,10.84,3,28.27,28.27,0,0,1,8,5c5.37,4.82,7,10.93,5,18a31,31,0,0,1-4.78,9.15,24.81,24.81,0,0,1-7.83,7,43,43,0,0,1-9.33,4.34c-4.33,1.33-8.83,2.35-13.46,1.53-1-.18-2-.38-2.92-.61-4.29-1-8.58-2-12.84-3.14a7.22,7.22,0,0,1-2.74-1.5,26.47,26.47,0,0,1-3.57-3.61c-1-1.28-1.79-2.68-1-4.52.57-1.41.6-1.6,2.09-1.1l1,.31c-.16-1.05-.35-2-.42-2.91-.13-1.83-.24-3.68-.26-5.52s0-3.4.12-5.1c.18-3.54.45-7.07.62-10.6.12-2.44.15-4.89.2-7.33s.07-5,.09-7.55c0-1.91,0-3.82,0-5.73.07-4.5.13-9,.25-13.49s.28-8.82.42-13a10,10,0,0,1-2.67.19,39.56,39.56,0,0,1-6.27-1.63c-.9-.32-1.54-1.35-2.28-2.07-.28-.27-.54-.57-1-1.09a2.16,2.16,0,0,1,.28-1,20.48,20.48,0,0,1,3.29-4.11,28.4,28.4,0,0,1,8.93-4.94,35.23,35.23,0,0,1,11.78-1.84,58.06,58.06,0,0,1,14.29,2c2.29.61,4.7.74,7,1.18,6.1,1.16,11.64,3.35,15.59,8.49a14,14,0,0,1,2.83,12.1c-.66,3-1.35,6-3.07,8.62a30.29,30.29,0,0,1-7,7.63C1250,94.1,1244.7,98,1239.4,102,1239.07,102.2,1238.77,102.49,1238.28,102.92Zm-8.23,3.87c-1,12.19.36,24.41-2,36.64,3.65-1,7.16-1.54,10.1-3.7,2.31-1.69,5-3,6.88-5.1a22.64,22.64,0,0,0,5.67-10,4.75,4.75,0,0,0,.09-1.68,14.79,14.79,0,0,0-4.53-9.53c-2.78-2.62-5.83-4.75-9.65-5.54-2.06-.42-4.14-.77-6.21-1.15A3.1,3.1,0,0,0,1230.05,106.79Zm.23-15.7c1.56-.21,2.67-1.33,3.87-2.38,1-.91,2.33-1.52,3.36-2.44,2.62-2.34,5.14-4.79,7.74-7.16,2.82-2.56,4-5.85,4.34-9.53.3-3.11-1.17-5.52-3.06-7.75-2.84-3.36-6.19-5.57-10.87-4.66-.64.12-1.3.07-2,.14l-4.77.53c1.82,5.69,1.26,11.23,1.32,16.72S1230.28,85.63,1230.28,91.09Z"/><path class="cls-1" d="M808.9,122.38c-1,0-1.92-.07-2.79,0-2.54.25-4.87-.62-7.26-1.22-2.07-.53-4.19-.87-6.27-1.33a15,15,0,0,1-2-.63.64.64,0,0,1-.35-.51,17.75,17.75,0,0,1,.59-2.62,1.24,1.24,0,0,1,.91-.56c3.58-.43,7.17-.88,10.77-1.22a19.9,19.9,0,0,1,8.26.82,43.42,43.42,0,0,0,10.64,2,17.77,17.77,0,0,1,3.36.7,2.15,2.15,0,0,1,1.47,1.65c.75,2.4-.17,4.56-.62,6.78A68,68,0,0,1,823.9,133a38.05,38.05,0,0,1-2.57,6.58,31.27,31.27,0,0,1-5.39,7.77c-4.8,4.74-10.37,5.88-16.74,4.29-4.1-1-8.24-1.91-12.34-2.93a27.31,27.31,0,0,1-10.18-4.37,39.41,39.41,0,0,1-5-4.24,28.65,28.65,0,0,1-3.38-4.81,27,27,0,0,1-2.36-4.52,62.44,62.44,0,0,1-3.15-12.36,46.46,46.46,0,0,1,1.06-18.49,56.32,56.32,0,0,1,7.07-17.38c2.76-4.3,5.85-8.38,10.25-11.2a20.36,20.36,0,0,1,4.48-2.44c2.75-.91,5.41-2.22,8.45-2.1a35.52,35.52,0,0,1,9.21,1.43,25.49,25.49,0,0,0,5.15.91A28,28,0,0,1,824,75.61a8,8,0,0,1,1.31,1.58c1.91,2.7,4,5.32,5.65,8.16a8.48,8.48,0,0,1,.76,7c-.46,1.48-1.34,2.24-2.59,1.45-1.6-1-3.37-.77-5-1.26-1.27-.37-2.62-.43-3.9-.77a2,2,0,0,1-1-1c-1.14-2.35-2.17-4.75-3.35-7.08a15.77,15.77,0,0,0-2.24-3.44c-2.19-2.45-4.47-4.83-7.56-6.19a3,3,0,0,0-1.67-.2A20.26,20.26,0,0,0,796,77.14c-4.92,3.59-7.89,8.58-10.52,13.87a48.71,48.71,0,0,0-4.33,13.29,33.78,33.78,0,0,0-.1,11.08,66.81,66.81,0,0,0,2.14,10.15c1.78,5.55,4.14,10.86,8.71,14.81,1,.87,2.06,1.7,3.14,2.48a1.2,1.2,0,0,0,1.06.14,31.75,31.75,0,0,0,4.2-2.92,26.22,26.22,0,0,0,6.36-9,35,35,0,0,0,1.63-5.57C808.53,124.51,808.68,123.51,808.9,122.38Z"/><path class="cls-1" d="M990.73,107.63c-1.81.31-3.52.53-5.2.9-3.17.71-6.32,1.52-9.48,2.26-2.19.52-4.39,1-6.6,1.46-.83.17-1,.56-1,1.33-.17,5.5-.33,11-.61,16.51-.24,4.8-.56,9.6-1,14.39a25.36,25.36,0,0,1-1.19,5c-.37,1.19-1.18,1.49-2.38,1.12-1.61-.49-3.22-1-4.82-1.49-.34-.12-.58-.57-.92-.65-.7-.16-1.45-.13-2.17-.27-1.47-.31-3-.64-4.39-1.09-.18-.06-.21-.87-.19-1.32.13-2,.32-4.09.45-6.13.35-5.44.71-10.88,1-16.32.16-2.85.22-5.71.32-8.56,0-.94.1-1.88.07-2.82a1.52,1.52,0,0,0-.91-1.51c-1-.47-.73-2.71.13-3.37a1.63,1.63,0,0,0,.63-1.08c0-3.92-.12-7.85-.14-11.77,0-3.17,0-6.34.07-9.51s-.06-6.16.06-9.23q.24-6,.77-12c.12-1.32.61-1.39,1.92-1,1.64.49,3.31.85,5,1.27a2.32,2.32,0,0,1,.63.17,3.56,3.56,0,0,0,3.47.31c.89-.36,1.73.41,2,1.29a33.07,33.07,0,0,1,1.07,4.91c.49,4,1,8,1.25,12A100.07,100.07,0,0,1,969,95.19c-.14,2.44.23,4.82,0,7.16l21.63-4.28c0-2.18,0-4.72,0-7.26.09-3.77.28-7.54.37-11.31.09-4.16.08-8.32.18-12.47.06-2.21.22-4.41.42-6.61.12-1.25.76-1.68,2.13-1.41,2.93.59,5.91,1,8.87,1.39a2.73,2.73,0,0,1,2.5,2.46,99,99,0,0,1,1.6,11.57c.36,8.8.43,17.61.5,26.42,0,5.68-.15,11.37-.19,17.05,0,4.76.13,9.53,0,14.28s-.43,9.35-.82,14A23.16,23.16,0,0,1,1005,151c-.4,1.3-1.4,1.54-2.61,1.21-3.09-.83-6.17-1.69-9.26-2.49a17.55,17.55,0,0,0-2.31-.24c-1.1-.13-1.55-.74-1.47-1.87.24-3.5.46-7,.62-10.51q.3-6.87.51-13.75c.14-5,.23-10,.34-15C990.79,108.16,990.76,108,990.73,107.63Z"/><path class="cls-1" d="M1359.5,105.06c.49,12.48-.36,24.83-1.5,37.32a45.41,45.41,0,0,0,4.66,0c2.88-.27,5.75-1,8.62-1a59.89,59.89,0,0,1,9.23,1c3.25.52,6.45,1.3,9.68,1.9,1.19.21,2.42.19,3.63.36,1.62.22,2.13,1.13,1.6,2.67a4.63,4.63,0,0,0-.22.75c-.45,2.37-.46,2.3-2.78,2.74a82.7,82.7,0,0,1-16.68,1.51c-6-.09-12-.12-17.93-.71-3.54-.34-7-1.72-10.46-2.59a34.85,34.85,0,0,0-4.59-.92c-4.64-.49-6.45-2.23-6.34-6.85.12-5.07.51-10.14.8-15.21.21-3.59.48-7.18.68-10.77.26-4.72.59-9.44.7-14.16.1-4.56-.21-9.12,0-13.66.21-5.34.57-10.68,1.21-16,.35-2.85,1.26-5.75,3.77-7.6a8.19,8.19,0,0,1,3.2-1.23c2-.42,4-.56,6-1a43.4,43.4,0,0,1,15.54,0c2.77.44,5.57.68,8.33,1.16,1.66.28,3.24,1,4.9,1.26,2,.36,4,.5,6.06.76a3.18,3.18,0,0,1,1.23.35c1.42.85,1.6,1.59,1,3.51-.42,1.29-1.47,1.18-2.47,1.11-4.59-.33-9.18-.72-13.77-1a20.37,20.37,0,0,0-4.12.3c-2.66.4-5.31.86-8,1.35s-2.63.73-2.79,3.6c-.23,3.89-.07,7.81,0,11.71.07,3.07.32,6.14.42,9.21,0,1.15.29,1.6,1.64,1.6a76.78,76.78,0,0,1,9.59.57c2.73.36,5.39,1.23,8.1,1.76a29.1,29.1,0,0,0,3.5.21c2,.13,2.58.9,2.11,2.85a5.14,5.14,0,0,1-.35,1.51c-.29.46-.79,1.05-1.26,1.11-2.75.34-5.52.52-8.28.81-4.7.5-9.37,0-14-.35C1359.92,105.05,1359.76,105.06,1359.5,105.06Z"/><path class="cls-1" d="M1606.66,105.06c.5,12.48-.35,24.83-1.49,37.32a45.44,45.44,0,0,0,4.66,0c2.88-.27,5.74-1,8.61-1a60.15,60.15,0,0,1,9.24,1c3.24.52,6.44,1.3,9.68,1.9,1.19.21,2.42.19,3.62.36,1.62.22,2.13,1.13,1.6,2.67a5.9,5.9,0,0,0-.21.75c-.45,2.37-.46,2.3-2.78,2.74a82.8,82.8,0,0,1-16.69,1.51c-6-.09-12-.12-17.92-.71-3.54-.34-7-1.72-10.47-2.59a34.21,34.21,0,0,0-4.59-.92c-4.64-.49-6.44-2.23-6.33-6.85.11-5.07.5-10.14.8-15.21.21-3.59.47-7.18.67-10.77.27-4.72.59-9.44.7-14.16.1-4.56-.21-9.12,0-13.66.2-5.34.56-10.68,1.2-16,.35-2.85,1.27-5.75,3.77-7.6a8.25,8.25,0,0,1,3.2-1.23c2-.42,4-.56,6-1a43.4,43.4,0,0,1,15.54,0c2.77.44,5.57.68,8.33,1.16,1.66.28,3.25,1,4.9,1.26,2,.36,4,.5,6.07.76a3.13,3.13,0,0,1,1.22.35c1.43.85,1.6,1.59,1,3.51-.42,1.29-1.47,1.18-2.47,1.11-4.59-.33-9.18-.72-13.77-1a20.42,20.42,0,0,0-4.12.3c-2.66.4-5.31.86-8,1.35-2.49.47-2.63.73-2.79,3.6-.22,3.89-.06,7.81,0,11.71.07,3.07.32,6.14.42,9.21,0,1.15.29,1.6,1.64,1.6a76.78,76.78,0,0,1,9.59.57c2.73.36,5.39,1.23,8.1,1.76a29.14,29.14,0,0,0,3.51.21c2,.13,2.58.9,2.1,2.85a5.14,5.14,0,0,1-.35,1.51c-.29.46-.79,1.05-1.26,1.11-2.75.34-5.52.52-8.28.81-4.7.5-9.37,0-14-.35C1607.09,105.05,1606.92,105.06,1606.66,105.06Z"/><path class="cls-1" d="M1297.09,105.06c.49,12.48-.36,24.83-1.5,37.32a45.43,45.43,0,0,0,4.66,0c2.88-.27,5.75-1,8.62-1a60,60,0,0,1,9.23,1c3.25.52,6.45,1.3,9.68,1.9,1.19.21,2.42.19,3.62.36,1.62.22,2.14,1.13,1.6,2.67a5.9,5.9,0,0,0-.21.75c-.45,2.37-.46,2.3-2.78,2.74a82.7,82.7,0,0,1-16.68,1.51c-6-.09-12-.12-17.93-.71-3.54-.34-7-1.72-10.47-2.59a34.39,34.39,0,0,0-4.58-.92c-4.64-.49-6.45-2.23-6.34-6.85.12-5.07.51-10.14.8-15.21.21-3.59.48-7.18.68-10.77.26-4.72.59-9.44.69-14.16.11-4.56-.2-9.12,0-13.66.21-5.34.57-10.68,1.21-16,.34-2.85,1.26-5.75,3.76-7.6a8.29,8.29,0,0,1,3.21-1.23c2-.42,4-.56,6-1a43.4,43.4,0,0,1,15.54,0c2.77.44,5.57.68,8.34,1.16,1.65.28,3.24,1,4.9,1.26,2,.36,4,.5,6.06.76a3.23,3.23,0,0,1,1.23.35c1.42.85,1.59,1.59,1,3.51-.43,1.29-1.48,1.18-2.47,1.11-4.59-.33-9.18-.72-13.78-1a20.32,20.32,0,0,0-4.11.3c-2.66.4-5.31.86-8,1.35-2.49.47-2.62.73-2.79,3.6-.22,3.89-.06,7.81,0,11.71.07,3.07.32,6.14.41,9.21,0,1.15.3,1.6,1.64,1.6a76.83,76.83,0,0,1,9.6.57c2.73.36,5.39,1.23,8.1,1.76a29,29,0,0,0,3.5.21c2,.13,2.58.9,2.11,2.85a5.14,5.14,0,0,1-.36,1.51c-.28.46-.79,1.05-1.26,1.11-2.75.34-5.52.52-8.27.81-4.7.5-9.37,0-14-.35C1297.51,105.05,1297.35,105.06,1297.09,105.06Z"/><path class="cls-1" d="M868.24,105.06c.49,12.48-.36,24.83-1.49,37.32a45.44,45.44,0,0,0,4.66,0c2.88-.27,5.74-1,8.61-1a59.89,59.89,0,0,1,9.23,1c3.25.52,6.45,1.3,9.68,1.9,1.19.21,2.43.19,3.63.36,1.62.22,2.13,1.13,1.6,2.67a3.79,3.79,0,0,0-.21.75c-.46,2.37-.47,2.3-2.78,2.74a82.86,82.86,0,0,1-16.69,1.51c-6-.09-12-.12-17.93-.71-3.54-.34-7-1.72-10.46-2.59a34.53,34.53,0,0,0-4.59-.92c-4.64-.49-6.44-2.23-6.34-6.85.12-5.07.51-10.14.81-15.21.2-3.59.47-7.18.67-10.77.26-4.72.59-9.44.7-14.16.1-4.56-.21-9.12,0-13.66.2-5.34.56-10.68,1.2-16,.35-2.85,1.26-5.75,3.77-7.6a8.25,8.25,0,0,1,3.2-1.23c2-.42,4-.56,6-1a43.4,43.4,0,0,1,15.54,0c2.77.44,5.57.68,8.33,1.16,1.66.28,3.24,1,4.9,1.26,2,.36,4,.5,6.07.76a3.18,3.18,0,0,1,1.22.35c1.42.85,1.6,1.59,1,3.51C898.06,70,897,69.88,896,69.81c-4.59-.33-9.18-.72-13.77-1a20.37,20.37,0,0,0-4.12.3c-2.66.4-5.31.86-8,1.35s-2.63.73-2.79,3.6c-.23,3.89-.07,7.81,0,11.71.07,3.07.32,6.14.42,9.21,0,1.15.29,1.6,1.64,1.6a76.78,76.78,0,0,1,9.59.57c2.73.36,5.39,1.23,8.1,1.76a29.1,29.1,0,0,0,3.5.21c2,.13,2.59.9,2.11,2.85a5.14,5.14,0,0,1-.35,1.51c-.29.46-.79,1.05-1.26,1.11-2.75.34-5.52.52-8.28.81-4.7.5-9.37,0-14-.35C868.66,105.05,868.5,105.06,868.24,105.06Z"/><path class="cls-1" d="M499.22,105.06c.49,12.48-.36,24.83-1.5,37.32a45.44,45.44,0,0,0,4.66,0c2.88-.27,5.74-1,8.61-1a60.15,60.15,0,0,1,9.24,1c3.24.52,6.44,1.3,9.68,1.9,1.19.21,2.42.19,3.62.36,1.62.22,2.13,1.13,1.6,2.67a5.9,5.9,0,0,0-.21.75c-.45,2.37-.46,2.3-2.78,2.74a82.8,82.8,0,0,1-16.69,1.51c-6-.09-12-.12-17.92-.71-3.54-.34-7-1.72-10.47-2.59a34.21,34.21,0,0,0-4.59-.92c-4.64-.49-6.44-2.23-6.33-6.85.12-5.07.51-10.14.8-15.21.21-3.59.47-7.18.67-10.77.27-4.72.59-9.44.7-14.16.1-4.56-.21-9.12,0-13.66.21-5.34.56-10.68,1.2-16,.35-2.85,1.27-5.75,3.77-7.6a8.23,8.23,0,0,1,3.21-1.23c2-.42,4-.56,6-1a43.4,43.4,0,0,1,15.54,0c2.77.44,5.57.68,8.33,1.16,1.66.28,3.25,1,4.9,1.26,2,.36,4,.5,6.07.76a3.13,3.13,0,0,1,1.22.35c1.43.85,1.6,1.59,1,3.51C529,70,528,69.88,527,69.81c-4.59-.33-9.17-.72-13.77-1a20.42,20.42,0,0,0-4.12.3c-2.66.4-5.31.86-7.95,1.35s-2.62.73-2.79,3.6c-.22,3.89-.06,7.81,0,11.71.07,3.07.31,6.14.41,9.21,0,1.15.3,1.6,1.64,1.6a76.78,76.78,0,0,1,9.59.57c2.73.36,5.39,1.23,8.11,1.76a28.86,28.86,0,0,0,3.5.21c2,.13,2.58.9,2.1,2.85a5.14,5.14,0,0,1-.35,1.51c-.29.46-.79,1.05-1.26,1.11-2.75.34-5.52.52-8.28.81-4.7.5-9.37,0-14-.35C499.64,105.05,499.47,105.06,499.22,105.06Z"/><path class="cls-1" d="M421.32,83.23c.82-1.52,1.58-3.06,2.46-4.54,1.66-2.81,3.45-5.54,5.06-8.37,1.05-1.86,1.83-3.87,2.86-5.74S433.8,61,435,59.21c1.48-2.26,2.52-2.59,5.05-1.76a38.57,38.57,0,0,0,10.59,2c2.68.09,3.47,1,4.42,3.56,1.54,4.19,2,8.55,2.54,12.92.46,3.75,1.13,7.48,1.45,11.24.47,5.51.67,11,1.07,16.56.33,4.57.77,9.13,1.18,13.7.25,2.83.49,5.66.83,8.48.42,3.35.93,6.7,1.43,10,.42,2.89.89,5.77,1.36,8.65.11.67.18,1.24,1.14,1.52a1.66,1.66,0,0,1,1.16,2.31c-.26.66-.42,1.36-.62,2-.6,2-1.72,2.11-3.7,1.57-1.05-.29-2.07-.72-3.13-1-2.92-.64-5.83-1.38-8.78-1.77-2.46-.32-3.47-2-4-3.92a71.06,71.06,0,0,1-1.85-9c-.69-5.15-1.22-10.33-1.67-15.51-.48-5.59-.77-11.19-1.17-16.79-.5-6.88-1-13.77-1.56-21.07-.77,1.24-1.38,2.16-1.94,3.12-2.86,4.83-5.7,9.67-8.59,14.48a14.19,14.19,0,0,1-1.9,2.41c-1.61,1.73-3.55,1.78-5.71,1.18a56.14,56.14,0,0,0-8.42-2c-3.13-.35-4.75-2.08-5.6-4.8-.59-1.91-1-3.88-1.47-5.82a1,1,0,0,0-.5-.65c-.25.94-.48,1.9-.76,2.84-1.26,4.31-2.62,8.59-3.77,12.94-1.21,4.6-2.19,9.27-3.35,13.88q-2.1,8.42-4.37,16.79c-.6,2.23-1.37,4.42-2.11,6.6s-1.53,2.33-3.6,1.39a14.49,14.49,0,0,0-3-.68c-2-.42-4-.77-6-1.28-1.07-.28-.93-1.36-.82-2.17.24-1.94.53-3.88.94-5.79.91-4.21,1.89-8.41,2.87-12.61,1.51-6.45,3-12.92,4.62-19.33.95-3.66,2.28-7.21,3.36-10.83.77-2.59,1.28-5.27,2.14-7.83,1.59-4.76,3.33-9.47,5.07-14.18.7-1.91,1.51-3.78,2.35-5.63.73-1.64,1.75-1.8,3.46-1.39a75.5,75.5,0,0,0,9.4,1.76c2.25.24,3.44.71,4.08,2.9,1.05,3.58,2,7.2,3,10.82.35,1.32.58,2.67.87,4Z"/><path class="cls-1" d="M291.53,119.75a88,88,0,0,0,2.71,18.82c.59,2.27,1.32,4.49,2,6.72a8.67,8.67,0,0,1-.43,6c-.42,1.06-1,1.16-2.14.85A68.33,68.33,0,0,0,287,150.5a3.3,3.3,0,0,1-2.76-1.84c-1.27-2.77-2.58-5.52-3.67-8.36a77.6,77.6,0,0,1-4.44-20c-.38-3.75-.24-7.54-.46-11.31a43.67,43.67,0,0,1,1.27-12A34.5,34.5,0,0,1,280.38,87c.94-1.65,1.8-3.35,2.83-4.94a17.49,17.49,0,0,1,2.24-2.56A60.52,60.52,0,0,1,290,75a21.92,21.92,0,0,1,10.49-5.34,12.47,12.47,0,0,1,6,.58,37.59,37.59,0,0,0,9.5,1.78,11,11,0,0,1,6.18,2,7.38,7.38,0,0,1,3,4.38A16.55,16.55,0,0,1,325,87a56.91,56.91,0,0,1-1.86,6.41,33.13,33.13,0,0,1-3.75,7,53.8,53.8,0,0,1-10,9.87c-2.32,1.79-4.59,3.64-7,5.53a3.45,3.45,0,0,0,.63.66c5.5,3.82,9.68,8.92,13.43,14.34,2.79,4,5.11,8.4,7.67,12.59.7,1.14,1,2.65,2.72,2.95a.9.9,0,0,1,.5.75,11.34,11.34,0,0,1-.66,3,1.43,1.43,0,0,1-2,.66c-3.15-1.39-6.56-1.64-9.88-2.31-1.83-.37-2.93-1.73-4-3.13q-4.08-5.55-8.11-11.14c-1.52-2.1-2.93-4.28-4.49-6.36s-3.1-3.88-4.68-5.8C293,121.26,292.23,120.52,291.53,119.75Zm-.22-12.47a4.6,4.6,0,0,0,.48-.31c3.1-2.75,6.31-5.4,9.28-8.3A27.31,27.31,0,0,0,308.92,84c.33-1.69.73-3.45-.14-5.14C298.21,83.83,291.37,96,291.31,107.28Z"/><path class="cls-1" d="M1422.49,102c-.38,3.57-.74,7.15-1.14,10.72-.3,2.61-.68,5.21-1,7.81-.39,3.27-.64,6.55-1.16,9.79-.93,5.76-2,11.5-3.06,17.23A14.89,14.89,0,0,1,1415,151c-.55,1.21-1.68,1.73-2.75,1-1.9-1.31-4.09-1-6.13-1.53-1-.26-2.14-.23-3.14-.55a2.28,2.28,0,0,1-1.29-1.26,6.31,6.31,0,0,1-.21-2.38c.09-1.55.27-3.1.43-4.65.38-3.54.74-7.08,1.16-10.61.7-5.93,1.47-11.86,2.16-17.79.39-3.26.7-6.53,1-9.8s.53-6.63.89-9.94c.46-4.19,1-8.38,1.56-12.56.45-3.21,1-6.4,1.62-9.59a20.38,20.38,0,0,1,.87-3.46c.75-2,1.43-2.11,3.51-1.61a72.09,72.09,0,0,0,10.18,1.89c2.17.2,3.67,1.06,4.44,2.85,1.6,3.75,3,7.61,4.39,11.44.83,2.26,1.59,4.54,2.35,6.82,1.12,3.38,2.18,6.78,3.32,10.15,1,3.11,2.16,6.2,3.47,9.32.07-.45.11-.9.21-1.35,1.42-6.29,2.66-12.63,4.3-18.87,1.85-7.06,4.1-14,6.09-21,.91-3.2,1.55-6.47,2.43-9.67.6-2.22,1.38-4.4,2.14-6.58a1.3,1.3,0,0,1,1.81-.85c2.31.64,4.63,1.22,7,1.72a23,23,0,0,0,3.71.4c1.75.08,2.33.6,2,2.3-.53,3.16-1.09,6.31-1.77,9.44q-2.41,11.08-5,22.13c-1.11,4.86-2.41,9.67-3.44,14.54q-1.67,7.82-3,15.71c-1.18,7.06-2.19,14.16-3.32,21.24a45.23,45.23,0,0,1-1.08,4.68c-.38,1.39-1.39,1.79-2.9,1.43-2.73-.65-5.48-1.24-8.22-1.83a46.51,46.51,0,0,1-5.42-1.13,4.39,4.39,0,0,1-2.45-2c-1.45-3.41-2.64-6.94-3.94-10.41-.2-.53-.57-1-.76-1.53-1.06-2.93-2.1-5.86-3.14-8.8-1.19-3.39-2.41-6.77-3.55-10.18-.67-2-1.21-4.05-1.82-6.08Z"/><path class="cls-1" d="M1663.79,102c-.38,3.57-.74,7.15-1.14,10.72-.3,2.61-.67,5.21-1,7.81-.39,3.27-.64,6.55-1.16,9.79-.93,5.76-2,11.5-3,17.23a15.42,15.42,0,0,1-1.13,3.42c-.55,1.21-1.68,1.73-2.74,1-1.9-1.31-4.1-1-6.13-1.53-1-.26-2.15-.23-3.15-.55a2.31,2.31,0,0,1-1.29-1.26,6.31,6.31,0,0,1-.2-2.38c.08-1.55.26-3.1.43-4.65.37-3.54.73-7.08,1.15-10.61.71-5.93,1.47-11.86,2.17-17.79.38-3.26.7-6.53,1-9.8s.52-6.63.89-9.94q.68-6.28,1.55-12.56c.46-3.21,1-6.4,1.63-9.59a20.35,20.35,0,0,1,.86-3.46c.76-2,1.44-2.11,3.51-1.61a72.62,72.62,0,0,0,10.18,1.89c2.17.2,3.68,1.06,4.44,2.85,1.61,3.75,3,7.61,4.39,11.44.83,2.26,1.59,4.54,2.35,6.82,1.12,3.38,2.19,6.78,3.32,10.15,1,3.11,2.16,6.2,3.47,9.32.07-.45.12-.9.22-1.35,1.41-6.29,2.66-12.63,4.3-18.87,1.85-7.06,4.1-14,6.09-21,.9-3.2,1.54-6.47,2.42-9.67.61-2.22,1.38-4.4,2.14-6.58a1.3,1.3,0,0,1,1.81-.85c2.31.64,4.64,1.22,7,1.72a23,23,0,0,0,3.72.4c1.74.08,2.32.6,2,2.3-.53,3.16-1.09,6.31-1.77,9.44q-2.41,11.08-5,22.13c-1.11,4.86-2.41,9.67-3.44,14.54q-1.65,7.82-3,15.71c-1.18,7.06-2.19,14.16-3.32,21.24a45.23,45.23,0,0,1-1.08,4.68c-.38,1.39-1.38,1.79-2.9,1.43-2.73-.65-5.47-1.24-8.22-1.83a46.35,46.35,0,0,1-5.41-1.13,4.35,4.35,0,0,1-2.45-2c-1.46-3.41-2.64-6.94-3.95-10.41-.2-.53-.56-1-.76-1.53-1.06-2.93-2.1-5.86-3.14-8.8-1.19-3.39-2.4-6.77-3.54-10.18-.67-2-1.22-4.05-1.82-6.08Z"/><path class="cls-1" d="M249.6,140c-2,2.13-3.83,4.35-5.9,6.35a20.8,20.8,0,0,1-7.87,4.71,9.59,9.59,0,0,1-6.7-.23c-3.77-1.52-7.75-2-11.69-2.69-5-.86-8.16-3.91-9.28-9a56.06,56.06,0,0,1-1.28-16.34c.44-5.77.53-11.57,1-17.34a224.65,224.65,0,0,1,4.19-28c.53-2.47,1.22-4.92,2-7.33.51-1.63.88-1.62,2.58-1.26,2.86.6,5.65,1.63,8.66,1.5,1.51-.07,2.12.62,2.42,2.12a46.93,46.93,0,0,1,.36,12.91c-.3,4.26-.52,8.52-.8,12.78-.34,5.11-.82,10.2-1,15.31-.19,4.79-.17,9.6-.08,14.4.06,2.91.42,5.82.67,8.73a9.29,9.29,0,0,0,.34,1.28,17.37,17.37,0,0,0,1.87-1.9,45.24,45.24,0,0,0,6.49-12.79,130.14,130.14,0,0,0,4-17.52c.78-4.7,1.43-9.42,2-14.15.51-4.33.74-8.7,1.21-13,.4-3.7.87-7.4,1.49-11.07.36-2.15.8-2.25,2.93-1.73,2.42.58,4.88,1,7.3,1.63,1.35.35,2.57,1,4.08.41.29-.12,1.34.85,1.58,1.49a24.37,24.37,0,0,1,2,10c-.13,2.83.36,5.67.45,8.51s0,5.48,0,8.22c.07,2.93.26,5.86.4,8.79.16,3.2.13,6.42.53,9.6.59,4.71,1.45,9.4,2.25,14.09.34,2,.9,3.9,1.2,5.88q1,6.67,1.81,13.38a12.47,12.47,0,0,1-.19,3.16c-.18,1.3-1.28,1.79-2.56,1.43a100,100,0,0,0-11.19-2.91c-2-.32-2.29-1.62-2.82-2.8C251,144.33,250.34,142.06,249.6,140Z"/><path class="cls-1" d="M181.38,71.08c1.4,1.27,2.62,2.41,3.88,3.5.89.78,1.86,1.46,2.72,2.25,4.74,4.32,7,9.81,7.6,16.1.21,2.25.64,4.47.85,6.72a51.19,51.19,0,0,1-.81,13.13,74.22,74.22,0,0,1-7,21.73c-1.83,3.61-4.58,6.52-7,9.72A22.48,22.48,0,0,1,173,151c-4.13,2-8.37,1.46-12.66.24-4-1.14-8.12-2-12.2-2.87s-7.77-2.28-10.4-5.69a34.89,34.89,0,0,1-3.62-5,39.08,39.08,0,0,1-3.73-8.69,33.1,33.1,0,0,1-.87-11.84c.38-3.07.18-6.22.68-9.26,1.49-9.15,4.33-17.85,9.68-25.53,4.4-6.33,9.8-11.61,17.16-14.39a21.13,21.13,0,0,1,15.27.23c1.82.68,3.94.6,5.92.85.53.06,1.08,0,1.6.07C181.23,69.26,181.66,69.91,181.38,71.08ZM169.82,75.9c-3.41,2.55-7,4.73-9.68,8.33a51.58,51.58,0,0,0-9.34,18.9,90.11,90.11,0,0,0-1.7,11.47,35.69,35.69,0,0,0,1.37,14.8c1.07,3.32,3.07,6.39,5,9.38,1.61,2.56,1.8,2.44,4.41,1a4.86,4.86,0,0,0,.7-.4,43.79,43.79,0,0,0,8.81-10,57.84,57.84,0,0,0,4.67-9.55,50,50,0,0,0,3.87-16.27c.25-5.36.19-10.71-1.22-15.93a24.32,24.32,0,0,0-2.37-6.07A49.33,49.33,0,0,0,169.82,75.9Z"/><path class="cls-1" d="M1131.21,152.29A52.79,52.79,0,0,1,1118.1,150c-3.11-.91-6.34-1.4-9.53-2a22.62,22.62,0,0,1-12.69-6.63,17,17,0,0,1-2.34-3.82c-1.06-2.05-2-4.14-3-6.24-.63-1.37-1.21-2.76-1.71-4.18a5.22,5.22,0,0,1-.25-2c.13-2.4,1-3,3.26-2.25,1.41.48,2.77,1.09,4.19,1.54a7.62,7.62,0,0,0,2.18.32,11.55,11.55,0,0,0,2.35-.14c2-.34,2.78.85,3.69,2.35,3.22,5.32,6.23,10.83,11.27,14.78a5.34,5.34,0,0,0,5,1.22,24,24,0,0,0,9.78-5,8.22,8.22,0,0,0,1.35-2.1c3.92-6.78,2.55-13-2-18.88-1.86-2.38-3.91-4.62-5.93-6.88a38.73,38.73,0,0,0-3.84-4c-2.69-2.25-5.53-4.32-8.26-6.52-1-.84-1.93-1.84-2.92-2.73a35.6,35.6,0,0,1-3.31-2.92,19.13,19.13,0,0,1-4.36-17.31,33.16,33.16,0,0,1,5.22-12.06A18,18,0,0,1,1112.7,59a11.46,11.46,0,0,1,7.26-1.59c1.62.24,3.17.88,4.78,1.17,2.36.43,4.78.57,7.12,1.07a27.51,27.51,0,0,1,6.2,1.91,59.68,59.68,0,0,1,7.11,4.26c1.74,1.16,2,4.41.57,6-.68.76-1.44.45-2.22.25-2.91-.72-5.84-1.38-8.74-2.15a7.08,7.08,0,0,1-1.8-1.1c-1.52-1-3-2.06-4.58-2.89-.37-.2-1.27.29-1.76.68a19.91,19.91,0,0,0-8,15.23c-.16,3.22,1.2,6.07,2.92,8.73,2.42,3.75,6.18,6,9.61,8.6,3.79,2.9,7.59,5.81,11.1,9a49.29,49.29,0,0,1,10,12.14,18,18,0,0,1,2.22,10.83,29.85,29.85,0,0,1-2.94,10.65A15.34,15.34,0,0,1,1144,149a30.38,30.38,0,0,1-8.11,2.81C1134.17,152.08,1132.43,152.17,1131.21,152.29Z"/><path class="cls-1" d="M648.59,152.29A52.71,52.71,0,0,1,635.48,150c-3.11-.91-6.34-1.4-9.53-2a22.62,22.62,0,0,1-12.69-6.63,17,17,0,0,1-2.34-3.82c-1.06-2.05-2-4.14-3-6.24-.63-1.37-1.21-2.76-1.72-4.18a5.42,5.42,0,0,1-.24-2c.13-2.4,1-3,3.26-2.25,1.41.48,2.77,1.09,4.19,1.54a7.62,7.62,0,0,0,2.18.32,11.55,11.55,0,0,0,2.35-.14c2-.34,2.78.85,3.69,2.35,3.22,5.32,6.23,10.83,11.27,14.78a5.34,5.34,0,0,0,5,1.22,24,24,0,0,0,9.78-5,8.22,8.22,0,0,0,1.35-2.1c3.92-6.78,2.54-13-2-18.88-1.86-2.38-3.91-4.62-5.93-6.88a38.73,38.73,0,0,0-3.84-4c-2.69-2.25-5.53-4.32-8.26-6.52-1-.84-1.93-1.84-2.92-2.73A34.36,34.36,0,0,1,622.81,94a19.11,19.11,0,0,1-4.36-17.31,33.16,33.16,0,0,1,5.22-12.06,18,18,0,0,1,6.4-5.61,11.5,11.5,0,0,1,7.27-1.59c1.61.24,3.17.88,4.78,1.17,2.36.43,4.78.57,7.12,1.07a27.51,27.51,0,0,1,6.2,1.91,59.68,59.68,0,0,1,7.11,4.26c1.74,1.16,2,4.41.57,6-.68.76-1.44.45-2.23.25-2.91-.72-5.83-1.38-8.73-2.15a7.31,7.31,0,0,1-1.81-1.1c-1.51-1-3-2.06-4.57-2.89-.37-.2-1.27.29-1.76.68a19.91,19.91,0,0,0-8,15.23c-.16,3.22,1.2,6.07,2.92,8.73,2.42,3.75,6.18,6,9.61,8.6,3.79,2.9,7.59,5.81,11.1,9a49.29,49.29,0,0,1,10,12.14,18,18,0,0,1,2.22,10.83,30.05,30.05,0,0,1-2.94,10.65,15.34,15.34,0,0,1-7.56,7.21,30.38,30.38,0,0,1-8.11,2.81C651.55,152.08,649.81,152.17,648.59,152.29Z"/><path class="cls-1" d="M1551.62,152.29a52.63,52.63,0,0,1-13.1-2.31c-3.11-.91-6.35-1.4-9.53-2a22.59,22.59,0,0,1-12.69-6.63,17,17,0,0,1-2.35-3.82c-1-2.05-2-4.14-3-6.24-.62-1.37-1.21-2.76-1.71-4.18a5,5,0,0,1-.24-2c.12-2.4,1-3,3.26-2.25,1.4.48,2.77,1.09,4.18,1.54a7.63,7.63,0,0,0,2.19.32,11.46,11.46,0,0,0,2.34-.14c2-.34,2.78.85,3.69,2.35,3.22,5.32,6.23,10.83,11.27,14.78a5.36,5.36,0,0,0,5,1.22,23.86,23.86,0,0,0,9.77-5,8,8,0,0,0,1.35-2.1c3.93-6.78,2.55-13-2-18.88-1.86-2.38-3.91-4.62-5.92-6.88a39.92,39.92,0,0,0-3.85-4c-2.69-2.25-5.53-4.32-8.26-6.52-1-.84-1.93-1.84-2.92-2.73a35.6,35.6,0,0,1-3.31-2.92,19.13,19.13,0,0,1-4.36-17.31,33.16,33.16,0,0,1,5.22-12.06,18,18,0,0,1,6.41-5.61,11.47,11.47,0,0,1,7.26-1.59c1.62.24,3.17.88,4.78,1.17,2.36.43,4.78.57,7.12,1.07a27.36,27.36,0,0,1,6.2,1.91,59.8,59.8,0,0,1,7.12,4.26c1.74,1.16,2,4.41.56,6-.68.76-1.43.45-2.22.25-2.91-.72-5.84-1.38-8.74-2.15a7.08,7.08,0,0,1-1.8-1.1c-1.52-1-3-2.06-4.57-2.89-.38-.2-1.28.29-1.77.68a19.87,19.87,0,0,0-8,15.23c-.16,3.22,1.19,6.07,2.91,8.73,2.42,3.75,6.19,6,9.61,8.6,3.79,2.9,7.6,5.81,11.11,9a49.48,49.48,0,0,1,10,12.14,18,18,0,0,1,2.22,10.83,29.85,29.85,0,0,1-2.94,10.65,15.36,15.36,0,0,1-7.55,7.21,30.45,30.45,0,0,1-8.12,2.81C1554.58,152.08,1552.84,152.17,1551.62,152.29Z"/><path class="cls-1" d="M578,152.29a52.63,52.63,0,0,1-13.1-2.31c-3.12-.91-6.35-1.4-9.54-2a22.62,22.62,0,0,1-12.69-6.63,17.38,17.38,0,0,1-2.34-3.82c-1-2.05-2-4.14-3-6.24-.62-1.37-1.21-2.76-1.71-4.18a5.22,5.22,0,0,1-.25-2c.13-2.4,1-3,3.26-2.25,1.41.48,2.77,1.09,4.19,1.54a7.62,7.62,0,0,0,2.18.32,11.55,11.55,0,0,0,2.35-.14c2-.34,2.78.85,3.69,2.35,3.22,5.32,6.23,10.83,11.27,14.78a5.34,5.34,0,0,0,5,1.22,24,24,0,0,0,9.78-5,8.22,8.22,0,0,0,1.35-2.1c3.92-6.78,2.55-13-2-18.88-1.86-2.38-3.91-4.62-5.93-6.88a38.73,38.73,0,0,0-3.84-4c-2.69-2.25-5.53-4.32-8.26-6.52-1-.84-1.93-1.84-2.92-2.73A35.6,35.6,0,0,1,552.17,94a19.13,19.13,0,0,1-4.36-17.31A33.16,33.16,0,0,1,553,64.62,18,18,0,0,1,559.44,59a11.47,11.47,0,0,1,7.26-1.59c1.62.24,3.17.88,4.78,1.17,2.36.43,4.78.57,7.12,1.07a27.51,27.51,0,0,1,6.2,1.91,58.89,58.89,0,0,1,7.11,4.26c1.74,1.16,2,4.41.57,6-.68.76-1.44.45-2.22.25-2.91-.72-5.84-1.38-8.74-2.15a7.08,7.08,0,0,1-1.8-1.1c-1.52-1-3-2.06-4.57-2.89-.38-.2-1.28.29-1.77.68a19.91,19.91,0,0,0-8,15.23c-.15,3.22,1.2,6.07,2.92,8.73,2.42,3.75,6.18,6,9.61,8.6,3.79,2.9,7.59,5.81,11.1,9a49.29,49.29,0,0,1,10,12.14,18,18,0,0,1,2.22,10.83,29.85,29.85,0,0,1-2.94,10.65,15.34,15.34,0,0,1-7.56,7.21,30.38,30.38,0,0,1-8.11,2.81C580.91,152.08,579.17,152.17,578,152.29Z"/><path class="cls-1" d="M1742.05,71.57c-4.88.18-9.67.39-14.46.5a10.51,10.51,0,0,1-2.73-.55c-2.93-.71-5.74-1.94-8.83-2-.84,0-1.88-.06-2.06-1.27a2.78,2.78,0,0,1,1.64-3.07c2.06-.57,4.15-1.05,6.24-1.47,4-.81,8.1-1.55,12.15-2.3q6.75-1.27,13.52-2.51c1.52-.28,3-.58,4.59-.78,5.31-.71,10.56.05,15.8.81,3.21.46,6.51.5,9.61,1.32a84.85,84.85,0,0,0,13.11,2.38,7.52,7.52,0,0,1,2.26.75c.72.32.89.87.56,1.66a7.37,7.37,0,0,0-.32,1.79,1.49,1.49,0,0,1-1.86,1.41c-3.37-.31-6.74-.65-10.12-.84a61.62,61.62,0,0,0-6.93,0c-4.19.24-8.38.61-12.57,1-1.06.09-2.11.27-3.16.45a1.32,1.32,0,0,0-1.25,1.55c.12,2.74.24,5.48.22,8.23,0,4.43-.19,8.87-.3,13.3,0,1.3,0,2.59-.09,3.88-.46,4.83,0,9.67-.37,14.51-.5,6.75-.76,13.52-1.39,20.25-.33,3.54-1.24,7-1.87,10.52-.36,2-.65,3.94-1,5.9-.29,1.52-.67,3-1.05,4.68l-.9-.42-.76,1-1.86-1.47-.38,1.07c-2.8-.62-5.62-1.18-8.41-1.86s-2.76-.73-2.53-3.63c.28-3.51.4-7,.65-10.56.22-3.3.46-6.6.78-9.89.64-6.51,1.42-13,2-19.53s.89-13,1.3-19.45c.32-5,.61-9.94.91-14.92A2,2,0,0,0,1742.05,71.57Z"/><path class="cls-1" d="M94.24,92.79c1.16-1.67,2.19-3.18,3.26-4.66,1.94-2.7,4-5.32,5.82-8.09s3.53-5.94,5.38-8.86a7,7,0,0,1,2-1.77,1.27,1.27,0,0,1,1.09,0c2.92,1.33,6.07,1.55,9.18,1.84,2.76.25,3.19.59,2.74,3.32a33.33,33.33,0,0,1-4.82,12.29c-1.77,2.85-3.39,5.8-5.25,8.59-2.48,3.72-5.11,7.33-7.7,11a5.72,5.72,0,0,0-1,4.12c.31,3.42.34,6.86.53,10.3.14,2.62.53,5.25.48,7.87,0,2.83-.46,5.66-.75,8.48-.22,2.14-.45,4.27-.76,6.4-.33,2.34-.69,4.68-1.15,7a2.27,2.27,0,0,1-2.9,1.57c-2.66-.81-5.28-1.73-8-2.44a23.61,23.61,0,0,0-4.21-.49,1.75,1.75,0,0,1-1.83-1.65c-.7-6.34-1.7-12.67-1.94-19-.2-5.37.48-10.77.8-16.15,0-.71,0-1.12-.79-1.46a3.93,3.93,0,0,1-1.71-1.67c-1.32-2.32-2.5-4.72-3.78-7.06-.49-.9-1.22-1.68-1.69-2.59-1.57-3-3.18-6.09-4.59-9.22-1.91-4.27-3.67-8.6-5.45-12.92a57.55,57.55,0,0,1-2.49-6.79A9.73,9.73,0,0,1,64.86,67c.1-.66.59-.9,1.38-.64a46.63,46.63,0,0,0,10.63,1.93,4.5,4.5,0,0,1,2.85,1.47A104.3,104.3,0,0,1,93.54,91.5C93.69,91.85,93.9,92.17,94.24,92.79Z"/><path class="cls-1" d="M1803.86,144.65a5.45,5.45,0,0,0,.25.73,3.14,3.14,0,0,1,0,3.29,1.13,1.13,0,0,0-.14.36c-.56,3.07-2,3.79-5,2.91-3.64-1.05-7.33-1.91-11-2.82a15.62,15.62,0,0,0-1.69-.13c-1.9-.23-2.79-1.81-3.33-3.2a8.16,8.16,0,0,1,0-4.19,5,5,0,0,1,1.4-2.63c1.28-1.11,2.77-2,4.65-1.31a34.91,34.91,0,0,0,10.47,2A4.71,4.71,0,0,1,1803.86,144.65Z"/><path class="cls-1" d="M746.91,99a58.51,58.51,0,0,1,1.38,7.45c.46,3.7.86,7.41,1.06,11.14.18,3.23.06,6.48.07,9.73,0,3.68,0,7.37,0,11.05a58.49,58.49,0,0,1-1.12,12.1c-.35,1.61-1.22,2.15-2.77,1.72-3.8-1-7.59-2.06-11.4-3.06-1.81-.48-1.86-.45-1.67-2.28.72-6.68.41-13.39.23-20.08-.1-3.72-.85-7.41-1.21-11.13-.33-3.3-.49-6.61-.78-9.91-.13-1.56-.39-3.11-.61-4.83-1.71.33-3.31.61-4.89,1-4.18.91-8.32,2-12.53,2.71-2.24.37-3.18,1.3-3.59,3.5s-1.47,4.33-2.12,6.52c-1.23,4.16-2.47,8.32-3.51,12.52-.69,2.82-1,5.72-1.57,8.58-.2,1.09-.44,2.17-.71,3.25a1.66,1.66,0,0,1-2.32,1.29c-2-.58-4-1.16-6.07-1.63s-4.4-.8-6.57-1.34a2.41,2.41,0,0,1-1.29-1.38,4.31,4.31,0,0,1,0-1.83q.45-6.51.92-13c.22-3.07.45-6.14.65-9.22a17.92,17.92,0,0,0,0-2.93,1.42,1.42,0,0,0-.91-.88c-1.72-.39-3.45-.7-5.19-1-.81-.13-1.71-.07-2-1.1a2.58,2.58,0,0,1,1.35-2.8c1.32-.58,9.6-1,10.94-1.54.12,0,15.16-30.88,15.18-30.68.89-1.31,1.73-2.57,2.61-3.81a17,17,0,0,1,8.18-6.63,11.1,11.1,0,0,1,7.42-.11A49.05,49.05,0,0,0,733,62c2.26.28,4.64.21,6.2,2.14a23,23,0,0,1,2.58,4.41c1.65,3.33,1.92,7,2.57,10.61C744.77,81.64,746.63,97.9,746.91,99ZM726.3,71.8a25,25,0,0,0-2.39,2.78,110.06,110.06,0,0,0-6.73,13.21c-.66,1.51-1.29,3-2,4.73.59-.07,1-.1,1.31-.16l10.77-1.72c1.21-.2,1.75-1,1.54-2.39-.43-2.88-.84-5.76-1.27-8.64C727.15,77.11,726.74,74.61,726.3,71.8Z"/><path class="cls-1" d="M1078.79,99a58.51,58.51,0,0,1,1.38,7.45c.46,3.7.86,7.41,1.06,11.14.18,3.23.06,6.48.07,9.73,0,3.68,0,7.37,0,11.05a58.49,58.49,0,0,1-1.12,12.1c-.35,1.61-1.22,2.15-2.77,1.72-3.8-1-7.59-2.06-11.4-3.06-1.81-.48-1.86-.45-1.67-2.28.72-6.68.41-13.39.23-20.08-.09-3.72-.85-7.41-1.21-11.13-.33-3.3-.49-6.61-.78-9.91-.13-1.56-.39-3.11-.61-4.83-1.71.33-3.31.61-4.89,1-4.18.91-8.32,2-12.53,2.71-2.24.37-3.18,1.3-3.59,3.5s-1.47,4.33-2.12,6.52c-1.23,4.16-2.47,8.32-3.51,12.52-.69,2.82-1,5.72-1.56,8.58-.21,1.09-.45,2.17-.72,3.25a1.66,1.66,0,0,1-2.32,1.29c-2-.58-4-1.16-6.07-1.63s-4.4-.8-6.57-1.34a2.44,2.44,0,0,1-1.29-1.38,4.31,4.31,0,0,1,0-1.83q.45-6.51.92-13c.22-3.07.45-6.14.65-9.22a17.92,17.92,0,0,0,0-2.93,1.4,1.4,0,0,0-.91-.88c-1.71-.39-3.45-.7-5.19-1-.81-.13-1.71-.07-2-1.1a2.58,2.58,0,0,1,1.35-2.8c1.32-.58,9.6-1,10.94-1.54.12,0,15.16-30.88,15.18-30.68.89-1.31,1.73-2.57,2.61-3.81a17,17,0,0,1,8.18-6.63,11.1,11.1,0,0,1,7.42-.11,49.05,49.05,0,0,0,8.88,1.7c2.26.28,4.64.21,6.2,2.14a23,23,0,0,1,2.58,4.41c1.65,3.33,1.92,7,2.57,10.61C1076.65,81.64,1078.51,97.9,1078.79,99Zm-20.6-27.16a24.16,24.16,0,0,0-2.4,2.78,110.06,110.06,0,0,0-6.73,13.21c-.66,1.51-1.29,3-2,4.73.59-.07,1-.1,1.31-.16l10.77-1.72c1.21-.2,1.75-1,1.55-2.39-.44-2.88-.85-5.76-1.28-8.64C1059,77.11,1058.63,74.61,1058.19,71.8Z"/></g></svg>