<svg xmlns="http://www.w3.org/2000/svg" viewBox="0 0 200 61.85"><defs><style>.cls-1{fill:#8872a4;}</style></defs><g id="Layer_2" data-name="Layer 2"><g id="Layer_1-2" data-name="Layer 1"><path class="cls-1" d="M92,41.4c-.63-.26-.66-.48-.55-1.15.21-1.2.3-2.41.43-3.62s.24-2.27.33-3.41c0-.53,0-1.07,0-1.6.09-3.31.17-6.63.26-9.94.11-3.76.2-7.51.36-11.27a35.92,35.92,0,0,1,1-7.58A11.79,11.79,0,0,0,94,1.13c.06-.58.29-.69.87-.68S96,.29,96.59.24c1-.09,2.07-.2,3.11-.23a24.07,24.07,0,0,1,9.93,2.08,20.65,20.65,0,0,1,8.85,6.85,13.53,13.53,0,0,1,2.67,8.11,21.58,21.58,0,0,1-.8,5.3,26.46,26.46,0,0,1-1.64,5.51,19.76,19.76,0,0,1-5.9,7.18,27.61,27.61,0,0,1-8.55,4.46C101.93,40.24,92.53,41.61,92,41.4ZM94.34,35c1.27-.06,2.43-.08,3.59-.17a28.35,28.35,0,0,0,11.3-3.17,23.31,23.31,0,0,0,5.31-3.81,18.84,18.84,0,0,0,3.11-4.08,6.68,6.68,0,0,0,.91-2.45,9.15,9.15,0,0,0-.86-4.67,13.41,13.41,0,0,0-2.81-4.28,19.06,19.06,0,0,0-4.18-3.59,42.77,42.77,0,0,0-4.81-2.23,18.75,18.75,0,0,0-10-1.24c-.39.06-.49.2-.49.58,0,1.23,0,2.47-.09,3.7,0,.37-.07.74-.06,1.12,0,1.61.07,3.22.06,4.83,0,1.2-.07,2.39-.11,3.59,0,1.46,0,2.93-.12,4.39s-.21,3-.32,4.5c-.15,2.11-.29,4.22-.44,6.33C94.33,34.59,94.34,34.79,94.34,35Z"/><path class="cls-1" d="M11.27,32.36c.18-.46.4-.92.54-1.39Q12.9,27.21,14,23.44c.45-1.62.89-3.25,1.34-4.87a6.55,6.55,0,0,1,.27-.74c.17-.44.28-1,.88-.95s1.43.13,1.74.94c.41,1.08.82,2.16,1.25,3.23s.81,2.25,1.34,3.31c1.27,2.57,2.59,5.12,3.93,7.65.49.92,1.1,1.77,1.66,2.64.08.12.24.17.5.35.17-.85.35-1.59.44-2.34.16-1.37.27-2.75.39-4.12.18-2.11.32-4.22.53-6.33.33-3.1.7-6.21,1.05-9.31.26-2.29.48-4.59.79-6.88.22-1.6.56-3.2.87-4.79,0-.2.26-.48.43-.5a3.76,3.76,0,0,1,1.15.1s.09.27.08.41c-.33,3.83-.66,7.65-1,11.47-.15,1.68-.38,3.35-.55,5-.22,2.24-.41,4.49-.62,6.73-.18,1.88-.29,3.78-.6,5.64-.33,2.07-.84,4.11-1.3,6.16-.26,1.14-.56,2.27-.86,3.4a3.37,3.37,0,0,1-.36.83,1.56,1.56,0,0,1-2.42.27,11.78,11.78,0,0,1-3.14-3.84c-.9-1.62-1.75-3.26-2.6-4.9a41.33,41.33,0,0,1-2.88-7.14,2.13,2.13,0,0,0-.39-.74l-.48,1.75c-.7,2.59-1.36,5.19-2.11,7.77-.42,1.4-1,2.78-1.5,4.15-.21.54-.53,1.1-1.21,1.15a1.83,1.83,0,0,1-2-1.15c-.36-.81-.7-1.64-1-2.48-.75-2.3-1.51-4.59-2.2-6.91S4.15,23.85,3.5,21.57c-.49-1.74-1-3.46-1.5-5.2-.55-2-1-4-1.55-6a1.84,1.84,0,0,1,.11-.62C.06,9.33-.22,7,.22,6.52A2.4,2.4,0,0,1,.14,5.9C.27,5,.41,4,.6,3.07.65,2.8.82,2.4,1,2.34a.83.83,0,0,1,1.11.57C3.43,7.1,4.75,11.28,6,15.47c.62,2.07,1.13,4.16,1.73,6.23.41,1.43.91,2.84,1.36,4.26.59,1.93,1.17,3.87,1.76,5.8.06.2.16.39.24.59Z"/><path class="cls-1" d="M176.64,36.81c-.56.91-1.08,1.9-1.74,2.78a4.08,4.08,0,0,1-2.8,1.67,3.48,3.48,0,0,1-3.54-1.74,12,12,0,0,1-1.19-8.16c.54-2.91,1.06-5.84,1.78-8.72a14.14,14.14,0,0,1,2.9-6,5.21,5.21,0,0,1,3.49-2.11,6.08,6.08,0,0,1,3.28.69,1.76,1.76,0,0,1,.65,2.46c.63.17.49.68.48,1.14-.13,4-.24,8-.42,11.92-.11,2.45-.32,4.91-.5,7.36-.15,2-.25,3.92-.52,5.86s-.69,3.79-1.07,5.68c-.28,1.39-.57,2.77-.92,4.15a18.35,18.35,0,0,1-2.11,5.54,5.76,5.76,0,0,1-5.64,2.4,4.47,4.47,0,0,1-2.9-2.84,18.75,18.75,0,0,1-1.49-6.39,10.13,10.13,0,0,1,.44-2.43c.13-.74.23-1.49.31-2.24.09-.91.79-1.32,1.56-.85a.9.9,0,0,1,.28.62,11.28,11.28,0,0,0,.14,2.11,49.64,49.64,0,0,0,1.63,4.72,4.43,4.43,0,0,0,1.14,1.36.88.88,0,0,0,.72.12,5.3,5.3,0,0,0,3.9-3.62,31.23,31.23,0,0,0,1-3.25,22.08,22.08,0,0,0,.42-3c.22-2.43.4-4.86.59-7.29C176.57,38.06,176.6,37.39,176.64,36.81Zm-6.59-7.53c0,.19.06.53.12.86a9.46,9.46,0,0,0,1.59,4.2.9.9,0,0,0,1.14.34A3.59,3.59,0,0,0,175,33a15.09,15.09,0,0,0,1.41-3.09,29.62,29.62,0,0,0,.76-4.1c.22-1.43.31-2.88.56-4.31.15-.88-.16-1.46-1.07-1.55a4.19,4.19,0,0,0-4.22,2.18c-.52.95-1,1.92-1.5,2.87A8.43,8.43,0,0,0,170.05,29.28Z"/><path class="cls-1" d="M59.1,18.1a11.09,11.09,0,0,1,5.63-1.55,11.65,11.65,0,0,1,5,1.14,8.78,8.78,0,0,1,3.68,3.09,7.86,7.86,0,0,1,.91,6.34c-.37,1.56-.68,3.14-1.13,4.68a9,9,0,0,1-2.93,4.55,11.22,11.22,0,0,1-4.11,2.23,11.67,11.67,0,0,1-2.74.43c-1.43,0-2.87-.07-4.3-.19a5.3,5.3,0,0,1-1.33-.5c0,.14-.06.27-.08.4-.08.42-.14.85-.75.76s-.85-.25-.83-1c0-2,.09-4,.11-6,0-3,0-6,0-9,0-2.33.07-4.65.13-7s.12-4.64.21-7c.05-1.29.11-2.57.24-3.85,0-.53.34-1,.44-1.58.15-.83.23-1.68.33-2.53,0-.33,0-.66.52-.65.7,0,1.08.24,1.11.73.05.8.06,1.59.05,2.39,0,3-.1,5.91-.16,8.86,0,1.65-.07,3.29-.11,4.94C59.07,17.89,59.09,18,59.1,18.1Zm3.84,15.53,0-.1c.69-.05,1.39-.06,2.09-.14a8.47,8.47,0,0,0,4.21-1.84,7.62,7.62,0,0,0,2.42-2.66,1.74,1.74,0,0,0,.16-1.07A7.63,7.63,0,0,0,65.12,22a10.9,10.9,0,0,0-5.08.66c-1,.36-1,.43-1,1.54s-.07,2.19-.12,3.28c-.07,1.53-.15,3.06-.23,4.59,0,.92,0,1,.89,1.2C60.66,33.46,61.8,33.52,62.94,33.63Z"/><path class="cls-1" d="M186,22.37c.37-.67.75-1.33,1.09-2a13.42,13.42,0,0,1,3-3.49A8.51,8.51,0,0,1,192.9,15a5,5,0,0,1,5,.41A4.51,4.51,0,0,1,199.57,18a12.3,12.3,0,0,1,.39,4.31c-.15,2.36-.37,4.72-.56,7.07-.14,1.69-.24,3.39-.41,5.08a19.8,19.8,0,0,1-.78,4.82,16.88,16.88,0,0,0-.64,3c-.17,1-.78.94-1.47.61-.12-.06-.18-.34-.17-.51.17-2,.36-4.05.54-6.07.2-2.34.4-4.68.57-7a23,23,0,0,0,0-5.62,5.89,5.89,0,0,0-1-2.69,2.41,2.41,0,0,0-2.78-.92,8.05,8.05,0,0,0-2.87,1.57,11.11,11.11,0,0,0-2.84,3A6.37,6.37,0,0,0,186.29,29a26.05,26.05,0,0,1-.08,4.23c0,1.21-.09,2.43-.14,3.64a5.49,5.49,0,0,1-.14.89c-.23,1.06-.48,2.13-.7,3.2-.08.38-.3.47-.65.43s-.76-.06-.76-.58c0-.85,0-1.7,0-2.55,0-1.15,0-2.29-.05-3.44s-.07-2.6-.11-3.89c0-1.8-.12-3.6-.13-5.4s.05-3.56.1-5.34a6.82,6.82,0,0,1,.2-.87c.14-.87.28-1.74.41-2.61,0-.29.06-.6.44-.62.61,0,1,.16,1,.58C185.81,18.57,185.92,20.46,186,22.37Z"/><path class="cls-1" d="M39.82,31.88a4.24,4.24,0,0,0,5.39,1.7,12.59,12.59,0,0,0,5.37-3.94c.51-.63,1-1.25,1.55-1.88a1.41,1.41,0,0,0,.18-.29c.31-.65.69-.78,1.3-.42.39.23.23.6.15.92a10.5,10.5,0,0,0-.54,2c-.12,2.05-1.41,3.4-2.68,4.78-.92,1-1.78,2.11-2.76,3.06a6.25,6.25,0,0,1-6,2,10.69,10.69,0,0,1-2-.48,7,7,0,0,1-4-5.78,26.19,26.19,0,0,1-.14-4.52A12.48,12.48,0,0,1,36,27c.18-1.06.34-2.12.53-3.18a7.91,7.91,0,0,1,2.25-4.61,7.33,7.33,0,0,1,4.53-2,6.16,6.16,0,0,1,4.42,1,2.85,2.85,0,0,1,1.22,3c-.22,1.06-.53,2.1-.81,3.14-.24.87-.44,1.75-.75,2.6a4.75,4.75,0,0,1-1.91,2.2,24.1,24.1,0,0,1-2.71,1.64C41.86,31.22,40.83,31.51,39.82,31.88Zm-1.48-5.29a13.27,13.27,0,0,0,7.53-3.33,2.73,2.73,0,0,0-2.11-.76A7.18,7.18,0,0,0,39,24.84,1.68,1.68,0,0,0,38.34,26.59Z"/><path class="cls-1" d="M124.63,28.47a9,9,0,0,0,1,3.56,17.19,17.19,0,0,0,1,1.5,4.18,4.18,0,0,0,4.43,1.6,14.1,14.1,0,0,0,5.77-2.92,1.23,1.23,0,0,0,.35-.7c.11-.51.33-.63.78-.34,1,.62.94.65.61,1.79a14.11,14.11,0,0,0-.54,2.38,2.93,2.93,0,0,1-1.13,2,26.13,26.13,0,0,1-4.92,3,6.66,6.66,0,0,1-4.53.53A6,6,0,0,1,123.44,38a12,12,0,0,1-1.53-8.41,64,64,0,0,1,1.44-7.27,14.05,14.05,0,0,1,3-5.81,6,6,0,0,1,7.79-1,4.08,4.08,0,0,1,1.5,4.63c-.31,1-.45,2-.71,3a3.47,3.47,0,0,1-1.07,2.13c-.58.45-1,1.15-1.65,1.48a9.83,9.83,0,0,1-4.48,1.44c-.69,0-1.38.18-2.07.25C125.36,28.49,125.06,28.47,124.63,28.47ZM133.05,21a6.28,6.28,0,0,0-1.31-.9,3.81,3.81,0,0,0-3.74.59,7.51,7.51,0,0,0-2.44,2.91C128.24,23.18,130.79,22.86,133.05,21Z"/><path class="cls-1" d="M154.75,32.47c-.13.57-.24,1.15-.38,1.71-.24,1-.53,2-.73,3a5.2,5.2,0,0,1-6.42,4.05,8.33,8.33,0,0,1-3.71-2.39,11.77,11.77,0,0,1-1.06-.91,20,20,0,0,1-1.37-1.78c-.09-.13,0-.4,0-.6.23-.85.49-1.7.71-2.56a2.11,2.11,0,0,0-.06-.55c0-.38,0-.58.53-.51a2.47,2.47,0,0,1,1.29.72,43.74,43.74,0,0,0,3.71,3,3.79,3.79,0,0,0,4.31-.68.81.81,0,0,0,0-.65,8.18,8.18,0,0,0-4.14-4.55c-.81-.38-1.63-.78-2.46-1.12a7.81,7.81,0,0,1-3.61-2.74,4.94,4.94,0,0,1-.72-3.8c.24-1.35.49-2.71.74-4.07a6.73,6.73,0,0,1,4.44-5.34,6.38,6.38,0,0,1,6.07,1,5.33,5.33,0,0,1,1.83,2c.42.81,0,1.52-.09,2.26s-.28,1.45-.46,2.17c-.06.22-.27.6-.37.59-.33-.05-.82-.15-.92-.38-.85-1.9-2.49-2.6-4.34-3a3.66,3.66,0,0,0-3.19,1.1c-.34.29-.62.65-.94,1a.82.82,0,0,0-.16.94,5.18,5.18,0,0,0,3.31,3,17.36,17.36,0,0,1,4.56,2.37A8.62,8.62,0,0,1,154.75,32.47Z"/><path class="cls-1" d="M159.31,21.36c.25-1.21.5-2.33.71-3.46.14-.8.23-1.61.34-2.42.08-.63.47-.79,1-.54a1.1,1.1,0,0,1,.68,1.25c0,.9.09,1.8.11,2.7.05,1.62.1,3.25.12,4.88,0,2.91.09,5.83.09,8.75a16.45,16.45,0,0,1-.69,5,22.16,22.16,0,0,0-.52,2.55c-.07.36-.15.73-.59.72s-1,0-1.2-.56a2,2,0,0,1-.11-1.16,13.17,13.17,0,0,0,.36-4.28c-.08-3.22-.23-6.43-.33-9.65C159.28,23.87,159.31,22.59,159.31,21.36Z"/><path class="cls-1" d="M162,7c-.11.47-.2.82-.28,1.17l-.87,3.63c-.17.71-.41.81-1.07.45a1.19,1.19,0,0,0-.26-.11c-.75-.31-.8-.52-.61-1.32.26-1.09.41-2.21.67-3.3.09-.38.3-.9.59-1a2.62,2.62,0,0,1,1.39,0C161.78,6.57,161.92,6.88,162,7Z"/></g></g></svg>